<svg version="1.1" id="el_6iFLBADgT" xmlns="http://www.w3.org/2000/svg" xmlns:xlink="http://www.w3.org/1999/xlink" x="0px" y="0px" viewBox="0 0 303 303" style="enable-background:new 0 0 303.9 303.9;" xml:space="preserve"><style type="text/css">@-webkit-keyframes kf_el_4Y0q0unJio_an_bXh8bWgJ7 {
    0% {
        -webkit-transform: translate(213.10000610351562px, 223.4499969482422px) translate(-213.10000610351562px, -223.4499969482422px) translate(0px, 0px);
                transform: translate(213.10000610351562px, 223.4499969482422px) translate(-213.10000610351562px, -223.4499969482422px) translate(0px, 0px)
    }
    41.11% {
        -webkit-transform: translate(213.10000610351562px, 223.4499969482422px) translate(-213.10000610351562px, -223.4499969482422px) translate(-15px, 0px);
                transform: translate(213.10000610351562px, 223.4499969482422px) translate(-213.10000610351562px, -223.4499969482422px) translate(-15px, 0px)
    }
    73.33% {
        -webkit-transform: translate(213.10000610351562px, 223.4499969482422px) translate(-213.10000610351562px, -223.4499969482422px) translate(6px, 0px);
                transform: translate(213.10000610351562px, 223.4499969482422px) translate(-213.10000610351562px, -223.4499969482422px) translate(6px, 0px)
    }
    100% {
        -webkit-transform: translate(213.10000610351562px, 223.4499969482422px) translate(-213.10000610351562px, -223.4499969482422px) translate(0px, 0px);
                transform: translate(213.10000610351562px, 223.4499969482422px) translate(-213.10000610351562px, -223.4499969482422px) translate(0px, 0px)
    }
}
@keyframes kf_el_4Y0q0unJio_an_bXh8bWgJ7 {
    0% {
        -webkit-transform: translate(213.10000610351562px, 223.4499969482422px) translate(-213.10000610351562px, -223.4499969482422px) translate(0px, 0px);
                transform: translate(213.10000610351562px, 223.4499969482422px) translate(-213.10000610351562px, -223.4499969482422px) translate(0px, 0px)
    }
    41.11% {
        -webkit-transform: translate(213.10000610351562px, 223.4499969482422px) translate(-213.10000610351562px, -223.4499969482422px) translate(-15px, 0px);
                transform: translate(213.10000610351562px, 223.4499969482422px) translate(-213.10000610351562px, -223.4499969482422px) translate(-15px, 0px)
    }
    73.33% {
        -webkit-transform: translate(213.10000610351562px, 223.4499969482422px) translate(-213.10000610351562px, -223.4499969482422px) translate(6px, 0px);
                transform: translate(213.10000610351562px, 223.4499969482422px) translate(-213.10000610351562px, -223.4499969482422px) translate(6px, 0px)
    }
    100% {
        -webkit-transform: translate(213.10000610351562px, 223.4499969482422px) translate(-213.10000610351562px, -223.4499969482422px) translate(0px, 0px);
                transform: translate(213.10000610351562px, 223.4499969482422px) translate(-213.10000610351562px, -223.4499969482422px) translate(0px, 0px)
    }
}
@-webkit-keyframes kf_el_7vVa7RP2we_an_6g6JneS5q {
    31.11% {
        -webkit-transform: translate(151.10077667236328px, 109.9000015258789px) scale(1, 1) translate(-151.10077667236328px, -109.9000015258789px);
                transform: translate(151.10077667236328px, 109.9000015258789px) scale(1, 1) translate(-151.10077667236328px, -109.9000015258789px)
    }
    45.56% {
        -webkit-transform: translate(151.10077667236328px, 109.9000015258789px) scale(1.3, 1.3) translate(-151.10077667236328px, -109.9000015258789px);
                transform: translate(151.10077667236328px, 109.9000015258789px) scale(1.3, 1.3) translate(-151.10077667236328px, -109.9000015258789px)
    }
    60% {
        -webkit-transform: translate(151.10077667236328px, 109.9000015258789px) scale(1, 1) translate(-151.10077667236328px, -109.9000015258789px);
                transform: translate(151.10077667236328px, 109.9000015258789px) scale(1, 1) translate(-151.10077667236328px, -109.9000015258789px)
    }
    0% {
        -webkit-transform: translate(151.10077667236328px, 109.9000015258789px) scale(1, 1) translate(-151.10077667236328px, -109.9000015258789px);
                transform: translate(151.10077667236328px, 109.9000015258789px) scale(1, 1) translate(-151.10077667236328px, -109.9000015258789px)
    }
    100% {
        -webkit-transform: translate(151.10077667236328px, 109.9000015258789px) scale(1, 1) translate(-151.10077667236328px, -109.9000015258789px);
                transform: translate(151.10077667236328px, 109.9000015258789px) scale(1, 1) translate(-151.10077667236328px, -109.9000015258789px)
    }
}
@keyframes kf_el_7vVa7RP2we_an_6g6JneS5q {
    31.11% {
        -webkit-transform: translate(151.10077667236328px, 109.9000015258789px) scale(1, 1) translate(-151.10077667236328px, -109.9000015258789px);
                transform: translate(151.10077667236328px, 109.9000015258789px) scale(1, 1) translate(-151.10077667236328px, -109.9000015258789px)
    }
    45.56% {
        -webkit-transform: translate(151.10077667236328px, 109.9000015258789px) scale(1.3, 1.3) translate(-151.10077667236328px, -109.9000015258789px);
                transform: translate(151.10077667236328px, 109.9000015258789px) scale(1.3, 1.3) translate(-151.10077667236328px, -109.9000015258789px)
    }
    60% {
        -webkit-transform: translate(151.10077667236328px, 109.9000015258789px) scale(1, 1) translate(-151.10077667236328px, -109.9000015258789px);
                transform: translate(151.10077667236328px, 109.9000015258789px) scale(1, 1) translate(-151.10077667236328px, -109.9000015258789px)
    }
    0% {
        -webkit-transform: translate(151.10077667236328px, 109.9000015258789px) scale(1, 1) translate(-151.10077667236328px, -109.9000015258789px);
                transform: translate(151.10077667236328px, 109.9000015258789px) scale(1, 1) translate(-151.10077667236328px, -109.9000015258789px)
    }
    100% {
        -webkit-transform: translate(151.10077667236328px, 109.9000015258789px) scale(1, 1) translate(-151.10077667236328px, -109.9000015258789px);
                transform: translate(151.10077667236328px, 109.9000015258789px) scale(1, 1) translate(-151.10077667236328px, -109.9000015258789px)
    }
}
@-webkit-keyframes kf_el_SxQJrF9cfW_an_FMcNl_ruz {
    12.22% {
        -webkit-transform: translate(151.10077667236328px, 151.3000030517578px) scale(1, 1) translate(-151.10077667236328px, -151.3000030517578px);
                transform: translate(151.10077667236328px, 151.3000030517578px) scale(1, 1) translate(-151.10077667236328px, -151.3000030517578px)
    }
    26.67% {
        -webkit-transform: translate(151.10077667236328px, 151.3000030517578px) scale(1.2, 1.2) translate(-151.10077667236328px, -151.3000030517578px);
                transform: translate(151.10077667236328px, 151.3000030517578px) scale(1.2, 1.2) translate(-151.10077667236328px, -151.3000030517578px)
    }
    41.11% {
        -webkit-transform: translate(151.10077667236328px, 151.3000030517578px) scale(1, 1) translate(-151.10077667236328px, -151.3000030517578px);
                transform: translate(151.10077667236328px, 151.3000030517578px) scale(1, 1) translate(-151.10077667236328px, -151.3000030517578px)
    }
    0% {
        -webkit-transform: translate(151.10077667236328px, 151.3000030517578px) scale(1, 1) translate(-151.10077667236328px, -151.3000030517578px);
                transform: translate(151.10077667236328px, 151.3000030517578px) scale(1, 1) translate(-151.10077667236328px, -151.3000030517578px)
    }
    100% {
        -webkit-transform: translate(151.10077667236328px, 151.3000030517578px) scale(1, 1) translate(-151.10077667236328px, -151.3000030517578px);
                transform: translate(151.10077667236328px, 151.3000030517578px) scale(1, 1) translate(-151.10077667236328px, -151.3000030517578px)
    }
}
@keyframes kf_el_SxQJrF9cfW_an_FMcNl_ruz {
    12.22% {
        -webkit-transform: translate(151.10077667236328px, 151.3000030517578px) scale(1, 1) translate(-151.10077667236328px, -151.3000030517578px);
                transform: translate(151.10077667236328px, 151.3000030517578px) scale(1, 1) translate(-151.10077667236328px, -151.3000030517578px)
    }
    26.67% {
        -webkit-transform: translate(151.10077667236328px, 151.3000030517578px) scale(1.2, 1.2) translate(-151.10077667236328px, -151.3000030517578px);
                transform: translate(151.10077667236328px, 151.3000030517578px) scale(1.2, 1.2) translate(-151.10077667236328px, -151.3000030517578px)
    }
    41.11% {
        -webkit-transform: translate(151.10077667236328px, 151.3000030517578px) scale(1, 1) translate(-151.10077667236328px, -151.3000030517578px);
                transform: translate(151.10077667236328px, 151.3000030517578px) scale(1, 1) translate(-151.10077667236328px, -151.3000030517578px)
    }
    0% {
        -webkit-transform: translate(151.10077667236328px, 151.3000030517578px) scale(1, 1) translate(-151.10077667236328px, -151.3000030517578px);
                transform: translate(151.10077667236328px, 151.3000030517578px) scale(1, 1) translate(-151.10077667236328px, -151.3000030517578px)
    }
    100% {
        -webkit-transform: translate(151.10077667236328px, 151.3000030517578px) scale(1, 1) translate(-151.10077667236328px, -151.3000030517578px);
                transform: translate(151.10077667236328px, 151.3000030517578px) scale(1, 1) translate(-151.10077667236328px, -151.3000030517578px)
    }
}
@-webkit-keyframes kf_el_hMKNxkKE5G_an_n_LRelgKu {
    0% {
        -webkit-transform: translate(151.20001983642578px, 183px) scale(1, 1) translate(-151.20001983642578px, -183px);
                transform: translate(151.20001983642578px, 183px) scale(1, 1) translate(-151.20001983642578px, -183px)
    }
    14.44% {
        -webkit-transform: translate(151.20001983642578px, 183px) scale(1.03, 1.03) translate(-151.20001983642578px, -183px);
                transform: translate(151.20001983642578px, 183px) scale(1.03, 1.03) translate(-151.20001983642578px, -183px)
    }
    28.89% {
        -webkit-transform: translate(151.20001983642578px, 183px) scale(1, 1) translate(-151.20001983642578px, -183px);
                transform: translate(151.20001983642578px, 183px) scale(1, 1) translate(-151.20001983642578px, -183px)
    }
    58.89% {
        -webkit-transform: translate(151.20001983642578px, 183px) scale(1, 1) translate(-151.20001983642578px, -183px);
                transform: translate(151.20001983642578px, 183px) scale(1, 1) translate(-151.20001983642578px, -183px)
    }
    73.33% {
        -webkit-transform: translate(151.20001983642578px, 183px) scale(1.02, 1.02) translate(-151.20001983642578px, -183px);
                transform: translate(151.20001983642578px, 183px) scale(1.02, 1.02) translate(-151.20001983642578px, -183px)
    }
    87.78% {
        -webkit-transform: translate(151.20001983642578px, 183px) scale(1, 1) translate(-151.20001983642578px, -183px);
                transform: translate(151.20001983642578px, 183px) scale(1, 1) translate(-151.20001983642578px, -183px)
    }
    100% {
        -webkit-transform: translate(151.20001983642578px, 183px) scale(1, 1) translate(-151.20001983642578px, -183px);
                transform: translate(151.20001983642578px, 183px) scale(1, 1) translate(-151.20001983642578px, -183px)
    }
}
@keyframes kf_el_hMKNxkKE5G_an_n_LRelgKu {
    0% {
        -webkit-transform: translate(151.20001983642578px, 183px) scale(1, 1) translate(-151.20001983642578px, -183px);
                transform: translate(151.20001983642578px, 183px) scale(1, 1) translate(-151.20001983642578px, -183px)
    }
    14.44% {
        -webkit-transform: translate(151.20001983642578px, 183px) scale(1.03, 1.03) translate(-151.20001983642578px, -183px);
                transform: translate(151.20001983642578px, 183px) scale(1.03, 1.03) translate(-151.20001983642578px, -183px)
    }
    28.89% {
        -webkit-transform: translate(151.20001983642578px, 183px) scale(1, 1) translate(-151.20001983642578px, -183px);
                transform: translate(151.20001983642578px, 183px) scale(1, 1) translate(-151.20001983642578px, -183px)
    }
    58.89% {
        -webkit-transform: translate(151.20001983642578px, 183px) scale(1, 1) translate(-151.20001983642578px, -183px);
                transform: translate(151.20001983642578px, 183px) scale(1, 1) translate(-151.20001983642578px, -183px)
    }
    73.33% {
        -webkit-transform: translate(151.20001983642578px, 183px) scale(1.02, 1.02) translate(-151.20001983642578px, -183px);
                transform: translate(151.20001983642578px, 183px) scale(1.02, 1.02) translate(-151.20001983642578px, -183px)
    }
    87.78% {
        -webkit-transform: translate(151.20001983642578px, 183px) scale(1, 1) translate(-151.20001983642578px, -183px);
                transform: translate(151.20001983642578px, 183px) scale(1, 1) translate(-151.20001983642578px, -183px)
    }
    100% {
        -webkit-transform: translate(151.20001983642578px, 183px) scale(1, 1) translate(-151.20001983642578px, -183px);
                transform: translate(151.20001983642578px, 183px) scale(1, 1) translate(-151.20001983642578px, -183px)
    }
}
@-webkit-keyframes kf_el_NL85EW-hOu_an_Ii6zhQehB {
    0% {
        -webkit-transform: translate(212.3812713623047px, 154.20001220703125px) rotate(0deg) translate(-212.3812713623047px, -154.20001220703125px);
                transform: translate(212.3812713623047px, 154.20001220703125px) rotate(0deg) translate(-212.3812713623047px, -154.20001220703125px)
    }
    14.44% {
        -webkit-transform: translate(212.3812713623047px, 154.20001220703125px) rotate(-3deg) translate(-212.3812713623047px, -154.20001220703125px);
                transform: translate(212.3812713623047px, 154.20001220703125px) rotate(-3deg) translate(-212.3812713623047px, -154.20001220703125px)
    }
    31.11% {
        -webkit-transform: translate(212.3812713623047px, 154.20001220703125px) rotate(6deg) translate(-212.3812713623047px, -154.20001220703125px);
                transform: translate(212.3812713623047px, 154.20001220703125px) rotate(6deg) translate(-212.3812713623047px, -154.20001220703125px)
    }
    61.11% {
        -webkit-transform: translate(212.3812713623047px, 154.20001220703125px) rotate(0deg) translate(-212.3812713623047px, -154.20001220703125px);
                transform: translate(212.3812713623047px, 154.20001220703125px) rotate(0deg) translate(-212.3812713623047px, -154.20001220703125px)
    }
    75.56% {
        -webkit-transform: translate(212.3812713623047px, 154.20001220703125px) rotate(-3deg) translate(-212.3812713623047px, -154.20001220703125px);
                transform: translate(212.3812713623047px, 154.20001220703125px) rotate(-3deg) translate(-212.3812713623047px, -154.20001220703125px)
    }
    92.22% {
        -webkit-transform: translate(212.3812713623047px, 154.20001220703125px) rotate(6deg) translate(-212.3812713623047px, -154.20001220703125px);
                transform: translate(212.3812713623047px, 154.20001220703125px) rotate(6deg) translate(-212.3812713623047px, -154.20001220703125px)
    }
    100% {
        -webkit-transform: translate(212.3812713623047px, 154.20001220703125px) rotate(0deg) translate(-212.3812713623047px, -154.20001220703125px);
                transform: translate(212.3812713623047px, 154.20001220703125px) rotate(0deg) translate(-212.3812713623047px, -154.20001220703125px)
    }
}
@keyframes kf_el_NL85EW-hOu_an_Ii6zhQehB {
    0% {
        -webkit-transform: translate(212.3812713623047px, 154.20001220703125px) rotate(0deg) translate(-212.3812713623047px, -154.20001220703125px);
                transform: translate(212.3812713623047px, 154.20001220703125px) rotate(0deg) translate(-212.3812713623047px, -154.20001220703125px)
    }
    14.44% {
        -webkit-transform: translate(212.3812713623047px, 154.20001220703125px) rotate(-3deg) translate(-212.3812713623047px, -154.20001220703125px);
                transform: translate(212.3812713623047px, 154.20001220703125px) rotate(-3deg) translate(-212.3812713623047px, -154.20001220703125px)
    }
    31.11% {
        -webkit-transform: translate(212.3812713623047px, 154.20001220703125px) rotate(6deg) translate(-212.3812713623047px, -154.20001220703125px);
                transform: translate(212.3812713623047px, 154.20001220703125px) rotate(6deg) translate(-212.3812713623047px, -154.20001220703125px)
    }
    61.11% {
        -webkit-transform: translate(212.3812713623047px, 154.20001220703125px) rotate(0deg) translate(-212.3812713623047px, -154.20001220703125px);
                transform: translate(212.3812713623047px, 154.20001220703125px) rotate(0deg) translate(-212.3812713623047px, -154.20001220703125px)
    }
    75.56% {
        -webkit-transform: translate(212.3812713623047px, 154.20001220703125px) rotate(-3deg) translate(-212.3812713623047px, -154.20001220703125px);
                transform: translate(212.3812713623047px, 154.20001220703125px) rotate(-3deg) translate(-212.3812713623047px, -154.20001220703125px)
    }
    92.22% {
        -webkit-transform: translate(212.3812713623047px, 154.20001220703125px) rotate(6deg) translate(-212.3812713623047px, -154.20001220703125px);
                transform: translate(212.3812713623047px, 154.20001220703125px) rotate(6deg) translate(-212.3812713623047px, -154.20001220703125px)
    }
    100% {
        -webkit-transform: translate(212.3812713623047px, 154.20001220703125px) rotate(0deg) translate(-212.3812713623047px, -154.20001220703125px);
                transform: translate(212.3812713623047px, 154.20001220703125px) rotate(0deg) translate(-212.3812713623047px, -154.20001220703125px)
    }
}
@-webkit-keyframes kf_el_ZOzE0vUhsHU_an_l2zutAf-v {
    0% {
        -webkit-transform: translate(88.89999389648438px, 153.3129119873047px) rotate(0deg) translate(-88.89999389648438px, -153.3129119873047px);
                transform: translate(88.89999389648438px, 153.3129119873047px) rotate(0deg) translate(-88.89999389648438px, -153.3129119873047px)
    }
    14.44% {
        -webkit-transform: translate(88.89999389648438px, 153.3129119873047px) rotate(3deg) translate(-88.89999389648438px, -153.3129119873047px);
                transform: translate(88.89999389648438px, 153.3129119873047px) rotate(3deg) translate(-88.89999389648438px, -153.3129119873047px)
    }
    31.11% {
        -webkit-transform: translate(88.89999389648438px, 153.3129119873047px) rotate(-6deg) translate(-88.89999389648438px, -153.3129119873047px);
                transform: translate(88.89999389648438px, 153.3129119873047px) rotate(-6deg) translate(-88.89999389648438px, -153.3129119873047px)
    }
    61.11% {
        -webkit-transform: translate(88.89999389648438px, 153.3129119873047px) rotate(0deg) translate(-88.89999389648438px, -153.3129119873047px);
                transform: translate(88.89999389648438px, 153.3129119873047px) rotate(0deg) translate(-88.89999389648438px, -153.3129119873047px)
    }
    75.56% {
        -webkit-transform: translate(88.89999389648438px, 153.3129119873047px) rotate(3deg) translate(-88.89999389648438px, -153.3129119873047px);
                transform: translate(88.89999389648438px, 153.3129119873047px) rotate(3deg) translate(-88.89999389648438px, -153.3129119873047px)
    }
    92.22% {
        -webkit-transform: translate(88.89999389648438px, 153.3129119873047px) rotate(-6deg) translate(-88.89999389648438px, -153.3129119873047px);
                transform: translate(88.89999389648438px, 153.3129119873047px) rotate(-6deg) translate(-88.89999389648438px, -153.3129119873047px)
    }
    100% {
        -webkit-transform: translate(88.89999389648438px, 153.3129119873047px) rotate(0deg) translate(-88.89999389648438px, -153.3129119873047px);
                transform: translate(88.89999389648438px, 153.3129119873047px) rotate(0deg) translate(-88.89999389648438px, -153.3129119873047px)
    }
}
@keyframes kf_el_ZOzE0vUhsHU_an_l2zutAf-v {
    0% {
        -webkit-transform: translate(88.89999389648438px, 153.3129119873047px) rotate(0deg) translate(-88.89999389648438px, -153.3129119873047px);
                transform: translate(88.89999389648438px, 153.3129119873047px) rotate(0deg) translate(-88.89999389648438px, -153.3129119873047px)
    }
    14.44% {
        -webkit-transform: translate(88.89999389648438px, 153.3129119873047px) rotate(3deg) translate(-88.89999389648438px, -153.3129119873047px);
                transform: translate(88.89999389648438px, 153.3129119873047px) rotate(3deg) translate(-88.89999389648438px, -153.3129119873047px)
    }
    31.11% {
        -webkit-transform: translate(88.89999389648438px, 153.3129119873047px) rotate(-6deg) translate(-88.89999389648438px, -153.3129119873047px);
                transform: translate(88.89999389648438px, 153.3129119873047px) rotate(-6deg) translate(-88.89999389648438px, -153.3129119873047px)
    }
    61.11% {
        -webkit-transform: translate(88.89999389648438px, 153.3129119873047px) rotate(0deg) translate(-88.89999389648438px, -153.3129119873047px);
                transform: translate(88.89999389648438px, 153.3129119873047px) rotate(0deg) translate(-88.89999389648438px, -153.3129119873047px)
    }
    75.56% {
        -webkit-transform: translate(88.89999389648438px, 153.3129119873047px) rotate(3deg) translate(-88.89999389648438px, -153.3129119873047px);
                transform: translate(88.89999389648438px, 153.3129119873047px) rotate(3deg) translate(-88.89999389648438px, -153.3129119873047px)
    }
    92.22% {
        -webkit-transform: translate(88.89999389648438px, 153.3129119873047px) rotate(-6deg) translate(-88.89999389648438px, -153.3129119873047px);
                transform: translate(88.89999389648438px, 153.3129119873047px) rotate(-6deg) translate(-88.89999389648438px, -153.3129119873047px)
    }
    100% {
        -webkit-transform: translate(88.89999389648438px, 153.3129119873047px) rotate(0deg) translate(-88.89999389648438px, -153.3129119873047px);
                transform: translate(88.89999389648438px, 153.3129119873047px) rotate(0deg) translate(-88.89999389648438px, -153.3129119873047px)
    }
}
#el_6iFLBADgT * {
fill:#ffa502;
    -webkit-animation-duration: 3s;
            animation-duration: 3s;
    -webkit-animation-iteration-count: infinite;
            animation-iteration-count: infinite;
    -webkit-animation-timing-function: cubic-bezier(0, 0, 1, 1);
            animation-timing-function: cubic-bezier(0, 0, 1, 1)
}
#el_ZOzE0vUhsHU_an_l2zutAf-v {
    -webkit-animation-fill-mode: backwards;
            animation-fill-mode: backwards;
    -webkit-transform: translate(88.89999389648438px, 153.3129119873047px) rotate(0deg) translate(-88.89999389648438px, -153.3129119873047px);
            transform: translate(88.89999389648438px, 153.3129119873047px) rotate(0deg) translate(-88.89999389648438px, -153.3129119873047px);
    -webkit-animation-name: kf_el_ZOzE0vUhsHU_an_l2zutAf-v;
            animation-name: kf_el_ZOzE0vUhsHU_an_l2zutAf-v;
    -webkit-animation-timing-function: cubic-bezier(0, 0, 0.58, 1);
            animation-timing-function: cubic-bezier(0, 0, 0.58, 1)
}
#el_NL85EW-hOu_an_Ii6zhQehB {
    -webkit-animation-fill-mode: backwards;
            animation-fill-mode: backwards;
    -webkit-transform: translate(212.3812713623047px, 154.20001220703125px) rotate(0deg) translate(-212.3812713623047px, -154.20001220703125px);
            transform: translate(212.3812713623047px, 154.20001220703125px) rotate(0deg) translate(-212.3812713623047px, -154.20001220703125px);
    -webkit-animation-name: kf_el_NL85EW-hOu_an_Ii6zhQehB;
            animation-name: kf_el_NL85EW-hOu_an_Ii6zhQehB;
    -webkit-animation-timing-function: cubic-bezier(0, 0, 1, 1);
            animation-timing-function: cubic-bezier(0, 0, 1, 1)
}
#el_hMKNxkKE5G_an_n_LRelgKu {
    -webkit-animation-fill-mode: backwards;
            animation-fill-mode: backwards;
    -webkit-transform: translate(151.20001983642578px, 183px) scale(1, 1) translate(-151.20001983642578px, -183px);
            transform: translate(151.20001983642578px, 183px) scale(1, 1) translate(-151.20001983642578px, -183px);
    -webkit-animation-name: kf_el_hMKNxkKE5G_an_n_LRelgKu;
            animation-name: kf_el_hMKNxkKE5G_an_n_LRelgKu;
    -webkit-animation-timing-function: cubic-bezier(0, 0, 1, 1);
            animation-timing-function: cubic-bezier(0, 0, 1, 1)
}
#el_SxQJrF9cfW_an_FMcNl_ruz {
    -webkit-animation-fill-mode: backwards;
            animation-fill-mode: backwards;
    -webkit-transform: translate(151.10077667236328px, 151.3000030517578px) scale(1, 1) translate(-151.10077667236328px, -151.3000030517578px);
            transform: translate(151.10077667236328px, 151.3000030517578px) scale(1, 1) translate(-151.10077667236328px, -151.3000030517578px);
    -webkit-animation-name: kf_el_SxQJrF9cfW_an_FMcNl_ruz;
            animation-name: kf_el_SxQJrF9cfW_an_FMcNl_ruz;
    -webkit-animation-timing-function: cubic-bezier(0.42, 0, 0.58, 1);
            animation-timing-function: cubic-bezier(0.42, 0, 0.58, 1)
}
#el_7vVa7RP2we_an_6g6JneS5q {
    -webkit-animation-fill-mode: backwards;
            animation-fill-mode: backwards;
    -webkit-transform: translate(151.10077667236328px, 109.9000015258789px) scale(1, 1) translate(-151.10077667236328px, -109.9000015258789px);
            transform: translate(151.10077667236328px, 109.9000015258789px) scale(1, 1) translate(-151.10077667236328px, -109.9000015258789px);
    -webkit-animation-name: kf_el_7vVa7RP2we_an_6g6JneS5q;
            animation-name: kf_el_7vVa7RP2we_an_6g6JneS5q;
    -webkit-animation-timing-function: cubic-bezier(0.42, 0, 0.58, 1);
            animation-timing-function: cubic-bezier(0.42, 0, 0.58, 1)
}
#el_4Y0q0unJio_an_bXh8bWgJ7 {
    -webkit-animation-fill-mode: backwards;
            animation-fill-mode: backwards;
    -webkit-transform: translate(213.10000610351562px, 223.4499969482422px) translate(-213.10000610351562px, -223.4499969482422px) translate(0px, 0px);
            transform: translate(213.10000610351562px, 223.4499969482422px) translate(-213.10000610351562px, -223.4499969482422px) translate(0px, 0px);
    -webkit-animation-name: kf_el_4Y0q0unJio_an_bXh8bWgJ7;
            animation-name: kf_el_4Y0q0unJio_an_bXh8bWgJ7;
    -webkit-animation-timing-function: cubic-bezier(0, 0, 1, 1);
            animation-timing-function: cubic-bezier(0, 0, 1, 1)
}</style><style/>
<path d="M87,212.2c-5.8,0-10.5-4.7-10.6-10.5c0-5.8,4.7-10.5,10.5-10.6c5.8,0,10.5,4.7,10.6,10.5c0,0,0,0,0,0&#10;&#9;C97.5,207.4,92.8,212.1,87,212.2z M87,197.1c-2.5,0-4.6,2-4.6,4.6c0,2.5,2,4.6,4.6,4.6s4.6-2,4.6-4.6l0,0&#10;&#9;C91.6,199.1,89.5,197.1,87,197.1z" id="el_LuZ_JiNAzg"/>
<path d="M129.8,212.2c-5.8,0-10.5-4.7-10.5-10.5s4.7-10.5,10.5-10.5c5.8,0,10.5,4.7,10.5,10.5l0,0&#10;&#9;C140.3,207.5,135.6,212.2,129.8,212.2z M129.8,197.1c-2.5,0-4.6,2-4.6,4.6c0,2.5,2,4.6,4.6,4.6c2.5,0,4.6-2,4.6-4.6l0,0&#10;&#9;C134.3,199.1,132.3,197.1,129.8,197.1z" id="el_KJq32ey8yz"/>
<path d="M172.5,212.2c-5.8,0-10.5-4.7-10.5-10.5s4.7-10.5,10.5-10.5c5.8,0,10.5,4.7,10.5,10.5l0,0&#10;&#9;C183,207.5,178.3,212.2,172.5,212.2z M172.5,197.1c-2.5,0-4.6,2.1-4.5,4.6c0,2.5,2.1,4.6,4.6,4.5c2.5,0,4.5-2,4.5-4.6&#10;&#9;C177.1,199.1,175,197.1,172.5,197.1z" id="el_AhgdzMTjw1"/>
<path d="M215.3,212.2c-5.8,0-10.5-4.7-10.5-10.5s4.7-10.5,10.5-10.5c5.8,0,10.5,4.7,10.5,10.5l0,0&#10;&#9;C225.8,207.5,221.1,212.2,215.3,212.2z M215.3,197.1c-2.5,0-4.6,2.1-4.5,4.6c0,2.5,2.1,4.6,4.6,4.5c2.5,0,4.5-2,4.5-4.6&#10;&#9;C219.9,199.1,217.8,197.1,215.3,197.1z" id="el__Eisx5szJH"/>
<g id="el_NL85EW-hOu_an_Ii6zhQehB" data-animator-group="true" data-animator-type="1"><g id="el_NL85EW-hOu">
	<path d="M245.2,141.8c-1.1,1.4-2.3,2.8-3.6,4.1c-4.7-12-11.9-23-20.9-32.2c2.3-1,4.7-1.9,7.2-2.8c5.8-2.1,12.3-4.5,18.7-9.5&#10;&#9;&#9;c4.5-3.6,8.8-7.5,12.8-11.6c0.6,10.7-0.7,21.5-3.8,31.8c-0.3,1.1-0.1,2.2,0.7,3l0,0c1.2,1.1,3.1,1.1,4.2-0.1&#10;&#9;&#9;c0.3-0.3,0.5-0.7,0.6-1.1c5.2-16.5,4.4-32.7,3.5-41.1c-0.2-1.6-1.7-2.8-3.4-2.6c-0.7,0.1-1.4,0.5-1.9,1c-0.5,0.7-1.3,1.6-2.3,2.7&#10;&#9;&#9;c-4.4,4.8-9.2,9.2-14.3,13.3c-5.6,4.4-11.5,6.5-17.1,8.6c-4,1.4-7.9,3.1-11.7,5.1c-0.8,0.5-1.4,1.3-1.5,2.2&#10;&#9;&#9;c-0.1,0.9,0.2,1.9,0.9,2.5c10.9,10.2,19.2,22.9,23.9,37.1c0.3,1,1.1,1.7,2.1,1.9c0.3,0.1,0.5,0.1,0.8,0.1c0.7,0,1.4-0.3,2-0.8&#10;&#9;&#9;c0.4-0.4,0.8-0.8,1.2-1.1c2.2-2.1,4.3-4.4,6.2-6.8c1-1.2,0.8-3-0.3-4.1l0,0c-1.2-1.1-3.1-1-4.2,0.2&#10;&#9;&#9;C245.3,141.6,245.2,141.7,245.2,141.8z" id="el_NSzKBlOO-9"/>
</g></g>
<g id="el_SxQJrF9cfW_an_FMcNl_ruz" data-animator-group="true" data-animator-type="2"><path d="M151.1,161.8c-5.8,0-10.5-4.7-10.5-10.5c0-5.8,4.7-10.5,10.5-10.5c5.8,0,10.5,4.7,10.5,10.5c0,0,0,0,0,0&#10;&#9;C161.7,157.1,156.9,161.8,151.1,161.8z M151.1,146.7c-2.5,0-4.6,2-4.6,4.6s2,4.6,4.6,4.6s4.6-2,4.6-4.6l0,0&#10;&#9;C155.7,148.8,153.7,146.7,151.1,146.7z" id="el_SxQJrF9cfW"/></g>
<g id="el_7vVa7RP2we_an_6g6JneS5q" data-animator-group="true" data-animator-type="2"><path d="M151.1,120.4c-5.8,0-10.5-4.7-10.5-10.5c0-5.8,4.7-10.5,10.5-10.5s10.5,4.7,10.5,10.5c0,0,0,0,0,0&#10;&#9;C161.7,115.7,156.9,120.4,151.1,120.4z M151.1,105.3c-2.5,0-4.6,2-4.6,4.6s2,4.6,4.6,4.6c2.5,0,4.6-2,4.6-4.6c0,0,0,0,0,0&#10;&#9;C155.7,107.4,153.7,105.3,151.1,105.3z" id="el_7vVa7RP2we"/></g>
<g id="el_hMKNxkKE5G_an_n_LRelgKu" data-animator-group="true" data-animator-type="2"><path d="M174,81.9c-1.4-1.4-3.4-2.3-5.4-2.4c-11.5-2.7-23.4-2.7-34.9,0c-4.4,0.2-7.8,3.8-7.8,8.2v63.5h6V87.7c0-1.2,1-2.2,2.2-2.2&#10;&#9;c0.2,0,0.5,0,0.7-0.1c5.1-1.2,10.3-1.9,15.6-1.9c5.8,0,11.5,0.6,17.1,1.9c0.2,0.1,0.5,0.1,0.7,0.1c0.6,0,1.1,0.2,1.6,0.7&#10;&#9;c0.4,0.4,0.7,1,0.7,1.6v89.2h-38.6v-9c-0.6,0.2-1.3,0.2-1.9,0.3h-4v11.7c0,1.7,1.3,3,3,3h44.5c1.7,0,3-1.3,3-3V87.7&#10;&#9;C176.4,85.5,175.5,83.4,174,81.9z" id="el_hMKNxkKE5G"/></g>
<path d="M125.9,168.9v7.3c0,0.4-0.3,0.7-0.7,0.7H61.2c-0.4,0-0.7-0.3-0.7-0.8c0,0,0,0,0,0c1.3-35.5,24.6-59.3,27.4-61.9&#10;&#9;c10.6-10,23.2-17.5,37.1-22c0.4-0.1,0.8,0.1,1,0.5c0,0.1,0,0.2,0,0.3v57.5c0,0.4,0.3,0.7,0.7,0.7h4.5c0.4,0,0.7-0.3,0.7-0.7&#10;&#9;c0,0,0,0,0,0V87.9c0-1.7-1.4-3-3-3c-0.2,0-0.5,0-0.7,0.1c-16.7,4.4-32,12.9-44.5,24.8l0,0c-3,2.9-29.2,29.6-29.2,69.2l0,0&#10;&#9;c0.1,2.1,1.7,3.7,3.8,3.7h69.9c2,0,3.7-1.7,3.7-3.7v0v-10.3c0-0.4-0.3-0.7-0.7-0.7c0,0,0,0,0,0l-4.5,0.1&#10;&#9;C126.2,168.1,125.9,168.4,125.9,168.9C125.9,168.9,125.9,168.9,125.9,168.9z" id="el_Ql9UWM5fLD"/>
<path d="M244.8,182.8h-71.4c-1.7,0-3-1.3-3-3V88.9c0-1.7,1.4-3,3-3c0.3,0,0.5,0,0.8,0.1c35.4,10.1,73.6,43.5,73.6,93.1v0.7&#10;&#9;C247.8,181.5,246.4,182.8,244.8,182.8z M176.4,176.8h65.4c-1.1-43.5-33.8-73.4-65.4-83.9V176.8z" id="el_7xsWcFY4fQ"/>
<path d="M261.5,202c0.2-5.4-3.4-10.1-8.4-11.5v-2.8c0-6-4.9-10.9-10.9-10.9H60c-6,0-10.9,4.9-10.9,10.9v2.7&#10;&#9;c-4.8,1.4-8.3,5.7-8.4,10.8c-0.2,5.4,3.4,10.1,8.4,11.5v2.7c0,6,4.9,10.9,10.9,10.9h126.2c1.6,0,3-1.4,3-3v-0.1c0-1.6-1.3-2.9-3-2.9&#10;&#9;H60c-2.7,0-4.9-2.2-4.9-4.9v-27.8c0-2.7,2.2-4.9,4.9-4.9h182.3c2.7,0,4.9,2.2,4.9,4.9v5.1c0,0.1,0,0.1,0,0.2v17.3c0,0.1,0,0.1,0,0.2&#10;&#9;v5.1c0,2.7-2.2,4.9-4.9,4.9c0,0,0,0,0,0h-10.5c-1.6,0-3,1.4-3,3v0.1c0,1.6,1.3,2.9,3,3h10.5c6,0,10.9-4.9,10.9-10.9v-2.8&#10;&#9;C257.9,211.5,261.4,207.2,261.5,202z" id="el_6Pg_L6iv86"/>
<g id="el_4Y0q0unJio_an_bXh8bWgJ7" data-animator-group="true" data-animator-type="0"><path d="M217.1,226.4h-8c-1.6,0-3-1.3-3-2.9l0,0c0-1.7,1.3-3,3-3h8c1.7,0,3,1.3,3,3l0,0C220.1,225.1,218.8,226.4,217.1,226.4z" id="el_4Y0q0unJio"/></g>
<path d="M125.9,150.7v-8c0-1.7,1.3-3,3-3l0,0c1.7,0,3,1.3,3,3v8c0,1.7-1.3,3-3,3l0,0C127.2,153.7,125.9,152.4,125.9,150.7z" id="el_DfXm7Prq9R"/>
<path d="M125.9,176.4v-8c0-1.7,1.3-3,3-3l0,0c1.7,0,3,1.3,3,3v8c0,1.7-1.3,3-3,3l0,0C127.2,179.4,125.9,178,125.9,176.4z" id="el_Db9UBaKUOw"/>
<g id="el_ZOzE0vUhsHU_an_l2zutAf-v" data-animator-group="true" data-animator-type="1"><g id="el_ZOzE0vUhsHU">
	<path d="M87.4,109.1c-3-1.4-6.1-2.7-9.3-3.8l-0.5-0.2c-1.5-0.6-3.2,0.2-3.8,1.8v0.1c-0.5,1.5,0.3,3.2,1.8,3.8l0.5,0.2&#10;&#9;&#9;c1.7,0.6,3.3,1.2,4.9,1.9c-8.4,9.5-15.1,20.3-19.8,32c-15.7-17.4-17.4-40.8-16.7-55c4.1,4.2,8.4,8.2,13,11.8l0,0&#10;&#9;&#9;c0.7-2,1.5-3.9,2.2-5.8c-4.6-3.8-9-7.9-13.1-12.3c-1-1.1-1.8-2-2.3-2.7c-1.1-1.3-3-1.4-4.2-0.3c-0.6,0.5-0.9,1.1-1,1.9&#10;&#9;&#9;c-1.6,13.6-2.7,47.5,21.2,70c1.2,1.1,3.1,1.1,4.2-0.1c0.3-0.3,0.5-0.7,0.6-1.1c4.8-13.9,12.5-26.5,22.7-37.1l0.2-0.2&#10;&#9;&#9;c1.2-1.2,1.2-3.1,0-4.2C87.9,109.4,87.6,109.2,87.4,109.1L87.4,109.1z" id="el_G4WqfKHzjuJ"/>
	<path d="M63.9,98.8c-4.1-2.8-7.9-5.9-11.4-9.4l-8.4-0.1c4.9,5.5,10.4,10.3,16.5,14.4c1.4,0.9,3.3,0.5,4.1-0.9&#10;&#9;&#9;c0.2-0.4,0.4-0.8,0.4-1.2v-0.1C65.3,100.5,64.8,99.4,63.9,98.8z" id="el_haT1IVtXJpO"/>
</g></g>
</svg>