<svg version="1.1" id="el_3tZS02uP6" xmlns="http://www.w3.org/2000/svg" xmlns:xlink="http://www.w3.org/1999/xlink" x="0px" y="0px" viewBox="0 0 303 303" style="enable-background:new 0 0 303.9 303.9;" xml:space="preserve"><style>@-webkit-keyframes kf_el_nd77D9TQZLh_an_mRKkZ-zb3{0%{-webkit-transform: translate(201.87065887451172px, 204.1166534423828px) rotate(0deg) translate(-201.87065887451172px, -204.1166534423828px);transform: translate(201.87065887451172px, 204.1166534423828px) rotate(0deg) translate(-201.87065887451172px, -204.1166534423828px);}62.22%{-webkit-transform: translate(201.87065887451172px, 204.1166534423828px) rotate(360deg) translate(-201.87065887451172px, -204.1166534423828px);transform: translate(201.87065887451172px, 204.1166534423828px) rotate(360deg) translate(-201.87065887451172px, -204.1166534423828px);}85.56%{-webkit-transform: translate(201.87065887451172px, 204.1166534423828px) rotate(-360deg) translate(-201.87065887451172px, -204.1166534423828px);transform: translate(201.87065887451172px, 204.1166534423828px) rotate(-360deg) translate(-201.87065887451172px, -204.1166534423828px);}100%{-webkit-transform: translate(201.87065887451172px, 204.1166534423828px) rotate(-360deg) translate(-201.87065887451172px, -204.1166534423828px);transform: translate(201.87065887451172px, 204.1166534423828px) rotate(-360deg) translate(-201.87065887451172px, -204.1166534423828px);}}@keyframes kf_el_nd77D9TQZLh_an_mRKkZ-zb3{0%{-webkit-transform: translate(201.87065887451172px, 204.1166534423828px) rotate(0deg) translate(-201.87065887451172px, -204.1166534423828px);transform: translate(201.87065887451172px, 204.1166534423828px) rotate(0deg) translate(-201.87065887451172px, -204.1166534423828px);}62.22%{-webkit-transform: translate(201.87065887451172px, 204.1166534423828px) rotate(360deg) translate(-201.87065887451172px, -204.1166534423828px);transform: translate(201.87065887451172px, 204.1166534423828px) rotate(360deg) translate(-201.87065887451172px, -204.1166534423828px);}85.56%{-webkit-transform: translate(201.87065887451172px, 204.1166534423828px) rotate(-360deg) translate(-201.87065887451172px, -204.1166534423828px);transform: translate(201.87065887451172px, 204.1166534423828px) rotate(-360deg) translate(-201.87065887451172px, -204.1166534423828px);}100%{-webkit-transform: translate(201.87065887451172px, 204.1166534423828px) rotate(-360deg) translate(-201.87065887451172px, -204.1166534423828px);transform: translate(201.87065887451172px, 204.1166534423828px) rotate(-360deg) translate(-201.87065887451172px, -204.1166534423828px);}}@-webkit-keyframes kf_el_bhnwNDzk7H_an_7HReobdW1{0%{-webkit-transform: translate(156.8372573852539px, 109.99656295776367px) translate(-156.8372573852539px, -109.99656295776367px) translate(0px, 0px);transform: translate(156.8372573852539px, 109.99656295776367px) translate(-156.8372573852539px, -109.99656295776367px) translate(0px, 0px);}23.33%{-webkit-transform: translate(156.8372573852539px, 109.99656295776367px) translate(-156.8372573852539px, -109.99656295776367px) translate(-10px, 0px);transform: translate(156.8372573852539px, 109.99656295776367px) translate(-156.8372573852539px, -109.99656295776367px) translate(-10px, 0px);}53.33%{-webkit-transform: translate(156.8372573852539px, 109.99656295776367px) translate(-156.8372573852539px, -109.99656295776367px) translate(15px, 0px);transform: translate(156.8372573852539px, 109.99656295776367px) translate(-156.8372573852539px, -109.99656295776367px) translate(15px, 0px);}88.89%{-webkit-transform: translate(156.8372573852539px, 109.99656295776367px) translate(-156.8372573852539px, -109.99656295776367px) translate(0px, 0px);transform: translate(156.8372573852539px, 109.99656295776367px) translate(-156.8372573852539px, -109.99656295776367px) translate(0px, 0px);}100%{-webkit-transform: translate(156.8372573852539px, 109.99656295776367px) translate(-156.8372573852539px, -109.99656295776367px) translate(0px, 0px);transform: translate(156.8372573852539px, 109.99656295776367px) translate(-156.8372573852539px, -109.99656295776367px) translate(0px, 0px);}}@keyframes kf_el_bhnwNDzk7H_an_7HReobdW1{0%{-webkit-transform: translate(156.8372573852539px, 109.99656295776367px) translate(-156.8372573852539px, -109.99656295776367px) translate(0px, 0px);transform: translate(156.8372573852539px, 109.99656295776367px) translate(-156.8372573852539px, -109.99656295776367px) translate(0px, 0px);}23.33%{-webkit-transform: translate(156.8372573852539px, 109.99656295776367px) translate(-156.8372573852539px, -109.99656295776367px) translate(-10px, 0px);transform: translate(156.8372573852539px, 109.99656295776367px) translate(-156.8372573852539px, -109.99656295776367px) translate(-10px, 0px);}53.33%{-webkit-transform: translate(156.8372573852539px, 109.99656295776367px) translate(-156.8372573852539px, -109.99656295776367px) translate(15px, 0px);transform: translate(156.8372573852539px, 109.99656295776367px) translate(-156.8372573852539px, -109.99656295776367px) translate(15px, 0px);}88.89%{-webkit-transform: translate(156.8372573852539px, 109.99656295776367px) translate(-156.8372573852539px, -109.99656295776367px) translate(0px, 0px);transform: translate(156.8372573852539px, 109.99656295776367px) translate(-156.8372573852539px, -109.99656295776367px) translate(0px, 0px);}100%{-webkit-transform: translate(156.8372573852539px, 109.99656295776367px) translate(-156.8372573852539px, -109.99656295776367px) translate(0px, 0px);transform: translate(156.8372573852539px, 109.99656295776367px) translate(-156.8372573852539px, -109.99656295776367px) translate(0px, 0px);}}@-webkit-keyframes kf_el_yJuS1NnrRkd_an_7uPfmBc-J{0%{-webkit-transform: translate(151.5855484008789px, 204.13294982910156px) rotate(0deg) translate(-151.5855484008789px, -204.13294982910156px);transform: translate(151.5855484008789px, 204.13294982910156px) rotate(0deg) translate(-151.5855484008789px, -204.13294982910156px);}62.22%{-webkit-transform: translate(151.5855484008789px, 204.13294982910156px) rotate(360deg) translate(-151.5855484008789px, -204.13294982910156px);transform: translate(151.5855484008789px, 204.13294982910156px) rotate(360deg) translate(-151.5855484008789px, -204.13294982910156px);}85.56%{-webkit-transform: translate(151.5855484008789px, 204.13294982910156px) rotate(-360deg) translate(-151.5855484008789px, -204.13294982910156px);transform: translate(151.5855484008789px, 204.13294982910156px) rotate(-360deg) translate(-151.5855484008789px, -204.13294982910156px);}100%{-webkit-transform: translate(151.5855484008789px, 204.13294982910156px) rotate(-360deg) translate(-151.5855484008789px, -204.13294982910156px);transform: translate(151.5855484008789px, 204.13294982910156px) rotate(-360deg) translate(-151.5855484008789px, -204.13294982910156px);}}@keyframes kf_el_yJuS1NnrRkd_an_7uPfmBc-J{0%{-webkit-transform: translate(151.5855484008789px, 204.13294982910156px) rotate(0deg) translate(-151.5855484008789px, -204.13294982910156px);transform: translate(151.5855484008789px, 204.13294982910156px) rotate(0deg) translate(-151.5855484008789px, -204.13294982910156px);}62.22%{-webkit-transform: translate(151.5855484008789px, 204.13294982910156px) rotate(360deg) translate(-151.5855484008789px, -204.13294982910156px);transform: translate(151.5855484008789px, 204.13294982910156px) rotate(360deg) translate(-151.5855484008789px, -204.13294982910156px);}85.56%{-webkit-transform: translate(151.5855484008789px, 204.13294982910156px) rotate(-360deg) translate(-151.5855484008789px, -204.13294982910156px);transform: translate(151.5855484008789px, 204.13294982910156px) rotate(-360deg) translate(-151.5855484008789px, -204.13294982910156px);}100%{-webkit-transform: translate(151.5855484008789px, 204.13294982910156px) rotate(-360deg) translate(-151.5855484008789px, -204.13294982910156px);transform: translate(151.5855484008789px, 204.13294982910156px) rotate(-360deg) translate(-151.5855484008789px, -204.13294982910156px);}}@-webkit-keyframes kf_el_7FP_YaVvnHz_an_g7tvT-52K{0%{-webkit-transform: translate(180.45425415039062px, 208.2800750732422px) rotate(0deg) translate(-180.45425415039062px, -208.2800750732422px);transform: translate(180.45425415039062px, 208.2800750732422px) rotate(0deg) translate(-180.45425415039062px, -208.2800750732422px);}45.56%{-webkit-transform: translate(180.45425415039062px, 208.2800750732422px) rotate(-45deg) translate(-180.45425415039062px, -208.2800750732422px);transform: translate(180.45425415039062px, 208.2800750732422px) rotate(-45deg) translate(-180.45425415039062px, -208.2800750732422px);}67.78%{-webkit-transform: translate(180.45425415039062px, 208.2800750732422px) rotate(0deg) translate(-180.45425415039062px, -208.2800750732422px);transform: translate(180.45425415039062px, 208.2800750732422px) rotate(0deg) translate(-180.45425415039062px, -208.2800750732422px);}100%{-webkit-transform: translate(180.45425415039062px, 208.2800750732422px) rotate(0deg) translate(-180.45425415039062px, -208.2800750732422px);transform: translate(180.45425415039062px, 208.2800750732422px) rotate(0deg) translate(-180.45425415039062px, -208.2800750732422px);}}@keyframes kf_el_7FP_YaVvnHz_an_g7tvT-52K{0%{-webkit-transform: translate(180.45425415039062px, 208.2800750732422px) rotate(0deg) translate(-180.45425415039062px, -208.2800750732422px);transform: translate(180.45425415039062px, 208.2800750732422px) rotate(0deg) translate(-180.45425415039062px, -208.2800750732422px);}45.56%{-webkit-transform: translate(180.45425415039062px, 208.2800750732422px) rotate(-45deg) translate(-180.45425415039062px, -208.2800750732422px);transform: translate(180.45425415039062px, 208.2800750732422px) rotate(-45deg) translate(-180.45425415039062px, -208.2800750732422px);}67.78%{-webkit-transform: translate(180.45425415039062px, 208.2800750732422px) rotate(0deg) translate(-180.45425415039062px, -208.2800750732422px);transform: translate(180.45425415039062px, 208.2800750732422px) rotate(0deg) translate(-180.45425415039062px, -208.2800750732422px);}100%{-webkit-transform: translate(180.45425415039062px, 208.2800750732422px) rotate(0deg) translate(-180.45425415039062px, -208.2800750732422px);transform: translate(180.45425415039062px, 208.2800750732422px) rotate(0deg) translate(-180.45425415039062px, -208.2800750732422px);}}@-webkit-keyframes kf_el_Yf-0l4moh5_an_vsgyn93yY{0%{-webkit-transform: translate(128.85423278808594px, 208.2800750732422px) rotate(0deg) translate(-128.85423278808594px, -208.2800750732422px);transform: translate(128.85423278808594px, 208.2800750732422px) rotate(0deg) translate(-128.85423278808594px, -208.2800750732422px);}45.56%{-webkit-transform: translate(128.85423278808594px, 208.2800750732422px) rotate(-45deg) translate(-128.85423278808594px, -208.2800750732422px);transform: translate(128.85423278808594px, 208.2800750732422px) rotate(-45deg) translate(-128.85423278808594px, -208.2800750732422px);}67.78%{-webkit-transform: translate(128.85423278808594px, 208.2800750732422px) rotate(0deg) translate(-128.85423278808594px, -208.2800750732422px);transform: translate(128.85423278808594px, 208.2800750732422px) rotate(0deg) translate(-128.85423278808594px, -208.2800750732422px);}100%{-webkit-transform: translate(128.85423278808594px, 208.2800750732422px) rotate(0deg) translate(-128.85423278808594px, -208.2800750732422px);transform: translate(128.85423278808594px, 208.2800750732422px) rotate(0deg) translate(-128.85423278808594px, -208.2800750732422px);}}@keyframes kf_el_Yf-0l4moh5_an_vsgyn93yY{0%{-webkit-transform: translate(128.85423278808594px, 208.2800750732422px) rotate(0deg) translate(-128.85423278808594px, -208.2800750732422px);transform: translate(128.85423278808594px, 208.2800750732422px) rotate(0deg) translate(-128.85423278808594px, -208.2800750732422px);}45.56%{-webkit-transform: translate(128.85423278808594px, 208.2800750732422px) rotate(-45deg) translate(-128.85423278808594px, -208.2800750732422px);transform: translate(128.85423278808594px, 208.2800750732422px) rotate(-45deg) translate(-128.85423278808594px, -208.2800750732422px);}67.78%{-webkit-transform: translate(128.85423278808594px, 208.2800750732422px) rotate(0deg) translate(-128.85423278808594px, -208.2800750732422px);transform: translate(128.85423278808594px, 208.2800750732422px) rotate(0deg) translate(-128.85423278808594px, -208.2800750732422px);}100%{-webkit-transform: translate(128.85423278808594px, 208.2800750732422px) rotate(0deg) translate(-128.85423278808594px, -208.2800750732422px);transform: translate(128.85423278808594px, 208.2800750732422px) rotate(0deg) translate(-128.85423278808594px, -208.2800750732422px);}}@-webkit-keyframes kf_el_EnGzMNC0mW_an_Ks2G2WE-E{22.22%{-webkit-transform: translate(31.5px, 190.07559204101562px) scale(1, 1) translate(-31.5px, -190.07559204101562px);transform: translate(31.5px, 190.07559204101562px) scale(1, 1) translate(-31.5px, -190.07559204101562px);}50%{-webkit-transform: translate(31.5px, 190.07559204101562px) scale(1.12, 1) translate(-31.5px, -190.07559204101562px);transform: translate(31.5px, 190.07559204101562px) scale(1.12, 1) translate(-31.5px, -190.07559204101562px);}63.33%{-webkit-transform: translate(31.5px, 190.07559204101562px) scale(1, 1) translate(-31.5px, -190.07559204101562px);transform: translate(31.5px, 190.07559204101562px) scale(1, 1) translate(-31.5px, -190.07559204101562px);}0%{-webkit-transform: translate(31.5px, 190.07559204101562px) scale(1, 1) translate(-31.5px, -190.07559204101562px);transform: translate(31.5px, 190.07559204101562px) scale(1, 1) translate(-31.5px, -190.07559204101562px);}100%{-webkit-transform: translate(31.5px, 190.07559204101562px) scale(1, 1) translate(-31.5px, -190.07559204101562px);transform: translate(31.5px, 190.07559204101562px) scale(1, 1) translate(-31.5px, -190.07559204101562px);}}@keyframes kf_el_EnGzMNC0mW_an_Ks2G2WE-E{22.22%{-webkit-transform: translate(31.5px, 190.07559204101562px) scale(1, 1) translate(-31.5px, -190.07559204101562px);transform: translate(31.5px, 190.07559204101562px) scale(1, 1) translate(-31.5px, -190.07559204101562px);}50%{-webkit-transform: translate(31.5px, 190.07559204101562px) scale(1.12, 1) translate(-31.5px, -190.07559204101562px);transform: translate(31.5px, 190.07559204101562px) scale(1.12, 1) translate(-31.5px, -190.07559204101562px);}63.33%{-webkit-transform: translate(31.5px, 190.07559204101562px) scale(1, 1) translate(-31.5px, -190.07559204101562px);transform: translate(31.5px, 190.07559204101562px) scale(1, 1) translate(-31.5px, -190.07559204101562px);}0%{-webkit-transform: translate(31.5px, 190.07559204101562px) scale(1, 1) translate(-31.5px, -190.07559204101562px);transform: translate(31.5px, 190.07559204101562px) scale(1, 1) translate(-31.5px, -190.07559204101562px);}100%{-webkit-transform: translate(31.5px, 190.07559204101562px) scale(1, 1) translate(-31.5px, -190.07559204101562px);transform: translate(31.5px, 190.07559204101562px) scale(1, 1) translate(-31.5px, -190.07559204101562px);}}#el_3tZS02uP6 *{-webkit-animation-duration: 3s;animation-duration: 3s;-webkit-animation-iteration-count: infinite;animation-iteration-count: infinite;-webkit-animation-timing-function: cubic-bezier(0, 0, 1, 1);animation-timing-function: cubic-bezier(0, 0, 1, 1);}#el_gOqIU7wK7Ug{fill: #FFA502;}#el_TlylpsYgR3L{fill: #FFA502;}#el_Q0ZOf6KMvfu{fill: #FFA502;}#el_EnGzMNC0mW_an_Ks2G2WE-E{-webkit-animation-fill-mode: backwards;animation-fill-mode: backwards;-webkit-transform: translate(31.5px, 190.07559204101562px) scale(1, 1) translate(-31.5px, -190.07559204101562px);transform: translate(31.5px, 190.07559204101562px) scale(1, 1) translate(-31.5px, -190.07559204101562px);-webkit-animation-name: kf_el_EnGzMNC0mW_an_Ks2G2WE-E;animation-name: kf_el_EnGzMNC0mW_an_Ks2G2WE-E;-webkit-animation-timing-function: cubic-bezier(0.42, 0, 0.58, 1);animation-timing-function: cubic-bezier(0.42, 0, 0.58, 1);}#el_Yf-0l4moh5_an_FKQZmuBmS{-webkit-transform: translate(128.85423278808594px, 208.2800750732422px) translate(-128.85423278808594px, -208.2800750732422px) translate(0px, 0px);transform: translate(128.85423278808594px, 208.2800750732422px) translate(-128.85423278808594px, -208.2800750732422px) translate(0px, 0px);}#el_Yf-0l4moh5_an_vsgyn93yY{-webkit-animation-fill-mode: backwards;animation-fill-mode: backwards;-webkit-transform: translate(128.85423278808594px, 208.2800750732422px) rotate(0deg) translate(-128.85423278808594px, -208.2800750732422px);transform: translate(128.85423278808594px, 208.2800750732422px) rotate(0deg) translate(-128.85423278808594px, -208.2800750732422px);-webkit-animation-name: kf_el_Yf-0l4moh5_an_vsgyn93yY;animation-name: kf_el_Yf-0l4moh5_an_vsgyn93yY;-webkit-animation-timing-function: cubic-bezier(0.42, 0, 0.58, 1);animation-timing-function: cubic-bezier(0.42, 0, 0.58, 1);}#el_7FP_YaVvnHz_an_g7tvT-52K{-webkit-animation-fill-mode: backwards;animation-fill-mode: backwards;-webkit-transform: translate(180.45425415039062px, 208.2800750732422px) rotate(0deg) translate(-180.45425415039062px, -208.2800750732422px);transform: translate(180.45425415039062px, 208.2800750732422px) rotate(0deg) translate(-180.45425415039062px, -208.2800750732422px);-webkit-animation-name: kf_el_7FP_YaVvnHz_an_g7tvT-52K;animation-name: kf_el_7FP_YaVvnHz_an_g7tvT-52K;-webkit-animation-timing-function: cubic-bezier(0.42, 0, 0.58, 1);animation-timing-function: cubic-bezier(0.42, 0, 0.58, 1);}#el_yJuS1NnrRkd_an_7uPfmBc-J{-webkit-animation-fill-mode: backwards;animation-fill-mode: backwards;-webkit-transform: translate(151.5855484008789px, 204.13294982910156px) rotate(0deg) translate(-151.5855484008789px, -204.13294982910156px);transform: translate(151.5855484008789px, 204.13294982910156px) rotate(0deg) translate(-151.5855484008789px, -204.13294982910156px);-webkit-animation-name: kf_el_yJuS1NnrRkd_an_7uPfmBc-J;animation-name: kf_el_yJuS1NnrRkd_an_7uPfmBc-J;-webkit-animation-timing-function: cubic-bezier(0.42, 0, 0.58, 1);animation-timing-function: cubic-bezier(0.42, 0, 0.58, 1);}#el_bhnwNDzk7H_an_7HReobdW1{-webkit-animation-fill-mode: backwards;animation-fill-mode: backwards;-webkit-transform: translate(156.8372573852539px, 109.99656295776367px) translate(-156.8372573852539px, -109.99656295776367px) translate(0px, 0px);transform: translate(156.8372573852539px, 109.99656295776367px) translate(-156.8372573852539px, -109.99656295776367px) translate(0px, 0px);-webkit-animation-name: kf_el_bhnwNDzk7H_an_7HReobdW1;animation-name: kf_el_bhnwNDzk7H_an_7HReobdW1;-webkit-animation-timing-function: cubic-bezier(0.42, 0, 0.58, 1);animation-timing-function: cubic-bezier(0.42, 0, 0.58, 1);}#el_nd77D9TQZLh_an_mRKkZ-zb3{-webkit-animation-fill-mode: backwards;animation-fill-mode: backwards;-webkit-transform: translate(201.87065887451172px, 204.1166534423828px) rotate(0deg) translate(-201.87065887451172px, -204.1166534423828px);transform: translate(201.87065887451172px, 204.1166534423828px) rotate(0deg) translate(-201.87065887451172px, -204.1166534423828px);-webkit-animation-name: kf_el_nd77D9TQZLh_an_mRKkZ-zb3;animation-name: kf_el_nd77D9TQZLh_an_mRKkZ-zb3;-webkit-animation-timing-function: cubic-bezier(0, 0, 1, 1);animation-timing-function: cubic-bezier(0, 0, 1, 1);}</style>

<g id="el_EnGzMNC0mW_an_Ks2G2WE-E" data-animator-group="true" data-animator-type="2"><g id="el_EnGzMNC0mW">
	<path d="M74.4,242.6C61.7,241,51.9,232,51.9,221v-24c4.8,6.8,12.6,11.4,21.5,12v0H74c0,0,0.1,0,0.1,0v0h12.6v-5.1H74.1&#10;&#9;&#9;c-12.4-0.7-22.1-10.8-22.2-23.2v-0.2v-6.7v-0.2c0-0.2,0-0.4-0.1-0.6c-0.6-5-4.7-8.9-9.8-9c-5.6-0.2-10.3,4.2-10.5,9.9v6.7&#10;&#9;&#9;c0,1.5,1.2,2.6,2.6,2.6c1.5,0,2.6-1.2,2.6-2.6v-6.7c0.1-2.6,2.2-4.6,4.7-4.7c2.7-0.1,5,2,5.2,4.7v6.7V221c0,13.5,11.8,24.7,27,26.5&#10;&#9;&#9;c1.4,0.2,2.7-0.8,2.9-2.2c0-0.1,0-0.2,0-0.3l0,0C76.6,243.8,75.7,242.7,74.4,242.6z" id="el_31lLGXdMgT"/>
	<path d="M259.3,204.4c-0.1-1.3-1.1-2.4-2.4-2.5c-1.4-0.1-2.7,0.9-2.8,2.3c0,0.1,0,0.2,0,0.4l0.7,10.5c0,15.4-15.1,27.8-33.6,27.8&#10;&#9;&#9;h-1.1c-1.4,0-2.6,1.1-2.6,2.5c0,0,0,0,0,0c0,1.4,1.2,2.6,2.6,2.5h1.1c21.4,0,38.8-14.8,38.8-33l0-0.1L259.3,204.4z" id="el_RgA4BBnxqH"/>
	<path d="M211.6,242.9h-20c-1.4,0-2.6,1.1-2.6,2.5c0,1.4,1.2,2.6,2.6,2.5h20c1.4,0,2.6-1.1,2.6-2.5&#10;&#9;&#9;C214.2,243.9,213,242.8,211.6,242.9z" id="el_SvFkifdOz0"/>
	<path d="M175.8,242.9H89.1c-1.4,0-2.6,1.1-2.6,2.5c0,1.4,1.2,2.6,2.6,2.5h86.7c1.4,0,2.6-1.1,2.6-2.5&#10;&#9;&#9;C178.4,243.9,177.2,242.8,175.8,242.9z" id="el_6G-4GWDkJk"/>
	<path d="M269.3,154.6c-1.9-4.8-5.2-8.4-8.5-11.9l-0.6-0.7c-3.5-3.7-10-6.1-11.5-6.6l-4.8-2.8c-0.8-0.4-1.7-0.5-2.5-0.1&#10;&#9;&#9;c-0.8,0.3-1.4,1.1-1.5,1.9l-0.7,4.4l-0.7,2.3c-0.8,1-1.8,1.9-2.9,2.5c-0.8,0.4-3.3,0.2-5-0.2c-0.9-0.2-1.8,0-2.5,0.7&#10;&#9;&#9;c-0.6,0.6-0.9,1.5-0.7,2.4l4.8,18.1l2.5,9.9c-0.1,6.9-2.6,13.6-7.1,18.9c-0.2,0.2-0.2,0.2-0.6,0.4c-0.5,0.2-0.9,0.3-1.4,0.3h-86.2&#10;&#9;&#9;c-1.4,0-2.6,1.6-2.6,3.7c0,2.1,1.2,1.7,2.6,1.7l88.5,0.2c0.6,0,1.1-0.3,1.6-0.7c7.4-8.1,8-10.8,10.3-22.9c0.2-1,0.1-2.7-0.2-3.7&#10;&#9;&#9;l-2.2-8.8l-3.9-14.5c1.5,0.1,3.1-0.1,4.5-0.7c2-1.1,3.7-2.6,5.1-4.5c0.2-0.2,0.3-0.5,0.4-0.7l0.9-2.9c0-0.1,0.1-0.2,0.1-0.4&#10;&#9;&#9;l0.1-0.7l1.6,1c0.2,0.1,0.3,0.2,0.5,0.2c1.8,0.6,7.1,2.7,9.6,5.3l0.7,0.7c3.1,3.3,6,6.4,7.5,10.3c0.3,0.9,0.6,1.8,0.8,2.7&#10;&#9;&#9;c-3.9-2.7-8-3.6-11.2-2.2c-2.2,1.1-4,3-5,5.3c-0.7,1.7-0.9,3.5-0.6,5.2v0.2c0.5,5.6,3.5,27.8,3.6,28.8c0.2,1.4,1.5,2.4,2.9,2.2&#10;&#9;&#9;c1.4-0.1,2.4-1.4,2.3-2.8c0,0,0,0,0,0c0-0.2-3.1-23.1-3.6-28.6v-0.3c-0.2-0.9-0.1-1.9,0.3-2.8c0.5-1.1,1.3-2,2.4-2.6&#10;&#9;&#9;c1.9-0.8,6.7,0.9,10.5,6.4c0.7,1,1.9,1.4,3,1c1.1-0.3,1.8-1.3,1.8-2.5C271.4,162.4,270.6,158.4,269.3,154.6z" id="el_67L4B5cr_d"/>
</g></g>
<g id="el_bhnwNDzk7H_an_7HReobdW1" data-animator-group="true" data-animator-type="0"><g id="el_bhnwNDzk7H">
	<path d="M212.5,85.5c0.8,1.2,2.4,1.6,3.6,0.9h0c1.2-0.7,1.5-2.2,0.8-3.4c-2.2-3.8-4.8-7.2-7.9-10.4c-1-1.1-2.7-1.1-3.8-0.1&#10;&#9;&#9;c0,0,0,0-0.1,0.1c-0.9,0.9-0.9,2.4,0,3.3C208,78.9,210.4,82.1,212.5,85.5z" id="el_5uzXlCPPI7"/>
	<path d="M223.6,101.2c-0.3-1.4-1.7-2.3-3.1-2c-0.3,0.1-0.6,0.2-0.9,0.4l0,0c-0.9,0.5-1.3,1.5-1.2,2.5c0.4,2.6,0.7,5.3,0.7,8&#10;&#9;&#9;c0,27.6-23.4,50.1-52.1,50.1h-47.4c6.2-2.8,12-6.6,16.9-11.4c1-0.9,1-2.5,0.1-3.4c-0.1-0.1-0.3-0.2-0.4-0.4l-0.1,0&#10;&#9;&#9;c-1-0.7-2.4-0.6-3.3,0.3c-9.9,9.6-23.3,15-37.1,14.9H92c-1.3,0-2.4,0.8-2.7,2.1c-0.2,1.4,0.8,2.7,2.2,2.9c0,0,0,0,0.1,0&#10;&#9;&#9;c0,0,0.1,0,0.1,0c0.1,0,0.3,0,0.5,0h74.9c31.7,0,57.4-24.7,57.4-55.1C224.3,107.1,224.1,104.1,223.6,101.2z" id="el_sBSo8b4TGo"/>
	<path d="M91.4,59.9c0.1,0,0.3,0,0.4,0h0.5h2.4c28.4,0,52.3,21.4,53.1,48.7c0.2,7.8-1.5,15.6-4.9,22.7c-0.6,1.1-0.2,2.4,0.8,3.1&#10;&#9;&#9;c1.2,0.8,2.9,0.5,3.7-0.7c0.1-0.1,0.1-0.2,0.2-0.3c3.8-7.6,5.6-16.1,5.4-24.6c-0.5-21.8-14.4-40.3-34-48.9h47.9&#10;&#9;&#9;c8.4,0,16.6,1.9,24.1,5.7c1.1,0.6,2.4,0.3,3.2-0.5c0.9-1,0.9-2.6-0.1-3.5c-0.2-0.2-0.4-0.3-0.6-0.4c-8.3-4.2-17.4-6.3-26.6-6.3&#10;&#9;&#9;H97.1c-0.8,0-1.7-0.1-2.5-0.1H92c-1.3-0.1-2.5,0.9-2.8,2.2C89,58.4,90,59.7,91.4,59.9z" id="el_ZJG_c25HNQ"/>
</g></g>
<path d="M119.3,188.8L119.3,188.8c-0.5,0.9-0.5,1.9,0.1,2.7c3.2,4.3,4.6,9.6,4,14.9c-1.2,10.2-10,18.4-20.6,19.2&#10;&#9;c-14.4,1.1-26.2-10.9-24.1-24.9c1.4-8.1,7.2-14.7,15-17.2c3.3-1.1,6.8-1.4,10.2-1c1,0.1,2-0.4,2.6-1.2l0.1-0.1&#10;&#9;c0.7-1.2,0.3-2.7-0.9-3.3c-0.3-0.2-0.6-0.3-1-0.3c-4.2-0.6-8.4-0.2-12.4,1.2c-10.7,3.5-18.5,13-19.1,23.8&#10;&#9;c-0.9,16.4,13.8,29.9,31.1,28c12.7-1.4,22.8-11.2,24.3-23.4c0.8-6.5-1-13.1-4.9-18.4c-0.9-1.2-2.5-1.4-3.7-0.5&#10;&#9;C119.7,188.3,119.5,188.5,119.3,188.8z" id="el_F-xMZlYYHB"/>
<path d="M151.3,230.7c-15.3,0-27.8-12-27.8-26.7s12.5-26.7,27.8-26.7s27.8,12,27.8,26.7S166.7,230.7,151.3,230.7z" id="el_wgbL4OeVD-"/>
<path d="M202.2,230.7c-15.3,0-27.8-12-27.8-26.7s12.5-26.7,27.8-26.7s27.8,12,27.8,26.8S217.5,230.7,202.2,230.7z" id="el_dZsk7hv4fv"/>
<path d="M151.3,182.3c-1.4,0-2.6-1.1-2.6-2.5c0,0,0,0,0,0v-17.1c0.1-1.4,1.3-2.6,2.8-2.5c1.3,0.1,2.4,1.1,2.5,2.5v17.1&#10;&#9;C153.9,181.2,152.8,182.3,151.3,182.3C151.3,182.3,151.3,182.3,151.3,182.3z" id="el_o1Ifg26DhP"/>
<g id="el_Yf-0l4moh5_an_vsgyn93yY" data-animator-group="true" data-animator-type="1"><path d="M94.6,267.5c-0.4,0-0.9-0.1-1.3-0.3c-1.2-0.6-1.7-2.1-1.1-3.3c0,0,0-0.1,0.1-0.1l31.6-54.2c0.7-1.2,2.3-1.7,3.6-1&#10;&#9;c1.2,0.6,1.7,2.1,1.1,3.3c0,0,0,0.1-0.1,0.1l-31.6,54.2C96.4,267,95.6,267.5,94.6,267.5z" id="el_Yf-0l4moh5"/></g>
<g id="el_7FP_YaVvnHz_an_g7tvT-52K" data-animator-group="true" data-animator-type="1"><path d="M146.2,267.5c-0.4,0-0.9-0.1-1.3-0.3c-1.2-0.6-1.7-2.1-1.1-3.3c0,0,0-0.1,0.1-0.1l31.6-54.2c0.7-1.2,2.3-1.7,3.6-1&#10;&#9;c1.2,0.6,1.7,2.1,1.1,3.3c0,0,0,0.1-0.1,0.1l-31.6,54.2C148,266.9,147.1,267.4,146.2,267.5z" id="el_7FP_YaVvnHz"/></g>
<path d="M150.5,59.9c-1.4,0-2.6-1.1-2.6-2.5c0,0,0,0,0,0V39c0.1-1.4,1.3-2.6,2.8-2.5c1.3,0.1,2.4,1.1,2.5,2.5v18.4&#10;&#9;C153.1,58.8,151.9,60,150.5,59.9C150.5,59.9,150.5,59.9,150.5,59.9z" id="el_7VOY4PMN08_"/>
<path d="M151.3,182.3c-12.4,0-22.6,9.7-22.6,21.7s10.1,21.7,22.6,21.7s22.6-9.7,22.6-21.7S163.8,182.3,151.3,182.3z" id="el_gOqIU7wK7Ug"/>
<path d="M101,182.3c-12.4,0-22.6,9.7-22.6,21.7s10.1,21.7,22.6,21.7s22.6-9.7,22.6-21.7S113.4,182.3,101,182.3z" id="el_TlylpsYgR3L"/>
<path d="M202.2,182.3c-12.4,0-22.6,9.7-22.6,21.7s10.1,21.7,22.6,21.7s22.6-9.7,22.6-21.7S214.6,182.3,202.2,182.3z" id="el_Q0ZOf6KMvfu"/>
<g id="el_yJuS1NnrRkd_an_7uPfmBc-J" data-animator-group="true" data-animator-type="1"><path d="M149.3,191.8c-5.3,0.9-9.6,5-10.6,10.3c-0.5,2.9,0.1,5.8,1.6,8.3c0.8,1.2,2.4,1.6,3.7,0.8c0.2-0.2,0.5-0.4,0.6-0.6l0,0&#10;&#9;c0.6-0.8,0.7-1.9,0.2-2.7c-1-1.6-1.3-3.4-0.9-5.2c0.6-4.2,4.5-7.2,8.8-6.6c4.2,0.6,7.2,4.5,6.6,8.8c-0.4,2.6-2,4.8-4.4,5.9&#10;&#9;c-1.2,0.6-2.6,0.9-3.9,0.8c-1-0.1-2,0.4-2.5,1.3l0,0c-0.7,1.2-0.2,2.7,1,3.4c0.3,0.2,0.7,0.3,1,0.3c1.8,0.2,3.6-0.1,5.3-0.6&#10;&#9;c4.5-1.4,7.9-5.2,8.7-9.9C165.8,197.6,158.1,190.3,149.3,191.8z" id="el_yJuS1NnrRkd"/></g>
<g id="el_nd77D9TQZLh_an_mRKkZ-zb3" data-animator-group="true" data-animator-type="1"><path d="M209.5,202.6c0.3,1.4,0.2,2.9-0.4,4.2c-1.1,2.7-3.6,4.5-6.5,4.8c-4.1,0.7-7.9-2.1-8.6-6.1c-0.6-3.6,1.5-7.1,4.9-8.3&#10;&#9;c1.7-0.7,3.5-0.7,5.3-0.2c1,0.3,2.1,0,2.8-0.8l0,0c0.9-1,0.8-2.6-0.2-3.5c-0.3-0.2-0.6-0.4-0.9-0.5c-1.9-0.6-3.8-0.8-5.8-0.5&#10;&#9;c-5.5,0.7-10,4.8-11.1,10.3c-1.5,8.5,6.1,15.9,15,14.5c5.5-0.8,9.8-5,10.8-10.5c0.2-1.5,0.2-3.1-0.2-4.6c-0.4-1.4-1.8-2.2-3.2-1.8&#10;&#9;c-0.4,0.1-0.8,0.3-1.1,0.6l-0.2,0.2C209.5,200.9,209.3,201.8,209.5,202.6z" id="el_nd77D9TQZLh"/></g>
<path d="M101.2,216.7c-6.9-0.3-12.3-6.1-12.1-13c0.3-6.9,6.1-12.3,13-12.1c6.7,0.2,12.1,5.8,12.1,12.5&#10;&#9;C114.1,211.2,108.3,216.8,101.2,216.7z M101.2,196.7c-4.1,0.2-7.3,3.7-7.2,7.8c0.2,4.1,3.7,7.3,7.8,7.2c4-0.2,7.2-3.5,7.2-7.5&#10;&#9;C108.9,199.9,105.4,196.6,101.2,196.7L101.2,196.7z" id="el_9yHet7jXbEj"/>
</svg>