<svg version="1.1" id="el_mU2sOFzv1" xmlns="http://www.w3.org/2000/svg" xmlns:xlink="http://www.w3.org/1999/xlink" x="0px" y="0px" viewBox="0 0 303 303" style="enable-background:new 0 0 303.9 303.9;" xml:space="preserve"><style>@-webkit-keyframes kf_el_uSVE-pGXqb5_an_hOJ6oOPJx{0%{-webkit-transform: translate(78.03196334838867px, 231.49998474121094px) scale(0.6, 0.6) translate(-78.03196334838867px, -231.49998474121094px);transform: translate(78.03196334838867px, 231.49998474121094px) scale(0.6, 0.6) translate(-78.03196334838867px, -231.49998474121094px);}4.44%{-webkit-transform: translate(78.03196334838867px, 231.49998474121094px) scale(0.9, 0.9) translate(-78.03196334838867px, -231.49998474121094px);transform: translate(78.03196334838867px, 231.49998474121094px) scale(0.9, 0.9) translate(-78.03196334838867px, -231.49998474121094px);}8.89%{-webkit-transform: translate(78.03196334838867px, 231.49998474121094px) scale(0.6, 0.6) translate(-78.03196334838867px, -231.49998474121094px);transform: translate(78.03196334838867px, 231.49998474121094px) scale(0.6, 0.6) translate(-78.03196334838867px, -231.49998474121094px);}100%{-webkit-transform: translate(78.03196334838867px, 231.49998474121094px) scale(0.6, 0.6) translate(-78.03196334838867px, -231.49998474121094px);transform: translate(78.03196334838867px, 231.49998474121094px) scale(0.6, 0.6) translate(-78.03196334838867px, -231.49998474121094px);}}@keyframes kf_el_uSVE-pGXqb5_an_hOJ6oOPJx{0%{-webkit-transform: translate(78.03196334838867px, 231.49998474121094px) scale(0.6, 0.6) translate(-78.03196334838867px, -231.49998474121094px);transform: translate(78.03196334838867px, 231.49998474121094px) scale(0.6, 0.6) translate(-78.03196334838867px, -231.49998474121094px);}4.44%{-webkit-transform: translate(78.03196334838867px, 231.49998474121094px) scale(0.9, 0.9) translate(-78.03196334838867px, -231.49998474121094px);transform: translate(78.03196334838867px, 231.49998474121094px) scale(0.9, 0.9) translate(-78.03196334838867px, -231.49998474121094px);}8.89%{-webkit-transform: translate(78.03196334838867px, 231.49998474121094px) scale(0.6, 0.6) translate(-78.03196334838867px, -231.49998474121094px);transform: translate(78.03196334838867px, 231.49998474121094px) scale(0.6, 0.6) translate(-78.03196334838867px, -231.49998474121094px);}100%{-webkit-transform: translate(78.03196334838867px, 231.49998474121094px) scale(0.6, 0.6) translate(-78.03196334838867px, -231.49998474121094px);transform: translate(78.03196334838867px, 231.49998474121094px) scale(0.6, 0.6) translate(-78.03196334838867px, -231.49998474121094px);}}@-webkit-keyframes kf_el_CBpX9BwX-L6_an_QkkPKvSk_{0%{-webkit-transform: translate(184.25000762939453px, 105.05001068115234px) scale(0.7, 0.7) translate(-184.25000762939453px, -105.05001068115234px);transform: translate(184.25000762939453px, 105.05001068115234px) scale(0.7, 0.7) translate(-184.25000762939453px, -105.05001068115234px);}86.67%{-webkit-transform: translate(184.25000762939453px, 105.05001068115234px) scale(0.7, 0.7) translate(-184.25000762939453px, -105.05001068115234px);transform: translate(184.25000762939453px, 105.05001068115234px) scale(0.7, 0.7) translate(-184.25000762939453px, -105.05001068115234px);}92.22%{-webkit-transform: translate(184.25000762939453px, 105.05001068115234px) scale(1, 1) translate(-184.25000762939453px, -105.05001068115234px);transform: translate(184.25000762939453px, 105.05001068115234px) scale(1, 1) translate(-184.25000762939453px, -105.05001068115234px);}95.56%{-webkit-transform: translate(184.25000762939453px, 105.05001068115234px) scale(0.7, 0.7) translate(-184.25000762939453px, -105.05001068115234px);transform: translate(184.25000762939453px, 105.05001068115234px) scale(0.7, 0.7) translate(-184.25000762939453px, -105.05001068115234px);}100%{-webkit-transform: translate(184.25000762939453px, 105.05001068115234px) scale(0.7, 0.7) translate(-184.25000762939453px, -105.05001068115234px);transform: translate(184.25000762939453px, 105.05001068115234px) scale(0.7, 0.7) translate(-184.25000762939453px, -105.05001068115234px);}}@keyframes kf_el_CBpX9BwX-L6_an_QkkPKvSk_{0%{-webkit-transform: translate(184.25000762939453px, 105.05001068115234px) scale(0.7, 0.7) translate(-184.25000762939453px, -105.05001068115234px);transform: translate(184.25000762939453px, 105.05001068115234px) scale(0.7, 0.7) translate(-184.25000762939453px, -105.05001068115234px);}86.67%{-webkit-transform: translate(184.25000762939453px, 105.05001068115234px) scale(0.7, 0.7) translate(-184.25000762939453px, -105.05001068115234px);transform: translate(184.25000762939453px, 105.05001068115234px) scale(0.7, 0.7) translate(-184.25000762939453px, -105.05001068115234px);}92.22%{-webkit-transform: translate(184.25000762939453px, 105.05001068115234px) scale(1, 1) translate(-184.25000762939453px, -105.05001068115234px);transform: translate(184.25000762939453px, 105.05001068115234px) scale(1, 1) translate(-184.25000762939453px, -105.05001068115234px);}95.56%{-webkit-transform: translate(184.25000762939453px, 105.05001068115234px) scale(0.7, 0.7) translate(-184.25000762939453px, -105.05001068115234px);transform: translate(184.25000762939453px, 105.05001068115234px) scale(0.7, 0.7) translate(-184.25000762939453px, -105.05001068115234px);}100%{-webkit-transform: translate(184.25000762939453px, 105.05001068115234px) scale(0.7, 0.7) translate(-184.25000762939453px, -105.05001068115234px);transform: translate(184.25000762939453px, 105.05001068115234px) scale(0.7, 0.7) translate(-184.25000762939453px, -105.05001068115234px);}}@-webkit-keyframes kf_el_qnXNt9dn3ya_an_jHp7ilrYP{60%{opacity: 1;}72.22%{opacity: 0;}85.56%{opacity: 1;}0%{opacity: 1;}100%{opacity: 1;}}@keyframes kf_el_qnXNt9dn3ya_an_jHp7ilrYP{60%{opacity: 1;}72.22%{opacity: 0;}85.56%{opacity: 1;}0%{opacity: 1;}100%{opacity: 1;}}@-webkit-keyframes kf_el_ouN5BDzaeR_an_7MIjGUpD1{53.33%{opacity: 1;}68.89%{opacity: 0;}0%{opacity: 1;}}@keyframes kf_el_ouN5BDzaeR_an_7MIjGUpD1{53.33%{opacity: 1;}68.89%{opacity: 0;}0%{opacity: 1;}}@-webkit-keyframes kf_el_dovfRMaDsP_an_GlDVDej_I{46.67%{opacity: 1;}63.33%{opacity: 0;}75.56%{opacity: 1;}0%{opacity: 1;}100%{opacity: 1;}}@keyframes kf_el_dovfRMaDsP_an_GlDVDej_I{46.67%{opacity: 1;}63.33%{opacity: 0;}75.56%{opacity: 1;}0%{opacity: 1;}100%{opacity: 1;}}@-webkit-keyframes kf_el_XeUvMnhRGJ_an_MHrKwCstu{41.11%{opacity: 1;}57.78%{opacity: 0;}70%{opacity: 1;}0%{opacity: 1;}100%{opacity: 1;}}@keyframes kf_el_XeUvMnhRGJ_an_MHrKwCstu{41.11%{opacity: 1;}57.78%{opacity: 0;}70%{opacity: 1;}0%{opacity: 1;}100%{opacity: 1;}}@-webkit-keyframes kf_el_L7ncPMdRlY_an_PY2YO_XNs{35.56%{opacity: 1;}51.11%{opacity: 0;}64.44%{opacity: 1;}0%{opacity: 1;}100%{opacity: 1;}}@keyframes kf_el_L7ncPMdRlY_an_PY2YO_XNs{35.56%{opacity: 1;}51.11%{opacity: 0;}64.44%{opacity: 1;}0%{opacity: 1;}100%{opacity: 1;}}@-webkit-keyframes kf_el_6h9_Kdzza-_an_NvuXBBKw2{27.78%{opacity: 1;}43.33%{opacity: 0;}57.78%{opacity: 1;}0%{opacity: 1;}100%{opacity: 1;}}@keyframes kf_el_6h9_Kdzza-_an_NvuXBBKw2{27.78%{opacity: 1;}43.33%{opacity: 0;}57.78%{opacity: 1;}0%{opacity: 1;}100%{opacity: 1;}}@-webkit-keyframes kf_el_N8B8xsx65D_an_rQ3P_ve2e{23.33%{opacity: 1;}37.78%{opacity: 0;}52.22%{opacity: 1;}0%{opacity: 1;}100%{opacity: 1;}}@keyframes kf_el_N8B8xsx65D_an_rQ3P_ve2e{23.33%{opacity: 1;}37.78%{opacity: 0;}52.22%{opacity: 1;}0%{opacity: 1;}100%{opacity: 1;}}@-webkit-keyframes kf_el_wsPYAkXPwi_an__az4O4yb1{16.67%{opacity: 1;}31.11%{opacity: 0;}44.44%{opacity: 1;}0%{opacity: 1;}100%{opacity: 1;}}@keyframes kf_el_wsPYAkXPwi_an__az4O4yb1{16.67%{opacity: 1;}31.11%{opacity: 0;}44.44%{opacity: 1;}0%{opacity: 1;}100%{opacity: 1;}}@-webkit-keyframes kf_el_pTsdjr7Vj6_an_GOSt8NBLi{11.11%{opacity: 1;}22.22%{opacity: 0;}37.78%{opacity: 1;}0%{opacity: 1;}100%{opacity: 1;}}@keyframes kf_el_pTsdjr7Vj6_an_GOSt8NBLi{11.11%{opacity: 1;}22.22%{opacity: 0;}37.78%{opacity: 1;}0%{opacity: 1;}100%{opacity: 1;}}#el_mU2sOFzv1 *{-webkit-animation-duration: 3s;animation-duration: 3s;-webkit-animation-iteration-count: infinite;animation-iteration-count: infinite;-webkit-animation-timing-function: cubic-bezier(0, 0, 1, 1);animation-timing-function: cubic-bezier(0, 0, 1, 1);}#el_2KBj3gIL8o{fill: none;stroke: #000000;stroke-width: 4.93;stroke-linecap: round;stroke-linejoin: round;}#el_qZJx2PBq8S{fill: none;stroke: #000000;stroke-width: 4.93;stroke-linecap: round;stroke-linejoin: round;}#el_m4wc90eemA{fill: none;stroke: #000000;stroke-width: 4.93;stroke-linecap: round;stroke-linejoin: round;}#el_FlG9y_pK4h{fill: none;stroke: #000000;stroke-width: 4.93;stroke-linecap: round;stroke-linejoin: round;}#el_6JM2vos2q4{fill: none;stroke: #000000;stroke-width: 4.93;stroke-linecap: round;stroke-linejoin: round;}#el_aYp6Clp-wa{fill: none;stroke: #000000;stroke-width: 4.12;stroke-linecap: round;stroke-linejoin: round;}#el_ap9ikcvqII{fill: none;stroke: #000000;stroke-width: 4.12;stroke-linecap: round;stroke-linejoin: round;}#el_pTsdjr7Vj6{fill: none;stroke: #000000;stroke-width: 4.93;stroke-linecap: round;stroke-linejoin: round;-webkit-animation-fill-mode: backwards;animation-fill-mode: backwards;opacity: 1;-webkit-animation-name: kf_el_pTsdjr7Vj6_an_GOSt8NBLi;animation-name: kf_el_pTsdjr7Vj6_an_GOSt8NBLi;-webkit-animation-timing-function: cubic-bezier(0.42, 0, 0.58, 1);animation-timing-function: cubic-bezier(0.42, 0, 0.58, 1);}#el_qnXNt9dn3ya{fill: none;stroke: #000000;stroke-width: 4.93;stroke-linecap: round;stroke-linejoin: round;-webkit-animation-fill-mode: backwards;animation-fill-mode: backwards;opacity: 1;-webkit-animation-name: kf_el_qnXNt9dn3ya_an_jHp7ilrYP;animation-name: kf_el_qnXNt9dn3ya_an_jHp7ilrYP;-webkit-animation-timing-function: cubic-bezier(0.42, 0, 0.58, 1);animation-timing-function: cubic-bezier(0.42, 0, 0.58, 1);}#el_CBpX9BwX-L6{fill: none;stroke: #000000;stroke-width: 4.93;stroke-linecap: round;stroke-linejoin: round;}#el_3BU1St0gq9Y{fill: none;stroke: #000000;stroke-width: 4.93;stroke-linecap: round;stroke-linejoin: round;}#el_gj51HIjUCy8{fill: none;stroke: #000000;stroke-width: 4.93;stroke-linecap: round;stroke-linejoin: round;}#el_nb8mcJUGYCn{fill: none;stroke: #000000;stroke-width: 4.93;stroke-linecap: round;stroke-linejoin: round;}#el_sgI9cXaL9VC{fill: none;stroke: #000000;stroke-width: 3.72;stroke-linecap: round;stroke-linejoin: round;}#el_cZbSIwgXwyq{fill: none;stroke: #000000;stroke-width: 3.72;stroke-linecap: round;stroke-linejoin: round;}#el_XzqRDLHf2_-{fill: none;stroke: #000000;stroke-width: 3.72;stroke-linecap: round;stroke-linejoin: round;}#el_wsPYAkXPwi{-webkit-animation-fill-mode: backwards;animation-fill-mode: backwards;opacity: 1;-webkit-animation-name: kf_el_wsPYAkXPwi_an__az4O4yb1;animation-name: kf_el_wsPYAkXPwi_an__az4O4yb1;-webkit-animation-timing-function: cubic-bezier(0.42, 0, 0.58, 1);animation-timing-function: cubic-bezier(0.42, 0, 0.58, 1);}#el_N8B8xsx65D{-webkit-animation-fill-mode: backwards;animation-fill-mode: backwards;opacity: 1;-webkit-animation-name: kf_el_N8B8xsx65D_an_rQ3P_ve2e;animation-name: kf_el_N8B8xsx65D_an_rQ3P_ve2e;-webkit-animation-timing-function: cubic-bezier(0, 0, 1, 1);animation-timing-function: cubic-bezier(0, 0, 1, 1);}#el_6h9_Kdzza-{-webkit-animation-fill-mode: backwards;animation-fill-mode: backwards;opacity: 1;-webkit-animation-name: kf_el_6h9_Kdzza-_an_NvuXBBKw2;animation-name: kf_el_6h9_Kdzza-_an_NvuXBBKw2;-webkit-animation-timing-function: cubic-bezier(0.42, 0, 0.58, 1);animation-timing-function: cubic-bezier(0.42, 0, 0.58, 1);}#el_L7ncPMdRlY{-webkit-animation-fill-mode: backwards;animation-fill-mode: backwards;opacity: 1;-webkit-animation-name: kf_el_L7ncPMdRlY_an_PY2YO_XNs;animation-name: kf_el_L7ncPMdRlY_an_PY2YO_XNs;-webkit-animation-timing-function: cubic-bezier(0.42, 0, 0.58, 1);animation-timing-function: cubic-bezier(0.42, 0, 0.58, 1);}#el_XeUvMnhRGJ{-webkit-animation-fill-mode: backwards;animation-fill-mode: backwards;opacity: 1;-webkit-animation-name: kf_el_XeUvMnhRGJ_an_MHrKwCstu;animation-name: kf_el_XeUvMnhRGJ_an_MHrKwCstu;-webkit-animation-timing-function: cubic-bezier(0.42, 0, 0.58, 1);animation-timing-function: cubic-bezier(0.42, 0, 0.58, 1);}#el_dovfRMaDsP{-webkit-animation-fill-mode: backwards;animation-fill-mode: backwards;opacity: 1;-webkit-animation-name: kf_el_dovfRMaDsP_an_GlDVDej_I;animation-name: kf_el_dovfRMaDsP_an_GlDVDej_I;-webkit-animation-timing-function: cubic-bezier(0, 0, 1, 1);animation-timing-function: cubic-bezier(0, 0, 1, 1);}#el_ouN5BDzaeR{-webkit-animation-fill-mode: backwards;animation-fill-mode: backwards;opacity: 1;-webkit-animation-name: kf_el_ouN5BDzaeR_an_7MIjGUpD1;animation-name: kf_el_ouN5BDzaeR_an_7MIjGUpD1;-webkit-animation-timing-function: cubic-bezier(0.42, 0, 0.58, 1);animation-timing-function: cubic-bezier(0.42, 0, 0.58, 1);}#el_CBpX9BwX-L6_an_QkkPKvSk_{-webkit-animation-fill-mode: backwards;animation-fill-mode: backwards;-webkit-transform: translate(184.25000762939453px, 105.05001068115234px) scale(0.7, 0.7) translate(-184.25000762939453px, -105.05001068115234px);transform: translate(184.25000762939453px, 105.05001068115234px) scale(0.7, 0.7) translate(-184.25000762939453px, -105.05001068115234px);-webkit-animation-name: kf_el_CBpX9BwX-L6_an_QkkPKvSk_;animation-name: kf_el_CBpX9BwX-L6_an_QkkPKvSk_;-webkit-animation-timing-function: cubic-bezier(0.42, 0, 0.58, 1);animation-timing-function: cubic-bezier(0.42, 0, 0.58, 1);}#el_uSVE-pGXqb5_an_xHXsf7-g_{-webkit-transform: translate(78.03196334838867px, 231.49998474121094px) translate(-78.03196334838867px, -231.49998474121094px) translate(0px, 0px);transform: translate(78.03196334838867px, 231.49998474121094px) translate(-78.03196334838867px, -231.49998474121094px) translate(0px, 0px);}#el_uSVE-pGXqb5_an_hOJ6oOPJx{-webkit-animation-fill-mode: backwards;animation-fill-mode: backwards;-webkit-transform: translate(78.03196334838867px, 231.49998474121094px) scale(0.6, 0.6) translate(-78.03196334838867px, -231.49998474121094px);transform: translate(78.03196334838867px, 231.49998474121094px) scale(0.6, 0.6) translate(-78.03196334838867px, -231.49998474121094px);-webkit-animation-name: kf_el_uSVE-pGXqb5_an_hOJ6oOPJx;animation-name: kf_el_uSVE-pGXqb5_an_hOJ6oOPJx;-webkit-animation-timing-function: cubic-bezier(0.42, 0, 0.58, 1);animation-timing-function: cubic-bezier(0.42, 0, 0.58, 1);}#el_FlG9y_pK4h_an_Rd-if5tx0{-webkit-transform: translate(70.5999984741211px, 85.30000305175781px) translate(-70.5999984741211px, -85.30000305175781px) translate(0px, 0px);transform: translate(70.5999984741211px, 85.30000305175781px) translate(-70.5999984741211px, -85.30000305175781px) translate(0px, 0px);}</style>

<line x1="215.3" y1="71.9" x2="145.7" y2="71.9" id="el_2KBj3gIL8o"/>
<polyline points="127.6,71.9 45.3,71.9 55.8,90.4 45.3,116 56,138.5 45.3,163.1 55.2,185.3 45.3,210.7 49.2,219.6 " id="el_qZJx2PBq8S"/>
<polyline points="55.8,235.2 45.3,250.8 178.4,250.8 " id="el_m4wc90eemA"/>
<polyline points="70.6,114.8 81.7,85.3 85.5,95.7 " id="el_FlG9y_pK4h"/>
<polyline points="88.6,105.2 92,114.8 81.5,114.8 81.5,127.9 " id="el_6JM2vos2q4"/>
<polyline points="113,183.3 122.3,158.6 125.5,167.3 " id="el_aYp6Clp-wa"/>
<polyline points="128.1,175.2 130.9,183.3 122.1,183.3 122.1,194.2 " id="el_ap9ikcvqII"/>
<path d="M96.9,227.8c2.2-0.1,4.4-0.3,6.5-0.7" id="el_pTsdjr7Vj6"/>
<path d="M115.5,226.3c-1,0-1.9-0.6-2.3-1.6c-0.5-1.3,0.1-2.7,1.4-3.2c3.7-1.4,7.3-3.3,10.6-5.4c1.1-0.7,2.7-0.4,3.4,0.7&#10;&#9;c0.7,1.1,0.4,2.7-0.7,3.4c-3.6,2.4-7.5,4.4-11.6,5.9C116.1,226.2,115.8,226.3,115.5,226.3z" id="el_wsPYAkXPwi"/>
<path d="M136.1,212.7c-0.6,0-1.2-0.2-1.7-0.7c-1-0.9-1-2.5,0-3.5c1.7-1.8,3.4-3.7,4.8-5.7c0.9-1.2,1.7-2.5,2.6-3.7&#10;&#9;c0.7-1.1,2.3-1.5,3.4-0.7c1.1,0.7,1.5,2.3,0.7,3.4c-0.9,1.3-1.8,2.7-2.7,4c-1.6,2.2-3.4,4.3-5.3,6.2&#10;&#9;C137.4,212.4,136.8,212.7,136.1,212.7z" id="el_N8B8xsx65D"/>
<path d="M149.7,191.9c-0.3,0-0.6-0.1-1-0.2c-1.3-0.5-1.8-2-1.3-3.2c1.7-3.9,2.8-7.8,3.4-11.4c0.2-1.3,1.5-2.3,2.8-2&#10;&#9;c1.3,0.2,2.2,1.5,2,2.8c-0.7,4-1.9,8.2-3.7,12.5C151.6,191.3,150.7,191.9,149.7,191.9z" id="el_6h9_Kdzza-"/>
<path d="M153.2,167.5c-1.1,0-2.2-0.8-2.4-1.9c-0.2-1.1-0.6-2.2-0.9-3.3c-0.9-2.4-2.2-4.7-3.9-6.9c-0.8-1.1-0.6-2.6,0.4-3.5&#10;&#9;c1.1-0.8,2.6-0.6,3.5,0.4c2,2.6,3.6,5.4,4.6,8.2c0.5,1.3,0.8,2.6,1.1,3.9c0.3,1.3-0.6,2.6-1.9,2.9&#10;&#9;C153.5,167.5,153.3,167.5,153.2,167.5z" id="el_L7ncPMdRlY"/>
<path d="M138.6,148.1c-0.5,0-0.9-0.1-1.3-0.4c-2.8-1.8-5.3-2.9-7.9-4c-1-0.4-1.9-0.8-2.9-1.3c-1.2-0.6-1.8-2-1.2-3.3&#10;&#9;c0.6-1.2,2-1.8,3.3-1.2c0.9,0.4,1.9,0.8,2.8,1.2c2.7,1.2,5.5,2.3,8.7,4.4c1.1,0.7,1.5,2.3,0.7,3.4&#10;&#9;C140.2,147.7,139.4,148.1,138.6,148.1z" id="el_XeUvMnhRGJ"/>
<path d="M117.1,135.7c-0.6,0-1.3-0.2-1.7-0.7c-0.8-0.8-1.6-1.7-2.2-2.7c-0.8-1.1-3.2-5.1-3.3-10.2c0-1.4,1.1-2.5,2.4-2.5&#10;&#9;c1.4,0,2.5,1.1,2.5,2.4c0.1,3.9,2.1,7,2.4,7.5c0.5,0.7,1,1.4,1.6,2c1,1,1,2.5,0,3.5C118.4,135.5,117.7,135.7,117.1,135.7z" id="el_dovfRMaDsP"/>
<path d="M117.3,113.6c-0.7,0-1.3-0.3-1.8-0.8c-0.9-1-0.8-2.6,0.2-3.5c1.1-1,2.4-1.9,3.7-2.6c2.2-1.3,4.8-2,9.1-2.5&#10;&#9;c1.4-0.2,2.6,0.8,2.7,2.2c0.2,1.4-0.8,2.6-2.2,2.7c-3.5,0.4-5.6,1-7.2,1.9c-1.1,0.6-2,1.2-2.8,2&#10;&#9;C118.5,113.3,117.9,113.6,117.3,113.6z" id="el_ouN5BDzaeR"/>
<path d="M141.2,105.6c2-0.2,4.2-0.3,6.6-0.4" id="el_qnXNt9dn3ya"/>
<g id="el_CBpX9BwX-L6_an_QkkPKvSk_" data-animator-group="true" data-animator-type="2"><path d="M205.7,114.3l-7.4-7.2c-0.9-0.9-1-2.3-0.1-3.3c0.1-0.1,0.1-0.1,0.2-0.2l7.7-6.9c1-0.8,1.1-2.3,0.2-3.3&#10;&#9;c-0.1-0.1-0.1-0.1-0.2-0.2l-8.4-8.1c-1-1-2.6-1-3.7-0.1l-7.7,6.9c-1.1,0.9-2.7,0.9-3.7-0.1l-7.4-7.2c-1-1-2.6-1-3.7-0.1l-8.7,7.8&#10;&#9;c-1,0.8-1.1,2.3-0.2,3.3c0.1,0.1,0.1,0.1,0.2,0.2l7.4,7.2c0.9,0.9,1,2.3,0.1,3.3c-0.1,0.1-0.1,0.1-0.2,0.2l-7.7,6.9&#10;&#9;c-1,0.8-1.1,2.3-0.2,3.3c0.1,0.1,0.1,0.1,0.2,0.2l8.4,8.1c1,1,2.6,1,3.7,0.1l7.7-6.9c1.1-0.9,2.7-0.9,3.7,0.1l7.4,7.2&#10;&#9;c1,1,2.6,1,3.7,0.1l8.7-7.8c1-0.8,1.1-2.3,0.2-3.3C205.8,114.5,205.7,114.4,205.7,114.3z" id="el_CBpX9BwX-L6"/></g>
<g id="el_uSVE-pGXqb5_an_hOJ6oOPJx" data-animator-group="true" data-animator-type="2"><path d="M87,231.7l4.4-3.9c0.1-0.1,0.1-0.1,0.2-0.2c1-1,0.9-2.7-0.1-3.7l-4.8-4.6c-1.2-1.1-2.9-1.1-4.1-0.1l-4.4,3.9l-4.2-4.1&#10;&#9;c-0.5-0.5-1.3-0.8-2-0.8c-0.8,0-1.5,0.3-2.1,0.8l-4.9,4.4c-0.1,0.1-0.1,0.1-0.2,0.2c-1,1-0.9,2.7,0.1,3.7l4.2,4.1l-4.4,3.9&#10;&#9;c-0.1,0.1-0.1,0.1-0.2,0.2c-1,1-1,2.7,0.1,3.7l4.8,4.6c1.2,1.1,2.9,1.1,4.1,0.1l4.4-3.9l4.2,4c0.6,0.5,1.3,0.8,2.1,0.8&#10;&#9;c0.7,0,1.4-0.3,2-0.8l4.9-4.4c0.1-0.1,0.1-0.1,0.2-0.2c1-1,0.9-2.7-0.1-3.7L87,231.7z" id="el_uSVE-pGXqb5"/></g>
<polyline points="166.1,195.7 180.6,169.9 188.6,183.9 " id="el_3BU1St0gq9Y"/>
<polyline points="191.2,189.2 194.9,196.8 188.6,196.8 194.3,213.4 180.4,213.4 180.4,225.3 " id="el_gj51HIjUCy8"/>
<polyline points="172.1,196.9 166.1,213.3 171.6,213.3 " id="el_nb8mcJUGYCn"/>
<polyline points="70.4,161.9 81.3,142.4 87.4,153 " id="el_sgI9cXaL9VC"/>
<polyline points="89.4,156.9 92.2,162.7 87.4,162.7 91.7,175.2 81.2,175.2 81.2,184.2 " id="el_cZbSIwgXwyq"/>
<polyline points="74.9,162.8 70.4,175.1 74.6,175.1 " id="el_XzqRDLHf2_-"/>
<path d="M217.5,231.4c-0.9,0-1.7-0.4-2.2-1.2c-0.8-1.3-1.5-2.6-2-4.1c-0.4-1.2-0.6-2.4-0.6-3.7c0.1-1.3,1.2-2.3,2.5-2.3h0.1&#10;&#9;c1.4,0,2.5,1,2.6,2.4c0,0.8,0.1,1.5,0.4,2.2c0.3,1.1,0.8,2.1,1.4,3c0.7,1.1,0.4,2.5-0.7,3.2c-0.1,0-0.1,0.1-0.2,0.1&#10;&#9;C218.3,231.3,217.9,231.4,217.5,231.4z" id="el_xoiAasd-ZAt"/>
<path d="M227.7,237.1c-1.9,0-3.8-0.3-5.6-1.1c-2.8-1.1-5.2-3.1-6.8-5.6c-0.6-0.8-0.6-2,0-2.8c0.9-1.2,2.7-1.4,3.9-0.5&#10;&#9;c0.2,0.2,0.4,0.4,0.6,0.6c1.7,2.8,4.7,4.5,8,4.5c5.7,0,7-1.7,7.9-2.8c0.3-0.4,0.5-0.8,0.8-1.2c0.5-1,1.5-1.6,2.7-1.6&#10;&#9;c1.4,0,2.5,1.1,2.5,2.5c0,0.3-0.1,0.7-0.2,1c-0.4,0.8-0.8,1.5-1.3,2.2C238,234.6,235.1,237.1,227.7,237.1z" id="el_hAnyhJYMgIA"/>
<path d="M238.8,231.5c-0.4,0-0.7-0.1-1.1-0.2c-1.2-0.5-1.9-1.9-1.4-3.1c0-0.1,0-0.1,0.1-0.2c0.4-0.8,1.7-3.8,0.7-6.4&#10;&#9;c-0.8-2.2-3.6-2.6-3.6-2.6c-1.4-0.1-2.4-1.3-2.3-2.7c0,0,0,0,0-0.1c0.3-1.4,1.6-2.4,3-2.1c2.3,0.3,6.6,1.9,8,6s-0.2,8.4-0.9,10&#10;&#9;C240.8,230.9,239.8,231.5,238.8,231.5z" id="el_ORJsjGglx7U"/>
<path d="M238.8,253.3h-41.5c-1,0-2-0.5-2.5-1.4c-0.6-1.3,0-2.8,1.3-3.3c0.4-0.2,0.8-0.2,1.2-0.2h41.2c1.9-0.6,11.8-4.3,13.9-12.7&#10;&#9;c0.6-2.2,0.9-4.4,1.1-6.7c0.1-1.1,0.8-2.1,1.9-2.4c1.4-0.4,2.9,0.4,3.3,1.8c0.1,0.3,0.1,0.5,0.1,0.8c-0.2,2.6-0.6,5.2-1.2,7.7&#10;&#9;c-3.1,12.1-17.3,16.2-17.9,16.4C239.3,253.3,239,253.3,238.8,253.3z" id="el_hXtJY4kpo_W"/>
<path d="M253.5,211.4L253.5,211.4c-3.5-4-8.3-6.8-13.5-7.9c-1.8-0.4-3.6-0.5-5.4-0.5c-5.1-0.1-10,1.5-14.1,4.6&#10;&#9;c-1,0.8-1.9,1.6-2.7,2.5v-9.7h-5.1v21.3c0.1,1.4,1.2,2.4,2.6,2.4l0,0c1.3,0,2.4-0.9,2.6-2.3c0.1-4.5,3.3-8.6,6-10.6&#10;&#9;c5.8-4.5,13-3.5,15.1-3c5.8,1.3,10.7,5.1,13.5,10.3l0,0c0.9,3.4,1.3,6.9,1,10.4c0,0.7,0.2,1.3,0.7,1.8c0.5,0.5,1.2,0.7,1.9,0.8&#10;&#9;c1.4,0,2.5-1,2.5-2.4V92.2h-5.1L253.5,211.4z" id="el_PO338xmJHJV"/>
<path d="M234.6,50.6c-12.4,0.5-21.9,10.5-21.9,22v111.8l0.1,0.1h5l0.1-0.1V72.5c0.2-9,7.1-16.4,16.1-17.1&#10;&#9;c10.6-0.9,19.5,6.9,19.5,16.5v2l2.5,2.3h0l2.6-2.3v-2C258.6,59.8,247.7,50,234.6,50.6z" id="el_uRNBd3B7PD2"/>
<path d="M253.6,71.6v3.9c0.1,1.4,1.3,2.5,2.7,2.4c1.3-0.1,2.3-1.1,2.4-2.4v-3.9H253.6z" id="el_DyoQyA7__8e"/>
<path d="M258.7,94.9v-3.9c-0.1-1.4-1.3-2.5-2.7-2.4c-1.3,0.1-2.3,1.1-2.4,2.4v3.9H258.7z" id="el_M5pokeOBbrD"/>
<path d="M217.9,204.1v-3.9c-0.1-1.4-1.3-2.5-2.7-2.4c-1.3,0.1-2.3,1.1-2.4,2.4v3.9H217.9z" id="el_L9nfozlbv9O"/>
<path d="M212.8,180.9v3.9c0.1,1.4,1.3,2.5,2.7,2.4c1.3-0.1,2.3-1.1,2.4-2.4v-3.9H212.8z" id="el_w63pBv7EqdV"/>
</svg>