<svg id="Capa_1" data-name="Capa 1" xmlns="http://www.w3.org/2000/svg" viewBox="0 0 71.16 70.17"><defs><style>.cls-1,.cls-2{fill:none;stroke:#ffff;stroke-miterlimit:10;stroke-width:2px;}.cls-1{stroke-linecap:round;}</style></defs><title>crear-cliente</title><line class="cls-1" x1="53.77" y1="41.6" x2="53.77" y2="64.74"/><line class="cls-1" x1="42.18" y1="53.15" x2="65.31" y2="53.15"/><path class="cls-1" d="M33.87,62.26H10a3.4,3.4,0,0,1-2.25-.85A6,6,0,0,1,6,58.9,5.52,5.52,0,0,1,6,56.43a12.28,12.28,0,0,1,1.84-4.69c1.82-2.82,6-8.17,12.07-9.37a27.46,27.46,0,0,1,12.32.35,13,13,0,0,1,3.12,1.33l4.38,2.57"/><circle class="cls-2" cx="25.91" cy="32.12" r="9.49"/><path class="cls-1" d="M35.83,31.34a23.67,23.67,0,0,1,9.27-5.71A24.76,24.76,0,0,1,57.49,26c.28.08.55.17.83.27a26.82,26.82,0,0,1,3.82,1.93,16.28,16.28,0,0,1,2.78,2.4"/><circle class="cls-2" cx="51.14" cy="14.91" r="9.49"/></svg>
