<svg id="Capa_1" data-name="Capa 1" xmlns="http://www.w3.org/2000/svg" viewBox="0 0 71.16 70.17"><defs><style>.cls-1{fill:#5c559a;}.cls-2{fill:#debc1c;}</style></defs><title>documentos</title><path class="cls-1" d="M53.84,62.89H18.24a2.74,2.74,0,0,1-2.74-2.74V15.93a2.74,2.74,0,0,1,2.74-2.74h35.6a2.74,2.74,0,0,1,2.74,2.74V60.15A2.74,2.74,0,0,1,53.84,62.89ZM18.24,14.33a1.6,1.6,0,0,0-1.6,1.6V60.15a1.6,1.6,0,0,0,1.6,1.59h35.6a1.6,1.6,0,0,0,1.6-1.59V15.93a1.6,1.6,0,0,0-1.6-1.6Z"/><rect class="cls-1" x="34.01" y="26.55" width="4.42" height="1.15" rx="0.57"/><path class="cls-1" d="M53.71,7.73H45a2.44,2.44,0,0,1,1.05,1.15h7.62a6.67,6.67,0,0,1,6.67,6.67V36.38a.58.58,0,0,0,1.15,0V15.55A7.82,7.82,0,0,0,53.71,7.73Z"/><path class="cls-1" d="M61,43.5a.57.57,0,0,0-.58.57V60.61a6.67,6.67,0,0,1-6.67,6.67H17.45a6.68,6.68,0,0,1-6.68-6.67V15.55a6.68,6.68,0,0,1,6.68-6.67H26A2.44,2.44,0,0,1,27,7.73H17.45a7.82,7.82,0,0,0-7.82,7.82V60.61a7.82,7.82,0,0,0,7.82,7.82H53.71a7.82,7.82,0,0,0,7.82-7.82V44.07A.57.57,0,0,0,61,43.5Z"/><path class="cls-2" d="M43.88,6.29H41.74a5.72,5.72,0,0,0-5.61-4.55H36a5.73,5.73,0,0,0-5.61,4.55H28.2a3.57,3.57,0,0,0-3.57,3.57v4.47H47.45V9.86A3.57,3.57,0,0,0,43.88,6.29Zm2.42,6.9H25.78V9.86A2.42,2.42,0,0,1,28.2,7.44h3.14l.06-.51a4.58,4.58,0,0,1,4.55-4h.18a4.57,4.57,0,0,1,4.55,4.05l.06.51h3.14A2.42,2.42,0,0,1,46.3,9.86Z"/><path class="cls-2" d="M29,27.7h-8.2V19.53a.58.58,0,1,1,1.15,0v7H29a.58.58,0,0,1,0,1.15Z"/><path class="cls-2" d="M29,41.91h-8.2V33.75a.58.58,0,1,1,1.15,0v7H29a.57.57,0,1,1,0,1.14Z"/><path class="cls-2" d="M29,56.13h-8.2V48a.58.58,0,1,1,1.15,0v7H29a.57.57,0,1,1,0,1.14Z"/><path class="cls-2" d="M50.75,27.72H40.37a.57.57,0,0,1,0-1.14H50.75a.57.57,0,0,1,0,1.14Z"/><path class="cls-2" d="M50.73,56.13H34.61a.57.57,0,1,1,0-1.14H50.73a.57.57,0,1,1,0,1.14Z"/><path class="cls-2" d="M50.73,41.91H34.61a.57.57,0,1,1,0-1.14H50.73a.57.57,0,1,1,0,1.14Z"/><path class="cls-2" d="M26.6,23.78l-2.3-2.14a.58.58,0,0,1,0-.81.57.57,0,0,1,.81,0l1.53,1.42L30,19.09a.57.57,0,1,1,.77.84Z"/><path class="cls-2" d="M26.6,38.42l-2.3-2.13a.58.58,0,0,1,0-.81.56.56,0,0,1,.81,0l1.53,1.41L30,33.74a.57.57,0,0,1,.81,0,.58.58,0,0,1,0,.81Z"/><path class="cls-2" d="M26.6,52.61l-2.3-2.14a.57.57,0,1,1,.78-.84l1.53,1.42L30,47.92a.57.57,0,0,1,.81,0,.58.58,0,0,1,0,.81Z"/></svg>