<svg id="Capa_1" data-name="Capa 1" xmlns="http://www.w3.org/2000/svg" xmlns:xlink="http://www.w3.org/1999/xlink" viewBox="0 0 23.17 23.17"><defs><style>.cls-1{fill:none;}.cls-2{clip-path:url(#clip-path);}.cls-3{fill:#ffa502;}</style><clipPath id="clip-path"><rect class="cls-1" x="-1065.57" y="52.54" width="1010.95" height="626.13"/></clipPath></defs><title>dribbble</title><g id="_Grupo_" data-name="&lt;Grupo&gt;"><path d="M11.58,4a7.6,7.6,0,1,0,7.6,7.59A7.59,7.59,0,0,0,11.58,4Zm0,1.32a6.24,6.24,0,0,1,3.83,1.31A7.73,7.73,0,0,1,12.25,9,28.22,28.22,0,0,0,10,5.51,6.08,6.08,0,0,1,11.58,5.31ZM8.75,6A27,27,0,0,1,11,9.4a20.44,20.44,0,0,1-5.5.7A6.3,6.3,0,0,1,8.75,6ZM5.31,11.58c0-.05,0-.1,0-.16a20.87,20.87,0,0,0,6.29-.84c.15.3.29.61.43.91a9.81,9.81,0,0,0-5.28,4.1A6.27,6.27,0,0,1,5.31,11.58Zm6.27,6.28a6.26,6.26,0,0,1-3.85-1.33,8.55,8.55,0,0,1,4.81-3.82,25,25,0,0,1,1.3,4.72A6.31,6.31,0,0,1,11.58,17.86Zm3.49-1.06a26.48,26.48,0,0,0-1.22-4.37,12.8,12.8,0,0,1,3.92.13A6.28,6.28,0,0,1,15.07,16.8Zm-1.73-5.62c-.15-.35-.31-.71-.48-1.06a8.91,8.91,0,0,0,3.51-2.58,6.21,6.21,0,0,1,1.47,3.69A13.65,13.65,0,0,0,13.34,11.18Z"/></g><g class="cls-2"><g id="_Grupo_2" data-name="&lt;Grupo&gt;"><path id="_Trazado_" data-name="&lt;Trazado&gt;" class="cls-3" d="M17,10.8c0-1.05,1,.63.89-.3-1-.1,1.16-.92,0-1.18C17.56,9.59,16.16,11.22,17,10.8Z"/><path id="_Trazado_2" data-name="&lt;Trazado&gt;" class="cls-3" d="M17.61,12.29c-.16,0-.33.24,0,.29.6-.6.08-.79-.29-1.18C21.19,10,14.82,11.56,17.61,12.29Z"/><path id="_Trazado_3" data-name="&lt;Trazado&gt;" class="cls-3" d="M17.32,9.32c-.83-1.12,1.43.2,1.78-.6h-.89c.26-1-.46-.93-.89-1.19-.61.8-.29,1.13-.6,1.79C16.84,9.65,18.16,9.65,17.32,9.32Z"/><path id="_Trazado_4" data-name="&lt;Trazado&gt;" class="cls-3" d="M8.4,11.09c-1.1,0-2.05.14-2.08,1.2.18,0,.35,0,.29.29h.6C6.82,11.3,8.62,12.21,8.4,11.09Z"/><path id="_Trazado_5" data-name="&lt;Trazado&gt;" class="cls-3" d="M14.94,22.69c0-.31-.14-.75-.3-.29-.32,1,.44.89,1.49,1.78.06-.23,0-.59.29-.59,0,.16.24.33.3,0-.39-.73-.9.53-1.19-.31,0,.23,0-1.72-.3-1.18C15.17,22.33,15.22,22.68,14.94,22.69Z"/><path id="_Trazado_6" data-name="&lt;Trazado&gt;" class="cls-3" d="M17.91,14.67c-.12-1.59.24-.84,1.19-1.19-.46.72,1,.87.89.29C19.22,12.9,16.71,13.08,17.91,14.67Z"/></g></g></svg>