<svg id="completo" xmlns="http://www.w3.org/2000/svg" viewBox="0 0 93.04 76.06"><defs><style>.cls-1{fill:#228cb3;}.cls-2{fill:#fff;}.cls-3{fill:none;stroke:#228cb3;stroke-miterlimit:10;}</style></defs><title>excel</title><g id="excel"><g id="Capa_4" data-name="Capa 4"><path id="_1_1_11" data-name="1_1_11" class="cls-1" d="M50.64,3.45A2.59,2.59,0,0,0,48.57,3L8.34,10a2.38,2.38,0,0,0-2.06,2.3V63.79a2.4,2.4,0,0,0,2.06,2.3l40.23,7a2.42,2.42,0,0,0,.47,0,2.62,2.62,0,0,0,1.6-.54,2.29,2.29,0,0,0,.91-1.81V5.25A2.25,2.25,0,0,0,50.64,3.45Z"/><path id="_1_1_10" data-name="1_1_10" class="cls-2" d="M40.87,45.86,32.92,37.4l8-9.63a2.25,2.25,0,0,0-.44-3.29,2.64,2.64,0,0,0-3.53.41L29.54,33.8l-6.28-6.67a2.61,2.61,0,0,0-3.54-.22,2.23,2.23,0,0,0-.24,3.3l6.92,7.36-7,8.39a2.24,2.24,0,0,0,.43,3.29,2.69,2.69,0,0,0,1.55.49,2.6,2.6,0,0,0,2-.9l6.41-7.68,7.32,7.77a2.54,2.54,0,0,0,1.89.81,2.62,2.62,0,0,0,1.65-.58A2.23,2.23,0,0,0,40.87,45.86Z"/><path id="_1_1_9" data-name="1_1_9" class="cls-3" d="M84.24,12.28H51.55V63.79H84.24a2.44,2.44,0,0,0,2.52-2.34V14.62A2.43,2.43,0,0,0,84.24,12.28Z"/><path id="_1_1_8" data-name="1_1_8" class="cls-1" d="M59.1,26.32H49a2.35,2.35,0,1,1,0-4.68H59.1a2.35,2.35,0,1,1,0,4.68Z"/><path id="_1_1_7" data-name="1_1_7" class="cls-1" d="M59.1,35.69H49A2.35,2.35,0,1,1,49,31H59.1a2.35,2.35,0,1,1,0,4.68Z"/><path id="_1_1_6" data-name="1_1_6" class="cls-1" d="M59.1,45.06H49a2.35,2.35,0,1,1,0-4.69H59.1a2.35,2.35,0,1,1,0,4.69Z"/><path id="_1_1_5" data-name="1_1_5" class="cls-1" d="M59.1,54.42H49a2.35,2.35,0,1,1,0-4.68H59.1a2.35,2.35,0,1,1,0,4.68Z"/><path id="_1_1_4" data-name="1_1_4" class="cls-1" d="M74.18,26.32h-5a2.35,2.35,0,1,1,0-4.68h5a2.35,2.35,0,1,1,0,4.68Z"/><path id="_1_1_3" data-name="1_1_3" class="cls-1" d="M74.18,35.69h-5a2.35,2.35,0,1,1,0-4.68h5a2.35,2.35,0,1,1,0,4.68Z"/><path id="_1_1_2" data-name="1_1_2" class="cls-1" d="M74.18,45.06h-5a2.35,2.35,0,1,1,0-4.69h5a2.35,2.35,0,1,1,0,4.69Z"/><path id="_1_1_1" data-name="1_1_1" class="cls-1" d="M74.18,54.42h-5a2.35,2.35,0,1,1,0-4.68h5a2.35,2.35,0,1,1,0,4.68Z"/></g></g></svg>