<svg id="Capa_1" data-name="Capa 1" xmlns="http://www.w3.org/2000/svg" viewBox="0 0 361 498.01"><defs><style>.cls-1{fill:#fff;}.cls-2{fill:#ff9500;stroke:#ff9500;stroke-linecap:round;stroke-linejoin:round;stroke-width:0.25px;}</style></defs><title>fondo-responsive</title><rect class="cls-1" width="361" height="498.01"/><g id="_Grupo_" data-name="&lt;Grupo&gt;"><g id="_Grupo_2" data-name="&lt;Grupo&gt;"><g id="_Grupo_3" data-name="&lt;Grupo&gt;"><path id="_Trazado_" data-name="&lt;Trazado&gt;" class="cls-2" d="M102.75,501.17c5,3.24,11.38,3.12,16.81,1.29a37.68,37.68,0,0,0,8.33-4.15c2.69-1.73,5.17-3.77,7.83-5.55s5.71-3.23,9-3.13a8.31,8.31,0,0,1,7.21,12.11,10.67,10.67,0,0,1-6.61,5.41,14,14,0,0,1-4.51.54,12,12,0,0,1-4.58-.94,4,4,0,0,1-2.56-3.45c0-1.39,1.27-2.77,2.73-2.25a1.79,1.79,0,0,1,1.22,1.37c0,.16.31.13.29,0a2.17,2.17,0,0,0-2.34-1.87,2.73,2.73,0,0,0-2.31,2.4,4,4,0,0,0,1.7,3.59,9,9,0,0,0,4.28,1.5,13.78,13.78,0,0,0,9.29-1.84,10.34,10.34,0,0,0,4.64-7,8.65,8.65,0,0,0-2.64-7.55,9.29,9.29,0,0,0-8.38-2.14c-3.41.67-6.31,2.68-9,4.71a70.41,70.41,0,0,1-8.67,5.75c-5.88,3.15-13,4.78-19.38,2.11a16.43,16.43,0,0,1-2.17-1.11C102.74,500.87,102.62,501.08,102.75,501.17Z"/><path id="_Trazado_2" data-name="&lt;Trazado&gt;" class="cls-2" d="M154.53,486.05a14.24,14.24,0,0,0-12.06-3.68c-4.61.73-8,3.83-11.17,7a56.12,56.12,0,0,1-5.39,4.83,42.85,42.85,0,0,1-6.17,3.87c-4,2-8.84,4-13.39,3a9.85,9.85,0,0,1-2.9-1.16,1.22,1.22,0,0,0-.2.35c3.37,2.2,7.75,1.64,11.39.44a39.64,39.64,0,0,0,11.49-6.13,49.89,49.89,0,0,0,4.77-4.18,56,56,0,0,1,4.58-4.27,15.64,15.64,0,0,1,5.63-3,14.2,14.2,0,0,1,6.32-.23,13.46,13.46,0,0,1,9.45,7.11,13.12,13.12,0,0,1,.33,11.42,13.46,13.46,0,0,1-9.14,7.54,22.86,22.86,0,0,1-6.8.5,11.71,11.71,0,0,1-6.39-2,5.51,5.51,0,0,1-2.35-5.35,4.59,4.59,0,0,1,4.25-3.66c2.09-.09,4.45,1.36,4.51,3.63a2.39,2.39,0,0,1-1.59,2.31,1.92,1.92,0,0,1-2.34-1,6.7,6.7,0,0,1-.63-2.57c0-.18-.3-.18-.28,0,.12,1.52.49,3.76,2.36,4A2.53,2.53,0,0,0,141,504a2.84,2.84,0,0,0,.62-2.47,4.61,4.61,0,0,0-4.39-3.43,4.94,4.94,0,0,0-4.69,2.81,5.29,5.29,0,0,0,.72,5.57,9,9,0,0,0,5.67,3.14,23.13,23.13,0,0,0,7.19.15,15.4,15.4,0,0,0,6.47-2.24,13.93,13.93,0,0,0,6.18-10.17A14.08,14.08,0,0,0,154.53,486.05Z"/><path id="_Trazado_3" data-name="&lt;Trazado&gt;" class="cls-2" d="M104,499.51c6,1.19,12.16-.87,17.24-4.05a56.63,56.63,0,0,0,7.35-5.64c2.2-1.95,4.3-4,6.56-5.89a24.23,24.23,0,0,1,7.46-4.5,15,15,0,0,1,19.18,9.91,15.41,15.41,0,0,1,.16,8,14.13,14.13,0,0,1-1.48,3.65,6.26,6.26,0,0,1-2.58,2.69A3.5,3.5,0,0,1,156,504c-.29,0-.28.42,0,.45,2.63.27,4.33-2.06,5.34-4.17a15.45,15.45,0,0,0-7.18-20.48,15.87,15.87,0,0,0-7.7-1.52,16.84,16.84,0,0,0-7.85,2.64,44.8,44.8,0,0,0-6.9,5.54c-2.35,2.17-4.7,4.35-7.24,6.31-5.14,3.94-11.3,7-17.93,6.79a19.22,19.22,0,0,1-2.51-.25C103.88,499.28,103.82,499.49,104,499.51Z"/><path id="_Trazado_4" data-name="&lt;Trazado&gt;" class="cls-2" d="M160.05,502.16c1.41.93,3.56,0,4.68-1a8.19,8.19,0,0,0,2.3-5,17.64,17.64,0,0,0-2.1-10.83,17.19,17.19,0,0,0-4.08-4.94c-.2-.17-.49.12-.29.29a17.52,17.52,0,0,1,5.6,8.7,16.86,16.86,0,0,1,.62,5.19,10.29,10.29,0,0,1-1.4,5.29,5.2,5.2,0,0,1-2.37,2,4.33,4.33,0,0,1-1.37.31,7.77,7.77,0,0,1-1.52-.16A.09.09,0,0,0,160.05,502.16Z"/><path id="_Trazado_5" data-name="&lt;Trazado&gt;" class="cls-2" d="M156.8,477.6a18.14,18.14,0,0,0-10.94-2.09,25.87,25.87,0,0,0-10.62,3.68,46.23,46.23,0,0,0-8.91,7.36c-2.83,2.86-5.6,5.87-9,8.09-3.6,2.35-8,3.87-12.3,2.89-.25-.06-.36.33-.1.39a15.35,15.35,0,0,0,10.54-1.73,37.2,37.2,0,0,0,9.07-7.27,69.87,69.87,0,0,1,8.76-8,27.87,27.87,0,0,1,10.37-4.7,21.24,21.24,0,0,1,6.51-.32,19.83,19.83,0,0,1,6.47,1.93A.13.13,0,0,0,156.8,477.6Z"/><path id="_Trazado_6" data-name="&lt;Trazado&gt;" class="cls-2" d="M144.43,489.5a15,15,0,0,0,1.5.58,9.09,9.09,0,0,1,1.35.78,8.84,8.84,0,0,1,2.34,2.46,8,8,0,0,1,1.2,3.38,12.67,12.67,0,0,1-.29,3.68c0,.1.13.19.19.08,1.12-2.19.5-5.25-.76-7.26a9,9,0,0,0-2.34-2.49,8,8,0,0,0-1.6-.92,3.46,3.46,0,0,0-1.56-.41A.06.06,0,0,0,144.43,489.5Z"/><path id="_Trazado_7" data-name="&lt;Trazado&gt;" class="cls-2" d="M111.28,488.18c.38.25.8.43,1.17.69a5.64,5.64,0,0,1,1.07,1,4.34,4.34,0,0,1,1.06,2.76,6,6,0,0,1-.55,2.7,3.87,3.87,0,0,1-.75,1.08c-.33.32-.75.48-1.1.76-.16.14,0,.33.18.31.9-.12,1.69-1.17,2-1.92a6.35,6.35,0,0,0,.59-3,4.68,4.68,0,0,0-1-2.75,4.83,4.83,0,0,0-2.61-1.83A.11.11,0,0,0,111.28,488.18Z"/><path id="_Trazado_8" data-name="&lt;Trazado&gt;" class="cls-2" d="M111.37,488.18c1.39.55,2.95.61,4.32,1.19a2.93,2.93,0,0,1,1.72,3.39c0,.07.08.12.12.05a2.73,2.73,0,0,0-1.11-3.43,6.67,6.67,0,0,0-2.18-.77,21.34,21.34,0,0,0-2.84-.58C111.3,488,111.3,488.15,111.37,488.18Z"/><path id="_Trazado_9" data-name="&lt;Trazado&gt;" class="cls-2" d="M117.38,493.66s-.06.08-.08.13a2.09,2.09,0,0,0-.08.23.46.46,0,0,0,0,.38.08.08,0,0,0,.11,0,.47.47,0,0,0,.16-.32,1.46,1.46,0,0,0,.05-.2.36.36,0,0,0,0-.1s0-.07,0-.09S117.42,493.57,117.38,493.66Z"/><path id="_Trazado_10" data-name="&lt;Trazado&gt;" class="cls-2" d="M111.32,488.13c1.85.6,3.63-.45,5.44-.59a2.85,2.85,0,0,1,2.54.9,4.4,4.4,0,0,1,.58,2.72.08.08,0,0,0,.16,0c.45-1.8-.35-3.67-2.3-3.95a7.32,7.32,0,0,0-3,.4,8.34,8.34,0,0,1-3.37.32A.09.09,0,0,0,111.32,488.13Z"/><path id="_Trazado_11" data-name="&lt;Trazado&gt;" class="cls-2" d="M119.88,492.35c-.17.3-.38.57-.54.88s.17.33.26.16.26-.65.4-1A.07.07,0,0,0,119.88,492.35Z"/><path id="_Trazado_12" data-name="&lt;Trazado&gt;" class="cls-2" d="M141,503.9c1.78-2.17,2.46-5.79,0-7.74a5.35,5.35,0,0,0-3.75-1,6.92,6.92,0,0,0-4.14,1.81.09.09,0,0,0,.11.15c.63-.29,1.2-.7,1.84-1a7.14,7.14,0,0,1,2-.59,5,5,0,0,1,3.49.81,4.08,4.08,0,0,1,1.69,3.52,7.82,7.82,0,0,1-1.45,3.92C140.75,503.87,140.92,504,141,503.9Z"/><path id="_Trazado_13" data-name="&lt;Trazado&gt;" class="cls-2" d="M132.49,497.39a3.13,3.13,0,0,0-1,.6.06.06,0,0,0,.06.09,3,3,0,0,0,1.06-.55A.08.08,0,0,0,132.49,497.39Z"/><path id="_Trazado_14" data-name="&lt;Trazado&gt;" class="cls-2" d="M164.32,501.31a8.94,8.94,0,0,0,2.91-2,13.84,13.84,0,0,0,1.19-1.35,4.4,4.4,0,0,0,.93-1.53.09.09,0,0,0-.15-.09,8.89,8.89,0,0,0-.88,1.29A13.76,13.76,0,0,1,167.1,499a13.17,13.17,0,0,1-2.85,2.13C164.17,501.21,164.23,501.35,164.32,501.31Z"/><path id="_Trazado_15" data-name="&lt;Trazado&gt;" class="cls-2" d="M169.67,495.84a4.25,4.25,0,0,1,.33-.79c.1-.22.26-.43.34-.66a.07.07,0,0,0-.11-.08c-.22.1-.36.45-.45.65a3.56,3.56,0,0,0-.29.83A.09.09,0,0,0,169.67,495.84Z"/><path id="_Trazado_16" data-name="&lt;Trazado&gt;" class="cls-2" d="M141.2,503.59a12.51,12.51,0,0,0,1.53-2.17,8.75,8.75,0,0,0,1-2.38c.31-1.32.28-3.23-.79-4.24a.14.14,0,0,0-.21.17,5.21,5.21,0,0,1,.84,2.15,5.84,5.84,0,0,1-.19,2.12,9.28,9.28,0,0,1-1,2.18c-.42.7-1,1.34-1.36,2.05C141,503.57,141.13,503.67,141.2,503.59Z"/><path id="_Trazado_17" data-name="&lt;Trazado&gt;" class="cls-2" d="M161.78,481.5c1.65,1.56,3.67,2.58,5.42,4a9.22,9.22,0,0,1,2.1,2.39,6.8,6.8,0,0,1,.84,3.12.11.11,0,0,0,.21,0c.5-2.05-1.07-4.16-2.5-5.45-1.83-1.63-4.13-2.61-6-4.18C161.8,481.38,161.73,481.45,161.78,481.5Z"/><path id="_Trazado_18" data-name="&lt;Trazado&gt;" class="cls-2" d="M168.23,497.86c.1,2.89,3.91,3.85,6.18,4.2a16.7,16.7,0,0,0,9-.95,8.8,8.8,0,0,0,5.31-5.6,5.74,5.74,0,0,0-2.29-6.34c-1-.64-2.6-1.07-3.59-.17a1.37,1.37,0,0,0,.38,2.3c.21.06.28-.24.09-.32a1,1,0,0,1-.45-1.18,1.38,1.38,0,0,1,1.34-.86,3.91,3.91,0,0,1,2.83,1.29,5.54,5.54,0,0,1,.94,6.09c-2,4.65-8,5.92-12.51,5.49a14.24,14.24,0,0,1-4.37-1,3.78,3.78,0,0,1-2.54-2.91C168.5,497.68,168.22,497.68,168.23,497.86Z"/><path id="_Trazado_19" data-name="&lt;Trazado&gt;" class="cls-2" d="M182.7,490.57c.5-.62,1.43,0,1.52.62.12.92-.83,1.58-1.66,1.57-1.72,0-2.64-1.8-2.56-3.34a4.77,4.77,0,0,1,2-3.55,5,5,0,0,1,4-.72,6.63,6.63,0,0,1,4.88,6.55,10.51,10.51,0,0,1-3.93,7.87,14.54,14.54,0,0,1-4.58,2.67,17.61,17.61,0,0,1-5.14.89.19.19,0,0,0,0,.38,13.19,13.19,0,0,0,5.55-.95,15,15,0,0,0,4.72-2.88c2.65-2.4,4.41-6,3.65-9.58-.69-3.28-3.73-6-7.2-5.45-3.09.47-5.65,4.19-3.83,7.11.88,1.41,3.26,2.11,4.23.38a1.38,1.38,0,0,0-.35-1.85,1.07,1.07,0,0,0-1.54.13C182.42,490.53,182.61,490.67,182.7,490.57Z"/><path id="_Trazado_20" data-name="&lt;Trazado&gt;" class="cls-2" d="M185.56,485a8.43,8.43,0,0,1,4.34.78,8.05,8.05,0,0,1,3.28,3,10,10,0,0,1,.66,8.93c-2.3,5.9-8.93,9.39-15.1,8.67a15.27,15.27,0,0,1-4.94-1.49,19.76,19.76,0,0,1-4.26-3.06.13.13,0,0,0-.18.19,14.18,14.18,0,0,0,8.35,4.65,15.33,15.33,0,0,0,9.49-1.35,14.39,14.39,0,0,0,6.79-6.81,10.7,10.7,0,0,0,0-9.23c-1.49-2.94-5.06-5.27-8.44-4.45A.11.11,0,0,0,185.56,485Z"/><path id="_Trazado_21" data-name="&lt;Trazado&gt;" class="cls-2" d="M192.15,484.19a6.85,6.85,0,0,0-3.3-2.42c-.77-.35-4.57-2.09-2.72-3.2.79-.48,1.83.12,2.51.55a7.45,7.45,0,0,1,2.71,3.19,7.6,7.6,0,0,1,.36,1,4.09,4.09,0,0,0,.29,1,.1.1,0,0,0,.19,0,3.13,3.13,0,0,0-.33-1.69,7.92,7.92,0,0,0-.88-1.65,7.55,7.55,0,0,0-2.85-2.44,2.56,2.56,0,0,0-1.83-.31,1.28,1.28,0,0,0-.93,1c-.19,1.22,1.6,2.09,2.49,2.49,1.49.68,3.17,1.25,4.16,2.64C192.08,484.34,192.2,484.27,192.15,484.19Z"/><path id="_Trazado_22" data-name="&lt;Trazado&gt;" class="cls-2" d="M194.27,483.64a10.27,10.27,0,0,1-.72-1c-.17-.32-.53-1.13-.25-1.49,0-.14.12-.17.29-.08.14-.07.24-.06.28.05a.72.72,0,0,1,.11.3,4.69,4.69,0,0,1,.08.84,14.4,14.4,0,0,0,0,1.47.13.13,0,0,0,.25,0c.16-.46.21-3.73-1-3-.45.25-.39.94-.28,1.36a3.15,3.15,0,0,0,1.12,1.71C194.22,483.8,194.32,483.71,194.27,483.64Z"/><path id="_Trazado_23" data-name="&lt;Trazado&gt;" class="cls-2" d="M159.09,477.3a7.43,7.43,0,0,1-1.55-1.19c-.41-.51-1-1.54-.8-2.22a.45.45,0,0,1,.71-.25,1.2,1.2,0,0,1,.3.54c.13.37.24.75.37,1.12s.27.74.41,1.12a4.7,4.7,0,0,0,.4,1,.14.14,0,0,0,.25-.07,5.73,5.73,0,0,0-.53-1.69c-.22-.56-.39-1.15-.61-1.71s-.95-1.17-1.47-.46.06,1.86.48,2.47a3.22,3.22,0,0,0,2,1.47C159.13,477.46,159.14,477.34,159.09,477.3Z"/><path id="_Trazado_24" data-name="&lt;Trazado&gt;" class="cls-2" d="M161.37,478a2.53,2.53,0,0,1-.47-.76c-.1-.32.06-.92.5-.79s.32.54.21.81-.32.48-.43.74a.11.11,0,0,0,.15.15c.62-.29,1-1.85.08-2a.77.77,0,0,0-.8.67,1.59,1.59,0,0,0,.59,1.3C161.28,478.17,161.44,478.05,161.37,478Z"/><path id="_Trazado_25" data-name="&lt;Trazado&gt;" class="cls-2" d="M120,485.16c-.74-.43-3.7-2-2.58-3.15.74-.77,1.58.4,1.79,1s.36,1.5.61,2.23a.15.15,0,0,0,.29-.08c-.12-.61-.31-1.21-.48-1.8a3.53,3.53,0,0,0-.58-1.33,1.28,1.28,0,0,0-1.8-.31,1.36,1.36,0,0,0,.14,1.89,6.74,6.74,0,0,0,1.13.93,4.56,4.56,0,0,0,1.42.73A.08.08,0,0,0,120,485.16Z"/><path id="_Trazado_26" data-name="&lt;Trazado&gt;" class="cls-2" d="M117.1,485.61a1.68,1.68,0,0,1-1-.16c-.19-.13-.36-.5-.13-.68s.59.12.72.35.15.49.33.64a.1.1,0,0,0,.16,0,.73.73,0,0,0-.13-.49,1.89,1.89,0,0,0-.31-.53.64.64,0,1,0-1,.83c.34.39.85.31,1.3.26C117.21,485.77,117.21,485.6,117.1,485.61Z"/><path id="_Trazado_27" data-name="&lt;Trazado&gt;" class="cls-2" d="M150,480.24a12.45,12.45,0,0,1,4.44,1.74,14.11,14.11,0,0,1,3.46,3.26c.12.16.37,0,.27-.2a11.73,11.73,0,0,0-8.14-4.9C150,480.13,149.92,480.23,150,480.24Z"/><path id="_Trazado_28" data-name="&lt;Trazado&gt;" class="cls-2" d="M158.76,486.43a3.39,3.39,0,0,0,.2.53c0,.13.1.34.25.37a.1.1,0,0,0,.09,0c.08-.13,0-.28-.08-.41a3.74,3.74,0,0,0-.28-.52C158.89,486.27,158.73,486.32,158.76,486.43Z"/><path id="_Trazado_29" data-name="&lt;Trazado&gt;" class="cls-2" d="M147.28,484.32a14.76,14.76,0,0,1,3.22,1,10,10,0,0,1,4.58,4.73,11.13,11.13,0,0,1,.61,1.67c.14.54.16,1.12.33,1.64,0,.16.25.12.27,0a5.2,5.2,0,0,0-.27-1.69,10.35,10.35,0,0,0-.59-1.61,10.07,10.07,0,0,0-2-2.91,9.53,9.53,0,0,0-6.14-2.91A0,0,0,0,0,147.28,484.32Z"/><path id="_Trazado_30" data-name="&lt;Trazado&gt;" class="cls-2" d="M156.23,494.87a1.76,1.76,0,0,0,0,.33.66.66,0,0,0,.06.27.07.07,0,0,0,.12,0,.66.66,0,0,0,.06-.27c0-.12,0-.22,0-.33A.09.09,0,0,0,156.23,494.87Z"/><path id="_Trazado_31" data-name="&lt;Trazado&gt;" class="cls-2" d="M155.83,504c1.6.89,3-1.07,3.7-2.24a11.66,11.66,0,0,0,1.13-2.43,8.15,8.15,0,0,0,.55-2.79c0-.16-.25-.21-.28,0-.17.79-.25,1.57-.47,2.35a12.26,12.26,0,0,1-.89,2.19c-.66,1.25-1.95,3.49-3.68,2.82C155.81,503.85,155.75,504,155.83,504Z"/><path id="_Trazado_32" data-name="&lt;Trazado&gt;" class="cls-2" d="M160.21,502.13c1.23.94,2.81-.28,3.52-1.29a8.1,8.1,0,0,0,1.07-2.24,5.14,5.14,0,0,0,.31-2.54.11.11,0,0,0-.22,0c-.19.69-.15,1.43-.33,2.13a7.88,7.88,0,0,1-.83,2,4.23,4.23,0,0,1-1.34,1.54,2.55,2.55,0,0,1-2.15.28C160.19,502,160.17,502.1,160.21,502.13Z"/><path id="_Trazado_33" data-name="&lt;Trazado&gt;" class="cls-2" d="M121.53,498.47a3.3,3.3,0,0,0,2-.71c.74-.5,1.45-1.08,2.17-1.63l2.27-1.74a16.82,16.82,0,0,0,2.2-1.74.12.12,0,0,0-.14-.18,17.57,17.57,0,0,0-2.22,1.66l-2,1.57c-.66.52-1.32,1-2,1.55a4.8,4.8,0,0,1-2.27,1.06A.08.08,0,0,0,121.53,498.47Z"/><path id="_Trazado_34" data-name="&lt;Trazado&gt;" class="cls-2" d="M131.19,492a1.75,1.75,0,0,0,.37-.53.07.07,0,0,0-.1-.07,1.76,1.76,0,0,0-.41.45C131,492,131.11,492.14,131.19,492Z"/><path id="_Trazado_35" data-name="&lt;Trazado&gt;" class="cls-2" d="M123.89,490.58c1.44-1.1,2.77-2.39,4.1-3.63l2-1.87a17.77,17.77,0,0,0,1.93-1.95c.05-.06,0-.15-.1-.11a18.4,18.4,0,0,0-1.9,1.74l-2,1.94c-1.34,1.26-2.76,2.47-4,3.8C123.79,490.54,123.84,490.62,123.89,490.58Z"/><path id="_Trazado_36" data-name="&lt;Trazado&gt;" class="cls-2" d="M133,482.44a4.71,4.71,0,0,0,.62-.71s0-.1-.07-.07a4.27,4.27,0,0,0-.71.63A.11.11,0,1,0,133,482.44Z"/><path id="_Trazado_37" data-name="&lt;Trazado&gt;" class="cls-2" d="M112.35,488.84a2.92,2.92,0,0,1,.75,1.8,2.44,2.44,0,0,1-.84,2.13,5.84,5.84,0,0,1-1.77,1.16,3.84,3.84,0,0,1-.94.31,1.74,1.74,0,0,1-1-.21c-.08,0-.2,0-.16.12.28.71,1.29.55,1.85.35a6.13,6.13,0,0,0,2.34-1.46,2.72,2.72,0,0,0,.9-2.2,3,3,0,0,0-1-2.08S112.3,488.8,112.35,488.84Z"/><path id="_Trazado_38" data-name="&lt;Trazado&gt;" class="cls-2" d="M112.49,489.21a4.1,4.1,0,0,1,0,4.89,3.88,3.88,0,0,1-2,1.27,5.41,5.41,0,0,1-2.53-.09.11.11,0,0,0-.09.2c1.54,1,3.9.22,5-1.14a4.13,4.13,0,0,0-.2-5.24C112.56,489,112.43,489.12,112.49,489.21Z"/><path id="_Trazado_39" data-name="&lt;Trazado&gt;" class="cls-2" d="M110.35,496.87a3.19,3.19,0,0,0,1.65-.6c.42-.28,1-.69,1.14-1.2A.09.09,0,0,0,113,495a3.18,3.18,0,0,0-.53.51,4.12,4.12,0,0,1-.69.56,9.91,9.91,0,0,1-1.48.68C110.24,496.76,110.28,496.87,110.35,496.87Z"/><path id="_Trazado_40" data-name="&lt;Trazado&gt;" class="cls-2" d="M113.61,494.61a.83.83,0,0,0,0-.41s-.06-.05-.08,0a.84.84,0,0,0-.15.38A.09.09,0,0,0,113.61,494.61Z"/><path id="_Trazado_41" data-name="&lt;Trazado&gt;" class="cls-2" d="M186.56,485a7.42,7.42,0,0,1,3.84,2.11,6.55,6.55,0,0,1,1.22,1.94,18.79,18.79,0,0,1,.59,2.2c0,.08.17.1.18,0a5.76,5.76,0,0,0-1.69-4.33,6.43,6.43,0,0,0-4.11-2.11C186.48,484.78,186.46,485,186.56,485Z"/><path id="_Trazado_42" data-name="&lt;Trazado&gt;" class="cls-2" d="M192.37,492.53a14.59,14.59,0,0,1-.52,3.77,8.84,8.84,0,0,1-.79,1.71c-.34.55-.77,1-1.09,1.59a.09.09,0,0,0,.13.12,6.25,6.25,0,0,0,2.11-3.24,6.75,6.75,0,0,0,.3-4C192.49,492.43,192.38,492.45,192.37,492.53Z"/><path id="_Trazado_43" data-name="&lt;Trazado&gt;" class="cls-2" d="M155.78,477.18a12,12,0,0,0-3.53-3.25,16.9,16.9,0,0,0-4.65-2.14,12.81,12.81,0,0,0-5.33-.37,18.14,18.14,0,0,0-5.23,1.9c-2,1-4.17,1.72-6.46,1.2a.12.12,0,0,0-.06.24,6.83,6.83,0,0,0,5-.33c1.73-.67,3.32-1.68,5.1-2.24a13.51,13.51,0,0,1,10.57,1.53,21.46,21.46,0,0,1,4.45,3.54C155.73,477.31,155.83,477.24,155.78,477.18Z"/><path id="_Trazado_44" data-name="&lt;Trazado&gt;" class="cls-2" d="M155.78,477.12a30.76,30.76,0,0,0-4.62-2.42,15.31,15.31,0,0,0-4.85-1.22c-1.86-.15-3.73-.07-5.6-.19a24.88,24.88,0,0,1-7.88-1.88c-.88-.37-1.73-.82-2.61-1.17-.12-.05-.17.13-.08.19a15.19,15.19,0,0,0,4.52,2.11,24.57,24.57,0,0,0,4.88,1.07c3.61.42,7.28-.16,10.76,1.15,1.87.7,3.55,1.81,5.4,2.56C155.82,477.36,155.88,477.18,155.78,477.12Z"/><path id="_Trazado_45" data-name="&lt;Trazado&gt;" class="cls-2" d="M184.32,491.23a1.37,1.37,0,0,1-2.24.84,2.5,2.5,0,0,1-.86-1.19,7.36,7.36,0,0,0-.32-1c0-.07-.16-.06-.17,0a2.61,2.61,0,0,0,.44,1.7,2.39,2.39,0,0,0,1.21,1.05,1.46,1.46,0,0,0,2.06-1.38A.06.06,0,0,0,184.32,491.23Z"/><path id="_Trazado_46" data-name="&lt;Trazado&gt;" class="cls-2" d="M180.88,488.86a5.69,5.69,0,0,1,1.77-2.71,4.79,4.79,0,0,1,1.54-.87c.52-.18,1.06-.19,1.59-.33a.11.11,0,0,0,0-.21,4.61,4.61,0,0,0-3.22,1.11,4.9,4.9,0,0,0-1.78,3A.05.05,0,0,0,180.88,488.86Z"/><path id="_Trazado_47" data-name="&lt;Trazado&gt;" class="cls-2" d="M182.62,490.73a2.26,2.26,0,0,1,2.51-2.51,3.87,3.87,0,0,1,2,.69c.54.36.94.92,1.49,1.25a.09.09,0,0,0,.12-.13,4.25,4.25,0,0,0-1.78-1.6,3.81,3.81,0,0,0-2.36-.47,2.61,2.61,0,0,0-1.73,1,1.88,1.88,0,0,0-.32,1.79C182.54,490.81,182.62,490.78,182.62,490.73Z"/><path id="_Trazado_48" data-name="&lt;Trazado&gt;" class="cls-2" d="M189.06,490.88a4.37,4.37,0,0,0,.12.52,1.91,1.91,0,0,0,.12.47.08.08,0,0,0,.12,0,1.18,1.18,0,0,0-.25-1.06C189.12,490.75,189.05,490.82,189.06,490.88Z"/><path id="_Trazado_49" data-name="&lt;Trazado&gt;" class="cls-2" d="M174.77,501.81c-.62-.24-1.28-.32-1.89-.59a6.65,6.65,0,0,1-1.71-1.12,7.68,7.68,0,0,1-2-3.26.13.13,0,0,0-.26.07,6.46,6.46,0,0,0,2.11,3.45,7,7,0,0,0,1.73,1.11,4.29,4.29,0,0,0,2,.49A.08.08,0,0,0,174.77,501.81Z"/><path id="_Trazado_50" data-name="&lt;Trazado&gt;" class="cls-2" d="M142.19,489.76a14.75,14.75,0,0,1,1.63.35,7.11,7.11,0,0,1,1.59.78,7.4,7.4,0,0,1,1.35,1.15c.37.41.64.89,1,1.31.06.08.19,0,.16-.09a5.36,5.36,0,0,0-2.29-2.6,6,6,0,0,0-3.41-1.09C142.12,489.57,142.08,489.74,142.19,489.76Z"/><path id="_Trazado_51" data-name="&lt;Trazado&gt;" class="cls-2" d="M148.31,494.26a1.89,1.89,0,0,1,.21.51,4.21,4.21,0,0,0,.09.49.07.07,0,0,0,.12,0,1.14,1.14,0,0,0-.28-1.13C148.38,494.06,148.26,494.17,148.31,494.26Z"/><path id="_Trazado_52" data-name="&lt;Trazado&gt;" class="cls-2" d="M116.5,488.17a2.39,2.39,0,0,1,1.82.37c.05,0,.11,0,.08-.08a1.64,1.64,0,0,0-2-.45C116.33,488.05,116.41,488.2,116.5,488.17Z"/><path id="_Trazado_53" data-name="&lt;Trazado&gt;" class="cls-2" d="M115.59,490.06a2.71,2.71,0,0,1,.6.62c.15.23.23.48.38.7a.05.05,0,0,0,.1,0,2.08,2.08,0,0,0-1-1.44C115.62,489.86,115.51,490,115.59,490.06Z"/><path id="_Trazado_54" data-name="&lt;Trazado&gt;" class="cls-2" d="M142.18,494.18a2.83,2.83,0,0,0-1.18-.64,3.29,3.29,0,0,0-1.45-.25c-.07,0-.09.11,0,.13.44.13.89.2,1.33.34s.82.43,1.26.53C142.18,494.3,142.21,494.23,142.18,494.18Z"/><path id="_Trazado_55" data-name="&lt;Trazado&gt;" class="cls-2" d="M181.11,492.51a6.66,6.66,0,0,1-2.12-3.27,6,6,0,0,1-.19-2,15.18,15.18,0,0,1,.52-2.14.11.11,0,0,0-.2-.09,4.38,4.38,0,0,0-.61,2.07,6.38,6.38,0,0,0,.19,2.26,6,6,0,0,0,2.31,3.32C181.09,492.7,181.18,492.57,181.11,492.51Z"/><path id="_Trazado_56" data-name="&lt;Trazado&gt;" class="cls-2" d="M179.74,484.54a6,6,0,0,0,.48-.53c.11-.14.28-.28.25-.47,0,0,0-.05-.07-.05-.2,0-.32.23-.43.37a4.5,4.5,0,0,0-.41.54C179.48,484.51,179.65,484.63,179.74,484.54Z"/><path id="_Trazado_57" data-name="&lt;Trazado&gt;" class="cls-2" d="M170.23,497.85a4.22,4.22,0,0,0,1,1.72,8,8,0,0,0,1.57,1.39,8.34,8.34,0,0,0,1.89.94,6.56,6.56,0,0,0,1.08.27,1.76,1.76,0,0,0,.91,0c.09,0,.13-.17,0-.22a2.65,2.65,0,0,0-.84-.15,6.11,6.11,0,0,1-1-.23,7.78,7.78,0,0,1-3.46-2.25c-.43-.49-.72-1.07-1.13-1.57C170.3,497.72,170.22,497.79,170.23,497.85Z"/></g></g><g id="_Grupo_4" data-name="&lt;Grupo&gt;"><g id="_Grupo_5" data-name="&lt;Grupo&gt;"><path id="_Trazado_58" data-name="&lt;Trazado&gt;" class="cls-2" d="M13.41,501.15c4.94,3.24,11.38,3.13,16.81,1.29a37.57,37.57,0,0,0,8.32-4.14c2.7-1.73,5.17-3.78,7.84-5.55s5.7-3.24,9-3.14a8.32,8.32,0,0,1,7.21,12.11A10.66,10.66,0,0,1,56,507.13a14,14,0,0,1-4.51.55,12,12,0,0,1-4.58-.95,4,4,0,0,1-2.56-3.45c0-1.39,1.27-2.77,2.73-2.25a1.82,1.82,0,0,1,1.22,1.37.15.15,0,0,0,.29,0,2.18,2.18,0,0,0-2.34-1.87,2.73,2.73,0,0,0-2.31,2.41,4,4,0,0,0,1.69,3.58A8.86,8.86,0,0,0,49.88,508a13.82,13.82,0,0,0,9.28-1.84,10.44,10.44,0,0,0,4.65-7,8.67,8.67,0,0,0-2.64-7.55,9.32,9.32,0,0,0-8.38-2.15c-3.41.67-6.31,2.68-9,4.71A71.53,71.53,0,0,1,35.08,500c-5.88,3.15-13,4.78-19.39,2.1a15.72,15.72,0,0,1-2.16-1.11C13.4,500.86,13.28,501.06,13.41,501.15Z"/><path id="_Trazado_59" data-name="&lt;Trazado&gt;" class="cls-2" d="M47.1,500.84c.12,1.53.5,3.77,2.36,4a2.56,2.56,0,0,0,2.19-.9,2.79,2.79,0,0,0,.61-2.47,4.62,4.62,0,0,0-4.39-3.43,5,5,0,0,0-4.69,2.81,5.33,5.33,0,0,0,.72,5.57,9.07,9.07,0,0,0,5.68,3.15,23.43,23.43,0,0,0,7.19.15,15.68,15.68,0,0,0,6.47-2.24A13.71,13.71,0,0,0,65.18,486a14.16,14.16,0,0,0-12.06-3.68c-4.6.72-8,3.83-11.17,7a53.57,53.57,0,0,1-5.39,4.83A41.47,41.47,0,0,1,30.39,498c-4,2-8.83,4-13.38,3a9.49,9.49,0,0,1-3-1.23c-.22-.14-.41.2-.2.34,3.39,2.3,7.84,1.74,11.52.53a40.18,40.18,0,0,0,11.5-6.13,48.52,48.52,0,0,0,4.76-4.19c1.49-1.46,3-3,4.58-4.27a15.76,15.76,0,0,1,5.64-3,14.16,14.16,0,0,1,6.31-.23A13.47,13.47,0,0,1,67.54,490a13.13,13.13,0,0,1,.33,11.41,13.44,13.44,0,0,1-9.15,7.54,22.19,22.19,0,0,1-6.8.5,11.66,11.66,0,0,1-6.39-1.95,5.55,5.55,0,0,1-2.35-5.35,4.63,4.63,0,0,1,4.26-3.67c2.09-.08,4.45,1.36,4.5,3.64a2.39,2.39,0,0,1-1.59,2.31,1.91,1.91,0,0,1-2.33-1,6.53,6.53,0,0,1-.63-2.57C47.37,500.66,47.09,500.66,47.1,500.84Z"/><path id="_Trazado_60" data-name="&lt;Trazado&gt;" class="cls-2" d="M14.61,499.5c6,1.19,12.17-.88,17.25-4.06a56.43,56.43,0,0,0,7.35-5.64c2.2-1.94,4.29-4,6.55-5.89a24.16,24.16,0,0,1,7.47-4.5,15,15,0,0,1,19.18,9.91,15.55,15.55,0,0,1,.16,8A14.28,14.28,0,0,1,71.09,501a6.26,6.26,0,0,1-2.59,2.68,3.45,3.45,0,0,1-1.85.29c-.29,0-.29.42,0,.44,2.63.28,4.33-2.05,5.34-4.17a15.36,15.36,0,0,0,1.43-7.84,15.2,15.2,0,0,0-8.61-12.64,16.12,16.12,0,0,0-7.71-1.52,17,17,0,0,0-7.85,2.64,45.9,45.9,0,0,0-6.9,5.54c-2.35,2.18-4.69,4.36-7.24,6.31-5.14,3.95-11.29,7-17.93,6.79a19.21,19.21,0,0,1-2.51-.24C14.53,499.26,14.47,499.47,14.61,499.5Z"/><path id="_Trazado_61" data-name="&lt;Trazado&gt;" class="cls-2" d="M70.71,502.14c1.41.94,3.56,0,4.67-1a8.11,8.11,0,0,0,2.3-5,17.58,17.58,0,0,0-2.09-10.84,17.19,17.19,0,0,0-4.08-4.94c-.21-.17-.5.12-.29.29a17.53,17.53,0,0,1,5.59,8.71,16.83,16.83,0,0,1,.63,5.19,10.45,10.45,0,0,1-1.4,5.28,5.16,5.16,0,0,1-2.38,2,4.28,4.28,0,0,1-1.37.32,7.77,7.77,0,0,1-1.52-.16A.08.08,0,0,0,70.71,502.14Z"/><path id="_Trazado_62" data-name="&lt;Trazado&gt;" class="cls-2" d="M67.45,477.58a18.05,18.05,0,0,0-10.94-2.08,25.68,25.68,0,0,0-10.61,3.68A45.93,45.93,0,0,0,37,486.54c-2.83,2.86-5.6,5.87-9,8.08-3.6,2.35-8,3.87-12.29,2.9-.26-.06-.36.33-.11.39a15.49,15.49,0,0,0,10.55-1.73,37.2,37.2,0,0,0,9.07-7.27,67.71,67.71,0,0,1,8.76-8,27.67,27.67,0,0,1,10.36-4.7,21,21,0,0,1,6.52-.32,19.81,19.81,0,0,1,6.47,1.92A.13.13,0,0,0,67.45,477.58Z"/><path id="_Trazado_63" data-name="&lt;Trazado&gt;" class="cls-2" d="M55.08,489.48a16.09,16.09,0,0,0,1.5.59,8,8,0,0,1,1.36.78,8.77,8.77,0,0,1,2.33,2.45,8,8,0,0,1,1.2,3.38,13,13,0,0,1-.28,3.68c0,.11.13.19.19.08,1.12-2.19.5-5.25-.76-7.26a9,9,0,0,0-2.34-2.49,8.83,8.83,0,0,0-1.61-.92,3.55,3.55,0,0,0-1.55-.41C55.06,489.37,55,489.45,55.08,489.48Z"/><path id="_Trazado_64" data-name="&lt;Trazado&gt;" class="cls-2" d="M7.83,501.23a5.64,5.64,0,0,0,6.83-1.73,7.05,7.05,0,0,0,.31-7.72,8.62,8.62,0,0,0-7.1-4.25c-3.25,0-5.21,2.67-6.85,5.12a17.66,17.66,0,0,1-3.56,4.1,17.19,17.19,0,0,1-4.63,2.51.14.14,0,0,0,.07.27,13.22,13.22,0,0,0,6.66-4.17c1.91-2.15,3-5.14,5.61-6.65s5.94-.42,8,1.54a7,7,0,0,1,2,7.33A5.57,5.57,0,0,1,7.94,501C7.82,501,7.71,501.16,7.83,501.23Z"/><path id="_Trazado_65" data-name="&lt;Trazado&gt;" class="cls-2" d="M-5,496.73C1.14,494.57,2.08,486,8.51,484.41a5.33,5.33,0,0,1,4.35.64,8.39,8.39,0,0,1,2.42,3.39,12.46,12.46,0,0,0,2.09,3.39,4.53,4.53,0,0,0,3.84,1.43,3,3,0,0,0,2.68-2.5c.1-1.23-.56-2.71-1.9-2.86-.2,0-.22.27,0,.33a2.4,2.4,0,0,1,1.31,3.24,3.14,3.14,0,0,1-3.68,1.22c-2.79-.88-3.46-4-4.86-6.21A5.5,5.5,0,0,0,12,484.17a6.11,6.11,0,0,0-3.76-.07c-2.79.76-4.69,3-6.29,5.3-1.93,2.73-3.77,5.81-7,7.12C-5.16,496.57-5.11,496.78-5,496.73Z"/><path id="_Trazado_66" data-name="&lt;Trazado&gt;" class="cls-2" d="M21.93,488.16c.38.25.8.43,1.18.7a5.62,5.62,0,0,1,1.07,1,4.4,4.4,0,0,1,1.06,2.75,6.29,6.29,0,0,1-.55,2.71,3.8,3.8,0,0,1-.76,1.07c-.33.32-.74.48-1.09.77-.16.13,0,.33.18.31.89-.13,1.69-1.18,2.05-1.93a6.45,6.45,0,0,0,.59-3,4.66,4.66,0,0,0-1-2.74A4.78,4.78,0,0,0,22,488,.11.11,0,0,0,21.93,488.16Z"/><path id="_Trazado_67" data-name="&lt;Trazado&gt;" class="cls-2" d="M23.15,489a1.12,1.12,0,0,1-.21,1.29,2,2,0,0,1-1.44.49,4.44,4.44,0,0,1-2.29-.68c-1.64-1-1.94-2.79-2.53-4.48a7.47,7.47,0,0,0-7.55-4.79c-1.39.05-3.26.44-3.78,1.93a.1.1,0,0,0,.18.08c1-1.54,2.93-1.77,4.58-1.65a7.44,7.44,0,0,1,5,2.31,6.58,6.58,0,0,1,1.33,2.36,22.35,22.35,0,0,0,.86,2.5,4.78,4.78,0,0,0,3.48,2.67,2.82,2.82,0,0,0,2.2-.35,1.27,1.27,0,0,0,.33-1.77C23.23,488.87,23.09,488.94,23.15,489Z"/><path id="_Trazado_68" data-name="&lt;Trazado&gt;" class="cls-2" d="M22.75,488.69c.58.66-.4,1.17-1,1.21a2.49,2.49,0,0,1-1.43-.37,4.39,4.39,0,0,1-1.73-2.34c-.34-.92-.55-1.89-.91-2.8a8.21,8.21,0,0,0-1.18-2.05,11.89,11.89,0,0,0-3.82-3.08A9,9,0,0,0,7.42,478a10,10,0,0,0-5,2.83c-.07.07,0,.2.11.14,1.64-1.14,3.32-2.53,5.41-2.64a10.34,10.34,0,0,1,5.88,2,9.33,9.33,0,0,1,3.68,4.32c.67,1.71.88,3.87,2.49,5a2.65,2.65,0,0,0,2.47.43c.59-.24,1.12-1.06.43-1.53C22.77,488.5,22.69,488.62,22.75,488.69Z"/><path id="_Trazado_69" data-name="&lt;Trazado&gt;" class="cls-2" d="M22,488.16c1.39.55,2.94.61,4.32,1.2a2.92,2.92,0,0,1,1.71,3.38c0,.07.09.12.12.05a2.73,2.73,0,0,0-1.1-3.43,6.76,6.76,0,0,0-2.18-.77,21.49,21.49,0,0,0-2.85-.58C22,488,22,488.14,22,488.16Z"/><path id="_Trazado_70" data-name="&lt;Trazado&gt;" class="cls-2" d="M28,493.64a.67.67,0,0,0-.09.14c0,.07-.05.15-.08.22a.56.56,0,0,0,0,.38.08.08,0,0,0,.11,0,.48.48,0,0,0,.17-.31c0-.07,0-.14.05-.21s0-.06,0-.09,0-.07,0-.1S28.07,493.56,28,493.64Z"/><path id="_Trazado_71" data-name="&lt;Trazado&gt;" class="cls-2" d="M22,488.11c1.84.61,3.62-.44,5.44-.58a2.83,2.83,0,0,1,2.54.89,4.49,4.49,0,0,1,.58,2.72c0,.09.14.12.16,0,.45-1.79-.35-3.66-2.31-4a7.45,7.45,0,0,0-3,.4,8.21,8.21,0,0,1-3.37.33A.09.09,0,0,0,22,488.11Z"/><path id="_Trazado_72" data-name="&lt;Trazado&gt;" class="cls-2" d="M30.54,492.34c-.17.3-.39.57-.55.88s.17.32.26.15.26-.65.41-1A.07.07,0,0,0,30.54,492.34Z"/><path id="_Trazado_73" data-name="&lt;Trazado&gt;" class="cls-2" d="M51.66,503.89c1.79-2.17,2.47-5.8,0-7.75a5.31,5.31,0,0,0-3.74-1,7,7,0,0,0-4.15,1.8.1.1,0,0,0,.12.15c.63-.29,1.2-.69,1.83-1a7,7,0,0,1,2-.58,5.08,5.08,0,0,1,3.5.8,4.12,4.12,0,0,1,1.68,3.52,7.74,7.74,0,0,1-1.44,3.92C51.41,503.85,51.58,504,51.66,503.89Z"/><path id="_Trazado_74" data-name="&lt;Trazado&gt;" class="cls-2" d="M43.15,497.37a3.18,3.18,0,0,0-1,.6.06.06,0,0,0,.06.1,3.07,3.07,0,0,0,1.06-.55A.09.09,0,0,0,43.15,497.37Z"/><path id="_Trazado_75" data-name="&lt;Trazado&gt;" class="cls-2" d="M75,501.3a8.86,8.86,0,0,0,2.92-2,12.67,12.67,0,0,0,1.18-1.35,4.18,4.18,0,0,0,.93-1.53.08.08,0,0,0-.14-.08,8.85,8.85,0,0,0-.89,1.28A12,12,0,0,1,77.75,499a12.87,12.87,0,0,1-2.84,2.13C74.83,501.19,74.88,501.33,75,501.3Z"/><path id="_Trazado_76" data-name="&lt;Trazado&gt;" class="cls-2" d="M80.33,495.82a4.84,4.84,0,0,1,.32-.79,4.12,4.12,0,0,0,.34-.66c0-.06,0-.1-.1-.08-.23.1-.36.45-.46.66a4,4,0,0,0-.29.82A.1.1,0,0,0,80.33,495.82Z"/><path id="_Trazado_77" data-name="&lt;Trazado&gt;" class="cls-2" d="M51.86,503.57a12.29,12.29,0,0,0,1.53-2.17,8.62,8.62,0,0,0,1-2.38c.31-1.32.27-3.23-.79-4.23a.14.14,0,0,0-.22.16,5.28,5.28,0,0,1,.85,2.15,5.83,5.83,0,0,1-.2,2.12,8.72,8.72,0,0,1-1,2.18c-.41.7-1,1.34-1.35,2.06A.09.09,0,0,0,51.86,503.57Z"/><path id="_Trazado_78" data-name="&lt;Trazado&gt;" class="cls-2" d="M72.43,481.49c1.65,1.56,3.68,2.58,5.42,4a9.26,9.26,0,0,1,2.1,2.4,6.64,6.64,0,0,1,.84,3.11.11.11,0,0,0,.22,0c.49-2-1.07-4.16-2.51-5.44-1.82-1.64-4.13-2.61-6-4.19C72.46,481.36,72.38,481.44,72.43,481.49Z"/><path id="_Trazado_79" data-name="&lt;Trazado&gt;" class="cls-2" d="M78.88,497.85c.11,2.89,3.92,3.84,6.19,4.2a16.72,16.72,0,0,0,9-1,8.77,8.77,0,0,0,5.31-5.6,5.77,5.77,0,0,0-2.29-6.34c-1-.64-2.6-1.06-3.59-.16a1.36,1.36,0,0,0,.38,2.3.17.17,0,0,0,.09-.32,1,1,0,0,1-.45-1.19,1.36,1.36,0,0,1,1.34-.85,3.88,3.88,0,0,1,2.82,1.28,5.53,5.53,0,0,1,1,6.09c-2,4.65-8,5.92-12.52,5.49a14.3,14.3,0,0,1-4.37-1,3.77,3.77,0,0,1-2.53-2.91A.15.15,0,0,0,78.88,497.85Z"/><path id="_Trazado_80" data-name="&lt;Trazado&gt;" class="cls-2" d="M93.35,490.55c.51-.62,1.44,0,1.53.63.12.91-.83,1.58-1.66,1.56-1.72,0-2.65-1.8-2.57-3.34a4.77,4.77,0,0,1,2-3.55,4.94,4.94,0,0,1,4-.72,6.65,6.65,0,0,1,4.89,6.56,10.49,10.49,0,0,1-3.93,7.86,14.5,14.5,0,0,1-4.59,2.67,17.89,17.89,0,0,1-5.13.9.19.19,0,0,0,0,.37,13.14,13.14,0,0,0,5.54-.94,15,15,0,0,0,4.72-2.89c2.65-2.4,4.41-6,3.66-9.58-.69-3.28-3.74-6-7.21-5.45-3.09.47-5.65,4.2-3.83,7.11.89,1.41,3.27,2.12,4.24.38a1.39,1.39,0,0,0-.35-1.85,1.07,1.07,0,0,0-1.54.13C93.08,490.51,93.26,490.66,93.35,490.55Z"/><path id="_Trazado_81" data-name="&lt;Trazado&gt;" class="cls-2" d="M96.21,485a8.66,8.66,0,0,1,4.35.78,8.1,8.1,0,0,1,3.27,2.95,10.08,10.08,0,0,1,.67,8.93c-2.3,5.9-8.93,9.4-15.1,8.67a14.85,14.85,0,0,1-5-1.49,19.09,19.09,0,0,1-4.25-3.05A.13.13,0,0,0,80,502a14.15,14.15,0,0,0,8.36,4.65,15.33,15.33,0,0,0,9.49-1.34,14.47,14.47,0,0,0,6.78-6.82,10.67,10.67,0,0,0,0-9.23c-1.5-2.94-5.06-5.27-8.44-4.45C96.07,484.79,96.09,485,96.21,485Z"/><path id="_Trazado_82" data-name="&lt;Trazado&gt;" class="cls-2" d="M102.81,484.17a6.89,6.89,0,0,0-3.31-2.42c-.77-.35-4.57-2.09-2.72-3.2.8-.47,1.83.12,2.51.56a7.09,7.09,0,0,1,1.55,1.34A7.43,7.43,0,0,1,102,482.3a7,7,0,0,1,.35,1,3.82,3.82,0,0,0,.29,1,.1.1,0,0,0,.19,0,3,3,0,0,0-.33-1.7,7.71,7.71,0,0,0-3.72-4.09,2.64,2.64,0,0,0-1.84-.31,1.28,1.28,0,0,0-.92,1c-.2,1.22,1.6,2.09,2.48,2.49,1.49.68,3.18,1.25,4.17,2.65A.08.08,0,0,0,102.81,484.17Z"/><path id="_Trazado_83" data-name="&lt;Trazado&gt;" class="cls-2" d="M104.93,483.62a10.13,10.13,0,0,1-.72-1c-.17-.33-.54-1.14-.26-1.5,0-.14.12-.16.29-.08.15-.07.24-.05.29.06a.72.72,0,0,1,.1.29,4.81,4.81,0,0,1,.09.85,11.85,11.85,0,0,0,0,1.46c0,.14.21.11.25,0,.15-.46.21-3.72-1-3-.45.26-.39.94-.28,1.36a3.1,3.1,0,0,0,1.11,1.71C104.88,483.79,105,483.69,104.93,483.62Z"/><path id="_Trazado_84" data-name="&lt;Trazado&gt;" class="cls-2" d="M69.74,477.29a7.42,7.42,0,0,1-1.54-1.2c-.42-.51-1-1.53-.8-2.21a.44.44,0,0,1,.7-.26,1.18,1.18,0,0,1,.31.54c.13.37.24.75.37,1.12s.27.75.4,1.12a5.31,5.31,0,0,0,.41,1,.14.14,0,0,0,.25-.07,5.75,5.75,0,0,0-.54-1.69c-.21-.56-.38-1.14-.6-1.7s-1-1.17-1.48-.46.07,1.85.49,2.47a3.16,3.16,0,0,0,2,1.46C69.79,477.44,69.8,477.33,69.74,477.29Z"/><path id="_Trazado_85" data-name="&lt;Trazado&gt;" class="cls-2" d="M72,477.94a2.89,2.89,0,0,1-.47-.77c-.09-.32.07-.92.51-.79s.31.55.21.82-.33.47-.44.73,0,.21.16.16c.62-.29,1-1.85.07-2a.76.76,0,0,0-.79.67,1.61,1.61,0,0,0,.58,1.31C71.94,478.15,72.09,478,72,477.94Z"/><path id="_Trazado_86" data-name="&lt;Trazado&gt;" class="cls-2" d="M30.69,485.14c-.75-.43-3.7-2-2.58-3.15.74-.77,1.58.4,1.78,1s.37,1.5.61,2.23a.16.16,0,0,0,.3-.08c-.13-.61-.32-1.2-.48-1.8a3.72,3.72,0,0,0-.58-1.32,1.3,1.3,0,0,0-1.81-.32,1.38,1.38,0,0,0,.14,1.9,6,6,0,0,0,1.14.92,4.48,4.48,0,0,0,1.42.74A.08.08,0,0,0,30.69,485.14Z"/><path id="_Trazado_87" data-name="&lt;Trazado&gt;" class="cls-2" d="M27.75,485.59a1.73,1.73,0,0,1-1-.15c-.2-.14-.37-.5-.13-.68s.59.12.71.35.15.49.34.64a.09.09,0,0,0,.15,0,.81.81,0,0,0-.12-.5,2.17,2.17,0,0,0-.31-.53.64.64,0,1,0-.95.84c.33.38.84.3,1.29.25C27.86,485.76,27.87,485.58,27.75,485.59Z"/><path id="_Trazado_88" data-name="&lt;Trazado&gt;" class="cls-2" d="M12.31,477.8a1.84,1.84,0,0,0-.6-.7c-.29-.24-.77-.55-.67-1s.3-.39.66-.14c.05.1.1.2.14.3a3,3,0,0,1,.12.43,9.33,9.33,0,0,0,.18,1.18.1.1,0,0,0,.19,0c.18-.54-.18-2.7-1.13-2.33a.74.74,0,0,0-.36.94c.24.63,1,.84,1.31,1.41C12.21,478,12.36,477.9,12.31,477.8Z"/><path id="_Trazado_89" data-name="&lt;Trazado&gt;" class="cls-2" d="M60.65,480.23A12,12,0,0,1,65.08,482a13.76,13.76,0,0,1,3.46,3.26c.12.15.38-.05.27-.21a11.77,11.77,0,0,0-8.13-4.9C60.61,480.11,60.58,480.22,60.65,480.23Z"/><path id="_Trazado_90" data-name="&lt;Trazado&gt;" class="cls-2" d="M69.42,486.42a4.6,4.6,0,0,0,.19.52c.06.13.1.34.26.37a.08.08,0,0,0,.09,0c.08-.13,0-.29-.09-.41a5.28,5.28,0,0,0-.27-.53A.1.1,0,0,0,69.42,486.42Z"/><path id="_Trazado_91" data-name="&lt;Trazado&gt;" class="cls-2" d="M57.93,484.3a15,15,0,0,1,3.22,1,9.8,9.8,0,0,1,2.72,2,10.11,10.11,0,0,1,1.86,2.72,9.91,9.91,0,0,1,.61,1.68c.15.53.17,1.11.33,1.64a.14.14,0,0,0,.27,0,4.87,4.87,0,0,0-.27-1.69,11.13,11.13,0,0,0-.58-1.62,10.19,10.19,0,0,0-2-2.9,9.39,9.39,0,0,0-6.14-2.91A0,0,0,0,0,57.93,484.3Z"/><path id="_Trazado_92" data-name="&lt;Trazado&gt;" class="cls-2" d="M66.89,494.86c0,.11,0,.21,0,.32a.64.64,0,0,0,.07.27.07.07,0,0,0,.11,0,.64.64,0,0,0,.07-.27c0-.11,0-.21,0-.32A.09.09,0,1,0,66.89,494.86Z"/><path id="_Trazado_93" data-name="&lt;Trazado&gt;" class="cls-2" d="M66.48,504c1.61.9,3-1.07,3.71-2.24a12.5,12.5,0,0,0,1.13-2.43,8.13,8.13,0,0,0,.54-2.79c0-.15-.24-.2-.28,0-.17.79-.24,1.58-.47,2.36a11.47,11.47,0,0,1-.89,2.18c-.66,1.25-2,3.49-3.68,2.82C66.46,503.84,66.41,504,66.48,504Z"/><path id="_Trazado_94" data-name="&lt;Trazado&gt;" class="cls-2" d="M70.86,502.11c1.24.95,2.82-.28,3.52-1.29a8.07,8.07,0,0,0,1.08-2.23,5.15,5.15,0,0,0,.31-2.54.11.11,0,0,0-.22,0c-.19.69-.15,1.43-.33,2.13a8.41,8.41,0,0,1-.83,2,4.42,4.42,0,0,1-1.34,1.54,2.55,2.55,0,0,1-2.15.27A0,0,0,0,0,70.86,502.11Z"/><path id="_Trazado_95" data-name="&lt;Trazado&gt;" class="cls-2" d="M32.18,498.45a3.21,3.21,0,0,0,2-.7c.75-.51,1.45-1.09,2.17-1.63l2.28-1.75a17.52,17.52,0,0,0,2.2-1.74.11.11,0,0,0-.14-.17,16.8,16.8,0,0,0-2.22,1.65l-2,1.58-2,1.55a4.74,4.74,0,0,1-2.27,1.05C32.08,498.31,32.08,498.45,32.18,498.45Z"/><path id="_Trazado_96" data-name="&lt;Trazado&gt;" class="cls-2" d="M41.85,492a1.52,1.52,0,0,0,.36-.52.06.06,0,0,0-.09-.07,1.64,1.64,0,0,0-.42.45C41.62,492,41.77,492.12,41.85,492Z"/><path id="_Trazado_97" data-name="&lt;Trazado&gt;" class="cls-2" d="M34.55,490.57c1.43-1.11,2.76-2.4,4.1-3.63.66-.62,1.33-1.24,2-1.87a17.86,17.86,0,0,0,1.94-1.95c0-.07,0-.16-.11-.11a18.2,18.2,0,0,0-1.89,1.73l-2,1.94c-1.34,1.26-2.76,2.48-4,3.81C34.44,490.53,34.5,490.61,34.55,490.57Z"/><path id="_Trazado_98" data-name="&lt;Trazado&gt;" class="cls-2" d="M43.64,482.43a5.25,5.25,0,0,0,.63-.71.06.06,0,0,0-.08-.08,5.25,5.25,0,0,0-.71.63C43.38,482.37,43.54,482.53,43.64,482.43Z"/><path id="_Trazado_99" data-name="&lt;Trazado&gt;" class="cls-2" d="M23,488.83a2.93,2.93,0,0,1,.76,1.79,2.42,2.42,0,0,1-.85,2.13,5.73,5.73,0,0,1-1.76,1.16,3.46,3.46,0,0,1-.94.31,1.67,1.67,0,0,1-1.05-.21c-.08,0-.21,0-.17.13.29.7,1.3.54,1.86.34A5.87,5.87,0,0,0,23.18,493a2.69,2.69,0,0,0,.91-2.19,3,3,0,0,0-1-2.08C23,488.71,23,488.79,23,488.83Z"/><path id="_Trazado_100" data-name="&lt;Trazado&gt;" class="cls-2" d="M23.15,489.19a4.11,4.11,0,0,1,0,4.89,3.8,3.8,0,0,1-2,1.27,5.2,5.2,0,0,1-2.54-.09.11.11,0,0,0-.08.21c1.54,1,3.9.22,5-1.15a4.13,4.13,0,0,0-.2-5.24C23.21,489,23.09,489.11,23.15,489.19Z"/><path id="_Trazado_101" data-name="&lt;Trazado&gt;" class="cls-2" d="M21,496.85a3.13,3.13,0,0,0,1.66-.6c.41-.27,1-.69,1.13-1.19a.09.09,0,0,0-.12-.1,3.2,3.2,0,0,0-.53.51,4.12,4.12,0,0,1-.69.56,9.39,9.39,0,0,1-1.48.68C20.9,496.74,20.94,496.85,21,496.85Z"/><path id="_Trazado_102" data-name="&lt;Trazado&gt;" class="cls-2" d="M24.26,494.59a.82.82,0,0,0,0-.41s0,0-.07,0a.78.78,0,0,0-.15.38A.09.09,0,0,0,24.26,494.59Z"/><path id="_Trazado_103" data-name="&lt;Trazado&gt;" class="cls-2" d="M97.22,485a7.58,7.58,0,0,1,3.83,2.11,6.63,6.63,0,0,1,1.23,1.95,18.59,18.59,0,0,1,.58,2.19.1.1,0,0,0,.19,0,5.78,5.78,0,0,0-1.7-4.33,6.38,6.38,0,0,0-4.11-2.11C97.13,484.76,97.11,484.93,97.22,485Z"/><path id="_Trazado_104" data-name="&lt;Trazado&gt;" class="cls-2" d="M103,492.51a14.91,14.91,0,0,1-.52,3.77,8.88,8.88,0,0,1-.8,1.71c-.33.55-.77,1-1.08,1.59a.09.09,0,0,0,.12.13,6.29,6.29,0,0,0,2.12-3.25,6.74,6.74,0,0,0,.3-4A.07.07,0,0,0,103,492.51Z"/><path id="_Trazado_105" data-name="&lt;Trazado&gt;" class="cls-2" d="M66.44,477.16a12.36,12.36,0,0,0-3.54-3.25,17.23,17.23,0,0,0-4.65-2.14,13,13,0,0,0-5.33-.37,18.49,18.49,0,0,0-5.22,1.9c-2.05,1-4.18,1.73-6.46,1.2a.13.13,0,0,0-.07.24,6.79,6.79,0,0,0,5-.33c1.74-.67,3.33-1.67,5.11-2.23a13.47,13.47,0,0,1,10.57,1.53,21.35,21.35,0,0,1,4.45,3.53A.06.06,0,0,0,66.44,477.16Z"/><path id="_Trazado_106" data-name="&lt;Trazado&gt;" class="cls-2" d="M66.44,477.1a31.82,31.82,0,0,0-4.63-2.42A15,15,0,0,0,57,473.47c-1.87-.16-3.74-.07-5.6-.2a24,24,0,0,1-5.06-.88,27.87,27.87,0,0,1-2.83-1c-.88-.37-1.72-.83-2.61-1.18-.12-.05-.17.13-.08.2a15.56,15.56,0,0,0,4.52,2.11,25.54,25.54,0,0,0,4.89,1.06c3.61.42,7.28-.15,10.75,1.15,1.88.71,3.56,1.81,5.41,2.56C66.47,477.35,66.53,477.17,66.44,477.1Z"/><path id="_Trazado_107" data-name="&lt;Trazado&gt;" class="cls-2" d="M95,491.22a1.38,1.38,0,0,1-2.25.83,2.43,2.43,0,0,1-.85-1.19,7.4,7.4,0,0,0-.33-1,.09.09,0,0,0-.17,0,2.64,2.64,0,0,0,.44,1.7,2.41,2.41,0,0,0,1.22,1,1.45,1.45,0,0,0,2.06-1.37A.06.06,0,0,0,95,491.22Z"/><path id="_Trazado_108" data-name="&lt;Trazado&gt;" class="cls-2" d="M91.53,488.84a5.79,5.79,0,0,1,1.77-2.71,5.38,5.38,0,0,1,1.55-.87c.52-.18,1.06-.19,1.58-.32.1,0,.11-.19,0-.21a4.56,4.56,0,0,0-3.21,1.11,4.89,4.89,0,0,0-1.79,3A.05.05,0,0,0,91.53,488.84Z"/><path id="_Trazado_109" data-name="&lt;Trazado&gt;" class="cls-2" d="M93.28,490.71a2.25,2.25,0,0,1,2.51-2.51,3.91,3.91,0,0,1,2,.7c.54.36.94.91,1.48,1.24a.09.09,0,0,0,.13-.12,4.3,4.3,0,0,0-1.78-1.6,3.76,3.76,0,0,0-2.36-.48,2.6,2.6,0,0,0-1.73,1,1.86,1.86,0,0,0-.33,1.78C93.2,490.79,93.27,490.76,93.28,490.71Z"/><path id="_Trazado_110" data-name="&lt;Trazado&gt;" class="cls-2" d="M99.71,490.87c0,.17.09.34.13.51a1.26,1.26,0,0,0,.12.47.06.06,0,0,0,.11,0,1.16,1.16,0,0,0-.24-1.05C99.78,490.74,99.7,490.81,99.71,490.87Z"/><path id="_Trazado_111" data-name="&lt;Trazado&gt;" class="cls-2" d="M85.42,501.79c-.61-.24-1.27-.32-1.88-.59a6.5,6.5,0,0,1-1.72-1.11,7.76,7.76,0,0,1-2-3.27.13.13,0,0,0-.26.07,6.4,6.4,0,0,0,2.11,3.46,6.9,6.9,0,0,0,1.72,1.1,4.22,4.22,0,0,0,2,.5A.08.08,0,0,0,85.42,501.79Z"/><path id="_Trazado_112" data-name="&lt;Trazado&gt;" class="cls-2" d="M52.85,489.75a13.15,13.15,0,0,1,1.63.35A7.11,7.11,0,0,1,57.41,492c.38.41.65.9,1,1.32.06.07.18,0,.16-.09a5.41,5.41,0,0,0-2.3-2.61,6,6,0,0,0-3.4-1.09C52.77,489.56,52.73,489.72,52.85,489.75Z"/><path id="_Trazado_113" data-name="&lt;Trazado&gt;" class="cls-2" d="M59,494.25a1.83,1.83,0,0,1,.21.5,4,4,0,0,0,.1.5s.09.06.11,0a1.14,1.14,0,0,0-.27-1.13C59,494.05,58.91,494.15,59,494.25Z"/><path id="_Trazado_114" data-name="&lt;Trazado&gt;" class="cls-2" d="M19.41,489c-.14-.45-.37-.86-.5-1.31a9.51,9.51,0,0,1-.28-1.41c-.13-.91-.16-1.84-.33-2.75a7.15,7.15,0,0,0-.71-2.15,2.85,2.85,0,0,0-1.46-1.48.09.09,0,0,0-.09.15c.23.29.55.49.79.77a4.68,4.68,0,0,1,.63,1,8.9,8.9,0,0,1,.63,2.31c.13.86.21,1.74.36,2.6a4.74,4.74,0,0,0,.88,2.3S19.43,489.07,19.41,489Z"/><path id="_Trazado_115" data-name="&lt;Trazado&gt;" class="cls-2" d="M15.37,479.33a2.85,2.85,0,0,0-.43-.49,2,2,0,0,0-.5-.4.06.06,0,0,0-.08.08,2,2,0,0,0,.4.5,2.85,2.85,0,0,0,.49.43A.09.09,0,0,0,15.37,479.33Z"/><path id="_Trazado_116" data-name="&lt;Trazado&gt;" class="cls-2" d="M27.16,488.16a2.35,2.35,0,0,1,1.82.36c.05,0,.11,0,.08-.07a1.63,1.63,0,0,0-2-.46C27,488,27.06,488.18,27.16,488.16Z"/><path id="_Trazado_117" data-name="&lt;Trazado&gt;" class="cls-2" d="M26.25,490a2.71,2.71,0,0,1,.59.63c.15.22.24.48.39.7a0,0,0,0,0,.09,0,2.07,2.07,0,0,0-1-1.44C26.28,489.85,26.17,490,26.25,490Z"/><path id="_Trazado_118" data-name="&lt;Trazado&gt;" class="cls-2" d="M8.53,485.64c1.16-.28,2.33-.71,3.43,0a3.86,3.86,0,0,1,1.1,1.14c.31.48.51,1,.85,1.48a.09.09,0,0,0,.17-.08,4.79,4.79,0,0,0-2.1-2.86,3.87,3.87,0,0,0-3.5.18C8.41,485.55,8.46,485.66,8.53,485.64Z"/><path id="_Trazado_119" data-name="&lt;Trazado&gt;" class="cls-2" d="M14.76,489.5a3.48,3.48,0,0,0,.22.43c.07.12.14.28.27.34a.06.06,0,0,0,.09,0,.75.75,0,0,0-.19-.39,2.63,2.63,0,0,0-.28-.4S14.74,489.44,14.76,489.5Z"/><path id="_Trazado_120" data-name="&lt;Trazado&gt;" class="cls-2" d="M11,482.12a5.76,5.76,0,0,1,3.1,1.45c.28.25.5.57.78.81.05,0,.15,0,.12-.07a3.85,3.85,0,0,0-1.66-1.61A5.27,5.27,0,0,0,11,482C10.9,482,10.9,482.11,11,482.12Z"/><path id="_Trazado_121" data-name="&lt;Trazado&gt;" class="cls-2" d="M7.87,501.15a5,5,0,0,0,4.77-1.3,5.2,5.2,0,0,0,1.27-2.19,3.61,3.61,0,0,0,0-2.47c-.05-.09-.18,0-.19.05,0,.38,0,.77,0,1.15a4.73,4.73,0,0,1-.2,1.24,4.84,4.84,0,0,1-1.2,2,5.18,5.18,0,0,1-4.44,1.29C7.77,500.92,7.76,501.11,7.87,501.15Z"/><path id="_Trazado_122" data-name="&lt;Trazado&gt;" class="cls-2" d="M13.68,493.85a1.28,1.28,0,0,0-.1-.43.82.82,0,0,0-.19-.37.07.07,0,0,0-.11,0,.94.94,0,0,0,.08.43,1.44,1.44,0,0,0,.18.4C13.59,494,13.67,493.91,13.68,493.85Z"/><path id="_Trazado_123" data-name="&lt;Trazado&gt;" class="cls-2" d="M52.83,494.17a2.69,2.69,0,0,0-1.17-.64,3.34,3.34,0,0,0-1.46-.25.06.06,0,0,0,0,.12c.43.14.89.2,1.32.35s.83.42,1.26.52A.06.06,0,0,0,52.83,494.17Z"/><path id="_Trazado_124" data-name="&lt;Trazado&gt;" class="cls-2" d="M91.77,492.49a6.59,6.59,0,0,1-2.13-3.27,6,6,0,0,1-.19-2,15.53,15.53,0,0,1,.52-2.14.11.11,0,0,0-.2-.08,4.33,4.33,0,0,0-.6,2.06,6.08,6.08,0,0,0,2.49,5.59C91.74,492.68,91.84,492.56,91.77,492.49Z"/><path id="_Trazado_125" data-name="&lt;Trazado&gt;" class="cls-2" d="M90.4,484.52a5.93,5.93,0,0,0,.47-.53c.11-.13.29-.27.26-.46a.1.1,0,0,0-.08-.06c-.19,0-.31.24-.43.37s-.29.35-.41.54S90.3,484.61,90.4,484.52Z"/><path id="_Trazado_126" data-name="&lt;Trazado&gt;" class="cls-2" d="M80.89,497.83a4.11,4.11,0,0,0,1,1.72,7.47,7.47,0,0,0,1.57,1.4,8.23,8.23,0,0,0,1.88.93,6.94,6.94,0,0,0,1.09.27,1.63,1.63,0,0,0,.9,0,.12.12,0,0,0,0-.22,2.9,2.9,0,0,0-.84-.15,7.7,7.7,0,0,1-1-.22,8,8,0,0,1-3.46-2.25c-.44-.49-.73-1.07-1.13-1.58C81,497.7,80.87,497.77,80.89,497.83Z"/></g></g></g><g id="_Grupo_6" data-name="&lt;Grupo&gt;"><g id="_Grupo_7" data-name="&lt;Grupo&gt;"><path id="_Trazado_127" data-name="&lt;Trazado&gt;" class="cls-2" d="M276,501.17c4.95,3.24,11.38,3.12,16.82,1.29a37.82,37.82,0,0,0,8.32-4.15c2.7-1.73,5.17-3.77,7.83-5.55s5.71-3.23,9-3.13a8.37,8.37,0,0,1,7,4.16,8.28,8.28,0,0,1,.19,7.95,10.67,10.67,0,0,1-6.61,5.41,14,14,0,0,1-4.51.54,11.94,11.94,0,0,1-4.57-.94,4,4,0,0,1-2.57-3.45c0-1.39,1.27-2.77,2.73-2.25a1.8,1.8,0,0,1,1.23,1.37c0,.16.3.13.28,0a2.17,2.17,0,0,0-2.34-1.87,2.72,2.72,0,0,0-2.3,2.4,3.94,3.94,0,0,0,1.69,3.59,9,9,0,0,0,4.29,1.5,13.76,13.76,0,0,0,9.28-1.84,10.39,10.39,0,0,0,4.65-7,8.69,8.69,0,0,0-2.65-7.55,9.28,9.28,0,0,0-8.38-2.14c-3.4.67-6.3,2.68-9,4.71a71.06,71.06,0,0,1-8.66,5.75c-5.89,3.15-13,4.78-19.39,2.11a15.72,15.72,0,0,1-2.16-1.11C276,500.87,275.86,501.08,276,501.17Z"/><path id="_Trazado_128" data-name="&lt;Trazado&gt;" class="cls-2" d="M327.77,486.05a14.24,14.24,0,0,0-12.06-3.68c-4.6.73-8,3.83-11.17,7a56.12,56.12,0,0,1-5.39,4.83,42.85,42.85,0,0,1-6.17,3.87c-4,2-8.84,4-13.38,3a9.8,9.8,0,0,1-2.91-1.16,1.22,1.22,0,0,0-.2.35c3.37,2.2,7.75,1.64,11.39.44a39.51,39.51,0,0,0,11.49-6.13,49.89,49.89,0,0,0,4.77-4.18,57.71,57.71,0,0,1,4.58-4.27,15.64,15.64,0,0,1,5.63-3,14.2,14.2,0,0,1,6.32-.23,13.47,13.47,0,0,1,9.46,7.11,13.19,13.19,0,0,1,.33,11.42,13.5,13.5,0,0,1-9.15,7.54,22.86,22.86,0,0,1-6.8.5,11.73,11.73,0,0,1-6.39-2,5.51,5.51,0,0,1-2.35-5.35,4.61,4.61,0,0,1,4.26-3.66c2.08-.09,4.45,1.36,4.5,3.63a2.38,2.38,0,0,1-1.59,2.31,1.92,1.92,0,0,1-2.33-1,6.71,6.71,0,0,1-.64-2.57c0-.18-.3-.18-.28,0,.12,1.52.5,3.76,2.36,4a2.56,2.56,0,0,0,2.19-.89,2.86,2.86,0,0,0,.61-2.47,4.6,4.6,0,0,0-4.39-3.43,5,5,0,0,0-4.69,2.81,5.33,5.33,0,0,0,.72,5.57,9,9,0,0,0,5.67,3.14,23.18,23.18,0,0,0,7.2.15,15.4,15.4,0,0,0,6.46-2.24,13.7,13.7,0,0,0,1.95-21.47Z"/><path id="_Trazado_129" data-name="&lt;Trazado&gt;" class="cls-2" d="M277.2,499.51c6,1.19,12.16-.87,17.24-4.05a56.63,56.63,0,0,0,7.35-5.64c2.2-1.95,4.3-4,6.56-5.89a24.23,24.23,0,0,1,7.46-4.5A15,15,0,0,1,335,489.34a15.41,15.41,0,0,1,.16,8,14.47,14.47,0,0,1-1.47,3.65,6.29,6.29,0,0,1-2.59,2.69,3.5,3.5,0,0,1-1.86.28c-.28,0-.28.42,0,.45,2.64.27,4.33-2.06,5.35-4.17a15.48,15.48,0,0,0,1.43-7.85,15.22,15.22,0,0,0-8.61-12.63,15.91,15.91,0,0,0-7.71-1.52,16.84,16.84,0,0,0-7.85,2.64,44.8,44.8,0,0,0-6.9,5.54c-2.35,2.17-4.7,4.35-7.24,6.31-5.14,3.94-11.3,7-17.93,6.79a19.22,19.22,0,0,1-2.51-.25C277.12,499.28,277.06,499.49,277.2,499.51Z"/><path id="_Trazado_130" data-name="&lt;Trazado&gt;" class="cls-2" d="M333.29,502.16c1.41.93,3.56,0,4.68-1a8.08,8.08,0,0,0,2.3-5,17.63,17.63,0,0,0-2.09-10.83,17.23,17.23,0,0,0-4.09-4.94c-.2-.17-.49.12-.29.29a17.52,17.52,0,0,1,5.6,8.7,17.18,17.18,0,0,1,.63,5.19,10.4,10.4,0,0,1-1.41,5.29,5.2,5.2,0,0,1-2.37,2,4.33,4.33,0,0,1-1.37.31,7.77,7.77,0,0,1-1.52-.16A.09.09,0,0,0,333.29,502.16Z"/><path id="_Trazado_131" data-name="&lt;Trazado&gt;" class="cls-2" d="M330,477.6a18.14,18.14,0,0,0-10.94-2.09,25.77,25.77,0,0,0-10.61,3.68,46,46,0,0,0-8.92,7.36c-2.83,2.86-5.6,5.87-9,8.09-3.6,2.35-8,3.87-12.29,2.89-.26-.06-.37.33-.11.39a15.38,15.38,0,0,0,10.55-1.73,37.58,37.58,0,0,0,9.07-7.27,69.09,69.09,0,0,1,8.75-8,28,28,0,0,1,10.37-4.7,21.31,21.31,0,0,1,6.52-.32,19.9,19.9,0,0,1,6.47,1.93A.13.13,0,0,0,330,477.6Z"/><path id="_Trazado_132" data-name="&lt;Trazado&gt;" class="cls-2" d="M317.67,489.5a15,15,0,0,0,1.5.58,8.61,8.61,0,0,1,1.35.78,8.84,8.84,0,0,1,2.34,2.46,8,8,0,0,1,1.2,3.38,13,13,0,0,1-.28,3.68c0,.1.13.19.18.08,1.13-2.19.5-5.25-.76-7.26a9,9,0,0,0-2.34-2.49,7.72,7.72,0,0,0-1.6-.92,3.46,3.46,0,0,0-1.56-.41A.06.06,0,0,0,317.67,489.5Z"/><path id="_Trazado_133" data-name="&lt;Trazado&gt;" class="cls-2" d="M284.52,488.18c.38.25.8.43,1.17.69a6,6,0,0,1,1.08,1,4.38,4.38,0,0,1,1.05,2.76,6.13,6.13,0,0,1-.54,2.7,3.91,3.91,0,0,1-.76,1.08c-.33.32-.75.48-1.09.76-.16.14,0,.33.18.31.89-.12,1.68-1.17,2.05-1.92a6.6,6.6,0,0,0,.59-3,4.69,4.69,0,0,0-1-2.75A4.83,4.83,0,0,0,284.6,488,.11.11,0,0,0,284.52,488.18Z"/><path id="_Trazado_134" data-name="&lt;Trazado&gt;" class="cls-2" d="M284.62,488.18c1.39.55,2.94.61,4.32,1.19a2.93,2.93,0,0,1,1.71,3.39c0,.07.08.12.12.05a2.72,2.72,0,0,0-1.1-3.43,6.76,6.76,0,0,0-2.18-.77,21.49,21.49,0,0,0-2.85-.58C284.54,488,284.54,488.15,284.62,488.18Z"/><path id="_Trazado_135" data-name="&lt;Trazado&gt;" class="cls-2" d="M290.62,493.66s-.06.08-.08.13a2.09,2.09,0,0,0-.08.23.5.5,0,0,0,0,.38.08.08,0,0,0,.11,0,.48.48,0,0,0,.17-.32c0-.07,0-.13,0-.2a.36.36,0,0,0,0-.1s0-.07,0-.09S290.66,493.57,290.62,493.66Z"/><path id="_Trazado_136" data-name="&lt;Trazado&gt;" class="cls-2" d="M284.57,488.13c1.84.6,3.62-.45,5.43-.59a2.85,2.85,0,0,1,2.54.9,4.34,4.34,0,0,1,.58,2.72.09.09,0,0,0,.17,0c.45-1.8-.36-3.67-2.31-3.95a7.25,7.25,0,0,0-3,.4,8.41,8.41,0,0,1-3.38.32A.09.09,0,0,0,284.57,488.13Z"/><path id="_Trazado_137" data-name="&lt;Trazado&gt;" class="cls-2" d="M293.13,492.35c-.18.3-.39.57-.55.88s.17.33.26.16.26-.65.41-1C293.28,492.34,293.17,492.27,293.13,492.35Z"/><path id="_Trazado_138" data-name="&lt;Trazado&gt;" class="cls-2" d="M314.25,503.9c1.78-2.17,2.47-5.79,0-7.74a5.33,5.33,0,0,0-3.74-1,7,7,0,0,0-4.15,1.81c-.08.08,0,.19.12.15.63-.29,1.2-.7,1.83-1a7.34,7.34,0,0,1,2-.59,5,5,0,0,1,3.49.81,4.08,4.08,0,0,1,1.69,3.52,7.82,7.82,0,0,1-1.45,3.92C314,503.87,314.16,504,314.25,503.9Z"/><path id="_Trazado_139" data-name="&lt;Trazado&gt;" class="cls-2" d="M305.73,497.39a3.13,3.13,0,0,0-1,.6.06.06,0,0,0,.06.09,3,3,0,0,0,1.06-.55A.08.08,0,0,0,305.73,497.39Z"/><path id="_Trazado_140" data-name="&lt;Trazado&gt;" class="cls-2" d="M337.56,501.31a8.83,8.83,0,0,0,2.91-2,12.63,12.63,0,0,0,1.19-1.35,4.4,4.4,0,0,0,.93-1.53.09.09,0,0,0-.15-.09,9.76,9.76,0,0,0-.88,1.29,13.76,13.76,0,0,1-1.22,1.43,13.11,13.11,0,0,1-2.84,2.13C337.42,501.21,337.47,501.35,337.56,501.31Z"/><path id="_Trazado_141" data-name="&lt;Trazado&gt;" class="cls-2" d="M342.91,495.84a5,5,0,0,1,.33-.79c.1-.22.26-.43.34-.66,0-.07-.05-.11-.11-.08-.22.1-.35.45-.45.65a4.09,4.09,0,0,0-.29.83A.09.09,0,0,0,342.91,495.84Z"/><path id="_Trazado_142" data-name="&lt;Trazado&gt;" class="cls-2" d="M314.45,503.59a13.69,13.69,0,0,0,1.53-2.17,9.07,9.07,0,0,0,1-2.38c.31-1.32.27-3.23-.8-4.24a.14.14,0,0,0-.21.17,5.07,5.07,0,0,1,.84,2.15,5.63,5.63,0,0,1-.19,2.12,9.28,9.28,0,0,1-1,2.18c-.42.7-.95,1.34-1.35,2.05A.1.1,0,0,0,314.45,503.59Z"/><path id="_Trazado_143" data-name="&lt;Trazado&gt;" class="cls-2" d="M335,481.5c1.65,1.56,3.67,2.58,5.42,4a9.22,9.22,0,0,1,2.1,2.39,6.8,6.8,0,0,1,.84,3.12.11.11,0,0,0,.21,0c.5-2.05-1.07-4.16-2.5-5.45-1.82-1.63-4.13-2.61-6-4.18C335.05,481.38,335,481.45,335,481.5Z"/><path id="_Trazado_144" data-name="&lt;Trazado&gt;" class="cls-2" d="M341.47,497.86c.11,2.89,3.92,3.85,6.19,4.2a16.68,16.68,0,0,0,8.95-.95,8.77,8.77,0,0,0,5.31-5.6,5.75,5.75,0,0,0-2.28-6.34c-1-.64-2.61-1.07-3.59-.17a1.36,1.36,0,0,0,.38,2.3c.21.06.27-.24.08-.32a1,1,0,0,1-.44-1.18,1.37,1.37,0,0,1,1.34-.86,3.89,3.89,0,0,1,2.82,1.29,5.53,5.53,0,0,1,.95,6.09c-2,4.65-8,5.92-12.52,5.49a14.31,14.31,0,0,1-4.37-1,3.75,3.75,0,0,1-2.53-2.91C341.74,497.68,341.46,497.68,341.47,497.86Z"/><path id="_Trazado_145" data-name="&lt;Trazado&gt;" class="cls-2" d="M355.94,490.57c.51-.62,1.44,0,1.52.62.12.92-.83,1.58-1.66,1.57-1.71,0-2.64-1.8-2.56-3.34a4.77,4.77,0,0,1,2-3.55,5,5,0,0,1,4-.72,6.62,6.62,0,0,1,4.88,6.55,10.45,10.45,0,0,1-3.93,7.87,14.54,14.54,0,0,1-4.58,2.67,17.55,17.55,0,0,1-5.14.89.19.19,0,0,0,0,.38,13.19,13.19,0,0,0,5.55-.95,14.87,14.87,0,0,0,4.72-2.88c2.65-2.4,4.41-6,3.65-9.58-.68-3.28-3.73-6-7.2-5.45-3.09.47-5.65,4.19-3.83,7.11.88,1.41,3.26,2.11,4.24.38a1.39,1.39,0,0,0-.36-1.85,1.06,1.06,0,0,0-1.53.13C355.66,490.53,355.85,490.67,355.94,490.57Z"/><path id="_Trazado_146" data-name="&lt;Trazado&gt;" class="cls-2" d="M358.8,485a8.47,8.47,0,0,1,4.35.78,8,8,0,0,1,3.27,3,10,10,0,0,1,.66,8.93c-2.29,5.9-8.92,9.39-15.09,8.67a15.33,15.33,0,0,1-4.95-1.49,19.76,19.76,0,0,1-4.26-3.06c-.12-.11-.28.06-.18.19a14.18,14.18,0,0,0,8.35,4.65,15.31,15.31,0,0,0,9.49-1.35,14.39,14.39,0,0,0,6.79-6.81,10.74,10.74,0,0,0,0-9.23c-1.5-2.94-5.07-5.27-8.45-4.45A.11.11,0,0,0,358.8,485Z"/><path id="_Trazado_147" data-name="&lt;Trazado&gt;" class="cls-2" d="M365.4,484.19a6.92,6.92,0,0,0-3.31-2.42c-.77-.35-4.57-2.09-2.72-3.2.79-.48,1.83.12,2.51.55a7.13,7.13,0,0,1,1.55,1.35,7.66,7.66,0,0,1,1.17,1.84,7.55,7.55,0,0,1,.35,1,4.09,4.09,0,0,0,.29,1,.1.1,0,0,0,.19,0,3,3,0,0,0-.33-1.69,7.92,7.92,0,0,0-.88-1.65,7.55,7.55,0,0,0-2.85-2.44,2.56,2.56,0,0,0-1.83-.31,1.28,1.28,0,0,0-.93,1c-.19,1.22,1.61,2.09,2.49,2.49,1.49.68,3.18,1.25,4.16,2.64C365.32,484.34,365.45,484.27,365.4,484.19Z"/><path id="_Trazado_148" data-name="&lt;Trazado&gt;" class="cls-2" d="M332.33,477.3a7.43,7.43,0,0,1-1.55-1.19c-.41-.51-1-1.54-.8-2.22a.45.45,0,0,1,.71-.25,1.32,1.32,0,0,1,.31.54c.13.37.23.75.37,1.12s.27.74.4,1.12a5.27,5.27,0,0,0,.4,1c.07.1.26.07.25-.07a5.73,5.73,0,0,0-.53-1.69c-.21-.56-.38-1.15-.61-1.71s-.95-1.17-1.47-.46.06,1.86.48,2.47a3.22,3.22,0,0,0,2,1.47C332.37,477.46,332.38,477.34,332.33,477.3Z"/><path id="_Trazado_149" data-name="&lt;Trazado&gt;" class="cls-2" d="M334.61,478a2.75,2.75,0,0,1-.47-.76c-.09-.32.06-.92.51-.79s.31.54.2.81-.32.48-.43.74a.11.11,0,0,0,.15.15c.62-.29,1-1.85.08-2a.77.77,0,0,0-.8.67,1.59,1.59,0,0,0,.59,1.3C334.52,478.17,334.68,478.05,334.61,478Z"/><path id="_Trazado_150" data-name="&lt;Trazado&gt;" class="cls-2" d="M293.27,485.16c-.74-.43-3.7-2-2.57-3.15.74-.77,1.57.4,1.78,1s.37,1.5.61,2.23a.15.15,0,0,0,.29-.08c-.12-.61-.31-1.21-.48-1.8a3.53,3.53,0,0,0-.58-1.33,1.28,1.28,0,0,0-1.8-.31,1.37,1.37,0,0,0,.14,1.89,6.74,6.74,0,0,0,1.13.93,4.67,4.67,0,0,0,1.42.73A.08.08,0,0,0,293.27,485.16Z"/><path id="_Trazado_151" data-name="&lt;Trazado&gt;" class="cls-2" d="M290.34,485.61a1.65,1.65,0,0,1-1-.16c-.2-.13-.37-.5-.14-.68s.59.12.72.35.15.49.33.64a.1.1,0,0,0,.16,0,.78.78,0,0,0-.12-.49,2.2,2.2,0,0,0-.32-.53.63.63,0,1,0-.94.83c.33.39.84.31,1.29.26C290.45,485.77,290.46,485.6,290.34,485.61Z"/><path id="_Trazado_152" data-name="&lt;Trazado&gt;" class="cls-2" d="M323.24,480.24a12.47,12.47,0,0,1,4.43,1.74,14.11,14.11,0,0,1,3.46,3.26c.12.16.37,0,.27-.2a11.73,11.73,0,0,0-8.14-4.9C323.2,480.13,323.17,480.23,323.24,480.24Z"/><path id="_Trazado_153" data-name="&lt;Trazado&gt;" class="cls-2" d="M332,486.43a4.76,4.76,0,0,0,.19.53c.05.13.1.34.26.37a.09.09,0,0,0,.08,0c.09-.13,0-.28-.08-.41a5.12,5.12,0,0,0-.27-.52C332.13,486.27,332,486.32,332,486.43Z"/><path id="_Trazado_154" data-name="&lt;Trazado&gt;" class="cls-2" d="M320.52,484.32a14.42,14.42,0,0,1,3.22,1,10,10,0,0,1,4.58,4.73,11.13,11.13,0,0,1,.61,1.67c.14.54.17,1.12.33,1.64.05.16.25.12.27,0a5.2,5.2,0,0,0-.27-1.69,10.35,10.35,0,0,0-.59-1.61,10.07,10.07,0,0,0-2-2.91,9.49,9.49,0,0,0-6.14-2.91S320.48,484.31,320.52,484.32Z"/><path id="_Trazado_155" data-name="&lt;Trazado&gt;" class="cls-2" d="M329.47,494.87c0,.11,0,.21,0,.33a.68.68,0,0,0,.07.27.07.07,0,0,0,.11,0,.66.66,0,0,0,.06-.27,1.76,1.76,0,0,0,0-.33A.09.09,0,0,0,329.47,494.87Z"/><path id="_Trazado_156" data-name="&lt;Trazado&gt;" class="cls-2" d="M329.07,504c1.61.89,3-1.07,3.7-2.24a12.23,12.23,0,0,0,1.14-2.43,8.38,8.38,0,0,0,.54-2.79c0-.16-.25-.21-.28,0-.17.79-.24,1.57-.47,2.35a11.56,11.56,0,0,1-.89,2.19c-.66,1.25-1.95,3.49-3.68,2.82C329.05,503.85,329,504,329.07,504Z"/><path id="_Trazado_157" data-name="&lt;Trazado&gt;" class="cls-2" d="M333.45,502.13c1.24.94,2.81-.28,3.52-1.29A8.1,8.1,0,0,0,338,498.6a5,5,0,0,0,.31-2.54.11.11,0,0,0-.22,0c-.18.69-.15,1.43-.33,2.13a8.22,8.22,0,0,1-.82,2,4.26,4.26,0,0,1-1.35,1.54,2.55,2.55,0,0,1-2.15.28C333.43,502,333.41,502.1,333.45,502.13Z"/><path id="_Trazado_158" data-name="&lt;Trazado&gt;" class="cls-2" d="M294.77,498.47a3.28,3.28,0,0,0,2-.71c.75-.5,1.45-1.08,2.17-1.63l2.27-1.74a16.18,16.18,0,0,0,2.2-1.74.11.11,0,0,0-.13-.18,16.24,16.24,0,0,0-2.22,1.66l-2,1.57-2,1.55a4.76,4.76,0,0,1-2.27,1.06A.08.08,0,0,0,294.77,498.47Z"/><path id="_Trazado_159" data-name="&lt;Trazado&gt;" class="cls-2" d="M304.44,492a1.91,1.91,0,0,0,.36-.53.06.06,0,0,0-.09-.07,1.63,1.63,0,0,0-.42.45C304.2,492,304.35,492.14,304.44,492Z"/><path id="_Trazado_160" data-name="&lt;Trazado&gt;" class="cls-2" d="M297.13,490.58c1.44-1.1,2.77-2.39,4.1-3.63l2-1.87a17,17,0,0,0,1.94-1.95c0-.06-.05-.15-.11-.11a19.49,19.49,0,0,0-1.9,1.74l-2,1.94c-1.35,1.26-2.76,2.47-4,3.8C297,490.54,297.08,490.62,297.13,490.58Z"/><path id="_Trazado_161" data-name="&lt;Trazado&gt;" class="cls-2" d="M306.23,482.44a3.81,3.81,0,0,0,.62-.71.05.05,0,0,0-.07-.07,4.27,4.27,0,0,0-.71.63C306,482.39,306.13,482.55,306.23,482.44Z"/><path id="_Trazado_162" data-name="&lt;Trazado&gt;" class="cls-2" d="M285.59,488.84a3,3,0,0,1,.76,1.8,2.45,2.45,0,0,1-.85,2.13,5.92,5.92,0,0,1-1.76,1.16,4,4,0,0,1-.94.31,1.78,1.78,0,0,1-1.06-.21c-.07,0-.2,0-.16.12.28.71,1.29.55,1.85.35a6.13,6.13,0,0,0,2.34-1.46,2.69,2.69,0,0,0,.9-2.2,3,3,0,0,0-1-2.08A.05.05,0,0,0,285.59,488.84Z"/><path id="_Trazado_163" data-name="&lt;Trazado&gt;" class="cls-2" d="M285.73,489.21a4.11,4.11,0,0,1,0,4.89,4,4,0,0,1-2,1.27,5.41,5.41,0,0,1-2.53-.09.11.11,0,0,0-.09.2c1.54,1,3.9.22,5-1.14a4.13,4.13,0,0,0-.2-5.24A.09.09,0,0,0,285.73,489.21Z"/><path id="_Trazado_164" data-name="&lt;Trazado&gt;" class="cls-2" d="M283.59,496.87a3.19,3.19,0,0,0,1.65-.6c.42-.28,1-.69,1.14-1.2a.08.08,0,0,0-.12-.09,2.56,2.56,0,0,0-.53.51,4.2,4.2,0,0,1-.7.56,9.47,9.47,0,0,1-1.48.68C283.48,496.76,283.52,496.87,283.59,496.87Z"/><path id="_Trazado_165" data-name="&lt;Trazado&gt;" class="cls-2" d="M286.85,494.61a.83.83,0,0,0,0-.41s0-.05-.07,0a.67.67,0,0,0-.15.38A.09.09,0,0,0,286.85,494.61Z"/><path id="_Trazado_166" data-name="&lt;Trazado&gt;" class="cls-2" d="M359.8,485a7.42,7.42,0,0,1,3.84,2.11,6.79,6.79,0,0,1,1.23,1.94,20.94,20.94,0,0,1,.58,2.2c0,.08.17.1.19,0a5.81,5.81,0,0,0-1.7-4.33,6.41,6.41,0,0,0-4.11-2.11C359.72,484.78,359.7,485,359.8,485Z"/><path id="_Trazado_167" data-name="&lt;Trazado&gt;" class="cls-2" d="M329,477.18a12.2,12.2,0,0,0-3.54-3.25,16.77,16.77,0,0,0-4.65-2.14,12.8,12.8,0,0,0-5.33-.37,18.14,18.14,0,0,0-5.23,1.9c-2,1-4.17,1.72-6.45,1.2a.13.13,0,1,0-.07.24,6.83,6.83,0,0,0,5-.33c1.73-.67,3.33-1.68,5.11-2.24a13.51,13.51,0,0,1,10.57,1.53,21.67,21.67,0,0,1,4.44,3.54C329,477.31,329.07,477.24,329,477.18Z"/><path id="_Trazado_168" data-name="&lt;Trazado&gt;" class="cls-2" d="M329,477.12a30.76,30.76,0,0,0-4.62-2.42,15.32,15.32,0,0,0-4.84-1.22c-1.87-.15-3.74-.07-5.61-.19a24.88,24.88,0,0,1-7.88-1.88c-.88-.37-1.72-.82-2.61-1.17-.12-.05-.17.13-.08.19a15.31,15.31,0,0,0,4.52,2.11,24.57,24.57,0,0,0,4.88,1.07c3.61.42,7.28-.16,10.76,1.15,1.87.7,3.55,1.81,5.4,2.56C329.06,477.36,329.12,477.18,329,477.12Z"/><path id="_Trazado_169" data-name="&lt;Trazado&gt;" class="cls-2" d="M357.57,491.23a1.38,1.38,0,0,1-2.25.84,2.57,2.57,0,0,1-.86-1.19,6.25,6.25,0,0,0-.32-1,.09.09,0,0,0-.17,0,2.61,2.61,0,0,0,.44,1.7,2.43,2.43,0,0,0,1.21,1.05,1.46,1.46,0,0,0,2.06-1.38C357.67,491.16,357.57,491.16,357.57,491.23Z"/><path id="_Trazado_170" data-name="&lt;Trazado&gt;" class="cls-2" d="M354.12,488.86a5.69,5.69,0,0,1,1.77-2.71,4.9,4.9,0,0,1,1.54-.87c.53-.18,1.06-.19,1.59-.33a.11.11,0,0,0,0-.21,4.59,4.59,0,0,0-3.21,1.11,4.87,4.87,0,0,0-1.79,3A.05.05,0,0,0,354.12,488.86Z"/><path id="_Trazado_171" data-name="&lt;Trazado&gt;" class="cls-2" d="M355.86,490.73a2.53,2.53,0,0,1,.55-1.76,2.49,2.49,0,0,1,2-.75,3.86,3.86,0,0,1,2,.69c.54.36.94.92,1.49,1.25A.09.09,0,0,0,362,490a4.25,4.25,0,0,0-1.78-1.6,3.81,3.81,0,0,0-2.36-.47,2.56,2.56,0,0,0-1.72,1,1.86,1.86,0,0,0-.33,1.79A.05.05,0,0,0,355.86,490.73Z"/><path id="_Trazado_172" data-name="&lt;Trazado&gt;" class="cls-2" d="M348,501.81c-.61-.24-1.27-.32-1.88-.59a6.53,6.53,0,0,1-1.72-1.12,7.66,7.66,0,0,1-2-3.26.14.14,0,0,0-.27.07,6.41,6.41,0,0,0,2.12,3.45,6.76,6.76,0,0,0,1.72,1.11,4.29,4.29,0,0,0,2,.49A.08.08,0,0,0,348,501.81Z"/><path id="_Trazado_173" data-name="&lt;Trazado&gt;" class="cls-2" d="M315.44,489.76a14.58,14.58,0,0,1,1.62.35A7.12,7.12,0,0,1,320,492c.37.41.64.89,1,1.31a.09.09,0,0,0,.16-.09,5.36,5.36,0,0,0-2.29-2.6,6,6,0,0,0-3.41-1.09C315.36,489.57,315.32,489.74,315.44,489.76Z"/><path id="_Trazado_174" data-name="&lt;Trazado&gt;" class="cls-2" d="M321.55,494.26a1.89,1.89,0,0,1,.21.51,4.26,4.26,0,0,0,.1.49.06.06,0,0,0,.11,0,1.13,1.13,0,0,0-.27-1.13C321.63,494.06,321.5,494.17,321.55,494.26Z"/><path id="_Trazado_175" data-name="&lt;Trazado&gt;" class="cls-2" d="M289.74,488.17a2.43,2.43,0,0,1,1.83.37.06.06,0,0,0,.07-.08,1.64,1.64,0,0,0-2-.45C289.58,488.05,289.65,488.2,289.74,488.17Z"/><path id="_Trazado_176" data-name="&lt;Trazado&gt;" class="cls-2" d="M288.84,490.06a2.89,2.89,0,0,1,.59.62c.15.23.24.48.38.7a.05.05,0,0,0,.1,0,2.08,2.08,0,0,0-1-1.44C288.86,489.86,288.76,490,288.84,490.06Z"/><path id="_Trazado_177" data-name="&lt;Trazado&gt;" class="cls-2" d="M315.42,494.18a2.83,2.83,0,0,0-1.18-.64,3.27,3.27,0,0,0-1.45-.25c-.07,0-.09.11,0,.13.44.13.89.2,1.33.34s.82.43,1.26.53A.07.07,0,0,0,315.42,494.18Z"/><path id="_Trazado_178" data-name="&lt;Trazado&gt;" class="cls-2" d="M354.35,492.51a6.73,6.73,0,0,1-2.12-3.27,6,6,0,0,1-.19-2,15.18,15.18,0,0,1,.52-2.14.11.11,0,0,0-.2-.09,4.38,4.38,0,0,0-.61,2.07,6.38,6.38,0,0,0,.19,2.26,6,6,0,0,0,2.31,3.32C354.33,492.7,354.42,492.57,354.35,492.51Z"/><path id="_Trazado_179" data-name="&lt;Trazado&gt;" class="cls-2" d="M353,484.54a6,6,0,0,0,.48-.53c.11-.14.29-.28.25-.47,0,0,0-.05-.07-.05-.2,0-.32.23-.43.37a4.5,4.5,0,0,0-.41.54C352.73,484.51,352.89,484.63,353,484.54Z"/><path id="_Trazado_180" data-name="&lt;Trazado&gt;" class="cls-2" d="M343.48,497.85a4.19,4.19,0,0,0,1,1.72,7.77,7.77,0,0,0,1.58,1.39,8.07,8.07,0,0,0,1.88.94,6.82,6.82,0,0,0,1.08.27,1.76,1.76,0,0,0,.91,0c.09,0,.13-.17,0-.22a2.6,2.6,0,0,0-.84-.15,6.69,6.69,0,0,1-1-.23,7.64,7.64,0,0,1-1.87-.89,8,8,0,0,1-1.59-1.36c-.43-.49-.72-1.07-1.12-1.57C343.55,497.72,343.46,497.79,343.48,497.85Z"/></g></g><path id="_Trazado_181" data-name="&lt;Trazado&gt;" class="cls-2" d="M186.65,501.15c4.94,3.24,11.38,3.13,16.81,1.29a37.86,37.86,0,0,0,8.33-4.14c2.69-1.73,5.16-3.78,7.83-5.55s5.71-3.24,9-3.14a8.32,8.32,0,0,1,7.21,12.11,10.64,10.64,0,0,1-6.61,5.41,14,14,0,0,1-4.51.55,12,12,0,0,1-4.58-.95,4,4,0,0,1-2.56-3.45c0-1.39,1.27-2.77,2.73-2.25a1.81,1.81,0,0,1,1.22,1.37.15.15,0,0,0,.29,0,2.17,2.17,0,0,0-2.34-1.87,2.73,2.73,0,0,0-2.31,2.41,4,4,0,0,0,1.7,3.58,8.86,8.86,0,0,0,4.28,1.51,13.81,13.81,0,0,0,9.28-1.84,10.4,10.4,0,0,0,4.65-7,8.64,8.64,0,0,0-2.64-7.55,9.32,9.32,0,0,0-8.38-2.15c-3.41.67-6.31,2.68-9.05,4.71a71.53,71.53,0,0,1-8.66,5.76c-5.88,3.15-13,4.78-19.38,2.1a16.43,16.43,0,0,1-2.17-1.11C186.64,500.86,186.52,501.06,186.65,501.15Z"/><path id="_Trazado_182" data-name="&lt;Trazado&gt;" class="cls-2" d="M220.34,500.84c.13,1.53.5,3.77,2.37,4a2.53,2.53,0,0,0,2.18-.9,2.79,2.79,0,0,0,.61-2.47,4.62,4.62,0,0,0-4.39-3.43,5,5,0,0,0-4.69,2.81,5.31,5.31,0,0,0,.73,5.57,9,9,0,0,0,5.67,3.15,23.43,23.43,0,0,0,7.19.15,15.68,15.68,0,0,0,6.47-2.24A13.71,13.71,0,0,0,238.42,486a14.15,14.15,0,0,0-12-3.68c-4.61.72-8,3.83-11.18,7a52.5,52.5,0,0,1-5.39,4.83,41.38,41.38,0,0,1-6.16,3.87c-4,2-8.84,4-13.39,3a9.49,9.49,0,0,1-3-1.23c-.22-.14-.41.2-.2.34,3.39,2.3,7.84,1.74,11.53.53A40.26,40.26,0,0,0,210,494.56a48.52,48.52,0,0,0,4.76-4.19c1.49-1.46,3-3,4.58-4.27a15.84,15.84,0,0,1,5.64-3,14.2,14.2,0,0,1,6.32-.23,13.47,13.47,0,0,1,9.45,7.12,13.1,13.1,0,0,1,.33,11.41,13.43,13.43,0,0,1-9.14,7.54,22.26,22.26,0,0,1-6.81.5,11.61,11.61,0,0,1-6.38-1.95,5.54,5.54,0,0,1-2.36-5.35,4.64,4.64,0,0,1,4.26-3.67c2.09-.08,4.45,1.36,4.51,3.64a2.4,2.4,0,0,1-1.6,2.31,1.91,1.91,0,0,1-2.33-1,6.53,6.53,0,0,1-.63-2.57C220.61,500.66,220.33,500.66,220.34,500.84Z"/><path id="_Trazado_183" data-name="&lt;Trazado&gt;" class="cls-2" d="M187.85,499.5c6,1.19,12.17-.88,17.25-4.06a55.76,55.76,0,0,0,7.35-5.64c2.2-1.94,4.29-4,6.55-5.89a24.16,24.16,0,0,1,7.47-4.5,15,15,0,0,1,19.18,9.91,15.55,15.55,0,0,1,.16,8,14.28,14.28,0,0,1-1.48,3.65,6.24,6.24,0,0,1-2.58,2.68,3.5,3.5,0,0,1-1.86.29c-.29,0-.29.42,0,.44,2.63.28,4.33-2.05,5.34-4.17a15.36,15.36,0,0,0,1.43-7.84,15.2,15.2,0,0,0-8.61-12.64,16.11,16.11,0,0,0-7.7-1.52,17,17,0,0,0-7.86,2.64,45.9,45.9,0,0,0-6.9,5.54c-2.35,2.18-4.69,4.36-7.24,6.31-5.14,3.95-11.29,7-17.92,6.79a19.36,19.36,0,0,1-2.52-.24C187.78,499.26,187.71,499.47,187.85,499.5Z"/><path id="_Trazado_184" data-name="&lt;Trazado&gt;" class="cls-2" d="M244,502.14c1.41.94,3.56,0,4.68-1a8.21,8.21,0,0,0,2.3-5,17.65,17.65,0,0,0-2.1-10.84,17.19,17.19,0,0,0-4.08-4.94c-.2-.17-.5.12-.29.29a17.55,17.55,0,0,1,5.6,8.71,16.83,16.83,0,0,1,.62,5.19,10.36,10.36,0,0,1-1.4,5.28,5.16,5.16,0,0,1-2.38,2,4.22,4.22,0,0,1-1.36.32A7.87,7.87,0,0,1,244,502,.08.08,0,0,0,244,502.14Z"/><path id="_Trazado_185" data-name="&lt;Trazado&gt;" class="cls-2" d="M240.7,477.58a18.08,18.08,0,0,0-10.95-2.08,25.68,25.68,0,0,0-10.61,3.68,46.23,46.23,0,0,0-8.92,7.36c-2.83,2.86-5.6,5.87-9,8.08-3.6,2.35-8,3.87-12.29,2.9-.25-.06-.36.33-.11.39a15.48,15.48,0,0,0,10.55-1.73,37.2,37.2,0,0,0,9.07-7.27,67.71,67.71,0,0,1,8.76-8,27.65,27.65,0,0,1,10.37-4.7,20.92,20.92,0,0,1,6.51-.32,19.81,19.81,0,0,1,6.47,1.92C240.71,477.88,240.84,477.67,240.7,477.58Z"/><path id="_Trazado_186" data-name="&lt;Trazado&gt;" class="cls-2" d="M228.33,489.48a15.91,15.91,0,0,0,1.49.59,8,8,0,0,1,1.36.78,8.81,8.81,0,0,1,2.34,2.45,8.17,8.17,0,0,1,1.2,3.38,12.64,12.64,0,0,1-.29,3.68c0,.11.13.19.19.08,1.12-2.19.5-5.25-.76-7.26a9,9,0,0,0-2.34-2.49,8.83,8.83,0,0,0-1.61-.92,3.55,3.55,0,0,0-1.55-.41C228.3,489.37,228.27,489.45,228.33,489.48Z"/><path id="_Trazado_187" data-name="&lt;Trazado&gt;" class="cls-2" d="M195.18,488.16c.37.25.8.43,1.17.7a5.34,5.34,0,0,1,1.07,1,4.34,4.34,0,0,1,1.06,2.75,6.15,6.15,0,0,1-.55,2.71,4,4,0,0,1-.75,1.07c-.33.32-.75.48-1.1.77-.16.13,0,.33.18.31.9-.13,1.69-1.18,2.05-1.93a6.45,6.45,0,0,0,.59-3,4.72,4.72,0,0,0-1-2.74,4.8,4.8,0,0,0-2.61-1.84C195.14,488,195.07,488.09,195.18,488.16Z"/><path id="_Trazado_188" data-name="&lt;Trazado&gt;" class="cls-2" d="M195.27,488.16c1.39.55,2.94.61,4.32,1.2a2.91,2.91,0,0,1,1.72,3.38c0,.07.08.12.11.05a2.72,2.72,0,0,0-1.1-3.43,6.67,6.67,0,0,0-2.18-.77,21.17,21.17,0,0,0-2.85-.58C195.2,488,195.2,488.14,195.27,488.16Z"/><path id="_Trazado_189" data-name="&lt;Trazado&gt;" class="cls-2" d="M201.28,493.64c0,.05-.07.08-.09.14a1.87,1.87,0,0,0-.07.22.46.46,0,0,0,0,.38.08.08,0,0,0,.11,0,.47.47,0,0,0,.16-.31,1.6,1.6,0,0,0,0-.21s0-.06,0-.09,0-.07,0-.1S201.31,493.56,201.28,493.64Z"/><path id="_Trazado_190" data-name="&lt;Trazado&gt;" class="cls-2" d="M195.22,488.11c1.84.61,3.62-.44,5.44-.58a2.82,2.82,0,0,1,2.54.89,4.49,4.49,0,0,1,.58,2.72c0,.09.14.12.16,0,.45-1.79-.35-3.66-2.31-4a7.45,7.45,0,0,0-3,.4,8.18,8.18,0,0,1-3.37.33A.09.09,0,0,0,195.22,488.11Z"/><path id="_Trazado_191" data-name="&lt;Trazado&gt;" class="cls-2" d="M203.78,492.34c-.17.3-.38.57-.54.88s.17.32.25.15.27-.65.41-1A.07.07,0,0,0,203.78,492.34Z"/><path id="_Trazado_192" data-name="&lt;Trazado&gt;" class="cls-2" d="M224.91,503.89c1.78-2.17,2.46-5.8,0-7.75a5.34,5.34,0,0,0-3.75-1,6.91,6.91,0,0,0-4.14,1.8.09.09,0,0,0,.11.15c.63-.29,1.2-.69,1.84-1a6.84,6.84,0,0,1,2-.58,5.08,5.08,0,0,1,3.5.8,4.12,4.12,0,0,1,1.69,3.52,7.84,7.84,0,0,1-1.45,3.92C224.65,503.85,224.82,504,224.91,503.89Z"/><path id="_Trazado_193" data-name="&lt;Trazado&gt;" class="cls-2" d="M216.39,497.37a3,3,0,0,0-1,.6.06.06,0,0,0,0,.1,3,3,0,0,0,1.06-.55A.09.09,0,0,0,216.39,497.37Z"/><path id="_Trazado_194" data-name="&lt;Trazado&gt;" class="cls-2" d="M248.22,501.3a8.92,8.92,0,0,0,2.91-2,12.76,12.76,0,0,0,1.19-1.35,4.32,4.32,0,0,0,.93-1.53.09.09,0,0,0-.15-.08,8.85,8.85,0,0,0-.89,1.28A11,11,0,0,1,251,499a13.17,13.17,0,0,1-2.85,2.13C248.07,501.19,248.13,501.33,248.22,501.3Z"/><path id="_Trazado_195" data-name="&lt;Trazado&gt;" class="cls-2" d="M253.57,495.82a4.84,4.84,0,0,1,.32-.79,5.19,5.19,0,0,0,.35-.66c0-.06-.06-.1-.11-.08-.23.1-.36.45-.45.66a3.51,3.51,0,0,0-.3.82C253.36,495.89,253.54,495.94,253.57,495.82Z"/><path id="_Trazado_196" data-name="&lt;Trazado&gt;" class="cls-2" d="M225.1,503.57a12.29,12.29,0,0,0,1.53-2.17,8.62,8.62,0,0,0,1-2.38c.31-1.32.28-3.23-.79-4.23a.13.13,0,0,0-.21.16,5.41,5.41,0,0,1,.84,2.15,5.62,5.62,0,0,1-.2,2.12,9.07,9.07,0,0,1-1,2.18c-.42.7-1,1.34-1.36,2.06C224.9,503.55,225,503.65,225.1,503.57Z"/><path id="_Trazado_197" data-name="&lt;Trazado&gt;" class="cls-2" d="M245.68,481.49c1.65,1.56,3.67,2.58,5.41,4a9.08,9.08,0,0,1,2.1,2.4A6.64,6.64,0,0,1,254,491c0,.12.19.16.22,0,.5-2-1.07-4.16-2.51-5.44-1.82-1.64-4.12-2.61-6-4.19A.05.05,0,1,0,245.68,481.49Z"/><path id="_Trazado_198" data-name="&lt;Trazado&gt;" class="cls-2" d="M252.12,497.85c.11,2.89,3.92,3.84,6.19,4.2a16.72,16.72,0,0,0,9-1,8.77,8.77,0,0,0,5.31-5.6,5.75,5.75,0,0,0-2.29-6.34c-1-.64-2.6-1.06-3.59-.16a1.37,1.37,0,0,0,.38,2.3.17.17,0,0,0,.09-.32,1,1,0,0,1-.45-1.19,1.37,1.37,0,0,1,1.34-.85,3.9,3.9,0,0,1,2.83,1.28,5.54,5.54,0,0,1,.94,6.09c-2,4.65-8,5.92-12.52,5.49a14.3,14.3,0,0,1-4.37-1,3.78,3.78,0,0,1-2.53-2.91A.15.15,0,0,0,252.12,497.85Z"/><path id="_Trazado_199" data-name="&lt;Trazado&gt;" class="cls-2" d="M266.59,490.55c.51-.62,1.44,0,1.53.63.12.91-.83,1.58-1.66,1.56-1.72,0-2.64-1.8-2.57-3.34a4.83,4.83,0,0,1,2.05-3.55,4.94,4.94,0,0,1,4-.72,6.65,6.65,0,0,1,4.89,6.56,10.49,10.49,0,0,1-3.93,7.86,14.29,14.29,0,0,1-4.59,2.67,17.89,17.89,0,0,1-5.13.9.19.19,0,0,0,0,.37,13.18,13.18,0,0,0,5.55-.94,15.2,15.2,0,0,0,4.72-2.89c2.65-2.4,4.41-6,3.65-9.58-.69-3.28-3.74-6-7.21-5.45-3.09.47-5.64,4.2-3.82,7.11.88,1.41,3.26,2.12,4.23.38a1.39,1.39,0,0,0-.35-1.85,1.07,1.07,0,0,0-1.54.13C266.32,490.51,266.51,490.66,266.59,490.55Z"/><path id="_Trazado_200" data-name="&lt;Trazado&gt;" class="cls-2" d="M269.46,485a8.64,8.64,0,0,1,4.34.78,8.19,8.19,0,0,1,3.28,2.95,10,10,0,0,1,.66,8.93c-2.3,5.9-8.93,9.4-15.1,8.67a14.8,14.8,0,0,1-4.94-1.49,19.38,19.38,0,0,1-4.26-3.05.13.13,0,1,0-.18.18,14.09,14.09,0,0,0,8.35,4.65,15.33,15.33,0,0,0,9.49-1.34,14.43,14.43,0,0,0,6.78-6.82,10.67,10.67,0,0,0,0-9.23c-1.5-2.94-5.06-5.27-8.44-4.45C269.31,484.79,269.33,485,269.46,485Z"/><path id="_Trazado_201" data-name="&lt;Trazado&gt;" class="cls-2" d="M276.05,484.17a6.91,6.91,0,0,0-3.3-2.42c-.77-.35-4.57-2.09-2.73-3.2.8-.47,1.84.12,2.52.56a7.27,7.27,0,0,1,1.54,1.34,7.15,7.15,0,0,1,1.17,1.85,8.49,8.49,0,0,1,.36,1,3.8,3.8,0,0,0,.28,1,.11.11,0,0,0,.2,0,3.08,3.08,0,0,0-.34-1.7,7.37,7.37,0,0,0-.87-1.64,7.58,7.58,0,0,0-2.85-2.45,2.62,2.62,0,0,0-1.83-.31,1.29,1.29,0,0,0-.93,1c-.19,1.22,1.6,2.09,2.48,2.49,1.49.68,3.18,1.25,4.17,2.65A.08.08,0,0,0,276.05,484.17Z"/><path id="_Trazado_202" data-name="&lt;Trazado&gt;" class="cls-2" d="M278.17,483.62a10.13,10.13,0,0,1-.72-1c-.17-.33-.54-1.14-.26-1.5,0-.14.12-.16.29-.08.15-.07.25-.05.29.06a.73.73,0,0,1,.11.29,4.8,4.8,0,0,1,.08.85,14.22,14.22,0,0,0,0,1.46c0,.14.21.11.25,0,.16-.46.21-3.72-1-3-.45.26-.39.94-.28,1.36a3.1,3.1,0,0,0,1.11,1.71C278.12,483.79,278.22,483.69,278.17,483.62Z"/><path id="_Trazado_203" data-name="&lt;Trazado&gt;" class="cls-2" d="M243,477.29a7.42,7.42,0,0,1-1.54-1.2c-.41-.51-1-1.53-.8-2.21a.44.44,0,0,1,.71-.26,1.25,1.25,0,0,1,.3.54c.13.37.24.75.37,1.12s.27.75.4,1.12a5.31,5.31,0,0,0,.41,1,.14.14,0,0,0,.25-.07,5.73,5.73,0,0,0-.53-1.69c-.22-.56-.39-1.14-.61-1.7s-.95-1.17-1.48-.46.07,1.85.49,2.47a3.22,3.22,0,0,0,2,1.46C243,477.44,243,477.33,243,477.29Z"/><path id="_Trazado_204" data-name="&lt;Trazado&gt;" class="cls-2" d="M245.26,477.94a2.63,2.63,0,0,1-.46-.77c-.1-.32.06-.92.5-.79s.31.55.21.82-.32.47-.44.73.05.21.16.16c.62-.29,1-1.85.07-2a.76.76,0,0,0-.79.67,1.61,1.61,0,0,0,.58,1.31C245.18,478.15,245.34,478,245.26,477.94Z"/><path id="_Trazado_205" data-name="&lt;Trazado&gt;" class="cls-2" d="M203.93,485.14c-.74-.43-3.7-2-2.58-3.15.74-.77,1.58.4,1.78,1s.37,1.5.61,2.23a.16.16,0,0,0,.3-.08c-.13-.61-.31-1.2-.48-1.8a3.55,3.55,0,0,0-.58-1.32,1.3,1.3,0,0,0-1.81-.32,1.39,1.39,0,0,0,.14,1.9,6,6,0,0,0,1.14.92,4.48,4.48,0,0,0,1.42.74A.08.08,0,0,0,203.93,485.14Z"/><path id="_Trazado_206" data-name="&lt;Trazado&gt;" class="cls-2" d="M201,485.59a1.73,1.73,0,0,1-1-.15c-.19-.14-.36-.5-.13-.68s.59.12.72.35.15.49.33.64.14,0,.15,0a.75.75,0,0,0-.12-.5,1.89,1.89,0,0,0-.31-.53.71.71,0,0,0-1-.07.73.73,0,0,0,.07.91c.34.38.84.3,1.29.25C201.11,485.76,201.11,485.58,201,485.59Z"/><path id="_Trazado_207" data-name="&lt;Trazado&gt;" class="cls-2" d="M185.55,477.8a1.82,1.82,0,0,0-.59-.7c-.3-.24-.78-.55-.68-1s.3-.39.66-.14a2,2,0,0,1,.14.3,3,3,0,0,1,.12.43,11.58,11.58,0,0,0,.18,1.18.1.1,0,0,0,.19,0c.19-.54-.18-2.7-1.12-2.33a.74.74,0,0,0-.37.94c.24.63,1,.84,1.31,1.41C185.45,478,185.6,477.9,185.55,477.8Z"/><path id="_Trazado_208" data-name="&lt;Trazado&gt;" class="cls-2" d="M233.89,480.23a12.09,12.09,0,0,1,4.44,1.74,13.89,13.89,0,0,1,3.45,3.26c.13.15.38-.05.27-.21a11.73,11.73,0,0,0-8.13-4.9C233.85,480.11,233.82,480.22,233.89,480.23Z"/><path id="_Trazado_209" data-name="&lt;Trazado&gt;" class="cls-2" d="M242.66,486.42a4.6,4.6,0,0,0,.19.52c.06.13.11.34.26.37a.08.08,0,0,0,.09,0c.08-.13,0-.29-.08-.41a5.36,5.36,0,0,0-.28-.53A.1.1,0,0,0,242.66,486.42Z"/><path id="_Trazado_210" data-name="&lt;Trazado&gt;" class="cls-2" d="M231.18,484.3a15.32,15.32,0,0,1,3.22,1,10.06,10.06,0,0,1,4.57,4.73,9.12,9.12,0,0,1,.61,1.68c.15.53.17,1.11.33,1.64a.14.14,0,0,0,.27,0,4.64,4.64,0,0,0-.27-1.69,10.12,10.12,0,0,0-2.58-4.52,9.44,9.44,0,0,0-6.14-2.91C231.14,484.23,231.13,484.29,231.18,484.3Z"/><path id="_Trazado_211" data-name="&lt;Trazado&gt;" class="cls-2" d="M240.13,494.86a1.73,1.73,0,0,0,0,.32.63.63,0,0,0,.06.27.07.07,0,0,0,.11,0,.64.64,0,0,0,.07-.27,1.75,1.75,0,0,0,0-.32A.09.09,0,1,0,240.13,494.86Z"/><path id="_Trazado_212" data-name="&lt;Trazado&gt;" class="cls-2" d="M239.73,504c1.6.9,3-1.07,3.7-2.24a11.43,11.43,0,0,0,1.13-2.43,8.13,8.13,0,0,0,.54-2.79c0-.15-.24-.2-.28,0-.17.79-.24,1.58-.47,2.36a11.43,11.43,0,0,1-.88,2.18c-.67,1.25-1.95,3.49-3.68,2.82A.08.08,0,0,0,239.73,504Z"/><path id="_Trazado_213" data-name="&lt;Trazado&gt;" class="cls-2" d="M244.11,502.11c1.23.95,2.81-.28,3.52-1.29a8,8,0,0,0,1.07-2.23,5.15,5.15,0,0,0,.31-2.54.11.11,0,0,0-.22,0c-.19.69-.15,1.43-.33,2.13a8,8,0,0,1-.83,2,4.42,4.42,0,0,1-1.34,1.54,2.55,2.55,0,0,1-2.15.27S244.07,502.08,244.11,502.11Z"/><path id="_Trazado_214" data-name="&lt;Trazado&gt;" class="cls-2" d="M205.42,498.45a3.26,3.26,0,0,0,2-.7c.74-.51,1.45-1.09,2.16-1.63l2.28-1.75a16.82,16.82,0,0,0,2.2-1.74.11.11,0,0,0-.14-.17,16.8,16.8,0,0,0-2.22,1.65l-2.05,1.58c-.66.51-1.32,1-2,1.55a4.7,4.7,0,0,1-2.27,1.05C205.32,498.31,205.32,498.45,205.42,498.45Z"/><path id="_Trazado_215" data-name="&lt;Trazado&gt;" class="cls-2" d="M215.09,492a1.71,1.71,0,0,0,.37-.52.07.07,0,0,0-.1-.07,1.81,1.81,0,0,0-.42.45C214.86,492,215,492.12,215.09,492Z"/><path id="_Trazado_216" data-name="&lt;Trazado&gt;" class="cls-2" d="M207.79,490.57c1.44-1.11,2.77-2.4,4.1-3.63l2-1.87a18.7,18.7,0,0,0,1.93-1.95.08.08,0,0,0-.11-.11,18.2,18.2,0,0,0-1.89,1.73c-.68.65-1.36,1.3-2.05,1.94-1.34,1.26-2.76,2.48-4,3.81C207.69,490.53,207.74,490.61,207.79,490.57Z"/><path id="_Trazado_217" data-name="&lt;Trazado&gt;" class="cls-2" d="M216.88,482.43a5.25,5.25,0,0,0,.63-.71c0-.05,0-.11-.07-.08a4.27,4.27,0,0,0-.71.63C216.62,482.37,216.78,482.53,216.88,482.43Z"/><path id="_Trazado_218" data-name="&lt;Trazado&gt;" class="cls-2" d="M196.25,488.83a2.92,2.92,0,0,1,.75,1.79,2.4,2.4,0,0,1-.85,2.13,5.5,5.5,0,0,1-1.76,1.16,3.46,3.46,0,0,1-.94.31,1.67,1.67,0,0,1-1-.21c-.08,0-.21,0-.17.13.29.7,1.3.54,1.86.34a5.9,5.9,0,0,0,2.34-1.46,2.72,2.72,0,0,0,.9-2.19,3,3,0,0,0-1-2.08C196.26,488.71,196.2,488.79,196.25,488.83Z"/><path id="_Trazado_219" data-name="&lt;Trazado&gt;" class="cls-2" d="M196.39,489.19a4.1,4.1,0,0,1,0,4.89,3.8,3.8,0,0,1-2,1.27,5.21,5.21,0,0,1-2.54-.09.11.11,0,0,0-.08.21c1.54,1,3.9.22,5-1.15a4.11,4.11,0,0,0-.2-5.24C196.46,489,196.33,489.11,196.39,489.19Z"/><path id="_Trazado_220" data-name="&lt;Trazado&gt;" class="cls-2" d="M194.25,496.85a3.13,3.13,0,0,0,1.65-.6c.42-.27,1-.69,1.14-1.19a.09.09,0,0,0-.13-.1,3.64,3.64,0,0,0-.53.51,4.12,4.12,0,0,1-.69.56,9,9,0,0,1-1.48.68C194.14,496.74,194.18,496.85,194.25,496.85Z"/><path id="_Trazado_221" data-name="&lt;Trazado&gt;" class="cls-2" d="M197.5,494.59a.72.72,0,0,0,.05-.41s-.05,0-.07,0a.89.89,0,0,0-.15.38A.09.09,0,0,0,197.5,494.59Z"/><path id="_Trazado_222" data-name="&lt;Trazado&gt;" class="cls-2" d="M270.46,485a7.57,7.57,0,0,1,3.84,2.11,6.6,6.6,0,0,1,1.22,1.95,18.59,18.59,0,0,1,.58,2.19c0,.09.18.1.19,0a5.78,5.78,0,0,0-1.7-4.33,6.38,6.38,0,0,0-4.11-2.11C270.37,484.76,270.35,484.93,270.46,485Z"/><path id="_Trazado_223" data-name="&lt;Trazado&gt;" class="cls-2" d="M276.27,492.51a14.91,14.91,0,0,1-.52,3.77A8.88,8.88,0,0,1,275,498c-.33.55-.76,1-1.08,1.59,0,.08.05.18.13.13a6.33,6.33,0,0,0,2.11-3.25,6.74,6.74,0,0,0,.3-4A.07.07,0,0,0,276.27,492.51Z"/><path id="_Trazado_224" data-name="&lt;Trazado&gt;" class="cls-2" d="M239.68,477.16a12.23,12.23,0,0,0-3.54-3.25,17.23,17.23,0,0,0-4.65-2.14,13,13,0,0,0-5.33-.37,18.49,18.49,0,0,0-5.22,1.9c-2.05,1-4.17,1.73-6.46,1.2a.13.13,0,0,0-.07.24,6.81,6.81,0,0,0,5.05-.33c1.73-.67,3.32-1.67,5.1-2.23a13.47,13.47,0,0,1,10.57,1.53,21.09,21.09,0,0,1,4.45,3.53C239.63,477.29,239.73,477.23,239.68,477.16Z"/><path id="_Trazado_225" data-name="&lt;Trazado&gt;" class="cls-2" d="M239.68,477.1a32.23,32.23,0,0,0-4.62-2.42,15,15,0,0,0-4.85-1.21c-1.86-.16-3.74-.07-5.6-.2a24.16,24.16,0,0,1-5.06-.88,27.69,27.69,0,0,1-2.82-1c-.88-.37-1.73-.83-2.61-1.18-.13-.05-.17.13-.09.2a15.68,15.68,0,0,0,4.52,2.11,25.54,25.54,0,0,0,4.89,1.06c3.61.42,7.28-.15,10.75,1.15,1.88.71,3.56,1.81,5.41,2.56C239.71,477.35,239.78,477.17,239.68,477.1Z"/><path id="_Trazado_226" data-name="&lt;Trazado&gt;" class="cls-2" d="M268.22,491.22a1.38,1.38,0,0,1-2.25.83,2.43,2.43,0,0,1-.85-1.19,9,9,0,0,0-.32-1,.1.1,0,0,0-.18,0,2.64,2.64,0,0,0,.44,1.7,2.41,2.41,0,0,0,1.22,1,1.45,1.45,0,0,0,2.06-1.37A.06.06,0,0,0,268.22,491.22Z"/><path id="_Trazado_227" data-name="&lt;Trazado&gt;" class="cls-2" d="M264.77,488.84a5.79,5.79,0,0,1,1.77-2.71,5.38,5.38,0,0,1,1.55-.87c.52-.18,1.06-.19,1.59-.32.1,0,.11-.19,0-.21a4.56,4.56,0,0,0-3.22,1.11,4.93,4.93,0,0,0-1.79,3A.05.05,0,0,0,264.77,488.84Z"/><path id="_Trazado_228" data-name="&lt;Trazado&gt;" class="cls-2" d="M266.52,490.71a2.55,2.55,0,0,1,.54-1.76,2.49,2.49,0,0,1,2-.75,3.91,3.91,0,0,1,2,.7c.54.36.94.91,1.49,1.24.08.05.15-.05.12-.12a4.18,4.18,0,0,0-1.78-1.6,3.75,3.75,0,0,0-2.36-.48,2.6,2.6,0,0,0-1.73,1,1.83,1.83,0,0,0-.32,1.78C266.44,490.79,266.52,490.76,266.52,490.71Z"/><path id="_Trazado_229" data-name="&lt;Trazado&gt;" class="cls-2" d="M273,490.87c0,.17.09.34.13.51a1.48,1.48,0,0,0,.12.47.07.07,0,0,0,.12,0,1.16,1.16,0,0,0-.25-1.05C273,490.74,272.94,490.81,273,490.87Z"/><path id="_Trazado_230" data-name="&lt;Trazado&gt;" class="cls-2" d="M258.67,501.79c-.62-.24-1.28-.32-1.89-.59a6.45,6.45,0,0,1-1.71-1.11,7.68,7.68,0,0,1-2-3.27.13.13,0,0,0-.26.07,6.4,6.4,0,0,0,2.11,3.46,7,7,0,0,0,1.73,1.1,4.15,4.15,0,0,0,2,.5A.08.08,0,0,0,258.67,501.79Z"/><path id="_Trazado_231" data-name="&lt;Trazado&gt;" class="cls-2" d="M226.09,489.75a13.15,13.15,0,0,1,1.63.35,6.9,6.9,0,0,1,1.59.78,6.63,6.63,0,0,1,1.34,1.14c.38.41.65.9,1,1.32.06.07.18,0,.16-.09a5.44,5.44,0,0,0-2.29-2.61,6.08,6.08,0,0,0-3.41-1.09C226,489.56,226,489.72,226.09,489.75Z"/><path id="_Trazado_232" data-name="&lt;Trazado&gt;" class="cls-2" d="M232.2,494.25a2.24,2.24,0,0,1,.22.5,4,4,0,0,0,.09.5.07.07,0,0,0,.12,0,1.14,1.14,0,0,0-.28-1.13C232.28,494.05,232.15,494.15,232.2,494.25Z"/><path id="_Trazado_233" data-name="&lt;Trazado&gt;" class="cls-2" d="M192.66,489c-.15-.45-.38-.86-.51-1.31a11,11,0,0,1-.28-1.41c-.13-.91-.16-1.84-.33-2.75a7.15,7.15,0,0,0-.71-2.15c-.3-.56-.8-1.31-1.46-1.48a.09.09,0,0,0-.09.15c.23.29.55.49.79.77a4.32,4.32,0,0,1,.63,1,8.52,8.52,0,0,1,.63,2.31c.13.86.21,1.74.37,2.6a4.63,4.63,0,0,0,.87,2.3S192.67,489.07,192.66,489Z"/><path id="_Trazado_234" data-name="&lt;Trazado&gt;" class="cls-2" d="M188.61,479.33a2.85,2.85,0,0,0-.43-.49,2.09,2.09,0,0,0-.49-.4c-.06,0-.12,0-.09.08a2,2,0,0,0,.41.5,2.46,2.46,0,0,0,.48.43C188.56,479.49,188.66,479.4,188.61,479.33Z"/><path id="_Trazado_235" data-name="&lt;Trazado&gt;" class="cls-2" d="M200.4,488.16a2.35,2.35,0,0,1,1.82.36c.05,0,.11,0,.08-.07a1.63,1.63,0,0,0-2-.46C200.23,488,200.3,488.18,200.4,488.16Z"/><path id="_Trazado_236" data-name="&lt;Trazado&gt;" class="cls-2" d="M199.49,490a3,3,0,0,1,.6.63c.15.22.23.48.38.7a.05.05,0,0,0,.1,0,2.12,2.12,0,0,0-1-1.44C199.52,489.85,199.41,490,199.49,490Z"/><path id="_Trazado_237" data-name="&lt;Trazado&gt;" class="cls-2" d="M188,489.5a3.48,3.48,0,0,0,.22.43c.07.12.14.28.27.34a.06.06,0,0,0,.09,0,.82.82,0,0,0-.18-.39,3.69,3.69,0,0,0-.29-.4S188,489.44,188,489.5Z"/><path id="_Trazado_238" data-name="&lt;Trazado&gt;" class="cls-2" d="M181.11,501.15a4.94,4.94,0,0,0,4.77-1.3,5.1,5.1,0,0,0,1.27-2.19,3.61,3.61,0,0,0,0-2.47.1.1,0,0,0-.18.05c0,.38,0,.77,0,1.15a4.83,4.83,0,0,1-1.4,3.26,5.18,5.18,0,0,1-4.44,1.29C181,500.92,181,501.11,181.11,501.15Z"/><path id="_Trazado_239" data-name="&lt;Trazado&gt;" class="cls-2" d="M186.92,493.85a1.28,1.28,0,0,0-.1-.43.72.72,0,0,0-.18-.37.07.07,0,0,0-.11,0,.82.82,0,0,0,.07.43,1.23,1.23,0,0,0,.19.4S186.91,493.91,186.92,493.85Z"/><path id="_Trazado_240" data-name="&lt;Trazado&gt;" class="cls-2" d="M226.07,494.17a2.63,2.63,0,0,0-1.17-.64,3.34,3.34,0,0,0-1.46-.25.06.06,0,0,0,0,.12c.43.14.89.2,1.32.35s.83.42,1.26.52A.06.06,0,0,0,226.07,494.17Z"/><path id="_Trazado_241" data-name="&lt;Trazado&gt;" class="cls-2" d="M265,492.49a6.66,6.66,0,0,1-2.13-3.27,6.22,6.22,0,0,1-.18-2,14.21,14.21,0,0,1,.52-2.14A.11.11,0,0,0,263,485a4.33,4.33,0,0,0-.6,2.06,6.14,6.14,0,0,0,.19,2.26,6.07,6.07,0,0,0,2.3,3.33C265,492.68,265.08,492.56,265,492.49Z"/><path id="_Trazado_242" data-name="&lt;Trazado&gt;" class="cls-2" d="M263.64,484.52a5.93,5.93,0,0,0,.47-.53c.12-.13.29-.27.26-.46a.09.09,0,0,0-.08-.06c-.19,0-.31.24-.42.37s-.29.35-.42.54S263.54,484.61,263.64,484.52Z"/><path id="_Trazado_243" data-name="&lt;Trazado&gt;" class="cls-2" d="M254.13,497.83a4.22,4.22,0,0,0,1,1.72,7.73,7.73,0,0,0,1.57,1.4,8.23,8.23,0,0,0,1.88.93,6.94,6.94,0,0,0,1.09.27,1.66,1.66,0,0,0,.91,0,.12.12,0,0,0,0-.22,3,3,0,0,0-.85-.15,7,7,0,0,1-2.83-1.12,7.84,7.84,0,0,1-1.58-1.35c-.44-.49-.72-1.07-1.13-1.58C254.2,497.7,254.12,497.77,254.13,497.83Z"/></svg>