<svg id="Capa_1" data-name="Capa 1" xmlns="http://www.w3.org/2000/svg" xmlns:xlink="http://www.w3.org/1999/xlink" viewBox="0 0 23.17 23.17"><defs><style>.cls-1{fill:none;}.cls-2{clip-path:url(#clip-path);}.cls-3{fill:#ffa502;}</style><clipPath id="clip-path"><rect class="cls-1" x="-1065.57" y="52.54" width="1010.95" height="626.13"/></clipPath></defs><title>linkendin3</title><g class="cls-2"><g id="_Grupo_" data-name=" Grupo "><path id="_Trazado_" data-name=" Trazado " class="cls-3" d="M17,10.8c0-1.05,1,.63.89-.3-1-.1,1.16-.92,0-1.18C17.56,9.59,16.16,11.22,17,10.8Z"/><path id="_Trazado_2" data-name=" Trazado 2" class="cls-3" d="M17.61,12.29c-.16,0-.33.24,0,.29.6-.6.08-.79-.29-1.18C21.19,10,14.82,11.56,17.61,12.29Z"/><path id="_Trazado_3" data-name=" Trazado 3" class="cls-3" d="M17.32,9.32c-.83-1.12,1.43.2,1.78-.6h-.89c.26-1-.46-.93-.89-1.19-.61.8-.29,1.13-.6,1.79C16.84,9.65,18.16,9.65,17.32,9.32Z"/><path id="_Trazado_4" data-name=" Trazado 4" class="cls-3" d="M8.4,11.09c-1.1,0-2.05.14-2.08,1.2.18,0,.35,0,.29.29h.6C6.82,11.3,8.62,12.21,8.4,11.09Z"/><path id="_Trazado_5" data-name=" Trazado 5" class="cls-3" d="M14.94,22.69c0-.31-.14-.75-.3-.29-.32,1,.44.89,1.49,1.78.06-.23,0-.59.29-.59,0,.16.24.33.3,0-.39-.73-.9.53-1.19-.31,0,.23,0-1.72-.3-1.18C15.17,22.33,15.22,22.68,14.94,22.69Z"/><path id="_Trazado_6" data-name=" Trazado 6" class="cls-3" d="M17.91,14.67c-.12-1.59.24-.84,1.19-1.19-.46.72,1,.87.89.29C19.22,12.9,16.71,13.08,17.91,14.67Z"/></g></g><g id="_Grupo_2" data-name="&lt;Grupo&gt;"><g id="_Grupo_3" data-name="&lt;Grupo&gt;"><rect id="_Trazado_2-2" data-name="&lt;Trazado&gt;" x="4.75" y="9.21" width="2.94" height="9.49"/><path id="_Trazado_3-2" data-name="&lt;Trazado&gt;" d="M6.2,8A1.76,1.76,0,1,0,4.47,6.22,1.75,1.75,0,0,0,6.2,8Z"/></g><path id="_Trazado_4-2" data-name="&lt;Trazado&gt;" d="M12.39,13.72c0-1.33.61-2.13,1.79-2.13s1.6.77,1.6,2.13v5H18.7v-6c0-2.54-1.44-3.77-3.45-3.77a3.3,3.3,0,0,0-2.86,1.57V9.21H9.57v9.5h2.82Z"/></g></svg>