<svg id="el_mIDj1BISe" xmlns="http://www.w3.org/2000/svg" viewBox="0 0 93.04 76.06"><style>#el_hYydqapzwu{font-size: 4px;font-family: ArialRoundedMTBold, Arial Rounded MT Bold;fill: #211915;letter-spacing: 0.15em;transform: translate(17.54px, 43.64px);}#el_eDh1YRortD{font-size: 4px;font-family: ArialRoundedMTBold, Arial Rounded MT Bold;fill: #211915;letter-spacing: 0.15em;transform: translate(18.35px, 31.51px);}#el_FDy_3fE7Mv{fill: #228cb3;}#el_OALTrEm8PW{fill: #228cb3;}#el_rBHJGfhBdb{fill: #070308;stroke: #070308;stroke-width: 0.25px;stroke-linecap: round;stroke-miterlimit: 10;}#el_yV6WnuEwgk{fill: #070308;stroke: #070308;stroke-width: 0.25px;stroke-linecap: round;stroke-miterlimit: 10;}#el_h90XQkbnmt{font-size: 4px;font-family: ArialRoundedMTBold, Arial Rounded MT Bold;fill: #1183a8;transform: translate(16.45px, 21.5px);}#el_ZIaVxt59YG{letter-spacing: -0.01em;}#el_uKV5QFXOqU{letter-spacing: -0.02em;}#el_WeW4GtH8GE{letter-spacing: -0.01em;}#el_mEFydClwtf{letter-spacing: -0.02em;}#el_fJlr96oaxS{stroke-miterlimit: 10;fill: none;stroke: #228cb3;stroke-width: 1.3px;}#el_NWLC2PWhiUX{stroke-miterlimit: 10;fill: none;stroke: #228cb3;stroke-width: 1.3px;}#el_z8igsA0uNZD{fill: #070308;}#el_k0JXEnScu5S{fill: #070308;}#el_cWAdFDzkkIi{fill: #070308;}#el_9cOrOJ99h23{fill: #228cb3;}#el_uXtUlgc5Plz{font-size: 4px;font-family: ArialRoundedMTBold, Arial Rounded MT Bold;fill: #fff;letter-spacing: 0.12em;transform: translate(36.72px, 56.75px);}#el_6gdLeVj9h09{letter-spacing: 0.09em;}#el_vstDpFIniTb{fill: #228cb3;}#el_-fNDllC5Ip7{stroke-miterlimit: 10;stroke: #228cb3;fill: #fff;stroke-width: 0.5px;}#el_Cy1BNOldSos{fill: #228cb3;}#el_sFmlXkGBSr8{fill: #228cb3;}#el__odGzAocHOv{fill: #228cb3;}#el_HVdkSj8f88J{fill: #070308;}#el_XIItSLIu3VR{stroke: #070308;stroke-width: 0.25px;stroke-miterlimit: 10;fill: none;}</style><defs/><title>manual</title><g id="el_0JawpFVfud"><g id="el_3DvUw7-VoR" data-name="Capa 4"><text id="el_hYydqapzwu">***********************</text><text id="el_eDh1YRortD">***********************</text><path d="M77.18,41.28c.15-.18.29-.37.44-.54a4.62,4.62,0,0,1,1.74-1.25,1.76,1.76,0,0,1,.64-.15.38.38,0,0,1,.15,0,.1.1,0,0,1,.06.17.57.57,0,0,1-.11.11c-.32.25-.64.5-.95.76a7.58,7.58,0,0,0-1.6,1.92.37.37,0,0,1-.17.18.38.38,0,0,1-.49-.05.65.65,0,0,1-.15-.18,7.25,7.25,0,0,0-.68-1,2.09,2.09,0,0,0-.2-.22.76.76,0,0,1-.08-.11.18.18,0,0,1,0-.27,1,1,0,0,1,.23-.17.39.39,0,0,1,.44,0A2,2,0,0,1,77,41C77.06,41.09,77.12,41.19,77.18,41.28Z" id="el_FDy_3fE7Mv"/><path d="M77.18,29.7l.44-.55a4.85,4.85,0,0,1,1.74-1.25,2.3,2.3,0,0,1,.64-.15l.15,0a.1.1,0,0,1,.06.17,1.14,1.14,0,0,1-.11.11c-.32.25-.64.49-.95.75a7.63,7.63,0,0,0-1.6,1.93.42.42,0,0,1-.17.18.39.39,0,0,1-.49-.05.84.84,0,0,1-.15-.18,7.25,7.25,0,0,0-.68-1.05,2.09,2.09,0,0,0-.2-.22l-.08-.11c-.07-.11-.07-.19,0-.27a.76.76,0,0,1,.23-.17.38.38,0,0,1,.44,0,1.87,1.87,0,0,1,.52.53C77.06,29.51,77.12,29.61,77.18,29.7Z" id="el_OALTrEm8PW"/><line x1="74.17" y1="42.86" x2="15.01" y2="42.86" id="el_rBHJGfhBdb"/><line x1="74.17" y1="31.51" x2="15.01" y2="31.51" id="el_yV6WnuEwgk"/><text id="el_h90XQkbnmt">A<tspan x="2.88" y="0" id="el_ZIaVxt59YG">g</tspan><tspan x="5.32" y="0" id="el_uKV5QFXOqU">r</tspan><tspan x="6.98" y="0" id="el_WeW4GtH8GE">e</tspan><tspan x="9.3" y="0" id="el_mEFydClwtf">g</tspan><tspan x="11.7" y="0" id="el_rgqfEIE2He">ar</tspan></text><path d="M7.33,6.21H85.71A2.8,2.8,0,0,1,88.51,9V64.29a0,0,0,0,1,0,0h-84a0,0,0,0,1,0,0V9a2.8,2.8,0,0,1,2.8-2.8Z" id="el_fJlr96oaxS"/><path d="M4.54,64.29h84a0,0,0,0,1,0,0v1.4a4.16,4.16,0,0,1-4.16,4.16h-77a2.8,2.8,0,0,1-2.8-2.8V64.29A0,0,0,0,1,4.54,64.29Z" id="el_NWLC2PWhiUX"/><circle cx="75.84" cy="13.52" r="0.91" id="el_z8igsA0uNZD"/><circle cx="78.43" cy="13.52" r="0.91" id="el_k0JXEnScu5S"/><circle cx="81.02" cy="13.52" r="0.91" id="el_cWAdFDzkkIi"/><rect x="28.89" y="53.02" width="35.25" height="4.86" rx="1.17" id="el_9cOrOJ99h23"/><text id="el_uXtUlgc5Plz">Gua<tspan x="9.4" y="0" id="el_6gdLeVj9h09">r</tspan><tspan x="11.53" y="0" id="el_03u8aSF2vx5">dar</tspan></text><path d="M83.33,8.32H9.71a3.09,3.09,0,0,0-3,3.18V59a3.09,3.09,0,0,0,3,3.18H83.33a3.09,3.09,0,0,0,3-3.18V11.5A3.09,3.09,0,0,0,83.33,8.32ZM85,59a1.74,1.74,0,0,1-1.68,1.79H9.71A1.74,1.74,0,0,1,8,59V11.5A1.74,1.74,0,0,1,9.71,9.71H83.33A1.74,1.74,0,0,1,85,11.5Z" id="el_vstDpFIniTb"/><line x1="8.03" y1="24.05" x2="85.01" y2="24.05" id="el_-fNDllC5Ip7"/><rect x="9.33" y="21.06" width="4.62" height="0.88" rx="0.44" id="el_Cy1BNOldSos"/><rect x="9.33" y="19.48" width="4.62" height="0.88" rx="0.44" id="el_sFmlXkGBSr8"/><rect x="9.33" y="17.89" width="4.62" height="0.88" rx="0.44" id="el__odGzAocHOv"/><path d="M33.81,24l-2.3-2.88a.15.15,0,0,1,.11-.25l3.86-.37a.15.15,0,0,1,.15.21l-.35.83a.15.15,0,0,0,.08.2l1.39.6a.17.17,0,0,1,.09.21l-.53,1.21a.16.16,0,0,1-.2.08l-1.55-.67a.16.16,0,0,0-.21.08l-.27.71A.16.16,0,0,1,33.81,24Z" id="el_HVdkSj8f88J"/><circle cx="31.58" cy="21.06" r="0.83" id="el_XIItSLIu3VR"/></g></g></svg>