<svg id="el_7EdfYYN0_" xmlns="http://www.w3.org/2000/svg" viewBox="0 0 93.04 76.06"><style>#el_aiaZHgKVe6{font-size: 4px;fill: #211915;letter-spacing: 0.15em;font-family: ArialRoundedMTBold, Arial Rounded MT Bold;transform: translate(17.54px, 43.64px);}#el_BP6hY_1iog{fill: #070308;stroke: #070308;stroke-width: 0.25px;stroke-linecap: round;stroke-miterlimit: 10;}#el_kzamm7WwpP{font-size: 4px;fill: #211915;letter-spacing: 0.15em;font-family: ArialRoundedMTBold, Arial Rounded MT Bold;transform: translate(18.35px, 34.51px);}#el_O3Hxa280pZ{fill: #228cb3;}#el_VGuG419xAH{fill: #228cb3;}#el_pMULmAJuuo{fill: #070308;stroke: #070308;stroke-width: 0.25px;stroke-linecap: round;stroke-miterlimit: 10;}#el_3q3pY2EbP4{font-size: 4px;font-family: ArialRoundedMTBold, Arial Rounded MT Bold;fill: #1183a8;transform: translate(16.45px, 21.5px);}#el_ujf073IK3K{letter-spacing: -0.01em;}#el_7aknB3l7fI{letter-spacing: -0.02em;}#el_tPC1N4HXeD{letter-spacing: -0.01em;}#el_f65RdmB1Au{letter-spacing: -0.02em;}#el_MfE8gNwpYy{stroke-miterlimit: 10;fill: none;stroke: #228cb3;stroke-width: 1.3px;}#el_ZpgUhrQwgH{stroke-miterlimit: 10;fill: none;stroke: #228cb3;stroke-width: 1.3px;}#el_yz6tXm_WsY{fill: #070308;}#el_3By__ssu3yo{fill: #070308;}#el_5ZanX1Aa1HI{fill: #070308;}#el_8MK5LlOn_Wj{fill: #228cb3;}#el_75wqMmnnf7u{font-size: 4px;font-family: ArialRoundedMTBold, Arial Rounded MT Bold;fill: #fff;letter-spacing: 0.12em;transform: translate(36.72px, 56.75px);}#el_CpZoxkc_BT6{letter-spacing: 0.09em;}#el_lNcxWSds_hj{fill: #228cb3;}#el__mKRcoUna1o{stroke-miterlimit: 10;stroke: #228cb3;fill: #fff;stroke-width: 0.5px;}#el_zzC6JfFh_Cd{fill: #228cb3;}#el_sqZiN3Lqk32{fill: #228cb3;}#el_X_GQ4QZWylh{fill: #228cb3;}#el_2WLVT8-R_op{fill: #070308;}#el_VP7QcFIDZeH{stroke: #070308;stroke-width: 0.25px;stroke-miterlimit: 10;fill: none;}#el_Sbc9wUPVdvJ{fill: #228cb3;}#el_tadq-JHaX-m{font-family: ArialRoundedMTBold, Arial Rounded MT Bold;fill: #fff;font-size: 11.05px;transform: translate(18.68px, 38.86px) scale(0.93, 1);}#el_YdviqlIhkYt{letter-spacing: -0.03em;}</style><defs/><title>manual</title><g id="el_oW_6MjY5JP"><g id="el_oZaOI1g3d" data-name="Capa 4"><text id="el_aiaZHgKVe6">***********************</text><line x1="74.17" y1="34.51" x2="15.01" y2="34.51" id="el_BP6hY_1iog"/><text id="el_kzamm7WwpP">***********************</text><path d="M77.18,41.28c.15-.18.29-.37.44-.54a4.62,4.62,0,0,1,1.74-1.25,1.76,1.76,0,0,1,.64-.15.38.38,0,0,1,.15,0,.1.1,0,0,1,.06.17.57.57,0,0,1-.11.11c-.32.25-.64.5-.95.76a7.58,7.58,0,0,0-1.6,1.92.37.37,0,0,1-.17.18.38.38,0,0,1-.49-.05.65.65,0,0,1-.15-.18,7.25,7.25,0,0,0-.68-1,2.09,2.09,0,0,0-.2-.22.76.76,0,0,1-.08-.11.18.18,0,0,1,0-.27,1,1,0,0,1,.23-.17.39.39,0,0,1,.44,0A2,2,0,0,1,77,41C77.06,41.09,77.12,41.19,77.18,41.28Z" id="el_O3Hxa280pZ"/><path d="M77.18,32.7l.44-.55a4.85,4.85,0,0,1,1.74-1.25,2.3,2.3,0,0,1,.64-.15l.15,0a.1.1,0,0,1,.06.17,1.14,1.14,0,0,1-.11.11c-.32.25-.64.49-.95.75a7.63,7.63,0,0,0-1.6,1.93.42.42,0,0,1-.17.18.39.39,0,0,1-.49,0,.84.84,0,0,1-.15-.18,7.25,7.25,0,0,0-.68-1,2.09,2.09,0,0,0-.2-.22l-.08-.11c-.07-.11-.07-.19,0-.27a.76.76,0,0,1,.23-.17.38.38,0,0,1,.44,0,1.87,1.87,0,0,1,.52.53C77.06,32.51,77.12,32.61,77.18,32.7Z" id="el_VGuG419xAH"/><line x1="74.17" y1="42.86" x2="15.01" y2="42.86" id="el_pMULmAJuuo"/><text id="el_3q3pY2EbP4">A<tspan x="2.88" y="0" id="el_ujf073IK3K">g</tspan><tspan x="5.32" y="0" id="el_7aknB3l7fI">r</tspan><tspan x="6.98" y="0" id="el_tPC1N4HXeD">e</tspan><tspan x="9.3" y="0" id="el_f65RdmB1Au">g</tspan><tspan x="11.7" y="0" id="el_VCe467Y4S5">ar</tspan></text><path d="M7.33,6.21H85.71A2.8,2.8,0,0,1,88.51,9V64.29a0,0,0,0,1,0,0h-84a0,0,0,0,1,0,0V9a2.8,2.8,0,0,1,2.8-2.8Z" id="el_MfE8gNwpYy"/><path d="M4.54,64.29h84a0,0,0,0,1,0,0v1.4a4.16,4.16,0,0,1-4.16,4.16h-77a2.8,2.8,0,0,1-2.8-2.8V64.29A0,0,0,0,1,4.54,64.29Z" id="el_ZpgUhrQwgH"/><circle cx="75.84" cy="13.52" r="0.91" id="el_yz6tXm_WsY"/><circle cx="78.43" cy="13.52" r="0.91" id="el_3By__ssu3yo"/><circle cx="81.02" cy="13.52" r="0.91" id="el_5ZanX1Aa1HI"/><rect x="28.89" y="53.02" width="35.25" height="4.86" rx="1.17" id="el_8MK5LlOn_Wj"/><text id="el_75wqMmnnf7u">Gua<tspan x="9.4" y="0" id="el_CpZoxkc_BT6">r</tspan><tspan x="11.53" y="0" id="el_R5wmcv406QY">dar</tspan></text><path d="M83.33,8.32H9.71a3.09,3.09,0,0,0-3,3.18V59a3.09,3.09,0,0,0,3,3.18H83.33a3.09,3.09,0,0,0,3-3.18V11.5A3.09,3.09,0,0,0,83.33,8.32ZM85,59a1.74,1.74,0,0,1-1.68,1.79H9.71A1.74,1.74,0,0,1,8,59V11.5A1.74,1.74,0,0,1,9.71,9.71H83.33A1.74,1.74,0,0,1,85,11.5Z" id="el_lNcxWSds_hj"/><line x1="8.03" y1="24.05" x2="85.01" y2="24.05" id="el__mKRcoUna1o"/><rect x="9.33" y="21.06" width="4.62" height="0.88" rx="0.44" id="el_zzC6JfFh_Cd"/><rect x="9.33" y="19.48" width="4.62" height="0.88" rx="0.44" id="el_sqZiN3Lqk32"/><rect x="9.33" y="17.89" width="4.62" height="0.88" rx="0.44" id="el_X_GQ4QZWylh"/><g id="el_XwBdNq2JCJy"><path d="M33.81,24l-2.3-2.88a.15.15,0,0,1,.11-.25l3.86-.37a.15.15,0,0,1,.15.21l-.35.83a.15.15,0,0,0,.08.2l1.39.6a.17.17,0,0,1,.09.21l-.53,1.21a.16.16,0,0,1-.2.08l-1.55-.67a.16.16,0,0,0-.21.08l-.27.71A.16.16,0,0,1,33.81,24Z" id="el_2WLVT8-R_op"/><circle cx="31.58" cy="21.06" r="0.83" id="el_VP7QcFIDZeH"/></g><g id="el_hA8qTSOQ7VG"><path d="M9.71,9.42A1.75,1.75,0,0,0,8,11.23v48a1.76,1.76,0,0,0,1.68,1.82H83.33A1.76,1.76,0,0,0,85,59.27v-48a1.75,1.75,0,0,0-1.68-1.81Z" id="el_Sbc9wUPVdvJ"/><text id="el_tadq-JHaX-m">Gua<tspan x="21.99" y="0" id="el_YdviqlIhkYt">r</tspan><tspan x="26.54" y="0" id="el_gUtJugTc7bs">dado !</tspan></text></g></g></g></svg>