<svg version="1.1" id="el_N5qGDBBZH" xmlns="http://www.w3.org/2000/svg" xmlns:xlink="http://www.w3.org/1999/xlink" x="0px" y="0px" viewBox="0 0 512 588" style="enable-background:new 0 0 512 588;" xml:space="preserve"><style type="text/css">@-webkit-keyframes kf_el_X8WT9MtfQi_an_8qVsG_eOt {
    0% {
        -webkit-transform: translate(255.94998931884766px, 294.99998474121094px) translate(-255.94998931884766px, -294.99998474121094px) translate(0px, 0px);
                transform: translate(255.94998931884766px, 294.99998474121094px) translate(-255.94998931884766px, -294.99998474121094px) translate(0px, 0px)
    }
    10% {
        -webkit-transform: translate(255.94998931884766px, 294.99998474121094px) translate(-255.94998931884766px, -294.99998474121094px) translate(0px, -8px);
                transform: translate(255.94998931884766px, 294.99998474121094px) translate(-255.94998931884766px, -294.99998474121094px) translate(0px, -8px)
    }
    13.33% {
        -webkit-transform: translate(255.94998931884766px, 294.99998474121094px) translate(-255.94998931884766px, -294.99998474121094px) translate(0px, 0px);
                transform: translate(255.94998931884766px, 294.99998474121094px) translate(-255.94998931884766px, -294.99998474121094px) translate(0px, 0px)
    }
    23.33% {
        -webkit-transform: translate(255.94998931884766px, 294.99998474121094px) translate(-255.94998931884766px, -294.99998474121094px) translate(0px, 0px);
                transform: translate(255.94998931884766px, 294.99998474121094px) translate(-255.94998931884766px, -294.99998474121094px) translate(0px, 0px)
    }
    33.33% {
        -webkit-transform: translate(255.94998931884766px, 294.99998474121094px) translate(-255.94998931884766px, -294.99998474121094px) translate(0px, -8px);
                transform: translate(255.94998931884766px, 294.99998474121094px) translate(-255.94998931884766px, -294.99998474121094px) translate(0px, -8px)
    }
    36.67% {
        -webkit-transform: translate(255.94998931884766px, 294.99998474121094px) translate(-255.94998931884766px, -294.99998474121094px) translate(0px, 0px);
                transform: translate(255.94998931884766px, 294.99998474121094px) translate(-255.94998931884766px, -294.99998474121094px) translate(0px, 0px)
    }
    50% {
        -webkit-transform: translate(255.94998931884766px, 294.99998474121094px) translate(-255.94998931884766px, -294.99998474121094px) translate(0px, 0px);
                transform: translate(255.94998931884766px, 294.99998474121094px) translate(-255.94998931884766px, -294.99998474121094px) translate(0px, 0px)
    }
    60% {
        -webkit-transform: translate(255.94998931884766px, 294.99998474121094px) translate(-255.94998931884766px, -294.99998474121094px) translate(0px, -8px);
                transform: translate(255.94998931884766px, 294.99998474121094px) translate(-255.94998931884766px, -294.99998474121094px) translate(0px, -8px)
    }
    63.33% {
        -webkit-transform: translate(255.94998931884766px, 294.99998474121094px) translate(-255.94998931884766px, -294.99998474121094px) translate(0px, 0px);
                transform: translate(255.94998931884766px, 294.99998474121094px) translate(-255.94998931884766px, -294.99998474121094px) translate(0px, 0px)
    }
    73.33% {
        -webkit-transform: translate(255.94998931884766px, 294.99998474121094px) translate(-255.94998931884766px, -294.99998474121094px) translate(0px, 0px);
                transform: translate(255.94998931884766px, 294.99998474121094px) translate(-255.94998931884766px, -294.99998474121094px) translate(0px, 0px)
    }
    83.33% {
        -webkit-transform: translate(255.94998931884766px, 294.99998474121094px) translate(-255.94998931884766px, -294.99998474121094px) translate(0px, -8px);
                transform: translate(255.94998931884766px, 294.99998474121094px) translate(-255.94998931884766px, -294.99998474121094px) translate(0px, -8px)
    }
    86.67% {
        -webkit-transform: translate(255.94998931884766px, 294.99998474121094px) translate(-255.94998931884766px, -294.99998474121094px) translate(0px, 0px);
                transform: translate(255.94998931884766px, 294.99998474121094px) translate(-255.94998931884766px, -294.99998474121094px) translate(0px, 0px)
    }
    96.67% {
        -webkit-transform: translate(255.94998931884766px, 294.99998474121094px) translate(-255.94998931884766px, -294.99998474121094px) translate(0px, 0px);
                transform: translate(255.94998931884766px, 294.99998474121094px) translate(-255.94998931884766px, -294.99998474121094px) translate(0px, 0px)
    }
    100% {
        -webkit-transform: translate(255.94998931884766px, 294.99998474121094px) translate(-255.94998931884766px, -294.99998474121094px) translate(0px, 0px);
                transform: translate(255.94998931884766px, 294.99998474121094px) translate(-255.94998931884766px, -294.99998474121094px) translate(0px, 0px)
    }
}
@keyframes kf_el_X8WT9MtfQi_an_8qVsG_eOt {
    0% {
        -webkit-transform: translate(255.94998931884766px, 294.99998474121094px) translate(-255.94998931884766px, -294.99998474121094px) translate(0px, 0px);
                transform: translate(255.94998931884766px, 294.99998474121094px) translate(-255.94998931884766px, -294.99998474121094px) translate(0px, 0px)
    }
    10% {
        -webkit-transform: translate(255.94998931884766px, 294.99998474121094px) translate(-255.94998931884766px, -294.99998474121094px) translate(0px, -8px);
                transform: translate(255.94998931884766px, 294.99998474121094px) translate(-255.94998931884766px, -294.99998474121094px) translate(0px, -8px)
    }
    13.33% {
        -webkit-transform: translate(255.94998931884766px, 294.99998474121094px) translate(-255.94998931884766px, -294.99998474121094px) translate(0px, 0px);
                transform: translate(255.94998931884766px, 294.99998474121094px) translate(-255.94998931884766px, -294.99998474121094px) translate(0px, 0px)
    }
    23.33% {
        -webkit-transform: translate(255.94998931884766px, 294.99998474121094px) translate(-255.94998931884766px, -294.99998474121094px) translate(0px, 0px);
                transform: translate(255.94998931884766px, 294.99998474121094px) translate(-255.94998931884766px, -294.99998474121094px) translate(0px, 0px)
    }
    33.33% {
        -webkit-transform: translate(255.94998931884766px, 294.99998474121094px) translate(-255.94998931884766px, -294.99998474121094px) translate(0px, -8px);
                transform: translate(255.94998931884766px, 294.99998474121094px) translate(-255.94998931884766px, -294.99998474121094px) translate(0px, -8px)
    }
    36.67% {
        -webkit-transform: translate(255.94998931884766px, 294.99998474121094px) translate(-255.94998931884766px, -294.99998474121094px) translate(0px, 0px);
                transform: translate(255.94998931884766px, 294.99998474121094px) translate(-255.94998931884766px, -294.99998474121094px) translate(0px, 0px)
    }
    50% {
        -webkit-transform: translate(255.94998931884766px, 294.99998474121094px) translate(-255.94998931884766px, -294.99998474121094px) translate(0px, 0px);
                transform: translate(255.94998931884766px, 294.99998474121094px) translate(-255.94998931884766px, -294.99998474121094px) translate(0px, 0px)
    }
    60% {
        -webkit-transform: translate(255.94998931884766px, 294.99998474121094px) translate(-255.94998931884766px, -294.99998474121094px) translate(0px, -8px);
                transform: translate(255.94998931884766px, 294.99998474121094px) translate(-255.94998931884766px, -294.99998474121094px) translate(0px, -8px)
    }
    63.33% {
        -webkit-transform: translate(255.94998931884766px, 294.99998474121094px) translate(-255.94998931884766px, -294.99998474121094px) translate(0px, 0px);
                transform: translate(255.94998931884766px, 294.99998474121094px) translate(-255.94998931884766px, -294.99998474121094px) translate(0px, 0px)
    }
    73.33% {
        -webkit-transform: translate(255.94998931884766px, 294.99998474121094px) translate(-255.94998931884766px, -294.99998474121094px) translate(0px, 0px);
                transform: translate(255.94998931884766px, 294.99998474121094px) translate(-255.94998931884766px, -294.99998474121094px) translate(0px, 0px)
    }
    83.33% {
        -webkit-transform: translate(255.94998931884766px, 294.99998474121094px) translate(-255.94998931884766px, -294.99998474121094px) translate(0px, -8px);
                transform: translate(255.94998931884766px, 294.99998474121094px) translate(-255.94998931884766px, -294.99998474121094px) translate(0px, -8px)
    }
    86.67% {
        -webkit-transform: translate(255.94998931884766px, 294.99998474121094px) translate(-255.94998931884766px, -294.99998474121094px) translate(0px, 0px);
                transform: translate(255.94998931884766px, 294.99998474121094px) translate(-255.94998931884766px, -294.99998474121094px) translate(0px, 0px)
    }
    96.67% {
        -webkit-transform: translate(255.94998931884766px, 294.99998474121094px) translate(-255.94998931884766px, -294.99998474121094px) translate(0px, 0px);
                transform: translate(255.94998931884766px, 294.99998474121094px) translate(-255.94998931884766px, -294.99998474121094px) translate(0px, 0px)
    }
    100% {
        -webkit-transform: translate(255.94998931884766px, 294.99998474121094px) translate(-255.94998931884766px, -294.99998474121094px) translate(0px, 0px);
                transform: translate(255.94998931884766px, 294.99998474121094px) translate(-255.94998931884766px, -294.99998474121094px) translate(0px, 0px)
    }
}
@-webkit-keyframes kf_el_QL71m9LmfTy_an_zNvc-Pop6 {
    93.33% {
        opacity: 1
    }
    0% {
        opacity: 1
    }
    100% {
        opacity: 1
    }
}
@keyframes kf_el_QL71m9LmfTy_an_zNvc-Pop6 {
    93.33% {
        opacity: 1
    }
    0% {
        opacity: 1
    }
    100% {
        opacity: 1
    }
}
@-webkit-keyframes kf_el_ynWI0rjSkk_an_dS51V8hb5 {
    80% {
        opacity: 1
    }
    93.33% {
        opacity: 0
    }
    0% {
        opacity: 1
    }
    100% {
        opacity: 0
    }
}
@keyframes kf_el_ynWI0rjSkk_an_dS51V8hb5 {
    80% {
        opacity: 1
    }
    93.33% {
        opacity: 0
    }
    0% {
        opacity: 1
    }
    100% {
        opacity: 0
    }
}
@-webkit-keyframes kf_el_PkHgSJUspc_an_W_1Ulxt5i {
    66.67% {
        opacity: 1
    }
    80% {
        opacity: 0
    }
    93.33% {
        opacity: 1
    }
    0% {
        opacity: 1
    }
    100% {
        opacity: 1
    }
}
@keyframes kf_el_PkHgSJUspc_an_W_1Ulxt5i {
    66.67% {
        opacity: 1
    }
    80% {
        opacity: 0
    }
    93.33% {
        opacity: 1
    }
    0% {
        opacity: 1
    }
    100% {
        opacity: 1
    }
}
@-webkit-keyframes kf_el_bvTVIhQHGFM_an_Odvr6tV0x {
    53.33% {
        opacity: 1
    }
    66.67% {
        opacity: 0
    }
    80% {
        opacity: 1
    }
    0% {
        opacity: 1
    }
    100% {
        opacity: 1
    }
}
@keyframes kf_el_bvTVIhQHGFM_an_Odvr6tV0x {
    53.33% {
        opacity: 1
    }
    66.67% {
        opacity: 0
    }
    80% {
        opacity: 1
    }
    0% {
        opacity: 1
    }
    100% {
        opacity: 1
    }
}
@-webkit-keyframes kf_el_F5L74h495f_an_4uL766VJn {
    40% {
        opacity: 1
    }
    53.33% {
        opacity: 0
    }
    66.67% {
        opacity: 1
    }
    0% {
        opacity: 1
    }
    100% {
        opacity: 1
    }
}
@keyframes kf_el_F5L74h495f_an_4uL766VJn {
    40% {
        opacity: 1
    }
    53.33% {
        opacity: 0
    }
    66.67% {
        opacity: 1
    }
    0% {
        opacity: 1
    }
    100% {
        opacity: 1
    }
}
@-webkit-keyframes kf_el_3vnHkw5HapN_an_sHQ-JJd6Y {
    26.67% {
        opacity: 1
    }
    40% {
        opacity: 0
    }
    53.33% {
        opacity: 1
    }
    0% {
        opacity: 1
    }
    100% {
        opacity: 1
    }
}
@keyframes kf_el_3vnHkw5HapN_an_sHQ-JJd6Y {
    26.67% {
        opacity: 1
    }
    40% {
        opacity: 0
    }
    53.33% {
        opacity: 1
    }
    0% {
        opacity: 1
    }
    100% {
        opacity: 1
    }
}
@-webkit-keyframes kf_el_npxZdbtFDhB_an_Pl2vXHEWV {
    13.33% {
        opacity: 1
    }
    26.67% {
        opacity: 0
    }
    40% {
        opacity: 1
    }
    0% {
        opacity: 1
    }
    100% {
        opacity: 1
    }
}
@keyframes kf_el_npxZdbtFDhB_an_Pl2vXHEWV {
    13.33% {
        opacity: 1
    }
    26.67% {
        opacity: 0
    }
    40% {
        opacity: 1
    }
    0% {
        opacity: 1
    }
    100% {
        opacity: 1
    }
}
@-webkit-keyframes kf_el_9FXFKzugINd_an_SsmhgcTxj {
    0% {
        opacity: 1
    }
    13.33% {
        opacity: 0
    }
    26.67% {
        opacity: 1
    }
    100% {
        opacity: 1
    }
}
@keyframes kf_el_9FXFKzugINd_an_SsmhgcTxj {
    0% {
        opacity: 1
    }
    13.33% {
        opacity: 0
    }
    26.67% {
        opacity: 1
    }
    100% {
        opacity: 1
    }
}
@-webkit-keyframes kf_el_K3a92drVx82_an_86o5oX1ne {
    93.33% {
        opacity: 1
    }
    0% {
        opacity: 1
    }
    100% {
        opacity: 1
    }
}
@keyframes kf_el_K3a92drVx82_an_86o5oX1ne {
    93.33% {
        opacity: 1
    }
    0% {
        opacity: 1
    }
    100% {
        opacity: 1
    }
}
@-webkit-keyframes kf_el_EJrsEhBRsBk_an_Ja0rB_8RE {
    80% {
        opacity: 1
    }
    93.33% {
        opacity: 0
    }
    0% {
        opacity: 1
    }
    100% {
        opacity: 0
    }
}
@keyframes kf_el_EJrsEhBRsBk_an_Ja0rB_8RE {
    80% {
        opacity: 1
    }
    93.33% {
        opacity: 0
    }
    0% {
        opacity: 1
    }
    100% {
        opacity: 0
    }
}
@-webkit-keyframes kf_el_UHWGIkDDd2U_an_ZB8zFvIrh {
    66.67% {
        opacity: 1
    }
    80% {
        opacity: 0
    }
    93.33% {
        opacity: 1
    }
    0% {
        opacity: 1
    }
    100% {
        opacity: 1
    }
}
@keyframes kf_el_UHWGIkDDd2U_an_ZB8zFvIrh {
    66.67% {
        opacity: 1
    }
    80% {
        opacity: 0
    }
    93.33% {
        opacity: 1
    }
    0% {
        opacity: 1
    }
    100% {
        opacity: 1
    }
}
@-webkit-keyframes kf_el_lhedU3-fRjR_an_JTAShEEmS {
    53.33% {
        opacity: 1
    }
    66.67% {
        opacity: 0
    }
    80% {
        opacity: 1
    }
    0% {
        opacity: 1
    }
    100% {
        opacity: 1
    }
}
@keyframes kf_el_lhedU3-fRjR_an_JTAShEEmS {
    53.33% {
        opacity: 1
    }
    66.67% {
        opacity: 0
    }
    80% {
        opacity: 1
    }
    0% {
        opacity: 1
    }
    100% {
        opacity: 1
    }
}
@-webkit-keyframes kf_el_sFQU2jjXjYT_an_sRJzmhn6D {
    40% {
        opacity: 1
    }
    53.33% {
        opacity: 0
    }
    66.67% {
        opacity: 1
    }
    0% {
        opacity: 1
    }
    100% {
        opacity: 1
    }
}
@keyframes kf_el_sFQU2jjXjYT_an_sRJzmhn6D {
    40% {
        opacity: 1
    }
    53.33% {
        opacity: 0
    }
    66.67% {
        opacity: 1
    }
    0% {
        opacity: 1
    }
    100% {
        opacity: 1
    }
}
@-webkit-keyframes kf_el_kIjVCZnPpFt_an_T0CJO5rSY {
    26.67% {
        opacity: 1
    }
    40% {
        opacity: 0
    }
    53.33% {
        opacity: 1
    }
    0% {
        opacity: 1
    }
    100% {
        opacity: 1
    }
}
@keyframes kf_el_kIjVCZnPpFt_an_T0CJO5rSY {
    26.67% {
        opacity: 1
    }
    40% {
        opacity: 0
    }
    53.33% {
        opacity: 1
    }
    0% {
        opacity: 1
    }
    100% {
        opacity: 1
    }
}
@-webkit-keyframes kf_el_1aRcvRfsDry_an_SFTthd77_ {
    13.33% {
        opacity: 1
    }
    26.67% {
        opacity: 0
    }
    40% {
        opacity: 1
    }
    0% {
        opacity: 1
    }
    100% {
        opacity: 1
    }
}
@keyframes kf_el_1aRcvRfsDry_an_SFTthd77_ {
    13.33% {
        opacity: 1
    }
    26.67% {
        opacity: 0
    }
    40% {
        opacity: 1
    }
    0% {
        opacity: 1
    }
    100% {
        opacity: 1
    }
}
@-webkit-keyframes kf_el_1PIKC_JwPdj_an_Zr2ThXYmq {
    0% {
        opacity: 1
    }
    13.33% {
        opacity: 0
    }
    26.67% {
        opacity: 1
    }
    100% {
        opacity: 1
    }
}
@keyframes kf_el_1PIKC_JwPdj_an_Zr2ThXYmq {
    0% {
        opacity: 1
    }
    13.33% {
        opacity: 0
    }
    26.67% {
        opacity: 1
    }
    100% {
        opacity: 1
    }
}
@-webkit-keyframes kf_el_aHIOwV-AtQ_an_AEKpPLaA0 {
    0% {
        -webkit-transform: translate(256.00000762939453px, 382.8500061035156px) translate(-256.00000762939453px, -382.8500061035156px) translate(0px, 0px);
                transform: translate(256.00000762939453px, 382.8500061035156px) translate(-256.00000762939453px, -382.8500061035156px) translate(0px, 0px)
    }
    60% {
        -webkit-transform: translate(256.00000762939453px, 382.8500061035156px) translate(-256.00000762939453px, -382.8500061035156px) translate(0px, -180px);
                transform: translate(256.00000762939453px, 382.8500061035156px) translate(-256.00000762939453px, -382.8500061035156px) translate(0px, -180px)
    }
    100% {
        -webkit-transform: translate(256.00000762939453px, 382.8500061035156px) translate(-256.00000762939453px, -382.8500061035156px) translate(0px, 0px);
                transform: translate(256.00000762939453px, 382.8500061035156px) translate(-256.00000762939453px, -382.8500061035156px) translate(0px, 0px)
    }
}
@keyframes kf_el_aHIOwV-AtQ_an_AEKpPLaA0 {
    0% {
        -webkit-transform: translate(256.00000762939453px, 382.8500061035156px) translate(-256.00000762939453px, -382.8500061035156px) translate(0px, 0px);
                transform: translate(256.00000762939453px, 382.8500061035156px) translate(-256.00000762939453px, -382.8500061035156px) translate(0px, 0px)
    }
    60% {
        -webkit-transform: translate(256.00000762939453px, 382.8500061035156px) translate(-256.00000762939453px, -382.8500061035156px) translate(0px, -180px);
                transform: translate(256.00000762939453px, 382.8500061035156px) translate(-256.00000762939453px, -382.8500061035156px) translate(0px, -180px)
    }
    100% {
        -webkit-transform: translate(256.00000762939453px, 382.8500061035156px) translate(-256.00000762939453px, -382.8500061035156px) translate(0px, 0px);
                transform: translate(256.00000762939453px, 382.8500061035156px) translate(-256.00000762939453px, -382.8500061035156px) translate(0px, 0px)
    }
}
#el_N5qGDBBZH * {
    -webkit-animation-duration: 1s;
            animation-duration: 1s;
    -webkit-animation-iteration-count: infinite;
            animation-iteration-count: infinite;
    -webkit-animation-timing-function: cubic-bezier(0, 0, 1, 1);
            animation-timing-function: cubic-bezier(0, 0, 1, 1)
}
#el_ZQrewa3-Jg_an_h8enmxNpu {
    -webkit-transform: translate(255.94998931884766px, 294.99998474121094px) rotate(0deg) translate(-255.94998931884766px, -294.99998474121094px);
            transform: translate(255.94998931884766px, 294.99998474121094px) rotate(0deg) translate(-255.94998931884766px, -294.99998474121094px)
}
#el_aHIOwV-AtQ_an_AEKpPLaA0 {
    -webkit-animation-fill-mode: backwards;
            animation-fill-mode: backwards;
    -webkit-transform: translate(256.00000762939453px, 382.8500061035156px) translate(-256.00000762939453px, -382.8500061035156px) translate(0px, 0px);
            transform: translate(256.00000762939453px, 382.8500061035156px) translate(-256.00000762939453px, -382.8500061035156px) translate(0px, 0px);
    -webkit-animation-name: kf_el_aHIOwV-AtQ_an_AEKpPLaA0;
            animation-name: kf_el_aHIOwV-AtQ_an_AEKpPLaA0;
    -webkit-animation-timing-function: cubic-bezier(0.42, 0, 0.58, 1);
            animation-timing-function: cubic-bezier(0.42, 0, 0.58, 1)
}
#el_1PIKC_JwPdj {
    -webkit-animation-fill-mode: backwards;
            animation-fill-mode: backwards;
    opacity: 1;
    -webkit-animation-name: kf_el_1PIKC_JwPdj_an_Zr2ThXYmq;
            animation-name: kf_el_1PIKC_JwPdj_an_Zr2ThXYmq;
    -webkit-animation-timing-function: cubic-bezier(0.42, 0, 0.58, 1);
            animation-timing-function: cubic-bezier(0.42, 0, 0.58, 1)
}
#el_1aRcvRfsDry {
    -webkit-animation-fill-mode: backwards;
            animation-fill-mode: backwards;
    opacity: 1;
    -webkit-animation-name: kf_el_1aRcvRfsDry_an_SFTthd77_;
            animation-name: kf_el_1aRcvRfsDry_an_SFTthd77_;
    -webkit-animation-timing-function: cubic-bezier(0.42, 0, 0.58, 1);
            animation-timing-function: cubic-bezier(0.42, 0, 0.58, 1)
}
#el_kIjVCZnPpFt {
    -webkit-animation-fill-mode: backwards;
            animation-fill-mode: backwards;
    opacity: 1;
    -webkit-animation-name: kf_el_kIjVCZnPpFt_an_T0CJO5rSY;
            animation-name: kf_el_kIjVCZnPpFt_an_T0CJO5rSY;
    -webkit-animation-timing-function: cubic-bezier(0.42, 0, 0.58, 1);
            animation-timing-function: cubic-bezier(0.42, 0, 0.58, 1)
}
#el_sFQU2jjXjYT {
    -webkit-animation-fill-mode: backwards;
            animation-fill-mode: backwards;
    opacity: 1;
    -webkit-animation-name: kf_el_sFQU2jjXjYT_an_sRJzmhn6D;
            animation-name: kf_el_sFQU2jjXjYT_an_sRJzmhn6D;
    -webkit-animation-timing-function: cubic-bezier(0.42, 0, 0.58, 1);
            animation-timing-function: cubic-bezier(0.42, 0, 0.58, 1)
}
#el_lhedU3-fRjR {
    -webkit-animation-fill-mode: backwards;
            animation-fill-mode: backwards;
    opacity: 1;
    -webkit-animation-name: kf_el_lhedU3-fRjR_an_JTAShEEmS;
            animation-name: kf_el_lhedU3-fRjR_an_JTAShEEmS;
    -webkit-animation-timing-function: cubic-bezier(0.42, 0, 0.58, 1);
            animation-timing-function: cubic-bezier(0.42, 0, 0.58, 1)
}
#el_UHWGIkDDd2U {
    -webkit-animation-fill-mode: backwards;
            animation-fill-mode: backwards;
    opacity: 1;
    -webkit-animation-name: kf_el_UHWGIkDDd2U_an_ZB8zFvIrh;
            animation-name: kf_el_UHWGIkDDd2U_an_ZB8zFvIrh;
    -webkit-animation-timing-function: cubic-bezier(0, 0, 1, 1);
            animation-timing-function: cubic-bezier(0, 0, 1, 1)
}
#el_EJrsEhBRsBk {
    -webkit-animation-fill-mode: backwards;
            animation-fill-mode: backwards;
    opacity: 1;
    -webkit-animation-name: kf_el_EJrsEhBRsBk_an_Ja0rB_8RE;
            animation-name: kf_el_EJrsEhBRsBk_an_Ja0rB_8RE;
    -webkit-animation-timing-function: cubic-bezier(0, 0, 1, 1);
            animation-timing-function: cubic-bezier(0, 0, 1, 1)
}
#el_K3a92drVx82 {
    -webkit-animation-fill-mode: backwards;
            animation-fill-mode: backwards;
    opacity: 1;
    -webkit-animation-name: kf_el_K3a92drVx82_an_86o5oX1ne;
            animation-name: kf_el_K3a92drVx82_an_86o5oX1ne;
    -webkit-animation-timing-function: cubic-bezier(0, 0, 1, 1);
            animation-timing-function: cubic-bezier(0, 0, 1, 1)
}
#el_9FXFKzugINd {
    -webkit-animation-fill-mode: backwards;
            animation-fill-mode: backwards;
    opacity: 1;
    -webkit-animation-name: kf_el_9FXFKzugINd_an_SsmhgcTxj;
            animation-name: kf_el_9FXFKzugINd_an_SsmhgcTxj;
    -webkit-animation-timing-function: cubic-bezier(0, 0, 1, 1);
            animation-timing-function: cubic-bezier(0, 0, 1, 1)
}
#el_npxZdbtFDhB {
    -webkit-animation-fill-mode: backwards;
            animation-fill-mode: backwards;
    opacity: 1;
    -webkit-animation-name: kf_el_npxZdbtFDhB_an_Pl2vXHEWV;
            animation-name: kf_el_npxZdbtFDhB_an_Pl2vXHEWV;
    -webkit-animation-timing-function: cubic-bezier(0, 0, 1, 1);
            animation-timing-function: cubic-bezier(0, 0, 1, 1)
}
#el_3vnHkw5HapN {
    -webkit-animation-fill-mode: backwards;
            animation-fill-mode: backwards;
    opacity: 1;
    -webkit-animation-name: kf_el_3vnHkw5HapN_an_sHQ-JJd6Y;
            animation-name: kf_el_3vnHkw5HapN_an_sHQ-JJd6Y;
    -webkit-animation-timing-function: cubic-bezier(0, 0, 1, 1);
            animation-timing-function: cubic-bezier(0, 0, 1, 1)
}
#el_F5L74h495f {
    -webkit-animation-fill-mode: backwards;
            animation-fill-mode: backwards;
    opacity: 1;
    -webkit-animation-name: kf_el_F5L74h495f_an_4uL766VJn;
            animation-name: kf_el_F5L74h495f_an_4uL766VJn;
    -webkit-animation-timing-function: cubic-bezier(0, 0, 1, 1);
            animation-timing-function: cubic-bezier(0, 0, 1, 1)
}
#el_bvTVIhQHGFM {
    -webkit-animation-fill-mode: backwards;
            animation-fill-mode: backwards;
    opacity: 1;
    -webkit-animation-name: kf_el_bvTVIhQHGFM_an_Odvr6tV0x;
            animation-name: kf_el_bvTVIhQHGFM_an_Odvr6tV0x;
    -webkit-animation-timing-function: cubic-bezier(0, 0, 1, 1);
            animation-timing-function: cubic-bezier(0, 0, 1, 1)
}
#el_PkHgSJUspc {
    -webkit-animation-fill-mode: backwards;
            animation-fill-mode: backwards;
    opacity: 1;
    -webkit-animation-name: kf_el_PkHgSJUspc_an_W_1Ulxt5i;
            animation-name: kf_el_PkHgSJUspc_an_W_1Ulxt5i;
    -webkit-animation-timing-function: cubic-bezier(0, 0, 1, 1);
            animation-timing-function: cubic-bezier(0, 0, 1, 1)
}
#el_ynWI0rjSkk {
    -webkit-animation-fill-mode: backwards;
            animation-fill-mode: backwards;
    opacity: 1;
    -webkit-animation-name: kf_el_ynWI0rjSkk_an_dS51V8hb5;
            animation-name: kf_el_ynWI0rjSkk_an_dS51V8hb5;
    -webkit-animation-timing-function: cubic-bezier(0, 0, 1, 1);
            animation-timing-function: cubic-bezier(0, 0, 1, 1)
}
#el_QL71m9LmfTy {
    -webkit-animation-fill-mode: backwards;
            animation-fill-mode: backwards;
    opacity: 1;
    -webkit-animation-name: kf_el_QL71m9LmfTy_an_zNvc-Pop6;
            animation-name: kf_el_QL71m9LmfTy_an_zNvc-Pop6;
    -webkit-animation-timing-function: cubic-bezier(0, 0, 1, 1);
            animation-timing-function: cubic-bezier(0, 0, 1, 1)
}
#el_X8WT9MtfQi_an_8qVsG_eOt {
    -webkit-animation-fill-mode: backwards;
            animation-fill-mode: backwards;
    -webkit-transform: translate(255.94998931884766px, 294.99998474121094px) translate(-255.94998931884766px, -294.99998474121094px) translate(0px, 0px);
            transform: translate(255.94998931884766px, 294.99998474121094px) translate(-255.94998931884766px, -294.99998474121094px) translate(0px, 0px);
    -webkit-animation-name: kf_el_X8WT9MtfQi_an_8qVsG_eOt;
            animation-name: kf_el_X8WT9MtfQi_an_8qVsG_eOt;
    -webkit-animation-timing-function: cubic-bezier(0.42, 0, 0.58, 1);
            animation-timing-function: cubic-bezier(0.42, 0, 0.58, 1)
}</style><style/>
<g id="el_ZQrewa3-Jg">
	<g id="el_pomdwdbCQ-">
		<g id="el_X8WT9MtfQi_an_8qVsG_eOt" data-animator-group="true" data-animator-type="0"><path d="M468.8,428.6c-1.8-2.2-4.5-3.5-7.3-3.5H461c12.3-86.4,12.3-173.9,0-260.3h0.5c2.8,0,5.5-1.3,7.3-3.5&#10;&#9;&#9;&#9;c1.8-2.2,2.5-5.1,1.9-7.8l-14.5-70.1c-0.9-4.4-4.7-7.5-9.2-7.5h-3.2c-2.5-10.1-5.1-20.2-7.9-30.1c-1.1-4-4.8-6.8-9-6.8h-67&#10;&#9;&#9;&#9;c-5.2,0-9.4,4.2-9.4,9.4s4.2,9.4,9.4,9.4h16.8c1.2,6.1,2.4,12.1,3.6,18.2h-64c-0.4-6-0.9-12.1-1.3-18.2h13.7&#10;&#9;&#9;&#9;c5.2,0,9.4-4.2,9.4-9.4s-4.2-9.4-9.4-9.4H85.2c-4.2,0-7.9,2.8-9,6.8C73.3,55.9,70.6,66,68.2,76h-3.2c-4.5,0-8.3,3.1-9.2,7.5&#10;&#9;&#9;&#9;l-14.5,70.1c-0.6,2.8,0.1,5.6,1.9,7.8c1.8,2.2,4.5,3.5,7.3,3.5H51c-12.3,86.4-12.3,173.9,0,260.3h-0.6c-2.8,0-5.5,1.3-7.3,3.5&#10;&#9;&#9;&#9;c-1.8,2.2-2.5,5.1-1.9,7.8l14.5,70.1c0.9,4.4,4.7,7.5,9.2,7.5h3.2c2.4,9.9,5.1,20,7.9,30.1c1.1,4,4.8,6.8,9,6.8h341.7&#10;&#9;&#9;&#9;c4.2,0,7.9-2.8,9-6.8c2.8-9.9,5.5-20,7.9-30.1h3.2c4.5,0,8.3-3.1,9.2-7.5l14.5-70.1C471.3,433.7,470.6,430.8,468.8,428.6z&#10;&#9;&#9;&#9; M419.7,57.8c1.6,6,3.2,12.1,4.8,18.2h-25.1c-1.1-6-2.3-12.1-3.5-18.2H419.7z M215.9,57.8h80.2c0.5,6.1,0.9,12.2,1.3,18.2h-82.9&#10;&#9;&#9;&#9;C215,70,215.4,63.9,215.9,57.8z M135.3,57.8h61.8c-0.5,6.1-0.9,12.2-1.3,18.2h-64C132.9,69.9,134.1,63.8,135.3,57.8z M92.3,57.8&#10;&#9;&#9;&#9;h23.8c-1.2,6.1-2.4,12.2-3.5,18.2H87.5C89,69.9,90.6,63.9,92.3,57.8z M72.6,94.7h366.8l10.6,51.3H62L72.6,94.7z M70,164.8h29.7&#10;&#9;&#9;&#9;c-3.4,31.5-5.6,63.5-6.5,95.3c-0.1,5.2,3.9,9.5,9.1,9.7c0.1,0,0.2,0,0.3,0c5.1,0,9.2-4,9.4-9.1c0.9-32,3.1-64.2,6.6-95.8h72.2&#10;&#9;&#9;&#9;c-3.5,86.4-3.5,173.9,0,260.3h-72.2c-4.7-42.9-7.1-86.5-7.1-129.8c0-5.2-4.2-9.4-9.4-9.4c0,0,0,0,0,0c-5.2,0-9.4,4.2-9.4,9.4&#10;&#9;&#9;&#9;c0,43.3,2.4,87,7,129.8H70C57.4,338.7,57.4,251.2,70,164.8z M92.3,532.2c-1.7-6.1-3.3-12.2-4.8-18.2h25.1c1.1,6,2.3,12.1,3.5,18.2&#10;&#9;&#9;&#9;H92.3z M135.3,532.2c-1.2-6.1-2.4-12.1-3.6-18.2h64c0.4,6,0.9,12.1,1.3,18.2H135.3z M296.1,532.2h-80.2&#10;&#9;&#9;&#9;c-0.5-6.1-0.9-12.2-1.3-18.2h82.9C297,520,296.6,526.1,296.1,532.2z M376.7,532.2h-61.8c0.5-6.1,0.9-12.2,1.3-18.2h64&#10;&#9;&#9;&#9;C379.1,520.1,377.9,526.2,376.7,532.2z M419.7,532.2h-23.9c1.2-6.1,2.4-12.2,3.5-18.2h25.1C422.9,520.1,421.4,526.2,419.7,532.2z&#10;&#9;&#9;&#9; M439.4,495.3H72.6L62,443.9H450L439.4,495.3z M442.1,425.2h-29.7c6.8-63.7,8.6-128.6,5.4-192.9c-0.3-5.2-4.7-9.2-9.9-8.9&#10;&#9;&#9;&#9;c-5.2,0.3-9.2,4.7-8.9,9.9c3.3,64,1.4,128.5-5.5,191.9h-72.2c0.7-18.1,1.3-36.3,1.8-54.5c0.1-5.2-4-9.5-9.2-9.6&#10;&#9;&#9;&#9;c-0.1,0-0.2,0-0.2,0c-5.1,0-9.3,4.1-9.4,9.2c-0.4,18.3-1,36.7-1.8,54.9h-92.8c-3.6-86.4-3.6-173.9,0-260.3h92.8&#10;&#9;&#9;&#9;c2.3,54.6,3.1,110.2,2.5,165.5c-0.1,5.2,4.1,9.4,9.3,9.5c0,0,0.1,0,0.1,0c5.1,0,9.3-4.1,9.4-9.3c0.6-55.3-0.2-111-2.5-165.7h72.2&#10;&#9;&#9;&#9;c1.2,10.7,2.2,21.6,3.1,32.3c0.4,4.9,4.5,8.6,9.3,8.6c0.3,0,0.5,0,0.8,0c5.2-0.4,9-5,8.6-10.1c-0.8-10.2-1.8-20.6-2.9-30.8h29.7&#10;&#9;&#9;&#9;C454.6,251.2,454.6,338.8,442.1,425.2z" id="el_X8WT9MtfQi"/></g>
	</g>
</g>
<g id="el_Qxdgy8Nv0Z">
	<g id="el_kcKz7g6ZDQ">
		<g id="el_aHIOwV-AtQ_an_AEKpPLaA0" data-animator-group="true" data-animator-type="0"><path d="M256,349.7c-18.3,0-33.2,14.9-33.2,33.2S237.7,416,256,416s33.2-14.9,33.2-33.2S274.3,349.7,256,349.7z M256,397.3&#10;&#9;&#9;&#9;c-7.9,0-14.4-6.5-14.4-14.4s6.5-14.4,14.4-14.4c7.9,0,14.4,6.5,14.4,14.4S263.9,397.3,256,397.3z" id="el_aHIOwV-AtQ"/></g>
	</g>
</g>
<g id="el_kSSo9k2Ejd">
	<g id="el_bfwCmK7YLr">
		<path d="M256,111c-5.2,0-9.4,4.2-9.4,9.4s4.2,9.4,9.4,9.4c5.2,0,9.4-4.2,9.4-9.4S261.2,111,256,111z" id="el_PkHgSJUspc"/>
	</g>
</g>
<g id="el_uZbpuYNaSY">
	<g id="el_m3jTM89JuR">
		<path d="M221.6,111c-5.2,0-9.4,4.2-9.4,9.4s4.2,9.4,9.4,9.4c5.2,0,9.4-4.2,9.4-9.4S226.8,111,221.6,111z" id="el_ynWI0rjSkk"/>
	</g>
</g>
<g id="el_3yk6LXKoSY">
	<g id="el_bCDAKHTaI8">
		<path d="M324.8,111c-5.2,0-9.4,4.2-9.4,9.4s4.2,9.4,9.4,9.4c5.2,0,9.4-4.2,9.4-9.4S330,111,324.8,111z" id="el_F5L74h495f"/>
	</g>
</g>
<g id="el_teSnDKrhJkQ">
	<g id="el_eLZDmCzUzPj">
		<path d="M290.4,111c-5.2,0-9.4,4.2-9.4,9.4s4.2,9.4,9.4,9.4c5.2,0,9.4-4.2,9.4-9.4S295.6,111,290.4,111z" id="el_bvTVIhQHGFM"/>
	</g>
</g>
<g id="el_t8ED6mYoGpx">
	<g id="el_yzIoy8bIJWN">
		<path d="M118.3,111c-5.2,0-9.4,4.2-9.4,9.4s4.2,9.4,9.4,9.4c5.2,0,9.4-4.2,9.4-9.4S123.5,111,118.3,111z" id="el_GSvcCEn4RAE"/>
	</g>
</g>
<g id="el_kLYDZzHUT8i">
	<g id="el_-AXBksmOmuI">
		<path d="M187.2,111c-5.2,0-9.4,4.2-9.4,9.4s4.2,9.4,9.4,9.4c5.2,0,9.4-4.2,9.4-9.4S192.3,111,187.2,111z" id="el_QL71m9LmfTy"/>
	</g>
</g>
<g id="el_KpQPymoq482">
	<g id="el_yrpLmgci6aZ">
		<path d="M152.7,111c-5.2,0-9.4,4.2-9.4,9.4s4.2,9.4,9.4,9.4c5.2,0,9.4-4.2,9.4-9.4S157.9,111,152.7,111z" id="el_0R3Z9p6R77v"/>
	</g>
</g>
<g id="el_Go9IMA3mvVX">
	<g id="el_kw1IpbEWZW_">
		<path d="M393.7,111c-5.2,0-9.4,4.2-9.4,9.4s4.2,9.4,9.4,9.4c5.2,0,9.4-4.2,9.4-9.4S398.9,111,393.7,111z" id="el_npxZdbtFDhB"/>
	</g>
</g>
<g id="el_B-6JuYVcSeO">
	<g id="el_yAWMqsJ43O5">
		<path d="M359.3,111c-5.2,0-9.4,4.2-9.4,9.4s4.2,9.4,9.4,9.4c5.2,0,9.4-4.2,9.4-9.4S364.4,111,359.3,111z" id="el_3vnHkw5HapN"/>
	</g>
</g>
<g id="el_2w6BRjjx9Sj">
	<g id="el_wn-jgNQMmh-">
		<path d="M221.6,460.2c-5.2,0-9.4,4.2-9.4,9.4c0,5.2,4.2,9.4,9.4,9.4c5.2,0,9.4-4.2,9.4-9.4C231,464.4,226.8,460.2,221.6,460.2z" id="el_lhedU3-fRjR"/>
	</g>
</g>
<g id="el_mZGF9lp761W">
	<g id="el_kWP6V7GT7se">
		<path d="M187.2,460.2c-5.2,0-9.4,4.2-9.4,9.4c0,5.2,4.2,9.4,9.4,9.4c5.2,0,9.4-4.2,9.4-9.4C196.6,464.4,192.3,460.2,187.2,460.2z" id="el_sFQU2jjXjYT"/>
	</g>
</g>
<g id="el_KQHTv7QMivh">
	<g id="el_IO7s-Iw6FJA">
		<path d="M393.7,460.2c-5.2,0-9.4,4.2-9.4,9.4c0,5.2,4.2,9.4,9.4,9.4c5.2,0,9.4-4.2,9.4-9.4C403.1,464.4,398.9,460.2,393.7,460.2z" id="el_yQwj1ZMpJDd"/>
	</g>
</g>
<g id="el_eJek_kNaqiJ">
	<g id="el_DWA5ai13hh9">
		<path d="M118.3,460.2c-5.2,0-9.4,4.2-9.4,9.4c0,5.2,4.2,9.4,9.4,9.4c5.2,0,9.4-4.2,9.4-9.4C127.7,464.4,123.5,460.2,118.3,460.2z" id="el_1aRcvRfsDry"/>
	</g>
</g>
<g id="el_CoHGrEEXHKC">
	<g id="el_sji43qkfn9p">
		<path d="M152.7,460.2c-5.2,0-9.4,4.2-9.4,9.4c0,5.2,4.2,9.4,9.4,9.4c5.2,0,9.4-4.2,9.4-9.4C162.1,464.4,157.9,460.2,152.7,460.2z" id="el_kIjVCZnPpFt"/>
	</g>
</g>
<g id="el_OgL8z7kzMZh">
	<g id="el_3jacMzv93yT">
		<path d="M256,460.2c-5.2,0-9.4,4.2-9.4,9.4c0,5.2,4.2,9.4,9.4,9.4c5.2,0,9.4-4.2,9.4-9.4C265.4,464.4,261.2,460.2,256,460.2z" id="el_UHWGIkDDd2U"/>
	</g>
</g>
<g id="el_TBm0-70it6Z">
	<g id="el_Ue2eTC38_-C">
		<path d="M324.8,460.2c-5.2,0-9.4,4.2-9.4,9.4c0,5.2,4.2,9.4,9.4,9.4c5.2,0,9.4-4.2,9.4-9.4C334.2,464.4,330,460.2,324.8,460.2z" id="el_K3a92drVx82"/>
	</g>
</g>
<g id="el_gYB2SDwI38y">
	<g id="el_Q_-LopT-P5f">
		<path d="M290.4,460.2c-5.2,0-9.4,4.2-9.4,9.4c0,5.2,4.2,9.4,9.4,9.4c5.2,0,9.4-4.2,9.4-9.4C299.8,464.4,295.6,460.2,290.4,460.2z" id="el_EJrsEhBRsBk"/>
	</g>
</g>
<g id="el_EAvENXo1mhE">
	<g id="el_VfgYHNcRxGc">
		<path d="M359.3,460.2c-5.2,0-9.4,4.2-9.4,9.4c0,5.2,4.2,9.4,9.4,9.4c5.2,0,9.4-4.2,9.4-9.4C368.7,464.4,364.4,460.2,359.3,460.2z" id="el_VOeE9PCiRv_"/>
	</g>
</g>
<g id="el_JKVWboDvT_H">
	<g id="el_AhYadI4xsfY">
		<path d="M83.9,111c-5.2,0-9.4,4.2-9.4,9.4s4.2,9.4,9.4,9.4c5.2,0,9.4-4.2,9.4-9.4S89.1,111,83.9,111z" id="el_uLxNVjvOEE9"/>
	</g>
</g>
<g id="el_r2VjjmARn9S">
	<g id="el_OetRa_l-Qt3">
		<path d="M428.1,111c-5.2,0-9.4,4.2-9.4,9.4s4.2,9.4,9.4,9.4c5.2,0,9.4-4.2,9.4-9.4S433.3,111,428.1,111z" id="el_9FXFKzugINd"/>
	</g>
</g>
<g id="el_KgNixFxOvQd">
	<g id="el_HhfiCepzLJy">
		<path d="M83.9,460.2c-5.2,0-9.4,4.2-9.4,9.4c0,5.2,4.2,9.4,9.4,9.4c5.2,0,9.4-4.2,9.4-9.4C93.3,464.4,89.1,460.2,83.9,460.2z" id="el_1PIKC_JwPdj"/>
	</g>
</g>
<g id="el_FWjfvbgVX9i">
	<g id="el_lLnY61rJznb">
		<path d="M428.1,460.2c-5.2,0-9.4,4.2-9.4,9.4c0,5.2,4.2,9.4,9.4,9.4c5.2,0,9.4-4.2,9.4-9.4C437.5,464.4,433.3,460.2,428.1,460.2z" id="el_TUlke7YWN9L"/>
	</g>
</g>
</svg>