<svg id="Capa_1" data-name="Capa 1" xmlns="http://www.w3.org/2000/svg" viewBox="0 0 1920.7 970.28"><defs><style>.cls-1{fill:#ffa502;opacity:0.9;}.cls-2{font-size:56.77px;font-family:Mousse-Regular, Mousse;}.cls-3{letter-spacing:-0.03em;}.cls-4{letter-spacing:-0.01em;}.cls-10,.cls-5,.cls-6,.cls-7,.cls-8,.cls-9{stroke:#000;}.cls-5{stroke-miterlimit:10;stroke-width:0.89px;}.cls-10,.cls-6,.cls-7,.cls-8,.cls-9{stroke-linecap:round;stroke-linejoin:round;}.cls-6,.cls-7,.cls-9{stroke-width:5.11px;}.cls-10,.cls-7,.cls-8,.cls-9{fill:none;}.cls-8{stroke-width:4.27px;}.cls-9{stroke-dasharray:12.92 12.92;}.cls-10{stroke-width:3.85px;}.cls-11{letter-spacing:-0.01em;}.cls-12{letter-spacing:0em;}</style></defs><title>modal</title><rect class="cls-1" width="1920.7" height="970.28"/><text class="cls-2" transform="translate(395.48 381.79)">Sob<tspan class="cls-3" x="77.66" y="0">r</tspan><tspan x="95.71" y="0">e mi</tspan></text><text class="cls-2" transform="translate(935.93 381.79)">Skills</text><text class="cls-2" transform="translate(1351.9 381.79)"><tspan class="cls-4">P</tspan><tspan x="26.17" y="0">or</tspan><tspan class="cls-4" x="72.09" y="0">t</tspan><tspan x="88.78" y="0">afolio</tspan></text><path d="M420.81,530.49h84.68a58.71,58.71,0,0,1,27.35,6.73,3,3,0,0,0,3.65-.61h0a3,3,0,0,0-.82-4.65,64.73,64.73,0,0,0-30.18-7.43H420.58a3,3,0,0,0-2.95,3.42A3.13,3.13,0,0,0,420.81,530.49Z"/><path d="M562.2,557.73a65.66,65.66,0,0,0-8.91-12.24,3,3,0,0,0-4.38,0l0,0a2.93,2.93,0,0,0,0,4,59,59,0,0,1,8.2,11.24,2.92,2.92,0,0,0,4.12,1l.05,0A3,3,0,0,0,562.2,557.73Z"/><path d="M565.19,577.24a3,3,0,0,0-1.31,3,58.26,58.26,0,0,1,.76,9.4,59.21,59.21,0,0,1-59.15,59.15H420.74a3.09,3.09,0,0,0-3.1,2.48,3,3,0,0,0,2.94,3.48h84.91a65.18,65.18,0,0,0,65.11-65.11,64.47,64.47,0,0,0-.85-10.46,3,3,0,0,0-4.51-2Z"/><path d="M420.27,530.49h3.29c32.2,0,59.34,25.28,60.24,57.47a58.73,58.73,0,0,1-5.57,26.76,3,3,0,0,0,.92,3.71l.05,0a3,3,0,0,0,4.4-1.15,64.5,64.5,0,0,0,6.17-29c-.72-35.64-30.69-63.77-66.33-63.77h-3a3.1,3.1,0,0,0-3.1,2.48A3,3,0,0,0,420.27,530.49Z"/><path d="M470.54,630.87a2.91,2.91,0,0,0-3.77.29,59,59,0,0,1-42.09,17.63h-4.25a3.1,3.1,0,0,0-3.1,2.48,3,3,0,0,0,2.94,3.48h4.41A64.92,64.92,0,0,0,471,635.39a3,3,0,0,0-.36-4.49Z"/><path d="M451.44,682.68l0,.05a2.9,2.9,0,0,0,.1,3.09A25.53,25.53,0,1,1,434,675.19a2.91,2.91,0,0,0,2.9-1.46l.08-.13a2.9,2.9,0,0,0-2.13-4.3,29.94,29.94,0,0,0-14.07,1.36,32,32,0,0,0-21.66,28.15,31.54,31.54,0,1,0,57.28-16.36A2.94,2.94,0,0,0,451.44,682.68Z"/><path d="M430.94,715.55a14.79,14.79,0,1,1,14.8-14.79A14.81,14.81,0,0,1,430.94,715.55Zm0-23.62a8.83,8.83,0,1,0,8.83,8.83A8.84,8.84,0,0,0,430.94,691.93Z"/><path d="M485.43,686.2a14.77,14.77,0,0,0-10.14,22,3,3,0,0,0,4.91.28l0-.05a2.88,2.88,0,0,0,.24-3.21,8.68,8.68,0,0,1-1.08-6.15,8.83,8.83,0,0,1,17.49,2.08,9,9,0,0,1-5,7.48,8.07,8.07,0,0,1-4.47.93,3,3,0,0,0-2.88,1.55l0,0a3,3,0,0,0,2.27,4.33,14.52,14.52,0,0,0,6.05-.74,14.78,14.78,0,0,0-7.38-28.55Z"/><path d="M553.8,699a8.1,8.1,0,0,1-.41,4.92,9,9,0,0,1-7.35,5.67,8.82,8.82,0,0,1-4.14-17,8.63,8.63,0,0,1,6-.19,2.93,2.93,0,0,0,3.16-.93l0-.05a2.94,2.94,0,0,0-1.3-4.69,14.81,14.81,0,1,0,9.82,10.83,2.92,2.92,0,0,0-4.91-1.43l-.2.19A2.84,2.84,0,0,0,553.8,699Z"/><path d="M487.8,732.07a31.54,31.54,0,1,1,31.53-31.53A31.56,31.56,0,0,1,487.8,732.07Zm0-57.11a25.58,25.58,0,1,0,25.57,25.58A25.6,25.6,0,0,0,487.8,675Z"/><path d="M545.44,732.07A31.54,31.54,0,1,1,577,700.54,31.57,31.57,0,0,1,545.44,732.07Zm0-57.11A25.58,25.58,0,1,0,571,700.54,25.6,25.6,0,0,0,545.44,675Z"/><path d="M403.57,749.09a3,3,0,0,0-2.57-2.94c-14.38-1.84-25.45-12.53-25.45-25.43V664.66a3,3,0,0,0-2-2.95,3,3,0,0,0-4,2.82v56.19c0,15.93,13.34,29.11,30.65,31.34a3,3,0,0,0,3.33-3Z"/><path d="M611.61,713.3l-.82-12.24a3.14,3.14,0,0,0-2.75-3,3,3,0,0,0-3.21,3.17l.83,12.37h0c-.07,18.13-17.14,32.87-38.11,32.87h-1.21a3,3,0,0,0-3,3h0a3,3,0,0,0,3,3h1.21c24.3,0,44.07-17.47,44.07-38.94Z"/><rect x="530.96" y="746.47" width="28.67" height="5.96" rx="2.98" ry="2.98"/><rect x="414.66" y="746.47" width="104.31" height="5.96" rx="2.98" ry="2.98"/><path d="M372.57,675.79a3,3,0,0,1-3-3v-7.9a5.6,5.6,0,1,0-11.2,0v7.9a3,3,0,1,1-6,0v-7.9a11.56,11.56,0,0,1,23.12,0v7.9A3,3,0,0,1,372.57,675.79Z"/><path d="M487.8,675a3,3,0,0,1-3-3V651.77a3,3,0,0,1,6,0V672A3,3,0,0,1,487.8,675Z"/><path d="M423.46,775.52a2.94,2.94,0,0,1-1.45-.38,3,3,0,0,1-1.15-4.06l35.85-64a3,3,0,0,1,5.2,2.91l-35.85,64A3,3,0,0,1,423.46,775.52Z"/><path d="M481.94,775.52a2.94,2.94,0,0,1-1.45-.38,3,3,0,0,1-1.14-4.06l35.85-64a3,3,0,0,1,5.2,2.91l-35.85,64A3,3,0,0,1,481.94,775.52Z"/><path d="M486.81,530.49a3,3,0,0,1-3-3V505.75a3,3,0,0,1,6,0v21.76A3,3,0,0,1,486.81,530.49Z"/><path d="M400.68,700.51c-14-.84-25.13-12.81-25.13-27.44a3,3,0,0,0-6,0c0,17.93,13.82,32.56,31.09,33.4Z"/><path d="M622.1,642.33c-2.12-5.65-5.94-9.91-9.64-14l-.73-.81c-3.91-4.37-11.3-7.17-13-7.78l-5.41-3.36a3,3,0,0,0-4.52,2.1l-.77,5.14-.81,2.71a11.88,11.88,0,0,1-3.3,3c-.87.43-3.74.23-5.72-.23a3,3,0,0,0-3.58,3.63l5.46,21.38,2.8,11.65a35.61,35.61,0,0,1-8.45,22.76V697a41.5,41.5,0,0,0,14.41-31.56,3.27,3.27,0,0,0-.08-.7l-2.9-12-4.38-17.16a10.91,10.91,0,0,0,5.11-.86,18.1,18.1,0,0,0,5.77-5.28,2.81,2.81,0,0,0,.42-.85l1-3.42a3.15,3.15,0,0,0,.09-.42l.13-.87,1.84,1.14a3.64,3.64,0,0,0,.63.3c2.07.69,8,3.15,10.8,6.22l.73.81c3.48,3.88,6.77,7.55,8.5,12.15a24.73,24.73,0,0,1,.94,3.2c-4.38-3.19-9.13-4.31-12.74-2.62a12.07,12.07,0,0,0-5.74,6.23,12.39,12.39,0,0,0-.67,6.16l0,.25c.57,6.6,4,32.85,4.11,34a3,3,0,1,0,5.91-.76c0-.27-3.53-27.24-4.08-33.71l0-.4a6.57,6.57,0,0,1,.28-3.3,6.1,6.1,0,0,1,2.72-3c2.12-1,7.57,1.11,11.87,7.51a3,3,0,0,0,5.46-1.76C624.56,655.84,624.3,648.2,622.1,642.33Z"/><path class="cls-5" d="M1531.48,136.84q-13.24-2.51-26.26-4a2.07,2.07,0,0,0-2.27,1.7v.05a2.06,2.06,0,0,0,1.81,2.41q12.84,1.44,26,3.92a2.07,2.07,0,0,0,2.37-1.41v0A2.08,2.08,0,0,0,1531.48,136.84Z"/><path class="cls-5" d="M1386,295.42a2.08,2.08,0,0,0-2.1-2.09l-14,.1a24.59,24.59,0,0,1-23.72-26.55l0-.5c.72-24.37.73-45.73,0-63.47l-.05-1.17c-.26-6.68-1-24.44-1-48.09h0a5.37,5.37,0,0,1,3.93-5.22c25-6.87,48.85-11.08,71-12.52,9.3-.6,20.51-.87,22.69-.92,6.41-.14,41.37.72,49.11.92a1.76,1.76,0,0,0,1.78-1.48c0-.29.09-.57.13-.85a1.69,1.69,0,0,0-1.54-1.92c-20.92-1.48-42.43-1-49.6-.85-2.17.05-13.46.32-22.84.93-22.4,1.45-46.58,5.72-71.84,12.68a9.52,9.52,0,0,0-7,9.16v.07c0,23.74.76,41.55,1,48.25l0,1.17c.69,17.65.68,38.91,0,63.18,0,.1,0,.2,0,.3a28.78,28.78,0,0,0,27.83,31.06l14.13-.1a2.08,2.08,0,0,0,2.07-2.09Z"/><path class="cls-5" d="M1566.51,152.26a9.52,9.52,0,0,0-7-9q-7.4-2-14.74-3.63a2.06,2.06,0,0,0-2.4,1.34l0,.05a2.06,2.06,0,0,0,1.49,2.69q7.28,1.63,14.58,3.59a5.33,5.33,0,0,1,3.93,5l1.75,118.37a5.79,5.79,0,0,1,0,.93c-1,9.57-6,17.15-13,19.79a17.28,17.28,0,0,1-8.34.87,9.81,9.81,0,0,0-1.29-.08l-134.38,1a2.06,2.06,0,0,0-2,2.07v0a2.06,2.06,0,0,0,2.08,2.06l134.38-1a6.72,6.72,0,0,1,.73.05,21.41,21.41,0,0,0,10.34-1.11c8.59-3.22,14.62-12.2,15.75-23.43a10.41,10.41,0,0,0,0-1.14Z"/><path class="cls-5" d="M1358.26,181.57h0a2.1,2.1,0,0,0-2.09,2.09l0,16.15a2.09,2.09,0,0,0,2.09,2.08h0a2.09,2.09,0,0,0,2.09-2.09l0-16.15A2.1,2.1,0,0,0,1358.26,181.57Z"/><path class="cls-5" d="M1377.57,152.94a39.26,39.26,0,0,0-16.24,2.59,8.2,8.2,0,0,0-5.21,7.66l0,7a2.09,2.09,0,0,0,2.09,2.08h0a2.1,2.1,0,0,0,2.09-2.09l0-7h0a4,4,0,0,1,2.53-3.75,35.49,35.49,0,0,1,12.54-2.36V280.42a17,17,0,0,1-7.78-.34,9.56,9.56,0,0,1-5-2.66,8.82,8.82,0,0,1-2-6.1l-.16-58a2.09,2.09,0,0,0-2.09-2.08h0a2.08,2.08,0,0,0-2.09,2.09l.15,58a13,13,0,0,0,3.1,8.93,13.54,13.54,0,0,0,6.91,3.9,20.51,20.51,0,0,0,5.71.8,22.84,22.84,0,0,0,5.87-.79l1.55-.42V153Z"/><path class="cls-5" d="M1550.75,262h0a2.09,2.09,0,0,0-2.1,2.07l0,7.35a8.77,8.77,0,0,1-2,6,9.56,9.56,0,0,1-5,2.66,16.29,16.29,0,0,1-5.9.58,2.06,2.06,0,0,1-1.88-2.06V159.22a2.07,2.07,0,0,1,2.21-2.07,35.06,35.06,0,0,1,5.19.74c.65.14,1.28.3,1.88.47a7.84,7.84,0,0,1,5.78,7.55l-.22,81.65a2.07,2.07,0,0,0,2.07,2.07h0a2.07,2.07,0,0,0,2.07-2.06l.22-81.65a12.05,12.05,0,0,0-8.84-11.6c-.68-.18-1.38-.36-2.11-.52a39.74,39.74,0,0,0-10.49-.86h0a2.07,2.07,0,0,0-2,2.07V282.1a2.07,2.07,0,0,0,1.53,2h0a22.84,22.84,0,0,0,5.87.79,20.15,20.15,0,0,0,5.71-.81,13.44,13.44,0,0,0,6.91-3.89,12.92,12.92,0,0,0,3.1-8.87l0-7.29A2.09,2.09,0,0,0,1550.75,262Z"/><path class="cls-5" d="M1473.08,279.79h-64.2a2.08,2.08,0,0,1-2.08-2.08l-.39-120.95a2.11,2.11,0,0,1,2-2.1c2.56-.12,5.13-.22,7.69-.32a2.1,2.1,0,0,0,2-2.09h0a2.09,2.09,0,0,0-2.17-2.09q-5.88.22-11.73.52h0a2.09,2.09,0,0,0-2,2.1l.41,129.11a2.09,2.09,0,0,0,2.09,2.08h68.36a2.08,2.08,0,0,0,2.09-2.09h0A2.09,2.09,0,0,0,1473.08,279.79Z"/><path class="cls-5" d="M1504.23,150.89c-15.93-.89-32.1-1.37-48.06-1.44-8.87,0-17.8.07-26.74.29a2.1,2.1,0,0,0-2,2.09h0a2.1,2.1,0,0,0,2.14,2.09c8.89-.22,17.79-.33,26.62-.3,14.57.06,29.32.47,43.89,1.22a2.1,2.1,0,0,1,2,2.1V277.7a2.08,2.08,0,0,1-2.09,2.09h-5.79a2.1,2.1,0,0,0-2.09,2.09h0a2.09,2.09,0,0,0,2.09,2.09h10a2.08,2.08,0,0,0,2.09-2.09V153a2.09,2.09,0,0,0-2-2.09Z"/><path class="cls-5" d="M1391.22,190.57a7.86,7.86,0,1,1,7.85-7.85A7.87,7.87,0,0,1,1391.22,190.57Zm0-11.52a3.67,3.67,0,1,0,3.67,3.67A3.67,3.67,0,0,0,1391.22,179.05Z"/><path class="cls-5" d="M1391.22,224.85a7.86,7.86,0,1,1,7.85-7.86A7.87,7.87,0,0,1,1391.22,224.85Zm0-11.53a3.68,3.68,0,1,0,3.67,3.67A3.68,3.68,0,0,0,1391.22,213.32Z"/><path class="cls-5" d="M1391.22,259.13a7.86,7.86,0,1,1,7.85-7.86A7.87,7.87,0,0,1,1391.22,259.13Zm0-11.53a3.67,3.67,0,1,0,3.67,3.67A3.67,3.67,0,0,0,1391.22,247.6Z"/><path class="cls-5" d="M1518.18,190.57a7.86,7.86,0,1,1,7.85-7.85A7.87,7.87,0,0,1,1518.18,190.57Zm0-11.52a3.67,3.67,0,1,0,3.67,3.67A3.67,3.67,0,0,0,1518.18,179.05Z"/><path class="cls-5" d="M1518.18,224.85A7.86,7.86,0,1,1,1526,217,7.87,7.87,0,0,1,1518.18,224.85Zm0-11.53a3.68,3.68,0,1,0,3.67,3.67A3.68,3.68,0,0,0,1518.18,213.32Z"/><path class="cls-5" d="M1518.18,259.13a7.86,7.86,0,1,1,7.85-7.86A7.87,7.87,0,0,1,1518.18,259.13Zm0-11.53a3.67,3.67,0,1,0,3.67,3.67A3.67,3.67,0,0,0,1518.18,247.6Z"/><path class="cls-5" d="M1460.75,247.72h-24.11a10.87,10.87,0,0,1-10.87-10.88V206.11a10.87,10.87,0,0,1,10.87-10.87h.7a2.06,2.06,0,0,0,2.06-2.06v-.07a2.06,2.06,0,0,0-2.06-2.06h-.7a15.07,15.07,0,0,0-15.06,15.06v30.73a15.06,15.06,0,0,0,15.06,15.06h24.11a2.06,2.06,0,0,0,2-2.05v0A2.06,2.06,0,0,0,1460.75,247.72Z"/><path class="cls-5" d="M1473.23,191.05h-23.42a.5.5,0,0,0-.13,0H1448a2.09,2.09,0,0,0-2.08,2.09h0a2.1,2.1,0,0,0,2.09,2.09l11,0h14.24a9.94,9.94,0,0,1,9.94,9.94v32.6a9.94,9.94,0,0,1-9.94,9.94,1.12,1.12,0,0,0-1.12,1.1c0,.66,0,1.31,0,2a1.12,1.12,0,0,0,1.12,1.12h0a14.12,14.12,0,0,0,14.12-14.12v-32.6A14.13,14.13,0,0,0,1473.23,191.05Z"/><path class="cls-5" d="M1456.6,238.12l-4.6,0a7.06,7.06,0,0,1-4.37-2.64,6.17,6.17,0,0,1-1.37-4.59l0-.18,2-11.68a3.18,3.18,0,0,0,0-1,7.67,7.67,0,0,1-.88-2,9.34,9.34,0,0,1-.45-1.12c0-.13-.09-.29-.13-.45a7.73,7.73,0,0,1-.23-1.47c0-.11,0-.26,0-.43a7.86,7.86,0,1,1,15.71,0,3.91,3.91,0,0,1,0,.43,8.07,8.07,0,0,1-.22,1.45c0,.18-.1.33-.15.49a9.34,9.34,0,0,1-.44,1.1,8.31,8.31,0,0,1-.9,2,3.83,3.83,0,0,0,0,1l2,11.82a6.23,6.23,0,0,1-1.37,4.59,7.08,7.08,0,0,1-4.38,2.64Zm-4-4.18h3.57a2.92,2.92,0,0,0,1.48-.79c.73-1.11.76-1.22.71-1.85l-2-11.6a6.28,6.28,0,0,1,.45-3.69c.14-.26.25-.46.32-.61l-.06-.24.45-.81a3.52,3.52,0,0,0,.32-.72l.07-.24a3.38,3.38,0,0,0,.1-.72c0-.09,0-.19,0-.27a3.68,3.68,0,0,0-7.35,0l0,.26a3.76,3.76,0,0,0,.1.75c0,.05,0,.12.06.19a3.71,3.71,0,0,0,.31.72l.48.82-.07.26c.07.15.18.35.32.61a6.31,6.31,0,0,1,.46,3.66l-2,11.63c-.05.63,0,.74.71,1.85A3,3,0,0,0,1452.61,233.94Zm-1.24-19.29v0Z"/><path d="M1069.47,271.48a2.79,2.79,0,0,1-4,0l-17.85-17.85a2.8,2.8,0,0,1,4-3.95l17.84,17.84A2.81,2.81,0,0,1,1069.47,271.48Z"/><path d="M1051.12,290.86a2.87,2.87,0,0,1-4.06,0l-26.52-26.53a2.86,2.86,0,1,1,4-4.05l26.53,26.52A2.87,2.87,0,0,1,1051.12,290.86Z"/><path d="M1060.12,228.32,1007.45,281a2.92,2.92,0,0,1-4.13,0l-11.7-11.71a2.92,2.92,0,0,1,0-4.13l52.66-52.66a2.92,2.92,0,0,1,4.13,0l11.71,11.7A2.92,2.92,0,0,1,1060.12,228.32Zm-54.73,46.47,48.53-48.53-7.57-7.57-48.54,48.53Z"/><path d="M962.51,182.52a2.78,2.78,0,0,1-3.91,0l-25.17-25.17a2.76,2.76,0,1,1,3.91-3.91l25.17,25.18A2.77,2.77,0,0,1,962.51,182.52Z"/><path d="M1081.11,302a14.3,14.3,0,0,1-20.2,0l-.78-.78a2.92,2.92,0,0,1,0-4.13L1076.2,281a2.92,2.92,0,0,1,4.13,0l.78.78A14.3,14.3,0,0,1,1081.11,302Zm-14.65-3a8.45,8.45,0,0,0,11.67-11.67Z"/><path d="M1087.85,277.61l-31.11,31.11a2.92,2.92,0,0,1-4.13,0l-11.42-11.43a2.9,2.9,0,0,1,0-4.13l31.1-31.1a2.92,2.92,0,0,1,4.13,0l11.43,11.42A2.92,2.92,0,0,1,1087.85,277.61Zm-33.18,24.91,27-27-7.29-7.29-27,27Z"/><path d="M945.59,196.76,911.4,162.57a3.84,3.84,0,0,1-1.09-2.22L906,126.66l34.53,5.49a3.86,3.86,0,0,1,2.1,1.07L983,173.54l4.14-4.1L946.77,129.1a9.66,9.66,0,0,0-5.31-2.71l-38.36-6.1a2.89,2.89,0,0,0-2.49.78,2.82,2.82,0,0,0-.86,2.47l4.78,37.55a9.76,9.76,0,0,0,2.75,5.61l34.19,34.18a2.91,2.91,0,0,0,4.11,0h0A2.91,2.91,0,0,0,945.59,196.76Z"/><path d="M986.35,237.52l-4.2,4,18.19,18.2a3,3,0,0,0,3.86.43,2.92,2.92,0,0,0,.38-4.44Z"/><path d="M1038.54,220.87,1026.66,209a2.92,2.92,0,0,0-4.09,0h0a2.92,2.92,0,0,0,0,4.16l12,12a2.91,2.91,0,0,0,4.44-.37A3,3,0,0,0,1038.54,220.87Z"/><path d="M920.21,288.39a2.78,2.78,0,0,1,0-3.95l17.84-17.84a2.79,2.79,0,0,1,4,3.95L924.16,288.4A2.79,2.79,0,0,1,920.21,288.39Z"/><path d="M900.82,270a2.88,2.88,0,0,1,0-4.05l26.53-26.53a2.87,2.87,0,1,1,4,4.06L904.88,270A2.87,2.87,0,0,1,900.82,270Z"/><path d="M963.36,279l-52.67-52.66a2.93,2.93,0,0,1,0-4.14l11.71-11.7a2.92,2.92,0,0,1,4.13,0l52.66,52.67a2.92,2.92,0,0,1,0,4.13L967.49,279A2.92,2.92,0,0,1,963.36,279Zm-46.47-54.73,48.53,48.53,7.58-7.57-48.54-48.53Z"/><path d="M931.81,223.5a2.91,2.91,0,0,1,0-4.12L1025,126.2a9.71,9.71,0,0,1,5.6-2.75l37.56-4.78a2.84,2.84,0,0,1,2.46.86,2.89,2.89,0,0,1,.78,2.49l-6.1,38.37a9.54,9.54,0,0,1-2.71,5.3L970.7,257.58a2.91,2.91,0,0,1-4.12-4.12l91.88-91.89a3.76,3.76,0,0,0,1.07-2.1L1065,125l-33.69,4.29a3.75,3.75,0,0,0-2.22,1.09L935.94,223.5A2.92,2.92,0,0,1,931.81,223.5Z"/><path d="M949.4,240.34a2.89,2.89,0,0,1,0-4.09l41.35-41.35a2.89,2.89,0,0,1,4.08,4.09l-41.35,41.35A2.9,2.9,0,0,1,949.4,240.34Z"/><path d="M998.49,192.11a2.93,2.93,0,0,1,0-4.14l9.77-9.76a2.92,2.92,0,1,1,4.13,4.13l-9.77,9.77A2.92,2.92,0,0,1,998.49,192.11Z"/><path d="M1015,175.62a2.76,2.76,0,0,1,0-3.9l25.17-25.17a2.76,2.76,0,0,1,3.9,3.9l-25.17,25.17A2.76,2.76,0,0,1,1015,175.62Z"/><path d="M889.7,300a14.3,14.3,0,0,1,0-20.2l.78-.79a2.92,2.92,0,0,1,4.13,0l16.07,16.07a2.92,2.92,0,0,1,0,4.13l-.78.79A14.3,14.3,0,0,1,889.7,300Zm3-14.65a8.44,8.44,0,0,0,11.66,11.66Z"/><path d="M914.07,306.77,883,275.66a2.92,2.92,0,0,1,0-4.13l11.43-11.42a2.92,2.92,0,0,1,4.13,0l31.11,31.11a2.92,2.92,0,0,1,0,4.13L918.2,306.77A2.92,2.92,0,0,1,914.07,306.77ZM889.16,273.6l27,27,7.29-7.3-27-27Z"/><path d="M388.63,255.13a8.67,8.67,0,0,0,0,17.34Z"/><path d="M388.63,275.45h-.09a11.65,11.65,0,0,1,0-23.29,3,3,0,0,1,3.07,3v17.34a3,3,0,0,1-.9,2.13A3,3,0,0,1,388.63,275.45Zm-3-16.35a5.69,5.69,0,0,0,0,9.4Z"/><path d="M423.52,274.32a10.53,10.53,0,1,1,10.53-10.52A10.53,10.53,0,0,1,423.52,274.32Zm0-15.09a4.57,4.57,0,1,0,4.57,4.57A4.57,4.57,0,0,0,423.52,259.23Z"/><path d="M466.3,274.32a10.53,10.53,0,1,1,10.52-10.52A10.54,10.54,0,0,1,466.3,274.32Zm0-15.09a4.57,4.57,0,1,0,4.56,4.57A4.58,4.58,0,0,0,466.3,259.23Z"/><path d="M509.07,274.32a10.53,10.53,0,1,1,10.52-10.52A10.54,10.54,0,0,1,509.07,274.32Zm0-15.09a4.57,4.57,0,1,0,4.56,4.57A4.58,4.58,0,0,0,509.07,259.23Z"/><path d="M551.84,274.32a10.53,10.53,0,1,1,10.52-10.52A10.54,10.54,0,0,1,551.84,274.32Zm0-15.09a4.57,4.57,0,1,0,4.56,4.57A4.58,4.58,0,0,0,551.84,259.23Z"/><path d="M581.71,203.93q-1.65,2.1-3.54,4.1a96,96,0,0,0-20.93-32.17c2.29-1,4.7-1.92,7.19-2.84,5.77-2.12,12.31-4.53,18.69-9.5a130,130,0,0,0,12.81-11.62,92.56,92.56,0,0,1-3.74,31.79,3,3,0,0,0,.73,3l.05,0a3,3,0,0,0,4.88-1.21c5.21-16.48,4.43-32.7,3.45-41.09a3,3,0,0,0-5.23-1.58c-.55.64-1.35,1.56-2.33,2.65a128.84,128.84,0,0,1-14.28,13.29c-5.65,4.4-11.46,6.54-17.09,8.6a72.76,72.76,0,0,0-11.67,5.1,3,3,0,0,0-.54,4.75,89.74,89.74,0,0,1,23.93,37,3,3,0,0,0,2.83,2.05,3,3,0,0,0,2-.76c.42-.38.83-.75,1.23-1.13a62,62,0,0,0,6.24-6.83,3,3,0,0,0-.33-4l0,0A2.94,2.94,0,0,0,581.71,203.93Z"/><path d="M487.68,224a10.53,10.53,0,1,1,10.53-10.52A10.53,10.53,0,0,1,487.68,224Zm0-15.09a4.57,4.57,0,1,0,4.56,4.57A4.57,4.57,0,0,0,487.68,208.86Z"/><path d="M487.68,182.57a10.53,10.53,0,1,1,10.53-10.52A10.53,10.53,0,0,1,487.68,182.57Zm0-15.09a4.57,4.57,0,1,0,4.56,4.57A4.57,4.57,0,0,0,487.68,167.48Z"/><path d="M510.51,144a8.31,8.31,0,0,0-5.39-2.39,76.72,76.72,0,0,0-18.25-2,75.92,75.92,0,0,0-16.62,2,8.2,8.2,0,0,0-7.8,8.17v63.45l6,.05v-63.5a2.22,2.22,0,0,1,2.23-2.21,2.67,2.67,0,0,0,.69-.09,70.47,70.47,0,0,1,15.6-1.92,71.7,71.7,0,0,1,17.1,1.92,2.72,2.72,0,0,0,.69.09,2.35,2.35,0,0,1,1.58.64,2.27,2.27,0,0,1,.65,1.57V239H468.41v-9a7.88,7.88,0,0,1-1.94.25h-4V242a3,3,0,0,0,3,3h44.5a3,3,0,0,0,3-3V149.81A8.21,8.21,0,0,0,510.51,144Z"/><path d="M462.45,231v7.24a.73.73,0,0,1-.74.73H397.79a.74.74,0,0,1-.74-.77c1.28-35.48,24.62-59.28,27.35-61.94a97.78,97.78,0,0,1,37.09-22,.74.74,0,0,1,1,.71v57.54a.73.73,0,0,0,.72.73l4.5,0a.74.74,0,0,0,.74-.73v-62.5a3,3,0,0,0-1.15-2.35,3,3,0,0,0-2.56-.54A101.48,101.48,0,0,0,420.24,172h0c-3,2.91-29.21,29.63-29.21,69.24h0a3.82,3.82,0,0,0,3.78,3.7H464.7a3.72,3.72,0,0,0,3.71-3.72V231a.74.74,0,0,0-.74-.73l-4.5.06A.74.74,0,0,0,462.45,231Z"/><path d="M581.34,245H509.93a3,3,0,0,1-3-3V151.07a3,3,0,0,1,3.8-2.87c35.44,10.09,73.58,43.51,73.58,93.06V242A3,3,0,0,1,581.34,245Zm-68.42-6h65.42c-1.1-43.47-33.75-73.35-65.42-83.88Z"/><path d="M586.73,255.1v17.39a8.7,8.7,0,0,0,0-17.39Z"/><path d="M586.73,275.47a3,3,0,0,1-3-3V255.1a3,3,0,0,1,3-3,11.68,11.68,0,0,1,0,23.35Zm3-16.55v9.75a5.72,5.72,0,0,0,0-9.75Z"/><path d="M578.84,239H396.53a10.88,10.88,0,0,0-10.88,10.88v27.85a10.88,10.88,0,0,0,10.88,10.88H522.75a3,3,0,0,0,3-3v-.06a2.94,2.94,0,0,0-3-2.92H396.53a4.92,4.92,0,0,1-4.92-4.92V249.87a4.91,4.91,0,0,1,4.92-4.91h182.3a4.91,4.91,0,0,1,4.92,4.91v27.85a4.91,4.91,0,0,1-4.91,4.92H568.35a3,3,0,0,0-3,2.95v.06a3,3,0,0,0,3,3h10.48a10.88,10.88,0,0,0,10.88-10.88V249.87A10.88,10.88,0,0,0,578.84,239Z"/><path d="M553.69,288.6h-8a3,3,0,0,1-3-3h0a3,3,0,0,1,3-3h8a3,3,0,0,1,3,3h0A3,3,0,0,1,553.69,288.6Z"/><path d="M462.45,212.85v-8a3,3,0,0,1,2.95-3h0a3,3,0,0,1,3,3v8a3,3,0,0,1-3,3h0A3,3,0,0,1,462.45,212.85Z"/><path d="M462.45,238.51v-8a3,3,0,0,1,2.95-3h0a3,3,0,0,1,3,3v8a3,3,0,0,1-3,3h0A3,3,0,0,1,462.45,238.51Z"/><path d="M423.9,171.24a90.44,90.44,0,0,0-9.27-3.81l-.52-.19a3,3,0,0,0-3.83,1.75l0,.08a3,3,0,0,0,1.78,3.76l.54.19c1.69.63,3.34,1.23,4.93,1.88a109.73,109.73,0,0,0-19.75,31.95c-15.67-17.38-17.37-40.84-16.68-54.95a130.67,130.67,0,0,0,13.05,11.81h0c.71-2,1.46-3.89,2.23-5.83a130.77,130.77,0,0,1-13.1-12.35c-1-1.09-1.78-2-2.33-2.65a3,3,0,0,0-5.23,1.58c-1.58,13.55-2.67,47.49,21.14,70a3,3,0,0,0,4.89-1.18,100.74,100.74,0,0,1,22.74-37.06l.18-.17a3,3,0,0,0-.75-4.8Z"/><path d="M400.47,160.92a82.58,82.58,0,0,1-11.39-9.37l-8.37-.09a91.82,91.82,0,0,0,16.47,14.44,3,3,0,0,0,4.58-2.09v-.06A3,3,0,0,0,400.47,160.92Z"/><line class="cls-6" x1="1048.75" y1="553.15" x2="979.2" y2="553.15"/><polyline class="cls-7" points="961.03 553.15 878.7 553.15 889.21 573.02 878.7 600.56 889.49 624.69 878.7 651.09 888.64 674.94 878.7 702.19 882.68 711.84"/><polyline class="cls-7" points="889.21 728.59 878.7 745.34 1011.84 745.34"/><polyline class="cls-7" points="904.07 599.28 915.14 567.56 918.98 578.74"/><polyline class="cls-7" points="922.06 588.96 925.47 599.28 914.93 599.28 914.93 613.34"/><polyline class="cls-8" points="946.46 672.78 955.72 646.25 958.93 655.6"/><polyline class="cls-8" points="961.51 664.15 964.36 672.78 955.54 672.78 955.54 684.54"/><path class="cls-7" d="M930.37,720.64a41,41,0,0,0,6.76-.77"/><path class="cls-9" d="M949.46,716.1a58.16,58.16,0,0,0,25.19-20.79c8-11.66,13.31-25.91,12.56-37.48a32.59,32.59,0,0,0-1.62-8.43c-3.36-9.72-10.9-15.22-13.28-16.9-7.39-5.24-12.61-5.09-20.44-12.14a17.47,17.47,0,0,1-3.27-3.77c-.54-.85-4.8-7.81-1.84-15.44a17.29,17.29,0,0,1,7.24-8.32c2.79-1.74,6.48-2.36,13.63-2.92l.38,0"/><path class="cls-7" d="M974.45,589.33c2.09-.17,4.36-.35,6.8-.48"/><path class="cls-7" d="M1039.14,598.76l-7.41-7.7a2.6,2.6,0,0,1,.07-3.68l7.69-7.42a2.6,2.6,0,0,0,.07-3.68l-8.4-8.72a2.6,2.6,0,0,0-3.68-.07l-7.7,7.41a2.62,2.62,0,0,1-3.69-.06l-7.41-7.7a2.6,2.6,0,0,0-3.68-.07l-8.72,8.4a2.61,2.61,0,0,0-.07,3.69l7.41,7.69a2.61,2.61,0,0,1-.07,3.69L995.86,598a2.62,2.62,0,0,0-.07,3.69l8.4,8.71a2.61,2.61,0,0,0,3.69.07l7.69-7.41a2.61,2.61,0,0,1,3.69.07l7.41,7.69a2.6,2.6,0,0,0,3.68.07l8.72-8.4A2.6,2.6,0,0,0,1039.14,598.76Z"/><path d="M917.68,738.87a2.93,2.93,0,0,1-2.11-.89l-4.19-4.36-4.4,4.2a2.92,2.92,0,0,1-4.12-.08l-4.75-4.93a2.84,2.84,0,0,1-.82-2.08,2.89,2.89,0,0,1,.89-2.05l4.35-4.19-4.19-4.4a2.93,2.93,0,0,1,.08-4.13l4.93-4.75a2.76,2.76,0,0,1,2.08-.81,2.89,2.89,0,0,1,2.05.89l4.19,4.35,4.4-4.19a2.93,2.93,0,0,1,4.13.08l4.75,4.93a2.93,2.93,0,0,1-.08,4.13l-4.35,4.19,4.19,4.39h0a2.92,2.92,0,0,1-.08,4.13l-4.93,4.75A2.89,2.89,0,0,1,917.68,738.87Z"/><path d="M911.36,730.72a2.89,2.89,0,0,1,2.1.9l4.19,4.35,6-5.79-1,1-4.19-4.35a2.93,2.93,0,0,1,.08-4.13l4.35-4.19-4.75-5-4.39,4.2a2.93,2.93,0,0,1-4.13-.08l-4.19-4.35-5,4.75,4.19,4.39a2.93,2.93,0,0,1-.08,4.13l-4.35,4.19,4.75,5,4.39-4.19A3,3,0,0,1,911.36,730.72Z"/><polyline class="cls-7" points="999.55 686.15 1014.02 658.47 1022.01 673.48"/><polyline class="cls-7" points="1024.67 679.12 1028.39 687.32 1022.01 687.32 1027.76 705.1 1013.81 705.1 1013.81 717.87"/><polyline class="cls-7" points="1005.51 687.43 999.55 704.99 1005.08 704.99"/><polyline class="cls-10" points="903.88 649.8 914.8 628.93 920.82 640.25"/><polyline class="cls-10" points="922.83 644.5 925.64 650.69 920.82 650.69 925.15 664.1 914.64 664.1 914.64 673.73"/><polyline class="cls-10" points="908.37 650.77 903.88 664.01 908.05 664.01"/><path d="M1050.91,724.44a2.55,2.55,0,0,1-2.19-1.24,19.82,19.82,0,0,1-2-4.38,14.47,14.47,0,0,1-.57-4,2.48,2.48,0,0,1,2.52-2.43h0a2.58,2.58,0,0,1,2.55,2.55,9.88,9.88,0,0,0,.36,2.39,14.16,14.16,0,0,0,1.44,3.2,2.56,2.56,0,0,1-2.19,3.87Z"/><path d="M1061.15,730.6a14.25,14.25,0,0,1-5.62-1.13,15.07,15.07,0,0,1-6.79-6.05,2.74,2.74,0,0,1,0-3,2.66,2.66,0,0,1,4.46.12,9.83,9.83,0,0,0,4.44,4.09,8.92,8.92,0,0,0,3.54.71c5.69,0,7-1.83,7.87-3a8.27,8.27,0,0,0,.75-1.33,2.76,2.76,0,0,1,2.66-1.7,2.66,2.66,0,0,1,2.24,3.74,13.64,13.64,0,0,1-1.32,2.36C1071.47,728,1068.56,730.6,1061.15,730.6Z"/><path d="M1072.25,724.54a2.62,2.62,0,0,1-1.09-.24,2.65,2.65,0,0,1-1.33-3.51c.41-.9,1.67-4.06.73-6.92-.78-2.39-3.61-2.82-3.64-2.83a2.65,2.65,0,1,1,.68-5.26,9.9,9.9,0,0,1,8,6.44c1.49,4.55-.16,9-.94,10.76A2.66,2.66,0,0,1,1072.25,724.54Z"/><path d="M1072.2,748h-41.51a2.65,2.65,0,1,1-.07-5.3h41.15c1.94-.69,11.75-4.57,13.93-13.61a41.73,41.73,0,0,0,1.08-7.2,2.73,2.73,0,0,1,1.92-2.55,2.67,2.67,0,0,1,3.39,2.71,47.25,47.25,0,0,1-1.23,8.29c-3.13,13-17.3,17.37-17.9,17.55A2.41,2.41,0,0,1,1072.2,748Z"/><path d="M1087,703h0a24.09,24.09,0,0,0-13.49-8.46,25.51,25.51,0,0,0-5.36-.56,21.57,21.57,0,0,0-14.1,4.89,21.85,21.85,0,0,0-2.73,2.72V691.12h-5.11V714a2.56,2.56,0,0,0,2.56,2.56h0a2.54,2.54,0,0,0,2.55-2.43c.16-4.87,3.33-9.19,6-11.42,5.77-4.85,13-3.73,15.09-3.26,8.61,1.88,12.62,9.26,13.5,11.1h0a34.79,34.79,0,0,1,1,11.15,2.59,2.59,0,0,0,.74,1.91,2.68,2.68,0,0,0,1.91.8,2.56,2.56,0,0,0,2.56-2.55V575H1087Z"/><path d="M1068,530.33c-12.36.58-21.85,11.28-21.85,23.66V674l.07.06h5l.06-.06V553.85c0-9.32,6.9-17.51,16.18-18.36A17.86,17.86,0,0,1,1087,553.26v2.14l2.53,2.53h0l2.53-2.53v-2.14A23,23,0,0,0,1068,530.33Z"/><path d="M1087,552.8V557a2.56,2.56,0,1,0,5.11,0V552.8Z"/><path d="M1092.11,577.92v-4.19a2.56,2.56,0,0,0-5.11,0v4.19Z"/><path d="M1051.31,695.11v-4.19a2.56,2.56,0,1,0-5.11,0v4.19Z"/><path d="M1046.2,670.2v4.18a2.56,2.56,0,1,0,5.11,0V670.2Z"/><text class="cls-2" transform="translate(859.87 813.02)">Con<tspan class="cls-11" x="78.74" y="0">t</tspan><tspan class="cls-12" x="95.42" y="0">ac</tspan><tspan class="cls-11" x="144.24" y="0">t</tspan><tspan class="cls-12" x="160.93" y="0">ame</tspan></text><text class="cls-2" transform="translate(435.06 813.02)">Blog</text></svg>