<svg id="Capa_1" data-name="Capa 1" xmlns="http://www.w3.org/2000/svg" viewBox="0 0 71.16 70.17"><defs><style>.cls-1{fill:#ffff;}</style></defs><title>otros</title><path class="cls-1" d="M14.63,30.3a23.49,23.49,0,0,1,47-.19h-.81A22.67,22.67,0,0,0,38.12,7.53H38A22.69,22.69,0,0,0,15.44,30.29Z"/><path class="cls-1" d="M14.29,30.64V30.3A23.85,23.85,0,0,1,38,6.38h.11A23.81,23.81,0,0,1,61.94,30.11v.34H60.45v-.35A22.33,22.33,0,0,0,38.12,7.87H38A22.37,22.37,0,0,0,15.78,30.29v.34ZM38.13,7.07H38A23.15,23.15,0,0,0,15,30h.12A23,23,0,0,1,38,7.18h.09a23,23,0,0,1,23,22.59h.12A23.12,23.12,0,0,0,38.13,7.07Z"/><path class="cls-1" d="M55.72,51.8l0-11.82q-.37-.69-.81-1.35l.05,13.17A2.18,2.18,0,0,0,56,53.7c.12-.25.22-.5.32-.75A1.36,1.36,0,0,1,55.72,51.8Z"/><path class="cls-1" d="M56.2,54.18,55.87,54a2.51,2.51,0,0,1-1.29-2.18l-.06-14.32.63.95c.29.44.57.89.83,1.38L56,40l0,11.81a1,1,0,0,0,.48.86l.25.15-.11.26c-.1.26-.21.52-.33.77Zm-1-14.32,0,11.94a1.82,1.82,0,0,0,.64,1.38.61.61,0,0,1,.05-.12,1.68,1.68,0,0,1-.57-1.26l0-11.73Z"/><path class="cls-1" d="M67.62,35A5.6,5.6,0,0,0,62,29.46h0l-5,0a2.17,2.17,0,0,0-2.16,2.18l0,5.6q.44.56.81,1.14l0-6.75A1.38,1.38,0,0,1,57,30.28l5,0h0A4.8,4.8,0,0,1,66.82,35l.05,13.29a4.8,4.8,0,0,1-4.78,4.81l-4.94,0c-.11.27-.22.53-.34.79l.28,0h0l5,0a5.61,5.61,0,0,0,4-1.66,5.56,5.56,0,0,0,1.62-4Z"/><path class="cls-1" d="M57.1,54.31l-.34,0-.46-.07.2-.42c.12-.25.22-.51.32-.76l.09-.22,5.18,0a4.47,4.47,0,0,0,4.44-4.47l0-13.29A4.46,4.46,0,0,0,62,30.61l-5,0a1,1,0,0,0-.73.3,1,1,0,0,0-.29.72l0,7.89-.63-.95c-.25-.39-.52-.76-.8-1.12l-.07-.09,0-5.72a2.45,2.45,0,0,1,.73-1.78A2.51,2.51,0,0,1,57,29.13l5,0A6,6,0,0,1,68,35h0L68,48.33a5.82,5.82,0,0,1-1.72,4.2,5.88,5.88,0,0,1-4.19,1.76l-5,0Zm.28-.8a.37.37,0,0,0-.05.11l4.77,0a5.15,5.15,0,0,0,3.7-1.55,5.21,5.21,0,0,0,1.53-3.72l0-13.29A5.26,5.26,0,0,0,62,29.8l-5,0a1.83,1.83,0,0,0-1.82,1.83l0,5.49.13.16,0-5.64A1.72,1.72,0,0,1,57,29.94l5,0A5.14,5.14,0,0,1,67.16,35l0,13.29a5.16,5.16,0,0,1-5.12,5.16Z"/><path class="cls-1" d="M55.68,40V38.4q-.37-.59-.81-1.14v1.37Q55.3,39.29,55.68,40Z"/><path class="cls-1" d="M56,41.36l-.64-1.21c-.26-.47-.52-.9-.8-1.33l0-.08V36.25l.61.8c.29.37.57.76.83,1.16l0,.08Zm-.81-2.83.12.18V38.5l-.12-.18Z"/><path class="cls-1" d="M57.1,53.16h0a1.41,1.41,0,0,1-.73-.21c-.1.25-.2.5-.32.75a2.4,2.4,0,0,0,.77.25c.12-.26.23-.52.34-.79Z"/><path class="cls-1" d="M57,54.32l-.25,0a2.35,2.35,0,0,1-.89-.3l-.28-.15.14-.29c.11-.24.22-.48.32-.73l.15-.38.35.22a1,1,0,0,0,.54.16h.55l-.18.47a8.08,8.08,0,0,1-.35.8Zm-.52-.8.12,0,0-.11-.12,0A.37.37,0,0,1,56.49,53.52Z"/><path class="cls-1" d="M55.45,63.44H5.05a.4.4,0,0,1,0-.8h50.4a.4.4,0,1,1,0,.8Z"/><path class="cls-1" d="M55.45,63.79H5.05a.75.75,0,0,1,0-1.5h50.4a.75.75,0,0,1,0,1.5ZM5.05,63v.12h50.4a.06.06,0,0,0,.06-.06Z"/><path class="cls-1" d="M44.84,61a3.45,3.45,0,0,1,0-6.89h0A3.45,3.45,0,0,1,47.29,60a3.49,3.49,0,0,1-2.44,1Zm0-6.27h0a2.82,2.82,0,1,0,0,5.64h0a2.82,2.82,0,0,0,2.81-2.83h0A2.82,2.82,0,0,0,44.84,54.72Z"/><path class="cls-1" d="M44.85,61.33h0a3.79,3.79,0,0,1-3.79-3.77,3.79,3.79,0,1,1,7.57,0,3.7,3.7,0,0,1-1.09,2.68A3.77,3.77,0,0,1,44.85,61.33Zm0-6.27a2.49,2.49,0,0,0-2.47,2.49,2.46,2.46,0,0,0,.73,1.75,2.56,2.56,0,0,0,3.51,0,2.52,2.52,0,0,0,.72-1.76,2.48,2.48,0,0,0-2.48-2.47Z"/><path class="cls-1" d="M48,57.84v-.62l5.16,0a3.45,3.45,0,0,0,2.42-1,3.41,3.41,0,0,0,1-2.43h.63a4.05,4.05,0,0,1-4,4.06Z"/><path class="cls-1" d="M47.63,58.18v-1.3l5.52,0a3,3,0,0,0,2.16-.91,3,3,0,0,0,.9-2.18v-.34h1.31v.35a4.38,4.38,0,0,1-1.27,3.1,4.33,4.33,0,0,1-3.1,1.3Z"/><path class="cls-1" d="M8.65,35.52v-.25a4.81,4.81,0,0,1,4.78-4.82l4.69,0h0a1.68,1.68,0,0,1,1.68,1.68v3.41h.81V32.1a2.49,2.49,0,0,0-2.49-2.47h0l-4.68,0a5.6,5.6,0,0,0-5.58,5.62v.25Z"/><path class="cls-1" d="M21,35.87h-1.5V32.11a1.34,1.34,0,0,0-1.34-1.33l-4.69,0a4.43,4.43,0,0,0-3.14,1.31A4.49,4.49,0,0,0,9,35.27l0,.6H7.5v-.6a6,6,0,0,1,5.92-6h4.69a2.84,2.84,0,0,1,2.83,2.81Zm-.81-.69h.11V32.1A2.15,2.15,0,0,0,18.11,30H13.42a5.28,5.28,0,0,0-5.24,5.19H8.3a5.14,5.14,0,0,1,5.12-5.07l4.69,0a2,2,0,0,1,2,2Z"/><path class="cls-1" d="M22.64,50.26a.83.83,0,0,1,0-.78l1-1.85a.13.13,0,0,0,0-.11.09.09,0,0,0-.09-.05H21.63a.82.82,0,0,1-.72-.43l-1.15-2.15s-.06,0-.1-.06a.11.11,0,0,0-.09.06L18.4,47a.82.82,0,0,1-.72.43h-2a.1.1,0,0,0-.09.05.1.1,0,0,0,0,.11l1,1.89a.8.8,0,0,1,0,.78l-1,1.85a.13.13,0,0,0,0,.11s0,.05.09.05h1.93a.81.81,0,0,1,.72.43l1.16,2.15a.09.09,0,0,0,.09.06h0a.09.09,0,0,0,.09-.06l1.18-2.16a.82.82,0,0,1,.72-.42h2a.13.13,0,0,0,.09-.05.1.1,0,0,0,0-.11Z"/><path class="cls-1" d="M19.63,40.12a9.77,9.77,0,1,0,9.77,9.77A9.78,9.78,0,0,0,19.63,40.12Zm4.64,12.5a.81.81,0,0,1-.7.4h-2a.11.11,0,0,0-.09,0l-1.18,2.16a.81.81,0,0,1-.72.43h0a.84.84,0,0,1-.72-.43l-1.15-2.16a.12.12,0,0,0-.1,0H15.7A.81.81,0,0,1,15,51.81L16,50a.17.17,0,0,0,0-.1L15,48a.79.79,0,0,1,0-.8.81.81,0,0,1,.7-.4h2a.1.1,0,0,0,.09-.06L19,44.54a.81.81,0,0,1,.71-.42h0a.82.82,0,0,1,.72.43l1.15,2.15a.11.11,0,0,0,.09.06h1.93a.83.83,0,0,1,.71.4.81.81,0,0,1,0,.81l-1,1.85a.09.09,0,0,0,0,.1l1,1.9A.79.79,0,0,1,24.27,52.62Z"/><path class="cls-1" d="M38.75,36.85l-.08-.67-.08.09a2.59,2.59,0,0,0-2.39-1.63H8.3a2.59,2.59,0,0,0-2.59,2.58v2.29a2.57,2.57,0,0,0,.8,1.86,2.64,2.64,0,0,0-.8,1.89V44.8A2.72,2.72,0,0,0,6,46H5.93a2.79,2.79,0,0,0-2.79,2.79V50a2.79,2.79,0,0,0,2.79,2.78h.13a2.74,2.74,0,0,0-.35,1.3v1.51A2.68,2.68,0,0,0,8.38,58.3h.56l-.14-.44q-.12-.39-.21-.78l-.05-.25-.26,0A1.19,1.19,0,0,1,7.2,55.63V54.12a1.18,1.18,0,0,1,1.18-1.18h.13a9.56,9.56,0,0,1-.32-1.61H5.93A1.3,1.3,0,0,1,4.63,50V48.76a1.3,1.3,0,0,1,1.3-1.3H8.35A12.16,12.16,0,0,1,8.78,46H8.37A1.18,1.18,0,0,1,7.2,44.8V43.26A1.17,1.17,0,0,1,8.37,42.1h2.38a.63.63,0,0,0,.63-.62v-.26a.63.63,0,0,0-.63-.62H8.3a1.09,1.09,0,0,1-1.1-1.09V37.22a1.09,1.09,0,0,1,1.1-1.09H36.2a1.09,1.09,0,0,1,1.09,1.09v2.29a1.1,1.1,0,0,1-.82,1.06l-.27,0H26.48a12.43,12.43,0,0,1,1.66,1.5h8a1.17,1.17,0,0,1,1.16,1.17V44.8A1.17,1.17,0,0,1,36.12,46H30.48a10.65,10.65,0,0,1,.44,1.49H36a.65.65,0,0,1,.2,0,1.3,1.3,0,0,1,1.1,1.28V50a.62.62,0,0,1,0,.13,1.17,1.17,0,0,1-.16.51h0a1.3,1.3,0,0,1-1.12.64H31.08a12.07,12.07,0,0,1-.32,1.61h5.35a1.18,1.18,0,0,1,1.18,1.18v1.51a1.18,1.18,0,0,1-1.18,1.18H28.86a12.41,12.41,0,0,1-1.46,1.61h8.79a1.1,1.1,0,0,1,1.1,1.1V61.2a1.09,1.09,0,0,1-1.1,1.09H18.66l-.15,0a7.35,7.35,0,0,1-3.1.69,7.47,7.47,0,0,1-1-.08l-2.84-.38,2.67,1a2.64,2.64,0,0,0,.95.19h21a2.59,2.59,0,0,0,2.59-2.59V59.52a2.59,2.59,0,0,0-.87-1.93,2.64,2.64,0,0,0,.87-2V54.12a2.66,2.66,0,0,0-.94-2l.08-.08,0,0,.24-.32,0,0,.07-.09,0,0,.23-.51.08-.19v0a2.62,2.62,0,0,0,.17-.91V48.76a2.74,2.74,0,0,0-.86-2,2.64,2.64,0,0,0,.86-2V43.26A2.64,2.64,0,0,0,38,41.37a2.59,2.59,0,0,0,.79-1.86v-2.7Z"/><path class="cls-1" d="M29.36,40.16a13.75,13.75,0,1,0,4,9.73A13.7,13.7,0,0,0,29.36,40.16ZM19.63,61.44A11.55,11.55,0,1,1,31.18,49.89,11.55,11.55,0,0,1,19.63,61.44Z"/></svg>
