<svg id="Capa_1" data-name="Capa 1" xmlns="http://www.w3.org/2000/svg" viewBox="0 0 71.16 70.17"><defs><style>.cls-1{fill:#fff;}</style></defs><title>otros</title><path class="cls-1" d="M65.25,47H6V10.8A2.85,2.85,0,0,1,8.87,8H62.41a2.84,2.84,0,0,1,2.84,2.84ZM7.36,45.69H63.92V10.8a1.52,1.52,0,0,0-1.51-1.51H8.87A1.52,1.52,0,0,0,7.36,10.8Z"/><path class="cls-1" d="M65.38,47.15H5.9V10.8a3,3,0,0,1,3-3H62.41a3,3,0,0,1,3,3ZM6.15,46.9h59V10.8a2.72,2.72,0,0,0-2.72-2.72H8.87A2.72,2.72,0,0,0,6.15,10.8ZM64,45.81H7.23v-35A1.64,1.64,0,0,1,8.87,9.17H62.41A1.63,1.63,0,0,1,64,10.8ZM7.48,45.56H63.79V10.8a1.38,1.38,0,0,0-1.38-1.38H8.87A1.39,1.39,0,0,0,7.48,10.8Z"/><path class="cls-1" d="M65.5,47.27H5.77V10.8a3.1,3.1,0,0,1,3.1-3.09H62.41A3.1,3.1,0,0,1,65.5,10.8Zm-59.23-.5H65v-36a2.59,2.59,0,0,0-2.59-2.59H8.87a2.6,2.6,0,0,0-2.6,2.59Zm57.9-.83H7.11V10.8A1.76,1.76,0,0,1,8.87,9H62.41a1.76,1.76,0,0,1,1.76,1.76Zm-56.56-.5H63.67V10.8a1.27,1.27,0,0,0-1.26-1.26H8.87A1.26,1.26,0,0,0,7.61,10.8Z"/><path class="cls-1" d="M65.63,47.4h-60V10.8A3.22,3.22,0,0,1,8.87,7.58H62.41a3.23,3.23,0,0,1,3.22,3.22ZM5.9,47.15H65.38V10.8a3,3,0,0,0-3-3H8.87a3,3,0,0,0-3,3Zm59.23-.25h-59V10.8A2.72,2.72,0,0,1,8.87,8.08H62.41a2.72,2.72,0,0,1,2.72,2.72ZM6.4,46.65H64.88V10.8a2.48,2.48,0,0,0-2.47-2.47H8.87A2.48,2.48,0,0,0,6.4,10.8Zm57.89-.59H7V10.8A1.89,1.89,0,0,1,8.87,8.92H62.41a1.88,1.88,0,0,1,1.88,1.88ZM7.23,45.81H64v-35a1.63,1.63,0,0,0-1.63-1.63H8.87A1.64,1.64,0,0,0,7.23,10.8Zm56.56-.25H7.48V10.8A1.39,1.39,0,0,1,8.87,9.42H62.41a1.38,1.38,0,0,1,1.38,1.38ZM7.73,45.31H63.54V10.8a1.14,1.14,0,0,0-1.13-1.13H8.87A1.14,1.14,0,0,0,7.73,10.8Z"/><path class="cls-1" d="M69,57H2.13L7,46.77H64.32Zm-66.12-.5H68.25L64,47.27H7.27Z"/><path class="cls-1" d="M69.23,57.09H1.93l5-10.44H64.4l0,.07Zm-66.9-.25H68.84l-4.6-9.94H7Zm66.12-.25H2.72l4.47-9.44H64.08l0,.07ZM3.12,56.34H68.06L63.92,47.4H7.35Z"/><path class="cls-1" d="M68.13,61.12H3A1.14,1.14,0,0,1,1.89,60V57.8H69.27V60A1.14,1.14,0,0,1,68.13,61.12ZM2.39,58.3V60a.63.63,0,0,0,.64.64h65.1a.64.64,0,0,0,.64-.64V58.3Z"/><path class="cls-1" d="M68.13,61.25H3A1.27,1.27,0,0,1,1.76,60v-2.3H69.4V60A1.27,1.27,0,0,1,68.13,61.25ZM2,57.93v2a1,1,0,0,0,1,1h65.1a1,1,0,0,0,1-1v-2Zm66.12,2.82H3A.78.78,0,0,1,2.26,60v-1.8H68.9V60A.78.78,0,0,1,68.13,60.75ZM2.51,58.43V60A.52.52,0,0,0,3,60.5h65.1a.52.52,0,0,0,.52-.52V58.43Z"/><polygon class="cls-1" points="7.11 47.02 64.16 47.02 68.64 56.72 70.11 56.72 65.01 45.69 6.27 45.69 1.05 56.72 2.52 56.72 7.11 47.02"/><path class="cls-1" d="M70.31,56.84H68.56l0-.07-4.45-9.62H7.19L2.6,56.84H.85L6.19,45.56h58.9l0,.07Zm-1.59-.25h1.2l-5-10.78H6.35L1.25,56.59h1.2L7,46.9H64.24l0,.07Z"/><path class="cls-1" d="M70.51,57h-2L64,47.27H7.27L2.68,57h-2L6.11,45.44H65.17Zm-1.71-.5h.92L64.85,45.94H6.43l-5,10.53h.93L7,46.77H64.32Z"/><path class="cls-1" d="M70.7,57.09H68.4l0-.07L63.92,47.4H7.35L2.76,57.09H.46L6,45.31H65.25l0,.07Zm-2.13-.25h1.74L65.09,45.56H6.19L.85,56.84H2.6l4.59-9.69H64.08l0,.07Zm1.35-.25h-1.2l0-.07L64.24,46.9H7L2.45,56.59H1.25l5.1-10.78H64.93l0,.07Zm-1-.25h.65L64.77,46.06H6.51L1.64,56.34h.65l4.59-9.69H64.4l0,.07Z"/><path class="cls-1" d="M69,58.05V60a.89.89,0,0,1-.89.89H3A.89.89,0,0,1,2.14,60V58.05H.8V60A2.23,2.23,0,0,0,3,62.21h65.1A2.23,2.23,0,0,0,70.36,60V58.05Z"/><path class="cls-1" d="M68.13,62.33H3A2.35,2.35,0,0,1,.68,60v-2H2.26v2a.78.78,0,0,0,.77.77h65.1A.78.78,0,0,0,68.9,60v-2h1.58v2A2.35,2.35,0,0,1,68.13,62.33ZM.93,58.18V60A2.1,2.1,0,0,0,3,62.08h65.1a2.1,2.1,0,0,0,2.1-2.1v-1.8H69.15V60a1,1,0,0,1-1,1H3a1,1,0,0,1-1-1v-1.8Z"/><path class="cls-1" d="M68.13,62.46H3A2.48,2.48,0,0,1,.55,60V57.8H2.39V60a.63.63,0,0,0,.64.64h65.1a.64.64,0,0,0,.64-.64V57.8h1.84V60A2.48,2.48,0,0,1,68.13,62.46ZM1.05,58.3V60a2,2,0,0,0,2,2h65.1a2,2,0,0,0,2-2V58.3h-.84V60a1.14,1.14,0,0,1-1.14,1.14H3A1.14,1.14,0,0,1,1.89,60V58.3Z"/><path class="cls-1" d="M68.13,62.58H3A2.59,2.59,0,0,1,.43,60v-2.3H2.51V60A.52.52,0,0,0,3,60.5h65.1a.52.52,0,0,0,.52-.52v-2.3h2.08V60A2.6,2.6,0,0,1,68.13,62.58ZM.68,57.93v2A2.35,2.35,0,0,0,3,62.33h65.1A2.35,2.35,0,0,0,70.48,60v-2H68.9v2a.78.78,0,0,1-.77.77H3A.78.78,0,0,1,2.26,60v-2Zm67.45,4.15H3A2.1,2.1,0,0,1,.93,60v-1.8H2V60a1,1,0,0,0,1,1h65.1a1,1,0,0,0,1-1v-1.8h1.08V60A2.1,2.1,0,0,1,68.13,62.08ZM1.18,58.43V60A1.85,1.85,0,0,0,3,61.83h65.1A1.85,1.85,0,0,0,70,60V58.43H69.4V60a1.27,1.27,0,0,1-1.27,1.27H3A1.27,1.27,0,0,1,1.76,60V58.43Z"/><polygon class="cls-1" points="69.02 58.05 70.36 58.05 70.36 57.24 70.11 56.72 68.64 56.72 2.52 56.72 1.05 56.72 0.8 57.24 0.8 58.05 2.14 58.05 69.02 58.05"/><path class="cls-1" d="M70.48,58.18H.68v-1L1,56.59H70.2l.28.65ZM.93,57.93h69.3v-.66l-.2-.43H1.13l-.2.43Z"/><path class="cls-1" d="M70.61,58.3H.55l0-1.17.31-.66H70.27l.34.77ZM1.05,57.8H70.11v-.51L70,57H1.21l-.16.32Z"/><path class="cls-1" d="M70.73,58.43H.43l0-1.35.34-.74H70.36l.37.9Zm-70-.25h69.8v-.91l-.29-.68H1l-.27.57Zm69.55-.25H.93v-.69l.19-.4H70l.19.45Zm-69-.25H70v-.36l-.1-.23H1.29l-.11.23Z"/><path class="cls-1" d="M46.21,58.05H25l2.22-5.54A1.93,1.93,0,0,1,29,51.2H41.91a2,2,0,0,1,1.84,1.3ZM27,56.72H44.16L42.51,53a.63.63,0,0,0-.6-.45H29a.61.61,0,0,0-.59.43Z"/><path class="cls-1" d="M46.41,58.18H24.8l2.28-5.71a2.06,2.06,0,0,1,2-1.39H41.91a2.09,2.09,0,0,1,2,1.37Zm-21.24-.25H46l-2.38-5.38a1.84,1.84,0,0,0-1.73-1.22H29a1.81,1.81,0,0,0-1.72,1.22Zm19.19-1.09H26.77l1.56-3.92a.75.75,0,0,1,.71-.51H41.91a.77.77,0,0,1,.72.54Zm-17.22-.25H44L42.4,53a.53.53,0,0,0-.49-.38H29a.51.51,0,0,0-.47.34Z"/><path class="cls-1" d="M46.6,58.3h-22L27,52.42A2.2,2.2,0,0,1,29,51H41.91A2.23,2.23,0,0,1,44,52.41Zm-21.25-.5H45.83l-2.31-5.2a1.72,1.72,0,0,0-1.61-1.15H29a1.7,1.7,0,0,0-1.61,1.14ZM44.55,57h-18l1.64-4.1a.86.86,0,0,1,.82-.58H41.91a.88.88,0,0,1,.84.62Zm-17.23-.5H43.78l-1.5-3.38a.41.41,0,0,0-.37-.3H29a.37.37,0,0,0-.35.25Z"/><path class="cls-1" d="M46.79,58.43H24.43l2.42-6.06A2.3,2.3,0,0,1,29,50.83H41.91a2.33,2.33,0,0,1,2.19,1.54Zm-22-.25H46.41l-2.54-5.72a2.08,2.08,0,0,0-2-1.38H29a2.07,2.07,0,0,0-2,1.38ZM46,57.93H25.17l2.15-5.39A1.81,1.81,0,0,1,29,51.33H41.91a1.84,1.84,0,0,1,1.73,1.22Zm-20.48-.25h20.1l-2.23-5a1.59,1.59,0,0,0-1.5-1.07H29a1.56,1.56,0,0,0-1.49,1.05Zm19.2-.59H26.4l1.7-4.26a1,1,0,0,1,.94-.67H41.91a1,1,0,0,1,1,.7Zm-18-.25H44.36L42.63,53a.77.77,0,0,0-.72-.55H29a.74.74,0,0,0-.7.5ZM44,56.59H27.14L28.57,53a.51.51,0,0,1,.47-.34H41.91a.54.54,0,0,1,.49.39Zm-16.46-.25H43.59l-1.42-3.2a.3.3,0,0,0-.26-.23H29a.24.24,0,0,0-.23.17Z"/><path class="cls-1" d="M57.08,41.41H14.2a1.82,1.82,0,0,1-1.82-1.81V29.66a.61.61,0,0,1,.61-.61.61.61,0,0,1,.61.61V39.6a.6.6,0,0,0,.6.59H57.08a.59.59,0,0,0,.59-.59V28.92a.62.62,0,0,1,.61-.61.61.61,0,0,1,.61.61V39.6A1.81,1.81,0,0,1,57.08,41.41Z"/><path class="cls-1" d="M57.08,41.52H14.2a1.92,1.92,0,0,1-1.93-1.92V29.66a.72.72,0,0,1,.72-.72.73.73,0,0,1,.73.72V39.6a.47.47,0,0,0,.48.47H57.08a.48.48,0,0,0,.48-.47V28.92a.72.72,0,0,1,.72-.72.73.73,0,0,1,.73.72V39.6A1.93,1.93,0,0,1,57.08,41.52ZM13,29.17a.49.49,0,0,0-.49.49V39.6a1.7,1.7,0,0,0,1.7,1.7H57.08a1.7,1.7,0,0,0,1.7-1.7V28.92a.5.5,0,0,0-1,0V39.6a.7.7,0,0,1-.71.7H14.2a.7.7,0,0,1-.71-.7V29.66A.49.49,0,0,0,13,29.17Z"/><path class="cls-1" d="M13,26.53a.61.61,0,0,1-.61-.61V15.38a1.82,1.82,0,0,1,1.82-1.81H57.08a1.81,1.81,0,0,1,1.81,1.81v10.4a.61.61,0,0,1-.61.61.61.61,0,0,1-.61-.61V15.38a.59.59,0,0,0-.59-.59H14.2a.6.6,0,0,0-.6.59V25.92A.61.61,0,0,1,13,26.53Z"/><path class="cls-1" d="M13,26.64a.72.72,0,0,1-.72-.72V15.38a1.92,1.92,0,0,1,1.93-1.92H57.08A1.93,1.93,0,0,1,59,15.38v10.4a.73.73,0,0,1-.73.72.72.72,0,0,1-.72-.72V15.38a.49.49,0,0,0-.48-.48H14.2a.48.48,0,0,0-.48.48V25.92A.73.73,0,0,1,13,26.64Zm1.21-13a1.7,1.7,0,0,0-1.7,1.7V25.92a.5.5,0,0,0,1,0V15.38a.7.7,0,0,1,.71-.7H57.08a.7.7,0,0,1,.71.7v10.4a.5.5,0,1,0,1,0V15.38a1.7,1.7,0,0,0-1.7-1.7Z"/><line class="cls-1" x1="33.88" y1="36.08" x2="50.98" y2="18.98"/><rect class="cls-1" x="30.34" y="27.42" width="24.18" height="0.23" transform="translate(-7.04 38.07) rotate(-45)"/><rect class="cls-1" x="30.34" y="27.3" width="24.18" height="0.46" transform="translate(-7.04 38.07) rotate(-45)"/><path class="cls-1" d="M34,36.4l-.48-.48L50.82,18.66l.48.49Zm-.16-.48.16.16L51,19.15,50.82,19Z"/><path class="cls-1" d="M33.88,36.63a.54.54,0,0,1-.39-.16.56.56,0,0,1,0-.78l17.1-17.1a.55.55,0,1,1,.78.78l-17.1,17.1A.54.54,0,0,1,33.88,36.63Z"/><path class="cls-1" d="M33.88,36.75a.65.65,0,0,1-.47-.2.63.63,0,0,1-.19-.47.64.64,0,0,1,.19-.47l17.1-17.1a.67.67,0,0,1,.94,0,.66.66,0,0,1,0,.94l-17.1,17.1A.65.65,0,0,1,33.88,36.75ZM51,18.55a.42.42,0,0,0-.31.13L33.57,35.77a.48.48,0,0,0-.13.31.44.44,0,0,0,.13.31.45.45,0,0,0,.62,0l17.1-17.1a.45.45,0,0,0,0-.61A.43.43,0,0,0,51,18.55Z"/><path class="cls-1" d="M33.88,36.86a.78.78,0,0,1-.55-1.33l17.1-17.1a.78.78,0,1,1,1.1,1.1l-17.1,17.1A.76.76,0,0,1,33.88,36.86ZM51,18.66a.33.33,0,0,0-.23.1l-17.1,17.1a.33.33,0,0,0,0,.45.34.34,0,0,0,.46,0L51.2,19.21a.31.31,0,0,0,0-.45A.32.32,0,0,0,51,18.66Z"/><path class="cls-1" d="M33.88,37a.89.89,0,0,1-.63-1.52l17.1-17.1a.89.89,0,1,1,1.26,1.26l-17.1,17.1A.88.88,0,0,1,33.88,37ZM51,18.32a.66.66,0,0,0-.47.19l-17.1,17.1a.64.64,0,0,0-.19.47.63.63,0,0,0,.19.47.68.68,0,0,0,.94,0l17.1-17.1A.66.66,0,0,0,51,18.32ZM33.88,36.51a.47.47,0,0,1-.31-.12.44.44,0,0,1,0-.62l17.1-17.09a.44.44,0,0,1,.62,0,.43.43,0,0,1,0,.61l-17.1,17.1A.47.47,0,0,1,33.88,36.51ZM51,18.78a.2.2,0,0,0-.15.06l-17.1,17.1a.18.18,0,0,0-.06.14.2.2,0,0,0,.06.15.24.24,0,0,0,.3,0l17.09-17.1a.21.21,0,0,0,0-.29A.2.2,0,0,0,51,18.78Z"/><line class="cls-1" x1="43.53" y1="33.15" x2="50.72" y2="25.97"/><rect class="cls-1" x="42.04" y="29.44" width="10.16" height="0.23" transform="translate(-7.1 41.98) rotate(-45)"/><rect class="cls-1" x="42.04" y="29.33" width="10.16" height="0.46" transform="translate(-7.1 41.98) rotate(-45)"/><path class="cls-1" d="M43.69,33.47,43.21,33l7.35-7.35.48.49ZM43.53,33l.16.16,7-7L50.56,26Z"/><path class="cls-1" d="M43.53,33.7a.54.54,0,0,1-.39-.16.56.56,0,0,1,0-.78l7.19-7.18a.54.54,0,0,1,.78,0,.55.55,0,0,1,0,.77l-7.19,7.19A.54.54,0,0,1,43.53,33.7Z"/><path class="cls-1" d="M43.53,33.81a.64.64,0,0,1-.47-.19.66.66,0,0,1,0-.94l7.19-7.18a.63.63,0,0,1,.47-.2h0a.67.67,0,0,1,.66.67.66.66,0,0,1-.19.46L44,33.62A.63.63,0,0,1,43.53,33.81Zm7.19-8.28h0a.44.44,0,0,0-.31.13l-7.19,7.18a.44.44,0,1,0,.62.62L51,26.27a.45.45,0,0,0,0-.61A.48.48,0,0,0,50.72,25.53Z"/><path class="cls-1" d="M43.53,33.93A.76.76,0,0,1,43,33.7a.78.78,0,0,1,0-1.1l7.19-7.18a.75.75,0,0,1,.55-.23h0a.76.76,0,0,1,.55.23.79.79,0,0,1,.23.55.83.83,0,0,1-.23.55L44.08,33.7A.75.75,0,0,1,43.53,33.93Zm7.19-8.29a.33.33,0,0,0-.23.1l-7.18,7.18a.32.32,0,0,0,0,.46.33.33,0,0,0,.45,0l7.18-7.19A.32.32,0,0,0,51,26a.33.33,0,0,0-.1-.23.32.32,0,0,0-.22-.1Z"/><path class="cls-1" d="M43.53,34a.88.88,0,0,1-.63-.26.89.89,0,0,1,0-1.26l7.19-7.19a.93.93,0,0,1,1.26,0,.91.91,0,0,1,0,1.27l-7.19,7.18A.86.86,0,0,1,43.53,34Zm7.19-8.74a.63.63,0,0,0-.47.2l-7.19,7.18a.66.66,0,0,0,0,.94.68.68,0,0,0,.94,0l7.19-7.19a.66.66,0,0,0,0-.93A.65.65,0,0,0,50.72,25.3Zm-7.19,8.28a.45.45,0,0,1-.31-.12.44.44,0,0,1,0-.62l7.19-7.18a.44.44,0,0,1,.62,0,.43.43,0,0,1,.12.31.42.42,0,0,1-.12.3l-7.19,7.19A.43.43,0,0,1,43.53,33.58Zm7.19-7.82a.2.2,0,0,0-.15.06L43.39,33a.22.22,0,0,0,0,.3.23.23,0,0,0,.29,0l7.18-7.19a.2.2,0,0,0,.06-.14.2.2,0,0,0-.06-.15.2.2,0,0,0-.14-.06Z"/></svg>
