<svg id="Capa_1" data-name="Capa 1" xmlns="http://www.w3.org/2000/svg" viewBox="0 0 71.16 70.17"><defs><style>.cls-1{fill:#040006;}</style></defs><title>otros</title><path class="cls-1" d="M17.09,56.16a.47.47,0,0,1,0-.43l.57-1s0,0,0-.06a.06.06,0,0,0-.05,0H16.53a.47.47,0,0,1-.4-.24l-.65-1.21a.06.06,0,0,0-.1,0l-.66,1.21a.47.47,0,0,1-.4.24H13.21a.06.06,0,0,0-.05,0s0,0,0,.06l.57,1.06a.49.49,0,0,1,0,.44l-.57,1a.11.11,0,0,0,0,.06.09.09,0,0,0,.05,0h1.08a.44.44,0,0,1,.4.24l.65,1.2a.05.05,0,0,0,.05,0h0s0,0,0,0l.66-1.2a.46.46,0,0,1,.4-.24h1.11a.06.06,0,0,0,.05,0s0,0,0-.06Z"/><path class="cls-1" d="M15.41,50.5A5.46,5.46,0,1,0,20.87,56,5.47,5.47,0,0,0,15.41,50.5Zm2.59,7a.45.45,0,0,1-.39.23H16.5a.05.05,0,0,0-.05,0l-.66,1.2a.45.45,0,0,1-.4.24h0a.45.45,0,0,1-.4-.24l-.65-1.2a.05.05,0,0,0-.05,0H13.21a.47.47,0,0,1-.39-.23.48.48,0,0,1,0-.45l.57-1a.06.06,0,0,0,0-.06l-.57-1.06a.45.45,0,0,1,0-.45.44.44,0,0,1,.39-.22h1.11a.05.05,0,0,0,0,0L15,53a.45.45,0,0,1,.4-.24h0a.47.47,0,0,1,.4.24l.65,1.21a.05.05,0,0,0,.05,0h1.08a.44.44,0,0,1,.39.22.45.45,0,0,1,0,.45l-.57,1a0,0,0,0,0,0,0L18,57A.45.45,0,0,1,18,57.48Z"/><path class="cls-1" d="M14.63,30.3a23.49,23.49,0,0,1,47-.19h-.81A22.67,22.67,0,0,0,38.12,7.53H38A22.69,22.69,0,0,0,15.44,30.29Z"/><path class="cls-1" d="M14.29,30.64V30.3A23.85,23.85,0,0,1,38,6.38h.11A23.81,23.81,0,0,1,61.94,30.11v.34H60.45v-.35A22.33,22.33,0,0,0,38.12,7.87H38A22.37,22.37,0,0,0,15.78,30.29v.34ZM38.13,7.07H38A23.15,23.15,0,0,0,15,30h.12A23,23,0,0,1,38,7.18h.09a23,23,0,0,1,23,22.59h.12A23.12,23.12,0,0,0,38.13,7.07Z"/><path class="cls-1" d="M55.72,51.8l0-11.82q-.37-.69-.81-1.35l.05,13.17A2.18,2.18,0,0,0,56,53.7c.12-.25.22-.5.32-.75A1.36,1.36,0,0,1,55.72,51.8Z"/><path class="cls-1" d="M56.2,54.18,55.87,54a2.51,2.51,0,0,1-1.29-2.18l-.06-14.32.63.95c.29.44.57.89.83,1.38L56,40l0,11.81a1,1,0,0,0,.48.86l.25.15-.11.26c-.1.26-.21.52-.33.77Zm-1-14.32,0,11.94a1.82,1.82,0,0,0,.64,1.38.61.61,0,0,1,.05-.12,1.68,1.68,0,0,1-.57-1.26l0-11.73Z"/><path class="cls-1" d="M67.62,35A5.6,5.6,0,0,0,62,29.46h0l-5,0a2.17,2.17,0,0,0-2.16,2.18l0,5.6q.44.56.81,1.14l0-6.75A1.38,1.38,0,0,1,57,30.28l5,0h0A4.8,4.8,0,0,1,66.82,35l.05,13.29a4.8,4.8,0,0,1-4.78,4.81l-4.94,0c-.11.27-.22.53-.34.79l.28,0h0l5,0a5.61,5.61,0,0,0,4-1.66,5.56,5.56,0,0,0,1.62-4Z"/><path class="cls-1" d="M57.1,54.31l-.34,0-.46-.07.2-.42c.12-.25.22-.51.32-.76l.09-.22,5.18,0a4.47,4.47,0,0,0,4.44-4.47l0-13.29A4.46,4.46,0,0,0,62,30.61l-5,0a1,1,0,0,0-.73.3,1,1,0,0,0-.29.72l0,7.89-.63-.95c-.25-.39-.52-.76-.8-1.12l-.07-.09,0-5.72a2.45,2.45,0,0,1,.73-1.78A2.51,2.51,0,0,1,57,29.13l5,0A6,6,0,0,1,68,35h0L68,48.33a5.82,5.82,0,0,1-1.72,4.2,5.88,5.88,0,0,1-4.19,1.76l-5,0Zm.28-.8a.37.37,0,0,0-.05.11l4.77,0a5.15,5.15,0,0,0,3.7-1.55,5.21,5.21,0,0,0,1.53-3.72l0-13.29A5.26,5.26,0,0,0,62,29.8l-5,0a1.83,1.83,0,0,0-1.82,1.83l0,5.49.13.16,0-5.64A1.72,1.72,0,0,1,57,29.94l5,0A5.14,5.14,0,0,1,67.16,35l0,13.29a5.16,5.16,0,0,1-5.12,5.16Z"/><path class="cls-1" d="M55.68,40V38.4q-.37-.59-.81-1.14v1.37Q55.3,39.29,55.68,40Z"/><path class="cls-1" d="M56,41.36l-.64-1.21c-.26-.47-.52-.9-.8-1.33l0-.08V36.25l.61.8c.29.37.57.76.83,1.16l0,.08Zm-.81-2.83.12.18V38.5l-.12-.18Z"/><path class="cls-1" d="M57.1,53.16h0a1.41,1.41,0,0,1-.73-.21c-.1.25-.2.5-.32.75a2.4,2.4,0,0,0,.77.25c.12-.26.23-.52.34-.79Z"/><path class="cls-1" d="M57,54.32l-.25,0a2.35,2.35,0,0,1-.89-.3l-.28-.15.14-.29c.11-.24.22-.48.32-.73l.15-.38.35.22a1,1,0,0,0,.54.16h.55l-.18.47a8.08,8.08,0,0,1-.35.8Zm-.52-.8.12,0,0-.11-.12,0A.37.37,0,0,1,56.49,53.52Z"/><path class="cls-1" d="M55.45,63.44H5.05a.4.4,0,0,1,0-.8h50.4a.4.4,0,1,1,0,.8Z"/><path class="cls-1" d="M55.45,63.79H5.05a.75.75,0,0,1,0-1.5h50.4a.75.75,0,0,1,0,1.5ZM5.05,63v.12h50.4a.06.06,0,0,0,.06-.06Z"/><path class="cls-1" d="M37.63,39.51a1.44,1.44,0,0,1-1.08,1.39c-.1.28-.19.56-.27.85a2.24,2.24,0,0,0,2.16-2.24V37.72a11.87,11.87,0,0,0-.81,1.06Z"/><path class="cls-1" d="M35.82,42.11l.13-.45a8.21,8.21,0,0,1,.28-.88l.06-.17.18,0a1.1,1.1,0,0,0,.82-1.06v-.84l.06-.08a10.81,10.81,0,0,1,.83-1.09l.6-.69v2.7a2.57,2.57,0,0,1-2.49,2.58Zm1-.93a.78.78,0,0,1-.05.14,1.88,1.88,0,0,0,1.34-1.81v-.8a1.77,1.77,0,0,0-.12.17v.63A1.78,1.78,0,0,1,36.81,41.18Z"/><path class="cls-1" d="M36.28,41.75c.08-.29.17-.57.27-.85a1.34,1.34,0,0,1-.35.05H36c-.09.26-.17.53-.25.8h.57Z"/><path class="cls-1" d="M35.71,42.1h-.44l.11-.44c.08-.27.16-.55.25-.82l.08-.24h.49l.27,0,.64-.16-.24.61a7.81,7.81,0,0,0-.26.82l-.07.25h-.26v-.34l0,.34Z"/><path class="cls-1" d="M37.63,38.78a11.87,11.87,0,0,1,.81-1.06v-.5a2.45,2.45,0,0,0,0-.27,11.3,11.3,0,0,0-.79.9Z"/><path class="cls-1" d="M37.29,39.91V37.74l.08-.1a11.57,11.57,0,0,1,.8-.93l.5-.53.09.72c0,.11,0,.22,0,.32v.63l-.08.1a11,11,0,0,0-.78,1Z"/><path class="cls-1" d="M44.84,61a3.45,3.45,0,0,1,0-6.89h0A3.45,3.45,0,0,1,47.29,60a3.49,3.49,0,0,1-2.44,1Zm0-6.27h0a2.82,2.82,0,1,0,0,5.64h0a2.82,2.82,0,0,0,2.81-2.83h0A2.82,2.82,0,0,0,44.84,54.72Z"/><path class="cls-1" d="M44.85,61.33h0a3.79,3.79,0,0,1-3.79-3.77,3.79,3.79,0,1,1,7.57,0,3.7,3.7,0,0,1-1.09,2.68A3.77,3.77,0,0,1,44.85,61.33Zm0-6.27a2.49,2.49,0,0,0-2.47,2.49,2.46,2.46,0,0,0,.73,1.75,2.56,2.56,0,0,0,3.51,0,2.52,2.52,0,0,0,.72-1.76,2.48,2.48,0,0,0-2.48-2.47Z"/><path class="cls-1" d="M48,57.84v-.62l5.16,0a3.45,3.45,0,0,0,2.42-1,3.41,3.41,0,0,0,1-2.43h.63a4.05,4.05,0,0,1-4,4.06Z"/><path class="cls-1" d="M47.63,58.18v-1.3l5.52,0a3,3,0,0,0,2.16-.91,3,3,0,0,0,.9-2.18v-.34h1.31v.35a4.38,4.38,0,0,1-1.27,3.1,4.33,4.33,0,0,1-3.1,1.3Z"/><path class="cls-1" d="M37.63,48.76V50.2a9.56,9.56,0,0,0,.6.82,2.46,2.46,0,0,0,.21-1V48.76a2.44,2.44,0,0,0-2.37-2.44c0,.27.11.55.18.82A1.64,1.64,0,0,1,37.63,48.76Z"/><path class="cls-1" d="M38.31,51.67,38,51.24c-.22-.28-.43-.56-.62-.85l-.07-.1v-.12a.62.62,0,0,0,0-.13V48.76a1.3,1.3,0,0,0-1.1-1.28l-.21,0-.06-.21a8.64,8.64,0,0,1-.19-.85L35.65,46h.43a2.77,2.77,0,0,1,2.7,2.79V50a2.75,2.75,0,0,1-.24,1.12ZM38,50.11l.1.15a1.64,1.64,0,0,0,0-.22V48.76a2.09,2.09,0,0,0-1.6-2l0,.13A2,2,0,0,1,38,48.76v1.35Z"/><path class="cls-1" d="M36,47.12a1.14,1.14,0,0,1,.26,0c-.07-.27-.13-.55-.18-.82h-.55c0,.27.1.54.16.81Z"/><path class="cls-1" d="M36.72,47.57l-.53-.09a.65.65,0,0,0-.2,0h-.57l-.07-.26c-.07-.27-.12-.55-.17-.83l-.07-.4,1.25,0,0,.24c.05.27.11.54.18.8Z"/><path class="cls-1" d="M37.63,50.2a1.84,1.84,0,0,1-.21.65c.16.22.34.45.52.66a2.64,2.64,0,0,0,.29-.49A9.56,9.56,0,0,1,37.63,50.2Z"/><path class="cls-1" d="M38,52.06l-.28-.33c-.18-.22-.36-.45-.53-.68L37,50.87l.11-.19a1.17,1.17,0,0,0,.16-.51l.09-1,.54.8a9,9,0,0,0,.59.79l.12.17-.08.19a2.58,2.58,0,0,1-.33.56Z"/><path class="cls-1" d="M8.65,35.52v-.25a4.81,4.81,0,0,1,4.78-4.82l4.69,0h0a1.68,1.68,0,0,1,1.68,1.68v3.41h.81V32.1a2.49,2.49,0,0,0-2.49-2.47h0l-4.68,0a5.6,5.6,0,0,0-5.58,5.62v.25Z"/><path class="cls-1" d="M21,35.87h-1.5V32.11a1.34,1.34,0,0,0-1.34-1.33l-4.69,0a4.43,4.43,0,0,0-3.14,1.31A4.49,4.49,0,0,0,9,35.27l0,.6H7.5v-.6a6,6,0,0,1,5.92-6h4.69a2.84,2.84,0,0,1,2.83,2.81Zm-.81-.69h.11V32.1A2.15,2.15,0,0,0,18.11,30H13.42a5.28,5.28,0,0,0-5.24,5.19H8.3a5.14,5.14,0,0,1,5.12-5.07l4.69,0a2,2,0,0,1,2,2Z"/><path class="cls-1" d="M8.26,57.15a1.53,1.53,0,0,1-1.4-1.52V54.12A1.52,1.52,0,0,1,8.38,52.6h.41a6.35,6.35,0,0,1,.44-.81H8.38a2.33,2.33,0,0,0-2.32,2.33v1.51A2.32,2.32,0,0,0,8.38,58h.1A5.36,5.36,0,0,1,8.26,57.15Z"/><path class="cls-1" d="M8.94,58.3H8.38a2.68,2.68,0,0,1-2.67-2.67V54.12a2.68,2.68,0,0,1,2.67-2.67H9.85L9.52,52a5.87,5.87,0,0,0-.42.76l-.09.2H8.38A1.18,1.18,0,0,0,7.2,54.12v1.51a1.19,1.19,0,0,0,1.08,1.18l.26,0,.05.25q.09.39.21.78Zm-.56-6.16a2,2,0,0,0-2,2v1.51A2,2,0,0,0,8,57.58l0-.13a1.87,1.87,0,0,1-1.45-1.82V54.12a1.87,1.87,0,0,1,1.86-1.87h.19l.06-.11Z"/><path class="cls-1" d="M36.11,51.79H21.6a7.89,7.89,0,0,1,.44.81H36.11a1.52,1.52,0,0,1,1.52,1.52v1.51a1.53,1.53,0,0,1-1.52,1.53H22.56a7.23,7.23,0,0,1-.21.8H36.11a2.33,2.33,0,0,0,2.33-2.33V54.12A2.34,2.34,0,0,0,36.11,51.79Z"/><path class="cls-1" d="M36.11,58.3H21.88l.14-.45c.08-.25.15-.51.21-.77l.06-.27H36.11a1.18,1.18,0,0,0,1.18-1.18V54.12a1.18,1.18,0,0,0-1.18-1.18H21.82l-.09-.2a5.87,5.87,0,0,0-.42-.76L21,51.45H36.11a2.68,2.68,0,0,1,2.67,2.67v1.51A2.68,2.68,0,0,1,36.11,58.3Zm-13.3-.68h13.3a2,2,0,0,0,2-2V54.12a2,2,0,0,0-2-2H22.2s0,.07.05.11H36.11A1.87,1.87,0,0,1,38,54.12v1.51a1.87,1.87,0,0,1-1.87,1.87H22.83A.5.5,0,0,1,22.81,57.62Z"/><path class="cls-1" d="M8.85,51.68H5.93A1.64,1.64,0,0,1,4.29,50V48.76a1.63,1.63,0,0,1,1.64-1.64H35.68c-.06-.27-.12-.54-.16-.81H5.93a2.45,2.45,0,0,0-2.45,2.45V50a2.45,2.45,0,0,0,2.45,2.44H8.42A6.77,6.77,0,0,1,8.85,51.68Z"/><path class="cls-1" d="M8.65,52.82H5.93A2.79,2.79,0,0,1,3.14,50V48.76A2.79,2.79,0,0,1,5.93,46H35.81l0,.28A6.74,6.74,0,0,0,36,47l.11.43H5.93a1.3,1.3,0,0,0-1.3,1.3V50a1.3,1.3,0,0,0,1.3,1.29H9.46l-.31.52a5.2,5.2,0,0,0-.41.77ZM5.93,46.65a2.12,2.12,0,0,0-2.11,2.11V50a2.11,2.11,0,0,0,2.11,2.09H8.21a1.17,1.17,0,0,0,0-.11H5.93a2,2,0,0,1-2-2V48.76a2,2,0,0,1,2-2H35.25s0-.08,0-.12Z"/><path class="cls-1" d="M37.42,50.85a1.66,1.66,0,0,1-1.43.83H22a5.52,5.52,0,0,1,.42.8H36a2.44,2.44,0,0,0,1.95-1C37.76,51.3,37.58,51.07,37.42,50.85Z"/><path class="cls-1" d="M36,52.82H22.18l-.09-.2a8.14,8.14,0,0,0-.41-.77l-.31-.52H36a1.3,1.3,0,0,0,1.13-.65l.26-.46.31.42.51.65.18.21-.17.22A2.78,2.78,0,0,1,36,52.82Zm-13.37-.69H36a2.1,2.1,0,0,0,1.5-.62l-.07-.1A2,2,0,0,1,36,52H22.56Z"/><path class="cls-1" d="M36.19,57.27H22.93a6.87,6.87,0,0,1-.22.81H36.19a1.43,1.43,0,0,1,1.44,1.44V61.2a1.44,1.44,0,0,1-1.44,1.44H18.66a7.69,7.69,0,0,1-3.25.72,7.59,7.59,0,0,1-1.07-.08,2.31,2.31,0,0,0,.83.16h21a2.25,2.25,0,0,0,2.25-2.24V59.52A2.25,2.25,0,0,0,36.19,57.27Z"/><path class="cls-1" d="M36.19,63.79h-21a2.64,2.64,0,0,1-.95-.19l-2.67-1,2.84.38a7.47,7.47,0,0,0,1,.08,7.35,7.35,0,0,0,3.1-.69l.15,0H36.19a1.09,1.09,0,0,0,1.1-1.09V59.52a1.1,1.1,0,0,0-1.1-1.1H22.24l.15-.45c.08-.25.14-.51.2-.77l.07-.27H36.19a2.59,2.59,0,0,1,2.59,2.59V61.2A2.59,2.59,0,0,1,36.19,63.79ZM18.46,63.1H36.19a1.91,1.91,0,0,0,1.91-1.9V59.52a1.91,1.91,0,0,0-1.91-1.9h-13l0,.11h13A1.79,1.79,0,0,1,38,59.52V61.2A1.79,1.79,0,0,1,36.19,63H18.73Z"/><path class="cls-1" d="M14.73,41.75h21c.08-.27.16-.54.25-.8H14.73a.25.25,0,0,0-.25.25v.3A.25.25,0,0,0,14.73,41.75Z"/><path class="cls-1" d="M36,42.1H14.73a.59.59,0,0,1-.59-.6v-.3a.59.59,0,0,1,.59-.6H36.44l-.16.46c-.08.26-.17.52-.24.78Zm-21.16-.69H35.45a.56.56,0,0,0,0-.12H14.82Z"/><path class="cls-1" d="M38.42,37a2.24,2.24,0,0,0-2.22-2H8.29a2.23,2.23,0,0,0-2.23,2.23v2.29a2.23,2.23,0,0,0,2.23,2.24h2.47a.27.27,0,0,0,.27-.27v-.26a.27.27,0,0,0-.27-.27H8.29a1.43,1.43,0,0,1-1.43-1.44V37.22a1.43,1.43,0,0,1,1.43-1.43H36.2a1.43,1.43,0,0,1,1.43,1.43v.63A11.3,11.3,0,0,1,38.42,37Z"/><path class="cls-1" d="M10.75,42.1H8.3a2.59,2.59,0,0,1-2.59-2.59V37.22A2.59,2.59,0,0,1,8.3,34.64H36.2a2.58,2.58,0,0,1,2.56,2.26l0,.17-.11.11c-.27.28-.53.58-.77.88l-.61.79V37.22a1.09,1.09,0,0,0-1.09-1.09H8.3a1.09,1.09,0,0,0-1.1,1.09v2.29A1.09,1.09,0,0,0,8.3,40.6h2.45a.63.63,0,0,1,.63.62v.26A.63.63,0,0,1,10.75,42.1ZM8.3,35.33a1.9,1.9,0,0,0-1.9,1.89v2.29a1.9,1.9,0,0,0,1.9,1.9h2.39v-.12H8.3a1.78,1.78,0,0,1-1.78-1.78V37.22A1.77,1.77,0,0,1,8.3,35.45H36.2A1.77,1.77,0,0,1,38,36.94l.1-.11a1.89,1.89,0,0,0-1.85-1.5Z"/><path class="cls-1" d="M36.12,41H14.7a.22.22,0,0,0-.22.22v.36a.22.22,0,0,0,.22.22H36.12a1.51,1.51,0,0,1,1.51,1.52V44.8a1.51,1.51,0,0,1-1.51,1.51H8.37A1.52,1.52,0,0,1,6.86,44.8V43.27a1.52,1.52,0,0,1,1.51-1.52h2.39a.27.27,0,0,0,.27-.27v-.26a.27.27,0,0,0-.27-.27H8.37a2.31,2.31,0,0,0-2.31,2.32V44.8a2.31,2.31,0,0,0,2.31,2.32H36.12a2.32,2.32,0,0,0,2.32-2.32V43.27A2.32,2.32,0,0,0,36.12,41Z"/><path class="cls-1" d="M36.12,47.46H8.37A2.66,2.66,0,0,1,5.71,44.8V43.26A2.67,2.67,0,0,1,8.37,40.6h2.38a.63.63,0,0,1,.63.62v.26a.63.63,0,0,1-.63.62H8.37A1.17,1.17,0,0,0,7.2,43.26V44.8A1.18,1.18,0,0,0,8.37,46H36.12a1.17,1.17,0,0,0,1.17-1.17V43.27a1.17,1.17,0,0,0-1.17-1.17H14.7a.57.57,0,0,1-.56-.57v-.36a.57.57,0,0,1,.56-.57H36.12a2.67,2.67,0,0,1,2.66,2.66V44.8A2.66,2.66,0,0,1,36.12,47.46ZM8.37,41.29a2,2,0,0,0-2,2V44.8a2,2,0,0,0,2,2H36.12a2,2,0,0,0,2-2V43.26a2,2,0,0,0-2-2H14.82v.12h21.3A1.86,1.86,0,0,1,38,43.27V44.8a1.86,1.86,0,0,1-1.86,1.85H8.37A1.85,1.85,0,0,1,6.52,44.8V43.26a1.85,1.85,0,0,1,1.85-1.85h2.32v-.12Z"/><path class="cls-1" d="M20.85,50.52A7.69,7.69,0,1,0,23.1,56,7.67,7.67,0,0,0,20.85,50.52ZM15.41,62.41A6.46,6.46,0,1,1,21.86,56,6.45,6.45,0,0,1,15.41,62.41Z"/></svg>