<svg id="Capa_1" data-name="Capa 1" xmlns="http://www.w3.org/2000/svg" viewBox="0 0 71.16 70.17"><defs><style>.cls-1{fill:#ffff;}.cls-2{fill:none;}</style></defs><title>otros</title><path class="cls-1" d="M65.25,47H6V10.8A2.85,2.85,0,0,1,8.87,8H62.41a2.84,2.84,0,0,1,2.84,2.84ZM7.36,45.69H63.92V10.8a1.52,1.52,0,0,0-1.51-1.51H8.87A1.51,1.51,0,0,0,7.36,10.8Z"/><polygon class="cls-2" points="7.11 47.02 2.52 56.72 68.64 56.72 64.16 47.02 7.11 47.02"/><path class="cls-2" d="M2.14,60a.89.89,0,0,0,.89.89h65.1A.89.89,0,0,0,69,60V58.05H2.14Z"/><polygon class="cls-1" points="7.11 47.02 64.16 47.02 68.64 56.72 70.11 56.72 65.01 45.69 6.27 45.69 1.05 56.72 2.52 56.72 7.11 47.02"/><path class="cls-1" d="M69,58.05V60a.89.89,0,0,1-.89.89H3A.89.89,0,0,1,2.14,60V58.05H.8V60A2.23,2.23,0,0,0,3,62.21h65.1A2.22,2.22,0,0,0,70.35,60V58.05Z"/><polygon class="cls-1" points="69.02 58.05 70.35 58.05 70.35 57.24 70.11 56.72 68.64 56.72 2.52 56.72 1.05 56.72 0.8 57.24 0.8 58.05 2.14 58.05 69.02 58.05"/><path class="cls-1" d="M46.21,58.05H25l2.22-5.54A1.93,1.93,0,0,1,29,51.2H41.91a2,2,0,0,1,1.84,1.3ZM27,56.72H44.16L42.51,53a.63.63,0,0,0-.6-.45H29a.61.61,0,0,0-.59.43Z"/><path class="cls-1" d="M59.21,42.64H12.34a2,2,0,0,1-2-2V29.8a.67.67,0,0,1,1.33,0V40.66a.65.65,0,0,0,.65.65H59.21a.65.65,0,0,0,.65-.65V29a.67.67,0,0,1,.67-.66.66.66,0,0,1,.66.66V40.66A2,2,0,0,1,59.21,42.64Z"/><path class="cls-1" d="M11,26.38a.67.67,0,0,1-.67-.67V14.2a2,2,0,0,1,2-2H59.21a2,2,0,0,1,2,2V25.56a.66.66,0,0,1-.66.67.67.67,0,0,1-.67-.67V14.2a.65.65,0,0,0-.65-.65H12.34a.65.65,0,0,0-.65.65V25.71A.67.67,0,0,1,11,26.38Z"/><line class="cls-1" x1="33.85" y1="36.82" x2="52.54" y2="18.13"/><path class="cls-1" d="M33.85,37.42a.61.61,0,0,1-.42-1L52.12,17.71a.59.59,0,0,1,.85,0,.61.61,0,0,1,0,.85L34.28,37.24A.6.6,0,0,1,33.85,37.42Z"/><line class="cls-1" x1="44.4" y1="33.62" x2="52.26" y2="25.76"/><path class="cls-1" d="M44.4,34.22a.61.61,0,0,1-.42-1l7.85-7.85a.6.6,0,0,1,.85.85L44.83,34A.6.6,0,0,1,44.4,34.22Z"/></svg>
