<svg id="Capa_1" data-name="Capa 1" xmlns="http://www.w3.org/2000/svg" viewBox="0 0 71.16 70.17"><defs><style>.cls-1{fill:#c2323b;}</style></defs><title>pagos-red</title><path class="cls-1" d="M41,64.78H14.57a4.36,4.36,0,0,1-4.36-4.35V9.74a4.37,4.37,0,0,1,4.36-4.36H41a4.36,4.36,0,0,1,4.35,4.36V22.5H45V9.74a4,4,0,0,0-4-4H14.57a4,4,0,0,0-4,4V60.43a4,4,0,0,0,4,4H41a4,4,0,0,0,4-4V46.18h.38V60.43A4.35,4.35,0,0,1,41,64.78Z"/><path class="cls-1" d="M41,65.28H14.57a4.85,4.85,0,0,1-4.85-4.85V9.74a4.86,4.86,0,0,1,4.85-4.86H41a4.86,4.86,0,0,1,4.85,4.86V23H44.49V9.74A3.48,3.48,0,0,0,41,6.26H14.57a3.48,3.48,0,0,0-3.48,3.48V60.43a3.48,3.48,0,0,0,3.48,3.47H41a3.48,3.48,0,0,0,3.47-3.47V45.68h1.38V60.43A4.86,4.86,0,0,1,41,65.28Z"/><path class="cls-1" d="M41,65.38H14.57a5,5,0,0,1-5-4.95V9.73a5,5,0,0,1,5-4.95H41a5,5,0,0,1,4.95,5V23.09H44.39V9.73A3.38,3.38,0,0,0,41,6.36H14.57a3.39,3.39,0,0,0-3.38,3.37v50.7a3.38,3.38,0,0,0,3.38,3.37H41a3.37,3.37,0,0,0,3.37-3.37V45.58H46V60.43A5,5,0,0,1,41,65.38Z"/><path class="cls-1" d="M41,65.88H14.57a5.46,5.46,0,0,1-5.45-5.45V9.73a5.46,5.46,0,0,1,5.45-5.45H41a5.46,5.46,0,0,1,5.45,5.45V23.59H43.89V9.73A2.88,2.88,0,0,0,41,6.86H14.57a2.88,2.88,0,0,0-2.88,2.87v50.7a2.88,2.88,0,0,0,2.88,2.87H41a2.88,2.88,0,0,0,2.87-2.87V45.08h2.58V60.43A5.46,5.46,0,0,1,41,65.88ZM14.57,5.28a4.45,4.45,0,0,0-4.45,4.45v50.7a4.45,4.45,0,0,0,4.45,4.45H41a4.46,4.46,0,0,0,4.45-4.45V46.08h-.58V60.43A3.88,3.88,0,0,1,41,64.3H14.57a3.88,3.88,0,0,1-3.88-3.87V9.73a3.88,3.88,0,0,1,3.88-3.87H41a3.88,3.88,0,0,1,3.87,3.87V22.59h.58V9.73A4.46,4.46,0,0,0,41,5.28Z"/><path class="cls-1" d="M33.21,10.28H21.93a1.8,1.8,0,0,1-1.8-1.81V5.38H35V8.47A1.81,1.81,0,0,1,33.21,10.28ZM20.5,5.76V8.47A1.43,1.43,0,0,0,21.93,9.9H33.21a1.43,1.43,0,0,0,1.43-1.43V5.76Z"/><path class="cls-1" d="M33.21,10.78H21.93a2.31,2.31,0,0,1-2.3-2.31V4.88H35.52V8.47A2.32,2.32,0,0,1,33.21,10.78ZM21,6.26V8.47a.93.93,0,0,0,.92.93H33.21a.93.93,0,0,0,.93-.93V6.26Z"/><path class="cls-1" d="M33.21,10.87H21.93a2.4,2.4,0,0,1-2.41-2.4V4.78H35.61V8.47A2.39,2.39,0,0,1,33.21,10.87ZM21.11,6.36V8.47a.83.83,0,0,0,.82.83H33.21A.83.83,0,0,0,34,8.47V6.36Z"/><path class="cls-1" d="M33.21,11.37H21.93A2.91,2.91,0,0,1,19,8.47V4.28H36.11V8.47A2.9,2.9,0,0,1,33.21,11.37ZM20,5.28V8.47a1.91,1.91,0,0,0,1.91,1.9H33.21a1.9,1.9,0,0,0,1.9-1.9V5.28ZM33.21,9.79H21.93a1.32,1.32,0,0,1-1.32-1.32V5.86H34.54V8.47A1.33,1.33,0,0,1,33.21,9.79ZM21.61,6.86V8.47a.32.32,0,0,0,.32.32H33.21a.32.32,0,0,0,.33-.32V6.86Z"/><path class="cls-1" d="M57.38,46.37h-32a1.84,1.84,0,0,1-1.84-1.84V24.12a1.84,1.84,0,0,1,1.84-1.84h32a1.53,1.53,0,0,1,1.53,1.53v8.3h-.38v-8.3a1.15,1.15,0,0,0-1.15-1.15h-32A1.46,1.46,0,0,0,24,24.12V44.53A1.46,1.46,0,0,0,25.42,46h32a1.16,1.16,0,0,0,1.15-1.15V39.9h.38v4.94A1.54,1.54,0,0,1,57.38,46.37Z"/><path class="cls-1" d="M57.38,46.87h-32a2.34,2.34,0,0,1-2.34-2.34V24.12a2.34,2.34,0,0,1,2.34-2.34h32a2,2,0,0,1,2,2v8.8H58v-8.8a.65.65,0,0,0-.65-.65h-32a1,1,0,0,0-1,1V44.53a1,1,0,0,0,1,1h32a.65.65,0,0,0,.65-.65V39.4h1.38v5.44A2,2,0,0,1,57.38,46.87Z"/><path class="cls-1" d="M57.37,47h-32A2.44,2.44,0,0,1,23,44.53V24.12a2.43,2.43,0,0,1,2.43-2.44h32a2.13,2.13,0,0,1,2.14,2.12v8.91H57.93V23.8a.56.56,0,0,0-.56-.55h-32a.86.86,0,0,0-.85.87V44.53a.86.86,0,0,0,.85.86h32a.56.56,0,0,0,.56-.55V39.3h1.58v5.54A2.14,2.14,0,0,1,57.37,47Z"/><path class="cls-1" d="M57.37,47.47h-32a2.94,2.94,0,0,1-2.93-2.94V24.12a2.94,2.94,0,0,1,2.93-2.94h32A2.63,2.63,0,0,1,60,23.8v9.41H57.43V23.8l-32-.05a.37.37,0,0,0-.36.37V44.53a.36.36,0,0,0,.36.36h32l.06-6.09H60v6A2.64,2.64,0,0,1,57.37,47.47Zm-32-25.29a1.94,1.94,0,0,0-1.93,1.94V44.53a1.94,1.94,0,0,0,1.93,1.94h32A1.63,1.63,0,0,0,59,44.84v-5h-.58v5a1.06,1.06,0,0,1-1.06,1h-32a1.36,1.36,0,0,1-1.36-1.36V24.12a1.37,1.37,0,0,1,1.36-1.37h32a1.06,1.06,0,0,1,1.06,1.05v8.41H59V23.8a1.63,1.63,0,0,0-1.64-1.62Z"/><path class="cls-1" d="M57.1,28.67H25.38a1.81,1.81,0,0,1-1.8-1.8V24.08a1.81,1.81,0,0,1,1.8-1.8H57.1a1.81,1.81,0,0,1,1.81,1.8v2.79A1.81,1.81,0,0,1,57.1,28.67Zm-31.72-6A1.42,1.42,0,0,0,24,24.08v2.79a1.43,1.43,0,0,0,1.42,1.42H57.1a1.43,1.43,0,0,0,1.43-1.42V24.08a1.42,1.42,0,0,0-1.43-1.42Z"/><path class="cls-1" d="M57.1,29.17H25.38a2.3,2.3,0,0,1-2.3-2.3V24.08a2.3,2.3,0,0,1,2.3-2.3H57.1a2.31,2.31,0,0,1,2.31,2.3v2.79A2.31,2.31,0,0,1,57.1,29.17Zm-31.72-6a.92.92,0,0,0-.92.92v2.79a.92.92,0,0,0,.92.92H57.1a.93.93,0,0,0,.93-.92V24.08a.93.93,0,0,0-.93-.92Z"/><path class="cls-1" d="M57.1,29.27H25.38a2.4,2.4,0,0,1-2.4-2.4V24.08a2.39,2.39,0,0,1,2.4-2.4H57.1a2.4,2.4,0,0,1,2.41,2.4v2.79A2.41,2.41,0,0,1,57.1,29.27Zm-31.72-6a.83.83,0,0,0-.82.83v2.79a.82.82,0,0,0,.82.82H57.1a.83.83,0,0,0,.83-.82V24.08a.83.83,0,0,0-.83-.83Z"/><path class="cls-1" d="M57.1,29.77H25.38a2.9,2.9,0,0,1-2.9-2.9V24.08a2.9,2.9,0,0,1,2.9-2.9H57.1A2.91,2.91,0,0,1,60,24.08v2.79A2.91,2.91,0,0,1,57.1,29.77ZM25.38,22.18a1.9,1.9,0,0,0-1.9,1.9v2.79a1.9,1.9,0,0,0,1.9,1.9H57.1A1.91,1.91,0,0,0,59,26.87V24.08a1.91,1.91,0,0,0-1.91-1.9Zm31.72,6H25.38a1.33,1.33,0,0,1-1.33-1.32V24.08a1.34,1.34,0,0,1,1.33-1.33H57.1a1.34,1.34,0,0,1,1.33,1.33v2.79A1.33,1.33,0,0,1,57.1,28.19ZM25.38,23.75a.33.33,0,0,0-.33.33v2.79a.32.32,0,0,0,.33.32H57.1a.32.32,0,0,0,.33-.32V24.08a.33.33,0,0,0-.33-.33Z"/><path class="cls-1" d="M60.08,40.09H53.51a1.35,1.35,0,0,1-1.35-1.36V33.28a1.35,1.35,0,0,1,1.35-1.36h6.57a.87.87,0,0,1,.86.86v6.44A.87.87,0,0,1,60.08,40.09ZM53.51,32.3a1,1,0,0,0-1,1v5.45a1,1,0,0,0,1,1h6.57a.48.48,0,0,0,.48-.49V32.78a.48.48,0,0,0-.48-.48Z"/><path class="cls-1" d="M60.08,40.59H53.51a1.86,1.86,0,0,1-1.85-1.86V33.28a1.85,1.85,0,0,1,1.85-1.86h6.57a1.36,1.36,0,0,1,1.36,1.36v6.44A1.36,1.36,0,0,1,60.08,40.59Zm0-7.81-6.55,0a.47.47,0,0,0-.47.48v5.45a.48.48,0,0,0,.47.48h6.57Z"/><path class="cls-1" d="M60.08,40.69H53.51a2,2,0,0,1-2-2V33.27a2,2,0,0,1,2-2h6.57a1.46,1.46,0,0,1,1.46,1.46v6.44A1.46,1.46,0,0,1,60.08,40.69ZM53.51,32.9a.38.38,0,0,0-.37.37v5.46a.38.38,0,0,0,.37.38H60V32.9Z"/><path class="cls-1" d="M60.08,41.19H53.51a2.47,2.47,0,0,1-2.46-2.46V33.27a2.46,2.46,0,0,1,2.46-2.45h6.57a2,2,0,0,1,2,2v6.44A2,2,0,0,1,60.08,41.19Zm-6.57-9.37a1.46,1.46,0,0,0-1.46,1.45v5.46a1.47,1.47,0,0,0,1.46,1.46h6.57a1,1,0,0,0,1-1V32.78a1,1,0,0,0-1-1Zm7,7.79h-7a.88.88,0,0,1-.87-.88V33.27a.87.87,0,0,1,.87-.87h7Zm-6.82-1h5.82V33.4H53.64Z"/><path class="cls-1" d="M54.67,36.81h-.51a.55.55,0,0,1-.55-.55v-.51a.55.55,0,0,1,.55-.55h.51a.55.55,0,0,1,.55.55v.51A.55.55,0,0,1,54.67,36.81Zm-.51-1.23a.18.18,0,0,0-.17.17v.51a.18.18,0,0,0,.17.17h.51a.18.18,0,0,0,.17-.17v-.51a.18.18,0,0,0-.17-.17Z"/><rect class="cls-1" x="53.11" y="34.7" width="2.61" height="2.61" rx="1.05"/><path class="cls-1" d="M54.67,37.4h-.51A1.15,1.15,0,0,1,53,36.26v-.51a1.16,1.16,0,0,1,1.15-1.15h.51a1.16,1.16,0,0,1,1.15,1.15v.51A1.15,1.15,0,0,1,54.67,37.4ZM54.32,36l.09.09.1-.09a.47.47,0,0,0-.1-.1Z"/><path class="cls-1" d="M54.67,37.9h-.51a1.64,1.64,0,0,1-1.65-1.64v-.51a1.65,1.65,0,0,1,1.65-1.65h.51a1.65,1.65,0,0,1,1.65,1.65v.51A1.64,1.64,0,0,1,54.67,37.9Zm-.51-2.8a.65.65,0,0,0-.65.65v.51a.64.64,0,0,0,.65.64h.51a.64.64,0,0,0,.65-.64v-.51a.65.65,0,0,0-.65-.65Zm.23,1.61-.29-.22a1.37,1.37,0,0,1-.17-.17l-.24-.3.23-.31a1.07,1.07,0,0,1,.18-.19l.29-.23.3.21a.76.76,0,0,1,.24.23l.19.29-.21.28a.74.74,0,0,1-.22.21Z"/><path class="cls-1" d="M33.33,37.94h-2a1.82,1.82,0,0,1,0-3.63h2a1.81,1.81,0,0,1,1.81,1.81.32.32,0,1,1-.63,0,1.18,1.18,0,0,0-1.18-1.18h-2a1.19,1.19,0,0,0,0,2.37h2a.32.32,0,0,1,0,.63Z"/><path class="cls-1" d="M33.33,38.31h-2a2.19,2.19,0,1,1,0-4.38h2a2.2,2.2,0,0,1,2.19,2.19.7.7,0,0,1-.69.7.71.71,0,0,1-.7-.7.8.8,0,0,0-.8-.8h-2a.81.81,0,0,0,0,1.61h2a.69.69,0,0,1,0,1.38Z"/><path class="cls-1" d="M33.33,38.11h-2a2,2,0,1,1,0-4h2a2,2,0,0,1,2,2,.49.49,0,1,1-1,0,1,1,0,0,0-1-1h-2a1,1,0,0,0,0,2h2a.49.49,0,1,1,0,1Zm-2-3.63a1.64,1.64,0,1,0,0,3.28h2a.14.14,0,0,0,0-.28h-2a1.36,1.36,0,0,1,0-2.71h2a1.35,1.35,0,0,1,1.35,1.35.15.15,0,1,0,.29,0,1.65,1.65,0,0,0-1.64-1.64Z"/><path class="cls-1" d="M33.33,38.49h-2a2.37,2.37,0,0,1,0-4.73h2a2.36,2.36,0,0,1,2.36,2.36.87.87,0,1,1-1.73,0,.63.63,0,0,0-.63-.63h-2a.63.63,0,0,0-.63.63.64.64,0,0,0,.63.64h2a.87.87,0,0,1,0,1.73Z"/><path class="cls-1" d="M33.33,40.94h-2a1.82,1.82,0,0,1-1.81-1.82.32.32,0,1,1,.63,0,1.18,1.18,0,0,0,1.18,1.18h2a1.18,1.18,0,1,0,0-2.36h-2a.32.32,0,0,1,0-.63h2a1.82,1.82,0,0,1,0,3.63Z"/><path class="cls-1" d="M33.33,41.31h-2a2.19,2.19,0,0,1-2.19-2.19.7.7,0,0,1,1.39,0,.8.8,0,0,0,.8.81h2a.81.81,0,0,0,0-1.62h-2a.69.69,0,1,1,0-1.38h2a2.19,2.19,0,1,1,0,4.38Z"/><path class="cls-1" d="M33.33,41.11h-2a2,2,0,0,1-2-2,.49.49,0,0,1,.49-.49.5.5,0,0,1,.5.49,1,1,0,0,0,1,1h2a1,1,0,1,0,0-2h-2a.49.49,0,0,1,0-1h2a2,2,0,1,1,0,4ZM29.84,39a.14.14,0,0,0-.14.14,1.64,1.64,0,0,0,1.64,1.64h2a1.64,1.64,0,0,0,0-3.28h-2a.14.14,0,1,0,0,.28h2a1.36,1.36,0,0,1,0,2.72h-2A1.35,1.35,0,0,1,30,39.12.15.15,0,0,0,29.84,39Z"/><path class="cls-1" d="M33.33,41.49h-2A2.37,2.37,0,0,1,29,39.12a.87.87,0,1,1,1.73,0,.63.63,0,0,0,.63.63h2a.63.63,0,0,0,0-1.26h-2a.87.87,0,0,1,0-1.73h2a2.37,2.37,0,0,1,0,4.73Z"/><path class="cls-1" d="M32.52,34.74a.31.31,0,0,1-.31-.31V32.76a.32.32,0,0,1,.63,0v1.67A.31.31,0,0,1,32.52,34.74Z"/><path class="cls-1" d="M32.52,35.12a.69.69,0,0,1-.69-.69V32.76a.69.69,0,0,1,.69-.69.7.7,0,0,1,.7.69v1.67A.7.7,0,0,1,32.52,35.12Z"/><path class="cls-1" d="M32.52,34.92a.49.49,0,0,1-.49-.49V32.76a.49.49,0,0,1,1,0v1.67A.49.49,0,0,1,32.52,34.92Zm0-2.3a.15.15,0,0,0-.14.14v1.67a.14.14,0,0,0,.14.14.15.15,0,0,0,.15-.14V32.76A.15.15,0,0,0,32.52,32.62Z"/><path class="cls-1" d="M32.52,35.29a.86.86,0,0,1-.86-.86V32.76a.87.87,0,0,1,1.73,0v1.67A.86.86,0,0,1,32.52,35.29Z"/><path class="cls-1" d="M32.52,42.68a.31.31,0,0,1-.31-.31V40.7a.32.32,0,1,1,.63,0v1.67A.31.31,0,0,1,32.52,42.68Z"/><path class="cls-1" d="M32.52,43.06a.69.69,0,0,1-.69-.69V40.7a.69.69,0,0,1,.69-.69.7.7,0,0,1,.7.69v1.67A.7.7,0,0,1,32.52,43.06Z"/><path class="cls-1" d="M32.52,42.86a.49.49,0,0,1-.49-.49V40.7a.49.49,0,1,1,1,0v1.67A.49.49,0,0,1,32.52,42.86Zm0-2.3a.14.14,0,0,0-.14.14v1.67a.15.15,0,0,0,.14.14.15.15,0,0,0,.15-.14V40.7A.15.15,0,0,0,32.52,40.56Z"/><path class="cls-1" d="M32.52,43.23a.87.87,0,0,1-.86-.86V40.7a.87.87,0,1,1,1.73,0v1.67A.87.87,0,0,1,32.52,43.23Z"/></svg>