<svg id="Capa_1" data-name="Capa 1" xmlns="http://www.w3.org/2000/svg" viewBox="0 0 71.16 70.17"><defs><style>.cls-1{fill:#ffff;}.cls-2{fill:#ffff;}</style></defs><title>pagos</title><path class="cls-1" d="M41,64.78H14.57a4.35,4.35,0,0,1-4.35-4.35V9.74a4.36,4.36,0,0,1,4.35-4.36H41a4.36,4.36,0,0,1,4.35,4.36V22.5H45V9.74a4,4,0,0,0-4-4H14.57a4,4,0,0,0-4,4V60.43a4,4,0,0,0,4,4H41a4,4,0,0,0,4-4V46.18h.38V60.43A4.35,4.35,0,0,1,41,64.78Z"/><path class="cls-1" d="M41,65.38H14.57a5,5,0,0,1-5-4.95V9.73a5,5,0,0,1,5-4.95H41a5,5,0,0,1,4.95,5V23.09H44.39V9.73A3.38,3.38,0,0,0,41,6.36H14.57a3.39,3.39,0,0,0-3.38,3.37v50.7a3.38,3.38,0,0,0,3.38,3.37H41a3.37,3.37,0,0,0,3.37-3.37V45.58H46V60.43A5,5,0,0,1,41,65.38Z"/><path class="cls-1" d="M33.21,10.28H21.93a1.8,1.8,0,0,1-1.8-1.81V5.38H35V8.47A1.81,1.81,0,0,1,33.21,10.28ZM20.51,5.76V8.47A1.42,1.42,0,0,0,21.93,9.9H33.21a1.43,1.43,0,0,0,1.43-1.43V5.76Z"/><path class="cls-1" d="M33.21,10.87H21.93a2.4,2.4,0,0,1-2.41-2.4V4.78H35.61V8.47A2.39,2.39,0,0,1,33.21,10.87ZM21.11,6.36V8.47a.83.83,0,0,0,.82.83H33.21A.83.83,0,0,0,34,8.47V6.36Z"/><path class="cls-1" d="M57.38,46.37h-32a1.84,1.84,0,0,1-1.84-1.84V24.12a1.84,1.84,0,0,1,1.84-1.84h32a1.53,1.53,0,0,1,1.53,1.53v8.3h-.38v-8.3a1.15,1.15,0,0,0-1.15-1.15h-32A1.46,1.46,0,0,0,24,24.12V44.53A1.46,1.46,0,0,0,25.42,46h32a1.16,1.16,0,0,0,1.15-1.15V39.9h.38v4.94A1.54,1.54,0,0,1,57.38,46.37Z"/><path class="cls-1" d="M57.37,47h-32A2.44,2.44,0,0,1,23,44.53V24.12a2.43,2.43,0,0,1,2.43-2.44h32a2.13,2.13,0,0,1,2.14,2.12v8.91H57.93V23.8a.56.56,0,0,0-.56-.55h-32a.86.86,0,0,0-.85.87V44.53a.86.86,0,0,0,.85.86h32a.56.56,0,0,0,.56-.55V39.3h1.58v5.54A2.14,2.14,0,0,1,57.37,47Z"/><path class="cls-1" d="M57.1,28.67H25.38a1.81,1.81,0,0,1-1.8-1.8V24.08a1.81,1.81,0,0,1,1.8-1.8H57.1a1.81,1.81,0,0,1,1.81,1.8v2.79A1.81,1.81,0,0,1,57.1,28.67Zm-31.72-6A1.42,1.42,0,0,0,24,24.08v2.79a1.43,1.43,0,0,0,1.42,1.42H57.1a1.43,1.43,0,0,0,1.43-1.42V24.08a1.42,1.42,0,0,0-1.43-1.42Z"/><path class="cls-1" d="M57.1,29.27H25.38a2.4,2.4,0,0,1-2.4-2.4V24.08a2.39,2.39,0,0,1,2.4-2.4H57.1a2.4,2.4,0,0,1,2.41,2.4v2.79A2.41,2.41,0,0,1,57.1,29.27Zm-31.72-6a.83.83,0,0,0-.82.83v2.79a.82.82,0,0,0,.82.82H57.1a.83.83,0,0,0,.83-.82V24.08a.83.83,0,0,0-.83-.83Z"/><path class="cls-1" d="M60.08,40.09H53.51a1.35,1.35,0,0,1-1.35-1.36V33.28a1.35,1.35,0,0,1,1.35-1.36h6.57a.86.86,0,0,1,.86.86v6.44A.86.86,0,0,1,60.08,40.09ZM53.51,32.3a1,1,0,0,0-1,1v5.45a1,1,0,0,0,1,1h6.57a.48.48,0,0,0,.48-.49V32.78a.48.48,0,0,0-.48-.48Z"/><path class="cls-1" d="M60.08,40.69H53.51a2,2,0,0,1-2-2V33.27a2,2,0,0,1,2-2h6.57a1.46,1.46,0,0,1,1.46,1.46v6.44A1.46,1.46,0,0,1,60.08,40.69ZM53.51,32.9a.38.38,0,0,0-.37.37v5.46a.38.38,0,0,0,.37.38H60V32.9Z"/><path class="cls-1" d="M54.67,36.81h-.51a.55.55,0,0,1-.55-.55v-.51a.55.55,0,0,1,.55-.55h.51a.55.55,0,0,1,.55.55v.51A.55.55,0,0,1,54.67,36.81Zm-.51-1.23a.18.18,0,0,0-.17.17v.51a.18.18,0,0,0,.17.17h.51a.18.18,0,0,0,.17-.17v-.51a.18.18,0,0,0-.17-.17Z"/><path class="cls-1" d="M54.67,37.4h-.51A1.15,1.15,0,0,1,53,36.26v-.51a1.16,1.16,0,0,1,1.15-1.15h.51a1.16,1.16,0,0,1,1.15,1.15v.51A1.15,1.15,0,0,1,54.67,37.4ZM54.32,36l.09.09.1-.09a.47.47,0,0,0-.1-.1Z"/><path class="cls-1" d="M33.33,37.94h-2a1.82,1.82,0,0,1,0-3.63h2a1.81,1.81,0,0,1,1.81,1.81.32.32,0,1,1-.63,0,1.18,1.18,0,0,0-1.18-1.18h-2a1.19,1.19,0,0,0,0,2.37h2a.32.32,0,0,1,0,.63Z"/><path class="cls-2" d="M33.33,38.11h-2a2,2,0,1,1,0-4h2a2,2,0,0,1,2,2,.49.49,0,1,1-1,0,1,1,0,0,0-1-1h-2a1,1,0,0,0,0,2h2a.49.49,0,1,1,0,1Zm-2-3.63a1.64,1.64,0,1,0,0,3.28h2a.14.14,0,0,0,0-.28h-2a1.36,1.36,0,0,1,0-2.71h2a1.35,1.35,0,0,1,1.35,1.35.15.15,0,1,0,.29,0,1.65,1.65,0,0,0-1.64-1.64Z"/><path class="cls-1" d="M33.33,40.94h-2a1.82,1.82,0,0,1-1.81-1.82.32.32,0,1,1,.63,0,1.18,1.18,0,0,0,1.18,1.18h2a1.18,1.18,0,1,0,0-2.36h-2a.32.32,0,0,1,0-.63h2a1.82,1.82,0,0,1,0,3.63Z"/><path class="cls-2" d="M33.33,41.11h-2a2,2,0,0,1-2-2,.49.49,0,0,1,.49-.49.5.5,0,0,1,.5.49,1,1,0,0,0,1,1h2a1,1,0,1,0,0-2h-2a.49.49,0,0,1,0-1h2a2,2,0,1,1,0,4ZM29.84,39a.14.14,0,0,0-.14.14,1.64,1.64,0,0,0,1.64,1.64h2a1.64,1.64,0,0,0,0-3.28h-2a.14.14,0,1,0,0,.28h2a1.36,1.36,0,0,1,0,2.72h-2A1.35,1.35,0,0,1,30,39.12.15.15,0,0,0,29.84,39Z"/><path class="cls-1" d="M32.52,34.74a.31.31,0,0,1-.31-.31V32.76a.32.32,0,0,1,.63,0v1.67A.31.31,0,0,1,32.52,34.74Z"/><path class="cls-2" d="M32.52,34.92a.49.49,0,0,1-.49-.49V32.76a.49.49,0,0,1,1,0v1.67A.49.49,0,0,1,32.52,34.92Zm0-2.3a.15.15,0,0,0-.14.14v1.67a.14.14,0,0,0,.14.14.15.15,0,0,0,.15-.14V32.76A.15.15,0,0,0,32.52,32.62Z"/><path class="cls-1" d="M32.52,42.68a.31.31,0,0,1-.31-.31V40.7a.32.32,0,1,1,.63,0v1.67A.31.31,0,0,1,32.52,42.68Z"/><path class="cls-2" d="M32.52,42.86a.49.49,0,0,1-.49-.49V40.7a.49.49,0,1,1,1,0v1.67A.49.49,0,0,1,32.52,42.86Zm0-2.3a.14.14,0,0,0-.14.14v1.67a.15.15,0,0,0,.14.14.15.15,0,0,0,.15-.14V40.7A.15.15,0,0,0,32.52,40.56Z"/></svg>
