<?xml version="1.0" encoding="utf-8"?>
<!-- Generator: Adobe Illustrator 22.1.0, SVG Export Plug-In . SVG Version: 6.00 Build 0)  -->
<svg version="1.1" id="Capa_1" xmlns="http://www.w3.org/2000/svg" xmlns:xlink="http://www.w3.org/1999/xlink" x="0px" y="0px"
	 viewBox="0 0 477.6 1008" style="enable-background:new 0 0 477.6 1008;" xml:space="preserve">
<style type="text/css">
	.st0{fill:#010101;}
	.st1{fill:#FFFFFF;}
	.st2{fill:#FFA90D;}
</style>
<g>
	<path class="st0" d="M164.1,230.5c-1.8-1.2-3.4-2.5-4.3-4.6c-0.5-1-1.4-1.9-2.2-2.8c-0.9-1-1.6-2.1-1.6-3.5c0.4-1.4,0-2-1.3-1.8
		c-0.4-0.9-0.7-1.8-1.1-2.6c2.6,0.7,4.1,2.7,5.4,4.7c1.2,2,2.9,3.5,4.3,5.3c0.5,0.6,1.1,1.4,2.1,0.9c1.7,4.9,10.8,9.6,15.2,7.8
		c1.7-0.7,3.2-1.6,4.8-2.5c0.7-0.4,1.4-1,2.3-0.6c1.8,0.8,3.4,1,5-0.4c0.5-0.4,1.2-0.4,1.7-0.1c1.5,0.9,2.8,0.1,4.1-0.4
		c2.7-0.9,3.2-2.6,1.4-4.9c-0.7-0.8-1.7-1.5-1.6-2.7c0.4-4.7-1.4-9.6,2-13.9c-1.2-0.5-2.2-0.8-2.8-1.9c-0.4-0.8-1.1-1.3-2-1.3
		c-3.8,0.2-7.6-0.7-11.4-0.1c-2.5-0.4-5-0.7-7.4,0.1c-1.2,0.4-2.3,0.4-3.5,0.4c-1.6-0.6-2.6,0.8-3.9,1.3c-0.6-1.6-0.1-2.9,1-3.9
		c0.9-0.8,1.6,0.8,2.6,0.5c0.1,0,0.2-0.1,0.3-0.2c1.2,1,2.6,0.5,3.7,0c1.6-0.8,3.4-1.1,5-1.7c3.4,0.1,6.6-0.8,9.9-1.3
		c1.3-0.2,1.7-1.4,1.3-2.6c-0.6-2.3-1.2-4.7-3.5-6.1c-1.1-0.7-2.1-1.6-3-2.6c-1-1.2-1.1-3.3,0-3.9c1.7-0.9,3.5-1.6,5.4-1.6
		c1.6,0,3.3-0.3,4.5,1.5c0.6,0.9,1.8,0.4,2-0.7c0.3-1.7-0.5-2.9-2.1-3.3c-4.7-1.3-6.1-5.5-6.7-9.2c-0.5-3.1-0.6-6.4-1.5-9.4
		c-1.1-4,0.4-7.2,2.4-10.4c0.8-1.3,1.5-2.9,3.6-2c3.2-1.8,6.5-3.5,9.7-5.3c1.3-0.8,1.2-1.8,0.1-3c-0.8-0.8-2.4-1.2-2.4-2.6
		c0.2-3.6-1.1-7.1-0.8-10.8c0.3-3.2-1.2-5.1-4.4-5.4c-1.1-0.1-2.1-0.2-3.2-0.5c-6.5-2-12.8-0.9-18.9,1.4c-1.4,0.5-2.9,1.9-4.2,1.7
		c-3-0.5-4.8,1.3-6.6,3c-4.3,4.1-8.7,8.3-11.3,13.8c-0.3,0.7-0.8,1.4-1.5,1.4c-2.3,0.2-2.4,1.7-1.9,3.3c0.6,1.8,0.4,3.6,0.4,5.4
		c0,0.7-0.4,1.5,0.5,1.9c-1.1,4.1-1.5,8.3-1.9,12.4c-0.6,6-0.3,12-0.5,18c-1.2,0.6-0.4,1.6-0.4,2.4c0.1,2.4,1.5,4.8,0.5,7.3
		c-0.7-1.9-0.9-4-2.5-5.4c-0.5-0.4-0.5-1.1-0.4-1.7c0.5-2.9-0.3-5.7-0.4-8.6c0-2.2-0.5-4.4-3.1-5.4c-1.3-0.5-1.7-2-1.8-3.3
		c-0.5-5.9-2.9-11.4-3.3-17.3c-0.2-3.9-1.1-7.8-1.1-11.8c0.1-3.4,0.6-6.7,2-9.8c1.2-1.2,2.7-2,4.3-2.6c8.3-3.5,16.6-6.9,25.3-9.4
		c5.4-1.6,10.9-2.8,16.6-3.5c9-1.1,18.1-0.3,27.1,0.4c1.6,0.1,3.3,0.5,4.6-0.3c1.4-0.8,2.8-0.2,4.2-0.3c-0.2-1.1,0.1-2.5-0.5-2.8
		c-2.1-1.5-0.7-3.2-0.6-4.8c0-0.6,0.6-1.1,0.6-1.7c0-1.3,0.4-2.9-1.5-3.5c-4.4-1.5-8.9-2.6-13.8-2c1,1.3,2.5,0.3,3.4,1.2
		c-0.3,0.9-0.5,1.8-0.8,2.8c0.6,0.1,1.2,0.1,1.8,0.3c0.6,0.1,1.2,0,1.7,0.9c-0.3,0.8-2.8,2.1,0.1,3.1c0.5,0.2,0.5,1.2,0,1.6
		c-2.3,1.6-0.4,2.3,0.7,3c1,0.6,2.1,1.2,3.3,1.4c-10.3-0.8-20.6-1.7-30.9-0.6c-10.4,1.2-20.1,4.8-30.1,8c0.2-2.3,2.7-2.1,2.9-3.9
		c-0.2-0.1-0.4-0.3-0.6-0.3c-0.8-0.2-1.6-0.2-1.8-1.3c-0.1-1.2,1-0.8,1.4-1.2c0.2-0.2,0.6-0.4,0.5-0.8c-0.8-0.4-1.8-0.7-2.3-2
		c1.6-0.7,3.4-1.3,2.5-3.7c-0.2-0.6,1.1-0.9,0.6-1.9c-2.2-0.1-4,1.3-6.1,1.7c0.1-0.3,0.2-0.5,0.3-0.8c3.7-2.4,8-3.1,12.2-4.3
		c7.7-2.3,15.4-4.6,23.5-4.8c7.4-0.2,14.9-0.4,22.3,0.5c4.9,0.6,9.7,1.5,14.2,3.7c0.3,1.3,1.7,1.9,2.1,3.2c-0.3,0.2-0.6,0.5-0.8,0.7
		c-2.7,1.9-2.7,4.7-2,7.5c0.6,2.6,3.2,2,5.1,2.5c0.1,0,0.2,0,0.4,0.1c4,5.3,5.5,11.5,7.4,17.8c2.8,9.6,3.1,19.4,4.2,29.2
		c-1.4,4.2-0.1,8.6-0.7,12.8c-0.4,3.1-0.8,6.1-0.6,9.3c0.1,2.7-1.2,5.1-1.9,7.7c-0.5,2-2.3,1.8-3.9,1.9c-3,0.1-3.3,0.3-3.6,3.1
		c-0.4,3.9-1.1,7.8-2.6,11.4c-0.2,0.6-0.2,1.1-0.2,1.7c0,2.6-0.5,5-2,7.2c-2.1,3.1-3,6.5-2.6,10.3c0.1,1.4,0,2.9,0.1,4.3
		c0.1,1.3-0.5,2.9,0.4,3.9c1,1.1,2.1-0.5,3.3-0.6c1.7-0.1,3.1,0.3,3.8,2c0.6,1.4,1.3,2.8,2.2,4.2c2.3,3.4,5.8,4.8,9.6,5.9
		c0.2,0.7,0.9,1.4,0.1,2.3c-1-0.6-2-1.1-3-1.7c-0.4-0.3-0.8-0.6-1.1-0.1c-0.1,0.2,0.2,0.5,0.4,0.8c0.1,1,1.6,1.4,1,2.6l0.1-0.1
		c-0.5,0-1,0-1.5,0c-0.2-0.8-0.9-0.7-1.5-0.6c0,0,0-0.2,0-0.2l0,0.1c0.5,0.4,0.8,1,1.6,0.6c-0.6,1,1.2,1.3,0.7,2.3
		c-0.6,0.2-1,0.4-0.2,0.9c-0.1,0.8,2.9,1.7-0.2,2.3c1.1,0.6,2.3,0.6,3,1.5c-0.2,0.9-1.3,0.8-1.4,1.8c2.4-0.4,2.7,1,2.6,3
		c-0.2,3.2-0.3,6.5-0.1,9.7c0.4,5.1,0.8,10.3,3.3,14.9c0.6,2.9,2.2,5.3,4.1,7.4c0.3,0.5,0.5,1,1.1,1.1c0,0.5,0.3,0.7,0.7,0.7
		c0.1,0.6,0.6,0.9,1.1,1.1c5.4,5,14.4,4.8,20.8-0.1c0.9-0.3,1.6-0.7,2.1-1.5c0.5-0.2,1.1-0.4,1.2-1c2.6-1.5,4.5-3.7,6.2-6.1
		c0.2-0.3,0.4-0.6,0.6-0.9c0.8-0.5,1.2-1.2,1.5-2.1c0.7-0.6,1.2-1.4,1.5-2.2c1.2-1.4,1.8-3,2.6-4.6c2.9-5.9,4.2-12.3,5.3-18.8
		c5.4,3.1,9.1,7.7,11.7,13.3c1.1,2.3,1.7,4.7,1.5,7.3c-0.2,1.9-0.3,3.9,0.4,5.7c0.6,1.6,1,3.2,1,4.9c0,1,0.1,2,0.7,2.8
		c1.7,2.1,1,4.1-0.1,6.1c-0.6,1.1-1.4,2.1-1.1,3.4c0.6,2.4,0.8,4.7,1.1,7.1c0.1,0.9,0.5,1.6,1.2,2.1c3.2,2.3,3.5,5.4,2.7,8.9
		c-0.4,1.9-0.5,3.9,1.1,5.4c2.1,2,2.7,4.4,2.7,7.2c0,0.9,0.1,1.9,0.4,2.8c1.7,5.9,1.9,12.1,2.4,18.2c0.7,7.7-0.5,15.4-0.1,23.1
		c0.2,2.9-0.4,5.7-2.6,8c-0.8,0.9-1.3,2.1-1.6,3.2c-0.6,2.4-1.3,4.9-1.8,7.4c-1.2,6.7-4.1,12.5-8.7,17.5
		c-4.8,5.2-9.9,10.2-14.3,15.8c-0.7,0.8-1.5,1.5-1.5,2.8c0.2,4.3-1,8.6-0.6,13c0.3,4.1-0.1,8.2-1,12.2c-0.4,2.1-0.4,4,0,6.1
		c0.7,3.9,1.5,7.8,2.2,11.7c0.2,0.8,0.3,1.7,0.7,2.4c1.8,2.5,2.1,5.3,2.3,8.2c0.4,5,1.8,9.5,4.8,13.7c2.7,3.9,3.9,8.5,3.7,13.3
		c-0.1,3.7-1.5,7.1-1.9,10.6c-0.5,4.8-2.7,9.2-3.5,14c-0.1,0.3-0.1,0.9-0.4,1c-2.3,1.3-1.7,3.4-1.8,5.4c-0.1,2.8-0.2,5.5-0.1,8.3
		c0.1,1.8-0.7,2.6-2.4,2.7c-2.9-3.8-7.6-5.6-10.1-9.7c-0.2-0.3-0.8-0.5-1.2-0.6c-2.2-0.5-4.6-1.1-6.8-0.5c-2.6,0.7-5.2,0.6-7.9,0.5
		c-3.5,0-7,0-10.5,0.5c-5.3,0.9-10.7,1.7-15.9,3c-4.9,1.2-10,1.5-15,2.2c-4.4,0.6-8.9,1.2-11.3,5.7c-0.2,0.4-0.6,0.8-1,1.1
		c-1.5,1.4-2.2,1.3-2.8-0.6c-1-3.1-2-6.2-1.6-9.5c0.1-0.8,0.1-1.8-0.2-2.5c-1.5-2.8-2.1-6-3.8-8.7c-0.4-0.7-0.7-1.4-0.8-2.3
		c-0.3-3.7-0.6-7.4-0.7-11.2c-0.1-7.6-0.6-15.2-0.8-22.7c-0.1-6.8-1.4-13.6-1.6-20.4c-0.1-3.7-0.3-7.4-1-11c-0.7-3.7,0-7.4-0.8-11
		c-0.4-1.7-0.8-2.1-2.5-2.1c-3.6,0-7.3,0.4-10.8-0.4c-2.2-0.5-3.8,0.1-5.6,1.6c3.6,0.9,3.6,1,3.3,4.4c-0.2,1.9-1.1,3.7-0.9,5.7
		c0.1,0.6,0,1.3,0.8,1.4c1,0.2,1.3-0.6,1.3-1.3c0.1-1.8,0.1-3.6,0.2-5.4c0.1-2.1,0.9-2.8,2.7-2c1.5,0.8,2.6,0.5,4.1,0.1
		c1.9-0.5,3,0.4,3.2,2.4c0.1,0.9,0,1.9-0.1,2.9c-0.1,1.8-0.4,3.6,0,5.4c0.2,0.7,0.5,1.4-0.5,1.7c-0.9,0.2-1.7,0.1-2.3-0.7
		c-0.6-0.7-0.5-1.6-0.5-2.4c-0.1-1.7-0.1-3.4-0.2-5.1c-0.1-0.7-0.3-1.5-1.2-1.5c-0.9,0-1.3,0.7-1.5,1.3c-0.2,0.8-0.3,1.6-0.4,2.5
		c-0.1,1.2-0.1,2.4-0.2,3.6c-0.3,2-1.1,2.4-2.9,1.2c-0.6-0.4-1.1-0.8-1.8-0.8c-3.9-0.3-4.1-0.6-3.9-4.3c0-0.8,0.2-1.7,0.2-2.5
		c0-0.9,0.4-2.1-0.9-2.4c-1.4-0.4-1.4,1-1.7,1.8c-0.1,0.2-0.2,0.5-0.2,0.7c-1.1,3.9-2.4,7.8-3.3,11.8c-0.8,3.6-1.4,7.2-1,11
		c0.3,2.7,1.1,6.1-1.9,8.3c-0.3,0.2-0.3,0.9-0.4,1.3c-0.6,2.9-1.2,5.9-1.9,8.8c-1.9,7.7-2.7,15.6-4.2,23.4c-1,5.3-2.1,10.6-3.6,15.7
		c-0.6,2.1-1.2,4.3-0.7,6.4c1,4,0.7,7.8-0.1,11.7c-0.9,4.6-2.2,9.1-4.3,13.3c-0.7,1.5-1.5,1.9-3,0.9c-1.7-1.1-3.3-2.4-5.2-3.1
		c-6-2.4-11.8-5.4-17.6-8.3c-2-1-4-2-5.7-3.7c-1.2-1.2-2.8-2.2-4.7-2.4c-2.4-2.8-5.7-4.6-8.3-7c-1.1-1-2.8-1.1-4-0.5
		c-1.2,0.6-2.2,0.6-3.3,0c-0.9-0.5-1.8-0.4-2.8-0.3c-0.1-0.7-0.3-1.4-0.4-2.2c0.4-2,0.5-3.9-1.3-5.3c0.1-0.1,0.2-0.2,0.2-0.2
		c0-0.2-0.1-0.3-0.2-0.5c-0.3-4,1.4-7.6,1.8-11.5c3.2-2.2,0.9-4.6,0.2-6.9c-1.9-5.7-0.6-11.5-0.4-17.2c2.1-3.1,1.7-6.7,1.7-10.1
		c0-2.6,0.3-5,2.1-7c0.6-0.7,1-1.7,1-2.7c-0.2-4,2-7.7,1.7-11.7c-0.1-0.8,0.4-1.6,0.8-2.4c0.5-0.9,0.7-1.8,0.6-2.8
		c-0.2-3.6,0.6-7.2,0.9-10.8c0.1-1.6,0.1-3.1,0.2-4.7c0.1-1.8-0.7-2.3-2.4-2.3c-3.1,0-5.9-0.4-7.9-3.3c-0.5-0.7-1.6-1.1-2.5-1.3
		c-2.6-0.7-5-2-7.5-2.5c-3.4-0.6-4.9-2.7-6-5.5c-3.4-8.7-5.8-17.5-6.7-26.8c-0.4-4.4-0.7-8.9-3.2-12.8c-2.5-3.8-2.6-7.9-2.3-12.2
		c0.2-1.7,0.4-3.4,0.2-5c-0.4-2.6,0.2-5,0.8-7.5c1.5-6.3,2.7-12.7,4.1-19c0.5-2.6,0.3-5.4,1.9-7.6c2.2-2.9,2.6-6.1,1.6-9.6
		c-0.6-2.2-0.1-4.1,1.7-5.5c0.8-0.6,1.4-1.4,1.6-2.3c0.7-3.7,1.9-7.3,1.6-11c-0.4-4.4,0-8.6,0.5-13c0.2-1.6,0.8-3.3-0.5-4.8
		c0.3-1.1-0.3-2.1-0.3-3.2c-0.1-1.6-0.2-3.3,1-4.4c2.3-2.2,2.4-4.8,2.2-7.5c2.8-4.9,7.2-8.7,10.4-13.3c0.6,0,1.1-0.1,1-0.9
		c0,0,0,0,0,0c1,0,1.6-0.3,0.8-1.4c0,0-0.1,0.1-0.1,0.1c1.2,1,2.9,0.8,4.2,1.4c0.5,0.2,1.1,0.6,0.8,0.9c-1.5,1.1-0.3,1.1,0.5,1.4
		c0.5,0.1,1.2,0.1,1.2,1c-0.8,0.2-1.6,0.5-2.7,0.8c1.8,0.4,3.3-0.2,4.6,0.3c0.2,0.7-0.3,1.2-0.5,2c2.4-0.8,3.4,0.4,4,2.5
		c0.9,3.1,2.2,6.1,3.6,9c2.2,4.3,4.4,8.6,7.9,11.9c0.2,0.3,0.4,0.5,0.7,0.8c1.2,1.9,2.9,3.2,4.6,4.5c10.2,7.6,21,5.3,28-4.4
		c2.8-3.9,4.7-8.1,6-12.6c3.2-10.8,2.5-21.6-0.3-32.4c-0.2-0.8-0.5-1.6-0.4-2.5c0.2-0.9,1.8-0.2,1.6-1.4c-0.6-0.7-1.8-0.1-2-1.1
		c0.4-0.9,2.6-1.2,0.6-2.7c-0.5-0.4,1.5-1.7-0.2-2.4l0,0.1c-0.9-1,0.4-2.1-0.1-3.1c0,0,0,0,0,0c0.9-0.2,0.9-0.8,0.7-1.5
		c-0.1-2,0.6-3.9,1.3-5.9c1.6,4.6,4.5,8.2,8.1,11.3c0.1,1.5,1.4,2.1,2.3,3c4.1,3.9,8.2,7.6,11.3,12.5c2.7,4.3,2.9,4.2-2,5
		c0,4.7,0.8,5.9,5.6,8c3,1.4,3.2,1.9,3.2,5.2c0,6.8-1.7,13.6-1.3,20.5c0.1,2.3,0.9,4.5,1,6.6c0.2,5.2,1.4,10.2,1.9,15.4
		c0.7,7,0,14,0.8,20.9c0.1,0.8-0.1,1.7-1.4,1.5c-1.6-0.2-1.7,0.9-1.8,2.1c-0.2,3.4-0.5,6.7-0.6,10.1c-0.1,3-0.2,6-0.1,9
		c0.1,2.4,1.1,3.1,3.4,3.4c2.1,0.3,4.1-0.3,6.1-0.7c1.7-0.3,2.1-1.2,2-3.1c-0.3-8.5-2.6-16.6-3.6-25c-0.1-0.5-0.1-1-0.4-1.4
		c-1.7-2.7-1.7-5.7-1.2-8.6c1.1-5.8,0.6-11.7,0.7-17.6c0.1-4.3,0.3-8.6,0.8-12.8c0.5-4.4,1.5-8.8,2.5-13.1c0.5-2.3,0.7-4.5,0.7-6.8
		c-0.1-3.4-0.1-6.7,0-10.1c0.2-5.9,0.8-6.6,6.1-6.4c0.1,0,0.2,0,0.4,0c2.4-0.2,2.7-0.5,2.8-2.8c0.1-2.4-0.4-3.2-2.6-3.6
		c-0.6-0.1-1.2-0.1-1.8-0.1c-3.1-0.1-5-1.5-5.6-4.4c-0.6-2.9-2.3-5-4.5-6.7c-2.6-2-5.8-3.5-7.5-6.6c-0.2-0.3-0.5-0.4-0.8-0.6
		c-3.6-2.4-8.2-2.7-11.3-6c-0.3-0.3-0.7-0.7-1.2-0.6c-2.8-2.3-5.5-4.5-7.7-7.4C165.2,230.2,164.8,229.9,164.1,230.5z M162.8,108
		c-0.4-0.5-0.8-0.4-1.1,0c-1.3,1.4-1.3,3-1.1,4.7c0.7,4.6,1.7,5.2,5.9,3.4c2.5-1.1,3.1-1.9,2.7-4.5c-0.1-0.9-0.4-1.9-0.8-2.7
		c-1-2.5-3.2-3.2-5.5-1.9C162.4,107.2,162.3,107.6,162.8,108L162.8,108z M253.1,367.5c0.6-0.4,1.2-0.7,1.8-1.1
		c2.3-1.7,2.4-1.7,4.2,0.5c1,1.2,1.7,0.9,2.7,0.2c1.7-1.2,2.8-3.1,4.8-3.8c0.4,0.2,0.9,0.3,1.4,0.1c2.1,1.6,4.3,2.4,6.4,0
		c1.4,0.8,2.6,0.2,3.5-0.9c2-2.3,3.9-4.6,5.7-6.9c1-1.2,1.3-2.7,0.8-4.1c-0.7-1.6,0-2.4,1.2-3.2c1.6-1.1,3.2-2.2,4.5-3.6
		c2-2,1.8-3.7-0.5-5.9c-1.1-1-2.2-0.6-3.2,0.1c-1.6,1.2-3.1,2.5-4.6,3.7c-1.9-0.6-2.9,0.9-4.1,1.7c-1.1,0.8-2,1.9-3.5,2.7
		c-0.2-1.9,0.2-3.7,1.6-4.3c3.1-1.3,4.9-4.2,7.8-5.6c2.1-1,2.2-3.3,0.8-5.6c-1.6-1.4-3.1-0.9-4.4,0.3c-1.2,1.1-2.3,2.3-3.5,3.5
		c-1.3,0-2.2,1.2-3.6,0.9c-0.7-0.5-1.4-0.6-2.2-0.2c-2.2,1-3.4,2.7-4.3,4.8c-0.4-0.1-0.7-0.1-0.6,0.5c-0.9,0.7-1.6,1.7-2.1,2.8
		c-1.2,0.1-1.6,0.6-1.6,2.3c-0.6,1-1.3,2.1-1.9,3.1c-4.1,5.2-6.8,11-8.5,17.4c-0.1,0.2-0.2,0.5-0.1,0.7
		C252.2,368.2,252.7,367.9,253.1,367.5z M201.3,107.7c-0.1-0.8-0.2-1.6-0.5-2.4c-0.7-2.2-2-3.3-3.7-3.4c-1.7,0-3.2,1.2-4.1,3.1
		c-1.1,2.3,0.2,4.5,0.3,6.7c0,0.2,0.5,0.5,0.8,0.6c1.3,0.5,2.4,1.3,4,0.3C199.8,111.4,201.2,110.1,201.3,107.7z M158.3,107.1
		c-0.2-0.2-0.3-0.5-0.4-0.5c-0.3,0.1-0.6,0.2-0.9,0.3c0.1,0.2,0.2,0.5,0.3,0.5C157.7,107.4,158,107.2,158.3,107.1z"/>
	<path class="st1" d="M154,367.5c-0.6-0.4-1.2-0.7-1.8-1.1c-2.3-1.7-2.4-1.7-4.2,0.5c-1,1.2-1.7,0.9-2.7,0.2
		c-1.7-1.2-2.8-3.1-4.8-3.8c-0.4,0.2-0.9,0.3-1.4,0.1c-2.1,1.6-4.3,2.4-6.4,0c-1.4,0.8-2.6,0.2-3.5-0.9c-2-2.3-3.9-4.6-5.7-6.9
		c-1-1.2-1.3-2.7-0.8-4.1c0.7-1.6,0-2.4-1.2-3.2c-1.6-1.1-3.2-2.2-4.5-3.6c-2-2-1.8-3.7,0.5-5.9c1.1-1,2.2-0.6,3.2,0.1
		c1.6,1.2,3.1,2.5,4.6,3.7c1.9-0.6,2.9,0.9,4.1,1.7c1.1,0.8,2,1.9,3.5,2.7c0.2-1.9-0.2-3.7-1.6-4.3c-3.1-1.3-4.9-4.2-7.8-5.6
		c-2.1-1-2.2-3.3-0.8-5.6c1.6-1.4,3.1-0.9,4.4,0.3c1.2,1.1,2.3,2.3,3.5,3.5c1.3,0,2.2,1.2,3.6,0.9c0.7-0.5,1.4-0.6,2.2-0.2
		c2.2,1,3.4,2.7,4.3,4.8c0.4-0.1,0.7-0.1,0.6,0.5c0.9,0.7,1.6,1.7,2.1,2.8c1.2,0.1,1.6,0.6,1.6,2.3c0.6,1,1.3,2.1,1.9,3.1
		c4.1,5.2,6.8,11,8.5,17.4c0.1,0.2,0.2,0.5,0.1,0.7C155,368.2,154.5,367.9,154,367.5z"/>
	<path class="st0" d="M292.4,860.1c0.2,5.5-1.3,11,0.2,16.5c0.4,1.4-0.3,2.7-1.3,3.9c-1.4,1.7-1.5,4.6-0.1,5.9
		c2.8,2.5,2.9,5.7,1.5,8.4c-3.9,7.5-2.1,14.4,1.7,21.2c0.9,1.7,2.3,3.1,3.4,4.6c4.1,6,7.2,12.5,10.8,18.7c2.9,5,5.4,10.1,8,15.3
		c3.3,6.7,5.7,13.8,6.5,21.3c0.5,4-0.5,8-2.3,11.6c-1.5,3-4.4,5-7.6,6.3c-3.7,1.6-7.6,2.4-11.5,2.9c-2.3,0.3-4.8-0.1-6.9-1.4
		c-3-1.8-5.8-3.8-8-6.6c-1.6-2-3.3-3.8-5-5.7c-3.2-3.3-4.6-7.6-6-11.7c-2-5.8-3.2-11.8-4.8-17.7c-0.7-2.4-1.7-4.7-2.4-7.1
		c-0.3-1-1-1.6-1.8-2.2c-3.4-2.6-5.8-6-8.3-9.4c-1.5-2-1.6-4.5-1.7-6.9c-0.3-5.2-0.4-10.4-0.6-15.5c0-1.3-0.2-2.6-0.7-3.9
		c-2.7-7.2-2.4-14.9-3.2-22.4c-0.1-0.6,0-1.2,0.3-1.8c2.5-5.4,2.5-10.8,0.4-16.3c0.1-1.3,0.1-2.6-0.2-3.8c-0.1-4.8-0.1-9.6-0.5-14.4
		c-0.2-3.2-0.9-6.4-3.2-9c-0.6-0.7-1-1.6-1.2-2.6c-1.5-7-2.6-14-2.6-21.1c0-2.3-0.1-4.6-0.8-6.8c-2.1-7.3-3.1-14.9-3.3-22.5
		c-0.2-6-1.8-11.8-1.4-17.9c0.3-4.2-2.4-8.1-1.9-12.5c0-0.3-0.3-0.6-0.5-0.9c-3.1-4.3-5.4-9-6.3-14.3c-0.1-0.8-0.5-1.6-0.7-2.4
		c-1.4-5.6-3.3-11.1-4.1-16.8c-0.7-4.6-0.8-9.2-2-13.8c-1.9-6.9-2.7-14.2-4-21.3c-0.4-2.4-0.9-4.8-2.7-6.5c-3.2-3-4.4-6.9-5-10.9
		c-1.1-7.3-3.3-14.3-5.9-21.1c-1.8-4.6-3.4-9.2-4.6-14c-0.4-1.5-0.5-3.1-1.8-4.5c-0.6,4-0.8,8-3.9,10.9c-0.3,0.3-0.3,0.9-0.5,1.3
		c-1.5,4-2.4,8.4-5.7,11.5c-0.2,0.2-0.4,0.6-0.5,1c-1.2,5.1-4.4,9.6-4.2,15.2c0.1,2-0.5,4.1-1.2,6c-0.8,2.1-0.8,4.2-0.5,6.4
		c0.8,4.8,0.8,9.6,0.8,14.4c0,1.9,0,3.9-0.7,5.7c-2.5,6.7-3.1,13.8-4,20.9c-0.9,6.9-1.5,14-3.9,20.5c-1.6,4.3-1.9,8.6-2.5,13
		c-0.4,2.9-3,5.1-2.8,8.2c-2.2,1.2-1.8,3.1-1.2,5c0.5,1.5,0.5,3.1,0.3,4.7c-0.5,2.8-0.3,5.5-0.4,8.3c-0.5,11.7-1.2,23.3-2.3,35
		c-0.3,2.8-1.6,5.3-1.5,8.2c-0.4,1.9-0.9,3.7-1.3,5.6c-1.4,5-1.8,10.1-2.4,15.2c-0.8,6.7-0.2,13.4-1.4,20.1c-0.5,3,0.5,5.6,2.3,8
		c0.1,1,0.2,2,0.2,3c-0.4,2.5-0.7,5-1.1,7.5c-1.5,9.3,0.4,18.2,2.4,27.2c0.7,3.1,1,6.1-0.4,9.2c-0.7,1.6-0.7,3.4-0.3,5
		c0.8,3.6-0.3,6.5-1.9,9.6c-1.7,3.2-4.5,5.6-6.1,8.9c-5,2.9-4.8,8.4-6.3,12.9c-1.6,4.8-2.9,9.6-5.7,13.9c-2.2,3.3-4,6.8-7.3,9.2
		c-1.4,1-2.5,2.2-3.7,3.5c-2,2.1-4.2,3.9-7,4.8c-2.7,0.9-4.8,3-7.9,3.1c-3.5,0.1-7-0.2-10.4-1c-1.3-0.3-2.6-0.7-3.9-0.9
		c-3.9-0.6-6.2-2.9-7.4-6.5c-0.8-2.4-1.1-5-1-7.5c0.3-6.1,0.6-12.3,2.2-18.2c0.9-3.4,2.8-6.6,4.4-9.8c3.6-7.2,8.5-13.6,13-20.3
		c3.9-5.8,6.8-12.1,8.7-18.9c0.8-1,1.1-2.2,1.5-3.3c0.3-0.5,0.8-0.9,1-1.4c1.8-5.1,1.2-10-1.8-14.5c-0.1-0.5,0.1-1.2-0.9-0.9l0.1,0
		c0.2-0.3,0.4-0.5,0.3-0.9c-0.9-4,0.3-7.1,3.9-9.1c1.3-0.7,1.6-2,1.3-3.1c-1.4-4.3-1-8.8-2.1-13.1c-1.5-5.7-2.5-11.5-2.1-17.4
		c0.2-2.6,0.1-5.4-0.9-7.8c-2.3-5.7-3.1-11.8-4.2-17.8c0.3-2.7,2-5.1,1.7-7.9c-0.4-3.3-0.7-6.6-1.1-9.9c-0.8-7.8-1.1-15.6-2.6-23.3
		c1.3-1.3,0.8-2.8,0.5-4.3c-0.7-3.1-1.1-6.1,1.3-8.8c1.2-1.3,1.3-3.1,1.6-4.7c0.3-1.9,0-3.8,1.4-5.5c0.6-0.7,0.1-1.6-0.2-2.4
		c-1.7-4.5-1.8-9.2-2.3-13.8c-0.2-2.2,0.1-4.4,1-6.3c0.9-2,1-4,0.7-6c-1-6-1.3-11.9-1.2-18c0-1.4-0.2-2.9-0.3-4.3
		c-0.1-7.6-1.7-15.1-2-22.6c-0.2-3.5-0.9-6.8-2.9-9.8c-4.4-6.5-6.5-13.9-6.9-21.7c-0.3-7.6-1.4-15.1-2.1-22.6c2,0.4,4,0.7,6.1,0.6
		c10-0.3,20-0.1,29.8-2.3c1.3-0.3,2.6-0.3,3.9-0.4c5.2-0.6,10.6,0.3,15.8-1.2c1.6-0.5,3.3-0.3,5-0.3c0.8,0,1.7,0,1.8,1.3
		c0.1,2.7,2,3.3,4.2,3.4c3.1,0.1,6.2,0.1,9.4,0c5.2-0.2,10.3-1.2,15.4-1.5c10-0.7,19.8-2.6,29.4-5.4c9-2.7,18-3.3,27.1-2.4
		c13.1,1.3,26.2,1.3,39.2-0.8c0.9,10.2,0.5,20.5,0.6,30.7c0.1,4.3,0,8.7-0.8,13c-0.8,4.6-1.1,9.4-3.3,13.6
		c-2.2,4.3-2.9,8.6-3.1,13.5c-0.2,7.5-1.6,15-1.8,22.6c-0.1,4.3-0.4,8.6,0.5,12.9c1.1,4.7,1.4,9.5,0.8,14.3
		c-0.2,1.4-0.4,2.9,0.3,4.3c1.1,2.2,1,4.4,0.9,6.7c0,3.1,0.6,6,3.3,7.9c1.4,1,1.7,2.5,1.7,4.1c-0.1,3.8,0.3,7.6,0.3,11.4
		c0,2.8,0.3,5.5-0.1,8.3c-0.3,2.4-0.4,4.8-0.1,7.2c0.7,7.1,0.1,14.2-0.6,21.2c-0.2,2.3-0.3,4.6-0.1,6.9c0.8,9.1,1.3,18.2,0.2,27.4
		c-0.4,3.2-0.4,6.5,0.3,9.7C292,857.5,292.1,858.8,292.4,860.1z M267.7,913.2c0.1,0.3,0.2,0.8,0.6,0.2
		C268.4,913.3,268,913.1,267.7,913.2l-0.1-0.2C267.5,913,267.7,913.2,267.7,913.2z M128.5,935.5c0.1-1.1-0.2-2-1.3-2.3
		c-1.1-0.3-2.2-0.5-3.3,0.6c-1.9,2-2.6,4.4-3,7.1c-0.3,2.9,0.8,6-1,8.8c-0.5,0.8,0.3,1.6,1,2.1c0.7,0.6,1.5,0.1,1.9-0.4
		c1.5-1.7,3.2-3.2,3.3-5.8c0.1-1.8,0.5-3.5,1.3-5.2C128,938.9,128.1,937.1,128.5,935.5z M287.6,970.8c-0.2,3.2,2.2,4.6,3.4,6.7
		c1.7,3.1,4.4,4.6,7.3,6c2.4,1.1,3.8,0.6,5.3-1.7C297.2,980,293.9,973.5,287.6,970.8z M107,981.5c1.4-0.1,2.9-0.2,3.7-1.7
		c0.8-1.5-0.3-2.5-1.1-3.5c-1-1.2-2.1-2.3-3.3-3.2c-2.1-1.6-3.6-1.1-4.5,1.4C100.4,978,102.9,981.4,107,981.5z M284.7,944.1
		c-0.1-1.6-0.3-3.1-0.9-4.6c-0.3-0.8-0.9-1.7-1.8-1.4c-0.7,0.3-1.6,1.2-1.6,1.8c0,2.1,0.3,4.3,0.6,6.4c0.1,0.8,0.9,1,1.7,1
		c0.8,0,1.4-0.3,1.5-1.2C284.4,945.5,284.9,944.9,284.7,944.1z M134,889c2.5,1.6,8.6,2.3,11.5,1.4C141.5,890.3,138.1,889.8,134,889z
		"/>
	<path class="st2" d="M117.2,780.5c1.5,7.7,1.8,15.5,2.6,23.3c-1.5,0-1.1-1.3-1.3-2.1c-6.2-27.5-11.6-55.1-17.3-82.7
		c-5.1-25.2-10.1-50.5-15.5-75.7c-8.6-40.5-18.1-80.8-25.4-121.6c-2.3-12.8-4.5-25.6-6.1-38.5c-1.5-12.6-2.6-25.1-3.3-37.8
		c-1-19.9-0.5-39.8,2-59.5c2.4-19,7.4-37.3,14.2-55.1c1.7-4.4,3.1-9,5.3-13.3c1.4-2.6,2.8-5.3,3.4-8.3c0.7-0.3,0.4-1.1,0.7-1.6
		c0.1-0.1,0.2-0.1,0.2-0.2c-0.1,0.1-0.1,0.2-0.2,0.3c-0.2,0.5-0.4,1-0.6,1.6c-0.4,0.5-0.8,0.9-1.1,1.4c-6,10.3-10.9,21.2-14.8,32.4
		c-9.2,26.4-12.5,53.8-13.2,81.7c-0.1,3.3,0.3,6.7,1.5,9.9c0.1-2,0.3-4,0.5-6.6c0.1,0.9,0.2,1.1,0.2,1.4c0.2,20.3,1.9,40.4,4.5,60.5
		c2.2,17.3,5,34.5,8.3,51.7c4.3,22.3,8.8,44.6,13.3,66.9c6.8,33.7,13.8,67.4,20.7,101.1c6.1,29.7,12.3,59.4,18.5,89.1
		c1.6,7.6,2.9,15.4,4.9,22.9c1.1,6,1.8,12.1,4.2,17.8c1,2.4,1.1,5.2,0.9,7.8c-0.4,5.9,0.6,11.7,2.1,17.4c1.1,4.3,0.7,8.8,2.1,13.1
		c0.4,1.1,0,2.4-1.3,3.1c-3.6,2-4.8,5.1-3.9,9.1c0.1,0.4-0.1,0.7-0.3,0.9c-1.3,0.2-1.6-0.9-2.1-1.6c-1.4-1.9-2.3-4-3.1-6.1
		c-2.5-6.4-4.2-13.1-5.7-19.8c-7.2-31.4-12.1-63.1-17.4-94.8c-2.8-17-5.5-34-8.3-51c-2.8-17-5.6-34-8.3-51c-2.8-17-5.6-34-8.4-51
		c-2.8-16.9-5.5-33.7-8.3-50.6c-0.8-4.6-1.6-9.2-2.4-13.7c-0.3,1.3-0.4,2.5-0.3,3.7c1,8.6,2,17.2,3,25.8c1.5,12.5,3.2,25.1,4.7,37.6
		c1.6,12.8,3.1,25.6,4.6,38.4c1.6,13,3,26.1,4.1,39.2c0.5,6.5,0.9,13,1.5,19.4c0.7,7,1.3,14.1,2.1,21.2c1,8.7,1.4,17.5,2.8,26.2
		c4.1,27,7.7,54.1,12.4,81c2.7,15.3,5.7,30.5,9.1,45.7c0.3,1.2,0.4,2.3,1.2,3.4c3.2,4.3,6.7,8.1,11.6,10.6c2.9,1.5,5.8,2.9,8.8,4.2
		c-0.3,1.2-0.7,2.4-1.5,3.3c-8.5-2.8-15.4-7.7-20.6-15.1c-1.8-2.5-3.7-5.1-6.8-6.3c-1.2,3.4-1.2,3.4-4.6,2.6
		c-0.6-0.1-1.2-0.3-1.7-0.5c-13-4.8-23.2-13.1-30.9-24.4c-3.3-4.8-4.4-10.4-4.2-16.2c1.9-39.2,1.3-78.3,1.2-117.5
		c-0.1-17.2-0.3-34.5-0.8-51.7c-0.8-29.8-1.7-59.5-3.2-89.2c-0.9-16.5-1.6-33-2.5-49.5c-1-17.1-2.1-34.2-3.2-51.2
		c-1.6-24.2-2.5-48.4-1.5-72.6c1-23.5,3.8-46.8,10.7-69.5c6.3-20.7,15.5-39.9,27.9-57.7c0.5-0.8,1-1.7,1.9-2.2
		c0.2,2.8,0,5.4-2.2,7.5c-1.1,1.1-1,2.8-1,4.4c0,1.1,0.6,2.1,0.3,3.2c-18,35.5-27.8,73-28.2,112.9c-0.2,16.5,0.4,33,2,49.5
		c1.3,14,3.2,28,5.5,41.9c3.8,23.2,8.6,46.1,13.7,69.1c13.6,62.1,26.5,124.3,39,186.7C114.7,770.2,115.4,775.5,117.2,780.5z
		 M47.3,462.4c-0.4,3.4,0.1,7.7,0.3,12c1.1,17.9,2,35.9,3.2,53.8c1.5,22,2.1,44,4.1,66c1,11.6,1.7,23.3,2.4,35
		c1.2,17.6,2.3,35.1,3.4,52.7c0.8,13.2,1.5,26.5,2.4,39.7c1.5,20.8,2.7,41.6,4.8,62.3c1.1,10.9,2.4,21.8,4,32.6
		c2.2,14.8,4.5,29.5,6.6,44.3c0.3,2.4,0.3,4.8,0.2,7.2c-0.2,2.5-1.2,3-3.2,1.5c-1.6-1.2-3.2-2.6-5.1-3.5c-5-2.5-7.7-6.7-9-12
		c-1.1-4.3-1.6-8.8-2.1-13.2c-0.1-0.6,0.2-1.4-1-1.7c-0.6,1.1-0.4,2.3-0.4,3.4c-0.1,3.3,0,6.5-0.4,9.7c-0.3,2.8,0.1,5.3,1.2,7.7
		c0.9,2,1.8,4,3,5.8c7.2,10,16.8,17.2,28.3,21.7c0.7,0.3,1.6,0.7,2.5-0.2c-0.1-5.3-1-10.7-1.6-16c-2-17.2-4.2-34.4-6.2-51.7
		c-1.6-14.2-3.3-28.5-4.7-42.7c-1.3-13.8-2.3-27.6-3.5-41.4c-0.6-7.6-0.8-15.2-2-22.8c-2-13.6-3-27.3-4.5-40.9
		c-1-9.8-2-19.6-3.2-29.5c-1.5-12.3-3.2-24.6-4.7-36.9c-1.8-14.5-3.7-28.9-5.3-43.4c-1.5-13.5-2.8-27.1-4.1-40.6
		c-0.9-9.1-1.6-18.2-2.5-27.4C49.3,483.2,48.3,472.3,47.3,462.4z M91.5,846.4c-0.5,1.4-0.3,2.8-0.1,4.2c1.2,10.5,2.5,21,3.7,31.5
		c0.4,3.5,0.4,3.5,4.4,4.5C96.4,873.2,94,859.8,91.5,846.4z"/>
	<path class="st2" d="M292.4,860.1c-0.3-1.3-0.4-2.6-0.3-4c13.2,0.1,26.2-1.9,39-4.9c10-2.3,19.8-2.1,29.5,1c4.9,1.6,10,2.8,15,4
		c5.3,1.3,10.7,1.7,16.1,0.9c7.5-1.1,13.3-5.3,18.5-10.6c6.6-6.8,12.6-13.9,18.7-21.1c1.2-1.4,1.7-2.8,1.5-4.6
		c-0.5-4.1-0.9-8.1-1.3-12.2c-1.8-17.9-4.4-35.6-6.9-53.4c-2.5-17.3-5.2-34.5-7.7-51.8c-3.4-23.7-6.8-47.4-10.8-71.1
		c-6.2-36.7-13.8-73.1-22.2-109.4c-6.7-29-14.3-57.7-21.8-86.5c-6.9-26.4-13.1-53.1-19.8-79.6c-4.8-19-10.3-37.9-18.1-55.9
		c-4.7-10.7-10.1-21.1-17.7-30.1c-2.9-3.4-6.1-6.5-9.8-9c-0.5-0.4-1.2-1.1-1.7,0.1c-1.1,6.5-2.4,12.9-5.3,18.8
		c-0.8,1.6-1.4,3.3-2.6,4.6c-0.2-0.1-0.3-0.3-0.5-0.4c0.4-2,2.1-3.4,2.2-6.3c-1.6,2.4-2.7,4.3-4,6.1c-3.5,5.1-7.7,9.6-13.3,12.3
		c-6.9,3.4-13.8,2.1-19-3.6c-2.5-2.7-4.1-5.9-5.4-9.3c-0.4-1.2-0.8-2.4-1.3-3.6c-0.1,0-0.2,0-0.3,0.1c0.3,2.6,0.6,5.2,0.9,7.8
		c-0.1,0.1-0.3,0.2-0.4,0.3c-2.5-4.7-2.9-9.8-3.3-14.9c-0.2-3.2-0.1-6.5,0.1-9.7c0.1-2-0.1-3.3-2.6-3c0.1-1,1.2-0.9,1.4-1.8
		c-0.7-0.8-2-0.9-3-1.5c3-0.6,0.1-1.5,0.2-2.3c0.1-0.1,0.2-0.2,0.3-0.3c0.3-0.2,0.5-0.3,0.8-0.5c-0.3-0.2-0.5-0.5-0.9-0.2l0.1,0.1
		c0.5-1-1.3-1.2-0.7-2.3l-0.1,0.1c0.5,0,1,0,1.5,0c0,0.3,0.1,0.5,0.4,0.5c0,0,0.1-0.2,0.1-0.3c-0.1-0.3-0.3-0.3-0.6-0.1
		c0.5-1.2-0.9-1.7-1-2.6c0.2-0.3,0.5-0.5,0.7-0.8c1,0.6,2,1.1,3,1.7c0.8-0.8,0.1-1.5-0.1-2.3c-0.1-0.8-0.2-1.6-0.4-2.5
		c1.2-0.4,1.5,0.6,2.1,1.1c0.4,0.3,0.7,0.7,1.1,1c2.2,1.7,3.2,1.3,3.7-1.5c1.4,0.5,1.7,2.3,3.4,2.8c0.8-1,0.2-2.3,0.7-3.6
		c1.4,1,1.4,3.1,3.1,3.6c1-0.3,0.6-1.5,1.2-2c0.8-0.3,1.4,2.5,2.2-0.1c0.2-0.7,0.8-0.3,1,0.1c0.3,0.5,0.5,1.1,1.2,1.2
		c0.7-0.4,0.2-1.4,0.8-1.8c1,0.4,1.5,1.6,2.9,1.8c0.8,0.1,1.2,0.8,1.7-0.3c0.6-1.4,2.1,0.5,2.6-0.8c2.1,3,3.3-0.3,4.9-0.8
		c0.2,0.6,0.4,1.1,0.7,1.7c1.3-0.1,1-1.4,1.6-2c0.8,0.1,0.8,2.5,2.2,0.7c0.3-0.4,0.9-0.5,1,0.2c0.4,2.4,1.3,1.5,2.1,0.3
		c0.5-0.7,0.8-1.5,1.2-2.3c1.5,0.8,0.5,2.3,1.4,3.3c1.6-0.2,1.8-2.3,3.3-2.9c0.7,0.3,0.2,0.8,0.2,1.2c0,0.8-0.6,1.8,0.5,2.2
		c0.8,0.3,1.3-0.4,1.8-0.9c1.1-1,2.3-2,3.5-3.2c1.1,1.5-0.1,3,0.6,4.4c1.7-0.4,2.8-1.9,4.3-2.5c0.6,0.6-0.2,1-0.3,1.5
		c-0.1,1-3,2.1,0.1,2.8c-1.4,1,0.4,2.6-0.8,3.8c-1.3,1.4,0.7,0.8,0.9,1.2c-0.3,1.1-1.8,0.7-2.4,2c6.5,4.1,11.7,9.5,16.1,15.8
		c6.6,9.2,11.5,19.2,15.7,29.6c7.5,18.5,13.1,37.5,17.7,56.8c11.4,47.9,24.5,95.4,36.1,143.2c10.1,41.5,18.9,83.4,26.3,125.5
		c4.2,23.7,7.7,47.5,11.1,71.4c2.7,19.3,5.7,38.6,8.4,57.9c2.5,17.9,5.1,35.8,6.8,53.8c0.2,2.4,0.2,4.8,0.8,7.2
		c0.6,2.9-0.3,5-1.9,7.3c-6.7,9.3-13.8,18.3-22.4,25.9c-8,7.1-17.4,10-28.1,8.3c-4.4-0.7-8.7-1.7-13-2.9c-7.2-2.1-14.4-3.9-21.8-5
		c-2.4-0.3-4.7-0.3-7.1,0.4c-11.7,3.6-23.7,5.4-35.9,5.9C299.6,859.9,296,860,292.4,860.1z M288,276c-1,0.5-1.4,1.4-1.3,2.7
		C287.6,277.8,287.8,276.9,288,276c0.1-0.3,0.2-0.4,0.3-0.7c0-0.2,0.4-0.6-0.2-0.7c0,0.2,0,0.4,0,0.7
		C288.1,275.6,288.1,275.8,288,276z M264.4,274.2c-6-0.2-11,4.5-11.2,10.4c-0.2,5.9,4.6,10.9,10.6,11c5.8,0.1,10.7-4.5,11-10.3
		C275.1,279.5,270.4,274.4,264.4,274.2z M284.9,272.9c-3.4,2.6-4.1,4.3-3,7.1C284,278.2,285.3,276.2,284.9,272.9z M245.8,265.6
		c0.1,0.6-0.1,1.4,0.5,1.7c0.9,0.4,1.3-0.4,1.6-1c0.3-0.6,0.6-1.3,0.8-2c0.5-1.5-1.5-0.3-1.7-1.5c-0.1-0.6-0.8,0.4-0.9,0.8
		C245.9,264.2,245.9,264.9,245.8,265.6z M280.3,281.5c-0.5,0.4-0.9,0.8-0.7,1.5c0,0.1,0.4,0.3,0.6,0.3c0.6-0.3,0.8-0.8,0.7-1.4
		C280.9,281.7,280.5,281.6,280.3,281.5z M245.7,269.3c-0.5,0.2-0.6,0.6-0.6,1.1c0,0.3,0.1,0.8,0.5,0.7c0.5-0.1,0.6-0.6,0.7-1.1
		C246.4,269.6,246.1,269.4,245.7,269.3z M242.7,268.1c0.2-1.6,0.9-2.9-0.1-4.3C241.5,265.2,241.6,266.4,242.7,268.1z"/>
	<path class="st2" d="M150,108.8c2.1-0.4,3.9-1.8,6.1-1.7c0.4,1-0.9,1.3-0.6,1.9c0.9,2.4-1,3-2.5,3.7c0.5,1.2,1.4,1.5,2.3,2
		c0.1,0.4-0.2,0.6-0.5,0.8c-0.4,0.5-1.5,0.1-1.4,1.2c0.1,1.1,1,1.2,1.8,1.3c0.2,0.1,0.4,0.2,0.6,0.3c-0.2,1.8-2.8,1.5-2.9,3.9
		c10-3.1,19.7-6.8,30.1-8c10.4-1.1,20.6-0.3,30.9,0.6c-1.2-0.2-2.3-0.8-3.3-1.4c-1.1-0.7-3.1-1.3-0.7-3c0.5-0.4,0.6-1.4,0-1.6
		c-2.9-1-0.4-2.2-0.1-3.1c-0.5-0.9-1.2-0.8-1.7-0.9c-0.6-0.1-1.2-0.2-1.8-0.3c0.3-1,0.6-1.9,0.8-2.8c-0.9-0.9-2.4,0.1-3.4-1.2
		c4.9-0.6,9.3,0.5,13.8,2c1.9,0.6,1.5,2.2,1.5,3.5c0,0.6-0.6,1.1-0.6,1.7c-0.1,1.6-1.5,3.3,0.6,4.8c0.5,0.3,0.3,1.7,0.5,2.8
		c-1.4,0.2-2.8-0.5-4.2,0.3c-1.3,0.8-3,0.4-4.6,0.3c-9-0.7-18-1.5-27.1-0.4c-5.6,0.7-11.1,1.9-16.6,3.5c-8.7,2.5-17,5.9-25.3,9.4
		c-1.6,0.7-3,1.5-4.3,2.6c-0.2,0.1-0.5,0.1-0.7,0.2c-2.6,1.1-2.6,1.1-2.1,3.8c0.3,1.9,0.1,2.1-1.8,1.9c-2.6-0.2-3.5-0.9-3.9-3.4
		c-0.3-2.5-0.6-5-0.8-7.5c-0.2-2.1,0-4,1.1-5.9c1.3-2.5,1.2-5.1-0.3-7.5c-1.4-2.3-1.9-2.6-4.7-2c-1.6,0.3-2.5-0.1-3.2-1.5
		c-0.9-1.5-2.1-2.6-4.1-2c-1.2,0.4-1.9-0.2-2-1.4c-0.1-1.4-1.1-2-2-2.9c-9.7-9.5-17.2-20.4-21.4-33.4c-1.9-5.8-3.6-11.8-4.3-17.9
		c-0.6-5.1-0.3-10.1,1.1-15c0.5-1.6,1.1-3.2,2.2-4.5c0.5-0.6,1.2-1.3,2.1-1c0.9,0.3,1.3,1.1,1.4,1.9c0.1,0.7,0.1,1.4,0.2,2.2
		c0.3,2.6,0.5,5.3,0.9,7.9c1.6,11.1,8.1,19.4,15.2,27.4c3.5,3.9,7.8,6.7,12.4,9.2c1.4,0.7,2.6,1.6,4.3,0.4c1-0.7,1.8,0.1,2.1,1.2
		c0.3,1.1,1.1,1.8,2.1,1.3c1.9-1,3.1-0.2,4.4,1.1c0.6,0.6,1.8,0.9,2.3,0.2c1.7-2.6,4.7-2.7,7.1-3.9c1.7-0.9,3.3-1.8,4.6-3.3
		c2.7-3.1,5.8-5.8,9.3-8c2.5-1.6,5.1-3.2,7-5.6c0.5-0.7,1.3-1.1,2.1-1.4c2.1-0.6,4-1.1,5.4-3.1c0.8-1.2,2.6-1.2,3.9-0.2
		c0.7,0.5,1.1,1.5,2,1.4c5.5-0.4,9.5,3.6,14.6,4.7c3.3,0.7,6.5,2.2,9.1,4.4c3.1,2.6,6.8,2.8,10.4,3.5c1.2,0.2,2.3,0.1,3.3,1
		c1.2,1.1,2.4,0.6,3-0.6c0.8-1.6,1.9-2.3,3.8-1.9c1.1,0.2,1.7-0.6,1.8-1.7c0.1-1.5,0.9-2.1,2.5-1.7c1.4,0.4,2.3-0.6,3.1-1.4
		c3.3-3,6.5-6.1,8.8-10c4.3-7.4,8-15.1,9.4-23.7c0.8-5.1,0.4-10.1-0.5-15.1c-0.2-1.2-0.5-2.4-0.6-3.6c-0.1-1-0.1-2,0.9-2.6
		c1.2-0.6,2.1,0.1,2.9,0.9c1.6,1.4,2.7,3.1,3.6,4.9c2.5,4.9,3.7,10.2,4,15.7c0.5,9,0.5,18.1-2,26.9c-2,7.4-4.5,14.8-8.1,21.6
		c-0.9,1.7-1.8,3.4-3.1,4.9c-0.6,0.7-1.3,1.4-1.2,2.5c0.2,1.6-0.3,2.3-2.1,2.4c-1.6,0.1-2.6,1.5-3,3.2c-0.4,1.5-1.3,2.3-2.9,2
		c-2.1-0.3-3,0.9-3.7,2.6c-1.1,3-0.8,5.8,1.4,8c2.9,2.9,2.2,6.7,2.9,10.2c0.1,0.7-2.1,2.1-2.9,1.9c-1.9-0.5-2.7-1.7-2.1-3.2
		c1.1-2.6,0.6-4.9-1.1-6.9c-0.3-0.4-1-0.8-0.7-1.1c1-1.3,0-1.5-0.8-2c-2.5-1.3-5-2.4-7.8-2.8c-4.5-2.2-9.3-3.1-14.2-3.7
		c-7.4-0.9-14.9-0.7-22.3-0.5c-8.1,0.2-15.8,2.5-23.5,4.8c-4.1,1.2-8.4,1.9-12.2,4.3c-6.9,2.8-12.9,6.7-18.5,11.6
		c1.1,1,2.2-0.2,2.9,0.7c-1.3,1.6-1.1,3.2,0.1,4.8c0.7,1,1.6,0.9,2.5,0.3c1.2-0.7,1.4-2,1.4-3.1c0-1.2-1.1-1.8-2.3-1.9
		c-0.6-0.1-1.2-0.1-1.7-0.1c1.4-1.7,3.2-1.8,4.6,0c0.6,0.7,0.9,1.7,1.3,2.5c0.6,1.7-0.1,3.2-0.7,5.1c3.1-1.4,6.7-1.6,5.9-6
		c0-0.1,0.2-0.2,0.2-0.3c0.5-1.3-0.4-3.4-1.8-4.6c-0.6-4.1-0.6-4.1,2.7-6.2C147.8,110.2,148.9,109.5,150,108.8z M132.4,131.9
		c-0.1,0-0.2,0-0.3,0.1c-0.1,0-0.1,0.1-0.1,0.2C132.1,132.1,132.2,132,132.4,131.9c0.4-0.1,0.8-0.2,0.7-0.8c0.7,0.2,1.2,0,1.4-0.7
		c0.3-0.1,0.6-0.2,0.9-0.3c-0.1-0.1-0.2-0.2-0.3-0.2c-0.3,0-0.7,0-0.6,0.5c-0.7-0.2-1.2-0.1-1.4,0.7
		C132.6,131.2,132.4,131.4,132.4,131.9z M240.9,84.8c0,0.1,0.1,0.2,0.1,0.3c0,0.1,0.1,0.1,0.2,0.1C241.1,85.1,241,85,240.9,84.8
		c-0.2-0.4-0.3-0.7-0.8-0.6c0-0.6,0.1-1.2-0.7-1.5c0-0.4-0.1-0.8-0.7-0.7c0.3-1.1-0.5-1.8-1-2.5c-0.2-0.5-0.4-1.1-1-1.2
		c-0.2-0.6-0.6-1-1.2-1.2c-0.1,0.4-0.2,0.9-0.3,1.3c-1.8,0.4-1.9-1.7-3.4-2.1c-0.5,1.2-1.2,2.3-1.3,3.6c-1.1,0.1-1.5-2-2.3-1.1
		c-0.8,0.8-2.8,1.1-2.2,2.8c0.5,1.4-1.5,1.4-1.2,2.6c1.3,0.4,2.9,0.4,3.3,1.9c0.6,2.5,2.7,3.1,4.6,4c0.6-3.4,0.6-3.4,3.7-2.8
		c0.5,0.1,0.9,0.4,1-0.3c0.3-1.3,1.9-1.6,2.2-2.9c0.2,0,0.5,0,0.7,0C240.4,84.4,240.7,84.6,240.9,84.8z M117.9,79.8
		c0.2-0.7-0.3-0.7-0.7-0.7c-0.4-1-1.2-1.4-2.2-1.4c-0.2-1.2-1.4-1.6-2.1-2.3c-9.5-8.9-17-18.9-19.3-32.2c-0.4-2.6-0.2-5.3-1.1-7.9
		c-0.3,0.3-0.7,0.5-0.8,0.8c-2.2,3.2-2,7-2.4,10.6c-0.1,1-1.2,2.2-0.2,3.3c1,1.1,0.7,2.1,0.2,3.3c-0.5,1.4-0.5,3.2,0.5,4.1
		c2.3,1.8,2.6,4.5,3.5,6.8c2.1,6.2,3.5,12.7,8.1,17.7c0.3,0.3,0.9,0.6,1,0.9c1.1,2.9,3,5.1,6.1,6c0.3,0.1,0.6,0.5,0.7,0.8
		c1.6,3.3,5.1,2,7.6,3.2c1.6-1.1,0.7,1,1.5,1.1c1.2-2.2,2.3-4.4,3.5-6.5c0.7-1.2,1-2.7,2.6-3.2c0.8,0.4,0.3,0.9,0.1,1.4
		c-0.3,0.7-1,1.3-0.8,2.2c-0.2,0.1-0.4,0.1-0.5,0.2c0.1,0.1,0.2,0.2,0.3,0.3c0.1-0.2,0.1-0.4,0.2-0.6c1-0.6,2.1-1.1,3-1.8
		c1.2-0.9,1.9-2.1,1-3.6c-1.6-0.2-1.5,2.5-3.3,1.8c0.3-1.2-0.4-1.8-1.4-2.2c-0.7-0.3-1.3-1-2.2-0.7c-0.1-1-0.8-0.8-1.4-0.7
		C119.1,79.8,118.6,79.6,117.9,79.8z M248.9,78.4c-0.2,0.1-0.3,0.2-0.4,0.4c0,0,0,0.2,0.1,0.3C248.6,78.8,248.8,78.6,248.9,78.4
		l0-0.1C248.9,78.3,248.9,78.4,248.9,78.4z M122.2,90c-0.6,0.3-0.7,0.9-0.7,1.5c-2.1,1.9-2.8,4.5-2.9,7.2c-0.4,0-0.5,0.3-0.5,0.6
		c0,0.1,0.2,0.2,0.3,0.2c0.1-0.3,0.1-0.6,0.2-1c1.5-2.2,2.5-4.6,2.9-7.2C122.3,91.1,122.2,90.5,122.2,90c0.3-0.1,0.7-0.1,0.3-0.6
		C122.5,89.5,122.3,89.7,122.2,90z M227.2,91.4c-0.2-0.3-0.4-0.7-0.8-0.7c-0.6-2.6-1.6-4.8-4.3-5.8c0-0.2,0.1-0.4,0.1-0.6
		c-0.1-0.5-0.4-1-0.9-0.7c-0.6,0.4,0.1,0.7,0.3,1c0.1,0.2,0.4,0.2,0.6,0.3c0.9,2.3,2.7,4,4.3,5.8C226.6,91,226.8,91.3,227.2,91.4
		c0.1,0.2,0.2,0.4,0.3,0.7c0-0.1,0.1-0.2,0.1-0.2C227.4,91.7,227.3,91.6,227.2,91.4z M250.3,74.8c-0.2,0.3-0.5,0.5-0.6,0.8
		c-0.1,0.2,0.3,0.3,0.4,0.2C250.2,75.5,250.2,75.1,250.3,74.8c0.6-0.3,0.7-0.9,0.7-1.5c1-0.5,0.6-1.4,0.7-2.1l0.1-0.1l-0.1,0.1
		c-0.6,0.6-0.9,1.4-0.7,2.2C250.1,73.4,250.6,74.3,250.3,74.8z M253.9,64.6c-1.4,0.4-0.6,1.4-0.7,2.2c-1.1,0.6-0.8,1.4-0.4,2.4
		c0.4-0.9,0.8-1.6,0.4-2.5C254.2,66.3,254.2,65.5,253.9,64.6c0.6,0,0.6-0.5,0.6-0.9c0-0.1-0.2-0.2-0.2-0.2
		C253.9,63.8,253.9,64.2,253.9,64.6z M99.7,84.2c0.1-0.3,0.2-0.6-0.2-0.8c0,0-0.2,0.2-0.1,0.2C99.5,83.8,99.6,84,99.7,84.2
		c0.2,0.3,0.3,0.6,0.5,0.9c0.2,0.2,0.5,0.9,0.9,0.2c0.1-0.2,0-0.7-0.2-0.9C100.6,84.1,100.2,84.1,99.7,84.2z M106.3,93.6
		c0-0.5-0.2-0.8-0.7-0.7c0-1.1,0-2.1-1.5-2.2c0.1-0.3,0-0.5-0.2-0.5c0,0.1,0,0.2,0,0.2c0.1,0.1,0.2,0.1,0.3,0.2
		c0.2,0.9,0.6,1.7,1.5,2.1C105.7,93.3,105.9,93.6,106.3,93.6c0.2,0.3,0.3,0.6,0.4,0.9c0.1,0.2,0.5,0.4,0.6,0.3
		c0.5-0.3,0.1-0.6-0.1-0.8C107,93.7,106.7,93.5,106.3,93.6z M102.7,88.5c0,0.1,0.1,0.2,0.1,0.3c0,0,0.1,0,0.2,0
		C102.9,88.7,102.8,88.6,102.7,88.5c0-0.9,0.3-2-1.5-2C101.7,87.4,101.8,88.2,102.7,88.5z M222.8,74c1.2,0.2,2.3,0.1,2.6-1.5
		C224.2,72.6,223.3,73,222.8,74c-0.1,0.1-0.4,0.2-0.6,0.2c0.1,0.1,0.2,0.2,0.3,0.3C222.6,74.4,222.7,74.2,222.8,74z M243,89.3
		c0.1,0.1,0.3,0.3,0.4,0.4c0.3-0.3,0.2-0.5-0.1-0.7c-0.1-1-0.5-1.8-1.5-2.2C242.7,87.3,239.3,89.8,243,89.3z M129.5,90.7
		c-1.2,0.5-1.9,1.6-2.6,2.8c-0.4-1.6-1.5-2.5-2.2-3.8c-2,3-3.2,6.3-4.6,9.5c-0.2,0.4-0.8,1.3,0.1,1.4c1.6,0.2,1.2,1.8,2,2.7
		c0.7-1.1,1-2.6,2.8-2.3c1.5,0.3,1.6,1.6,1.9,2.6c1.7-1.3,3.9-2.4,3.8-5.2c0-0.7,0.7-1.2,1.3-1.6c0.5-0.3,1.4-0.3,1.4-0.9
		c0.1-1.3-1.5-0.6-1.4-0.7c0.3-2.3-2.1-2.6-2.9-4C129,91.1,129.3,90.8,129.5,90.7c0.3,0,0.6,0,1,0c0.5,0,0.9-0.3,0.9-0.8
		c0-0.2-0.3-0.4-0.4-0.5c-0.4-0.1-0.6,0.1-0.8,0.4C129.9,90.1,129.7,90.4,129.5,90.7z M172.5,93c0.8,1.3,2.2,1.7,3.3,2.6
		c0.8-1.3,0.4-2.4,0.5-3.4c2.1-2.3,2.2-2.8,0.3-5c-1.5-1.7-2.1-5.2-0.9-7c1.2-1.9,1-3.3-0.3-5.1c-1.5-2.1-2.7-4.4-0.8-7.2
		c1.2-1.7,0.7-3.9-0.2-5.5c-0.9-1.5-2.6,0.1-3.9,0.1c-0.3,0-0.7,0.3-1,0.4c-1.6,0.5-2.3,1.2-2,3.1c1.4,8.4,2.6,16.8,3.9,25.2
		C171.6,92.1,171.9,92.6,172.5,93z M185,92.3c0.9-1.2,1-2.7,0.9-4.1c-0.5-8-1-16.1-1.5-24.1c0-0.2,0-0.5,0-0.7c0-1.3-1-1.5-2-1.5
		c-2,0-4.1-0.9-5.9,0.4c-0.7,0.5,0.3,4.6,1,5.3c2.3,2.1,2.6,5,0.9,7.9c-0.8,1.4-0.8,2.6,0.4,3.8c2.2,2.3,2.8,4.6,1.3,7.3
		c-1.1,2-1.2,3.6,0.9,4.9c0.1,0-0.1,0.4-0.1,0.6c-0.5,0.4-1.1,0-1.7,0.1c-0.5,0.1-1,0.1-1.1,0.7c-0.2,0.7,0.3,1.1,0.7,1.4
		c0.3,0.2,0.9,0.3,1.3,0.2c1.4-0.4,0-1.7,0.7-2.4c0.4-0.3,0.7-0.2,1,0.1c0.2,1,0,2.8,1.7,0.8C183.9,92.6,184.7,93,185,92.3z
		 M164.2,72.5c0.1,0.8,0.1,1.5,0.2,2.3C164.5,74.1,165.3,73.2,164.2,72.5c0.3-1.5,0.2-2.9-0.6-4.6c-4.9,2.7-9.1,5.8-12.7,9.8
		c-0.2,0.3-0.6,0.5-0.6,0.9c-0.8,3.4-3.5,5.7-4.3,9.2c-0.6,2.4-2.5,4.4-3.7,6.6c-1,1.8-1.8,3.7-2.7,5.5c-0.2,0.5,0.2,1.6,0.3,1.5
		c1-1.3,0.9-0.1,1.5,0.4c0.6,0.5,1.2,0.7,1.2,1.7c0,1,0.5,0.6,1.1,0.2c1.4-1,3.2-1.5,3.8-3.3c0.5-1.5,1.9-1.2,3-1.6
		c2-0.6,2.1-2.2,2.5-3.9c0.4,0.8,0.4,1.6,0.7,2.4c0.4,1.1,1.6,1.1,2,0.4c0.8-1.7,2.4-2.5,3.8-3.5c0.9-0.7,1.4-1.6,1.2-2.8
		c-0.1-1-0.1-2.3,0.8-2.6c2-0.7,1.3-2.1,1.1-3.3c-0.3-1.5-0.8-3.1-0.4-4.6c0.8-2.6,1.7-5.1,1.6-7.9
		C163.7,72.8,164.1,72.6,164.2,72.5z M234.8,74.2c0.4,0.3,0.8,0.6,1.1,0.9c2.7,2.7,2.7,2.6,6.4,0.7c2.1-1,4-1.9,4.5-4.5
		c0-0.3,0.5-0.6,0.8-0.7c2.3-1,2.8-3.3,3.5-5.2c0.6-1.7,1.2-3.4,2-5.1c0.9-1.9,2.1-3.8,1.9-6c-0.2-2,0.4-3.9,0.6-5.9
		c0.1-1.8,0.4-3.5,0.4-5.3c0-2.3,0-4.9,1.3-6.9c1.6-2.5,0.7-4.9-0.3-7c-1.1-2.5-2.6-6.7-2.5-9.8c0-0.8-0.4-1.8-0.8-1.9
		c-2.9-0.2-3-2.7-4-5c-0.2,1.9-0.1,3.2,0.2,4.6c0.8,3.8,1,7.6,0.9,11.5c-0.3,8.4-3.4,15.9-7,23.3c-1.9,3.9-3.3,8-5,12
		c-0.5,1.2,0.3,2.5-0.7,3.4c-1.5,1.3-2,3.1-2.4,4.9c-1.7-0.4-2.5-2.3-4.3-1.9c0-0.1,0-0.2,0-0.3c0-0.1-0.1-0.1-0.2-0.1
		c0.1,0.1,0.1,0.3,0.2,0.4c0.1,0.3,0.4,0.7,0.4,1c-0.1,0.7-0.6,0.6-1,0.4c-1.3-0.8-2.2-2.1-3.7-2.6c-1.1,1.8-0.2,3.1,1.3,3.2
		c2.2,0.3,3.6,1.5,5,3c0.2,0.2,0.4,0.5,0.8,0.3c0.1,0,0-0.2,0-0.3c0-0.1,0-0.2,0-0.4C234.3,74.8,234.6,74.5,234.8,74.2z M192.2,73.2
		c0.4,1.8,1.7,3.3,1.6,5.3c0,2,0.2,4.1,0.3,6.2c0.9-0.2,2.1-1.2,2.4,0.2c0.6,2.8,2.6,3.9,5,4.7c0.9,0.3,1.5,1.6,2,2.2
		c2-0.1,1.5-2,2.2-3.2c0.6,0.8,0.5,1.7,1.6,2c2.2,0.6,4.6,1,6.4,2.7c0.7,0.6,2,0.3,3,0.5c0.8,0.1,0.5-1.1,0.9-1.7
		c0.5-0.9,1.7-1.1,2.1-2.1c-2-2.9-4.3-5.3-6.6-7.8c-1.3-1.4-2.8-2.7-3.9-4.3c-1.5-2.3-6.1-7.3-8.2-8.5c-2.7-1.5-5.6-2.7-8.6-3.7
		c-0.9-0.3-1.8-0.5-2.8-0.5c-1.1,0-1.5,0.5-1.5,1.5c0.1,3.2,0,6.4,0.8,10.1c0.3-2.8,0.5-5.1,0.8-7.4c0.1,0,0.3,0,0.4,0
		c0.4,1.7,0.7,3.4,1.1,5.1C191.9,74.3,191.4,73.4,192.2,73.2z M137.7,86.8c-2-1.1-5.5-2-8.2-2.1C132.5,86.3,135.3,87,137.7,86.8z
		 M133.4,101.9c2.3-3.7,3-5.3,3.3-7.8C134.4,97,133.6,98.9,133.4,101.9z M116.3,105.7c0.6-0.5,2.7,0.8,1.7-1.3c-0.5-1,0.3-2.1-0.7-3
		C116.6,102.8,116.3,104.1,116.3,105.7z M109.1,97.8c1.1,0.8,1.3,1.7,2.4,1.8C111.6,98.3,111,97.8,109.1,97.8z M221.8,74.7
		c-3.2,0.8-3.2,0.8-3.5,2.3C219.5,76.6,220.7,76.3,221.8,74.7z M179.4,82.5c0-0.7-0.1-1.3-0.8-1.5c-0.7-0.2-1.1,0.3-1.2,0.9
		c-0.2,0.9,0.4,1.3,1.2,1.4C179.1,83.4,179.3,83,179.4,82.5z M176.5,69.1c-0.6,0.2-0.7,0.7-0.6,1.3c0.1,0.5,0.5,0.8,1,0.6
		c0.6-0.2,1-0.6,0.8-1.3C177.6,69.2,177.1,69,176.5,69.1z M210.1,73.7c0.5,0.7,1,1,1.6,0.9c0.4-0.1,0.4-0.2,0.1-0.4
		C211.4,73.9,211,73.4,210.1,73.7z M225.3,77.7c-0.2,0.5,0.2,0.6,0.5,0.7c0.5,0.2,0.6-0.2,0.6-0.5c0.1-0.4-0.1-0.7-0.5-0.7
		C225.5,77,225.4,77.3,225.3,77.7z M144.2,82.3c-0.3,0.2-0.5,0.4-0.8,0.6c-0.2,0.2,0,0.5,0.2,0.4c0.3,0,0.6-0.3,0.8-0.5
		C144.5,82.8,144.3,82.5,144.2,82.3z M151.3,122.8l-0.3,0L151.3,122.8L151.3,122.8z"/>
	<path class="st2" d="M120.6,305.7c-3.5-3.4-5.7-7.6-7.9-11.9c-1.5-2.9-2.7-5.9-3.6-9c-0.6-2.1-1.5-3.4-4-2.5c0.2-0.8,0.7-1.3,0.5-2
		c-1.3-0.5-2.8,0-4.6-0.3c1.2-0.3,1.9-0.6,2.7-0.8c0.1-0.9-0.7-0.8-1.2-1c-0.8-0.2-1.9-0.2-0.5-1.4c0.3-0.3-0.3-0.7-0.8-0.9
		c-1.4-0.6-3-0.4-4.2-1.4c0.2-1.2,1-2.4,0.8-3.7c1.4-0.2,2.6,0.4,3.9,0.6c0.4,0.1,0.9,0,1.4,0c-0.2-1.9-2-2.9-2.4-4.7
		c1.7-0.4,2.9,0.9,4.3,1.2c0.7,0.2,1.4,0.5,2.1,0.6c1.5,0.3,1.9-0.3,1.3-1.8c-0.2-0.6-0.5-1.1-0.7-1.6l0.2-0.2
		c1.5-0.1,2.5,1.3,4,1.3c0.9-1.3-0.8-2.4-0.2-3.9c1.6,0.6,2.6,2.4,4.4,2.4c0.7-0.7-0.1-1.6,0.2-2.4l0.2-0.2c0.6-0.4,1.8,1.6,2.2-0.7
		c0.3-1.7,1.3,0.4,2,0.2c0.2,0.1,0.4,0.4,0.5,0.4c0.5-0.2,0.3-0.6,0-0.9c0.1-0.7-1-2.3,1-1.4c0.9,0.4,2,0.1,2.7,0.4
		c2.1,0.9,1.3-0.9,1.7-1.6l0,0c0.4-0.4,1.2,0.2,1.5-0.7c0.1-0.3-0.1-1,0.7-0.8c2.7,0.6,3,0.3,3.8-2.6c0-0.1,0.1-0.2,0.2-0.3
		c1.1-0.1,0.9,1.3,1.8,1.5c1.1-0.5,0.3-1.7,0.9-2.4c0.8-0.2,1.5,1.2,1.7,0.7c1.1-3.1,2-0.8,2.7,0.3c1.8-1.6,0.7-3.7,1.6-5.3
		c1.4,0.5,1.2,2.3,2.7,3c1.1-1.1,0.8-2.8,1.8-4.1c1.5,0.4,0.4,2.6,2.2,2.9c2.2-1.5,2.1-4.5,3.9-6.7c1.1,1.4,1,3.1,1.6,4.7
		c1.9-0.9,2.1-3.1,3.7-4.3c1,1.7-0.7,3.3-0.2,5c1,0.2,1.1-1.2,2.1-1.1c0.5,1-0.8,2.1,0.1,3.1c-0.2-0.3-0.4-0.5-0.6,0
		c0.2,0,0.4-0.1,0.6-0.1c1.7,0.7-0.4,2,0.2,2.4c1.9,1.5-0.3,1.8-0.6,2.7c0.2,1.1,1.4,0.5,2,1.1c0.2,1.2-1.4,0.5-1.6,1.4
		c-0.2,0.9,0.1,1.6,0.4,2.5c2.8,10.8,3.4,21.6,0.3,32.4c-1.3,4.5-3.3,8.8-6,12.6c-7,9.7-17.8,12-28,4.4c-1.7-1.3-3.5-2.6-4.6-4.5
		c0.2-0.2,0.4-0.4,0.5-0.6c2.7,2.2,5.1,4.7,8.3,6.3c6.6,3.3,12.8,2.8,18.6-1.8c2.5-2,4.5-4.4,6.1-7.1c3.9-6.7,5.8-14,6-21.7
		c0.1-3.5-0.1-7.1-0.5-10.6c0,1.9-0.2,3.8-0.2,5.7c0,4.2-0.6,8.4-1.7,12.5c-1.5,5.8-3.6,11.2-7.6,15.8c-5.4,6.3-12.7,7.8-20.2,4.4
		c-2.9-1.3-5.3-3.2-7.7-5.3c-0.8-0.7-1.3-1.8-2.5-2.2c-0.3,1.5,0.9,2.2,0.8,3.3C120.9,305.4,120.7,305.6,120.6,305.7z M119.5,300.3
		c-0.1,0.2-0.3,0.5,0.1,0.7c0,0,0.1-0.1,0.1-0.1C119.7,300.7,119.6,300.5,119.5,300.3c-0.3-0.2-0.5-0.6-1-0.5
		c-0.1-0.3-0.2-0.6-0.3-0.8c0,0.1-0.1,0.2-0.1,0.3c0.1,0.2,0.3,0.3,0.4,0.5C118.8,300.2,119,300.4,119.5,300.3z M152,294.9
		c0-6.4-5.2-11.6-11.5-11.5c-6.3,0.1-11.5,5.4-11.5,11.6c0.1,6.4,5.2,11.4,11.6,11.4C147.1,306.3,152,301.4,152,294.9z M155.9,282.7
		c1.6-2.4,2-5,1.1-7c-0.4-0.9-1-1-1.6-0.2C154.1,277.3,154.4,280.7,155.9,282.7z M117.1,282.5c0-0.7,0-0.9,0-1.1
		c0.4-2.5-2.2,0.3-2.3-1.3c-1.2,0.2-0.4,1-0.5,1.6c-0.1,0.2,0,0.5,0.1,0.7c0.3,1,0.5,2.5,1.7,2.4C117.3,284.6,117,283.1,117.1,282.5
		z M112.6,287.8c-0.3-1.7-0.2-3.6-1.6-5.3C109.9,285,111.7,286.3,112.6,287.8z M156.3,285.7c-0.2-0.2,0.1-0.9-0.6-0.9
		c-0.5,0-0.7,0.5-0.7,1c0,0.5,0.1,1,0.7,1C156.2,286.8,156.2,286.2,156.3,285.7z M117.1,288.3c0-0.5,0-1.2-0.8-1.3
		c-0.4,0-0.5,0.4-0.5,0.7c0,0.5,0.1,0.9,0.6,1.1C117,289.1,117,288.6,117.1,288.3z M113.4,289.4c0-0.1-0.1-0.2-0.1-0.3
		c-0.1,0.1-0.2,0.1-0.2,0.2c0.1,0.1,0.1,0.3,0.2,0.4C113.3,289.6,113.3,289.5,113.4,289.4z"/>
	<path class="st2" d="M163.1,879.3c-0.1-1-0.2-2-0.2-3c7.2,0.7,14.3,1.9,21.6,1.6c6.8-0.3,13.8,0.1,20.5-0.7c8.3-1,16.6-3,24.8-4.9
		c8-1.9,15.5-5,23.2-7.8c0.3,1.3,0.3,2.5,0.2,3.8c-12.6,5.2-25.6,8.9-39.2,10.5c-10.5,1.2-20.9,3.4-31.5,2.6
		C176,881,169.5,880.3,163.1,879.3z"/>
	<path class="st2" d="M227,117c-0.1,0-0.2,0-0.4-0.1c-1.9-0.5-4.5,0.2-5.1-2.5c-0.6-2.7-0.6-5.5,2-7.5c0.3-0.2,0.6-0.4,0.8-0.7
		c3.6,0.3,4.7,1.1,5.3,4.1C230.3,113.1,229.2,115.7,227,117z M225.6,108c-1.3,0-1.9,0.5-1.6,2c0.3,1.3,0,2.8,2.1,2.3
		c1.9,0.4,2.5,0,2.4-1.5C228.3,109.2,227.5,108,225.6,108z"/>
	<path class="st2" d="M97,274.4c0.8,1.1,0.2,1.4-0.8,1.4C95.8,275,96.1,274.6,97,274.4z"/>
	<path class="st2" d="M159.9,246.9c0.2,0.7,0.2,1.3-0.7,1.5C159,247.7,159.3,247.3,159.9,246.9z"/>
	<path class="st2" d="M96.2,275.8c0,0.7-0.4,0.9-1,0.9C95.3,276.2,95.5,275.7,96.2,275.8z"/>
	<polygon class="st2" points="297.4,250.9 297.7,250.8 297.6,251 	"/>
	<path class="st2" d="M107.7,265.1c-0.2-0.1-0.3-0.3-0.5-0.4c0.4-0.4,0.6-0.2,0.7,0.2C107.9,264.9,107.7,265.1,107.7,265.1z"/>
	<path class="st2" d="M126.6,258.5c-0.4-0.3-0.2,0.4-0.3-0.1c0-0.1,0-0.2,0-0.2C126.6,258.1,126.7,258.2,126.6,258.5
		C126.6,258.5,126.6,258.5,126.6,258.5z"/>
	<path class="st2" d="M116.3,262.3c-0.3,0-0.4-0.1-0.3-0.4c0-0.1,0.1-0.2,0.2-0.2c0.1,0.1,0.2,0.3,0.4,0.4
		C116.5,262.1,116.3,262.3,116.3,262.3z"/>
	<path class="st1" d="M292.6,262.1c0.5-1.2,1.1-0.5,1.7-0.1c3.7,2.5,6.9,5.6,9.8,9c7.6,9,13,19.4,17.7,30.1
		c7.9,18.1,13.3,36.9,18.1,55.9c6.7,26.5,12.9,53.1,19.8,79.6c7.5,28.8,15.1,57.5,21.8,86.5c8.4,36.3,16,72.7,22.2,109.4
		c4,23.6,7.4,47.3,10.8,71.1c2.5,17.3,5.2,34.5,7.7,51.8c2.5,17.8,5.1,35.5,6.9,53.4c0.4,4.1,0.8,8.2,1.3,12.2
		c0.2,1.8-0.3,3.2-1.5,4.6c-6.1,7.1-12.2,14.3-18.7,21.1c-5.1,5.3-10.9,9.5-18.5,10.6c-5.4,0.8-10.8,0.5-16.1-0.9
		c-5-1.2-10.1-2.5-15-4c-9.8-3.1-19.5-3.3-29.5-1c-12.8,3-25.8,5-39,4.9c-0.7-3.2-0.7-6.5-0.3-9.7c1.1-9.1,0.7-18.3-0.2-27.4
		c-0.2-2.3-0.1-4.6,0.1-6.9c0.7-7.1,1.3-14.1,0.6-21.2c-0.2-2.4-0.2-4.8,0.1-7.2c0.3-2.8,0.1-5.5,0.1-8.3c0-3.8-0.4-7.6-0.3-11.4
		c0-1.7-0.3-3.1-1.7-4.1c-2.7-2-3.4-4.9-3.3-7.9c0-2.3,0.1-4.5-0.9-6.7c-0.7-1.3-0.5-2.8-0.3-4.3c0.6-4.8,0.3-9.6-0.8-14.3
		c-0.9-4.3-0.6-8.5-0.5-12.9c0.1-7.6,1.5-15.1,1.8-22.6c0.2-4.8,0.9-9.2,3.1-13.5c2.2-4.2,2.5-9,3.3-13.6c0.8-4.3,0.9-8.6,0.8-13
		c-0.2-10.2,0.3-20.5-0.6-30.7c1.7-0.9,2.2-2.4,2-4.2c-0.2-2.5-0.4-5-0.6-7.5c-0.6-10.1-1.1-20.1-1.7-30.2
		c-0.2-3.8-0.4-7.7-1.4-11.4c-0.8-3.2-1.2-6.3-1.4-9.6c1.7-0.1,2.4-0.9,2.4-2.7c-0.1-2.8,0-5.5,0.1-8.3c0.1-2-0.5-4.1,1.8-5.4
		c0.2-0.1,0.3-0.6,0.4-1c0.8-4.7,2.9-9.1,3.5-14c0.4-3.6,1.8-7,1.9-10.6c0.2-4.9-1-9.5-3.7-13.3c-3-4.2-4.4-8.7-4.8-13.7
		c-0.2-2.9-0.5-5.7-2.3-8.2c-0.5-0.6-0.6-1.6-0.7-2.4c-0.8-3.9-1.5-7.8-2.2-11.7c-0.4-2-0.4-4,0-6.1c0.8-4,1.3-8.1,1-12.2
		c-0.3-4.4,0.8-8.6,0.6-13c0-1.3,0.8-1.9,1.5-2.8c4.4-5.6,9.5-10.5,14.3-15.8c4.6-5,7.5-10.8,8.7-17.5c0.5-2.5,1.1-4.9,1.8-7.4
		c0.3-1.2,0.7-2.3,1.6-3.2c2.2-2.3,2.8-5.1,2.6-8c-0.4-7.7,0.8-15.3,0.1-23.1c-0.6-6.1-0.7-12.2-2.4-18.2c-0.3-0.9-0.4-1.9-0.4-2.8
		c0.1-2.8-0.5-5.2-2.7-7.2c-1.6-1.5-1.5-3.5-1.1-5.4c0.8-3.5,0.5-6.6-2.7-8.9c-0.7-0.5-1.1-1.2-1.2-2.1c-0.3-2.4-0.5-4.8-1.1-7.1
		c-0.3-1.2,0.5-2.3,1.1-3.4c1-2,1.7-4,0.1-6.1c-0.6-0.8-0.7-1.8-0.7-2.8c0-1.7-0.3-3.4-1-4.9c-0.8-1.9-0.6-3.8-0.4-5.7
		c0.2-2.6-0.4-5-1.5-7.3C301.7,269.8,298.1,265.2,292.6,262.1z M391.5,778.2c-0.1-0.7-0.1-1.4-0.3-2.1c-1.5-8.4-3-16.8-4.5-25.3
		c-4.5-25.9-9-51.7-13.5-77.6c-4.2-23.8-8.3-47.7-12.6-71.5c-4.8-26.5-9.7-53.1-14.8-79.5c-6.6-33.9-13.5-67.8-21.7-101.4
		c-0.3-1.4,0.1-3.9-1.8-3.6c-1.2,0.2-0.2,2.5,0,3.8c4.7,22.3,9.4,44.5,14,66.8c5.3,25.8,10.2,51.7,14.9,77.7
		c4,22,7.9,44.1,11.8,66.1c3.6,20.2,7,40.3,10.6,60.5c3.9,22.2,7.9,44.3,11.9,66.5c1.2,6.6,2.5,13.3,3.7,19.9
		c0.1,0.7,0.4,1.5,1.3,1.4C391.7,779.8,391.5,778.9,391.5,778.2z"/>
	<path class="st2" d="M290.1,557.6c0.1,3.2,0.6,6.4,1.4,9.6c1,3.7,1.1,7.6,1.4,11.4c0.6,10.1,1.1,20.1,1.7,30.2
		c0.1,2.5,0.4,5,0.6,7.5c0.1,1.8-0.4,3.3-2,4.2c-13,2.1-26.1,2.1-39.2,0.8c-9.2-0.9-18.2-0.3-27.1,2.4c-9.6,2.8-19.4,4.8-29.4,5.4
		c-5.1,0.3-10.2,1.3-15.4,1.5c-3.1,0.1-6.3,0.1-9.4,0c-2.2-0.1-4.1-0.7-4.2-3.4c-0.1-1.2-1-1.3-1.8-1.3c-1.7,0-3.5-0.2-5,0.3
		c-5.2,1.6-10.5,0.6-15.8,1.2c-1.3,0.2-2.6,0.1-3.9,0.4c-9.8,2.2-19.8,2-29.8,2.3c-2.1,0.1-4.1-0.2-6.1-0.6
		c-0.1-0.7,0.4-0.7,0.9-0.8c1.4,0,2.9,0,4.3-0.1c0.7,0,1.5-0.1,1.6-1.1c0.1-0.8-0.3-1.4-1.2-1.5c-1.6,0-2.6-0.7-2.3-2.4
		c0.2-1.4-1.4-2.8,0.2-4c0.7-0.6,1.2-1.1,0.3-2c-0.8-0.7-0.6-1.8-0.6-2.7c0.2-3.8-0.4-7.7,0.7-11.5c0.3-1,0.2-2.2,0-3.2
		c-0.3-1.3,0-2.6,0-3.9c0-3.2,0.5-6.3-1-9.5c-1.1-2.3-2.4-5.3,0.4-7.7c0.3-0.3,0.3-0.9,0.5-1.3c0.6-1.9,1.2-3.9,3-5.1
		c0.4-0.3,0.7-0.7,0.8-1.2c1.1-3.7,2.1-7.3,3.2-11c1.9,0.2,3.5,1.2,4.7,2.4c1.7,1.7,3.7,2.7,5.7,3.7c5.8,2.9,11.6,5.9,17.6,8.3
		c1.9,0.8,3.6,2,5.2,3.1c1.5,1,2.3,0.6,3-0.9c2.1-4.2,3.3-8.7,4.3-13.3c0.8-3.9,1.2-7.8,0.1-11.7c-0.5-2.1,0.1-4.3,0.7-6.4
		c1.5-5.2,2.7-10.5,3.6-15.7c1.5-7.8,2.3-15.7,4.2-23.4c0.7-2.9,1.3-5.9,1.9-8.8c0.1-0.5,0.1-1.1,0.4-1.3c3-2.2,2.3-5.6,1.9-8.3
		c-0.5-3.8,0.2-7.4,1-11c0.9-4,2.2-7.9,3.3-11.8c0.1-0.2,0.1-0.5,0.2-0.7c0.4-0.8,0.4-2.2,1.7-1.8c1.2,0.3,0.9,1.5,0.9,2.4
		c0,0.8-0.2,1.7-0.2,2.5c-0.2,3.7,0,4,3.9,4.3c0.8,0.1,1.2,0.4,1.8,0.8c1.7,1.2,2.6,0.8,2.9-1.2c0.2-1.2,0.1-2.4,0.2-3.6
		c0.1-0.8,0.2-1.7,0.4-2.5c0.2-0.7,0.6-1.4,1.5-1.3c0.9,0,1.2,0.8,1.2,1.5c0.1,1.7,0.1,3.4,0.2,5.1c0,0.8-0.1,1.7,0.5,2.4
		c0.6,0.8,1.4,0.9,2.3,0.7c1-0.3,0.7-1,0.5-1.7c-0.5-1.8-0.2-3.6,0-5.4c0.1-1,0.2-1.9,0.1-2.9c-0.2-2-1.3-2.9-3.2-2.4
		c-1.4,0.4-2.6,0.7-4.1-0.1c-1.8-0.9-2.6-0.1-2.7,2c-0.1,1.8,0,3.6-0.2,5.4c-0.1,0.7-0.4,1.5-1.3,1.3c-0.8-0.1-0.7-0.8-0.8-1.4
		c-0.2-2,0.7-3.8,0.9-5.7c0.3-3.4,0.3-3.5-3.3-4.4c1.7-1.5,3.3-2.1,5.6-1.6c3.5,0.8,7.2,0.5,10.8,0.4c1.7,0,2.1,0.4,2.5,2.1
		c0.8,3.7,0.1,7.4,0.8,11c0.7,3.6,0.9,7.3,1,11c0.1,6.8,1.4,13.6,1.6,20.4c0.2,7.6,0.6,15.2,0.8,22.7c0.1,3.7,0.4,7.4,0.7,11.2
		c0.1,0.9,0.3,1.6,0.8,2.3c1.7,2.7,2.4,5.9,3.8,8.7c0.4,0.7,0.3,1.7,0.2,2.5c-0.4,3.3,0.6,6.4,1.6,9.5c0.6,1.9,1.3,2,2.8,0.6
		c0.3-0.3,0.7-0.7,1-1.1c2.5-4.5,6.9-5.1,11.3-5.7c5-0.7,10.1-1.1,15-2.2c5.3-1.2,10.6-2.1,15.9-3c3.5-0.6,7-0.6,10.5-0.5
		c2.6,0,5.2,0.1,7.9-0.5c2.2-0.6,4.5,0,6.8,0.5c0.4,0.1,1,0.3,1.2,0.6C282.5,552,287.2,553.9,290.1,557.6z"/>
	<path class="st1" d="M173.2,203.5c0.7-2.3-2.9-1.8-2-4.3c-3.1,2.1-4.9,3.9-4.9,7.5c0,3.5-2.5,6.2-4.8,8.6c-1.1,1.1-2.2,0.5-3.2-0.4
		c-2.5-2.2-4.1-5.1-4.9-8.3c-1.6-6.5-4.1-12.8-4.7-19.6c-0.1-0.7-0.1-1.7-1.2-2c0.2-6-0.1-12,0.5-18c0.4-4.2,0.9-8.4,1.9-12.4
		c0.3,0,0.4-0.2,0.4-0.5c1.3-6.2,1.9-12.6,8.1-16.5c1.9-1.2,2.7-3.6,4-5.5c2.4-3.7,5.5-4.7,9.1-2.8c0.5,0.3,0.9,0.1,1.3,0
		c2.3-0.2,3.2,0.5,3.3,2.5c0.1,2,0.4,4.1-0.2,6.1c-0.6,1.8-0.7,3.7-0.2,5.3c0.8,2.7-0.8,4.2-2.6,5.4c-1.3,0.9-2.9,1.2-4.5,1.1
		c-4.5-0.1-8.4,1.6-12.2,3.6c-1.3,0.7-2.4,1.8-1,3.5c1.2,1.4,0.5,2.7-0.2,4c-1,2.1-1,4.2,0.7,6c1.2,1.4,2.5,1.7,3.8-0.1
		c1.2-0.1,2.1-0.8,2.8-1.7c0.5,1.3,1.3,2.5,1.3,4c0,2.1,0.5,2.7,2.2,2.4c1.6-0.3,3.3-0.4,5-0.6c0.8-0.1,1.6-0.4,1.7-1.5
		c0.4-0.5,0.9-1,1.3-1.5c0.5,0.1,1-0.1,1.3-0.5c1.8-2.6,3.5-5.2,4.6-8.2c0.5-1.4,1.1-2.7,1.1-4.2c0-0.8,0.4-1.4,1.3-1.4
		c0.7,0,1.1,0.4,1.3,1c0.4,1.4,1.3,2.7,1.3,4.1c-0.1,5.5,1.3,11,0.9,16.5c-0.2,3.4-0.2,7.1-4,9c-0.1,0,0,0.4,0,0.7
		c-1.3-0.1-2.6-0.1-3.7,0.8c-1.5,1.1-1.4,2.9,0.2,3.7c0.6,0.3,1.4,0.2,2.1,0.3c0.4,1,1.3,1.4,2.2,1.7c2.7,1,2.7,3.2,2.9,5.6
		c0.2,2.5-1.2,3.1-3,3.7c-0.4,0.1-0.4,0.5-0.3,0.9c-1.7,0.6-3.4,0.9-5,1.7C175.8,204,174.5,204.5,173.2,203.5z"/>
	<path class="st1" d="M140.4,122.8c-0.4-0.8-0.7-1.8-1.3-2.5c-1.4-1.8-3.2-1.7-4.6,0l0,0c-0.8-0.8-1.8,0.3-2.9-0.7
		c5.6-4.9,11.7-8.8,18.5-11.6c-0.1,0.3-0.2,0.5-0.3,0.8c-1.1,0.7-2.2,1.4-3.3,2.1c-3.4,2-3.4,2-2.7,6.2
		C141.9,118.4,141.7,120.9,140.4,122.8z"/>
	<path class="st2" d="M201.3,107.7c-0.1,2.4-1.5,3.6-3.3,4.9c-1.6,1.1-2.7,0.3-4-0.3c-0.3-0.1-0.8-0.4-0.8-0.6
		c0-2.2-1.4-4.4-0.3-6.7c0.9-1.8,2.4-3.1,4.1-3.1c1.7,0,3.1,1.2,3.7,3.4C201,106.1,201.1,107,201.3,107.7z M199.5,105.4
		c-0.4-1.3-1.4-1.9-2.7-1.9c-1.3,0-2,0.6-1.8,2c0.2,1.2,0.3,2.5,1.9,2.6C197.8,108.2,199.5,106.4,199.5,105.4z"/>
	<path class="st2" d="M162.7,108.1c-0.4-0.4-0.3-0.9,0.2-1.1c2.4-1.3,4.5-0.6,5.5,1.9c0.4,0.9,0.6,1.8,0.8,2.7
		c0.4,2.6-0.2,3.4-2.7,4.5c-4.2,1.8-5.2,1.3-5.9-3.4c-0.2-1.7-0.2-3.4,1.1-4.7C162,107.6,162.4,107.5,162.7,108.1
		c0.3,0.8-0.4,1.5-0.1,2.3c0.4,1.2,0.7,2.3,2.3,2.2c1.1-0.1,2.8-1.5,2.6-2.4c-0.2-1.3-1-2.2-2.3-2.3
		C164.4,107.8,163.5,108,162.7,108.1z"/>
	<path class="st2" d="M271.5,299.4c-6.5,4.9-15.5,5-20.8,0c0.1-0.2,0.3-0.3,0.4-0.5c5.2,3.4,10.7,4,16.5,1.6
		c1.2-0.5,2.3-1.4,3.6-1.5C271.3,299.1,271.4,299.2,271.5,299.4z"/>
	<path class="st2" d="M281.1,290.7c-1.7,2.4-3.6,4.6-6.2,6.1c0,0,0,0.1,0,0.1c-0.3-0.2-0.4-0.5-0.1-0.8c1.9-1.9,3.9-3.8,5.8-5.8
		C280.8,290.4,280.9,290.6,281.1,290.7z"/>
	<path class="st2" d="M247.7,296.5c-2-2.2-3.5-4.5-4.1-7.4c0.1-0.1,0.3-0.2,0.4-0.3c1.4,2.4,2.8,4.9,4.2,7.3
		C248.1,296.2,247.9,296.3,247.7,296.5z"/>
	<path class="st1" d="M97.5,550.7c-0.8-1.7-1.1-3.5-1.3-5.3C98,546.9,97.9,548.7,97.5,550.7z"/>
	<path class="st2" d="M273.7,297.9c-0.5,0.8-1.3,1.2-2.1,1.5c-0.1-0.1-0.2-0.3-0.3-0.4c0.5-0.8,1.2-1.3,2.2-1.5
		C273.5,297.6,273.6,297.7,273.7,297.9z"/>
	<path class="st2" d="M283.2,287.8c-0.3,0.8-0.7,1.6-1.5,2.1c-0.1-0.1-0.3-0.3-0.4-0.4c0.2-0.9,0.7-1.6,1.5-2.1
		C282.9,287.5,283,287.7,283.2,287.8z"/>
	<path class="st2" d="M284.7,285.6c-0.3,0.9-0.7,1.7-1.5,2.2c-0.1-0.1-0.3-0.3-0.4-0.4c0.1-1,0.6-1.7,1.4-2.2
		C284.3,285.3,284.5,285.4,284.7,285.6z"/>
	<path class="st2" d="M158.3,107.1c-0.3,0.1-0.7,0.3-1,0.3c-0.1,0-0.2-0.3-0.3-0.5c0.3-0.1,0.6-0.3,0.9-0.3
		C158,106.6,158.2,106.9,158.3,107.1z"/>
	<path class="st2" d="M235.9,252.7c-0.8,0.3-1.1-0.2-1.6-0.6l0,0.1C234.9,252.1,235.6,251.9,235.9,252.7
		C235.8,252.7,235.9,252.7,235.9,252.7z"/>
	<path class="st2" d="M248.8,297.6c-0.6-0.1-0.9-0.6-1.1-1.1c0.2-0.2,0.4-0.3,0.5-0.4c0.6,0.2,0.9,0.7,1.1,1.1
		C249.2,297.3,249,297.4,248.8,297.6z"/>
	<path class="st2" d="M274.9,296.8c-0.2,0.6-0.7,0.8-1.2,1c-0.1-0.1-0.2-0.3-0.3-0.4C273.7,296.9,274,296.1,274.9,296.8L274.9,296.8
		z"/>
	<path class="st2" d="M250.7,299.4c-0.5-0.3-1-0.5-1.1-1.1c0.1-0.2,0.3-0.4,0.4-0.5c0.5,0.3,1,0.5,1.1,1.1
		C251,299.1,250.8,299.3,250.7,299.4z"/>
	<path class="st2" d="M236.2,250.2c-0.1-0.3-0.5-0.7-0.4-0.8c0.3-0.6,0.7-0.2,1.1,0.1C236.7,249.6,236.4,249.9,236.2,250.2z"/>
	<path class="st2" d="M281.7,289.8c-0.2,0.3-0.4,0.6-0.6,0.9c-0.1-0.1-0.3-0.3-0.4-0.4c0-0.4,0.2-0.7,0.6-0.8
		C281.4,289.6,281.5,289.7,281.7,289.8z"/>
	<path class="st2" d="M236.3,255.8c-0.8-0.5-0.3-0.7,0.2-0.9c0,0-0.1-0.1-0.1-0.1c0.1,0.2,0.1,0.4,0.1,0.7
		C236.5,255.6,236.4,255.7,236.3,255.8z"/>
	<path class="st2" d="M121.2,306.6c-0.2-0.3-0.4-0.5-0.7-0.8c0.2-0.2,0.4-0.3,0.5-0.5c0.5,0,0.7,0.3,0.7,0.7
		C121.6,306.2,121.4,306.4,121.2,306.6z"/>
	<polygon class="st2" points="234.3,252 234.3,251.9 234.3,252.1 	"/>
	<path class="st2" d="M249.6,298.3c-0.5,0-0.7-0.3-0.7-0.7c0.2-0.1,0.4-0.3,0.5-0.4c0.2,0.2,0.4,0.4,0.6,0.6
		C249.8,297.9,249.7,298.1,249.6,298.3z"/>
	<path class="st1" d="M253,864.5c-7.7,2.8-15.2,5.9-23.2,7.8c-8.2,1.9-16.4,3.9-24.8,4.9c-6.8,0.8-13.7,0.4-20.5,0.7
		c-7.3,0.3-14.4-0.9-21.6-1.6c-1.8-2.4-2.8-5-2.3-8c1.2-6.6,0.6-13.4,1.4-20.1c0.6-5.1,1-10.2,2.4-15.2c1.7,3.7,2.3,7.8,3.5,11.7
		c0.4,1.3,0.7,2.5,1.1,3.8c0.2,0.5,0.5,1.2,1.3,0.9c0.7-0.2,0.6-0.9,0.6-1.5c0-0.2,0-0.5-0.1-0.7c-1.7-6.6-2.9-13.3-5.1-19.8
		c-0.1-2.8,1.2-5.4,1.5-8.2c1.2-11.6,1.8-23.3,2.3-35c0.1-2.8,0-5.5,0.4-8.3c0.3-1.5,0.2-3.1-0.3-4.7c-0.6-1.9-1-3.8,1.2-5
		c-0.1-3.1,2.4-5.3,2.8-8.2c0.6-4.4,1-8.7,2.5-13c2.4-6.5,3-13.6,3.9-20.5c0.9-7,1.5-14.1,4-20.9c0.7-1.8,0.7-3.8,0.7-5.7
		c0-4.8,0-9.6-0.8-14.4c-0.3-2.1-0.3-4.3,0.5-6.4c0.7-1.9,1.3-4,1.2-6c-0.2-5.6,3-10.1,4.2-15.2c0.1-0.3,0.2-0.7,0.5-1
		c3.3-3.2,4.2-7.5,5.7-11.5c0.2-0.5,0.2-1.1,0.5-1.3c3.1-2.9,3.3-6.9,3.9-10.9c1.3,1.4,1.4,3,1.8,4.5c1.2,4.8,2.8,9.4,4.6,14
		c2.6,6.8,4.8,13.8,5.9,21.1c0.6,4,1.8,8,5,10.9c1.9,1.7,2.3,4.2,2.7,6.5c1.3,7.1,2.1,14.3,4,21.3c1.3,4.6,1.4,9.2,2,13.8
		c0.8,5.7,2.7,11.2,4.1,16.8c0.2,0.8,0.5,1.6,0.7,2.4c0.9,5.3,3.2,10,6.3,14.3c0.2,0.3,0.5,0.6,0.5,0.9c-0.4,4.4,2.2,8.3,1.9,12.5
		c-0.4,6.1,1.2,11.9,1.4,17.9c0.3,7.6,1.3,15.1,3.3,22.5c0.6,2.2,0.8,4.5,0.8,6.8c0,7.1,1.1,14.1,2.6,21.1c0.2,1,0.6,1.9,1.2,2.6
		c2.3,2.6,2.9,5.8,3.2,9C252.8,854.9,252.8,859.7,253,864.5z"/>
	<path class="st1" d="M124.7,907.6c-3-1.3-5.9-2.7-8.8-4.2c-4.9-2.5-8.4-6.3-11.6-10.6c-0.8-1-0.9-2.2-1.2-3.4
		c-3.4-15.2-6.4-30.4-9.1-45.7c-4.7-26.9-8.4-54-12.4-81c-1.3-8.7-1.7-17.5-2.8-26.2c-0.8-7-1.4-14.1-2.1-21.2
		c-0.6-6.4-1-12.9-1.5-19.4c-1.1-13.1-2.5-26.1-4.1-39.2c-1.6-12.8-3-25.6-4.6-38.4c-1.5-12.5-3.2-25.1-4.7-37.6
		c-1.1-8.6-2-17.2-3-25.8c-0.1-1.2,0-2.4,0.3-3.7c0.8,4.6,1.6,9.1,2.4,13.7c2.8,16.9,5.5,33.7,8.3,50.6c2.8,17,5.6,34,8.4,51
		c2.8,17,5.6,34,8.3,51c2.8,17,5.5,34,8.3,51c5.2,31.7,10.2,63.5,17.4,94.8c1.5,6.7,3.3,13.3,5.7,19.8c0.8,2.1,1.7,4.3,3.1,6.1
		c0.5,0.7,0.9,1.8,2.1,1.6c0,0-0.1,0-0.1,0c-0.1,0.7,0.4,0.8,0.9,0.9c3.1,4.5,3.6,9.4,1.8,14.5C125.5,906.7,125.1,907.1,124.7,907.6
		z"/>
	<path class="st1" d="M75.9,309.2c-0.6,3-2,5.7-3.4,8.3c-2.2,4.3-3.6,8.8-5.3,13.3c-6.9,17.8-11.8,36.2-14.2,55.1
		c-2.5,19.8-3,39.6-2,59.5c0.6,12.6,1.7,25.2,3.3,37.8c1.6,12.9,3.7,25.7,6.1,38.5c7.3,40.8,16.8,81.1,25.4,121.6
		c5.4,25.2,10.4,50.5,15.5,75.7c5.6,27.6,11.1,55.2,17.3,82.7c0.2,0.8-0.2,2.1,1.3,2.1c0.4,3.3,0.7,6.6,1.1,9.9
		c0.4,2.8-1.4,5.2-1.7,7.9c-2.1-7.5-3.3-15.3-4.9-22.9c-6.2-29.7-12.4-59.4-18.5-89.1c-6.9-33.7-13.9-67.4-20.7-101.1
		c-4.5-22.3-9-44.6-13.3-66.9c-3.3-17.1-6.1-34.4-8.3-51.7c-2.6-20.1-4.2-40.2-4.5-60.5c0-0.2-0.1-0.5-0.2-1.4
		c-0.2,2.6-0.3,4.6-0.5,6.6c-1.2-3.2-1.5-6.6-1.5-9.9c0.7-27.8,4-55.2,13.2-81.7c3.9-11.3,8.8-22.1,14.8-32.4
		C75.2,310.1,75.6,309.7,75.9,309.2C76,309.2,75.9,309.2,75.9,309.2z"/>
	<path class="st1" d="M128.5,935.5c-0.3,1.6-0.4,3.4-1.1,4.9c-0.8,1.7-1.2,3.4-1.3,5.2c-0.1,2.5-1.8,4.1-3.3,5.8
		c-0.4,0.5-1.2,0.9-1.9,0.4c-0.7-0.5-1.5-1.3-1-2.1c1.8-2.8,0.7-5.8,1-8.8c0.3-2.7,1-5,3-7.1c1.1-1.1,2.2-0.9,3.3-0.6
		C128.3,933.5,128.6,934.4,128.5,935.5z"/>
	<path class="st1" d="M287.6,970.8c6.3,2.7,9.5,9.1,16,11c-1.5,2.3-2.9,2.9-5.3,1.7c-2.9-1.4-5.6-2.9-7.3-6
		C289.8,975.5,287.4,974.1,287.6,970.8z"/>
	<path class="st1" d="M107,981.5c-4-0.1-6.5-3.5-5.3-7c0.9-2.5,2.5-3,4.5-1.4c1.2,1,2.3,2.1,3.3,3.2c0.8,1,1.9,2.1,1.1,3.5
		C109.9,981.3,108.4,981.4,107,981.5z"/>
	<path class="st2" d="M165.7,827.3c2.1,6.5,3.4,13.2,5.1,19.8c0.1,0.2,0.1,0.5,0.1,0.7c0,0.6,0.1,1.3-0.6,1.5
		c-0.8,0.3-1.1-0.4-1.3-0.9c-0.4-1.2-0.7-2.5-1.1-3.8c-1.2-3.9-1.8-8-3.5-11.7C164.8,831.1,165.3,829.2,165.7,827.3z"/>
	<path class="st1" d="M284.7,944.1c0.2,0.8-0.2,1.4-0.4,2.1c-0.2,0.9-0.7,1.2-1.5,1.2c-0.8,0-1.6-0.3-1.7-1
		c-0.3-2.1-0.6-4.2-0.6-6.4c0-0.6,0.9-1.5,1.6-1.8c0.9-0.3,1.5,0.6,1.8,1.4C284.4,941,284.6,942.5,284.7,944.1z"/>
	<path class="st2" d="M123.9,891.6c-0.5-0.1-1-0.3-0.9-0.9C123.9,890.4,123.8,891.2,123.9,891.6z"/>
	<path class="st1" d="M47.3,462.4c0.9,9.8,2,20.7,3,31.6c0.8,9.1,1.6,18.2,2.5,27.4c1.3,13.5,2.6,27.1,4.1,40.6
		c1.6,14.5,3.5,28.9,5.3,43.4c1.5,12.3,3.2,24.6,4.7,36.9c1.2,9.8,2.2,19.6,3.2,29.5c1.4,13.7,2.5,27.4,4.5,40.9
		c1.1,7.6,1.3,15.2,2,22.8c1.1,13.8,2.2,27.6,3.5,41.4c1.3,14.3,3,28.5,4.7,42.7c2,17.2,4.2,34.4,6.2,51.7c0.6,5.4,1.5,10.7,1.6,16
		c-0.9,0.8-1.8,0.4-2.5,0.2c-11.5-4.5-21-11.7-28.3-21.7c-1.3-1.7-2.1-3.8-3-5.8c-1.1-2.4-1.5-5-1.2-7.7c0.4-3.2,0.3-6.5,0.4-9.7
		c0.1-1.1-0.2-2.3,0.4-3.4c1.2,0.2,0.9,1.1,1,1.7c0.5,4.4,1,8.8,2.1,13.2c1.3,5.3,4,9.5,9,12c1.8,0.9,3.4,2.2,5.1,3.5
		c2,1.5,3.1,1.1,3.2-1.5c0.1-2.4,0.1-4.8-0.2-7.2c-2.1-14.8-4.4-29.5-6.6-44.3c-1.6-10.8-2.9-21.7-4-32.6
		c-2.1-20.7-3.3-41.5-4.8-62.3c-0.9-13.2-1.6-26.5-2.4-39.7c-1.1-17.6-2.2-35.1-3.4-52.7c-0.8-11.7-1.4-23.3-2.4-35
		c-1.9-22-2.5-44-4.1-66c-1.2-17.9-2.1-35.8-3.2-53.8C47.4,470.1,46.9,465.8,47.3,462.4z"/>
	<path class="st1" d="M91.5,846.4c2.6,13.4,5,26.8,8.1,40.1c-4-1-4-1-4.4-4.5c-1.2-10.5-2.5-21-3.7-31.5
		C91.2,849.2,91,847.8,91.5,846.4z"/>
	<path class="st1" d="M76.6,307.6c0.1-0.1,0.1-0.2,0.2-0.3C76.7,307.4,76.7,307.5,76.6,307.6C76.6,307.6,76.6,307.6,76.6,307.6z"/>
	<path class="st1" d="M76,309.2c0.2-0.5,0.4-1,0.6-1.6c0,0,0-0.1,0-0.1C76.3,308.1,76.6,308.8,76,309.2
		C75.9,309.2,76,309.2,76,309.2z"/>
	<path class="st0" d="M264.4,274.2c6,0.2,10.7,5.3,10.4,11.2c-0.3,5.8-5.2,10.4-11,10.3c-6-0.1-10.7-5.1-10.6-11
		C253.4,278.6,258.4,274,264.4,274.2z M267.6,277.4c0-0.6-0.5-0.7-0.9-0.6c-0.1,0-0.2,0.2-0.2,0.2
		C266.9,277.1,267.3,277.2,267.6,277.4c0.2,0.3,0.4,0.5,0.8,0.5c0.1,0,0.1-0.2,0.2-0.3C268.3,277.4,268,277.4,267.6,277.4z
		 M257.5,280.2c0.6-0.3,1.2-0.6,0.7-1.5c0.7,0.2,1,0,0.7-0.7c2.2,0,3.9-1.8,6.1-1.8c-2.3-0.4-4.5-0.2-6.1,1.9
		c-0.5,0-0.7,0.2-0.7,0.7C257.6,279.1,257.1,279.4,257.5,280.2c-0.3-0.2-0.5-0.1-0.6,0.3c0,0.1,0.1,0.3,0.1,0.3
		C257.4,280.8,257.5,280.5,257.5,280.2z M271.4,280l-0.1,0.1L271.4,280c-0.4,1.8,1,3.1,0.8,5.4C272.9,283,272.1,281.5,271.4,280z
		 M263.3,281.7c0.1-0.3,0-0.5-0.3-0.5c-0.3,0-0.5,0.2-0.3,0.3C262.9,281.6,263.1,281.6,263.3,281.7c-0.2,0.7-1.3,0.8-1.5,1.8
		c-0.2,1.1-0.1,2.1,1.1,2.7c1.2,0.6,2.1,0.2,2.8-0.8c0.8-1.1,0.5-2.1-0.4-2.8C264.7,282.2,263.9,282,263.3,281.7z M256.7,282.6
		c-0.1-0.2-0.1-0.6-0.2-0.6c-0.5-0.1-0.4,0.4-0.4,0.6c0,0.2,0.1,0.6,0.2,0.6C256.8,283.3,256.6,282.9,256.7,282.6z M265.3,281.5
		c0.2-0.1,0.4-0.1,0.6-0.2c-0.1-0.1-0.2-0.2-0.3-0.2c-0.2,0-0.4,0-0.6,0C265.2,281.3,265.3,281.4,265.3,281.5z"/>
	<path class="st0" d="M250,297.8c-0.2-0.2-0.4-0.4-0.6-0.6c-0.3-0.5-0.5-1-1.1-1.1c-1.4-2.4-2.8-4.9-4.2-7.3
		c-0.3-2.6-0.6-5.2-0.9-7.8c0.1,0,0.2,0,0.3-0.1c0.4,1.2,0.8,2.4,1.3,3.6c1.3,3.4,2.9,6.6,5.4,9.3c5.2,5.6,12.1,7,19,3.6
		c5.6-2.8,9.8-7.3,13.3-12.3c1.3-1.8,2.4-3.7,4-6.1c-0.1,2.8-1.9,4.3-2.2,6.3c-0.8,0.5-1.3,1.3-1.4,2.2c-0.8,0.5-1.3,1.2-1.5,2.1
		c-0.4,0.1-0.6,0.4-0.6,0.8c-1.9,1.9-3.9,3.8-5.8,5.8c-0.3,0.3-0.2,0.6,0.1,0.8c-0.9-0.8-1.2,0-1.6,0.6c-0.9,0.2-1.7,0.6-2.2,1.5
		c-1.4,0.1-2.4,1-3.6,1.5c-5.8,2.4-11.3,1.9-16.5-1.6C251,298.3,250.5,298,250,297.8z"/>
	<path class="st0" d="M284.9,272.9c0.5,3.3-0.8,5.3-3,7.1C280.8,277.2,281.5,275.5,284.9,272.9z"/>
	<path class="st0" d="M245.8,265.6c0.1-0.6,0.1-1.4,0.3-2c0.1-0.4,0.8-1.4,0.9-0.8c0.2,1.2,2.2,0,1.7,1.5c-0.2,0.7-0.4,1.4-0.8,2
		c-0.3,0.6-0.7,1.4-1.6,1C245.7,266.9,245.9,266.2,245.8,265.6z"/>
	<path class="st0" d="M280.3,281.5c0.2,0.1,0.6,0.2,0.6,0.3c0.1,0.6-0.1,1.2-0.7,1.4c-0.1,0.1-0.5-0.1-0.6-0.3
		C279.5,282.4,279.8,281.9,280.3,281.5z"/>
	<path class="st0" d="M245.7,269.3c0.4,0,0.7,0.3,0.6,0.7c-0.1,0.5-0.2,1-0.7,1.1c-0.4,0.1-0.5-0.4-0.5-0.7
		C245.1,270,245.2,269.5,245.7,269.3z"/>
	<path class="st0" d="M288,276c-0.2,0.9-0.4,1.8-1.2,2.8C286.7,277.4,287,276.6,288,276L288,276z"/>
	<path class="st0" d="M242.7,268.1c-1-1.6-1.1-2.9-0.1-4.3C243.5,265.2,242.9,266.4,242.7,268.1z"/>
	<path class="st0" d="M288,276c0-0.2,0-0.4,0-0.7c0-0.2,0-0.4,0-0.7c0.6,0.1,0.2,0.5,0.2,0.7C288.3,275.6,288.1,275.8,288,276
		C288,276,288,276,288,276z"/>
	<path class="st0" d="M236.6,255.5c0-0.2,0-0.5-0.1-0.7c0.4-0.3,0.6,0,0.9,0.2C237.1,255.2,236.9,255.4,236.6,255.5z"/>
	<path class="st0" d="M237.2,252.8c0.2-0.3,0.4-0.2,0.6,0.1c0,0.1-0.1,0.3-0.1,0.3C237.4,253.2,237.2,253,237.2,252.8
		C237.3,252.7,237.2,252.8,237.2,252.8z"/>
	<path class="st1" d="M231.4,70.5c1.8-0.5,2.7,1.4,4.4,1.9c0.3-1.8,0.9-3.6,2.4-4.9c1-0.9,0.2-2.2,0.7-3.4c1.7-4,3.1-8.1,5-12
		c3.6-7.4,6.6-15,7-23.3c0.2-3.9-0.1-7.7-0.9-11.5c-0.3-1.4-0.4-2.8-0.2-4.6c1,2.3,1.1,4.8,4,5c0.5,0,0.8,1.1,0.8,1.9
		c-0.1,3.1,1.3,7.3,2.5,9.8c1,2.1,1.8,4.5,0.3,7c-1.3,2.1-1.2,4.7-1.3,6.9c0,1.8-0.2,3.5-0.4,5.3c-0.2,2-0.7,3.9-0.6,5.9
		c0.2,2.3-1,4.1-1.9,6c-0.8,1.7-1.4,3.4-2,5.1c-0.7,1.9-1.2,4.2-3.5,5.2c-0.3,0.1-0.7,0.4-0.8,0.7c-0.5,2.6-2.4,3.4-4.5,4.5
		c-3.7,1.8-3.7,1.9-6.4-0.7c-0.3-0.3-0.7-0.6-1.1-0.9c-0.2-0.2-0.4-0.4-0.6-0.6c-0.4-0.5-0.7-1.6-1.4-0.9c-0.7,0.6,0.1,1.1,0.7,1.5
		c0.1,0.4,0.3,0.7,0.7,0.8c0,0.1,0,0.2,0,0.4c0,0.1,0.1,0.3,0,0.3c-0.4,0.2-0.6-0.1-0.8-0.3c-1.4-1.4-2.8-2.7-5-3
		c-1.5-0.2-2.4-1.4-1.3-3.2c1.5,0.5,2.5,1.8,3.7,2.6c0.4,0.3,0.9,0.3,1-0.4C231.8,71.1,231.6,70.8,231.4,70.5
		C231.4,70.5,231.4,70.5,231.4,70.5z"/>
	<path class="st1" d="M123,82c1,0.4,1.7,0.9,1.4,2.2c0,0,0,0,0,0c-1.6,0.4-1.9,2-2.6,3.2c-1.3,2.1-2.4,4.3-3.5,6.5
		c-0.7,0,0.1-2.2-1.5-1.1c-2.5-1.2-6,0.1-7.6-3.2c-0.1-0.3-0.4-0.7-0.7-0.8c-3.1-0.9-4.9-3.1-6.1-6c-0.1-0.3-0.7-0.6-1-0.9
		c-4.7-5-6-11.5-8.1-17.7c-0.8-2.3-1.2-5-3.5-6.8c-1.1-0.9-1.1-2.6-0.5-4.1c0.4-1.2,0.8-2.2-0.2-3.3c-1-1.1,0.1-2.3,0.2-3.3
		c0.4-3.6,0.2-7.4,2.4-10.6c0.2-0.3,0.5-0.5,0.8-0.8c0.9,2.6,0.6,5.3,1.1,7.9c2.3,13.2,9.8,23.3,19.3,32.2c0.8,0.7,1.9,1.1,2.1,2.3
		c0,0,0.1-0.1,0.1-0.1c-1.1,0.4-1.8-1.1-2.9-0.7c-0.5,0.5-0.3,1-0.1,1.4c1.1,2.3,3.3,3.9,4.1,6.5c0.3,1,2.4,2.1,3.2,1.6
		C121,85.4,123.2,84.5,123,82L123,82z"/>
	<path class="st1" d="M192.2,73.2c-0.8,0.2-0.4,1.1-1,1.4c-0.4-1.7-0.7-3.4-1.1-5.1c-0.1,0-0.3,0-0.4,0c-0.2,2.3-0.5,4.6-0.8,7.4
		c-0.8-3.7-0.7-6.9-0.8-10.1c0-1.1,0.4-1.5,1.5-1.5c1,0,1.9,0.2,2.8,0.5c3,1,5.8,2.2,8.6,3.7c2.1,1.2,6.7,6.2,8.2,8.5
		c1,1.6,2.5,2.9,3.9,4.3c2.3,2.4,4.7,4.8,6.6,7.8c-0.4,1-1.6,1.2-2.1,2.1c-0.4,0.6-0.1,1.9-0.9,1.7c-1-0.2-2.3,0.1-3-0.5
		c-1.8-1.7-4.2-2.1-6.4-2.7c-1.1-0.3-0.9-1.3-1.6-2c-0.7,1.2-0.1,3.1-2.2,3.2c-0.5-0.6-1.1-1.9-2-2.2c-2.5-0.8-4.4-1.9-5-4.7
		c-0.3-1.4-1.5-0.4-2.4-0.2c-0.1-2.1-0.3-4.1-0.3-6.2C193.9,76.5,192.6,75,192.2,73.2z"/>
	<path class="st1" d="M164.3,72.5c-0.2,0.1-0.6,0.2-0.6,0.4c0.1,2.8-0.8,5.3-1.6,7.9c-0.5,1.5,0.1,3.1,0.4,4.6
		c0.2,1.2,0.9,2.6-1.1,3.3c-0.8,0.3-0.9,1.6-0.8,2.6c0.1,1.2-0.3,2.1-1.2,2.8c-1.4,1-3,1.7-3.8,3.5c-0.3,0.7-1.6,0.7-2-0.4
		c-0.3-0.7-0.3-1.5-0.7-2.4c-0.3,1.7-0.5,3.3-2.5,3.9c-1,0.3-2.4,0-3,1.6c-0.6,1.8-2.4,2.3-3.8,3.3c-0.6,0.4-1.1,0.8-1.1-0.2
		c0-1-0.7-1.2-1.2-1.7c-0.5-0.5-0.5-1.6-1.5-0.4c-0.1,0.1-0.5-1-0.3-1.5c0.8-1.9,1.7-3.7,2.7-5.5c1.2-2.2,3.1-4.2,3.7-6.6
		c0.8-3.4,3.6-5.8,4.3-9.2c0.1-0.3,0.4-0.6,0.6-0.9c3.6-3.9,7.8-7,12.7-9.8C164.5,69.6,164.6,71.1,164.3,72.5L164.3,72.5z"/>
	<path class="st1" d="M180.9,92.1c0-0.2,0.2-0.6,0.1-0.6c-2-1.3-1.9-2.9-0.9-4.9c1.5-2.7,1-5-1.3-7.3c-1.2-1.2-1.2-2.4-0.4-3.8
		c1.7-2.9,1.3-5.8-0.9-7.9c-0.8-0.7-1.7-4.8-1-5.3c1.8-1.3,3.9-0.4,5.9-0.4c1,0,2,0.1,2,1.5c0,0.2,0,0.5,0,0.7
		c0.5,8,1,16.1,1.5,24.1c0.1,1.5,0,2.9-0.9,4.1c-1,0-2.1,0-3.1-0.1C181.6,91.9,181.2,91.8,180.9,92.1
		C180.8,92.1,180.9,92.1,180.9,92.1z"/>
	<path class="st1" d="M172.5,93c-0.7-0.4-1-0.9-1.1-1.7c-1.3-8.4-2.5-16.8-3.9-25.2c-0.3-1.9,0.4-2.7,2-3.1c0.3-0.1,0.7-0.4,1-0.4
		c1.4,0,3.1-1.6,3.9-0.1c0.9,1.6,1.4,3.8,0.2,5.5c-2,2.8-0.7,5.1,0.8,7.2c1.3,1.8,1.6,3.2,0.3,5.1c-1.2,1.8-0.5,5.3,0.9,7
		c1.9,2.2,1.8,2.7-0.3,5C175,92.1,173.7,92.3,172.5,93z"/>
	<path class="st1" d="M129.4,90.6c-0.1,0.2-0.4,0.4-0.4,0.5c0.8,1.4,3.2,1.7,2.9,4c0,0.2,1.6-0.6,1.4,0.7c-0.1,0.7-0.9,0.7-1.4,0.9
		c-0.7,0.4-1.4,0.9-1.3,1.6c0.1,2.8-2,3.8-3.8,5.2c-0.3-1-0.4-2.3-1.9-2.6c-1.7-0.3-2,1.2-2.8,2.3c-0.8-0.9-0.4-2.5-2-2.7
		c-1-0.1-0.3-1-0.1-1.4c1.4-3.2,2.6-6.5,4.6-9.5c0.8,1.3,1.8,2.2,2.2,3.8C127.6,92.3,128.3,91.2,129.4,90.6L129.4,90.6z"/>
	<path class="st1" d="M239.4,84.1c-0.3,1.3-1.9,1.6-2.2,2.9c-0.1,0.7-0.5,0.4-1,0.3c-3.1-0.6-3.1-0.6-3.7,2.8c-1.9-0.9-4-1.4-4.6-4
		c-0.4-1.5-2-1.5-3.3-1.9c-0.3-1.2,1.7-1.2,1.2-2.6c-0.6-1.7,1.4-2,2.2-2.8c0.8-0.9,1.2,1.2,2.3,1.1c0.2-1.3,0.8-2.5,1.3-3.6
		c1.5,0.4,1.6,2.5,3.4,2.1c0,0,0-0.1,0-0.1c-0.2,1.7,0.5,2.7,2.2,2.9c0,0,0,0,0,0C237,82.9,237.7,84,239.4,84.1L239.4,84.1z"/>
	<path class="st0" d="M140.4,122.8c1.2-1.9,1.5-4.4,3.5-5.8c1.5,1.1,2.3,3.3,1.8,4.6c0,0.1-0.2,0.2-0.2,0.3c0.8,4.4-2.8,4.7-5.9,6
		C140.3,126,141.1,124.5,140.4,122.8z"/>
	<path class="st1" d="M134.5,120.3c0.6,0,1.2,0.1,1.7,0.1c1.2,0.1,2.2,0.7,2.3,1.9c0,1.1-0.2,2.4-1.4,3.1c-0.9,0.6-1.8,0.6-2.5-0.3
		C133.5,123.5,133.3,121.9,134.5,120.3C134.6,120.3,134.5,120.3,134.5,120.3z"/>
	<path class="st1" d="M137.7,86.8c-2.5,0.2-5.3-0.5-8.2-2.1C132.3,84.9,135.8,85.7,137.7,86.8z"/>
	<path class="st1" d="M123.7,87.8c-0.2-0.9,0.5-1.5,0.8-2.2c0.2-0.5,0.7-1-0.1-1.4c0,0,0,0,0,0c1.8,0.7,1.7-2,3.3-1.8
		c1,1.5,0.2,2.7-1,3.6C125.8,86.6,124.7,87.1,123.7,87.8L123.7,87.8z"/>
	<path class="st1" d="M133.4,101.9c0.2-3,1-4.8,3.3-7.8C136.4,96.6,135.7,98.1,133.4,101.9z"/>
	<path class="st0" d="M172.5,93c1.2-0.7,2.5-0.9,3.8-0.8c-0.1,1,0.3,2.1-0.5,3.4C174.8,94.7,173.4,94.3,172.5,93z"/>
	<path class="st1" d="M222,84.9c2.7,1,3.7,3.2,4.3,5.8c0,0,0.1-0.1,0.1-0.1C224.8,88.9,223,87.2,222,84.9L222,84.9z"/>
	<path class="st1" d="M116.3,105.7c0-1.6,0.3-2.9,1-4.3c0.9,0.8,0.1,1.9,0.7,3C119,106.5,116.9,105.1,116.3,105.7z"/>
	<path class="st1" d="M121.5,91.4c-0.4,2.6-1.4,5-2.9,7.2l0.1,0.1C118.8,95.9,119.5,93.4,121.5,91.4L121.5,91.4z"/>
	<path class="st0" d="M180.8,92.1c-0.7,0.6,0.7,2-0.7,2.4c-0.4,0.1-1,0.1-1.3-0.2c-0.5-0.3-0.9-0.8-0.7-1.4c0.2-0.6,0.7-0.6,1.1-0.7
		C179.7,92.1,180.3,92.6,180.8,92.1C180.9,92.1,180.8,92.1,180.8,92.1z"/>
	<path class="st0" d="M181.9,92.2c1,0,2.1,0,3.1,0.1c-0.3,0.7-1.2,0.3-1.5,0.7C181.9,95,182.1,93.3,181.9,92.2z"/>
	<path class="st1" d="M109.1,97.8c1.9-0.1,2.5,0.4,2.4,1.8C110.5,99.6,110.3,98.6,109.1,97.8z"/>
	<path class="st1" d="M221.8,74.7c-1.1,1.5-2.3,1.9-3.5,2.3C218.6,75.6,218.6,75.6,221.8,74.7z"/>
	<path class="st1" d="M179.4,82.5c0,0.5-0.3,0.9-0.9,0.8c-0.8-0.1-1.4-0.5-1.2-1.4c0.1-0.6,0.6-1.1,1.2-0.9
		C179.2,81.2,179.4,81.9,179.4,82.5z"/>
	<path class="st1" d="M176.5,69.1c0.6,0,1,0.1,1.2,0.6c0.2,0.7-0.2,1.1-0.8,1.3c-0.5,0.2-0.9-0.1-1-0.6
		C175.8,69.7,175.9,69.2,176.5,69.1z"/>
	<path class="st1" d="M243,89.3c-3.7,0.5-0.3-1.9-1.2-2.6c1,0.4,1.4,1.3,1.5,2.2C243.2,89,243.1,89.1,243,89.3z"/>
	<path class="st1" d="M129.5,90.7c0.2-0.3,0.4-0.6,0.6-0.9c0.2-0.4,0.4-0.6,0.8-0.4c0.2,0.1,0.4,0.3,0.4,0.5c0,0.6-0.3,0.8-0.9,0.8
		C130.1,90.7,129.8,90.7,129.5,90.7C129.4,90.6,129.5,90.7,129.5,90.7z"/>
	<path class="st1" d="M222.8,74.1c0.5-1.1,1.3-1.5,2.6-1.6C225,74.1,224,74.2,222.8,74.1L222.8,74.1z"/>
	<path class="st1" d="M105.6,92.8c-0.9-0.5-1.3-1.2-1.5-2.1l-0.1,0C105.6,90.7,105.6,91.8,105.6,92.8L105.6,92.8z"/>
	<path class="st1" d="M115,77.7c1,0.1,1.8,0.5,2.2,1.4l0.1-0.1C116,79.3,115.2,79,115,77.7L115,77.7z"/>
	<path class="st1" d="M210.1,73.7c0.8-0.3,1.3,0.2,1.8,0.5c0.3,0.2,0.3,0.4-0.1,0.4C211.1,74.7,210.6,74.4,210.1,73.7z"/>
	<path class="st1" d="M102.7,88.5c-0.9-0.3-1.1-1.1-1.5-2C103,86.5,102.7,87.6,102.7,88.5L102.7,88.5z"/>
	<path class="st1" d="M237.6,79.5c0.6,0.7,1.4,1.4,1,2.5l0.1-0.1c-0.6,0-0.8-0.9-1.5-0.7c0,0,0,0,0,0c0-0.5-0.1-0.9-0.1-1.4
		C237.3,79.8,237.5,79.7,237.6,79.5z"/>
	<path class="st1" d="M225.3,77.7c0.1-0.3,0.3-0.6,0.7-0.5c0.4,0.1,0.5,0.4,0.5,0.7c-0.1,0.3-0.2,0.7-0.6,0.5
		C225.5,78.2,225.1,78.2,225.3,77.7z"/>
	<path class="st1" d="M164.2,72.6c1.1,0.6,0.3,1.5,0.2,2.3C164.4,74.1,164.3,73.3,164.2,72.6C164.3,72.5,164.2,72.6,164.2,72.6z"/>
	<path class="st1" d="M106.3,93.6c0.4-0.1,0.7,0.1,0.9,0.4c0.2,0.3,0.5,0.6,0.1,0.8c-0.1,0.1-0.4-0.1-0.6-0.3
		C106.6,94.2,106.5,93.9,106.3,93.6C106.4,93.5,106.3,93.6,106.3,93.6z"/>
	<path class="st1" d="M253.2,66.8c0.4,0.8,0,1.5-0.4,2.5C252.4,68.2,252.1,67.4,253.2,66.8C253.2,66.8,253.2,66.8,253.2,66.8z"/>
	<path class="st1" d="M99.7,84.3c0.4-0.2,0.9-0.2,1.2,0.2c0.2,0.2,0.3,0.7,0.2,0.9c-0.4,0.7-0.7,0-0.9-0.2
		C100,84.9,99.9,84.5,99.7,84.3L99.7,84.3z"/>
	<path class="st1" d="M253.9,64.6c0.3,0.9,0.3,1.7-0.7,2.2c0,0,0.1,0.1,0.1,0.1C253.3,66,252.6,65,253.9,64.6L253.9,64.6z"/>
	<path class="st1" d="M251.7,71.1c-0.1,0.8,0.3,1.7-0.7,2.1c0,0,0.1,0.1,0.1,0.1C250.9,72.5,251.1,71.7,251.7,71.1L251.7,71.1z"/>
	<path class="st1" d="M235.1,78.4c0.1-0.4,0.2-0.9,0.3-1.3c0.6,0.2,1,0.6,1.2,1.2c-0.2,0.1-0.3,0.3-0.5,0.4
		C235.9,78.5,235.6,78.1,235.1,78.4C235.1,78.3,235.1,78.4,235.1,78.4z"/>
	<path class="st1" d="M120.8,81.3c0.9-0.3,1.5,0.4,2.2,0.7c0,0,0,0,0,0C122.4,81.5,121.3,82.2,120.8,81.3L120.8,81.3z"/>
	<path class="st1" d="M144.2,82.3c0.1,0.2,0.3,0.5,0.2,0.6c-0.2,0.2-0.5,0.5-0.8,0.5c-0.3,0-0.4-0.3-0.2-0.4
		C143.7,82.7,144,82.5,144.2,82.3z"/>
	<path class="st1" d="M222.1,84.9c-0.2-0.1-0.5-0.1-0.6-0.3c-0.2-0.3-0.9-0.7-0.3-1c0.5-0.3,0.8,0.2,0.9,0.7
		C222.2,84.5,222.1,84.7,222.1,84.9C222,84.9,222.1,84.9,222.1,84.9z"/>
	<path class="st1" d="M253.9,64.6c0-0.4,0-0.8,0.4-1.1c0,0,0.2,0.2,0.2,0.2C254.5,64.2,254.5,64.6,253.9,64.6
		C253.9,64.6,253.9,64.6,253.9,64.6z"/>
	<path class="st1" d="M250.3,74.7c0,0.3,0,0.7-0.1,1c-0.1,0.2-0.4,0.1-0.4-0.2C249.8,75.3,250.1,75.1,250.3,74.7L250.3,74.7z"/>
	<path class="st1" d="M118.6,98.6c-0.1,0.3-0.1,0.6-0.2,1c-0.1-0.1-0.3-0.2-0.3-0.2C118.1,98.9,118.3,98.7,118.6,98.6
		C118.7,98.6,118.6,98.6,118.6,98.6z"/>
	<path class="st1" d="M250.3,74.8c0.3-0.5-0.3-1.3,0.7-1.5c0,0-0.1-0.1-0.1-0.1C251.1,73.9,250.9,74.5,250.3,74.8
		C250.3,74.7,250.3,74.8,250.3,74.8z"/>
	<path class="st1" d="M227.2,91.4c0.1,0.2,0.3,0.3,0.4,0.5c0,0,0,0.1-0.1,0.2C227.4,91.8,227.3,91.6,227.2,91.4
		C227.2,91.3,227.2,91.4,227.2,91.4z"/>
	<path class="st1" d="M121.6,91.4c0-0.6,0.1-1.1,0.7-1.5l-0.1-0.1C122.2,90.5,122.3,91.1,121.6,91.4
		C121.5,91.4,121.6,91.4,121.6,91.4z"/>
	<path class="st1" d="M134.5,130.4c-0.2,0.7-0.8,0.9-1.4,0.7l0.1,0.1C133.3,130.4,133.8,130.2,134.5,130.4L134.5,130.4z"/>
	<path class="st1" d="M134.6,130.5c-0.1-0.5,0.2-0.5,0.6-0.5c0.1,0,0.2,0.1,0.3,0.2C135.1,130.2,134.8,130.3,134.6,130.5
		C134.5,130.4,134.6,130.5,134.6,130.5z"/>
	<path class="st1" d="M248.9,78.4c-0.1,0.2-0.3,0.4-0.4,0.7c0-0.1-0.1-0.2-0.1-0.3C248.6,78.7,248.7,78.6,248.9,78.4
		C248.9,78.4,248.9,78.4,248.9,78.4z"/>
	<path class="st1" d="M236.6,78.3c0.6,0.2,0.8,0.7,1,1.2c-0.2,0.1-0.3,0.2-0.5,0.3c-0.6-0.2-0.8-0.7-1-1.2
		C236.3,78.6,236.5,78.4,236.6,78.3z"/>
	<polygon class="st0" points="151.3,122.8 151.3,122.9 151,122.8 	"/>
	<path class="st1" d="M239.4,82.7c0.7,0.3,0.7,0.9,0.7,1.5l0.1-0.1c-0.2,0-0.5,0-0.7,0c0,0,0.1,0,0.1,0
		C239.5,83.7,239.5,83.2,239.4,82.7L239.4,82.7z"/>
	<path class="st1" d="M99.8,84.2c-0.1-0.2-0.3-0.4-0.4-0.6c0,0,0.1-0.2,0.1-0.2C99.9,83.6,99.8,83.9,99.8,84.2
		C99.7,84.3,99.8,84.2,99.8,84.2z"/>
	<path class="st1" d="M119.3,80.6c0.6-0.1,1.3-0.3,1.4,0.7c0,0,0-0.1,0-0.1C120.2,81.2,119.6,81.2,119.3,80.6L119.3,80.6z"/>
	<path class="st1" d="M117.9,79.8c0.8-0.3,1.2,0,1.4,0.7c0,0,0-0.1,0-0.1C118.9,80.3,118.1,80.6,117.9,79.8L117.9,79.8z"/>
	<path class="st1" d="M231.4,70.5c-0.1-0.1-0.1-0.3-0.2-0.4c0.1,0,0.1,0.1,0.2,0.1C231.4,70.3,231.4,70.4,231.4,70.5
		C231.4,70.5,231.4,70.5,231.4,70.5z"/>
	<polygon class="st1" points="251.7,71.1 251.8,71 251.7,71.1 	"/>
	<path class="st1" d="M105.6,92.9c0.6-0.1,0.8,0.2,0.7,0.7c0,0,0.1-0.1,0.1-0.1C105.9,93.6,105.7,93.3,105.6,92.9
		C105.6,92.8,105.6,92.9,105.6,92.9z"/>
	<path class="st1" d="M102.7,88.5c0.1,0.1,0.3,0.2,0.4,0.2c-0.1,0-0.1,0-0.2,0C102.8,88.7,102.8,88.6,102.7,88.5
		C102.7,88.5,102.7,88.5,102.7,88.5z"/>
	<path class="st1" d="M123.7,87.7c-0.1,0.2-0.1,0.4-0.2,0.6c-0.1-0.1-0.2-0.2-0.3-0.3C123.4,87.9,123.6,87.9,123.7,87.7
		C123.7,87.8,123.7,87.7,123.7,87.7z"/>
	<path class="st1" d="M104.2,90.7c-0.1-0.1-0.2-0.1-0.3-0.2c0,0,0-0.1,0-0.2C104.1,90.3,104.2,90.4,104.2,90.7
		C104.1,90.7,104.2,90.7,104.2,90.7z"/>
	<path class="st1" d="M240.1,84.2c0.5-0.1,0.7,0.2,0.8,0.6l0.1-0.1C240.7,84.6,240.4,84.4,240.1,84.2
		C240.1,84.2,240.1,84.2,240.1,84.2z"/>
	<path class="st1" d="M243.3,88.9c0.3,0.2,0.3,0.5,0.1,0.7c-0.1-0.1-0.3-0.3-0.4-0.4C243.1,89.1,243.2,89,243.3,88.9z"/>
	<path class="st1" d="M238.7,82c0.6-0.1,0.7,0.3,0.7,0.7c0,0,0-0.1,0-0.1C239,82.7,238.8,82.4,238.7,82L238.7,82z"/>
	<path class="st1" d="M117.2,79.1c0.5,0,0.9,0.1,0.7,0.7c0,0,0,0,0,0C117.5,79.8,117.1,79.7,117.2,79.1L117.2,79.1z"/>
	<path class="st1" d="M122.2,90c0.1-0.2,0.2-0.4,0.3-0.6C122.9,89.9,122.6,89.9,122.2,90C122.2,89.9,122.2,90,122.2,90z"/>
	<path class="st1" d="M240.9,84.9c0.1,0.1,0.2,0.3,0.4,0.4c-0.1,0-0.2-0.1-0.2-0.1C241,85.1,240.9,84.9,240.9,84.9
		C240.9,84.8,240.9,84.9,240.9,84.9z"/>
	<path class="st1" d="M132.3,131.9c-0.1,0.1-0.2,0.2-0.3,0.3c0-0.1,0-0.2,0.1-0.2C132.2,132,132.3,132,132.3,131.9
		C132.4,131.9,132.3,131.9,132.3,131.9z"/>
	<path class="st1" d="M133.1,131.2c0.1,0.6-0.3,0.7-0.7,0.7c0,0,0.1,0.1,0.1,0.1C132.4,131.4,132.6,131.2,133.1,131.2
		C133.1,131.2,133.1,131.2,133.1,131.2z"/>
	<path class="st1" d="M222.8,74c-0.1,0.2-0.2,0.4-0.3,0.5c-0.1-0.1-0.2-0.2-0.3-0.3C222.4,74.2,222.6,74.1,222.8,74
		C222.8,74.1,222.8,74,222.8,74z"/>
	<polygon class="st1" points="248.9,78.4 248.9,78.3 248.9,78.4 	"/>
	<path class="st1" d="M227.2,91.3c-0.4,0-0.6-0.3-0.8-0.7c0,0-0.1,0.1-0.1,0.1C226.8,90.7,227,91.1,227.2,91.3
		C227.2,91.4,227.2,91.3,227.2,91.3z"/>
	<path class="st0" d="M152,294.9c0,6.5-4.9,11.5-11.4,11.5c-6.4,0-11.5-5-11.6-11.4c-0.1-6.2,5.2-11.6,11.5-11.6
		C146.8,283.3,152,288.5,152,294.9z M147,288c0,0.2-0.1,0.4-0.1,0.6c0.1,0,0.3,0,0.4,0C147.2,288.4,147.1,288.3,147,288
		c-0.5-0.5-1-0.5-1.6-0.5l-0.1-0.1l0,0.1C145.8,287.9,146.2,288.4,147,288z M148.3,290.3c-0.2-0.1,0.1-0.9-0.5-0.3
		C148,290.1,148.2,290.2,148.3,290.3c0.2,0.3,0.2,0.7,0.3,1.1c0-0.1,0.1-0.2,0.1-0.2C148.6,290.9,148.5,290.6,148.3,290.3z
		 M142.3,286.1c-3.7-1.1-7.1,0.1-9.1,2.9c-2,2.8-2.1,6.2-0.3,9.2C130.8,290.2,136.2,285.2,142.3,286.1z M141.6,290.6
		c-3.5-0.1-4.3,0.8-3.7,4.1c0.2,1,0.7,1.8,1.8,2c1.1,0.2,1.9-0.2,2.4-1.1c0.5-0.9,0.5-1.9-0.2-2.7c-0.6-0.6-1.4-1-2.1-1.5
		C140.3,290.7,141.2,291.4,141.6,290.6z"/>
	<path class="st0" d="M121.8,306c0-0.4-0.2-0.7-0.7-0.7c0.1-1.1-1.1-1.9-0.8-3.3c1.2,0.4,1.7,1.5,2.5,2.2c2.4,2.1,4.8,4,7.7,5.3
		c7.6,3.4,14.8,1.9,20.2-4.4c4-4.6,6.1-10,7.6-15.8c1-4.1,1.7-8.2,1.7-12.5c0-1.9,0.2-3.8,0.2-5.7c0.4,3.5,0.6,7.1,0.5,10.6
		c-0.2,7.7-2.1,15-6,21.7c-1.6,2.7-3.6,5.1-6.1,7.1c-5.8,4.6-12,5.1-18.6,1.8C126.9,310.7,124.4,308.2,121.8,306z"/>
	<path class="st0" d="M155.9,282.7c-1.5-2-1.8-5.4-0.5-7.2c0.6-0.8,1.2-0.7,1.6,0.2C158,277.7,157.5,280.3,155.9,282.7z"/>
	<path class="st0" d="M117.1,282.5c-0.1,0.6,0.2,2.1-1,2.2c-1.2,0.1-1.3-1.4-1.7-2.4c-0.1-0.2-0.1-0.5-0.1-0.7
		c0.1-0.5-0.6-1.4,0.5-1.6c0.1,1.6,2.7-1.2,2.3,1.3C117.1,281.6,117.1,281.8,117.1,282.5z"/>
	<path class="st0" d="M112.6,287.8c-0.9-1.5-2.6-2.8-1.6-5.3C112.4,284.2,112.2,286,112.6,287.8z"/>
	<path class="st0" d="M156.3,285.7c-0.1,0.5,0,1.1-0.7,1.1c-0.6,0-0.7-0.5-0.7-1c0-0.5,0.2-1,0.7-1
		C156.4,284.8,156.1,285.4,156.3,285.7z"/>
	<path class="st0" d="M117.1,288.3c-0.2,0.3-0.1,0.8-0.7,0.5c-0.5-0.2-0.6-0.6-0.6-1.1c0-0.4,0.1-0.8,0.5-0.7
		C117.2,287.1,117.1,287.8,117.1,288.3z"/>
	<path class="st0" d="M113.4,289.4c0,0.1-0.1,0.2-0.1,0.3c-0.1-0.1-0.2-0.3-0.2-0.4c0,0,0.1-0.1,0.2-0.2
		C113.3,289.2,113.3,289.3,113.4,289.4z"/>
	<path class="st0" d="M118.6,299.7c-0.2-0.2-0.3-0.3-0.4-0.5c0,0,0.1-0.2,0.1-0.3C118.4,299.3,118.5,299.5,118.6,299.7
		C118.6,299.8,118.6,299.7,118.6,299.7z"/>
	<path class="st0" d="M159.3,251.5c-0.2,0-0.4,0.1-0.6,0.1C158.9,251,159.1,251.3,159.3,251.5C159.3,251.5,159.3,251.5,159.3,251.5z
		"/>
	<path class="st1" d="M121.2,261c0.2,0.3,0.4,0.6,0,0.9c-0.1,0-0.3-0.3-0.5-0.4C120.9,261.3,121,261.2,121.2,261z"/>
	<path class="st0" d="M119.5,300.3c-0.5,0.1-0.8-0.1-0.9-0.6c0,0-0.1,0.1-0.1,0.1C119,299.7,119.2,300.1,119.5,300.3L119.5,300.3z"
		/>
	<path class="st0" d="M119.5,300.4c0.1,0.2,0.2,0.3,0.3,0.5c0,0-0.1,0.1-0.1,0.1C119.2,300.8,119.4,300.6,119.5,300.4
		C119.5,300.3,119.5,300.4,119.5,300.4z"/>
	<path class="st1" d="M225.6,108c1.9,0,2.7,1.1,2.9,2.9c0.1,1.5-0.4,1.8-2.4,1.5C225.7,110.9,225.5,109.5,225.6,108z"/>
	<path class="st0" d="M225.6,108c-0.1,1.5,0.2,2.9,0.5,4.3c-2.1,0.5-1.8-1.1-2.1-2.3C223.7,108.5,224.3,108.1,225.6,108z"/>
	<path class="st2" d="M391.5,778.2c-0.1,0.7,0.2,1.6-0.8,1.7c-0.9,0.1-1.2-0.7-1.3-1.4c-1.3-6.6-2.5-13.2-3.7-19.9
		c-4-22.2-8-44.3-11.9-66.5c-3.6-20.2-7-40.3-10.6-60.5c-3.9-22.1-7.8-44.1-11.8-66.1c-4.7-25.9-9.6-51.9-14.9-77.7
		c-4.6-22.3-9.3-44.5-14-66.8c-0.3-1.3-1.3-3.6,0-3.8c1.9-0.3,1.5,2.2,1.8,3.6c8.2,33.6,15,67.5,21.7,101.4
		c5.2,26.5,10.1,53,14.8,79.5c4.3,23.8,8.4,47.7,12.6,71.5c4.5,25.9,9,51.7,13.5,77.6c1.5,8.4,3,16.8,4.5,25.3
		C391.4,776.8,391.4,777.5,391.5,778.2z"/>
	<path class="st0" d="M159.8,167c-0.8-0.5-0.8-1.1-0.2-1.7c0.4-0.4,0.9-0.8,0.8-1.5c1.8-1.2,4.4-1.6,5.1-4.3
		c-1.9-0.4-3.3-0.1-4.4,1.3c0.3-1.3,0.7-2.6-0.3-3.8c-1-1.1-0.6-1.9,0.4-2.7c2.9-2.4,6-3.3,9.7-2.1c0.5,0.2,1,0.5,1.4,0.4
		c2.5-1,3.5,0.6,4.6,2.3c1.2,1.9,0.8,3.5,0,5.4c-1.1,2.5-1.9,5.1-2.8,7.7c-0.4,0.5-0.9,1-1.3,1.5c-1.2-1.3-2.2,1.1-3.6,0
		c-0.9-0.5,1.6-2.5-0.6-2.6c-1.9-0.1-3.4-0.8-4.7-2.1c-0.3-0.3-0.9-0.3-1.1,0.4C161.9,166.2,161,166.9,159.8,167z"/>
	<path class="st0" d="M181.7,185.1c0.8,1,2,1.9-0.2,2.7c-0.9,0.3-2.2,0.6-1.3,2.1c-0.7-0.1-1.5,0-2.1-0.3c-1.6-0.9-1.6-2.6-0.2-3.7
		C179.1,185.1,180.4,185,181.7,185.1z"/>
	<path class="st1" d="M161.2,160.7c1.1-1.4,2.5-1.6,4.4-1.3c-0.8,2.7-3.3,3.1-5.1,4.3c0.3-0.6-0.1-0.8-0.5-1.1c0-0.4,0-0.8,0.1-1.2
		c0,0-0.1,0.1-0.1,0.1c0.6,0,0.9-0.4,1.1-0.8l0.2,0.1L161.2,160.7z"/>
	<path class="st0" d="M159.9,161.5c0,0.4,0,0.8-0.1,1.2C159.7,162.3,159.2,161.9,159.9,161.5z"/>
	<path class="st0" d="M161,160.8c-0.3,0.4-0.6,0.8-1.1,0.8C160,161,160.4,160.9,161,160.8z"/>
	<path class="st0" d="M199.5,105.4c0,1-1.6,2.8-2.6,2.7c-1.6-0.1-1.7-1.4-1.9-2.6c-0.2-1.4,0.5-2,1.8-2
		C198.1,103.5,199.1,104.1,199.5,105.4z"/>
	<path class="st0" d="M162.7,108.1c0.8-0.1,1.6-0.3,2.4-0.2c1.4,0.1,2.1,1,2.3,2.3c0.1,0.9-1.5,2.3-2.6,2.4
		c-1.6,0.1-1.9-0.9-2.3-2.2C162.3,109.5,163.1,108.8,162.7,108.1C162.8,108,162.7,108.1,162.7,108.1z"/>
	<path class="st2" d="M263.3,281.7c0.6,0.3,1.4,0.4,1.9,0.9c0.9,0.8,1.2,1.8,0.4,2.8c-0.7,1-1.6,1.4-2.8,0.8
		c-1.2-0.6-1.2-1.6-1.1-2.7C261.9,282.5,263,282.4,263.3,281.7L263.3,281.7z"/>
	<path class="st2" d="M259,278.1c1.6-2.1,3.7-2.2,6.1-1.9C262.8,276.2,261.2,278,259,278.1L259,278.1z"/>
	<path class="st2" d="M271.4,280c0.7,1.5,1.5,3,0.8,5.4C272.4,283.2,271,281.8,271.4,280L271.4,280z"/>
	<path class="st2" d="M256.7,282.6c-0.1,0.2,0,0.7-0.4,0.6c-0.1,0-0.2-0.4-0.2-0.6c0-0.3,0-0.7,0.4-0.6
		C256.6,282,256.7,282.4,256.7,282.6z"/>
	<path class="st2" d="M258.2,278.7c0.5,0.8-0.1,1.2-0.7,1.5l0.1,0.1C257.1,279.4,257.6,279.1,258.2,278.7
		C258.3,278.8,258.2,278.7,258.2,278.7z"/>
	<path class="st2" d="M263.3,281.6c-0.2-0.1-0.5-0.1-0.7-0.2c-0.2-0.1,0-0.3,0.3-0.3C263.2,281.2,263.3,281.4,263.3,281.6
		C263.3,281.7,263.3,281.6,263.3,281.6z"/>
	<path class="st2" d="M265.3,281.5c-0.1-0.1-0.2-0.2-0.3-0.4c0.2,0,0.4-0.1,0.6,0c0.1,0,0.2,0.1,0.3,0.2
		C265.7,281.4,265.5,281.5,265.3,281.5z"/>
	<path class="st2" d="M267.6,277.4c0.3,0,0.6,0.1,0.9,0.1c-0.1,0.1-0.1,0.3-0.2,0.3C268,277.8,267.8,277.7,267.6,277.4L267.6,277.4z
		"/>
	<path class="st2" d="M267.7,277.3c-0.4-0.1-0.8-0.2-1.3-0.3c0.1-0.1,0.2-0.2,0.2-0.2C267.2,276.7,267.6,276.7,267.7,277.3
		C267.6,277.4,267.7,277.3,267.7,277.3z"/>
	<path class="st2" d="M257.5,280.2c0,0.3-0.1,0.6-0.5,0.6c0,0-0.1-0.2-0.1-0.3C257,280.1,257.2,280,257.5,280.2
		C257.6,280.3,257.5,280.2,257.5,280.2z"/>
	<path class="st2" d="M258.9,278c0.3,0.7,0,1-0.7,0.7c0,0,0,0.1,0,0.1C258.3,278.3,258.5,278,258.9,278
		C259,278.1,258.9,278,258.9,278z"/>
	<polygon class="st2" points="271.5,280.1 271.3,280.1 271.4,280 	"/>
	<path class="st2" d="M233.4,74.2c-0.5-0.4-1.4-0.9-0.7-1.5c0.8-0.6,1,0.5,1.4,0.9C233.9,73.8,233.7,74,233.4,74.2z"/>
	<path class="st2" d="M234.2,73.6c0.2,0.2,0.4,0.4,0.6,0.6c-0.2,0.3-0.4,0.5-0.7,0.8c-0.4-0.1-0.6-0.4-0.7-0.8
		C233.7,74,233.9,73.8,234.2,73.6z"/>
	<path class="st2" d="M117.2,79.1c-0.2,0.6,0.2,0.7,0.7,0.7c0.2,0.8,0.9,0.5,1.4,0.7c0.3,0.7,0.8,0.7,1.4,0.7c0.5,1,1.5,0.2,2.2,0.7
		c0.2,2.5-2,3.4-3.5,4.4c-0.8,0.5-2.9-0.6-3.2-1.6c-0.9-2.5-3.1-4.1-4.1-6.5c-0.2-0.4-0.4-0.9,0.1-1.4c1.1-0.4,1.7,1.2,2.9,0.7
		C115.2,79,116,79.3,117.2,79.1z"/>
	<path class="st2" d="M236.2,78.7c0.3,0.5,0.4,1,1,1.2c0,0.5,0.1,0.9,0.1,1.4c-1.7-0.2-2.4-1.2-2.2-2.9
		C235.6,78.1,235.9,78.5,236.2,78.7z"/>
	<path class="st2" d="M238.7,82c0,0.4,0.2,0.7,0.7,0.7c0,0.5,0,1,0,1.5c-1.8-0.2-2.5-1.2-2.2-2.9C238,81.1,238.2,81.9,238.7,82z"/>
	<path class="st2" d="M142.3,286.1c-6.2-0.9-11.5,4.1-9.4,12.1c-1.8-2.9-1.7-6.3,0.3-9.2C135.2,286.2,138.6,285,142.3,286.1z"/>
	<path class="st2" d="M141.6,290.6c-0.4,0.7-1.4,0-1.9,0.8c0.7,0.5,1.5,0.9,2.1,1.5c0.8,0.7,0.8,1.7,0.2,2.7
		c-0.5,0.9-1.4,1.3-2.4,1.1c-1.1-0.2-1.6-1-1.8-2C137.3,291.5,138.1,290.6,141.6,290.6z"/>
	<path class="st2" d="M148.3,290.3c0.2,0.3,0.3,0.6,0.5,0.9c0,0.1-0.1,0.2-0.1,0.2C148.5,291.1,148.5,290.7,148.3,290.3L148.3,290.3
		z"/>
	<path class="st2" d="M145.4,287.5c0.6,0,1.2,0,1.6,0.6l0.1-0.1C146.2,288.4,145.8,287.9,145.4,287.5L145.4,287.5z"/>
	<polygon class="st2" points="145.3,287.4 145.3,287.4 145.4,287.5 	"/>
	<path class="st2" d="M146.9,288.1c0.1,0.2,0.2,0.3,0.3,0.5c-0.1,0-0.3,0-0.4,0C146.9,288.4,147,288.2,146.9,288.1
		C147,288,146.9,288.1,146.9,288.1z"/>
	<path class="st2" d="M148.4,290.3c-0.2-0.1-0.4-0.2-0.6-0.3C148.4,289.5,148.1,290.3,148.4,290.3
		C148.3,290.3,148.4,290.3,148.4,290.3z"/>
	<path class="st2" d="M205.8,263.6c-0.6-0.1-1.2-0.1-1.8-0.1c-3.1-0.1-5-1.5-5.6-4.4c-0.1-0.4-0.2-0.8-0.3-1.1
		c-1.4-0.1-2.9-0.3-4.9-0.9c-0.9-0.3-2.5-0.8-4.6-0.6c-1.6,0.2-1.7,0.7-3.4,0.9c-1.3,0.2-2.8,0-5.8-0.5c-3.4-0.5-3.4-0.7-4.5-0.7
		c-0.9,0.1-1.6,0.2-2.1,0.2c3.7,3.5,7.4,7,10.1,11.4c2.7,4.3,2.9,4.2-2,5c0,4.7,0.8,5.9,5.6,8c3,1.4,3.2,1.9,3.2,5.2
		c0,6.8-1.7,13.6-1.3,20.5c0.1,2.3,0.9,4.5,1,6.6c0.2,5.2,1.4,10.2,1.9,15.4c0.7,7,0,14,0.8,20.9c0.1,0.8-0.1,1.7-1.4,1.5
		c-1.6-0.2-1.7,0.9-1.8,2.1c-0.2,3.4-0.5,6.7-0.6,10.1c-0.1,3-0.2,6-0.1,9c0.1,2.4,1.1,3.1,3.4,3.4c2.1,0.3,4.1-0.3,6.1-0.7
		c1.7-0.3,2.1-1.2,2-3.1c-0.3-8.5-2.6-16.6-3.6-25c-0.1-0.5-0.1-1-0.4-1.4c-1.7-2.7-1.7-5.7-1.2-8.6c1.1-5.8,0.6-11.7,0.7-17.6
		c0.1-4.3,0.3-8.6,0.8-12.8c0.5-4.4,1.5-8.8,2.5-13.1c0.5-2.3,0.7-4.5,0.7-6.8c-0.1-3.4-0.1-6.7,0-10.1c0.2-5.9,0.8-6.6,6.1-6.4
		c0.1,0,0.2,0,0.4,0c2.4-0.2,2.7-0.5,2.8-2.8C208.5,264.8,207.9,263.9,205.8,263.6z"/>
</g>
</svg>
