<svg version="1.1" id="el_nrQW3ACRy" xmlns="http://www.w3.org/2000/svg" xmlns:xlink="http://www.w3.org/1999/xlink" x="0px" y="0px" viewBox="0 0 303 303" style="enable-background:new 0 0 303.9 303.9;" xml:space="preserve"><style>@-webkit-keyframes kf_el_KqU6ubYXEP_an_2eWZMWryf{5.56%{-webkit-transform: translate(55.599998474121094px, 129.55000686645508px) translate(-55.599998474121094px, -129.55000686645508px) translate(0px, 0px);transform: translate(55.599998474121094px, 129.55000686645508px) translate(-55.599998474121094px, -129.55000686645508px) translate(0px, 0px);}46.67%{-webkit-transform: translate(55.599998474121094px, 129.55000686645508px) translate(-55.599998474121094px, -129.55000686645508px) translate(0px, -8px);transform: translate(55.599998474121094px, 129.55000686645508px) translate(-55.599998474121094px, -129.55000686645508px) translate(0px, -8px);}66.67%{-webkit-transform: translate(55.599998474121094px, 129.55000686645508px) translate(-55.599998474121094px, -129.55000686645508px) translate(0px, 9px);transform: translate(55.599998474121094px, 129.55000686645508px) translate(-55.599998474121094px, -129.55000686645508px) translate(0px, 9px);}100%{-webkit-transform: translate(55.599998474121094px, 129.55000686645508px) translate(-55.599998474121094px, -129.55000686645508px) translate(0px, 0px);transform: translate(55.599998474121094px, 129.55000686645508px) translate(-55.599998474121094px, -129.55000686645508px) translate(0px, 0px);}0%{-webkit-transform: translate(55.599998474121094px, 129.55000686645508px) translate(-55.599998474121094px, -129.55000686645508px) translate(0px, 0px);transform: translate(55.599998474121094px, 129.55000686645508px) translate(-55.599998474121094px, -129.55000686645508px) translate(0px, 0px);}}@keyframes kf_el_KqU6ubYXEP_an_2eWZMWryf{5.56%{-webkit-transform: translate(55.599998474121094px, 129.55000686645508px) translate(-55.599998474121094px, -129.55000686645508px) translate(0px, 0px);transform: translate(55.599998474121094px, 129.55000686645508px) translate(-55.599998474121094px, -129.55000686645508px) translate(0px, 0px);}46.67%{-webkit-transform: translate(55.599998474121094px, 129.55000686645508px) translate(-55.599998474121094px, -129.55000686645508px) translate(0px, -8px);transform: translate(55.599998474121094px, 129.55000686645508px) translate(-55.599998474121094px, -129.55000686645508px) translate(0px, -8px);}66.67%{-webkit-transform: translate(55.599998474121094px, 129.55000686645508px) translate(-55.599998474121094px, -129.55000686645508px) translate(0px, 9px);transform: translate(55.599998474121094px, 129.55000686645508px) translate(-55.599998474121094px, -129.55000686645508px) translate(0px, 9px);}100%{-webkit-transform: translate(55.599998474121094px, 129.55000686645508px) translate(-55.599998474121094px, -129.55000686645508px) translate(0px, 0px);transform: translate(55.599998474121094px, 129.55000686645508px) translate(-55.599998474121094px, -129.55000686645508px) translate(0px, 0px);}0%{-webkit-transform: translate(55.599998474121094px, 129.55000686645508px) translate(-55.599998474121094px, -129.55000686645508px) translate(0px, 0px);transform: translate(55.599998474121094px, 129.55000686645508px) translate(-55.599998474121094px, -129.55000686645508px) translate(0px, 0px);}}@-webkit-keyframes kf_el_c5miJngFS0P_an_qK-L0wHff{62.22%{-webkit-transform: translate(151.85000610351562px, 159.35001373291016px) rotate(0deg) translate(-151.85000610351562px, -159.35001373291016px);transform: translate(151.85000610351562px, 159.35001373291016px) rotate(0deg) translate(-151.85000610351562px, -159.35001373291016px);}67.78%{-webkit-transform: translate(151.85000610351562px, 159.35001373291016px) rotate(-5deg) translate(-151.85000610351562px, -159.35001373291016px);transform: translate(151.85000610351562px, 159.35001373291016px) rotate(-5deg) translate(-151.85000610351562px, -159.35001373291016px);}73.33%{-webkit-transform: translate(151.85000610351562px, 159.35001373291016px) rotate(5deg) translate(-151.85000610351562px, -159.35001373291016px);transform: translate(151.85000610351562px, 159.35001373291016px) rotate(5deg) translate(-151.85000610351562px, -159.35001373291016px);}78.89%{-webkit-transform: translate(151.85000610351562px, 159.35001373291016px) rotate(0deg) translate(-151.85000610351562px, -159.35001373291016px);transform: translate(151.85000610351562px, 159.35001373291016px) rotate(0deg) translate(-151.85000610351562px, -159.35001373291016px);}0%{-webkit-transform: translate(151.85000610351562px, 159.35001373291016px) rotate(0deg) translate(-151.85000610351562px, -159.35001373291016px);transform: translate(151.85000610351562px, 159.35001373291016px) rotate(0deg) translate(-151.85000610351562px, -159.35001373291016px);}100%{-webkit-transform: translate(151.85000610351562px, 159.35001373291016px) rotate(0deg) translate(-151.85000610351562px, -159.35001373291016px);transform: translate(151.85000610351562px, 159.35001373291016px) rotate(0deg) translate(-151.85000610351562px, -159.35001373291016px);}}@keyframes kf_el_c5miJngFS0P_an_qK-L0wHff{62.22%{-webkit-transform: translate(151.85000610351562px, 159.35001373291016px) rotate(0deg) translate(-151.85000610351562px, -159.35001373291016px);transform: translate(151.85000610351562px, 159.35001373291016px) rotate(0deg) translate(-151.85000610351562px, -159.35001373291016px);}67.78%{-webkit-transform: translate(151.85000610351562px, 159.35001373291016px) rotate(-5deg) translate(-151.85000610351562px, -159.35001373291016px);transform: translate(151.85000610351562px, 159.35001373291016px) rotate(-5deg) translate(-151.85000610351562px, -159.35001373291016px);}73.33%{-webkit-transform: translate(151.85000610351562px, 159.35001373291016px) rotate(5deg) translate(-151.85000610351562px, -159.35001373291016px);transform: translate(151.85000610351562px, 159.35001373291016px) rotate(5deg) translate(-151.85000610351562px, -159.35001373291016px);}78.89%{-webkit-transform: translate(151.85000610351562px, 159.35001373291016px) rotate(0deg) translate(-151.85000610351562px, -159.35001373291016px);transform: translate(151.85000610351562px, 159.35001373291016px) rotate(0deg) translate(-151.85000610351562px, -159.35001373291016px);}0%{-webkit-transform: translate(151.85000610351562px, 159.35001373291016px) rotate(0deg) translate(-151.85000610351562px, -159.35001373291016px);transform: translate(151.85000610351562px, 159.35001373291016px) rotate(0deg) translate(-151.85000610351562px, -159.35001373291016px);}100%{-webkit-transform: translate(151.85000610351562px, 159.35001373291016px) rotate(0deg) translate(-151.85000610351562px, -159.35001373291016px);transform: translate(151.85000610351562px, 159.35001373291016px) rotate(0deg) translate(-151.85000610351562px, -159.35001373291016px);}}@-webkit-keyframes kf_el_c5miJngFS0P_an_gNgO5Af0x{78.89%{-webkit-transform: translate(151.85000610351562px, 159.35001373291016px) scale(1, 1) translate(-151.85000610351562px, -159.35001373291016px);transform: translate(151.85000610351562px, 159.35001373291016px) scale(1, 1) translate(-151.85000610351562px, -159.35001373291016px);}88.89%{-webkit-transform: translate(151.85000610351562px, 159.35001373291016px) scale(1.2, 1.2) translate(-151.85000610351562px, -159.35001373291016px);transform: translate(151.85000610351562px, 159.35001373291016px) scale(1.2, 1.2) translate(-151.85000610351562px, -159.35001373291016px);}100%{-webkit-transform: translate(151.85000610351562px, 159.35001373291016px) scale(1, 1) translate(-151.85000610351562px, -159.35001373291016px);transform: translate(151.85000610351562px, 159.35001373291016px) scale(1, 1) translate(-151.85000610351562px, -159.35001373291016px);}0%{-webkit-transform: translate(151.85000610351562px, 159.35001373291016px) scale(1, 1) translate(-151.85000610351562px, -159.35001373291016px);transform: translate(151.85000610351562px, 159.35001373291016px) scale(1, 1) translate(-151.85000610351562px, -159.35001373291016px);}}@keyframes kf_el_c5miJngFS0P_an_gNgO5Af0x{78.89%{-webkit-transform: translate(151.85000610351562px, 159.35001373291016px) scale(1, 1) translate(-151.85000610351562px, -159.35001373291016px);transform: translate(151.85000610351562px, 159.35001373291016px) scale(1, 1) translate(-151.85000610351562px, -159.35001373291016px);}88.89%{-webkit-transform: translate(151.85000610351562px, 159.35001373291016px) scale(1.2, 1.2) translate(-151.85000610351562px, -159.35001373291016px);transform: translate(151.85000610351562px, 159.35001373291016px) scale(1.2, 1.2) translate(-151.85000610351562px, -159.35001373291016px);}100%{-webkit-transform: translate(151.85000610351562px, 159.35001373291016px) scale(1, 1) translate(-151.85000610351562px, -159.35001373291016px);transform: translate(151.85000610351562px, 159.35001373291016px) scale(1, 1) translate(-151.85000610351562px, -159.35001373291016px);}0%{-webkit-transform: translate(151.85000610351562px, 159.35001373291016px) scale(1, 1) translate(-151.85000610351562px, -159.35001373291016px);transform: translate(151.85000610351562px, 159.35001373291016px) scale(1, 1) translate(-151.85000610351562px, -159.35001373291016px);}}@-webkit-keyframes kf_el_DNA3OzzZ4s_an_Xu5WyCEat{43.33%{-webkit-transform: translate(215.5px, 120.54999160766602px) scale(1, 1) translate(-215.5px, -120.54999160766602px);transform: translate(215.5px, 120.54999160766602px) scale(1, 1) translate(-215.5px, -120.54999160766602px);}60%{-webkit-transform: translate(215.5px, 120.54999160766602px) scale(1.25, 1.25) translate(-215.5px, -120.54999160766602px);transform: translate(215.5px, 120.54999160766602px) scale(1.25, 1.25) translate(-215.5px, -120.54999160766602px);}75.56%{-webkit-transform: translate(215.5px, 120.54999160766602px) scale(1, 1) translate(-215.5px, -120.54999160766602px);transform: translate(215.5px, 120.54999160766602px) scale(1, 1) translate(-215.5px, -120.54999160766602px);}0%{-webkit-transform: translate(215.5px, 120.54999160766602px) scale(1, 1) translate(-215.5px, -120.54999160766602px);transform: translate(215.5px, 120.54999160766602px) scale(1, 1) translate(-215.5px, -120.54999160766602px);}100%{-webkit-transform: translate(215.5px, 120.54999160766602px) scale(1, 1) translate(-215.5px, -120.54999160766602px);transform: translate(215.5px, 120.54999160766602px) scale(1, 1) translate(-215.5px, -120.54999160766602px);}}@keyframes kf_el_DNA3OzzZ4s_an_Xu5WyCEat{43.33%{-webkit-transform: translate(215.5px, 120.54999160766602px) scale(1, 1) translate(-215.5px, -120.54999160766602px);transform: translate(215.5px, 120.54999160766602px) scale(1, 1) translate(-215.5px, -120.54999160766602px);}60%{-webkit-transform: translate(215.5px, 120.54999160766602px) scale(1.25, 1.25) translate(-215.5px, -120.54999160766602px);transform: translate(215.5px, 120.54999160766602px) scale(1.25, 1.25) translate(-215.5px, -120.54999160766602px);}75.56%{-webkit-transform: translate(215.5px, 120.54999160766602px) scale(1, 1) translate(-215.5px, -120.54999160766602px);transform: translate(215.5px, 120.54999160766602px) scale(1, 1) translate(-215.5px, -120.54999160766602px);}0%{-webkit-transform: translate(215.5px, 120.54999160766602px) scale(1, 1) translate(-215.5px, -120.54999160766602px);transform: translate(215.5px, 120.54999160766602px) scale(1, 1) translate(-215.5px, -120.54999160766602px);}100%{-webkit-transform: translate(215.5px, 120.54999160766602px) scale(1, 1) translate(-215.5px, -120.54999160766602px);transform: translate(215.5px, 120.54999160766602px) scale(1, 1) translate(-215.5px, -120.54999160766602px);}}@-webkit-keyframes kf_el_-6hN6M8DLs_an_8cULPP9ka{21.11%{-webkit-transform: translate(215.5px, 154.8000030517578px) scale(1, 1) translate(-215.5px, -154.8000030517578px);transform: translate(215.5px, 154.8000030517578px) scale(1, 1) translate(-215.5px, -154.8000030517578px);}37.78%{-webkit-transform: translate(215.5px, 154.8000030517578px) scale(1.2, 1.2) translate(-215.5px, -154.8000030517578px);transform: translate(215.5px, 154.8000030517578px) scale(1.2, 1.2) translate(-215.5px, -154.8000030517578px);}53.33%{-webkit-transform: translate(215.5px, 154.8000030517578px) scale(1, 1) translate(-215.5px, -154.8000030517578px);transform: translate(215.5px, 154.8000030517578px) scale(1, 1) translate(-215.5px, -154.8000030517578px);}0%{-webkit-transform: translate(215.5px, 154.8000030517578px) scale(1, 1) translate(-215.5px, -154.8000030517578px);transform: translate(215.5px, 154.8000030517578px) scale(1, 1) translate(-215.5px, -154.8000030517578px);}100%{-webkit-transform: translate(215.5px, 154.8000030517578px) scale(1, 1) translate(-215.5px, -154.8000030517578px);transform: translate(215.5px, 154.8000030517578px) scale(1, 1) translate(-215.5px, -154.8000030517578px);}}@keyframes kf_el_-6hN6M8DLs_an_8cULPP9ka{21.11%{-webkit-transform: translate(215.5px, 154.8000030517578px) scale(1, 1) translate(-215.5px, -154.8000030517578px);transform: translate(215.5px, 154.8000030517578px) scale(1, 1) translate(-215.5px, -154.8000030517578px);}37.78%{-webkit-transform: translate(215.5px, 154.8000030517578px) scale(1.2, 1.2) translate(-215.5px, -154.8000030517578px);transform: translate(215.5px, 154.8000030517578px) scale(1.2, 1.2) translate(-215.5px, -154.8000030517578px);}53.33%{-webkit-transform: translate(215.5px, 154.8000030517578px) scale(1, 1) translate(-215.5px, -154.8000030517578px);transform: translate(215.5px, 154.8000030517578px) scale(1, 1) translate(-215.5px, -154.8000030517578px);}0%{-webkit-transform: translate(215.5px, 154.8000030517578px) scale(1, 1) translate(-215.5px, -154.8000030517578px);transform: translate(215.5px, 154.8000030517578px) scale(1, 1) translate(-215.5px, -154.8000030517578px);}100%{-webkit-transform: translate(215.5px, 154.8000030517578px) scale(1, 1) translate(-215.5px, -154.8000030517578px);transform: translate(215.5px, 154.8000030517578px) scale(1, 1) translate(-215.5px, -154.8000030517578px);}}@-webkit-keyframes kf_el_lPrHtoqgyO_an_7-B2aqvp8{0%{-webkit-transform: translate(215.5px, 189.10000610351562px) scale(1, 1) translate(-215.5px, -189.10000610351562px);transform: translate(215.5px, 189.10000610351562px) scale(1, 1) translate(-215.5px, -189.10000610351562px);}16.67%{-webkit-transform: translate(215.5px, 189.10000610351562px) scale(1.25, 1.25) translate(-215.5px, -189.10000610351562px);transform: translate(215.5px, 189.10000610351562px) scale(1.25, 1.25) translate(-215.5px, -189.10000610351562px);}32.22%{-webkit-transform: translate(215.5px, 189.10000610351562px) scale(1, 1) translate(-215.5px, -189.10000610351562px);transform: translate(215.5px, 189.10000610351562px) scale(1, 1) translate(-215.5px, -189.10000610351562px);}100%{-webkit-transform: translate(215.5px, 189.10000610351562px) scale(1, 1) translate(-215.5px, -189.10000610351562px);transform: translate(215.5px, 189.10000610351562px) scale(1, 1) translate(-215.5px, -189.10000610351562px);}}@keyframes kf_el_lPrHtoqgyO_an_7-B2aqvp8{0%{-webkit-transform: translate(215.5px, 189.10000610351562px) scale(1, 1) translate(-215.5px, -189.10000610351562px);transform: translate(215.5px, 189.10000610351562px) scale(1, 1) translate(-215.5px, -189.10000610351562px);}16.67%{-webkit-transform: translate(215.5px, 189.10000610351562px) scale(1.25, 1.25) translate(-215.5px, -189.10000610351562px);transform: translate(215.5px, 189.10000610351562px) scale(1.25, 1.25) translate(-215.5px, -189.10000610351562px);}32.22%{-webkit-transform: translate(215.5px, 189.10000610351562px) scale(1, 1) translate(-215.5px, -189.10000610351562px);transform: translate(215.5px, 189.10000610351562px) scale(1, 1) translate(-215.5px, -189.10000610351562px);}100%{-webkit-transform: translate(215.5px, 189.10000610351562px) scale(1, 1) translate(-215.5px, -189.10000610351562px);transform: translate(215.5px, 189.10000610351562px) scale(1, 1) translate(-215.5px, -189.10000610351562px);}}@-webkit-keyframes kf_el_qwvq3N7lMA_an_TVsTMhT3Y{43.33%{-webkit-transform: translate(88.5999984741211px, 189.10000610351562px) scale(1, 1) translate(-88.5999984741211px, -189.10000610351562px);transform: translate(88.5999984741211px, 189.10000610351562px) scale(1, 1) translate(-88.5999984741211px, -189.10000610351562px);}60%{-webkit-transform: translate(88.5999984741211px, 189.10000610351562px) scale(1.25, 1.25) translate(-88.5999984741211px, -189.10000610351562px);transform: translate(88.5999984741211px, 189.10000610351562px) scale(1.25, 1.25) translate(-88.5999984741211px, -189.10000610351562px);}75.56%{-webkit-transform: translate(88.5999984741211px, 189.10000610351562px) scale(1, 1) translate(-88.5999984741211px, -189.10000610351562px);transform: translate(88.5999984741211px, 189.10000610351562px) scale(1, 1) translate(-88.5999984741211px, -189.10000610351562px);}0%{-webkit-transform: translate(88.5999984741211px, 189.10000610351562px) scale(1, 1) translate(-88.5999984741211px, -189.10000610351562px);transform: translate(88.5999984741211px, 189.10000610351562px) scale(1, 1) translate(-88.5999984741211px, -189.10000610351562px);}100%{-webkit-transform: translate(88.5999984741211px, 189.10000610351562px) scale(1, 1) translate(-88.5999984741211px, -189.10000610351562px);transform: translate(88.5999984741211px, 189.10000610351562px) scale(1, 1) translate(-88.5999984741211px, -189.10000610351562px);}}@keyframes kf_el_qwvq3N7lMA_an_TVsTMhT3Y{43.33%{-webkit-transform: translate(88.5999984741211px, 189.10000610351562px) scale(1, 1) translate(-88.5999984741211px, -189.10000610351562px);transform: translate(88.5999984741211px, 189.10000610351562px) scale(1, 1) translate(-88.5999984741211px, -189.10000610351562px);}60%{-webkit-transform: translate(88.5999984741211px, 189.10000610351562px) scale(1.25, 1.25) translate(-88.5999984741211px, -189.10000610351562px);transform: translate(88.5999984741211px, 189.10000610351562px) scale(1.25, 1.25) translate(-88.5999984741211px, -189.10000610351562px);}75.56%{-webkit-transform: translate(88.5999984741211px, 189.10000610351562px) scale(1, 1) translate(-88.5999984741211px, -189.10000610351562px);transform: translate(88.5999984741211px, 189.10000610351562px) scale(1, 1) translate(-88.5999984741211px, -189.10000610351562px);}0%{-webkit-transform: translate(88.5999984741211px, 189.10000610351562px) scale(1, 1) translate(-88.5999984741211px, -189.10000610351562px);transform: translate(88.5999984741211px, 189.10000610351562px) scale(1, 1) translate(-88.5999984741211px, -189.10000610351562px);}100%{-webkit-transform: translate(88.5999984741211px, 189.10000610351562px) scale(1, 1) translate(-88.5999984741211px, -189.10000610351562px);transform: translate(88.5999984741211px, 189.10000610351562px) scale(1, 1) translate(-88.5999984741211px, -189.10000610351562px);}}@-webkit-keyframes kf_el_776JWgy0I__an_0NC8Go2MI{21.11%{-webkit-transform: translate(88.5999984741211px, 154.8000030517578px) scale(1, 1) translate(-88.5999984741211px, -154.8000030517578px);transform: translate(88.5999984741211px, 154.8000030517578px) scale(1, 1) translate(-88.5999984741211px, -154.8000030517578px);}37.78%{-webkit-transform: translate(88.5999984741211px, 154.8000030517578px) scale(1.2, 1.2) translate(-88.5999984741211px, -154.8000030517578px);transform: translate(88.5999984741211px, 154.8000030517578px) scale(1.2, 1.2) translate(-88.5999984741211px, -154.8000030517578px);}54.44%{-webkit-transform: translate(88.5999984741211px, 154.8000030517578px) scale(1, 1) translate(-88.5999984741211px, -154.8000030517578px);transform: translate(88.5999984741211px, 154.8000030517578px) scale(1, 1) translate(-88.5999984741211px, -154.8000030517578px);}0%{-webkit-transform: translate(88.5999984741211px, 154.8000030517578px) scale(1, 1) translate(-88.5999984741211px, -154.8000030517578px);transform: translate(88.5999984741211px, 154.8000030517578px) scale(1, 1) translate(-88.5999984741211px, -154.8000030517578px);}100%{-webkit-transform: translate(88.5999984741211px, 154.8000030517578px) scale(1, 1) translate(-88.5999984741211px, -154.8000030517578px);transform: translate(88.5999984741211px, 154.8000030517578px) scale(1, 1) translate(-88.5999984741211px, -154.8000030517578px);}}@keyframes kf_el_776JWgy0I__an_0NC8Go2MI{21.11%{-webkit-transform: translate(88.5999984741211px, 154.8000030517578px) scale(1, 1) translate(-88.5999984741211px, -154.8000030517578px);transform: translate(88.5999984741211px, 154.8000030517578px) scale(1, 1) translate(-88.5999984741211px, -154.8000030517578px);}37.78%{-webkit-transform: translate(88.5999984741211px, 154.8000030517578px) scale(1.2, 1.2) translate(-88.5999984741211px, -154.8000030517578px);transform: translate(88.5999984741211px, 154.8000030517578px) scale(1.2, 1.2) translate(-88.5999984741211px, -154.8000030517578px);}54.44%{-webkit-transform: translate(88.5999984741211px, 154.8000030517578px) scale(1, 1) translate(-88.5999984741211px, -154.8000030517578px);transform: translate(88.5999984741211px, 154.8000030517578px) scale(1, 1) translate(-88.5999984741211px, -154.8000030517578px);}0%{-webkit-transform: translate(88.5999984741211px, 154.8000030517578px) scale(1, 1) translate(-88.5999984741211px, -154.8000030517578px);transform: translate(88.5999984741211px, 154.8000030517578px) scale(1, 1) translate(-88.5999984741211px, -154.8000030517578px);}100%{-webkit-transform: translate(88.5999984741211px, 154.8000030517578px) scale(1, 1) translate(-88.5999984741211px, -154.8000030517578px);transform: translate(88.5999984741211px, 154.8000030517578px) scale(1, 1) translate(-88.5999984741211px, -154.8000030517578px);}}@-webkit-keyframes kf_el_eW9Kg-di5c_an_ygkiz-UcM{0%{-webkit-transform: translate(88.5999984741211px, 120.49999237060547px) scale(1, 1) translate(-88.5999984741211px, -120.49999237060547px);transform: translate(88.5999984741211px, 120.49999237060547px) scale(1, 1) translate(-88.5999984741211px, -120.49999237060547px);}16.67%{-webkit-transform: translate(88.5999984741211px, 120.49999237060547px) scale(1.1, 1.1) translate(-88.5999984741211px, -120.49999237060547px);transform: translate(88.5999984741211px, 120.49999237060547px) scale(1.1, 1.1) translate(-88.5999984741211px, -120.49999237060547px);}36.67%{-webkit-transform: translate(88.5999984741211px, 120.49999237060547px) scale(1, 1) translate(-88.5999984741211px, -120.49999237060547px);transform: translate(88.5999984741211px, 120.49999237060547px) scale(1, 1) translate(-88.5999984741211px, -120.49999237060547px);}100%{-webkit-transform: translate(88.5999984741211px, 120.49999237060547px) scale(1, 1) translate(-88.5999984741211px, -120.49999237060547px);transform: translate(88.5999984741211px, 120.49999237060547px) scale(1, 1) translate(-88.5999984741211px, -120.49999237060547px);}}@keyframes kf_el_eW9Kg-di5c_an_ygkiz-UcM{0%{-webkit-transform: translate(88.5999984741211px, 120.49999237060547px) scale(1, 1) translate(-88.5999984741211px, -120.49999237060547px);transform: translate(88.5999984741211px, 120.49999237060547px) scale(1, 1) translate(-88.5999984741211px, -120.49999237060547px);}16.67%{-webkit-transform: translate(88.5999984741211px, 120.49999237060547px) scale(1.1, 1.1) translate(-88.5999984741211px, -120.49999237060547px);transform: translate(88.5999984741211px, 120.49999237060547px) scale(1.1, 1.1) translate(-88.5999984741211px, -120.49999237060547px);}36.67%{-webkit-transform: translate(88.5999984741211px, 120.49999237060547px) scale(1, 1) translate(-88.5999984741211px, -120.49999237060547px);transform: translate(88.5999984741211px, 120.49999237060547px) scale(1, 1) translate(-88.5999984741211px, -120.49999237060547px);}100%{-webkit-transform: translate(88.5999984741211px, 120.49999237060547px) scale(1, 1) translate(-88.5999984741211px, -120.49999237060547px);transform: translate(88.5999984741211px, 120.49999237060547px) scale(1, 1) translate(-88.5999984741211px, -120.49999237060547px);}}#el_nrQW3ACRy *{-webkit-animation-duration: 3s;animation-duration: 3s;-webkit-animation-iteration-count: infinite;animation-iteration-count: infinite;-webkit-animation-timing-function: cubic-bezier(0, 0, 1, 1);animation-timing-function: cubic-bezier(0, 0, 1, 1);}#el_Y4NSJk9UKo{stroke: #000000;stroke-width: 0.89;stroke-miterlimit: 10;}#el_HY4tvKHryh{stroke: #000000;stroke-width: 0.89;stroke-miterlimit: 10;}#el_KmYUSt7EvB{stroke: #000000;stroke-width: 0.89;stroke-miterlimit: 10;}#el_KqU6ubYXEP{stroke: #000000;stroke-width: 0.89;stroke-miterlimit: 10;}#el_a69WjsacPc{stroke: #000000;stroke-width: 0.89;stroke-miterlimit: 10;}#el_AiacYr0mmL{stroke: #000000;stroke-width: 0.89;stroke-miterlimit: 10;}#el_YbcRbHZ47b{stroke: #000000;stroke-width: 0.89;stroke-miterlimit: 10;}#el_p4TSWgctun{stroke: #000000;stroke-width: 0.89;stroke-miterlimit: 10;}#el_eW9Kg-di5c{stroke: #000000;stroke-width: 0.89;stroke-miterlimit: 10;}#el_776JWgy0I_{stroke: #000000;stroke-width: 0.89;stroke-miterlimit: 10;}#el_qwvq3N7lMA{stroke: #000000;stroke-width: 0.89;stroke-miterlimit: 10;}#el_DNA3OzzZ4s{stroke: #000000;stroke-width: 0.89;stroke-miterlimit: 10;}#el_-6hN6M8DLs{stroke: #000000;stroke-width: 0.89;stroke-miterlimit: 10;}#el_lPrHtoqgyO{stroke: #000000;stroke-width: 0.89;stroke-miterlimit: 10;}#el_MpJAB6EES-{stroke: #000000;stroke-width: 0.89;stroke-miterlimit: 10;}#el_z3fO6di9cn6{stroke: #000000;stroke-width: 0.89;stroke-miterlimit: 10;}#el_c5miJngFS0P{stroke: #000000;stroke-width: 0.89;stroke-miterlimit: 10;}#el_c3nMNIf_brC_an_YUrnoe_vH{-webkit-transform: translate(151.3000030517578px, 131px) translate(-151.3000030517578px, -131px) translate(-12px, 0px);transform: translate(151.3000030517578px, 131px) translate(-151.3000030517578px, -131px) translate(-12px, 0px);}#el_c3nMNIf_brC_an_wc8oP3K0W{-webkit-transform: translate(157px, 131px) scale(1, 1) translate(-157px, -131px);transform: translate(157px, 131px) scale(1, 1) translate(-157px, -131px);}#el_thE5n5hSJ-g_an_VFe0bpni3{-webkit-transform: translate(143.10000610351562px, 185.1999969482422px) scale(1, 1) translate(-143.10000610351562px, -185.1999969482422px);transform: translate(143.10000610351562px, 185.1999969482422px) scale(1, 1) translate(-143.10000610351562px, -185.1999969482422px);}#el_eW9Kg-di5c_an_ygkiz-UcM{-webkit-animation-fill-mode: backwards;animation-fill-mode: backwards;-webkit-transform: translate(88.5999984741211px, 120.49999237060547px) scale(1, 1) translate(-88.5999984741211px, -120.49999237060547px);transform: translate(88.5999984741211px, 120.49999237060547px) scale(1, 1) translate(-88.5999984741211px, -120.49999237060547px);-webkit-animation-name: kf_el_eW9Kg-di5c_an_ygkiz-UcM;animation-name: kf_el_eW9Kg-di5c_an_ygkiz-UcM;-webkit-animation-timing-function: cubic-bezier(0, 0, 1, 1);animation-timing-function: cubic-bezier(0, 0, 1, 1);}#el_776JWgy0I__an_0NC8Go2MI{-webkit-animation-fill-mode: backwards;animation-fill-mode: backwards;-webkit-transform: translate(88.5999984741211px, 154.8000030517578px) scale(1, 1) translate(-88.5999984741211px, -154.8000030517578px);transform: translate(88.5999984741211px, 154.8000030517578px) scale(1, 1) translate(-88.5999984741211px, -154.8000030517578px);-webkit-animation-name: kf_el_776JWgy0I__an_0NC8Go2MI;animation-name: kf_el_776JWgy0I__an_0NC8Go2MI;-webkit-animation-timing-function: cubic-bezier(0, 0, 1, 1);animation-timing-function: cubic-bezier(0, 0, 1, 1);}#el_qwvq3N7lMA_an_TVsTMhT3Y{-webkit-animation-fill-mode: backwards;animation-fill-mode: backwards;-webkit-transform: translate(88.5999984741211px, 189.10000610351562px) scale(1, 1) translate(-88.5999984741211px, -189.10000610351562px);transform: translate(88.5999984741211px, 189.10000610351562px) scale(1, 1) translate(-88.5999984741211px, -189.10000610351562px);-webkit-animation-name: kf_el_qwvq3N7lMA_an_TVsTMhT3Y;animation-name: kf_el_qwvq3N7lMA_an_TVsTMhT3Y;-webkit-animation-timing-function: cubic-bezier(0.42, 0, 0.58, 1);animation-timing-function: cubic-bezier(0.42, 0, 0.58, 1);}#el_lPrHtoqgyO_an_7-B2aqvp8{-webkit-animation-fill-mode: backwards;animation-fill-mode: backwards;-webkit-transform: translate(215.5px, 189.10000610351562px) scale(1, 1) translate(-215.5px, -189.10000610351562px);transform: translate(215.5px, 189.10000610351562px) scale(1, 1) translate(-215.5px, -189.10000610351562px);-webkit-animation-name: kf_el_lPrHtoqgyO_an_7-B2aqvp8;animation-name: kf_el_lPrHtoqgyO_an_7-B2aqvp8;-webkit-animation-timing-function: cubic-bezier(0.42, 0, 0.58, 1);animation-timing-function: cubic-bezier(0.42, 0, 0.58, 1);}#el_-6hN6M8DLs_an_8cULPP9ka{-webkit-animation-fill-mode: backwards;animation-fill-mode: backwards;-webkit-transform: translate(215.5px, 154.8000030517578px) scale(1, 1) translate(-215.5px, -154.8000030517578px);transform: translate(215.5px, 154.8000030517578px) scale(1, 1) translate(-215.5px, -154.8000030517578px);-webkit-animation-name: kf_el_-6hN6M8DLs_an_8cULPP9ka;animation-name: kf_el_-6hN6M8DLs_an_8cULPP9ka;-webkit-animation-timing-function: cubic-bezier(0.42, 0, 0.58, 1);animation-timing-function: cubic-bezier(0.42, 0, 0.58, 1);}#el_DNA3OzzZ4s_an_Xu5WyCEat{-webkit-animation-fill-mode: backwards;animation-fill-mode: backwards;-webkit-transform: translate(215.5px, 120.54999160766602px) scale(1, 1) translate(-215.5px, -120.54999160766602px);transform: translate(215.5px, 120.54999160766602px) scale(1, 1) translate(-215.5px, -120.54999160766602px);-webkit-animation-name: kf_el_DNA3OzzZ4s_an_Xu5WyCEat;animation-name: kf_el_DNA3OzzZ4s_an_Xu5WyCEat;-webkit-animation-timing-function: cubic-bezier(0.42, 0, 0.58, 1);animation-timing-function: cubic-bezier(0.42, 0, 0.58, 1);}#el_c5miJngFS0P_an_gNgO5Af0x{-webkit-animation-fill-mode: backwards;animation-fill-mode: backwards;-webkit-transform: translate(151.85000610351562px, 159.35001373291016px) scale(1, 1) translate(-151.85000610351562px, -159.35001373291016px);transform: translate(151.85000610351562px, 159.35001373291016px) scale(1, 1) translate(-151.85000610351562px, -159.35001373291016px);-webkit-animation-name: kf_el_c5miJngFS0P_an_gNgO5Af0x;animation-name: kf_el_c5miJngFS0P_an_gNgO5Af0x;-webkit-animation-timing-function: cubic-bezier(0.42, 0, 0.58, 1);animation-timing-function: cubic-bezier(0.42, 0, 0.58, 1);}#el_thE5n5hSJ-g_an_Hif-luiSl{-webkit-transform: translate(143.10000610351562px, 185.1999969482422px) rotate(0deg) translate(-143.10000610351562px, -185.1999969482422px);transform: translate(143.10000610351562px, 185.1999969482422px) rotate(0deg) translate(-143.10000610351562px, -185.1999969482422px);}#el_thE5n5hSJ-g_an_1KszKOeeT{-webkit-transform: translate(150.20001220703125px, 187.6999969482422px) rotate(0deg) translate(-150.20001220703125px, -187.6999969482422px);transform: translate(150.20001220703125px, 187.6999969482422px) rotate(0deg) translate(-150.20001220703125px, -187.6999969482422px);}#el_c5miJngFS0P_an_qK-L0wHff{-webkit-animation-fill-mode: backwards;animation-fill-mode: backwards;-webkit-transform: translate(151.85000610351562px, 159.35001373291016px) rotate(0deg) translate(-151.85000610351562px, -159.35001373291016px);transform: translate(151.85000610351562px, 159.35001373291016px) rotate(0deg) translate(-151.85000610351562px, -159.35001373291016px);-webkit-animation-name: kf_el_c5miJngFS0P_an_qK-L0wHff;animation-name: kf_el_c5miJngFS0P_an_qK-L0wHff;-webkit-animation-timing-function: cubic-bezier(0.42, 0, 0.58, 1);animation-timing-function: cubic-bezier(0.42, 0, 0.58, 1);}#el_KqU6ubYXEP_an_2eWZMWryf{-webkit-animation-fill-mode: backwards;animation-fill-mode: backwards;-webkit-transform: translate(55.599998474121094px, 129.55000686645508px) translate(-55.599998474121094px, -129.55000686645508px) translate(0px, 0px);transform: translate(55.599998474121094px, 129.55000686645508px) translate(-55.599998474121094px, -129.55000686645508px) translate(0px, 0px);-webkit-animation-name: kf_el_KqU6ubYXEP_an_2eWZMWryf;animation-name: kf_el_KqU6ubYXEP_an_2eWZMWryf;-webkit-animation-timing-function: cubic-bezier(0.42, 0, 0.58, 1);animation-timing-function: cubic-bezier(0.42, 0, 0.58, 1);}</style>

<path d="M228.9,74.7c-8.8-1.7-17.6-3-26.3-4c-1.1-0.1-2.1,0.6-2.3,1.7l0,0c-0.2,1.1,0.6,2.2,1.7,2.4c0,0,0.1,0,0.1,0&#10;&#9;c8.6,1,17.2,2.3,26,3.9c1,0.2,2-0.4,2.4-1.4l0,0c0.3-1.1-0.3-2.2-1.4-2.6C229,74.7,228.9,74.7,228.9,74.7z" id="el_Y4NSJk9UKo"/>
<path d="M83.3,233.3c0-1.2-0.9-2.1-2.1-2.1c0,0,0,0,0,0l-14,0.1c-13.6-0.4-24.2-11.8-23.8-25.3c0-0.4,0-0.8,0.1-1.2&#10;&#9;v-0.5c0.7-24.4,0.7-45.7,0-63.5v-1.2c-0.3-6.7-1-24.4-1-48.1l0,0c0-2.4,1.6-4.6,3.9-5.2c25-6.9,48.8-11.1,71-12.5&#10;&#9;c9.3-0.6,20.5-0.9,22.7-0.9c6.4-0.1,41.4,0.7,49.1,0.9c0.9,0,1.6-0.6,1.8-1.5c0-0.3,0.1-0.6,0.1-0.8c0.1-0.9-0.5-1.8-1.4-1.9&#10;&#9;c0,0-0.1,0-0.1,0c-20.9-1.5-42.4-1-49.6-0.9c-2.2,0-13.4,0.3-22.8,0.9C94.7,71,70.5,75.3,45.2,82.3c-4.1,1.1-7,4.9-7,9.2v0.1&#10;&#9;c0,23.7,0.8,41.5,1,48.3v1.2c0.7,17.6,0.7,38.9,0,63.2c0,0.1,0,0.2,0,0.3c-1.2,15.8,10.6,29.7,26.4,30.9c0.5,0,0.9,0.1,1.4,0.1&#10;&#9;l14.1-0.1C82.4,235.3,83.3,234.4,83.3,233.3L83.3,233.3z" id="el_HY4tvKHryh"/>
<path d="M263.9,90.1c-0.1-4.2-2.9-7.9-7-9c-4.9-1.3-9.8-2.5-14.7-3.6c-1-0.2-2.1,0.3-2.4,1.3l0,0&#10;&#9;c-0.4,1.1,0.2,2.2,1.3,2.6c0.1,0,0.2,0,0.2,0.1c4.8,1.1,9.7,2.3,14.6,3.6c2.3,0.6,3.9,2.7,3.9,5l1.8,118.4c0,0.3,0,0.6,0,0.9&#10;&#9;c-1,9.6-6,17.1-13.1,19.8c-2.7,1-5.5,1.3-8.3,0.9c-0.4-0.1-0.9-0.1-1.3-0.1l-134.4,1c-1.1,0-2,0.9-2,2.1v0.1c0,1.1,0.9,2.1,2,2.1&#10;&#9;c0,0,0,0,0,0l134.4-1c0.2,0,0.5,0,0.7,0.1c3.5,0.5,7,0.1,10.3-1.1c8.6-3.2,14.6-12.2,15.8-23.4c0-0.4,0.1-0.8,0-1.1L263.9,90.1z" id="el_KmYUSt7EvB"/>
<g id="el_KqU6ubYXEP_an_2eWZMWryf" data-animator-group="true" data-animator-type="0"><path d="M55.6,119.4L55.6,119.4c-1.1,0-2.1,0.9-2.1,2.1c0,0,0,0,0,0v16.1c0,1.2,0.9,2.1,2.1,2.1l0,0&#10;&#9;c1.1,0,2.1-0.9,2.1-2.1c0,0,0,0,0,0v-16.1C57.7,120.3,56.8,119.4,55.6,119.4z" id="el_KqU6ubYXEP"/></g>
<path d="M74.9,90.8c-5.5-0.3-11.1,0.6-16.2,2.6c-3.1,1.2-5.2,4.3-5.2,7.6v7c0,1.2,0.9,2.1,2.1,2.1l0,0&#10;&#9;c1.2,0,2.1-0.9,2.1-2.1c0,0,0,0,0,0v-7l0,0c0-1.6,1-3.1,2.5-3.7c1.7-0.6,3.4-1.2,5.1-1.6c2.4-0.5,4.9-0.8,7.4-0.8v123.4&#10;&#9;c-2.6,0.5-5.2,0.4-7.8-0.3c-1.9-0.4-3.6-1.3-5-2.7c-1.4-1.7-2.1-3.9-2-6.1l-0.2-58c0-1.2-0.9-2.1-2-2.2c0,0,0,0-0.1,0l0,0&#10;&#9;c-1.2,0-2.1,0.9-2.1,2.1c0,0,0,0,0,0l0.2,58c-0.1,3.2,1,6.4,3.1,8.9c1.9,2,4.3,3.3,6.9,3.9c1.9,0.5,3.8,0.8,5.7,0.8&#10;&#9;c2,0,4-0.3,5.9-0.8l1.6-0.4V90.9L74.9,90.8z" id="el_a69WjsacPc"/>
<path d="M248.1,199.8L248.1,199.8c-1.1,0-2.1,0.9-2.1,2c0,0,0,0,0,0v7.4c0.1,2.2-0.6,4.3-2,6c-1.4,1.4-3.1,2.3-5,2.7&#10;&#9;c-1.9,0.5-3.9,0.7-5.9,0.6c-1.1-0.1-1.9-1-1.9-2.1V97.1c0-1.1,0.9-2.1,2.1-2.1c0,0,0,0,0.1,0c1.7,0.1,3.5,0.4,5.2,0.7&#10;&#9;c0.6,0.1,1.3,0.3,1.9,0.5c3.4,0.9,5.8,4,5.8,7.6l-0.3,81.6c0,1.1,0.9,2.1,2.1,2.1l0,0c1.1,0,2.1-0.9,2.1-2c0,0,0,0,0,0l0.2-81.7&#10;&#9;c0-5.4-3.6-10.1-8.9-11.6c-0.7-0.2-1.4-0.4-2.1-0.5c-3.4-0.8-7-1-10.5-0.9l0,0c-1.1,0-2,1-2,2.1V220c0,0.9,0.6,1.8,1.5,2l0,0&#10;&#9;c1.9,0.5,3.9,0.8,5.9,0.8c1.9,0,3.9-0.3,5.7-0.8c2.6-0.6,5-1.9,6.9-3.9c2.1-2.5,3.2-5.6,3.1-8.9v-7.3&#10;&#9;C250.1,200.8,249.2,199.9,248.1,199.8z" id="el_AiacYr0mmL"/>
<path d="M170.4,217.6h-64.2c-1.2,0-2.1-0.9-2.1-2.1l-0.4-120.9c0-1.1,0.9-2,2-2.1c2.6-0.1,5.1-0.2,7.7-0.3&#10;&#9;c1.1,0,2-1,2-2.1l0,0c0-1.2-0.9-2.1-2.1-2.1c0,0,0,0-0.1,0c-3.9,0.2-7.8,0.3-11.7,0.5l0,0c-1.1,0-2,1-2,2.1l0.4,129.1&#10;&#9;c0,1.2,0.9,2.1,2.1,2.1h68.4c1.2,0,2.1-0.9,2.1-2.1l0,0C172.6,218.6,171.6,217.6,170.4,217.6C170.5,217.6,170.5,217.6,170.4,217.6z" id="el_YbcRbHZ47b"/>
<path d="M201.6,88.7c-15.9-0.9-32.1-1.4-48.1-1.4c-8.9,0-17.8,0.1-26.7,0.3c-1.1,0-2,1-2,2.1l0,0c0,1.1,0.9,2.1,2.1,2.1&#10;&#9;c0,0,0,0,0.1,0c8.9-0.2,17.8-0.3,26.6-0.3c14.6,0.1,29.3,0.5,43.9,1.2c1.1,0,2,1,2,2.1v120.8c0,1.2-0.9,2.1-2.1,2.1h-5.8&#10;&#9;c-1.1,0-2.1,0.9-2.1,2.1c0,0,0,0,0,0l0,0c0,1.2,0.9,2.1,2.1,2.1h10c1.2,0,2.1-0.9,2.1-2.1V90.8C203.7,89.7,202.8,88.8,201.6,88.7&#10;&#9;L201.6,88.7z" id="el_p4TSWgctun"/>
<g id="el_eW9Kg-di5c_an_ygkiz-UcM" data-animator-group="true" data-animator-type="2"><path d="M88.6,128.4c-4.3,0-7.9-3.5-7.9-7.9s3.5-7.9,7.9-7.9s7.9,3.5,7.9,7.9C96.4,124.9,92.9,128.4,88.6,128.4z&#10;&#9; M88.6,116.9c-2,0-3.7,1.6-3.7,3.7s1.6,3.7,3.7,3.7c2,0,3.7-1.6,3.7-3.7c0,0,0,0,0,0C92.2,118.5,90.6,116.9,88.6,116.9z" id="el_eW9Kg-di5c"/></g>
<g id="el_776JWgy0I__an_0NC8Go2MI" data-animator-group="true" data-animator-type="2"><path d="M88.6,162.7c-4.3,0-7.9-3.5-7.9-7.9c0-4.3,3.5-7.9,7.9-7.9s7.9,3.5,7.9,7.9c0,0,0,0,0,0&#10;&#9;C96.4,159.2,92.9,162.7,88.6,162.7z M88.6,151.2c-2,0-3.7,1.6-3.7,3.7c0,2,1.6,3.7,3.7,3.7c2,0,3.7-1.6,3.7-3.7l0,0&#10;&#9;C92.3,152.8,90.6,151.2,88.6,151.2z" id="el_776JWgy0I_"/></g>
<g id="el_qwvq3N7lMA_an_TVsTMhT3Y" data-animator-group="true" data-animator-type="2"><path d="M88.6,197c-4.3,0-7.9-3.5-7.9-7.9s3.5-7.9,7.9-7.9s7.9,3.5,7.9,7.9S92.9,197,88.6,197L88.6,197z M88.6,185.5&#10;&#9;c-2,0-3.7,1.6-3.7,3.7s1.6,3.7,3.7,3.7c2,0,3.7-1.6,3.7-3.7c0,0,0,0,0,0C92.3,187.1,90.6,185.5,88.6,185.5&#10;&#9;C88.6,185.4,88.6,185.4,88.6,185.5L88.6,185.5z" id="el_qwvq3N7lMA"/></g>
<g id="el_DNA3OzzZ4s_an_Xu5WyCEat" data-animator-group="true" data-animator-type="2"><path d="M215.5,128.4c-4.3,0-7.9-3.5-7.9-7.8c0-4.3,3.5-7.9,7.9-7.9c4.3,0,7.9,3.5,7.9,7.8c0,0,0,0,0,0&#10;&#9;C223.4,124.9,219.9,128.4,215.5,128.4z M215.5,116.9c-2,0-3.7,1.6-3.7,3.7c0,2,1.6,3.7,3.7,3.7c2,0,3.7-1.6,3.7-3.7c0,0,0,0,0,0&#10;&#9;C219.2,118.5,217.6,116.9,215.5,116.9z" id="el_DNA3OzzZ4s"/></g>
<g id="el_-6hN6M8DLs_an_8cULPP9ka" data-animator-group="true" data-animator-type="2"><path d="M215.5,162.7c-4.3,0-7.9-3.5-7.9-7.9c0-4.3,3.5-7.9,7.9-7.9c4.3,0,7.9,3.5,7.9,7.9c0,0,0,0,0,0&#10;&#9;C223.4,159.2,219.9,162.7,215.5,162.7z M215.5,151.2c-2,0-3.7,1.6-3.7,3.7s1.6,3.7,3.7,3.7s3.7-1.6,3.7-3.7l0,0&#10;&#9;C219.2,152.8,217.6,151.2,215.5,151.2z" id="el_-6hN6M8DLs"/></g>
<g id="el_lPrHtoqgyO_an_7-B2aqvp8" data-animator-group="true" data-animator-type="2"><path d="M215.5,197c-4.3,0-7.9-3.5-7.9-7.9c0-4.3,3.5-7.9,7.9-7.9s7.9,3.5,7.9,7.8c0,0,0,0,0,0&#10;&#9;C223.4,193.5,219.9,197,215.5,197z M215.5,185.5c-2,0-3.7,1.6-3.7,3.7c0,2,1.6,3.7,3.7,3.7c2,0,3.7-1.6,3.7-3.7c0,0,0,0,0,0&#10;&#9;C219.2,187.1,217.6,185.5,215.5,185.5C215.6,185.4,215.6,185.4,215.5,185.5L215.5,185.5z" id="el_lPrHtoqgyO"/></g>
<path d="M158.1,185.6H134c-6,0-10.9-4.9-10.9-10.9V144c0-6,4.8-10.9,10.8-10.9c0,0,0,0,0,0h0.7c1.1,0,2-0.9,2-2.1v0&#10;&#9;c0-1.1-0.9-2-2-2H134c-8.3,0-15,6.7-15,15v30.7c0,8.3,6.7,15,15,15.1h24.1c1.1,0,2-0.9,2-2.1l0,0&#10;&#9;C160.2,186.6,159.3,185.6,158.1,185.6C158.1,185.6,158.1,185.6,158.1,185.6z" id="el_MpJAB6EES-"/>
<path d="M170.6,128.9h-8.9h-0.1h-5.1h-9.3H147h-1.7c-1.2,0-2.1,0.9-2.1,2.1l0,0c0,1.2,0.9,2.1,2.1,2.1c0,0,0,0,0,0h11&#10;&#9;h14.2c5.5,0,9.9,4.5,9.9,9.9l0,0v32.6c0,5.5-4.5,9.9-9.9,9.9l0,0c-0.6,0-1.1,0.5-1.1,1.1c0,0.7,0,1.3,0,2c0,0.6,0.5,1.1,1.1,1.1l0,0&#10;&#9;c7.8,0,14.1-6.3,14.1-14.1V143C184.7,135.2,178.4,128.9,170.6,128.9C170.6,128.9,170.6,128.9,170.6,128.9z" id="el_z3fO6di9cn6"/>
<g id="el_c5miJngFS0P_an_qK-L0wHff" data-animator-group="true" data-animator-type="1"><g id="el_c5miJngFS0P_an_gNgO5Af0x" data-animator-group="true" data-animator-type="2"><path d="M154,176h-4.6c-1.7-0.3-3.3-1.2-4.4-2.6c-1.1-1.3-1.6-2.9-1.4-4.6v-0.2l2-11.7c0.1-0.3,0.1-0.7,0-1&#10;&#9;c-0.4-0.6-0.7-1.3-0.9-1.9c-0.2-0.4-0.3-0.7-0.5-1.1c0-0.1-0.1-0.3-0.1-0.4c-0.1-0.5-0.2-1-0.2-1.5c0-0.1,0-0.3,0-0.4&#10;&#9;c0-4.3,3.5-7.9,7.9-7.9s7.9,3.5,7.9,7.9c0,0.1,0,0.3,0,0.4c0,0.5-0.1,1-0.2,1.4c-0.1,0.2-0.1,0.3-0.1,0.5c-0.1,0.4-0.3,0.7-0.4,1.1&#10;&#9;c-0.2,0.7-0.5,1.4-0.9,2c-0.1,0.3-0.1,0.7,0,1l2,11.8c0.2,1.7-0.3,3.3-1.4,4.6c-1.1,1.4-2.6,2.3-4.4,2.6L154,176z M150,171.8h3.6&#10;&#9;c0.5-0.1,1-0.4,1.4-0.8c0.7-1.1,0.8-1.2,0.7-1.9l-2-11.6c-0.2-1.3-0.1-2.5,0.5-3.7l0.3-0.6l-0.1-0.2l0.5-0.8&#10;&#9;c0.1-0.2,0.2-0.5,0.3-0.7c0-0.1,0.1-0.2,0.1-0.2c0.1-0.2,0.1-0.5,0.1-0.7c0-0.1,0-0.2,0-0.3c-0.1-2-1.8-3.6-3.9-3.5&#10;&#9;c-1.9,0.1-3.4,1.6-3.5,3.5c0,0.1,0,0.2,0,0.3c0,0.2,0,0.5,0.1,0.7l0.1,0.2c0.1,0.3,0.2,0.5,0.3,0.7l0.5,0.8l-0.1,0.3l0.3,0.6&#10;&#9;c0.5,1.1,0.7,2.4,0.5,3.7l-2,11.6c-0.1,0.6,0,0.7,0.7,1.9C148.8,171.4,149.4,171.7,150,171.8L150,171.8z M148.8,152.5L148.8,152.5z" id="el_c5miJngFS0P"/></g></g>
<path d="M145.6,131c0,1.4,0.7,2.5,1.6,2.5h18.6v-5h-18.6C146.3,128.5,145.6,129.6,145.6,131z" id="el_F02Clq9Qyc0"/>
<path d="M157,128.5h-9.7c-0.9,0-1.7,1.1-1.7,2.5c0,1.4,0.8,2.5,1.7,2.5h9.7V128.5z" id="el_c3nMNIf_brC"/>
<path d="M143.1,190.2h12.1c1.2,0,2.1-1.1,2.1-2.5c0-1.4-1-2.5-2.1-2.5h-12.1V190.2z" id="el_thE5n5hSJ-g"/>
</svg>