<svg version="1.1" xmlns="http://www.w3.org/2000/svg" xmlns:xlink="http://www.w3.org/1999/xlink" x="0px" y="0px" viewBox="0 0 303 303" style="enable-background:new 0 0 303.9 303.9;" xml:space="preserve" id="el_kdxg4xLLC"><style>@-webkit-keyframes kf_el_AeXcPqTdhB_an_naaMOeZEe{
6.67%{-webkit-transform: translate(143.39698028564453px, 150.95312118530273px) translate(-143.39698028564453px, -150.95312118530273px) translate(0px, 0px);transform: translate(143.39698028564453px, 150.95312118530273px) translate(-143.39698028564453px, -150.95312118530273px) translate(0px, 0px);}
34.44%{-webkit-transform: translate(143.39698028564453px, 150.95312118530273px) translate(-143.39698028564453px, -150.95312118530273px) translate(0px, -30px);transform: translate(143.39698028564453px, 150.95312118530273px) translate(-143.39698028564453px, -150.95312118530273px) translate(0px, -30px);}
46.67%{-webkit-transform: translate(143.39698028564453px, 150.95312118530273px) translate(-143.39698028564453px, -150.95312118530273px) translate(0px, 0px);transform: translate(143.39698028564453px, 150.95312118530273px) translate(-143.39698028564453px, -150.95312118530273px) translate(0px, 0px);}
0%{-webkit-transform: translate(143.39698028564453px, 150.95312118530273px) translate(-143.39698028564453px, -150.95312118530273px) translate(0px, 0px);transform: translate(143.39698028564453px, 150.95312118530273px) translate(-143.39698028564453px, -150.95312118530273px) translate(0px, 0px);}
100%{-webkit-transform: translate(143.39698028564453px, 150.95312118530273px) translate(-143.39698028564453px, -150.95312118530273px) translate(0px, 0px);transform: translate(143.39698028564453px, 150.95312118530273px) translate(-143.39698028564453px, -150.95312118530273px) translate(0px, 0px);}}
@keyframes kf_el_AeXcPqTdhB_an_naaMOeZEe{
6.67%{-webkit-transform: translate(143.39698028564453px, 150.95312118530273px) translate(-143.39698028564453px, -150.95312118530273px) translate(0px, 0px);transform: translate(143.39698028564453px, 150.95312118530273px) translate(-143.39698028564453px, -150.95312118530273px) translate(0px, 0px);}
34.44%{-webkit-transform: translate(143.39698028564453px, 150.95312118530273px) translate(-143.39698028564453px, -150.95312118530273px) translate(0px, -30px);transform: translate(143.39698028564453px, 150.95312118530273px) translate(-143.39698028564453px, -150.95312118530273px) translate(0px, -30px);}
46.67%{-webkit-transform: translate(143.39698028564453px, 150.95312118530273px) translate(-143.39698028564453px, -150.95312118530273px) translate(0px, 0px);transform: translate(143.39698028564453px, 150.95312118530273px) translate(-143.39698028564453px, -150.95312118530273px) translate(0px, 0px);}
0%{-webkit-transform: translate(143.39698028564453px, 150.95312118530273px) translate(-143.39698028564453px, -150.95312118530273px) translate(0px, 0px);transform: translate(143.39698028564453px, 150.95312118530273px) translate(-143.39698028564453px, -150.95312118530273px) translate(0px, 0px);}
100%{-webkit-transform: translate(143.39698028564453px, 150.95312118530273px) translate(-143.39698028564453px, -150.95312118530273px) translate(0px, 0px);transform: translate(143.39698028564453px, 150.95312118530273px) translate(-143.39698028564453px, -150.95312118530273px) translate(0px, 0px);}}
@-webkit-keyframes kf_el_AeXcPqTdhB_an_DtCQO3lHk{
53.33%{-webkit-transform: translate(143.39698028564453px, 150.95312118530273px) rotate(0deg) translate(-143.39698028564453px, -150.95312118530273px);transform: translate(143.39698028564453px, 150.95312118530273px) rotate(0deg) translate(-143.39698028564453px, -150.95312118530273px);}
70%{-webkit-transform: translate(143.39698028564453px, 150.95312118530273px) rotate(-10deg) translate(-143.39698028564453px, -150.95312118530273px);transform: translate(143.39698028564453px, 150.95312118530273px) rotate(-10deg) translate(-143.39698028564453px, -150.95312118530273px);}
90%{-webkit-transform: translate(143.39698028564453px, 150.95312118530273px) rotate(0deg) translate(-143.39698028564453px, -150.95312118530273px);transform: translate(143.39698028564453px, 150.95312118530273px) rotate(0deg) translate(-143.39698028564453px, -150.95312118530273px);}
0%{-webkit-transform: translate(143.39698028564453px, 150.95312118530273px) rotate(0deg) translate(-143.39698028564453px, -150.95312118530273px);transform: translate(143.39698028564453px, 150.95312118530273px) rotate(0deg) translate(-143.39698028564453px, -150.95312118530273px);}
100%{-webkit-transform: translate(143.39698028564453px, 150.95312118530273px) rotate(0deg) translate(-143.39698028564453px, -150.95312118530273px);transform: translate(143.39698028564453px, 150.95312118530273px) rotate(0deg) translate(-143.39698028564453px, -150.95312118530273px);}}
@keyframes kf_el_AeXcPqTdhB_an_DtCQO3lHk{
53.33%{-webkit-transform: translate(143.39698028564453px, 150.95312118530273px) rotate(0deg) translate(-143.39698028564453px, -150.95312118530273px);transform: translate(143.39698028564453px, 150.95312118530273px) rotate(0deg) translate(-143.39698028564453px, -150.95312118530273px);}
70%{-webkit-transform: translate(143.39698028564453px, 150.95312118530273px) rotate(-10deg) translate(-143.39698028564453px, -150.95312118530273px);transform: translate(143.39698028564453px, 150.95312118530273px) rotate(-10deg) translate(-143.39698028564453px, -150.95312118530273px);}
90%{-webkit-transform: translate(143.39698028564453px, 150.95312118530273px) rotate(0deg) translate(-143.39698028564453px, -150.95312118530273px);transform: translate(143.39698028564453px, 150.95312118530273px) rotate(0deg) translate(-143.39698028564453px, -150.95312118530273px);}
0%{-webkit-transform: translate(143.39698028564453px, 150.95312118530273px) rotate(0deg) translate(-143.39698028564453px, -150.95312118530273px);transform: translate(143.39698028564453px, 150.95312118530273px) rotate(0deg) translate(-143.39698028564453px, -150.95312118530273px);}
100%{-webkit-transform: translate(143.39698028564453px, 150.95312118530273px) rotate(0deg) translate(-143.39698028564453px, -150.95312118530273px);transform: translate(143.39698028564453px, 150.95312118530273px) rotate(0deg) translate(-143.39698028564453px, -150.95312118530273px);}}
@-webkit-keyframes kf_el_rWNHBUYwq0_an_ujNwXexmi{
6.67%{-webkit-transform: translate(160.69708251953125px, 152.70304107666016px) translate(-160.69708251953125px, -152.70304107666016px) translate(0px, 0px);transform: translate(160.69708251953125px, 152.70304107666016px) translate(-160.69708251953125px, -152.70304107666016px) translate(0px, 0px);}
34.44%{-webkit-transform: translate(160.69708251953125px, 152.70304107666016px) translate(-160.69708251953125px, -152.70304107666016px) translate(0px, -30px);transform: translate(160.69708251953125px, 152.70304107666016px) translate(-160.69708251953125px, -152.70304107666016px) translate(0px, -30px);}
46.67%{-webkit-transform: translate(160.69708251953125px, 152.70304107666016px) translate(-160.69708251953125px, -152.70304107666016px) translate(0px, 0px);transform: translate(160.69708251953125px, 152.70304107666016px) translate(-160.69708251953125px, -152.70304107666016px) translate(0px, 0px);}
0%{-webkit-transform: translate(160.69708251953125px, 152.70304107666016px) translate(-160.69708251953125px, -152.70304107666016px) translate(0px, 0px);transform: translate(160.69708251953125px, 152.70304107666016px) translate(-160.69708251953125px, -152.70304107666016px) translate(0px, 0px);}
100%{-webkit-transform: translate(160.69708251953125px, 152.70304107666016px) translate(-160.69708251953125px, -152.70304107666016px) translate(0px, 0px);transform: translate(160.69708251953125px, 152.70304107666016px) translate(-160.69708251953125px, -152.70304107666016px) translate(0px, 0px);}}
@keyframes kf_el_rWNHBUYwq0_an_ujNwXexmi{
6.67%{-webkit-transform: translate(160.69708251953125px, 152.70304107666016px) translate(-160.69708251953125px, -152.70304107666016px) translate(0px, 0px);transform: translate(160.69708251953125px, 152.70304107666016px) translate(-160.69708251953125px, -152.70304107666016px) translate(0px, 0px);}
34.44%{-webkit-transform: translate(160.69708251953125px, 152.70304107666016px) translate(-160.69708251953125px, -152.70304107666016px) translate(0px, -30px);transform: translate(160.69708251953125px, 152.70304107666016px) translate(-160.69708251953125px, -152.70304107666016px) translate(0px, -30px);}
46.67%{-webkit-transform: translate(160.69708251953125px, 152.70304107666016px) translate(-160.69708251953125px, -152.70304107666016px) translate(0px, 0px);transform: translate(160.69708251953125px, 152.70304107666016px) translate(-160.69708251953125px, -152.70304107666016px) translate(0px, 0px);}
0%{-webkit-transform: translate(160.69708251953125px, 152.70304107666016px) translate(-160.69708251953125px, -152.70304107666016px) translate(0px, 0px);transform: translate(160.69708251953125px, 152.70304107666016px) translate(-160.69708251953125px, -152.70304107666016px) translate(0px, 0px);}
100%{-webkit-transform: translate(160.69708251953125px, 152.70304107666016px) translate(-160.69708251953125px, -152.70304107666016px) translate(0px, 0px);transform: translate(160.69708251953125px, 152.70304107666016px) translate(-160.69708251953125px, -152.70304107666016px) translate(0px, 0px);}}
@-webkit-keyframes kf_el_rWNHBUYwq0_an_8nip3ZY7F{
53.33%{-webkit-transform: translate(160.69708251953125px, 152.70304107666016px) rotate(0deg) translate(-160.69708251953125px, -152.70304107666016px);transform: translate(160.69708251953125px, 152.70304107666016px) rotate(0deg) translate(-160.69708251953125px, -152.70304107666016px);}
70%{-webkit-transform: translate(160.69708251953125px, 152.70304107666016px) rotate(10deg) translate(-160.69708251953125px, -152.70304107666016px);transform: translate(160.69708251953125px, 152.70304107666016px) rotate(10deg) translate(-160.69708251953125px, -152.70304107666016px);}
90%{-webkit-transform: translate(160.69708251953125px, 152.70304107666016px) rotate(0deg) translate(-160.69708251953125px, -152.70304107666016px);transform: translate(160.69708251953125px, 152.70304107666016px) rotate(0deg) translate(-160.69708251953125px, -152.70304107666016px);}
0%{-webkit-transform: translate(160.69708251953125px, 152.70304107666016px) rotate(0deg) translate(-160.69708251953125px, -152.70304107666016px);transform: translate(160.69708251953125px, 152.70304107666016px) rotate(0deg) translate(-160.69708251953125px, -152.70304107666016px);}
100%{-webkit-transform: translate(160.69708251953125px, 152.70304107666016px) rotate(0deg) translate(-160.69708251953125px, -152.70304107666016px);transform: translate(160.69708251953125px, 152.70304107666016px) rotate(0deg) translate(-160.69708251953125px, -152.70304107666016px);}}
@keyframes kf_el_rWNHBUYwq0_an_8nip3ZY7F{
53.33%{-webkit-transform: translate(160.69708251953125px, 152.70304107666016px) rotate(0deg) translate(-160.69708251953125px, -152.70304107666016px);transform: translate(160.69708251953125px, 152.70304107666016px) rotate(0deg) translate(-160.69708251953125px, -152.70304107666016px);}
70%{-webkit-transform: translate(160.69708251953125px, 152.70304107666016px) rotate(10deg) translate(-160.69708251953125px, -152.70304107666016px);transform: translate(160.69708251953125px, 152.70304107666016px) rotate(10deg) translate(-160.69708251953125px, -152.70304107666016px);}
90%{-webkit-transform: translate(160.69708251953125px, 152.70304107666016px) rotate(0deg) translate(-160.69708251953125px, -152.70304107666016px);transform: translate(160.69708251953125px, 152.70304107666016px) rotate(0deg) translate(-160.69708251953125px, -152.70304107666016px);}
0%{-webkit-transform: translate(160.69708251953125px, 152.70304107666016px) rotate(0deg) translate(-160.69708251953125px, -152.70304107666016px);transform: translate(160.69708251953125px, 152.70304107666016px) rotate(0deg) translate(-160.69708251953125px, -152.70304107666016px);}
100%{-webkit-transform: translate(160.69708251953125px, 152.70304107666016px) rotate(0deg) translate(-160.69708251953125px, -152.70304107666016px);transform: translate(160.69708251953125px, 152.70304107666016px) rotate(0deg) translate(-160.69708251953125px, -152.70304107666016px);}}
#el_kdxg4xLLC *{fill:#FFA502;-webkit-animation-duration: 3s;animation-duration: 3s;-webkit-animation-iteration-count: infinite;animation-iteration-count: infinite;-webkit-animation-timing-function: cubic-bezier(0, 0, 1, 1);animation-timing-function: cubic-bezier(0, 0, 1, 1);}
#el_w9u9EQcKL1{fill: white;}
#el_rWNHBUYwq0_an_8nip3ZY7F{-webkit-animation-fill-mode: backwards;animation-fill-mode: backwards;-webkit-transform: translate(160.69708251953125px, 152.70304107666016px) rotate(0deg) translate(-160.69708251953125px, -152.70304107666016px);transform: translate(160.69708251953125px, 152.70304107666016px) rotate(0deg) translate(-160.69708251953125px, -152.70304107666016px);-webkit-animation-name: kf_el_rWNHBUYwq0_an_8nip3ZY7F;animation-name: kf_el_rWNHBUYwq0_an_8nip3ZY7F;-webkit-animation-timing-function: cubic-bezier(0.42, 0, 0.58, 1);animation-timing-function: cubic-bezier(0.42, 0, 0.58, 1);}
#el_rWNHBUYwq0_an_ujNwXexmi{-webkit-animation-fill-mode: backwards;animation-fill-mode: backwards;-webkit-transform: translate(160.69708251953125px, 152.70304107666016px) translate(-160.69708251953125px, -152.70304107666016px) translate(0px, 0px);transform: translate(160.69708251953125px, 152.70304107666016px) translate(-160.69708251953125px, -152.70304107666016px) translate(0px, 0px);-webkit-animation-name: kf_el_rWNHBUYwq0_an_ujNwXexmi;animation-name: kf_el_rWNHBUYwq0_an_ujNwXexmi;-webkit-animation-timing-function: cubic-bezier(0.42, 0, 0.58, 1);animation-timing-function: cubic-bezier(0.42, 0, 0.58, 1);}
#el_AeXcPqTdhB_an_DtCQO3lHk{-webkit-animation-fill-mode: backwards;animation-fill-mode: backwards;-webkit-transform: translate(143.39698028564453px, 150.95312118530273px) rotate(0deg) translate(-143.39698028564453px, -150.95312118530273px);transform: translate(143.39698028564453px, 150.95312118530273px) rotate(0deg) translate(-143.39698028564453px, -150.95312118530273px);-webkit-animation-name: kf_el_AeXcPqTdhB_an_DtCQO3lHk;animation-name: kf_el_AeXcPqTdhB_an_DtCQO3lHk;-webkit-animation-timing-function: cubic-bezier(0.42, 0, 0.58, 1);animation-timing-function: cubic-bezier(0.42, 0, 0.58, 1);}
#el_AeXcPqTdhB_an_naaMOeZEe{-webkit-animation-fill-mode: backwards;animation-fill-mode: backwards;-webkit-transform: translate(143.39698028564453px, 150.95312118530273px) translate(-143.39698028564453px, -150.95312118530273px) translate(0px, 0px);transform: translate(143.39698028564453px, 150.95312118530273px) translate(-143.39698028564453px, -150.95312118530273px) translate(0px, 0px);-webkit-animation-name: kf_el_AeXcPqTdhB_an_naaMOeZEe;animation-name: kf_el_AeXcPqTdhB_an_naaMOeZEe;-webkit-animation-timing-function: cubic-bezier(0.42, 0, 0.58, 1);animation-timing-function: cubic-bezier(0.42, 0, 0.58, 1);}</style>

<g id="el_rWNHBUYwq0_an_ujNwXexmi" data-animator-group="true" data-animator-type="0"><g id="el_rWNHBUYwq0_an_8nip3ZY7F" data-animator-group="true" data-animator-type="1"><g id="el_rWNHBUYwq0">
	<g id="el_o40E6sMGO2">
		<path d="M103.9,91.3c-1.1-1-2.7-1-3.7,0c-1.1,1-1.2,2.8-0.2,3.9l25.2,25.2c0,0,0,0,0,0c1.1,1.1,2.8,1.1,3.9,0&#10;&#9;&#9;&#9;c1.1-1.1,1.1-2.8,0-3.9L103.9,91.3z" id="el_KZBFgYjy1m"/>
		<path d="M254.4,211.3L243,199.9c0,0,0,0,0,0c-1.1-1.1-3-1.1-4.1,0l-4.2,4.2l-16.5-16.5c-1.1-1.1-2.9-1.1-4,0c-1.1,1.1-1.1,2.9,0,4&#10;&#9;&#9;&#9;l16.6,16.6l-14.9,14.9l-23-23l33.8-33.8c0,0,0,0,0,0c1.1-1.2,1.1-3,0-4.1L215,150.3c0,0,0,0,0,0c-1.1-1.1-3-1.1-4.1,0l-7.1,7.1&#10;&#9;&#9;&#9;l-10.6-10.6c-1.1-1.1-3-1.1-4.1,0c-1.1,1.1-1.2,3,0,4.1c0,0,0,0,0,0l10.5,10.5l-30.3,30.3l-16.5-16.4l-4.2,4l16.6,16.6l-7.1,7.1&#10;&#9;&#9;&#9;c0,0,0,0,0,0c-1.1,1.1-1.1,3,0,4.1l11.7,11.7c0,0,0,0,0,0c1.1,1.1,3,1.1,4.1,0l14.9-14.9l23,23l-4.1,4.1c0,0,0,0,0,0&#10;&#9;&#9;&#9;c-1.1,1.1-1.1,3,0,4.1l11.4,11.4c0,0,0,0,0,0c1.1,1.1,3,1.1,4.1,0l5.5-5.5c5.6,4.3,13.7,3.9,18.8-1.2c5.1-5.1,5.5-13.2,1.2-18.8&#10;&#9;&#9;&#9;l5.6-5.6c0,0,0,0,0,0C255.5,214.3,255.5,212.5,254.4,211.3z M171.9,212.6l-7.6-7.6l48.5-48.5l7.6,7.6L171.9,212.6z M244.7,234.3&#10;&#9;&#9;&#9;c-2.5,3.9-7.7,5.1-11.7,2.6l11.7-11.7C246.4,228,246.4,231.5,244.7,234.3z M242.8,218.8l-16.1,16.1c0,0,0,0,0,0l-5.5,5.5l-7.3-7.3&#10;&#9;&#9;&#9;l27-27l7.3,7.3L242.8,218.8z" id="el_maiMI_TA8C"/>
		<path d="M78,100.4c-0.6-0.6-1-1.4-1.1-2.2l-4.3-33.7l34.5,5.5c0.8,0.1,1.5,0.5,2.1,1.1l40.3,40.3l4.1-4.1l-40.3-40.4&#10;&#9;&#9;&#9;c-1.4-1.4-3.3-2.4-5.3-2.7l-38.4-6.1c-0.9-0.1-1.8,0.2-2.5,0.8c-0.7,0.6-1,1.5-0.9,2.5l4.8,37.6c0.3,2.1,1.2,4.1,2.8,5.6&#10;&#9;&#9;&#9;l34.2,34.2c1.1,1.1,3,1.1,4.1,0c1.1-1.1,1.1-3,0-4.1L78,100.4z" id="el_K4sqjlfycC"/>
	</g>
</g></g></g>
<g id="el_AeXcPqTdhB_an_naaMOeZEe" data-animator-group="true" data-animator-type="0"><g id="el_AeXcPqTdhB_an_DtCQO3lHk" data-animator-group="true" data-animator-type="1"><g id="el_AeXcPqTdhB">
	<g id="el_cHJtK8EF49">
		<path d="M237.2,57.4c-0.6-0.7-1.6-1-2.5-0.9l-37.5,4.8c-2.1,0.3-4.1,1.2-5.6,2.8l-91.4,91.4l-7-7c0,0,0,0,0,0&#10;&#9;&#9;&#9;c-1.1-1.1-3-1.1-4.1,0l-11.8,11.7c0,0,0,0,0,0c-1.1,1.1-1.1,3,0,4.1l14.9,14.9l-23,23l-4.1-4.1c0,0,0,0,0,0c-1.1-1.1-3-1.1-4.1,0&#10;&#9;&#9;&#9;l-11.4,11.4c0,0,0,0,0,0c-1.1,1.1-1.1,3,0,4.1l5.5,5.5c-4.3,5.6-3.9,13.7,1.2,18.8c5.1,5.1,13.2,5.5,18.8,1.2l5.5,5.5c0,0,0,0,0,0&#10;&#9;&#9;&#9;c1.1,1.1,3,1.1,4.1,0l11.4-11.4c0,0,0,0,0,0c1.1-1.1,1.1-3,0-4.1l-4.2-4.2l16.6-16.6c1.1-1.1,1.1-2.9,0-4c-1.1-1.1-2.9-1.1-4,0&#10;&#9;&#9;&#9;L88,221l-14.8-14.8l23-23l33.8,33.8c1.1,1.1,3,1.1,4.1,0l11.8-11.7c0,0,0,0,0,0c1.1-1.1,1.1-3,0-4.1l-7.1-7.1l90.4-90.4&#10;&#9;&#9;&#9;c1.4-1.4,2.4-3.3,2.7-5.3l6.1-38.4C238.1,59,237.8,58,237.2,57.4z M61.9,234.9c-3.9-2.5-5.1-7.7-2.6-11.6l11.7,11.7&#10;&#9;&#9;&#9;C68.1,236.6,64.6,236.6,61.9,234.9z M82.7,238.4l-27-27l7.3-7.3l27,27L82.7,238.4z M139.6,203.1l-7.6,7.6l-48.6-48.5l7.6-7.6&#10;&#9;&#9;&#9;L139.6,203.1z" id="el_icZz3lW7t5"/>
		<g id="el_i2LYPhgotW">
			<path d="M226.1,97.3c-0.1,0.8-0.5,1.5-1.1,2.1l-90.4,90.4l-30.3-30.3l91.4-91.4c0.6-0.6,1.4-1,2.2-1.1l33.7-4.3&#10;&#9;&#9;&#9;&#9;L226.1,97.3z" id="el_w9u9EQcKL1"/>
			<g id="el_fJuhYp1PAh">
				<path d="M157.4,132.7L116,174.1c0,0,0,0,0,0c-1.1,1.1-1.1,3,0,4.1c1.1,1.1,2.9,1.1,4,0l41.4-41.3c1.1-1.1,1.1-3,0-4.1&#10;&#9;&#9;&#9;&#9;&#9;C160.3,131.6,158.5,131.6,157.4,132.7z" id="el_ogb6VfEE-6"/>
				<path d="M174.8,116.1l-9.8,9.8c0,0,0,0,0,0c-1.1,1.1-1.1,3,0,4.1c0,0,0,0,0,0c1.2,1.1,3,1.1,4.1,0l9.7-9.8c1.1-1.1,1.1-3,0-4.1&#10;&#9;&#9;&#9;&#9;&#9;C177.8,115,175.9,115,174.8,116.1z" id="el_X2k22qFfT4"/>
				<path d="M210.6,84.4c-1.1-1.1-2.8-1.1-3.9,0l-25.2,25.2c-1.1,1.1-1.1,2.8,0,3.9c0,0,0,0,0,0c1.1,1.1,2.8,1.1,3.9,0l25.2-25.2&#10;&#9;&#9;&#9;&#9;&#9;C211.7,87.2,211.7,85.5,210.6,84.4z" id="el_GL-Z9TurRP"/>
			</g>
		</g>
	</g>
</g></g></g>
</svg>