<svg id="Capa_1" data-name="Capa 1" xmlns="http://www.w3.org/2000/svg" xmlns:xlink="http://www.w3.org/1999/xlink" viewBox="0 0 23.17 23.17"><defs><style>.cls-1{fill:none;}.cls-2{clip-path:url(#clip-path);}.cls-3{fill:#ffa502;}</style><clipPath id="clip-path"><rect class="cls-1" x="-1065.57" y="52.54" width="1010.95" height="626.13"/></clipPath></defs><title>telefono</title><path d="M17.74,22.06a5.43,5.43,0,0,1-1.95-.36A11.82,11.82,0,0,1,14,21a13.45,13.45,0,0,1-2.91-2,44.07,44.07,0,0,1-3.57-3.42A48,48,0,0,1,4.1,11.83a12.82,12.82,0,0,1-2-2.95,11.55,11.55,0,0,1-.67-1.81,5.13,5.13,0,0,1-.24-2.44,5.34,5.34,0,0,1,.71-2A3.33,3.33,0,0,1,3.28,1.43a3.29,3.29,0,0,1,1.83-.3,5.42,5.42,0,0,1,1.74.43,5.49,5.49,0,0,1,1.58,1l.08.08L10,5.26A2.52,2.52,0,0,1,10.31,7a2.68,2.68,0,0,1-.83,1.57,5.62,5.62,0,0,1-1.07.7,4.1,4.1,0,0,1-.48.21l2.54,2.3c.76.8,1.48,1.59,2.18,2.38.34.39.68.77,1,1.16a4.44,4.44,0,0,1,.24-.49,5.13,5.13,0,0,1,.74-1A2.64,2.64,0,0,1,18,13.41l2.56,1.5.07.08A5.42,5.42,0,0,1,22,18.35a3.24,3.24,0,0,1-.38,1.78,3.12,3.12,0,0,1-1.28,1.27,5.18,5.18,0,0,1-2,.63A4.93,4.93,0,0,1,17.74,22.06ZM4.71,2.51a1.81,1.81,0,0,0-.81.19,1.75,1.75,0,0,0-.75.68,3.79,3.79,0,0,0-.53,1.45,4,4,0,0,0,.19,1.82,12.13,12.13,0,0,0,.6,1.64,11.82,11.82,0,0,0,1.77,2.64,45.58,45.58,0,0,0,3.37,3.63A47.07,47.07,0,0,0,12,17.9a12.17,12.17,0,0,0,2.63,1.83,10.08,10.08,0,0,0,1.6.64,4.19,4.19,0,0,0,1.9.26,4,4,0,0,0,1.5-.46,1.92,1.92,0,0,0,.71-.72,1.69,1.69,0,0,0,.21-1,4.21,4.21,0,0,0-.28-1.34h0a4,4,0,0,0-.66-1.1L17.24,14.6a1.45,1.45,0,0,0-.84-.21,1.32,1.32,0,0,0-.75.36,3.9,3.9,0,0,0-.52.72,3.29,3.29,0,0,0-.32.78l-.16.54L13,16.71l-.19-.23L11.6,15c-.7-.77-1.41-1.55-2.12-2.3L6.45,10l0-1.6L7,8.25A3.34,3.34,0,0,0,7.78,8a3.68,3.68,0,0,0,.77-.51,1.15,1.15,0,0,0,.37-.7A1.21,1.21,0,0,0,8.75,6L7.4,3.54A4.2,4.2,0,0,0,5,2.53Z"/><g class="cls-2"><g id="_Grupo_" data-name="&lt;Grupo&gt;"><path id="_Trazado_" data-name="&lt;Trazado&gt;" class="cls-3" d="M17,10.8c0-1.05,1,.63.89-.3-1-.1,1.16-.92,0-1.18C17.56,9.59,16.16,11.22,17,10.8Z"/><path id="_Trazado_2" data-name="&lt;Trazado&gt;" class="cls-3" d="M17.61,12.29c-.16,0-.33.24,0,.29.6-.6.08-.79-.29-1.18C21.19,10,14.82,11.56,17.61,12.29Z"/><path id="_Trazado_3" data-name="&lt;Trazado&gt;" class="cls-3" d="M17.32,9.32c-.83-1.12,1.43.2,1.78-.6h-.89c.26-1-.46-.93-.89-1.19-.61.8-.29,1.13-.6,1.79C16.84,9.65,18.16,9.65,17.32,9.32Z"/><path id="_Trazado_4" data-name="&lt;Trazado&gt;" class="cls-3" d="M8.4,11.09c-1.1,0-2.05.14-2.08,1.2.18,0,.35,0,.29.29h.6C6.82,11.3,8.62,12.21,8.4,11.09Z"/><path id="_Trazado_5" data-name="&lt;Trazado&gt;" class="cls-3" d="M14.94,22.69c0-.31-.14-.75-.3-.29-.32,1,.44.89,1.49,1.78.06-.23,0-.59.29-.59,0,.16.24.33.3,0-.39-.73-.9.53-1.19-.31,0,.23,0-1.72-.3-1.18C15.17,22.33,15.22,22.68,14.94,22.69Z"/><path id="_Trazado_6" data-name="&lt;Trazado&gt;" class="cls-3" d="M17.91,14.67c-.12-1.59.24-.84,1.19-1.19-.46.72,1,.87.89.29C19.22,12.9,16.71,13.08,17.91,14.67Z"/></g></g></svg>