<svg id="Capa_1" data-name="Capa 1" xmlns="http://www.w3.org/2000/svg" xmlns:xlink="http://www.w3.org/1999/xlink" viewBox="0 0 23.17 23.17"><defs><style>.cls-1{fill:none;}.cls-2{clip-path:url(#clip-path);}.cls-3{fill:#ffa502;}</style><clipPath id="clip-path"><rect class="cls-1" x="-1065.57" y="52.54" width="1010.95" height="626.13"/></clipPath></defs><title>twitter</title><path d="M3.13,16.51a.65.65,0,0,1,.64-.2,6.23,6.23,0,0,0,3.62-.79l-.5-.22a3.7,3.7,0,0,1-1.87-2c-.1-.26-.11-.49.15-.64a13.07,13.07,0,0,1-.82-1A3.19,3.19,0,0,1,3.8,9.9c0-.51.06-.6.57-.62A3.71,3.71,0,0,1,4,6.07a4.77,4.77,0,0,1,.22-.52c.2-.36.43-.37.74-.08A21.55,21.55,0,0,0,7.1,7.31,8.08,8.08,0,0,0,11,8.67a9.58,9.58,0,0,1,.11-1.09A3.69,3.69,0,0,1,17,5.48a.59.59,0,0,0,.46.11c.48-.17.94-.4,1.41-.57a.67.67,0,0,1,.54,0c.09.06.1.34.05.49a6.29,6.29,0,0,1-.39.86c.33-.07.67-.33.93.07v.3c-.52.55-1.05,1.1-1.55,1.66a.6.6,0,0,0-.1.38,9.8,9.8,0,0,1-3.86,7.78,9.52,9.52,0,0,1-6.6,1.94,9.4,9.4,0,0,1-4-1.18c-.27-.14-.51-.34-.77-.51ZM4.75,6.33a2.86,2.86,0,0,0,1,3.3c.2.16.39.3.27.58s-.4.23-.63.19-.48-.08-.74-.13a2.75,2.75,0,0,0,.07.3,2.84,2.84,0,0,0,2.09,2c.21.05.46.15.4.4a.74.74,0,0,1-.42.39,4.58,4.58,0,0,1-.81.13,3,3,0,0,0,2.32,1.47.74.74,0,0,1,.48.26c.13.22-.07.38-.25.51a6.75,6.75,0,0,1-2.56,1.19l-.83.18.23.11A8.83,8.83,0,0,0,14,16.05a8.78,8.78,0,0,0,3.68-7.4A.83.83,0,0,1,18,7.82a3.51,3.51,0,0,0,.53-.47,2.94,2.94,0,0,1-.64.09c-.16,0-.43-.11-.45-.2a.73.73,0,0,1,.2-.5,5.63,5.63,0,0,1,.64-.53,3.36,3.36,0,0,0-.87.17.63.63,0,0,1-.7-.18,2.93,2.93,0,0,0-3.38-.48,3,3,0,0,0-1.54,3.15c.07.47,0,.6-.5.57A9.55,9.55,0,0,1,7.42,8.36,9.84,9.84,0,0,1,4.75,6.33Z"/><path d="M8.61,18.6c-.22,0-.45,0-.69,0A9.63,9.63,0,0,1,3.86,17.4c-.19-.11-.37-.24-.54-.36l-.24-.16,0,0v-.38l0,0a.72.72,0,0,1,.7-.23,6.12,6.12,0,0,0,3.43-.69h0l-.32-.15A3.73,3.73,0,0,1,5,13.31a.54.54,0,0,1,.1-.69l-.21-.24c-.19-.23-.39-.46-.56-.71A3.35,3.35,0,0,1,3.71,9.9c0-.51.08-.66.53-.7A3.76,3.76,0,0,1,4,6a2.73,2.73,0,0,1,.23-.52c.11-.2.23-.31.37-.33a.59.59,0,0,1,.5.22l.49.45A15,15,0,0,0,7.15,7.24,8.07,8.07,0,0,0,10.9,8.58a2.45,2.45,0,0,0,0-.27A6.15,6.15,0,0,1,11,7.56a3.7,3.7,0,0,1,2.41-2.77,3.75,3.75,0,0,1,3.67.63.49.49,0,0,0,.38.09c.25-.09.49-.19.73-.3s.45-.19.69-.27a.72.72,0,0,1,.61,0c.14.1.13.43.08.59a3,3,0,0,1-.26.59.54.54,0,0,1-.05.11h0c.26-.09.57-.2.81.16v.38l-.42.45c-.38.4-.77.82-1.15,1.24a.63.63,0,0,0-.08.32,10,10,0,0,1-3.88,7.85A9.45,9.45,0,0,1,8.61,18.6ZM3.22,16.76l.2.14a5.91,5.91,0,0,0,.52.35,9.31,9.31,0,0,0,4,1.16,9.36,9.36,0,0,0,6.55-1.92,9.77,9.77,0,0,0,3.83-7.72.64.64,0,0,1,.12-.42c.37-.42.77-.84,1.15-1.24l.37-.4V6.46c-.15-.21-.32-.17-.59-.07l-.23.07-.17,0L19,6.34l.14-.29a3,3,0,0,0,.25-.56.55.55,0,0,0,0-.4.61.61,0,0,0-.46,0l-.67.27c-.24.1-.49.21-.75.3A.66.66,0,0,1,17,5.55,3.62,3.62,0,0,0,13.47,5a3.56,3.56,0,0,0-2.3,2.65,5.47,5.47,0,0,0-.08.72l0,.36v.09H11A8.25,8.25,0,0,1,7.05,7.38,15.44,15.44,0,0,1,5.42,6l-.48-.45a.54.54,0,0,0-.36-.18c-.09,0-.17.1-.25.25a2.52,2.52,0,0,0-.22.5,3.57,3.57,0,0,0,.34,3.13l.07.12H4.38c-.47,0-.51.07-.5.53a3.26,3.26,0,0,0,.54,1.69,6.92,6.92,0,0,0,.55.69l.27.32.06.07-.09.05c-.19.11-.22.26-.11.54a3.66,3.66,0,0,0,1.82,2l.32.14.34.16-.15.08a6.25,6.25,0,0,1-3.67.79.59.59,0,0,0-.54.15Zm5.56,1.13a10.28,10.28,0,0,1-3.48-.64l-.13-.06-.11-.06L4.85,17l.54-.11.52-.11a6.8,6.8,0,0,0,2.53-1.18c.22-.15.31-.26.23-.4A.63.63,0,0,0,8.25,15a3.1,3.1,0,0,1-2.39-1.52l-.06-.1.12,0,.28,0a2.82,2.82,0,0,0,.52-.09.71.71,0,0,0,.37-.33.19.19,0,0,0,0-.13c-.06-.1-.26-.15-.32-.17a3,3,0,0,1-2.15-2,1.05,1.05,0,0,1,0-.19l0-.12,0-.13.13,0,.25,0,.49.09c.28,0,.45,0,.54-.15s0-.3-.24-.47a3,3,0,0,1-1-3.4l0-.12.09.09a9.93,9.93,0,0,0,2.65,2A9.66,9.66,0,0,0,11.3,9.36c.19,0,.32,0,.37-.07s.07-.19,0-.41A3,3,0,0,1,13.3,5.65a3,3,0,0,1,3.46.49.56.56,0,0,0,.63.16,2.86,2.86,0,0,1,.88-.17l.26,0-.2.17-.2.15a2.54,2.54,0,0,0-.43.37.61.61,0,0,0-.17.42.82.82,0,0,0,.37.13,1,1,0,0,0,.37,0l.25,0,.28,0-.21.19-.19.18a1.91,1.91,0,0,1-.36.29.77.77,0,0,0-.33.76A8.86,8.86,0,0,1,14,16.12,8.68,8.68,0,0,1,8.78,17.89Zm-3.42-.8A8.74,8.74,0,0,0,13.9,16a8.67,8.67,0,0,0,3.64-7.33.93.93,0,0,1,.41-.9,2.44,2.44,0,0,0,.32-.26,1.75,1.75,0,0,1-.39,0c-.1,0-.49-.09-.52-.27a.76.76,0,0,1,.21-.56A3.59,3.59,0,0,1,18,6.32a3.41,3.41,0,0,0-.55.14.72.72,0,0,1-.79-.2,2.86,2.86,0,0,0-4.78,2.59c.05.29,0,.45-.07.55s-.25.15-.52.13a9.8,9.8,0,0,1-3.9-1.09,9.88,9.88,0,0,1-2.6-2,2.79,2.79,0,0,0,1,3.08c.2.16.45.35.29.69s-.46.27-.7.24l-.51-.09-.13,0,0,.17a2.8,2.8,0,0,0,2,1.9.66.66,0,0,1,.43.25.35.35,0,0,1,0,.25.79.79,0,0,1-.47.44,2.14,2.14,0,0,1-.56.11l-.14,0a2.93,2.93,0,0,0,2.19,1.32.83.83,0,0,1,.54.29c.18.3-.11.52-.27.63A7.13,7.13,0,0,1,6,17l-.53.11Z"/><g class="cls-2"><g id="_Grupo_" data-name="&lt;Grupo&gt;"><path id="_Trazado_" data-name="&lt;Trazado&gt;" class="cls-3" d="M17,10.8c0-1.05,1,.63.89-.3-1-.1,1.16-.92,0-1.18C17.56,9.59,16.16,11.22,17,10.8Z"/><path id="_Trazado_2" data-name="&lt;Trazado&gt;" class="cls-3" d="M17.61,12.29c-.16,0-.33.24,0,.29.6-.6.08-.79-.29-1.18C21.19,10,14.82,11.56,17.61,12.29Z"/><path id="_Trazado_3" data-name="&lt;Trazado&gt;" class="cls-3" d="M17.32,9.32c-.83-1.12,1.43.2,1.78-.6h-.89c.26-1-.46-.93-.89-1.19-.61.8-.29,1.13-.6,1.79C16.84,9.65,18.16,9.65,17.32,9.32Z"/><path id="_Trazado_4" data-name="&lt;Trazado&gt;" class="cls-3" d="M8.4,11.09c-1.1,0-2.05.14-2.08,1.2.18,0,.35,0,.29.29h.6C6.82,11.3,8.62,12.21,8.4,11.09Z"/><path id="_Trazado_5" data-name="&lt;Trazado&gt;" class="cls-3" d="M14.94,22.69c0-.31-.14-.75-.3-.29-.32,1,.44.89,1.49,1.78.06-.23,0-.59.29-.59,0,.16.24.33.3,0-.39-.73-.9.53-1.19-.31,0,.23,0-1.72-.3-1.18C15.17,22.33,15.22,22.68,14.94,22.69Z"/><path id="_Trazado_6" data-name="&lt;Trazado&gt;" class="cls-3" d="M17.91,14.67c-.12-1.59.24-.84,1.19-1.19-.46.72,1,.87.89.29C19.22,12.9,16.71,13.08,17.91,14.67Z"/></g></g></svg>