<svg id="Capa_1" data-name="Capa 1" xmlns="http://www.w3.org/2000/svg" xmlns:xlink="http://www.w3.org/1999/xlink" viewBox="0 0 23.17 23.17"><defs><style>.cls-1{fill:none;}.cls-2{clip-path:url(#clip-path);}.cls-3{fill:#ffa502;}</style><clipPath id="clip-path"><rect class="cls-1" x="-1065.57" y="52.54" width="1010.95" height="626.13"/></clipPath></defs><title>ubicacion</title><polygon points="11.73 18.66 11.73 18.02 11.73 18.02 11.73 18.66"/><polygon points="11.73 18.02 11.73 18.66 11.73 18.02 11.73 18.02"/><path d="M11.73,11.23A3.45,3.45,0,0,0,15.36,8,3.44,3.44,0,0,0,11.73,4.8,3.43,3.43,0,0,0,8.11,8,3.44,3.44,0,0,0,11.73,11.23ZM9.56,8a2.06,2.06,0,0,1,2.17-1.92A2.06,2.06,0,0,1,13.9,8a2.06,2.06,0,0,1-2.17,1.93A2.06,2.06,0,0,1,9.56,8Z"/><polygon points="11.73 18.02 11.73 18.66 11.73 18.02 11.73 18.02 11.73 18.02"/><path d="M10.71,16.88c-.63,0-1.22,0-1.79.07l.31.35h0c1.52,1.73,1.76,2,2.49,2s1-.27,2.5-2h0l.3-.33c-.57,0-1.16-.07-1.78-.08l-.32.35a9.64,9.64,0,0,1-.7.74c-.13-.12-.38-.38-.7-.74Zm1,1.13h0v0Z"/><path d="M13.91,15.58l.29-.33c.68-.77.84-1,1.17-1.38.47-.61.91-1.24,1.33-1.9a7.11,7.11,0,0,0,1-2.12,6.4,6.4,0,0,0,.22-2.26,5.14,5.14,0,0,0-1-2.16,6.24,6.24,0,0,0-1.24-1.22,7,7,0,0,0-2.06-1,6.37,6.37,0,0,0-1.31-.3,4.5,4.5,0,0,0-.63,0,5.59,5.59,0,0,0-.91.08,6.9,6.9,0,0,0-1,.24,7.09,7.09,0,0,0-2,1A6.3,6.3,0,0,0,6.5,5.43a5.12,5.12,0,0,0-1,2.16,6.4,6.4,0,0,0,.22,2.26,7.11,7.11,0,0,0,1,2.12l.48.7c.29.44.55.81.84,1.2s.49.6,1.21,1.41l.26.3.1.11c-.57,0-1.16.06-1.75.11l-.1-.11c-.45-.51-.63-.71-.92-1.09s-.58-.81-.89-1.27l-.47-.68a8.5,8.5,0,0,1-1.19-2.49,7.65,7.65,0,0,1-.25-2.69V7.41A6.27,6.27,0,0,1,5.3,4.71a7,7,0,0,1,1.52-1.5A8.58,8.58,0,0,1,9.3,2a9.38,9.38,0,0,1,1.26-.31,7.3,7.3,0,0,1,1.14-.09,5.44,5.44,0,0,1,.81,0A7.89,7.89,0,0,1,14.19,2a8.66,8.66,0,0,1,2.46,1.24,7.41,7.41,0,0,1,1.52,1.49,6.25,6.25,0,0,1,1.2,2.7v.06a7.43,7.43,0,0,1-.26,2.69A8.11,8.11,0,0,1,18,12.63c-.42.67-.89,1.33-1.38,2-.29.38-.47.59-.91,1.09l-.12.14c-.59-.06-1.18-.1-1.75-.12Z"/><path d="M7.91,15.8l.24.28.77.87c-4.42.27-7,1.15-7.17,1.67.24.62,3.77,1.75,9.83,1.75s9.65-1.15,9.84-1.74c-.16-.5-2.61-1.37-6.89-1.66l.81-.92.2-.22c3.53.31,7.1,1.11,7.1,2.79,0,2.35-7,3-11.06,3s-11-.62-11-3C.53,16.9,4.28,16.1,7.91,15.8Z"/><path d="M10.39,16.51l.32.37c-.63,0-1.22,0-1.79.07l-.77-.87-.24-.28c.59-.05,1.18-.08,1.75-.11Z"/><path d="M14.53,17c-.57,0-1.16-.07-1.78-.08l.33-.38.71-.8c.57,0,1.16.06,1.75.12l-.2.22Z"/><g class="cls-2"><g id="_Grupo_" data-name="&lt;Grupo&gt;"><path id="_Trazado_" data-name="&lt;Trazado&gt;" class="cls-3" d="M17,10.8c0-1.05,1,.63.89-.3-1-.1,1.16-.92,0-1.18C17.56,9.59,16.16,11.22,17,10.8Z"/><path id="_Trazado_2" data-name="&lt;Trazado&gt;" class="cls-3" d="M17.61,12.29c-.16,0-.33.24,0,.29.6-.6.08-.79-.29-1.18C21.19,10,14.82,11.56,17.61,12.29Z"/><path id="_Trazado_3" data-name="&lt;Trazado&gt;" class="cls-3" d="M17.32,9.32c-.83-1.12,1.43.2,1.78-.6h-.89c.26-1-.46-.93-.89-1.19-.61.8-.29,1.13-.6,1.79C16.84,9.65,18.16,9.65,17.32,9.32Z"/><path id="_Trazado_4" data-name="&lt;Trazado&gt;" class="cls-3" d="M8.4,11.09c-1.1,0-2.05.14-2.08,1.2.18,0,.35,0,.29.29h.6C6.82,11.3,8.62,12.21,8.4,11.09Z"/><path id="_Trazado_5" data-name="&lt;Trazado&gt;" class="cls-3" d="M14.94,22.69c0-.31-.14-.75-.3-.29-.32,1,.44.89,1.49,1.78.06-.23,0-.59.29-.59,0,.16.24.33.3,0-.39-.73-.9.53-1.19-.31,0,.23,0-1.72-.3-1.18C15.17,22.33,15.22,22.68,14.94,22.69Z"/><path id="_Trazado_6" data-name="&lt;Trazado&gt;" class="cls-3" d="M17.91,14.67c-.12-1.59.24-.84,1.19-1.19-.46.72,1,.87.89.29C19.22,12.9,16.71,13.08,17.91,14.67Z"/></g></g></svg>