<svg id="Capa_1" data-name="Capa 1" xmlns="http://www.w3.org/2000/svg" viewBox="0 0 71.16 70.17"><defs><style>.cls-1{fill:#c2323b;}</style></defs><title>usuarios-red</title><path class="cls-1" d="M23.33,57.27h-18a3.31,3.31,0,0,1-2.19-.83A5.13,5.13,0,0,1,1.6,54.2,4.79,4.79,0,0,1,1.53,52,9.85,9.85,0,0,1,3,48.17c1.52-2.35,4.78-6.45,9.59-7.39a21.42,21.42,0,0,1,9.63.27,11,11,0,0,1,2.54,1.08l3.3,1.94a.75.75,0,1,1-.76,1.3L24,43.43a9.24,9.24,0,0,0-2.17-.92,19.86,19.86,0,0,0-8.95-.25C8.65,43.09,5.69,46.83,4.3,49A8.3,8.3,0,0,0,3,52.23a3.42,3.42,0,0,0,0,1.52,3.7,3.7,0,0,0,1.12,1.56,1.78,1.78,0,0,0,1.19.45h18a.76.76,0,0,1,0,1.51Z"/><path class="cls-1" d="M23.33,57.77h-18a3.77,3.77,0,0,1-2.52-1,5.7,5.7,0,0,1-1.71-2.46A5.35,5.35,0,0,1,1,51.92a10.46,10.46,0,0,1,1.58-4c1.56-2.42,4.92-6.63,9.91-7.61a22,22,0,0,1,9.86.28A10.59,10.59,0,0,1,25,41.7l3.31,1.94a1.25,1.25,0,0,1-1.27,2.16l-3.31-1.93a8.39,8.39,0,0,0-2-.88A19.37,19.37,0,0,0,13,42.75c-4.07.8-6.94,4.42-8.28,6.51a7.86,7.86,0,0,0-1.21,3.05,2.93,2.93,0,0,0,0,1.29,3.32,3.32,0,0,0,1,1.34,1.32,1.32,0,0,0,.86.32h18a1.26,1.26,0,0,1,0,2.51ZM16.87,40.86a21.18,21.18,0,0,0-4.16.41c-4.62.9-7.79,4.88-9.26,7.18A9.54,9.54,0,0,0,2,52.08a4.52,4.52,0,0,0,0,2,4.81,4.81,0,0,0,1.42,2,2.81,2.81,0,0,0,1.86.7h18a.26.26,0,0,0,.25-.26.25.25,0,0,0-.25-.25h-18a2.33,2.33,0,0,1-1.53-.58A4.26,4.26,0,0,1,2.56,53.9a3.93,3.93,0,0,1,0-1.74,9,9,0,0,1,1.36-3.44c1.43-2.22,4.49-6.08,8.93-6.95A20.56,20.56,0,0,1,22,42a9.47,9.47,0,0,1,2.29,1l3.3,1.94a.26.26,0,1,0,.26-.44l-3.3-1.94a10.36,10.36,0,0,0-2.42-1A20.55,20.55,0,0,0,16.87,40.86Z"/><path class="cls-1" d="M17.33,41.69a7.91,7.91,0,1,1,7.9-7.91A7.92,7.92,0,0,1,17.33,41.69Zm0-14.31a6.4,6.4,0,1,0,6.4,6.4A6.41,6.41,0,0,0,17.33,27.38Z"/><path class="cls-1" d="M17.33,42.19a8.41,8.41,0,1,1,8.4-8.41A8.42,8.42,0,0,1,17.33,42.19Zm0-15.82a7.41,7.41,0,1,0,7.4,7.41A7.42,7.42,0,0,0,17.33,26.37Zm0,14.31a6.9,6.9,0,1,1,6.9-6.9A6.9,6.9,0,0,1,17.33,40.68Zm0-12.8a5.9,5.9,0,1,0,5.9,5.9A5.9,5.9,0,0,0,17.33,27.88Z"/><path class="cls-1" d="M29.18,57.27h-18a.76.76,0,0,1,0-1.51h18a1.82,1.82,0,0,0,1.2-.45,3.88,3.88,0,0,0,1.12-1.56,3.61,3.61,0,0,0,0-1.52A8.3,8.3,0,0,0,30.23,49c-1.38-2.16-4.35-5.9-8.61-6.73a19.81,19.81,0,0,0-8.94.25,9.24,9.24,0,0,0-2.17.92L7.2,45.37a.75.75,0,0,1-.76-1.3l3.3-1.94a11,11,0,0,1,2.54-1.08,21.45,21.45,0,0,1,9.63-.27c4.81.94,8.07,5,9.59,7.39A9.85,9.85,0,0,1,33,52a4.79,4.79,0,0,1-.07,2.2,5.19,5.19,0,0,1-1.55,2.24A3.36,3.36,0,0,1,29.18,57.27Z"/><path class="cls-1" d="M29.18,57.77h-18a1.26,1.26,0,0,1,0-2.51h18a1.32,1.32,0,0,0,.86-.32,3.23,3.23,0,0,0,1-1.34,2.93,2.93,0,0,0,0-1.29,7.86,7.86,0,0,0-1.21-3.05c-1.34-2.09-4.21-5.71-8.28-6.51a19.31,19.31,0,0,0-8.72.24,8.29,8.29,0,0,0-2.05.88L7.46,45.8a1.25,1.25,0,1,1-1.27-2.16l3.3-1.94a10.59,10.59,0,0,1,2.66-1.13A22,22,0,0,1,22,40.29c5,1,8.35,5.19,9.91,7.61a10.46,10.46,0,0,1,1.58,4,5.35,5.35,0,0,1-.09,2.43,5.69,5.69,0,0,1-1.7,2.46A3.8,3.8,0,0,1,29.18,57.77Zm-18-1.51a.25.25,0,0,0-.25.25.26.26,0,0,0,.25.26h18a2.81,2.81,0,0,0,1.86-.7,4.75,4.75,0,0,0,1.42-2,4.37,4.37,0,0,0,0-2,9.47,9.47,0,0,0-1.43-3.63c-1.47-2.3-4.64-6.28-9.26-7.18a21.09,21.09,0,0,0-9.41.26,10.29,10.29,0,0,0-2.41,1L6.69,44.5a.26.26,0,0,0-.09.35.28.28,0,0,0,.16.12.26.26,0,0,0,.19,0L10.25,43a9.47,9.47,0,0,1,2.29-1,20.58,20.58,0,0,1,9.18-.25c4.44.87,7.5,4.73,8.93,6.95A9,9,0,0,1,32,52.16a3.93,3.93,0,0,1,0,1.74,4.27,4.27,0,0,1-1.26,1.79,2.35,2.35,0,0,1-1.53.57Z"/><path class="cls-1" d="M24.81,34a.73.73,0,0,1-.52-.21.76.76,0,0,1,0-1.07,18.49,18.49,0,0,1,7.31-4.51,19.48,19.48,0,0,1,9.77.27c.23.06.45.14.68.22a21.47,21.47,0,0,1,3,1.51,12.91,12.91,0,0,1,2.28,1.95.75.75,0,0,1-1.11,1,11.59,11.59,0,0,0-1.92-1.67,20.48,20.48,0,0,0-2.77-1.39,5.62,5.62,0,0,0-.58-.19A18.12,18.12,0,0,0,32,29.61a17.25,17.25,0,0,0-6.66,4.11A.76.76,0,0,1,24.81,34Z"/><path class="cls-1" d="M24.81,34.45a1.25,1.25,0,0,1-1.25-1.23,1.18,1.18,0,0,1,.35-.89,19,19,0,0,1,7.53-4.64A19.93,19.93,0,0,1,41.49,28l.71.23a22,22,0,0,1,3.07,1.54,13.14,13.14,0,0,1,2.39,2,1.26,1.26,0,1,1-1.83,1.72A10.42,10.42,0,0,0,44,31.9a18.39,18.39,0,0,0-2.69-1.36l-.55-.19a17.59,17.59,0,0,0-8.63-.26,16.72,16.72,0,0,0-6.44,4A1.27,1.27,0,0,1,24.81,34.45Zm11.06-6.28a16.35,16.35,0,0,0-4.14.47A18,18,0,0,0,24.63,33a.2.2,0,0,0-.07.18.24.24,0,0,0,.07.18.26.26,0,0,0,.36,0,17.92,17.92,0,0,1,6.88-4.24,18.62,18.62,0,0,1,9.19.27,6.4,6.4,0,0,1,.62.2A20.42,20.42,0,0,1,44.52,31a12.64,12.64,0,0,1,2,1.76.25.25,0,0,0,.36,0,.24.24,0,0,0,0-.35,11.42,11.42,0,0,0-2.16-1.86,20.46,20.46,0,0,0-2.92-1.47c-.21-.08-.43-.15-.64-.21A19.1,19.1,0,0,0,35.87,28.17Z"/><path class="cls-1" d="M36.35,28.72a7.91,7.91,0,1,1,7.91-7.91A7.92,7.92,0,0,1,36.35,28.72Zm0-14.31a6.4,6.4,0,1,0,6.4,6.4A6.41,6.41,0,0,0,36.35,14.41Z"/><path class="cls-1" d="M36.35,29.22a8.41,8.41,0,1,1,8.41-8.41A8.43,8.43,0,0,1,36.35,29.22Zm0-15.82a7.41,7.41,0,1,0,7.41,7.41A7.42,7.42,0,0,0,36.35,13.4Zm0,14.31a6.9,6.9,0,1,1,6.9-6.9A6.91,6.91,0,0,1,36.35,27.71Zm0-12.8a5.9,5.9,0,1,0,5.9,5.9A5.9,5.9,0,0,0,36.35,14.91Z"/><path class="cls-1" d="M60,57.27H42a3.32,3.32,0,0,1-2.2-.83,5.29,5.29,0,0,1-1.56-2.24,5.08,5.08,0,0,1-.07-2.2,10,10,0,0,1,1.51-3.83c1.51-2.35,4.78-6.45,9.58-7.39a21.48,21.48,0,0,1,9.64.27,10.71,10.71,0,0,1,2.53,1.08l3.31,1.94a.75.75,0,0,1,.27,1,.76.76,0,0,1-1,.27l-3.3-1.94a9.24,9.24,0,0,0-2.17-.92,19.85,19.85,0,0,0-8.95-.25c-4.25.83-7.22,4.57-8.61,6.73a8.61,8.61,0,0,0-1.28,3.24,3.58,3.58,0,0,0,0,1.52,3.7,3.7,0,0,0,1.12,1.56,1.8,1.8,0,0,0,1.2.45H60a.76.76,0,0,1,0,1.51Z"/><path class="cls-1" d="M60,57.77H42a3.78,3.78,0,0,1-2.53-1,5.69,5.69,0,0,1-1.7-2.46,5.35,5.35,0,0,1-.09-2.43,10.6,10.6,0,0,1,1.57-4c1.57-2.42,4.93-6.63,9.92-7.61a22,22,0,0,1,9.86.28,10.74,10.74,0,0,1,2.66,1.13L65,43.64A1.25,1.25,0,1,1,63.7,45.8l-3.3-1.93a8.29,8.29,0,0,0-2-.88,19.32,19.32,0,0,0-8.72-.24c-4.08.8-6.94,4.42-8.29,6.51a8,8,0,0,0-1.2,3.05,2.93,2.93,0,0,0,0,1.29,3.3,3.3,0,0,0,1,1.34,1.35,1.35,0,0,0,.87.32H60a1.26,1.26,0,0,1,0,2.51ZM53.5,40.86a21.18,21.18,0,0,0-4.16.41c-4.63.9-7.79,4.88-9.26,7.18a9.17,9.17,0,0,0-1.43,3.63,4.37,4.37,0,0,0,.05,2,4.8,4.8,0,0,0,1.41,2,2.83,2.83,0,0,0,1.87.7H60a.26.26,0,0,0,.25-.26.25.25,0,0,0-.25-.25H42a2.31,2.31,0,0,1-1.53-.58,4.19,4.19,0,0,1-1.27-1.78,4.11,4.11,0,0,1,0-1.74,8.86,8.86,0,0,1,1.35-3.44c1.43-2.22,4.5-6.08,8.94-6.95a20.52,20.52,0,0,1,9.17.25,9.3,9.3,0,0,1,2.29,1l3.31,1.94a.25.25,0,0,0,.34-.09.25.25,0,0,0-.09-.35l-3.3-1.94a10.47,10.47,0,0,0-2.41-1A20.62,20.62,0,0,0,53.5,40.86Z"/><path class="cls-1" d="M54,41.69a7.91,7.91,0,1,1,7.91-7.91A7.92,7.92,0,0,1,54,41.69Zm0-14.31a6.4,6.4,0,1,0,6.4,6.4A6.41,6.41,0,0,0,54,27.38Z"/><path class="cls-1" d="M54,42.19a8.41,8.41,0,1,1,8.41-8.41A8.42,8.42,0,0,1,54,42.19Zm0-15.82a7.41,7.41,0,1,0,7.41,7.41A7.43,7.43,0,0,0,54,26.37Zm0,14.31a6.9,6.9,0,1,1,6.9-6.9A6.91,6.91,0,0,1,54,40.68Zm0-12.8a5.9,5.9,0,1,0,5.9,5.9A5.91,5.91,0,0,0,54,27.88Z"/><path class="cls-1" d="M65.8,57.27h-18a.76.76,0,1,1,0-1.51h18a1.79,1.79,0,0,0,1.2-.45,3.7,3.7,0,0,0,1.12-1.56,3.58,3.58,0,0,0,0-1.52A8.61,8.61,0,0,0,66.86,49c-1.39-2.16-4.35-5.9-8.61-6.73a19.85,19.85,0,0,0-9,.25,9.24,9.24,0,0,0-2.17.92l-3.3,1.94a.76.76,0,0,1-.77-1.3l3.31-1.94a10.89,10.89,0,0,1,2.53-1.08,21.48,21.48,0,0,1,9.64-.27c4.81.94,8.07,5,9.59,7.39A10,10,0,0,1,69.63,52a4.93,4.93,0,0,1-.07,2.2A5.29,5.29,0,0,1,68,56.44,3.32,3.32,0,0,1,65.8,57.27Z"/><path class="cls-1" d="M65.8,57.77h-18a1.26,1.26,0,1,1,0-2.51h18a1.33,1.33,0,0,0,.87-.32,3.3,3.3,0,0,0,1-1.34,3,3,0,0,0,0-1.29,8,8,0,0,0-1.21-3.05c-1.35-2.09-4.21-5.71-8.29-6.51a19.33,19.33,0,0,0-8.72.24,8.63,8.63,0,0,0-2,.88l-3.3,1.93a1.26,1.26,0,0,1-1.72-.45,1.27,1.27,0,0,1,.45-1.71l3.3-1.94a10.74,10.74,0,0,1,2.66-1.13,22,22,0,0,1,9.87-.28c5,1,8.35,5.19,9.91,7.61a10.44,10.44,0,0,1,1.57,4A5.51,5.51,0,0,1,70,54.35a5.7,5.7,0,0,1-1.71,2.46A3.78,3.78,0,0,1,65.8,57.77Zm-18-1.51a.26.26,0,0,0-.26.25.26.26,0,0,0,.26.26h18a2.81,2.81,0,0,0,1.87-.7,4.8,4.8,0,0,0,1.41-2,4.37,4.37,0,0,0,0-2,9.29,9.29,0,0,0-1.42-3.63c-1.48-2.3-4.64-6.28-9.27-7.18a21.06,21.06,0,0,0-9.4.26,10.36,10.36,0,0,0-2.42,1l-3.3,1.94a.26.26,0,0,0-.09.35.26.26,0,0,0,.15.12.28.28,0,0,0,.2,0L46.88,43a9.47,9.47,0,0,1,2.29-1,20.56,20.56,0,0,1,9.18-.25c4.43.87,7.5,4.73,8.93,6.95a8.92,8.92,0,0,1,1.35,3.44,4,4,0,0,1,0,1.74,4.19,4.19,0,0,1-1.27,1.78,2.31,2.31,0,0,1-1.53.58Z"/></svg>