<svg id="Capa_1" data-name="Capa 1" xmlns="http://www.w3.org/2000/svg" viewBox="0 0 71.16 70.17"><defs><style>.cls-1{fill:#ffff;}</style></defs><title>usuarios</title><path class="cls-1" d="M23.33,57.27h-18a3.31,3.31,0,0,1-2.19-.83A5.13,5.13,0,0,1,1.6,54.2,4.79,4.79,0,0,1,1.53,52,9.85,9.85,0,0,1,3,48.17c1.52-2.35,4.78-6.45,9.59-7.39a21.42,21.42,0,0,1,9.63.27,11,11,0,0,1,2.54,1.08l3.3,1.94a.75.75,0,1,1-.76,1.3L24,43.43a9.24,9.24,0,0,0-2.17-.92,19.86,19.86,0,0,0-8.95-.25C8.65,43.09,5.69,46.83,4.3,49A8.3,8.3,0,0,0,3,52.23a3.42,3.42,0,0,0,0,1.52,3.7,3.7,0,0,0,1.12,1.56,1.78,1.78,0,0,0,1.19.45h18a.76.76,0,0,1,0,1.51Z"/><path class="cls-1" d="M17.33,41.69a7.91,7.91,0,1,1,7.9-7.91A7.92,7.92,0,0,1,17.33,41.69Zm0-14.31a6.4,6.4,0,1,0,6.4,6.4A6.41,6.41,0,0,0,17.33,27.38Z"/><path class="cls-1" d="M29.18,57.27h-18a.76.76,0,0,1,0-1.51h18a1.82,1.82,0,0,0,1.2-.45,3.88,3.88,0,0,0,1.12-1.56,3.61,3.61,0,0,0,0-1.52A8.3,8.3,0,0,0,30.23,49c-1.38-2.16-4.35-5.9-8.61-6.73a19.81,19.81,0,0,0-8.94.25,9.24,9.24,0,0,0-2.17.92L7.2,45.37a.75.75,0,0,1-.76-1.3l3.3-1.94a11,11,0,0,1,2.54-1.08,21.45,21.45,0,0,1,9.63-.27c4.81.94,8.07,5,9.59,7.39A9.85,9.85,0,0,1,33,52a4.79,4.79,0,0,1-.07,2.2,5.19,5.19,0,0,1-1.55,2.24A3.36,3.36,0,0,1,29.18,57.27Z"/><path class="cls-1" d="M24.81,34a.73.73,0,0,1-.52-.21.76.76,0,0,1,0-1.07,18.49,18.49,0,0,1,7.31-4.51,19.48,19.48,0,0,1,9.77.27c.23.06.45.14.68.22a21.47,21.47,0,0,1,3,1.51,12.91,12.91,0,0,1,2.28,1.95.75.75,0,0,1-1.11,1,11.59,11.59,0,0,0-1.92-1.67,20.48,20.48,0,0,0-2.77-1.39,5.62,5.62,0,0,0-.58-.19A18.12,18.12,0,0,0,32,29.61a17.25,17.25,0,0,0-6.66,4.11A.76.76,0,0,1,24.81,34Z"/><path class="cls-1" d="M36.35,28.72a7.91,7.91,0,1,1,7.91-7.91A7.92,7.92,0,0,1,36.35,28.72Zm0-14.31a6.4,6.4,0,1,0,6.4,6.4A6.41,6.41,0,0,0,36.35,14.41Z"/><path class="cls-1" d="M60,57.27H42a3.32,3.32,0,0,1-2.2-.83,5.29,5.29,0,0,1-1.56-2.24,5.08,5.08,0,0,1-.07-2.2,10,10,0,0,1,1.51-3.83c1.51-2.35,4.78-6.45,9.58-7.39a21.48,21.48,0,0,1,9.64.27,10.71,10.71,0,0,1,2.53,1.08l3.31,1.94a.75.75,0,0,1,.27,1,.76.76,0,0,1-1,.27l-3.3-1.94a9.24,9.24,0,0,0-2.17-.92,19.85,19.85,0,0,0-8.95-.25c-4.25.83-7.22,4.57-8.61,6.73a8.61,8.61,0,0,0-1.28,3.24,3.58,3.58,0,0,0,0,1.52,3.7,3.7,0,0,0,1.12,1.56,1.8,1.8,0,0,0,1.2.45H60a.76.76,0,0,1,0,1.51Z"/><path class="cls-1" d="M54,41.69a7.91,7.91,0,1,1,7.91-7.91A7.92,7.92,0,0,1,54,41.69Zm0-14.31a6.4,6.4,0,1,0,6.4,6.4A6.41,6.41,0,0,0,54,27.38Z"/><path class="cls-1" d="M65.8,57.27h-18a.76.76,0,1,1,0-1.51h18a1.79,1.79,0,0,0,1.2-.45,3.7,3.7,0,0,0,1.12-1.56,3.58,3.58,0,0,0,0-1.52A8.61,8.61,0,0,0,66.86,49c-1.39-2.16-4.35-5.9-8.61-6.73a19.85,19.85,0,0,0-9,.25,9.24,9.24,0,0,0-2.17.92l-3.3,1.94a.76.76,0,0,1-.77-1.3l3.31-1.94a10.89,10.89,0,0,1,2.53-1.08,21.48,21.48,0,0,1,9.64-.27c4.81.94,8.07,5,9.59,7.39A10,10,0,0,1,69.63,52a4.93,4.93,0,0,1-.07,2.2A5.29,5.29,0,0,1,68,56.44,3.32,3.32,0,0,1,65.8,57.27Z"/></svg>
