<svg id="Capa_1" data-name="Capa 1" xmlns="http://www.w3.org/2000/svg" viewBox="0 0 303.91 303.91"><title>about-me</title><path d="M52.09,193a8.67,8.67,0,0,0,0,17.34Z"/><path d="M52.09,213.29H52A11.65,11.65,0,0,1,52,190a2.94,2.94,0,0,1,2.17.84,3,3,0,0,1,.9,2.14v17.34a3,3,0,0,1-3,3Zm-3-16.35a5.69,5.69,0,0,0,0,9.4Z"/><path d="M87,212.17A10.53,10.53,0,1,1,97.5,201.64,10.54,10.54,0,0,1,87,212.17Zm0-15.09a4.56,4.56,0,1,0,4.56,4.56A4.56,4.56,0,0,0,87,197.08Z"/><path d="M129.75,212.17a10.53,10.53,0,1,1,10.53-10.53A10.54,10.54,0,0,1,129.75,212.17Zm0-15.09a4.56,4.56,0,1,0,4.56,4.56A4.57,4.57,0,0,0,129.75,197.08Z"/><path d="M172.52,212.17a10.53,10.53,0,1,1,10.53-10.53A10.54,10.54,0,0,1,172.52,212.17Zm0-15.09a4.56,4.56,0,1,0,4.57,4.56A4.57,4.57,0,0,0,172.52,197.08Z"/><path d="M215.29,212.17a10.53,10.53,0,1,1,10.53-10.53A10.54,10.54,0,0,1,215.29,212.17Zm0-15.09a4.56,4.56,0,1,0,4.57,4.56A4.57,4.57,0,0,0,215.29,197.08Z"/><path d="M245.17,141.77q-1.65,2.1-3.55,4.1A96,96,0,0,0,220.7,113.7c2.29-1,4.69-1.92,7.19-2.84,5.77-2.12,12.31-4.52,18.69-9.5a129.86,129.86,0,0,0,12.81-11.62,92.65,92.65,0,0,1-3.75,31.8,2.94,2.94,0,0,0,.74,3l0,0a3,3,0,0,0,4.89-1.22c5.2-16.47,4.42-32.69,3.45-41.09a3,3,0,0,0-5.24-1.58c-.54.65-1.34,1.57-2.32,2.66a130.36,130.36,0,0,1-14.28,13.28c-5.65,4.4-11.47,6.54-17.09,8.61a73.2,73.2,0,0,0-11.67,5.09,3,3,0,0,0-1.47,2.24,3,3,0,0,0,.92,2.51,89.74,89.74,0,0,1,23.94,37.05,3,3,0,0,0,2.06,1.94,2.86,2.86,0,0,0,.77.1,3,3,0,0,0,2-.76c.42-.37.83-.75,1.23-1.13a62.86,62.86,0,0,0,6.23-6.82,3,3,0,0,0-.32-4.05l0,0A2.94,2.94,0,0,0,245.17,141.77Z"/><path d="M151.14,161.8a10.53,10.53,0,1,1,10.52-10.53A10.54,10.54,0,0,1,151.14,161.8Zm0-15.09a4.56,4.56,0,1,0,4.56,4.56A4.57,4.57,0,0,0,151.14,146.71Z"/><path d="M151.14,120.42a10.53,10.53,0,1,1,10.52-10.53A10.54,10.54,0,0,1,151.14,120.42Zm0-15.09a4.56,4.56,0,1,0,4.56,4.56A4.57,4.57,0,0,0,151.14,105.33Z"/><path d="M174,81.87a8.24,8.24,0,0,0-5.4-2.38,76.05,76.05,0,0,0-34.86,0,8.19,8.19,0,0,0-7.81,8.16v63.46l6,0V87.65a2.23,2.23,0,0,1,2.24-2.21,3.25,3.25,0,0,0,.69-.08,70.34,70.34,0,0,1,15.6-1.93,71.71,71.71,0,0,1,17.1,1.93,3.17,3.17,0,0,0,.69.08,2.31,2.31,0,0,1,1.57.65,2.21,2.21,0,0,1,.66,1.56v89.19H131.86v-9a8.37,8.37,0,0,1-1.93.25h-4v11.68a3,3,0,0,0,3,3h44.51a3,3,0,0,0,3-3V87.65A8.28,8.28,0,0,0,174,81.87Z"/><path d="M125.9,168.86v7.25a.73.73,0,0,1-.73.73H61.24a.75.75,0,0,1-.74-.77c1.28-35.49,24.63-59.28,27.36-61.94a97.69,97.69,0,0,1,37.08-22,.75.75,0,0,1,1,.71v57.54a.73.73,0,0,0,.73.73l4.5,0a.72.72,0,0,0,.73-.73V87.93a3,3,0,0,0-3.7-2.89A101.42,101.42,0,0,0,83.7,109.86h0c-3,2.92-29.2,29.64-29.2,69.24h0a3.8,3.8,0,0,0,3.78,3.7h69.88a3.71,3.71,0,0,0,3.71-3.71V168.8a.72.72,0,0,0-.74-.73l-4.49.06A.73.73,0,0,0,125.9,168.86Z"/><path d="M244.79,182.8h-71.4a3,3,0,0,1-3-3V88.92a3,3,0,0,1,3.8-2.87c35.44,10.08,73.58,43.5,73.58,93.05l0,.72A3,3,0,0,1,244.79,182.8Zm-68.42-6H241.8c-1.1-43.47-33.75-73.36-65.43-83.89Z"/><path d="M250.19,193v17.39a8.7,8.7,0,0,0,0-17.39Z"/><path d="M250.19,213.32a3,3,0,0,1-3-3V193a3,3,0,0,1,3-3,11.68,11.68,0,0,1,0,23.35Zm3-16.55v9.75a5.72,5.72,0,0,0,0-9.75Z"/><path d="M242.29,176.84H60a10.87,10.87,0,0,0-10.87,10.87v27.86A10.87,10.87,0,0,0,60,226.44H186.21a3,3,0,0,0,2.95-3v-.06a3,3,0,0,0-2.95-2.93H60a4.91,4.91,0,0,1-4.91-4.91V187.71A4.91,4.91,0,0,1,60,182.8H242.29a4.92,4.92,0,0,1,4.92,4.92v27.85a4.91,4.91,0,0,1-4.92,4.91H231.81a3,3,0,0,0-2.95,3v.06a3,3,0,0,0,2.95,2.95h10.48a10.88,10.88,0,0,0,10.88-10.87V187.71A10.88,10.88,0,0,0,242.29,176.84Z"/><path d="M217.14,226.44h-8a3,3,0,0,1-3-2.95h0a3,3,0,0,1,3-3h8a3,3,0,0,1,3,3h0A3,3,0,0,1,217.14,226.44Z"/><path d="M125.9,150.7v-8a3,3,0,0,1,3-3h0a3,3,0,0,1,3,3v8a3,3,0,0,1-3,3h0A3,3,0,0,1,125.9,150.7Z"/><path d="M125.9,176.35v-8a3,3,0,0,1,3-3h0a3,3,0,0,1,3,3v8a3,3,0,0,1-3,3h0A3,3,0,0,1,125.9,176.35Z"/><path d="M87.36,109.08a89.68,89.68,0,0,0-9.28-3.81l-.51-.19a3,3,0,0,0-3.83,1.75l0,.08a3,3,0,0,0,1.78,3.76l.53.2c1.7.62,3.34,1.23,4.94,1.87a109.87,109.87,0,0,0-19.76,32c-15.66-17.39-17.37-40.85-16.68-55a129.36,129.36,0,0,0,13,11.81h0c.71-2,1.46-3.89,2.23-5.82a132.09,132.09,0,0,1-13.1-12.35c-1-1.09-1.78-2-2.33-2.66a3,3,0,0,0-5.24,1.58c-1.57,13.55-2.66,47.49,21.15,70a3,3,0,0,0,4.89-1.18,100.49,100.49,0,0,1,22.74-37.06l.18-.17a3,3,0,0,0-.75-4.81Z"/><path d="M63.92,98.76A81.72,81.72,0,0,1,52.54,89.4l-8.38-.1a91.47,91.47,0,0,0,16.48,14.44,3,3,0,0,0,4.58-2.08v-.07A3,3,0,0,0,63.92,98.76Z"/></svg>