<svg id="Capa_1" data-name="Capa 1" xmlns="http://www.w3.org/2000/svg" xmlns:xlink="http://www.w3.org/1999/xlink" viewBox="0 0 23.17 23.17"><defs><style>.cls-1{fill:none;}.cls-2{clip-path:url(#clip-path);}.cls-3{fill:#ffa502;}</style><clipPath id="clip-path"><rect class="cls-1" x="-1065.57" y="52.54" width="1010.95" height="626.13"/></clipPath></defs><title>behance</title><g id="_Grupo_" data-name="&lt;Grupo&gt;"><g id="_Grupo_2" data-name="&lt;Grupo&gt;"><path d="M9.48,16.25a2.78,2.78,0,0,0,1.12-.49,2.73,2.73,0,0,0,.69-.78,2.82,2.82,0,0,0,.44-1.57A2.62,2.62,0,0,0,11.35,12a2.2,2.2,0,0,0-1.14-.87,2.44,2.44,0,0,0,.75-.56,2.17,2.17,0,0,0,.46-1.45A2.52,2.52,0,0,0,11,7.58a3,3,0,0,0-2.56-1H3.65v9.84H8.09A6.7,6.7,0,0,0,9.48,16.25Zm-3.86-8H7.76a3.87,3.87,0,0,1,1.17.15.88.88,0,0,1,.52.91.92.92,0,0,1-.4.86,1.88,1.88,0,0,1-1,.25H5.62Zm0,6.42V12.05H8a2.58,2.58,0,0,1,1,.16,1.06,1.06,0,0,1,.62,1.06A1.23,1.23,0,0,1,9,14.5a2.28,2.28,0,0,1-1,.17Z"/></g><g id="_Grupo_3" data-name="&lt;Grupo&gt;"><g id="_Grupo_4" data-name="&lt;Grupo&gt;"><path d="M13.4,15.73a4,4,0,0,0,2.57.9,3.51,3.51,0,0,0,2.73-1.06,2.41,2.41,0,0,0,.71-1.32H17.47a1.6,1.6,0,0,1-.4.5,1.56,1.56,0,0,1-1.05.34,1.87,1.87,0,0,1-1-.28,1.73,1.73,0,0,1-.76-1.53h5.3a9.56,9.56,0,0,0-.06-1.45,3.54,3.54,0,0,0-.58-1.5,3,3,0,0,0-1.26-1.08,4.11,4.11,0,0,0-1.71-.34,3.5,3.5,0,0,0-2.61,1,3.93,3.93,0,0,0-1,2.9A3.51,3.51,0,0,0,13.4,15.73Zm1.36-4.84a1.54,1.54,0,0,1,1.14-.41,1.69,1.69,0,0,1,1.13.39,1.58,1.58,0,0,1,.5,1.15H14.25A2,2,0,0,1,14.76,10.89Z"/></g><g id="_Grupo_5" data-name="&lt;Grupo&gt;"><rect x="13.63" y="7.1" width="4.28" height="0.99"/></g></g></g><g class="cls-2"><g id="_Grupo_6" data-name="&lt;Grupo&gt;"><path id="_Trazado_" data-name="&lt;Trazado&gt;" class="cls-3" d="M17,10.8c0-1.05,1,.63.89-.3-1-.1,1.16-.92,0-1.18C17.56,9.59,16.16,11.22,17,10.8Z"/><path id="_Trazado_2" data-name="&lt;Trazado&gt;" class="cls-3" d="M17.61,12.29c-.16,0-.33.24,0,.29.6-.6.08-.79-.29-1.18C21.19,10,14.82,11.56,17.61,12.29Z"/><path id="_Trazado_3" data-name="&lt;Trazado&gt;" class="cls-3" d="M17.32,9.32c-.83-1.12,1.43.2,1.78-.6h-.89c.26-1-.46-.93-.89-1.19-.61.8-.29,1.13-.6,1.79C16.84,9.65,18.16,9.65,17.32,9.32Z"/><path id="_Trazado_4" data-name="&lt;Trazado&gt;" class="cls-3" d="M8.4,11.09c-1.1,0-2.05.14-2.08,1.2.18,0,.35,0,.29.29h.6C6.82,11.3,8.62,12.21,8.4,11.09Z"/><path id="_Trazado_5" data-name="&lt;Trazado&gt;" class="cls-3" d="M14.94,22.69c0-.31-.14-.75-.3-.29-.32,1,.44.89,1.49,1.78.06-.23,0-.59.29-.59,0,.16.24.33.3,0-.39-.73-.9.53-1.19-.31,0,.23,0-1.72-.3-1.18C15.17,22.33,15.22,22.68,14.94,22.69Z"/><path id="_Trazado_6" data-name="&lt;Trazado&gt;" class="cls-3" d="M17.91,14.67c-.12-1.59.24-.84,1.19-1.19-.46.72,1,.87.89.29C19.22,12.9,16.71,13.08,17.91,14.67Z"/></g></g></svg>