<svg id="Capa_1" data-name="Capa 1" xmlns="http://www.w3.org/2000/svg" viewBox="0 0 303.91 303.91"><title>blog</title><path d="M92.28,59.94h74.66a53.56,53.56,0,0,1,24.11,5.69,2.71,2.71,0,0,0,3.21-.52h0a2.47,2.47,0,0,0-.72-3.93,58.87,58.87,0,0,0-26.6-6.29H92.07a2.56,2.56,0,0,0-2.6,2.89A2.75,2.75,0,0,0,92.28,59.94Z"/><path d="M216.93,83a55.35,55.35,0,0,0-7.86-10.36,2.68,2.68,0,0,0-3.85,0l0,0a2.4,2.4,0,0,0,0,3.34,50.39,50.39,0,0,1,7.23,9.53,2.64,2.64,0,0,0,3.63.86l.05,0A2.45,2.45,0,0,0,216.93,83Z"/><path d="M219.57,99.53a2.48,2.48,0,0,0-1.16,2.54,47.5,47.5,0,0,1,.67,8c0,27.62-23.39,50.09-52.14,50.09H92.21a2.7,2.7,0,0,0-2.73,2.1,2.56,2.56,0,0,0,2.59,2.95h74.87c31.65,0,57.4-24.73,57.4-55.14a51.85,51.85,0,0,0-.76-8.86,2.62,2.62,0,0,0-4-1.67Z"/><path d="M91.81,59.94H94.7c28.39,0,52.32,21.4,53.12,48.66a48.21,48.21,0,0,1-4.92,22.67,2.46,2.46,0,0,0,.82,3.14l0,0a2.66,2.66,0,0,0,3.88-1,53,53,0,0,0,5.44-24.58c-.64-30.18-27.06-54-58.48-54H92A2.71,2.71,0,0,0,89.21,57,2.57,2.57,0,0,0,91.81,59.94Z"/><path d="M136.12,144.94a2.65,2.65,0,0,0-3.32.25,53.07,53.07,0,0,1-37.11,14.93H92a2.71,2.71,0,0,0-2.74,2.1,2.57,2.57,0,0,0,2.6,2.95h3.88a58.38,58.38,0,0,0,40.79-16.4,2.44,2.44,0,0,0-.32-3.8Z"/><path d="M119.28,188.82l0,.05a2.34,2.34,0,0,0,.09,2.61,20.94,20.94,0,0,1,4,14.9c-1.17,10.22-10,18.37-20.63,19.16-14.38,1.06-26.22-10.9-24.08-24.88a21.92,21.92,0,0,1,15-17.21,23.08,23.08,0,0,1,10.23-1,2.6,2.6,0,0,0,2.57-1.24l.06-.11a2.44,2.44,0,0,0-1.87-3.64,27.41,27.41,0,0,0-12.41,1.16c-10.72,3.54-18.49,13-19.09,23.83-.92,16.45,13.75,29.93,31.08,28,12.66-1.41,22.85-11.23,24.3-23.4a25.76,25.76,0,0,0-4.88-18.44A2.65,2.65,0,0,0,119.28,188.82Z"/><path d="M101.21,216.67a12.54,12.54,0,1,1,13-12.53A12.81,12.81,0,0,1,101.21,216.67Zm0-20a7.49,7.49,0,1,0,7.79,7.48A7.65,7.65,0,0,0,101.21,196.66Z"/><path d="M149.25,191.8a12.8,12.8,0,0,0-10.55,10.3,12,12,0,0,0,1.61,8.34,2.67,2.67,0,0,0,4.33.23l0,0a2.36,2.36,0,0,0,.21-2.71,7.07,7.07,0,0,1-.95-5.22,7.76,7.76,0,1,1,11,8.1,7.36,7.36,0,0,1-3.93.79,2.63,2.63,0,0,0-2.54,1.31l0,0a2.48,2.48,0,0,0,2,3.66,13.2,13.2,0,0,0,5.34-.63,12.71,12.71,0,0,0,8.7-9.92C165.78,197.55,158.14,190.33,149.25,191.8Z"/><path d="M209.53,202.61a6.73,6.73,0,0,1-.36,4.17,7.88,7.88,0,0,1-6.48,4.8A7.45,7.45,0,0,1,199,197.2a7.87,7.87,0,0,1,5.27-.16,2.66,2.66,0,0,0,2.79-.79l0,0a2.47,2.47,0,0,0-1.15-4,13.72,13.72,0,0,0-5.75-.52A12.85,12.85,0,0,0,189.07,202c-1.48,8.54,6.11,15.87,15,14.5A12.83,12.83,0,0,0,214.82,206a12.13,12.13,0,0,0-.17-4.63,2.62,2.62,0,0,0-4.33-1.22l-.17.17A2.3,2.3,0,0,0,209.53,202.61Z"/><path d="M151.33,230.66c-15.33,0-27.8-12-27.8-26.71s12.47-26.72,27.8-26.72,27.81,12,27.81,26.72S166.67,230.66,151.33,230.66Zm0-48.38c-12.43,0-22.55,9.72-22.55,21.67s10.12,21.66,22.55,21.66,22.55-9.72,22.55-21.66S163.77,182.28,151.33,182.28Z"/><path d="M202.16,230.66c-15.33,0-27.81-12-27.81-26.71s12.48-26.72,27.81-26.72S230,189.22,230,204,217.49,230.66,202.16,230.66Zm0-48.38c-12.44,0-22.55,9.72-22.55,21.67s10.11,21.66,22.55,21.66,22.55-9.72,22.55-21.66S214.59,182.28,202.16,182.28Z"/><path d="M77.08,245.07a2.54,2.54,0,0,0-2.27-2.49C62.14,241,52.38,232,52.38,221V173.56a2.63,2.63,0,0,0-5.26-.1V221c0,13.49,11.77,24.65,27,26.54a2.59,2.59,0,0,0,2.94-2.51Z"/><path d="M260.49,214.76l-.72-10.37a2.7,2.7,0,0,0-2.43-2.54,2.58,2.58,0,0,0-2.83,2.68l.73,10.48h0c-.05,15.36-15.1,27.84-33.59,27.84h-1.07a2.57,2.57,0,0,0-2.62,2.52h0a2.58,2.58,0,0,0,2.62,2.53h1.07c21.42,0,38.85-14.8,38.85-33Z"/><path d="M212,242.85H192a2.58,2.58,0,0,0-2.63,2.52h0A2.59,2.59,0,0,0,192,247.9h20a2.59,2.59,0,0,0,2.63-2.53h0A2.58,2.58,0,0,0,212,242.85Z"/><path d="M176.19,242.85H89.49a2.58,2.58,0,0,0-2.63,2.52h0a2.59,2.59,0,0,0,2.63,2.53h86.7a2.59,2.59,0,0,0,2.63-2.53h0A2.58,2.58,0,0,0,176.19,242.85Z"/><path d="M49.75,183a2.58,2.58,0,0,1-2.63-2.52v-6.69a4.94,4.94,0,0,0-9.87,0v6.69a2.63,2.63,0,0,1-5.26,0v-6.69a10.2,10.2,0,0,1,20.39,0v6.69A2.58,2.58,0,0,1,49.75,183Z"/><path d="M151.33,182.28a2.57,2.57,0,0,1-2.62-2.52V162.65a2.63,2.63,0,0,1,5.25,0v17.11A2.57,2.57,0,0,1,151.33,182.28Z"/><path d="M94.62,267.45a2.71,2.71,0,0,1-1.29-.32,2.48,2.48,0,0,1-1-3.44l31.6-54.16a2.69,2.69,0,0,1,3.58-1,2.48,2.48,0,0,1,1,3.44L96.91,266.16A2.64,2.64,0,0,1,94.62,267.45Z"/><path d="M146.18,267.45a2.71,2.71,0,0,1-1.29-.32,2.48,2.48,0,0,1-1-3.44l31.6-54.16a2.69,2.69,0,0,1,3.58-1,2.47,2.47,0,0,1,1,3.44l-31.61,54.16A2.63,2.63,0,0,1,146.18,267.45Z"/><path d="M150.46,59.94a2.57,2.57,0,0,1-2.62-2.53V39a2.63,2.63,0,0,1,5.25,0V57.41A2.57,2.57,0,0,1,150.46,59.94Z"/><path d="M74.54,203.92a23.41,23.41,0,0,1-22.16-23.23,2.63,2.63,0,0,0-5.25,0A28.54,28.54,0,0,0,74.54,209Z"/><path d="M269.74,154.65c-1.87-4.78-5.24-8.39-8.5-11.88l-.64-.68c-3.45-3.71-10-6.08-11.47-6.6l-4.77-2.84a2.71,2.71,0,0,0-2.49-.14,2.53,2.53,0,0,0-1.5,1.91l-.67,4.36-.72,2.3a10.38,10.38,0,0,1-2.91,2.55c-.77.37-3.29.2-5-.19a2.67,2.67,0,0,0-2.48.68,2.44,2.44,0,0,0-.68,2.39l4.81,18.11,2.47,9.87a29.44,29.44,0,0,1-7.45,19.27v7.17a34.6,34.6,0,0,0,12.71-26.73,2.32,2.32,0,0,0-.07-.59l-2.55-10.2-3.87-14.53a10,10,0,0,0,4.5-.73,15.76,15.76,0,0,0,5.09-4.47,2.29,2.29,0,0,0,.37-.73l.91-2.89c0-.12.06-.24.08-.36L245,139l1.63,1a2.27,2.27,0,0,0,.55.25c1.83.59,7.1,2.67,9.52,5.27l.65.69c3.07,3.29,6,6.39,7.49,10.29a20.84,20.84,0,0,1,.83,2.71c-3.86-2.7-8-3.65-11.24-2.22a10.45,10.45,0,0,0-5,5.28,10.08,10.08,0,0,0-.59,5.21l0,.21c.5,5.59,3.5,27.83,3.63,28.77a2.62,2.62,0,0,0,2.94,2.18,2.55,2.55,0,0,0,2.27-2.83c0-.23-3.11-23.07-3.6-28.55l0-.33a5.47,5.47,0,0,1,.25-2.8,5.3,5.3,0,0,1,2.4-2.57c1.87-.84,6.67.94,10.47,6.36a2.68,2.68,0,0,0,3,1,2.53,2.53,0,0,0,1.82-2.48A40.8,40.8,0,0,0,269.74,154.65Z"/></svg>