<svg id="Capa_1" data-name="Capa 1" xmlns="http://www.w3.org/2000/svg" viewBox="0 0 303.91 303.91"><defs><style>.cls-1,.cls-2,.cls-3,.cls-4,.cls-5{stroke:#000;stroke-linecap:round;stroke-linejoin:round;}.cls-1,.cls-2,.cls-4{stroke-width:4.93px;}.cls-2,.cls-3,.cls-4,.cls-5{fill:none;}.cls-3{stroke-width:4.12px;}.cls-4{stroke-dasharray:12.48 12.48;}.cls-5{stroke-width:3.72px;}</style></defs><title>contactame</title><line class="cls-1" x1="215.29" y1="71.88" x2="145.74" y2="71.88"/><polyline class="cls-2" points="127.58 71.88 45.25 71.88 55.75 90.39 45.25 116.03 56.04 138.49 45.25 163.08 55.19 185.28 45.25 210.66 49.22 219.64"/><polyline class="cls-2" points="55.75 235.24 45.25 250.83 178.39 250.83"/><polyline class="cls-2" points="70.62 114.84 81.69 85.3 85.53 95.7"/><polyline class="cls-2" points="88.61 105.22 92.02 114.84 81.48 114.84 81.48 127.92"/><polyline class="cls-3" points="113.01 183.28 122.27 158.56 125.47 167.27"/><polyline class="cls-3" points="128.06 175.23 130.91 183.28 122.09 183.28 122.09 194.22"/><path class="cls-2" d="M96.92,227.84a43.29,43.29,0,0,0,6.53-.68"/><path class="cls-4" d="M115.46,223.83a57.73,57.73,0,0,0,25.74-19.58c8-10.86,13.31-24.13,12.56-34.9a28.59,28.59,0,0,0-1.62-7.85c-3.36-9.05-10.9-14.17-13.28-15.74-7.39-4.88-12.62-4.73-20.44-11.3a16.68,16.68,0,0,1-3.27-3.51c-.54-.79-4.8-7.27-1.84-14.38a16.55,16.55,0,0,1,7.24-7.74c2.79-1.62,6.48-2.2,13.63-2.72l.83-.06"/><path class="cls-2" d="M141.24,105.55c2-.15,4.21-.31,6.56-.43"/><path class="cls-2" d="M205.69,114.35l-7.41-7.17a2.31,2.31,0,0,1,.07-3.43l7.69-6.9a2.32,2.32,0,0,0,.07-3.44l-8.4-8.11a2.75,2.75,0,0,0-3.69-.06l-7.69,6.9a2.75,2.75,0,0,1-3.69-.07l-7.41-7.16a2.72,2.72,0,0,0-3.68-.06l-8.72,7.81a2.32,2.32,0,0,0-.07,3.44l7.41,7.16a2.31,2.31,0,0,1-.07,3.43l-7.69,6.9a2.32,2.32,0,0,0-.07,3.44l8.4,8.11a2.75,2.75,0,0,0,3.69.07l7.69-6.9a2.73,2.73,0,0,1,3.69.06l7.41,7.16a2.73,2.73,0,0,0,3.68.07l8.72-7.82A2.31,2.31,0,0,0,205.69,114.35Z"/><path d="M84.22,244.81a3,3,0,0,1-2.1-.83l-4.19-4-4.4,3.9a3.08,3.08,0,0,1-4.13-.07l-4.75-4.59a2.61,2.61,0,0,1,.08-3.85l4.35-3.9-4.19-4.09a2.6,2.6,0,0,1,.08-3.85l4.93-4.42A2.84,2.84,0,0,1,72,218.3a3,3,0,0,1,2,.83l4.19,4.05,4.39-3.9a3.08,3.08,0,0,1,4.13.07l4.75,4.59a2.59,2.59,0,0,1-.07,3.85l-4.35,3.9,4.19,4.09h0a2.6,2.6,0,0,1-.08,3.85l-4.93,4.42A3,3,0,0,1,84.22,244.81Z"/><path d="M77.91,237.23a3,3,0,0,1,2.1.83l4.19,4.05,6-5.39-1,.93L85,233.6a2.6,2.6,0,0,1,.08-3.85l4.35-3.9-4.75-4.63-4.39,3.9a3.08,3.08,0,0,1-4.13-.07L72,221l-5,4.42,4.2,4.09a2.6,2.6,0,0,1-.08,3.85l-4.35,3.9,4.75,4.63,4.39-3.9A3,3,0,0,1,77.91,237.23Z"/><polyline class="cls-2" points="166.09 195.72 180.57 169.95 188.56 183.93"/><polyline class="cls-2" points="191.22 189.18 194.94 196.81 188.56 196.81 194.31 213.37 180.36 213.37 180.36 225.26"/><polyline class="cls-2" points="172.06 196.91 166.09 213.27 171.63 213.27"/><polyline class="cls-5" points="70.43 161.88 81.35 142.44 87.37 152.98"/><polyline class="cls-5" points="89.38 156.94 92.19 162.7 87.37 162.7 91.7 175.19 81.19 175.19 81.19 184.16"/><polyline class="cls-5" points="74.92 162.78 70.43 175.11 74.6 175.11"/><path d="M217.46,231.38a2.58,2.58,0,0,1-2.19-1.16,17.54,17.54,0,0,1-2-4.08,12.59,12.59,0,0,1-.57-3.69,2.4,2.4,0,0,1,2.51-2.26h.05a2.5,2.5,0,0,1,2.55,2.37,8.66,8.66,0,0,0,.36,2.24,13.23,13.23,0,0,0,1.43,3,2.28,2.28,0,0,1-.86,3.26A2.64,2.64,0,0,1,217.46,231.38Z"/><path d="M227.7,237.11a15.22,15.22,0,0,1-5.63-1.05,14.86,14.86,0,0,1-6.79-5.64,2.39,2.39,0,0,1,0-2.82,2.77,2.77,0,0,1,4.47.11,9.14,9.14,0,0,0,8,4.46c5.69,0,7-1.7,7.87-2.82a8.63,8.63,0,0,0,.75-1.24,2.78,2.78,0,0,1,2.66-1.59,2.48,2.48,0,0,1,2.24,3.48,12.92,12.92,0,0,1-1.32,2.21C238,234.64,235.11,237.11,227.7,237.11Z"/><path d="M238.8,231.47a2.76,2.76,0,0,1-1.09-.22,2.41,2.41,0,0,1-1.33-3.27c.41-.84,1.67-3.79.73-6.45-.78-2.23-3.61-2.62-3.64-2.63a2.51,2.51,0,0,1-2.29-2.77,2.63,2.63,0,0,1,3-2.13c2.29.27,6.55,1.85,8,6s-.16,8.42-.94,10A2.68,2.68,0,0,1,238.8,231.47Z"/><path d="M238.75,253.3H197.24a2.69,2.69,0,0,1-2.49-1.41,2.51,2.51,0,0,1,2.42-3.53h41.15c1.93-.63,11.75-4.25,13.93-12.66a36.38,36.38,0,0,0,1.08-6.71,2.59,2.59,0,0,1,1.92-2.38,2.63,2.63,0,0,1,3.39,2.53,42,42,0,0,1-1.23,7.71c-3.13,12.09-17.3,16.18-17.9,16.35A2.78,2.78,0,0,1,238.75,253.3Z"/><path d="M253.53,211.36h0a24.36,24.36,0,0,0-13.5-7.87,26.67,26.67,0,0,0-5.36-.53,22.64,22.64,0,0,0-14.1,4.56,21.78,21.78,0,0,0-2.72,2.53v-9.7h-5.11v21.33a2.48,2.48,0,0,0,2.56,2.38h0a2.47,2.47,0,0,0,2.55-2.26c.15-4.53,3.33-8.56,6-10.63,5.77-4.52,13-3.47,15.09-3a20.13,20.13,0,0,1,13.5,10.34h0a30.26,30.26,0,0,1,1,10.38,2.32,2.32,0,0,0,.74,1.78,2.81,2.81,0,0,0,1.91.75,2.47,2.47,0,0,0,2.55-2.38V92.19h-5.11Z"/><path d="M234.59,50.63c-12.36.54-21.85,10.51-21.85,22V184.43l.07.06h5l.07-.06V72.53A17.46,17.46,0,0,1,234,55.43c10.58-.9,19.5,6.87,19.5,16.55v2l2.54,2.35h.05L258.64,74V72C258.64,59.85,247.74,50.05,234.59,50.63Z"/><path d="M253.55,71.55v3.9a2.56,2.56,0,0,0,5.11,0v-3.9Z"/><path d="M258.66,94.94V91.05a2.56,2.56,0,0,0-5.11,0v3.89Z"/><path d="M217.86,204.06v-3.9a2.56,2.56,0,0,0-5.11,0v3.9Z"/><path d="M212.75,180.87v3.89a2.56,2.56,0,0,0,5.11,0v-3.89Z"/></svg>