<svg id="Capa_1" data-name="Capa 1" xmlns="http://www.w3.org/2000/svg" xmlns:xlink="http://www.w3.org/1999/xlink" viewBox="0 0 23.17 23.17"><defs><style>.cls-1{fill:none;}.cls-2{clip-path:url(#clip-path);}.cls-3{fill:#ffa502;}</style><clipPath id="clip-path"><rect class="cls-1" x="-1065.57" y="52.54" width="1010.95" height="626.13"/></clipPath></defs><title>correo</title><path d="M3,18.5c-.06-.08-.15,0-.22-.06A2.17,2.17,0,0,1,1.15,16.3c0-3.15,0-6.29,0-9.44a2.12,2.12,0,0,1,.06-.57A2.2,2.2,0,0,1,3.42,4.66H19.81A2.17,2.17,0,0,1,22,6.84v9.48a2.13,2.13,0,0,1-1.17,1.93c-.2.11-.43.14-.62.25ZM4.28,7.33q3.59,3,7.16,6c.12.1.17.09.29,0L20.52,6c.15-.12.11-.16,0-.24a1.57,1.57,0,0,0-.8-.18H3.44a1.34,1.34,0,0,0-.93.3ZM20,17.6c0-.09-.06-.12-.1-.16l-5.18-5.25c-.11-.11-.16-.1-.28,0-.82.7-1.65,1.39-2.48,2.07-.3.26-.47.26-.78,0l-2.5-2.08c-.09-.08-.13-.1-.23,0C6.74,14,5,15.74,3.27,17.52l-.06.08ZM7.88,11.49,2.09,6.66A.39.39,0,0,0,2,6.93v9.31a1.24,1.24,0,0,0,.34.93Zm7.41,0,.13.14L20.69,17c.18.18.17.18.29,0a1.44,1.44,0,0,0,.15-.68V6.91a.39.39,0,0,0-.05-.25Z"/><path d="M2.91,18.6H2.76A2.33,2.33,0,0,1,1,16.3V6.86a2.27,2.27,0,0,1,.07-.61A2.36,2.36,0,0,1,3.42,4.5H19.81a2.3,2.3,0,0,1,2.36,2.33q0,4.74,0,9.48a2.27,2.27,0,0,1-1.24,2.07,1.66,1.66,0,0,1-.35.13l-.28.11,0,0H3Zm17.58-.37a1.81,1.81,0,0,0,.28-.12,1.94,1.94,0,0,0,1.09-1.79q0-4.74,0-9.48a2,2,0,0,0-2.05-2c-.76,0-1.52,0-2.29,0H3.42a2,2,0,0,0-2.12,2V16.3a2,2,0,0,0,1.53,2,.38.38,0,0,1,.25.05H20.19A1.82,1.82,0,0,1,20.49,18.23ZM3.12,17.47s0,0,0-.06l1.13-1.16,4.06-4.19a.28.28,0,0,1,.44,0l2.06,1.72.44.36c.25.21.34.21.58,0l.52-.42,2-1.65a.32.32,0,0,1,.49,0l3.36,3.41L20,17.35a.27.27,0,0,1,.12.26v.14H2.9ZM18,15.71,14.62,12.3l0,0,0,0-2,1.65-.52.43a.64.64,0,0,1-1,0L10.65,14,8.59,12.29h0L4.52,16.46l-.95,1H19.69ZM2.26,17.28a1.39,1.39,0,0,1-.38-1V6.89A.42.42,0,0,1,2,6.57l.1-.14,6,5.05L2.37,17.4ZM2.19,7v9.29a1.16,1.16,0,0,0,.19.7l5.27-5.43ZM20.58,17.07l-5.27-5.33-.09-.09-.16-.17,6-5.05.1.14a.55.55,0,0,1,.08.34v9.33a1.53,1.53,0,0,1-.18.76c-.07.14-.12.23-.23.24h0C20.75,17.25,20.68,17.18,20.58,17.07ZM15.52,11.5v0l5.28,5.34,0,0v0a1.25,1.25,0,0,0,.14-.61V7Zm-4.18,1.93-6-5.06-3-2.52.15-.12a1.49,1.49,0,0,1,1-.33H19.7a1.67,1.67,0,0,1,.88.2.3.3,0,0,1,.19.23.32.32,0,0,1-.15.26l-8.79,7.34a.42.42,0,0,1-.25.11A.4.4,0,0,1,11.34,13.43ZM19.7,5.71H3.43a1.38,1.38,0,0,0-.67.15L5.49,8.13l6,5.06,0,0,.05,0Q16,9.52,20.41,5.86A1.34,1.34,0,0,0,19.7,5.71Z"/><g class="cls-2"><g id="_Grupo_" data-name="&lt;Grupo&gt;"><path id="_Trazado_" data-name="&lt;Trazado&gt;" class="cls-3" d="M17,10.8c0-1.05,1,.63.89-.3-1-.1,1.16-.92,0-1.18C17.56,9.59,16.16,11.22,17,10.8Z"/><path id="_Trazado_2" data-name="&lt;Trazado&gt;" class="cls-3" d="M17.61,12.29c-.16,0-.33.24,0,.29.6-.6.08-.79-.29-1.18C21.19,10,14.82,11.56,17.61,12.29Z"/><path id="_Trazado_3" data-name="&lt;Trazado&gt;" class="cls-3" d="M17.32,9.32c-.83-1.12,1.43.2,1.78-.6h-.89c.26-1-.46-.93-.89-1.19-.61.8-.29,1.13-.6,1.79C16.84,9.65,18.16,9.65,17.32,9.32Z"/><path id="_Trazado_4" data-name="&lt;Trazado&gt;" class="cls-3" d="M8.4,11.09c-1.1,0-2.05.14-2.08,1.2.18,0,.35,0,.29.29h.6C6.82,11.3,8.62,12.21,8.4,11.09Z"/><path id="_Trazado_5" data-name="&lt;Trazado&gt;" class="cls-3" d="M14.94,22.69c0-.31-.14-.75-.3-.29-.32,1,.44.89,1.49,1.78.06-.23,0-.59.29-.59,0,.16.24.33.3,0-.39-.73-.9.53-1.19-.31,0,.23,0-1.72-.3-1.18C15.17,22.33,15.22,22.68,14.94,22.69Z"/><path id="_Trazado_6" data-name="&lt;Trazado&gt;" class="cls-3" d="M17.91,14.67c-.12-1.59.24-.84,1.19-1.19-.46.72,1,.87.89.29C19.22,12.9,16.71,13.08,17.91,14.67Z"/></g></g></svg>