<svg id="Capa_1" data-name="Capa 1" xmlns="http://www.w3.org/2000/svg" xmlns:xlink="http://www.w3.org/1999/xlink" viewBox="0 0 23.17 23.17"><defs><style>.cls-1{fill:none;}.cls-2{clip-path:url(#clip-path);}.cls-3{fill:#ffa502;}</style><clipPath id="clip-path"><rect class="cls-1" x="-1065.57" y="52.54" width="1010.95" height="626.13"/></clipPath></defs><title>facebook</title><path d="M16.76,3c0,.89,0,1.79,0,2.68,0,.36-.11.42-.42.4S15.45,6,15,6a1.31,1.31,0,0,0-1.48,1.52c0,.91,0,.91.9.91h1.69c.19,0,.26,0,.26.25,0,.91,0,1.82,0,2.72,0,.24-.09.27-.29.27h-2.3c-.15,0-.27,0-.26.21,0,2.77,0,5.55,0,8.32H9.24c0-2.72,0-5.44,0-8.16,0-.31-.08-.38-.37-.38-.73,0-1.46,0-2.19,0-.21,0-.28,0-.28-.27,0-.91,0-1.82,0-2.73,0-.22.09-.24.26-.23.73,0,1.46,0,2.19,0,.28,0,.4-.05.39-.37a6.85,6.85,0,0,1,.32-2.38A3.87,3.87,0,0,1,12.77,3c.06,0,.13,0,.15-.07ZM9.93,15.25c0,1.32,0,2.64,0,4,0,.24.05.32.31.32.71,0,1.43,0,2.15,0,.34,0,.44-.07.44-.43,0-2.59,0-5.17,0-7.76,0-.28.06-.36.35-.35.7,0,1.41,0,2.11,0,.29,0,.42,0,.39-.37a6.37,6.37,0,0,1,0-1.07c0-.31-.06-.42-.39-.41-.73,0-1.46,0-2.19,0-.21,0-.28-.05-.27-.28,0-.56,0-1.12,0-1.68a1.91,1.91,0,0,1,1.58-1.82,7,7,0,0,1,1.37-.06c.23,0,.29-.07.28-.28a11,11,0,0,1,0-1.15c0-.21-.06-.26-.26-.26-.82,0-1.64,0-2.46,0a3.28,3.28,0,0,0-3.18,2.56,8.89,8.89,0,0,0-.22,2.62c0,.26,0,.35-.33.34-.74,0-1.48,0-2.22,0-.21,0-.3,0-.29.27,0,.42,0,.85,0,1.27,0,.23.06.31.3.3.74,0,1.49,0,2.23,0,.26,0,.31.08.31.32C9.93,12.62,9.93,13.94,9.93,15.25Z"/><path d="M13.6,20.28H9.18V18.41c0-2.08,0-4.23,0-6.35,0-.15,0-.23-.06-.27s-.12,0-.25,0c-.41,0-.83,0-1.24,0h-1a.38.38,0,0,1-.26-.07.34.34,0,0,1-.08-.26c0-1,0-1.9,0-2.72a.31.31,0,0,1,.07-.24.3.3,0,0,1,.25-.06H8.85c.15,0,.23,0,.27-.05s.06-.13.06-.26a6.69,6.69,0,0,1,.33-2.39A3.92,3.92,0,0,1,12.76,3h.05s0,0,.06,0v0h3.94v.83c0,.62,0,1.27,0,1.91a.54.54,0,0,1-.1.38.52.52,0,0,1-.39.08c-.43,0-.86,0-1.29,0h0c-1,0-1.44.48-1.43,1.47s0,.85.84.85h1.69a.33.33,0,0,1,.25.07.31.31,0,0,1,.07.24c0,1,0,1.87,0,2.72a.33.33,0,0,1-.07.25.36.36,0,0,1-.28.08H13.75a.22.22,0,0,0-.15,0,.17.17,0,0,0,0,.12q0,3.3,0,6.59Zm-4.3-.12h4.18V18.49c0-2.19,0-4.39,0-6.59a.31.31,0,0,1,.06-.21c.06-.06.14,0,.24-.06h2.32c.09,0,.16,0,.19,0s0-.08,0-.17c0-.85,0-1.74,0-2.72a.28.28,0,0,0,0-.16s-.08,0-.17,0H14.42c-.93,0-.95,0-1-1A1.38,1.38,0,0,1,15,6h.05c.43,0,.87,0,1.3,0,.17,0,.25,0,.3,0a.46.46,0,0,0,.06-.29c0-.64,0-1.29,0-1.92V3H13c0,.06-.1.06-.14.07h0A3.81,3.81,0,0,0,9.62,5.74,6.75,6.75,0,0,0,9.3,8.1a.5.5,0,0,1-.09.34.49.49,0,0,1-.36.09H6.66c-.07,0-.14,0-.17,0a.28.28,0,0,0,0,.15c0,.83,0,1.69,0,2.73,0,.09,0,.15,0,.17s.08,0,.18,0H8.86c.18,0,.28,0,.34.08a.46.46,0,0,1,.1.35c0,2.12,0,4.27,0,6.35Zm3.15-.57h-.06c-.62,0-1.31,0-2.15,0a.37.37,0,0,1-.29-.08.43.43,0,0,1-.08-.3c0-1,0-2,0-2.93V14.2c0-.95,0-1.93,0-2.9,0-.12,0-.18-.05-.22s-.09,0-.2,0H7.4A.3.3,0,0,1,7,10.7c0-.44,0-.86,0-1.27a.34.34,0,0,1,.07-.25.37.37,0,0,1,.28-.08H9.61a.29.29,0,0,0,.22,0s.05-.11.05-.24a9.19,9.19,0,0,1,.22-2.64,3.32,3.32,0,0,1,3.24-2.6H15.8a.32.32,0,0,1,.25.08.31.31,0,0,1,.07.24,11,11,0,0,0,0,1.15.35.35,0,0,1-.07.26.31.31,0,0,1-.26.08h-.26a4.6,4.6,0,0,0-1.11.06,1.82,1.82,0,0,0-1.53,1.76c0,.3,0,.6,0,.9V8.9c0,.09,0,.14,0,.17s.08,0,.18,0H14c.41,0,.83,0,1.25,0a.51.51,0,0,1,.37.1c.07.07.09.18.08.37a6.37,6.37,0,0,0,0,1.07c0,.16,0,.27-.08.33a.43.43,0,0,1-.37.1H13.17a.35.35,0,0,0-.24,0,.36.36,0,0,0-.06.25c0,1.19,0,2.37,0,3.55,0,1.38,0,2.8,0,4.21a.49.49,0,0,1-.11.39A.44.44,0,0,1,12.45,19.59Zm-1.07-.14,1,0c.17,0,.26,0,.31-.06a.45.45,0,0,0,.07-.31c0-1.4,0-2.83,0-4.21V11.34a.46.46,0,0,1,.09-.33.4.4,0,0,1,.32-.08h2.11c.16,0,.25,0,.29-.06s0-.12,0-.24a6.61,6.61,0,0,1,0-1.09c0-.15,0-.23,0-.28s-.13-.07-.28-.06c-.41,0-.84,0-1.25,0H13.1a.35.35,0,0,1-.27-.07.35.35,0,0,1-.07-.26q0-.39,0-.78c0-.3,0-.6,0-.91A2,2,0,0,1,14.4,5.34a4.81,4.81,0,0,1,1.13-.07h.25c.09,0,.16,0,.18,0s0-.08,0-.18A11,11,0,0,1,16,3.9c0-.09,0-.14,0-.16s-.08,0-.17,0h-1c-.48,0-1,0-1.46,0a3.21,3.21,0,0,0-3.13,2.51A9.33,9.33,0,0,0,10,8.83a.44.44,0,0,1-.08.32.43.43,0,0,1-.31.08H7.39c-.11,0-.17,0-.2,0a.32.32,0,0,0,0,.17c0,.41,0,.84,0,1.27,0,.11,0,.17,0,.2s.09,0,.2,0H8.47c.38,0,.77,0,1.16,0,.14,0,.23,0,.28.08a.39.39,0,0,1,.09.3c0,1,0,1.95,0,2.9v2.08c0,1,0,1.95,0,2.93a.35.35,0,0,0,0,.22.27.27,0,0,0,.21,0Z"/><path d="M13.63,20.31H9.15v-2c0-2.07,0-4.2,0-6.29,0-.13,0-.21-.05-.24s-.11-.05-.23-.05c-.41,0-.83,0-1.24,0h-1a.43.43,0,0,1-.29-.08.42.42,0,0,1-.08-.28c0-1,0-1.91,0-2.72a.36.36,0,0,1,.07-.26.36.36,0,0,1,.28-.07H8.85c.14,0,.22,0,.25-.05s.05-.11.05-.23a6.74,6.74,0,0,1,.33-2.4,4,4,0,0,1,3.28-2.77h.05s0,0,0,0l0-.06h4v.86c0,.62,0,1.27,0,1.91a.53.53,0,0,1-.11.4.52.52,0,0,1-.41.09c-.42,0-.86,0-1.28,0H15c-1,0-1.41.46-1.4,1.43,0,.82,0,.82.81.82h.48c.4,0,.8,0,1.21,0a.37.37,0,0,1,.27.07.41.41,0,0,1,.08.27c0,1,0,1.88,0,2.72a.43.43,0,0,1-.08.28.39.39,0,0,1-.3.08H13.75c-.05,0-.11,0-.12,0s0,0,0,.1q0,3.26,0,6.51Zm-4.3-.18h4.12V18.41q0-3.26,0-6.51a.3.3,0,0,1,.07-.23.33.33,0,0,1,.26-.07h2.32c.07,0,.14,0,.17,0a.22.22,0,0,0,0-.14c0-.85,0-1.74,0-2.73,0-.09,0-.13,0-.14s-.06,0-.14,0H14.42c-.95,0-1,0-1-1A1.41,1.41,0,0,1,15,5.94h.06c.42,0,.86,0,1.29,0,.15,0,.24,0,.28,0s.05-.13.05-.27c0-.64,0-1.29,0-1.91V3H13a.21.21,0,0,1-.16.07h0A3.78,3.78,0,0,0,9.65,5.75,6.72,6.72,0,0,0,9.33,8.1a.5.5,0,0,1-.1.36.51.51,0,0,1-.38.1H6.66c-.06,0-.13,0-.15,0s0,0,0,.12c0,.82,0,1.71,0,2.73a.24.24,0,0,0,0,.15s.07,0,.16,0h1c.41,0,.82,0,1.23,0a.51.51,0,0,1,.37.1.51.51,0,0,1,.1.37c0,2.09,0,4.22,0,6.29Zm3.12-.51h-.07c-.61,0-1.3,0-2.14,0-.16,0-.25,0-.31-.09a.44.44,0,0,1-.09-.32c0-1,0-2,0-2.94v-2c0-1,0-2,0-2.94,0-.11,0-.17,0-.19s-.08,0-.18,0H7.4A.34.34,0,0,1,7.1,11,.42.42,0,0,1,7,10.69c0-.43,0-.85,0-1.25a.36.36,0,0,1,.08-.28.38.38,0,0,1,.3-.09H9.62c.1,0,.16,0,.19,0s0-.09,0-.21a9.29,9.29,0,0,1,.22-2.65,3.35,3.35,0,0,1,3.27-2.62c.49,0,1,0,1.46,0,.33,0,.66,0,1,0a.43.43,0,0,1,.27.08.36.36,0,0,1,.08.27,11,11,0,0,0,0,1.15.39.39,0,0,1-.08.29.41.41,0,0,1-.29.08h-.25a4.49,4.49,0,0,0-1.1.06,1.78,1.78,0,0,0-1.51,1.73c0,.3,0,.61,0,.9s0,.53,0,.79c0,.08,0,.13,0,.15s.07,0,.16,0H14c.42,0,.84,0,1.26,0a.52.52,0,0,1,.39.11.5.5,0,0,1,.09.4,6.13,6.13,0,0,0,0,1,.46.46,0,0,1-.08.37.5.5,0,0,1-.4.1H13.17a.2.2,0,0,0-.26.26v3.55c0,1.4,0,2.8,0,4.21a.54.54,0,0,1-.12.42A.49.49,0,0,1,12.45,19.62Zm-1.08-.2,1,0c.16,0,.25,0,.29-.05a.48.48,0,0,0,.06-.29c0-1.4,0-2.81,0-4.21V11.34a.45.45,0,0,1,.09-.35.44.44,0,0,1,.35-.09h2.11c.15,0,.23,0,.27-.05a.32.32,0,0,0,0-.22,6.61,6.61,0,0,1,0-1.09c0-.14,0-.22,0-.26s-.12,0-.25,0c-.43,0-.85,0-1.27,0H13.1a.4.4,0,0,1-.29-.09.32.32,0,0,1-.08-.28c0-.26,0-.52,0-.78s0-.6,0-.91a2,2,0,0,1,1.65-1.89,4.4,4.4,0,0,1,1.14-.07h.25c.09,0,.14,0,.16,0s0-.07,0-.16A11,11,0,0,1,16,3.9a.22.22,0,0,0,0-.14s-.06,0-.14,0c-.33,0-.67,0-1,0-.48,0-1,0-1.46,0a3.19,3.19,0,0,0-3.1,2.49A9.24,9.24,0,0,0,10,8.83a.45.45,0,0,1-.09.34.4.4,0,0,1-.33.09H7.39c-.06,0-.14,0-.17,0a.24.24,0,0,0,0,.15c0,.41,0,.84,0,1.27a.34.34,0,0,0,0,.18.28.28,0,0,0,.18,0H8.48c.37,0,.76,0,1.14,0a.48.48,0,0,1,.32.09.44.44,0,0,1,.09.32c0,1,0,2,0,2.94v2c0,1,0,2,0,2.94,0,.11,0,.17,0,.19s.09,0,.19,0Z"/><path d="M13.69,20.37H9.09V18.14c0-2,0-4.06,0-6.08,0-.15,0-.19,0-.2s0,0-.19,0c-.41,0-.83,0-1.24,0h-1a.51.51,0,0,1-.33-.1.45.45,0,0,1-.1-.33c0-1,0-1.9,0-2.71a.44.44,0,0,1,.09-.3.43.43,0,0,1,.32-.09H8.85c.16,0,.2,0,.21,0s0,0,0-.19a6.89,6.89,0,0,1,.33-2.42,4,4,0,0,1,3.33-2.8h.05V2.8h4.1v.92c0,.62,0,1.27,0,1.91a.59.59,0,0,1-.13.44.58.58,0,0,1-.45.11c-.42,0-.85,0-1.27,0H15c-.95,0-1.35.44-1.34,1.38,0,.76,0,.76.75.76h1.69a.35.35,0,0,1,.41.4c0,1,0,1.88,0,2.72a.45.45,0,0,1-.1.32.46.46,0,0,1-.34.1H13.67a.35.35,0,0,0,0,.06q0,3.26,0,6.51Zm-4.48-.12h4.36V18.41c0-2.17,0-4.34,0-6.51a.22.22,0,0,1,0-.14.25.25,0,0,1,.16,0h2.34a.36.36,0,0,0,.26-.06.35.35,0,0,0,.06-.24c0-.84,0-1.73,0-2.72a.29.29,0,0,0-.06-.22.3.3,0,0,0-.23-.06H14.42c-.84,0-.86,0-.87-.88A1.3,1.3,0,0,1,15,6.06h.05c.43,0,.86,0,1.28,0,.18,0,.3,0,.37-.07a.45.45,0,0,0,.09-.36c0-.64,0-1.29,0-1.91v-.8H12.91l0,.05h-.12A3.91,3.91,0,0,0,9.53,5.71,7,7,0,0,0,9.21,8.1c0,.14,0,.23-.07.27s-.14.08-.29.07H6.66a.34.34,0,0,0-.24.06.34.34,0,0,0,0,.22c0,.8,0,1.69,0,2.72a.34.34,0,0,0,.06.24.41.41,0,0,0,.25.06H8.87a.39.39,0,0,1,.27,0,.41.41,0,0,1,.07.29c0,2,0,4.08,0,6.08Zm4.3-.06H9.27V18.14c0-2,0-4.06,0-6.08a.48.48,0,0,0-.08-.33.44.44,0,0,0-.33-.08c-.41,0-.82,0-1.23,0h-1c-.1,0-.17,0-.2-.05a.27.27,0,0,1-.05-.19c0-1,0-1.91,0-2.73a.22.22,0,0,1,0-.16s.09,0,.16,0H8.85a.42.42,0,0,0,.34-.08.44.44,0,0,0,.08-.32,6.8,6.8,0,0,1,.32-2.37,3.86,3.86,0,0,1,3.19-2.68h0a.14.14,0,0,0,.11,0l0,0h3.78v.74c0,.62,0,1.27,0,1.91a.45.45,0,0,1-.07.31.44.44,0,0,1-.32.06c-.43,0-.86,0-1.28,0H15a1.37,1.37,0,0,0-1.51,1.56c0,.93,0,.94.93.94h1.7c.09,0,.14,0,.17,0s.05.09.05.18c0,1,0,1.88,0,2.72,0,.1,0,.16-.05.19a.31.31,0,0,1-.21.05H13.75a.28.28,0,0,0-.21.05.25.25,0,0,0-.06.19q0,3.26,0,6.51Zm-4.12-.12h4V18.41c0-2.17,0-4.34,0-6.51a.37.37,0,0,1,.09-.27.37.37,0,0,1,.3-.09h0c.21,0,.43,0,.64,0h.21c.57,0,1,0,1.45,0h.13a.36.36,0,0,0,0-.1c0-.85,0-1.74,0-2.73a.36.36,0,0,0,0-.1H14.42c-1,0-1-.06-1.05-1.06A1.47,1.47,0,0,1,15,5.88h.06c.43,0,.86,0,1.3,0a.48.48,0,0,0,.23,0s0-.06,0-.22c0-.64,0-1.3,0-1.92V3.1H13a.34.34,0,0,1-.18.07h0a3.72,3.72,0,0,0-3.1,2.6A6.81,6.81,0,0,0,9.39,8.1a.52.52,0,0,1-.12.4.57.57,0,0,1-.42.12H6.55V8.7c0,.82,0,1.71,0,2.73a.32.32,0,0,0,0,.11h2.3a.51.51,0,0,1,.41.11.52.52,0,0,1,.12.41c0,2,0,4.08,0,6.08Zm3.06-.39h-.07c-.63,0-1.31,0-2.14,0a.43.43,0,0,1-.35-.11.46.46,0,0,1-.11-.36c0-1,0-2,0-2.94v-2c0-1,0-2,0-2.94,0-.13,0-.15,0-.15s0,0-.14,0H7.4A.37.37,0,0,1,7,10.69c0-.43,0-.85,0-1.25a.47.47,0,0,1,.1-.33A.45.45,0,0,1,7.39,9H9.62c.12,0,.15,0,.15,0a.38.38,0,0,0,0-.17A9.36,9.36,0,0,1,10,6.17,3.41,3.41,0,0,1,13.33,3.5h2.46a.46.46,0,0,1,.32.1.44.44,0,0,1,.1.32,10.84,10.84,0,0,0,0,1.14.47.47,0,0,1-.1.33.44.44,0,0,1-.33.1h-.25a4.44,4.44,0,0,0-1.09.06A1.72,1.72,0,0,0,13,7.21c0,.3,0,.61,0,.9V8.9C13,9,13,9,13,9h1c.43,0,.85,0,1.26,0a.53.53,0,0,1,.43.13.54.54,0,0,1,.11.44,6.13,6.13,0,0,0,0,1,.55.55,0,0,1-.1.41.6.6,0,0,1-.44.12H13.17c-.14,0-.17,0-.18,0s0,0,0,.18c0,1.14,0,2.27,0,3.41v.14c0,1.38,0,2.81,0,4.21a.59.59,0,0,1-.14.46A.52.52,0,0,1,12.45,19.68Zm-1.09-.14,1,0h.06a.39.39,0,0,0,.31-.09.46.46,0,0,0,.1-.37c0-1.4,0-2.83,0-4.21V11.34c0-.14,0-.22.06-.26S13,11,13.17,11h2.11a.43.43,0,0,0,.35-.08.39.39,0,0,0,.07-.32,6.37,6.37,0,0,1,0-1.07.45.45,0,0,0-.07-.35.46.46,0,0,0-.35-.09c-.41,0-.83,0-1.26,0h-.93a.27.27,0,0,1-.2,0s0-.09,0-.19c0-.27,0-.54,0-.79s0-.6,0-.9a1.87,1.87,0,0,1,1.55-1.79,5.26,5.26,0,0,1,1.12-.06h.25A.34.34,0,0,0,16,5.3a.37.37,0,0,0,.06-.25,11,11,0,0,1,0-1.15A.32.32,0,0,0,16,3.67a.33.33,0,0,0-.23-.06h-1c-.48,0-1,0-1.46,0A3.3,3.3,0,0,0,10.13,6.2a9.15,9.15,0,0,0-.22,2.63.39.39,0,0,1-.06.26.35.35,0,0,1-.22.05H7.39a.35.35,0,0,0-.26.07s-.06.12-.06.23c0,.41,0,.83,0,1.27a.33.33,0,0,0,.07.26A.31.31,0,0,0,7.4,11H8.47c.38,0,.78,0,1.16,0a.37.37,0,0,1,.22.05.33.33,0,0,1,.06.24c0,1,0,2,0,2.94v2c0,.91,0,1.93,0,2.94a.36.36,0,0,0,.08.28c0,.05.12.07.27.07Zm1.08,0h0c-.62,0-1.28,0-2.15,0a.39.39,0,0,1-.23-.05s0-.11,0-.24c0-1,0-2,0-2.94v-2c0-1,0-2,0-2.94A.41.41,0,0,0,9.9,11,.4.4,0,0,0,9.63,11H7.4a.33.33,0,0,1-.22-.05s0-.11,0-.22c0-.44,0-.86,0-1.27,0-.1,0-.16,0-.19a.31.31,0,0,1,.21-.05H9.61a.34.34,0,0,0,.29-.07.43.43,0,0,0,.07-.3,9.06,9.06,0,0,1,.22-2.62,3.24,3.24,0,0,1,3.15-2.53H14.8c.3,0,.65,0,1,0a.26.26,0,0,1,.19.05.26.26,0,0,1,0,.18,11,11,0,0,0,0,1.15c0,.11,0,.17-.05.2a.17.17,0,0,1-.13,0h-.32a4.79,4.79,0,0,0-1.13.06A1.93,1.93,0,0,0,12.8,7.2c0,.3,0,.6,0,.89v.8a.29.29,0,0,0,.06.24.33.33,0,0,0,.25.07H14c.39,0,.83,0,1.26,0a.44.44,0,0,1,.3.07.42.42,0,0,1,.06.31,6.37,6.37,0,0,0,0,1.07.38.38,0,0,1-.05.27c-.05.06-.14.08-.31.07H13.17a.38.38,0,0,0-.3.07.4.4,0,0,0-.09.31c0,1.19,0,2.37,0,3.55,0,1.38,0,2.81,0,4.21a.45.45,0,0,1-.08.33A.38.38,0,0,1,12.44,19.5Zm-1.07-.14,1,0s.2,0,.25,0a.47.47,0,0,0,0-.25c0-1.4,0-2.83,0-4.21V11.34a.53.53,0,0,1,.11-.39.52.52,0,0,1,.4-.11h2.11c.15,0,.2,0,.21,0s0,0,0-.18a6.61,6.61,0,0,1,0-1.09.4.4,0,0,0,0-.22s-.05,0-.21,0c-.44,0-.88,0-1.27,0H13.1a.49.49,0,0,1-.34-.09.46.46,0,0,1-.09-.33c0-.26,0-.54,0-.78v0c0-.29,0-.59,0-.89a2,2,0,0,1,1.69-1.95,4.5,4.5,0,0,1,1.15-.07h.37a.32.32,0,0,0,0-.11,11.41,11.41,0,0,1,0-1.17.24.24,0,0,0,0-.09H14.8c-.45,0-1,0-1.45,0a3.12,3.12,0,0,0-3,2.44,9.17,9.17,0,0,0-.21,2.59.51.51,0,0,1-.11.38.48.48,0,0,1-.37.11H7.26a.36.36,0,0,0,0,.1c0,.42,0,.85,0,1.28a.55.55,0,0,0,0,.14.32.32,0,0,0,.13,0H9.62a.45.45,0,0,1,.36.1.5.5,0,0,1,.11.36c0,1,0,2,0,2.94v2c0,.91,0,1.93,0,2.94,0,.13,0,.15,0,.15s0,0,.15,0Z"/><g class="cls-2"><g id="_Grupo_" data-name="&lt;Grupo&gt;"><path id="_Trazado_" data-name="&lt;Trazado&gt;" class="cls-3" d="M17,10.8c0-1.05,1,.63.89-.3-1-.1,1.16-.92,0-1.18C17.56,9.59,16.16,11.22,17,10.8Z"/><path id="_Trazado_2" data-name="&lt;Trazado&gt;" class="cls-3" d="M17.61,12.29c-.16,0-.33.24,0,.29.6-.6.08-.79-.29-1.18C21.19,10,14.82,11.56,17.61,12.29Z"/><path id="_Trazado_3" data-name="&lt;Trazado&gt;" class="cls-3" d="M17.32,9.32c-.83-1.12,1.43.2,1.78-.6h-.89c.26-1-.46-.93-.89-1.19-.61.8-.29,1.13-.6,1.79C16.84,9.65,18.16,9.65,17.32,9.32Z"/><path id="_Trazado_4" data-name="&lt;Trazado&gt;" class="cls-3" d="M8.4,11.09c-1.1,0-2.05.14-2.08,1.2.18,0,.35,0,.29.29h.6C6.82,11.3,8.62,12.21,8.4,11.09Z"/><path id="_Trazado_5" data-name="&lt;Trazado&gt;" class="cls-3" d="M14.94,22.69c0-.31-.14-.75-.3-.29-.32,1,.44.89,1.49,1.78.06-.23,0-.59.29-.59,0,.16.24.33.3,0-.39-.73-.9.53-1.19-.31,0,.23,0-1.72-.3-1.18C15.17,22.33,15.22,22.68,14.94,22.69Z"/><path id="_Trazado_6" data-name="&lt;Trazado&gt;" class="cls-3" d="M17.91,14.67c-.12-1.59.24-.84,1.19-1.19-.46.72,1,.87.89.29C19.22,12.9,16.71,13.08,17.91,14.67Z"/></g></g></svg>