<svg id="Capa_1" data-name="Capa 1" xmlns="http://www.w3.org/2000/svg" xmlns:xlink="http://www.w3.org/1999/xlink" viewBox="0 0 23.17 23.17"><defs><style>.cls-1{fill:none;}.cls-2{clip-path:url(#clip-path);}.cls-3{fill:#ffa502;}</style><clipPath id="clip-path"><rect class="cls-1" x="-1065.57" y="52.54" width="1010.95" height="626.13"/></clipPath></defs><title>github</title><path d="M13.28,15.53a28.86,28.86,0,0,0,0,3.72,1.22,1.22,0,0,0,.31.68c.11.11.18.26.1.38s-.27.08-.41.05a1.6,1.6,0,0,1-1.2-1.65c0-1,0-2,0-3,0-.14.13-.42-.16-.41s-.13.25-.14.39c0,1,0,2,0,3a1.6,1.6,0,0,1-1.22,1.69c-.13,0-.27.08-.36,0a.29.29,0,0,1,.05-.39,1.89,1.89,0,0,0,.4-1.37V15.4a1.2,1.2,0,0,0-.36.92q0,1.11,0,2.22a1.39,1.39,0,0,1-1.62,1.39c-.11,0-.23-.05-.26-.16a.2.2,0,0,1,.11-.23c.72-.33.71-1,.69-1.61,0-.38.13-.85,0-1.12s-.68,0-1,0a2.31,2.31,0,0,1-2.2-1.47A2.92,2.92,0,0,0,4.77,13.9c-.12-.07-.28-.18-.23-.33s.27-.15.42-.14a2,2,0,0,1,1.49,1.06,1.92,1.92,0,0,0,2.39.84.69.69,0,0,0,.52-.47,2,2,0,0,1,.71-1l-1.19-.23a4.84,4.84,0,0,1-3.17-2A5.93,5.93,0,0,1,5,8.41a3.8,3.8,0,0,1,.88-2.5A.63.63,0,0,0,6,5.28,3.86,3.86,0,0,1,6.1,3.15c.09-.35.26-.42.58-.37a5.08,5.08,0,0,1,2.13.89.93.93,0,0,0,.8.13,9.78,9.78,0,0,1,4.34,0,.94.94,0,0,0,.76-.15,5.05,5.05,0,0,1,2.08-.84.42.42,0,0,1,.54.37,3.77,3.77,0,0,1,.12,2,.47.47,0,0,0,.09.5c1.15,1.23,1.18,2.73,1,4.27-.27,2.8-2,3.54-4.08,3.89l-.71.11a2.5,2.5,0,0,1,.88,2.18c0,.76,0,1.52,0,2.28a1.17,1.17,0,0,0,.58,1.14c.13.07.29.15.21.32s-.24.14-.38.12c-.89-.09-1.55-.42-1.48-1.52,0-.65,0-1.31,0-2A1.14,1.14,0,0,0,13.28,15.53Zm-1.21-2.11a14.37,14.37,0,0,0,3-.29,2.42,2.42,0,0,0,1.84-1.85,2.63,2.63,0,0,0-.72-2.78A2.87,2.87,0,0,0,13.81,8,25.1,25.1,0,0,1,10,8a3,3,0,0,0-2.46.55,2.66,2.66,0,0,0,1,4.49A12.07,12.07,0,0,0,12.07,13.42Z"/><path d="M9.81,10.4c0,.55-.31,1-.7,1s-.7-.45-.7-1,.3-1,.69-1S9.81,9.84,9.81,10.4Z"/><path d="M14.14,10.43a1.37,1.37,0,0,1,.13-.63.62.62,0,0,1,.54-.39.6.6,0,0,1,.58.4,1.34,1.34,0,0,1,.14.62c0,.57-.33,1-.73,1S14.15,11,14.14,10.43Z"/><g class="cls-2"><g id="_Grupo_" data-name="&lt;Grupo&gt;"><path id="_Trazado_" data-name="&lt;Trazado&gt;" class="cls-3" d="M17,10.8c0-1.05,1,.63.89-.3-1-.1,1.16-.92,0-1.18C17.56,9.59,16.16,11.22,17,10.8Z"/><path id="_Trazado_2" data-name="&lt;Trazado&gt;" class="cls-3" d="M17.61,12.29c-.16,0-.33.24,0,.29.6-.6.08-.79-.29-1.18C21.19,10,14.82,11.56,17.61,12.29Z"/><path id="_Trazado_3" data-name="&lt;Trazado&gt;" class="cls-3" d="M17.32,9.32c-.83-1.12,1.43.2,1.78-.6h-.89c.26-1-.46-.93-.89-1.19-.61.8-.29,1.13-.6,1.79C16.84,9.65,18.16,9.65,17.32,9.32Z"/><path id="_Trazado_4" data-name="&lt;Trazado&gt;" class="cls-3" d="M8.4,11.09c-1.1,0-2.05.14-2.08,1.2.18,0,.35,0,.29.29h.6C6.82,11.3,8.62,12.21,8.4,11.09Z"/><path id="_Trazado_5" data-name="&lt;Trazado&gt;" class="cls-3" d="M14.94,22.69c0-.31-.14-.75-.3-.29-.32,1,.44.89,1.49,1.78.06-.23,0-.59.29-.59,0,.16.24.33.3,0-.39-.73-.9.53-1.19-.31,0,.23,0-1.72-.3-1.18C15.17,22.33,15.22,22.68,14.94,22.69Z"/><path id="_Trazado_6" data-name="&lt;Trazado&gt;" class="cls-3" d="M17.91,14.67c-.12-1.59.24-.84,1.19-1.19-.46.72,1,.87.89.29C19.22,12.9,16.71,13.08,17.91,14.67Z"/></g></g></svg>