<svg id="Capa_1" data-name="Capa 1" xmlns="http://www.w3.org/2000/svg" xmlns:xlink="http://www.w3.org/1999/xlink" viewBox="0 0 23.17 23.17"><defs><style>.cls-1{fill:none;}.cls-2{clip-path:url(#clip-path);}.cls-3{fill:#ffa502;}</style><clipPath id="clip-path"><rect class="cls-1" x="-1065.57" y="52.54" width="1010.95" height="626.13"/></clipPath></defs><title>instagram</title><g id="_Grupo_" data-name="&lt;Grupo&gt;"><g id="_Grupo_2" data-name="&lt;Grupo&gt;"><path d="M11.58,5.54c2,0,2.21,0,3,0a4.06,4.06,0,0,1,1.37.25,2.45,2.45,0,0,1,.85.55,2.27,2.27,0,0,1,.55.85,4.26,4.26,0,0,1,.26,1.37c0,.78,0,1,0,3s0,2.21,0,3a4.26,4.26,0,0,1-.26,1.37,2.42,2.42,0,0,1-1.4,1.4,4,4,0,0,1-1.37.26c-.77,0-1,0-3,0s-2.2,0-3,0a4,4,0,0,1-1.37-.26,2.27,2.27,0,0,1-.85-.55,2.45,2.45,0,0,1-.55-.85,4.06,4.06,0,0,1-.25-1.37c0-.77,0-1,0-3s0-2.2,0-3a4.06,4.06,0,0,1,.25-1.37,2.42,2.42,0,0,1,1.4-1.4A4.06,4.06,0,0,1,8.6,5.58c.78,0,1,0,3,0m0-1.33c-2,0-2.25,0-3,0a5.63,5.63,0,0,0-1.79.34A3.75,3.75,0,0,0,4.59,6.75a5.63,5.63,0,0,0-.34,1.79c0,.79,0,1,0,3s0,2.26,0,3a5.64,5.64,0,0,0,.34,1.8,3.65,3.65,0,0,0,.85,1.3,3.78,3.78,0,0,0,1.31.85,5.6,5.6,0,0,0,1.79.35c.79,0,1,0,3,0s2.26,0,3,0a5.61,5.61,0,0,0,1.8-.35,3.79,3.79,0,0,0,2.15-2.15,5.61,5.61,0,0,0,.35-1.8c0-.78,0-1,0-3s0-2.25,0-3a5.6,5.6,0,0,0-.35-1.79,3.78,3.78,0,0,0-.85-1.31,3.65,3.65,0,0,0-1.3-.85,5.64,5.64,0,0,0-1.8-.34c-.78,0-1,0-3,0"/></g><g id="_Grupo_3" data-name="&lt;Grupo&gt;"><path d="M11.58,7.8a3.79,3.79,0,1,0,3.79,3.78A3.78,3.78,0,0,0,11.58,7.8m0,6.24A2.46,2.46,0,1,1,14,11.58,2.46,2.46,0,0,1,11.58,14"/></g><g id="_Grupo_4" data-name="&lt;Grupo&gt;"><path d="M16.41,7.65a.89.89,0,1,1-.89-.89.89.89,0,0,1,.89.89"/></g></g><g class="cls-2"><g id="_Grupo_5" data-name="&lt;Grupo&gt;"><path id="_Trazado_" data-name="&lt;Trazado&gt;" class="cls-3" d="M17,10.8c0-1.05,1,.63.89-.3-1-.1,1.16-.92,0-1.18C17.56,9.59,16.16,11.22,17,10.8Z"/><path id="_Trazado_2" data-name="&lt;Trazado&gt;" class="cls-3" d="M17.61,12.29c-.16,0-.33.24,0,.29.6-.6.08-.79-.29-1.18C21.19,10,14.82,11.56,17.61,12.29Z"/><path id="_Trazado_3" data-name="&lt;Trazado&gt;" class="cls-3" d="M17.32,9.32c-.83-1.12,1.43.2,1.78-.6h-.89c.26-1-.46-.93-.89-1.19-.61.8-.29,1.13-.6,1.79C16.84,9.65,18.16,9.65,17.32,9.32Z"/><path id="_Trazado_4" data-name="&lt;Trazado&gt;" class="cls-3" d="M8.4,11.09c-1.1,0-2.05.14-2.08,1.2.18,0,.35,0,.29.29h.6C6.82,11.3,8.62,12.21,8.4,11.09Z"/><path id="_Trazado_5" data-name="&lt;Trazado&gt;" class="cls-3" d="M14.94,22.69c0-.31-.14-.75-.3-.29-.32,1,.44.89,1.49,1.78.06-.23,0-.59.29-.59,0,.16.24.33.3,0-.39-.73-.9.53-1.19-.31,0,.23,0-1.72-.3-1.18C15.17,22.33,15.22,22.68,14.94,22.69Z"/><path id="_Trazado_6" data-name="&lt;Trazado&gt;" class="cls-3" d="M17.91,14.67c-.12-1.59.24-.84,1.19-1.19-.46.72,1,.87.89.29C19.22,12.9,16.71,13.08,17.91,14.67Z"/></g></g></svg>