<svg version="1.1" id="el_fl4JQHBM3" xmlns="http://www.w3.org/2000/svg" xmlns:xlink="http://www.w3.org/1999/xlink" x="0px" y="0px" viewBox="0 0 39 34" style="enable-background:new 0 0 39.5 34;" xml:space="preserve"><style type="text/css">@-webkit-keyframes kf_el_Pml_nJyfGH_an_F6XGDajnA {
    0% {
        -webkit-transform: translate(27.437498092651367px, 25.399999618530273px) scale(1.5, 1.5) translate(-27.437498092651367px, -25.399999618530273px);
                transform: translate(27.437498092651367px, 25.399999618530273px) scale(1.5, 1.5) translate(-27.437498092651367px, -25.399999618530273px)
    }
    18.89% {
        -webkit-transform: translate(27.437498092651367px, 25.399999618530273px) scale(1.8, 1.8) translate(-27.437498092651367px, -25.399999618530273px);
                transform: translate(27.437498092651367px, 25.399999618530273px) scale(1.8, 1.8) translate(-27.437498092651367px, -25.399999618530273px)
    }
    100% {
        -webkit-transform: translate(27.437498092651367px, 25.399999618530273px) scale(1.5, 1.5) translate(-27.437498092651367px, -25.399999618530273px);
                transform: translate(27.437498092651367px, 25.399999618530273px) scale(1.5, 1.5) translate(-27.437498092651367px, -25.399999618530273px)
    }
}
@keyframes kf_el_Pml_nJyfGH_an_F6XGDajnA {
    0% {
        -webkit-transform: translate(27.437498092651367px, 25.399999618530273px) scale(1.5, 1.5) translate(-27.437498092651367px, -25.399999618530273px);
                transform: translate(27.437498092651367px, 25.399999618530273px) scale(1.5, 1.5) translate(-27.437498092651367px, -25.399999618530273px)
    }
    18.89% {
        -webkit-transform: translate(27.437498092651367px, 25.399999618530273px) scale(1.8, 1.8) translate(-27.437498092651367px, -25.399999618530273px);
                transform: translate(27.437498092651367px, 25.399999618530273px) scale(1.8, 1.8) translate(-27.437498092651367px, -25.399999618530273px)
    }
    100% {
        -webkit-transform: translate(27.437498092651367px, 25.399999618530273px) scale(1.5, 1.5) translate(-27.437498092651367px, -25.399999618530273px);
                transform: translate(27.437498092651367px, 25.399999618530273px) scale(1.5, 1.5) translate(-27.437498092651367px, -25.399999618530273px)
    }
}
@-webkit-keyframes kf_el_fqkSORL9YV_an_owdE1i8ta {
    0% {
        -webkit-transform: translate(27.100000381469727px, 28.149999618530273px) scale(1, 1) translate(-27.100000381469727px, -28.149999618530273px);
                transform: translate(27.100000381469727px, 28.149999618530273px) scale(1, 1) translate(-27.100000381469727px, -28.149999618530273px)
    }
    21.11% {
        -webkit-transform: translate(27.100000381469727px, 28.149999618530273px) scale(1.03, 1.03) translate(-27.100000381469727px, -28.149999618530273px);
                transform: translate(27.100000381469727px, 28.149999618530273px) scale(1.03, 1.03) translate(-27.100000381469727px, -28.149999618530273px)
    }
    44.44% {
        -webkit-transform: translate(27.100000381469727px, 28.149999618530273px) scale(1, 1) translate(-27.100000381469727px, -28.149999618530273px);
                transform: translate(27.100000381469727px, 28.149999618530273px) scale(1, 1) translate(-27.100000381469727px, -28.149999618530273px)
    }
    100% {
        -webkit-transform: translate(27.100000381469727px, 28.149999618530273px) scale(1, 1) translate(-27.100000381469727px, -28.149999618530273px);
                transform: translate(27.100000381469727px, 28.149999618530273px) scale(1, 1) translate(-27.100000381469727px, -28.149999618530273px)
    }
}
@keyframes kf_el_fqkSORL9YV_an_owdE1i8ta {
    0% {
        -webkit-transform: translate(27.100000381469727px, 28.149999618530273px) scale(1, 1) translate(-27.100000381469727px, -28.149999618530273px);
                transform: translate(27.100000381469727px, 28.149999618530273px) scale(1, 1) translate(-27.100000381469727px, -28.149999618530273px)
    }
    21.11% {
        -webkit-transform: translate(27.100000381469727px, 28.149999618530273px) scale(1.03, 1.03) translate(-27.100000381469727px, -28.149999618530273px);
                transform: translate(27.100000381469727px, 28.149999618530273px) scale(1.03, 1.03) translate(-27.100000381469727px, -28.149999618530273px)
    }
    44.44% {
        -webkit-transform: translate(27.100000381469727px, 28.149999618530273px) scale(1, 1) translate(-27.100000381469727px, -28.149999618530273px);
                transform: translate(27.100000381469727px, 28.149999618530273px) scale(1, 1) translate(-27.100000381469727px, -28.149999618530273px)
    }
    100% {
        -webkit-transform: translate(27.100000381469727px, 28.149999618530273px) scale(1, 1) translate(-27.100000381469727px, -28.149999618530273px);
                transform: translate(27.100000381469727px, 28.149999618530273px) scale(1, 1) translate(-27.100000381469727px, -28.149999618530273px)
    }
}
@-webkit-keyframes kf_el_NcUaWEqfZ1_an_ZpYTQfFkS {
    0% {
        -webkit-transform: translate(23.39961051940918px, 25.748363494873047px) rotate(0deg) translate(-23.39961051940918px, -25.748363494873047px);
                transform: translate(23.39961051940918px, 25.748363494873047px) rotate(0deg) translate(-23.39961051940918px, -25.748363494873047px)
    }
    28.89% {
        -webkit-transform: translate(23.39961051940918px, 25.748363494873047px) rotate(360deg) translate(-23.39961051940918px, -25.748363494873047px);
                transform: translate(23.39961051940918px, 25.748363494873047px) rotate(360deg) translate(-23.39961051940918px, -25.748363494873047px)
    }
    60% {
        -webkit-transform: translate(23.39961051940918px, 25.748363494873047px) rotate(-360deg) translate(-23.39961051940918px, -25.748363494873047px);
                transform: translate(23.39961051940918px, 25.748363494873047px) rotate(-360deg) translate(-23.39961051940918px, -25.748363494873047px)
    }
    100% {
        -webkit-transform: translate(23.39961051940918px, 25.748363494873047px) rotate(0deg) translate(-23.39961051940918px, -25.748363494873047px);
                transform: translate(23.39961051940918px, 25.748363494873047px) rotate(0deg) translate(-23.39961051940918px, -25.748363494873047px)
    }
}
@keyframes kf_el_NcUaWEqfZ1_an_ZpYTQfFkS {
    0% {
        -webkit-transform: translate(23.39961051940918px, 25.748363494873047px) rotate(0deg) translate(-23.39961051940918px, -25.748363494873047px);
                transform: translate(23.39961051940918px, 25.748363494873047px) rotate(0deg) translate(-23.39961051940918px, -25.748363494873047px)
    }
    28.89% {
        -webkit-transform: translate(23.39961051940918px, 25.748363494873047px) rotate(360deg) translate(-23.39961051940918px, -25.748363494873047px);
                transform: translate(23.39961051940918px, 25.748363494873047px) rotate(360deg) translate(-23.39961051940918px, -25.748363494873047px)
    }
    60% {
        -webkit-transform: translate(23.39961051940918px, 25.748363494873047px) rotate(-360deg) translate(-23.39961051940918px, -25.748363494873047px);
                transform: translate(23.39961051940918px, 25.748363494873047px) rotate(-360deg) translate(-23.39961051940918px, -25.748363494873047px)
    }
    100% {
        -webkit-transform: translate(23.39961051940918px, 25.748363494873047px) rotate(0deg) translate(-23.39961051940918px, -25.748363494873047px);
                transform: translate(23.39961051940918px, 25.748363494873047px) rotate(0deg) translate(-23.39961051940918px, -25.748363494873047px)
    }
}
@-webkit-keyframes kf_el_iizMizZNhH_an_s9PkU9Ybu {
    0% {
        -webkit-transform: translate(24.20612621307373px, 29.277605056762695px) rotate(0deg) translate(-24.20612621307373px, -29.277605056762695px);
                transform: translate(24.20612621307373px, 29.277605056762695px) rotate(0deg) translate(-24.20612621307373px, -29.277605056762695px)
    }
    28.89% {
        -webkit-transform: translate(24.20612621307373px, 29.277605056762695px) rotate(360deg) translate(-24.20612621307373px, -29.277605056762695px);
                transform: translate(24.20612621307373px, 29.277605056762695px) rotate(360deg) translate(-24.20612621307373px, -29.277605056762695px)
    }
    60% {
        -webkit-transform: translate(24.20612621307373px, 29.277605056762695px) rotate(-360deg) translate(-24.20612621307373px, -29.277605056762695px);
                transform: translate(24.20612621307373px, 29.277605056762695px) rotate(-360deg) translate(-24.20612621307373px, -29.277605056762695px)
    }
    100% {
        -webkit-transform: translate(24.20612621307373px, 29.277605056762695px) rotate(0deg) translate(-24.20612621307373px, -29.277605056762695px);
                transform: translate(24.20612621307373px, 29.277605056762695px) rotate(0deg) translate(-24.20612621307373px, -29.277605056762695px)
    }
}
@keyframes kf_el_iizMizZNhH_an_s9PkU9Ybu {
    0% {
        -webkit-transform: translate(24.20612621307373px, 29.277605056762695px) rotate(0deg) translate(-24.20612621307373px, -29.277605056762695px);
                transform: translate(24.20612621307373px, 29.277605056762695px) rotate(0deg) translate(-24.20612621307373px, -29.277605056762695px)
    }
    28.89% {
        -webkit-transform: translate(24.20612621307373px, 29.277605056762695px) rotate(360deg) translate(-24.20612621307373px, -29.277605056762695px);
                transform: translate(24.20612621307373px, 29.277605056762695px) rotate(360deg) translate(-24.20612621307373px, -29.277605056762695px)
    }
    60% {
        -webkit-transform: translate(24.20612621307373px, 29.277605056762695px) rotate(-360deg) translate(-24.20612621307373px, -29.277605056762695px);
                transform: translate(24.20612621307373px, 29.277605056762695px) rotate(-360deg) translate(-24.20612621307373px, -29.277605056762695px)
    }
    100% {
        -webkit-transform: translate(24.20612621307373px, 29.277605056762695px) rotate(0deg) translate(-24.20612621307373px, -29.277605056762695px);
                transform: translate(24.20612621307373px, 29.277605056762695px) rotate(0deg) translate(-24.20612621307373px, -29.277605056762695px)
    }
}
@-webkit-keyframes kf_el_LCaa5-nviR_an_vuHWsNg8L {
    0% {
        -webkit-transform: translate(6.619615316390991px, 15.630385398864746px) scale(1, 1) translate(-6.619615316390991px, -15.630385398864746px);
                transform: translate(6.619615316390991px, 15.630385398864746px) scale(1, 1) translate(-6.619615316390991px, -15.630385398864746px)
    }
    22.22% {
        -webkit-transform: translate(6.619615316390991px, 15.630385398864746px) scale(0.3, 0.3) translate(-6.619615316390991px, -15.630385398864746px);
                transform: translate(6.619615316390991px, 15.630385398864746px) scale(0.3, 0.3) translate(-6.619615316390991px, -15.630385398864746px)
    }
    45.56% {
        -webkit-transform: translate(6.619615316390991px, 15.630385398864746px) scale(0.8, 0.8) translate(-6.619615316390991px, -15.630385398864746px);
                transform: translate(6.619615316390991px, 15.630385398864746px) scale(0.8, 0.8) translate(-6.619615316390991px, -15.630385398864746px)
    }
    82.22% {
        -webkit-transform: translate(6.619615316390991px, 15.630385398864746px) scale(1.05, 1.05) translate(-6.619615316390991px, -15.630385398864746px);
                transform: translate(6.619615316390991px, 15.630385398864746px) scale(1.05, 1.05) translate(-6.619615316390991px, -15.630385398864746px)
    }
    100% {
        -webkit-transform: translate(6.619615316390991px, 15.630385398864746px) scale(1, 1) translate(-6.619615316390991px, -15.630385398864746px);
                transform: translate(6.619615316390991px, 15.630385398864746px) scale(1, 1) translate(-6.619615316390991px, -15.630385398864746px)
    }
}
@keyframes kf_el_LCaa5-nviR_an_vuHWsNg8L {
    0% {
        -webkit-transform: translate(6.619615316390991px, 15.630385398864746px) scale(1, 1) translate(-6.619615316390991px, -15.630385398864746px);
                transform: translate(6.619615316390991px, 15.630385398864746px) scale(1, 1) translate(-6.619615316390991px, -15.630385398864746px)
    }
    22.22% {
        -webkit-transform: translate(6.619615316390991px, 15.630385398864746px) scale(0.3, 0.3) translate(-6.619615316390991px, -15.630385398864746px);
                transform: translate(6.619615316390991px, 15.630385398864746px) scale(0.3, 0.3) translate(-6.619615316390991px, -15.630385398864746px)
    }
    45.56% {
        -webkit-transform: translate(6.619615316390991px, 15.630385398864746px) scale(0.8, 0.8) translate(-6.619615316390991px, -15.630385398864746px);
                transform: translate(6.619615316390991px, 15.630385398864746px) scale(0.8, 0.8) translate(-6.619615316390991px, -15.630385398864746px)
    }
    82.22% {
        -webkit-transform: translate(6.619615316390991px, 15.630385398864746px) scale(1.05, 1.05) translate(-6.619615316390991px, -15.630385398864746px);
                transform: translate(6.619615316390991px, 15.630385398864746px) scale(1.05, 1.05) translate(-6.619615316390991px, -15.630385398864746px)
    }
    100% {
        -webkit-transform: translate(6.619615316390991px, 15.630385398864746px) scale(1, 1) translate(-6.619615316390991px, -15.630385398864746px);
                transform: translate(6.619615316390991px, 15.630385398864746px) scale(1, 1) translate(-6.619615316390991px, -15.630385398864746px)
    }
}
@-webkit-keyframes kf_el_IQctTHgWq2_an_6zyfZgE0s {
    0% {
        -webkit-transform: translate(22.30760383605957px, 22.430306434631348px) rotate(0deg) translate(-22.30760383605957px, -22.430306434631348px);
                transform: translate(22.30760383605957px, 22.430306434631348px) rotate(0deg) translate(-22.30760383605957px, -22.430306434631348px)
    }
    28.89% {
        -webkit-transform: translate(22.30760383605957px, 22.430306434631348px) rotate(360deg) translate(-22.30760383605957px, -22.430306434631348px);
                transform: translate(22.30760383605957px, 22.430306434631348px) rotate(360deg) translate(-22.30760383605957px, -22.430306434631348px)
    }
    60% {
        -webkit-transform: translate(22.30760383605957px, 22.430306434631348px) rotate(-360deg) translate(-22.30760383605957px, -22.430306434631348px);
                transform: translate(22.30760383605957px, 22.430306434631348px) rotate(-360deg) translate(-22.30760383605957px, -22.430306434631348px)
    }
    100% {
        -webkit-transform: translate(22.30760383605957px, 22.430306434631348px) rotate(0deg) translate(-22.30760383605957px, -22.430306434631348px);
                transform: translate(22.30760383605957px, 22.430306434631348px) rotate(0deg) translate(-22.30760383605957px, -22.430306434631348px)
    }
}
@keyframes kf_el_IQctTHgWq2_an_6zyfZgE0s {
    0% {
        -webkit-transform: translate(22.30760383605957px, 22.430306434631348px) rotate(0deg) translate(-22.30760383605957px, -22.430306434631348px);
                transform: translate(22.30760383605957px, 22.430306434631348px) rotate(0deg) translate(-22.30760383605957px, -22.430306434631348px)
    }
    28.89% {
        -webkit-transform: translate(22.30760383605957px, 22.430306434631348px) rotate(360deg) translate(-22.30760383605957px, -22.430306434631348px);
                transform: translate(22.30760383605957px, 22.430306434631348px) rotate(360deg) translate(-22.30760383605957px, -22.430306434631348px)
    }
    60% {
        -webkit-transform: translate(22.30760383605957px, 22.430306434631348px) rotate(-360deg) translate(-22.30760383605957px, -22.430306434631348px);
                transform: translate(22.30760383605957px, 22.430306434631348px) rotate(-360deg) translate(-22.30760383605957px, -22.430306434631348px)
    }
    100% {
        -webkit-transform: translate(22.30760383605957px, 22.430306434631348px) rotate(0deg) translate(-22.30760383605957px, -22.430306434631348px);
                transform: translate(22.30760383605957px, 22.430306434631348px) rotate(0deg) translate(-22.30760383605957px, -22.430306434631348px)
    }
}
@-webkit-keyframes kf_el_Pml_nJyfGH_an_3eytW6HaH {
    0% {
        opacity: 0
    }
    62.22% {
        opacity: 0
    }
    72.22% {
        opacity: 1
    }
    91.11% {
        opacity: 1
    }
    100% {
        opacity: 0
    }
}
@keyframes kf_el_Pml_nJyfGH_an_3eytW6HaH {
    0% {
        opacity: 0
    }
    62.22% {
        opacity: 0
    }
    72.22% {
        opacity: 1
    }
    91.11% {
        opacity: 1
    }
    100% {
        opacity: 0
    }
}
@-webkit-keyframes kf_el_Pml_nJyfGH_an_lRr4zDf6c {
    52.22% {
        -webkit-transform: translate(27.437498092651367px, 25.399999618530273px) translate(-27.437498092651367px, -25.399999618530273px) translate(0px, 0px);
                transform: translate(27.437498092651367px, 25.399999618530273px) translate(-27.437498092651367px, -25.399999618530273px) translate(0px, 0px)
    }
    65.56% {
        -webkit-transform: translate(27.437498092651367px, 25.399999618530273px) translate(-27.437498092651367px, -25.399999618530273px) translate(3px, -5px);
                transform: translate(27.437498092651367px, 25.399999618530273px) translate(-27.437498092651367px, -25.399999618530273px) translate(3px, -5px)
    }
    84.44% {
        -webkit-transform: translate(27.437498092651367px, 25.399999618530273px) translate(-27.437498092651367px, -25.399999618530273px) translate(-3px, -10px);
                transform: translate(27.437498092651367px, 25.399999618530273px) translate(-27.437498092651367px, -25.399999618530273px) translate(-3px, -10px)
    }
    100% {
        -webkit-transform: translate(27.437498092651367px, 25.399999618530273px) translate(-27.437498092651367px, -25.399999618530273px) translate(4px, -20px);
                transform: translate(27.437498092651367px, 25.399999618530273px) translate(-27.437498092651367px, -25.399999618530273px) translate(4px, -20px)
    }
    0% {
        -webkit-transform: translate(27.437498092651367px, 25.399999618530273px) translate(-27.437498092651367px, -25.399999618530273px) translate(0px, 0px);
                transform: translate(27.437498092651367px, 25.399999618530273px) translate(-27.437498092651367px, -25.399999618530273px) translate(0px, 0px)
    }
}
@keyframes kf_el_Pml_nJyfGH_an_lRr4zDf6c {
    52.22% {
        -webkit-transform: translate(27.437498092651367px, 25.399999618530273px) translate(-27.437498092651367px, -25.399999618530273px) translate(0px, 0px);
                transform: translate(27.437498092651367px, 25.399999618530273px) translate(-27.437498092651367px, -25.399999618530273px) translate(0px, 0px)
    }
    65.56% {
        -webkit-transform: translate(27.437498092651367px, 25.399999618530273px) translate(-27.437498092651367px, -25.399999618530273px) translate(3px, -5px);
                transform: translate(27.437498092651367px, 25.399999618530273px) translate(-27.437498092651367px, -25.399999618530273px) translate(3px, -5px)
    }
    84.44% {
        -webkit-transform: translate(27.437498092651367px, 25.399999618530273px) translate(-27.437498092651367px, -25.399999618530273px) translate(-3px, -10px);
                transform: translate(27.437498092651367px, 25.399999618530273px) translate(-27.437498092651367px, -25.399999618530273px) translate(-3px, -10px)
    }
    100% {
        -webkit-transform: translate(27.437498092651367px, 25.399999618530273px) translate(-27.437498092651367px, -25.399999618530273px) translate(4px, -20px);
                transform: translate(27.437498092651367px, 25.399999618530273px) translate(-27.437498092651367px, -25.399999618530273px) translate(4px, -20px)
    }
    0% {
        -webkit-transform: translate(27.437498092651367px, 25.399999618530273px) translate(-27.437498092651367px, -25.399999618530273px) translate(0px, 0px);
                transform: translate(27.437498092651367px, 25.399999618530273px) translate(-27.437498092651367px, -25.399999618530273px) translate(0px, 0px)
    }
}
@-webkit-keyframes kf_el_KOwrD7oEFh_an_k9iBOxV6K {
    8.89% {
        -webkit-transform: translate(18.070095539093018px, 19.09999942779541px) translate(-18.070095539093018px, -19.09999942779541px) translate(0px, 0px);
                transform: translate(18.070095539093018px, 19.09999942779541px) translate(-18.070095539093018px, -19.09999942779541px) translate(0px, 0px)
    }
    11.11% {
        -webkit-transform: translate(18.070095539093018px, 19.09999942779541px) translate(-18.070095539093018px, -19.09999942779541px) translate(0px, -5px);
                transform: translate(18.070095539093018px, 19.09999942779541px) translate(-18.070095539093018px, -19.09999942779541px) translate(0px, -5px)
    }
    13.33% {
        -webkit-transform: translate(18.070095539093018px, 19.09999942779541px) translate(-18.070095539093018px, -19.09999942779541px) translate(0px, 1px);
                transform: translate(18.070095539093018px, 19.09999942779541px) translate(-18.070095539093018px, -19.09999942779541px) translate(0px, 1px)
    }
    15.56% {
        -webkit-transform: translate(18.070095539093018px, 19.09999942779541px) translate(-18.070095539093018px, -19.09999942779541px) translate(0px, 0px);
                transform: translate(18.070095539093018px, 19.09999942779541px) translate(-18.070095539093018px, -19.09999942779541px) translate(0px, 0px)
    }
    17.78% {
        -webkit-transform: translate(18.070095539093018px, 19.09999942779541px) translate(-18.070095539093018px, -19.09999942779541px) translate(-4px, 0px);
                transform: translate(18.070095539093018px, 19.09999942779541px) translate(-18.070095539093018px, -19.09999942779541px) translate(-4px, 0px)
    }
    20% {
        -webkit-transform: translate(18.070095539093018px, 19.09999942779541px) translate(-18.070095539093018px, -19.09999942779541px) translate(0px, 0px);
                transform: translate(18.070095539093018px, 19.09999942779541px) translate(-18.070095539093018px, -19.09999942779541px) translate(0px, 0px)
    }
    22.22% {
        -webkit-transform: translate(18.070095539093018px, 19.09999942779541px) translate(-18.070095539093018px, -19.09999942779541px) translate(0px, -5px);
                transform: translate(18.070095539093018px, 19.09999942779541px) translate(-18.070095539093018px, -19.09999942779541px) translate(0px, -5px)
    }
    24.44% {
        -webkit-transform: translate(18.070095539093018px, 19.09999942779541px) translate(-18.070095539093018px, -19.09999942779541px) translate(0px, 1px);
                transform: translate(18.070095539093018px, 19.09999942779541px) translate(-18.070095539093018px, -19.09999942779541px) translate(0px, 1px)
    }
    26.67% {
        -webkit-transform: translate(18.070095539093018px, 19.09999942779541px) translate(-18.070095539093018px, -19.09999942779541px) translate(0px, 0px);
                transform: translate(18.070095539093018px, 19.09999942779541px) translate(-18.070095539093018px, -19.09999942779541px) translate(0px, 0px)
    }
    28.89% {
        -webkit-transform: translate(18.070095539093018px, 19.09999942779541px) translate(-18.070095539093018px, -19.09999942779541px) translate(0px, -5px);
                transform: translate(18.070095539093018px, 19.09999942779541px) translate(-18.070095539093018px, -19.09999942779541px) translate(0px, -5px)
    }
    31.11% {
        -webkit-transform: translate(18.070095539093018px, 19.09999942779541px) translate(-18.070095539093018px, -19.09999942779541px) translate(0px, 1px);
                transform: translate(18.070095539093018px, 19.09999942779541px) translate(-18.070095539093018px, -19.09999942779541px) translate(0px, 1px)
    }
    33.33% {
        -webkit-transform: translate(18.070095539093018px, 19.09999942779541px) translate(-18.070095539093018px, -19.09999942779541px) translate(0px, 0px);
                transform: translate(18.070095539093018px, 19.09999942779541px) translate(-18.070095539093018px, -19.09999942779541px) translate(0px, 0px)
    }
    35.56% {
        -webkit-transform: translate(18.070095539093018px, 19.09999942779541px) translate(-18.070095539093018px, -19.09999942779541px) translate(-4px, 0px);
                transform: translate(18.070095539093018px, 19.09999942779541px) translate(-18.070095539093018px, -19.09999942779541px) translate(-4px, 0px)
    }
    37.78% {
        -webkit-transform: translate(18.070095539093018px, 19.09999942779541px) translate(-18.070095539093018px, -19.09999942779541px) translate(0px, 0px);
                transform: translate(18.070095539093018px, 19.09999942779541px) translate(-18.070095539093018px, -19.09999942779541px) translate(0px, 0px)
    }
    40% {
        -webkit-transform: translate(18.070095539093018px, 19.09999942779541px) translate(-18.070095539093018px, -19.09999942779541px) translate(0px, -5px);
                transform: translate(18.070095539093018px, 19.09999942779541px) translate(-18.070095539093018px, -19.09999942779541px) translate(0px, -5px)
    }
    42.22% {
        -webkit-transform: translate(18.070095539093018px, 19.09999942779541px) translate(-18.070095539093018px, -19.09999942779541px) translate(0px, 1px);
                transform: translate(18.070095539093018px, 19.09999942779541px) translate(-18.070095539093018px, -19.09999942779541px) translate(0px, 1px)
    }
    44.44% {
        -webkit-transform: translate(18.070095539093018px, 19.09999942779541px) translate(-18.070095539093018px, -19.09999942779541px) translate(0px, 0px);
                transform: translate(18.070095539093018px, 19.09999942779541px) translate(-18.070095539093018px, -19.09999942779541px) translate(0px, 0px)
    }
    0% {
        -webkit-transform: translate(18.070095539093018px, 19.09999942779541px) translate(-18.070095539093018px, -19.09999942779541px) translate(0px, 0px);
                transform: translate(18.070095539093018px, 19.09999942779541px) translate(-18.070095539093018px, -19.09999942779541px) translate(0px, 0px)
    }
    100% {
        -webkit-transform: translate(18.070095539093018px, 19.09999942779541px) translate(-18.070095539093018px, -19.09999942779541px) translate(0px, 0px);
                transform: translate(18.070095539093018px, 19.09999942779541px) translate(-18.070095539093018px, -19.09999942779541px) translate(0px, 0px)
    }
}
@keyframes kf_el_KOwrD7oEFh_an_k9iBOxV6K {
    8.89% {
        -webkit-transform: translate(18.070095539093018px, 19.09999942779541px) translate(-18.070095539093018px, -19.09999942779541px) translate(0px, 0px);
                transform: translate(18.070095539093018px, 19.09999942779541px) translate(-18.070095539093018px, -19.09999942779541px) translate(0px, 0px)
    }
    11.11% {
        -webkit-transform: translate(18.070095539093018px, 19.09999942779541px) translate(-18.070095539093018px, -19.09999942779541px) translate(0px, -5px);
                transform: translate(18.070095539093018px, 19.09999942779541px) translate(-18.070095539093018px, -19.09999942779541px) translate(0px, -5px)
    }
    13.33% {
        -webkit-transform: translate(18.070095539093018px, 19.09999942779541px) translate(-18.070095539093018px, -19.09999942779541px) translate(0px, 1px);
                transform: translate(18.070095539093018px, 19.09999942779541px) translate(-18.070095539093018px, -19.09999942779541px) translate(0px, 1px)
    }
    15.56% {
        -webkit-transform: translate(18.070095539093018px, 19.09999942779541px) translate(-18.070095539093018px, -19.09999942779541px) translate(0px, 0px);
                transform: translate(18.070095539093018px, 19.09999942779541px) translate(-18.070095539093018px, -19.09999942779541px) translate(0px, 0px)
    }
    17.78% {
        -webkit-transform: translate(18.070095539093018px, 19.09999942779541px) translate(-18.070095539093018px, -19.09999942779541px) translate(-4px, 0px);
                transform: translate(18.070095539093018px, 19.09999942779541px) translate(-18.070095539093018px, -19.09999942779541px) translate(-4px, 0px)
    }
    20% {
        -webkit-transform: translate(18.070095539093018px, 19.09999942779541px) translate(-18.070095539093018px, -19.09999942779541px) translate(0px, 0px);
                transform: translate(18.070095539093018px, 19.09999942779541px) translate(-18.070095539093018px, -19.09999942779541px) translate(0px, 0px)
    }
    22.22% {
        -webkit-transform: translate(18.070095539093018px, 19.09999942779541px) translate(-18.070095539093018px, -19.09999942779541px) translate(0px, -5px);
                transform: translate(18.070095539093018px, 19.09999942779541px) translate(-18.070095539093018px, -19.09999942779541px) translate(0px, -5px)
    }
    24.44% {
        -webkit-transform: translate(18.070095539093018px, 19.09999942779541px) translate(-18.070095539093018px, -19.09999942779541px) translate(0px, 1px);
                transform: translate(18.070095539093018px, 19.09999942779541px) translate(-18.070095539093018px, -19.09999942779541px) translate(0px, 1px)
    }
    26.67% {
        -webkit-transform: translate(18.070095539093018px, 19.09999942779541px) translate(-18.070095539093018px, -19.09999942779541px) translate(0px, 0px);
                transform: translate(18.070095539093018px, 19.09999942779541px) translate(-18.070095539093018px, -19.09999942779541px) translate(0px, 0px)
    }
    28.89% {
        -webkit-transform: translate(18.070095539093018px, 19.09999942779541px) translate(-18.070095539093018px, -19.09999942779541px) translate(0px, -5px);
                transform: translate(18.070095539093018px, 19.09999942779541px) translate(-18.070095539093018px, -19.09999942779541px) translate(0px, -5px)
    }
    31.11% {
        -webkit-transform: translate(18.070095539093018px, 19.09999942779541px) translate(-18.070095539093018px, -19.09999942779541px) translate(0px, 1px);
                transform: translate(18.070095539093018px, 19.09999942779541px) translate(-18.070095539093018px, -19.09999942779541px) translate(0px, 1px)
    }
    33.33% {
        -webkit-transform: translate(18.070095539093018px, 19.09999942779541px) translate(-18.070095539093018px, -19.09999942779541px) translate(0px, 0px);
                transform: translate(18.070095539093018px, 19.09999942779541px) translate(-18.070095539093018px, -19.09999942779541px) translate(0px, 0px)
    }
    35.56% {
        -webkit-transform: translate(18.070095539093018px, 19.09999942779541px) translate(-18.070095539093018px, -19.09999942779541px) translate(-4px, 0px);
                transform: translate(18.070095539093018px, 19.09999942779541px) translate(-18.070095539093018px, -19.09999942779541px) translate(-4px, 0px)
    }
    37.78% {
        -webkit-transform: translate(18.070095539093018px, 19.09999942779541px) translate(-18.070095539093018px, -19.09999942779541px) translate(0px, 0px);
                transform: translate(18.070095539093018px, 19.09999942779541px) translate(-18.070095539093018px, -19.09999942779541px) translate(0px, 0px)
    }
    40% {
        -webkit-transform: translate(18.070095539093018px, 19.09999942779541px) translate(-18.070095539093018px, -19.09999942779541px) translate(0px, -5px);
                transform: translate(18.070095539093018px, 19.09999942779541px) translate(-18.070095539093018px, -19.09999942779541px) translate(0px, -5px)
    }
    42.22% {
        -webkit-transform: translate(18.070095539093018px, 19.09999942779541px) translate(-18.070095539093018px, -19.09999942779541px) translate(0px, 1px);
                transform: translate(18.070095539093018px, 19.09999942779541px) translate(-18.070095539093018px, -19.09999942779541px) translate(0px, 1px)
    }
    44.44% {
        -webkit-transform: translate(18.070095539093018px, 19.09999942779541px) translate(-18.070095539093018px, -19.09999942779541px) translate(0px, 0px);
                transform: translate(18.070095539093018px, 19.09999942779541px) translate(-18.070095539093018px, -19.09999942779541px) translate(0px, 0px)
    }
    0% {
        -webkit-transform: translate(18.070095539093018px, 19.09999942779541px) translate(-18.070095539093018px, -19.09999942779541px) translate(0px, 0px);
                transform: translate(18.070095539093018px, 19.09999942779541px) translate(-18.070095539093018px, -19.09999942779541px) translate(0px, 0px)
    }
    100% {
        -webkit-transform: translate(18.070095539093018px, 19.09999942779541px) translate(-18.070095539093018px, -19.09999942779541px) translate(0px, 0px);
                transform: translate(18.070095539093018px, 19.09999942779541px) translate(-18.070095539093018px, -19.09999942779541px) translate(0px, 0px)
    }
}
#el_fl4JQHBM3 * {
    -webkit-animation-duration: 3s;
            animation-duration: 3s;
    -webkit-animation-iteration-count: infinite;
            animation-iteration-count: infinite;
    -webkit-animation-timing-function: cubic-bezier(0, 0, 1, 1);
            animation-timing-function: cubic-bezier(0, 0, 1, 1)
}
#el_KOwrD7oEFh_an_k9iBOxV6K {
    -webkit-animation-fill-mode: backwards;
            animation-fill-mode: backwards;
    -webkit-transform: translate(18.070095539093018px, 19.09999942779541px) translate(-18.070095539093018px, -19.09999942779541px) translate(0px, 0px);
            transform: translate(18.070095539093018px, 19.09999942779541px) translate(-18.070095539093018px, -19.09999942779541px) translate(0px, 0px);
    -webkit-animation-name: kf_el_KOwrD7oEFh_an_k9iBOxV6K;
            animation-name: kf_el_KOwrD7oEFh_an_k9iBOxV6K;
    -webkit-animation-timing-function: cubic-bezier(0.42, 0, 0.58, 1);
            animation-timing-function: cubic-bezier(0.42, 0, 0.58, 1)
}
#el_Pml_nJyfGH_an_lRr4zDf6c {
    -webkit-animation-fill-mode: backwards;
            animation-fill-mode: backwards;
    -webkit-transform: translate(27.437498092651367px, 25.399999618530273px) translate(-27.437498092651367px, -25.399999618530273px) translate(0px, 0px);
            transform: translate(27.437498092651367px, 25.399999618530273px) translate(-27.437498092651367px, -25.399999618530273px) translate(0px, 0px);
    -webkit-animation-name: kf_el_Pml_nJyfGH_an_lRr4zDf6c;
            animation-name: kf_el_Pml_nJyfGH_an_lRr4zDf6c;
    -webkit-animation-timing-function: cubic-bezier(0.42, 0, 0.58, 1);
            animation-timing-function: cubic-bezier(0.42, 0, 0.58, 1)
}
#el_Pml_nJyfGH {
    -webkit-animation-fill-mode: backwards;
            animation-fill-mode: backwards;
    opacity: 0;
    -webkit-animation-name: kf_el_Pml_nJyfGH_an_3eytW6HaH;
            animation-name: kf_el_Pml_nJyfGH_an_3eytW6HaH;
    -webkit-animation-timing-function: cubic-bezier(0.42, 0, 0.58, 1);
            animation-timing-function: cubic-bezier(0.42, 0, 0.58, 1)
}
#el_IQctTHgWq2_an_6zyfZgE0s {
    -webkit-animation-fill-mode: backwards;
            animation-fill-mode: backwards;
    -webkit-transform: translate(22.30760383605957px, 22.430306434631348px) rotate(0deg) translate(-22.30760383605957px, -22.430306434631348px);
            transform: translate(22.30760383605957px, 22.430306434631348px) rotate(0deg) translate(-22.30760383605957px, -22.430306434631348px);
    -webkit-animation-name: kf_el_IQctTHgWq2_an_6zyfZgE0s;
            animation-name: kf_el_IQctTHgWq2_an_6zyfZgE0s;
    -webkit-animation-timing-function: cubic-bezier(0.42, 0, 0.58, 1);
            animation-timing-function: cubic-bezier(0.42, 0, 0.58, 1)
}
#el_LCaa5-nviR_an_vuHWsNg8L {
    -webkit-animation-fill-mode: backwards;
            animation-fill-mode: backwards;
    -webkit-transform: translate(6.619615316390991px, 15.630385398864746px) scale(1, 1) translate(-6.619615316390991px, -15.630385398864746px);
            transform: translate(6.619615316390991px, 15.630385398864746px) scale(1, 1) translate(-6.619615316390991px, -15.630385398864746px);
    -webkit-animation-name: kf_el_LCaa5-nviR_an_vuHWsNg8L;
            animation-name: kf_el_LCaa5-nviR_an_vuHWsNg8L;
    -webkit-animation-timing-function: cubic-bezier(0.42, 0, 0.58, 1);
            animation-timing-function: cubic-bezier(0.42, 0, 0.58, 1)
}
#el_vbdzqqFy93_an_g4nhAiygs {
    -webkit-transform: translate(23.700000762939453px, 25.399999618530273px) rotate(0deg) translate(-23.700000762939453px, -25.399999618530273px);
            transform: translate(23.700000762939453px, 25.399999618530273px) rotate(0deg) translate(-23.700000762939453px, -25.399999618530273px)
}
#el_iizMizZNhH_an_s9PkU9Ybu {
    -webkit-animation-fill-mode: backwards;
            animation-fill-mode: backwards;
    -webkit-transform: translate(24.20612621307373px, 29.277605056762695px) rotate(0deg) translate(-24.20612621307373px, -29.277605056762695px);
            transform: translate(24.20612621307373px, 29.277605056762695px) rotate(0deg) translate(-24.20612621307373px, -29.277605056762695px);
    -webkit-animation-name: kf_el_iizMizZNhH_an_s9PkU9Ybu;
            animation-name: kf_el_iizMizZNhH_an_s9PkU9Ybu;
    -webkit-animation-timing-function: cubic-bezier(0.42, 0, 0.58, 1);
            animation-timing-function: cubic-bezier(0.42, 0, 0.58, 1)
}
#el_NcUaWEqfZ1_an_ZpYTQfFkS {
    -webkit-animation-fill-mode: backwards;
            animation-fill-mode: backwards;
    -webkit-transform: translate(23.39961051940918px, 25.748363494873047px) rotate(0deg) translate(-23.39961051940918px, -25.748363494873047px);
            transform: translate(23.39961051940918px, 25.748363494873047px) rotate(0deg) translate(-23.39961051940918px, -25.748363494873047px);
    -webkit-animation-name: kf_el_NcUaWEqfZ1_an_ZpYTQfFkS;
            animation-name: kf_el_NcUaWEqfZ1_an_ZpYTQfFkS;
    -webkit-animation-timing-function: cubic-bezier(0.42, 0, 0.58, 1);
            animation-timing-function: cubic-bezier(0.42, 0, 0.58, 1)
}
#el_fqkSORL9YV_an_XVh_89nCc {
    -webkit-transform: translate(26.460769653320312px, 27.26076889038086px) translate(-26.460769653320312px, -27.26076889038086px) translate(0px, 0px);
            transform: translate(26.460769653320312px, 27.26076889038086px) translate(-26.460769653320312px, -27.26076889038086px) translate(0px, 0px)
}
#el_fqkSORL9YV_an_owdE1i8ta {
    -webkit-animation-fill-mode: backwards;
            animation-fill-mode: backwards;
    -webkit-transform: translate(27.100000381469727px, 28.149999618530273px) scale(1, 1) translate(-27.100000381469727px, -28.149999618530273px);
            transform: translate(27.100000381469727px, 28.149999618530273px) scale(1, 1) translate(-27.100000381469727px, -28.149999618530273px);
    -webkit-animation-name: kf_el_fqkSORL9YV_an_owdE1i8ta;
            animation-name: kf_el_fqkSORL9YV_an_owdE1i8ta;
    -webkit-animation-timing-function: cubic-bezier(0.42, 0, 0.58, 1);
            animation-timing-function: cubic-bezier(0.42, 0, 0.58, 1)
}
#el_Pml_nJyfGH_an_F6XGDajnA {
    -webkit-animation-fill-mode: backwards;
            animation-fill-mode: backwards;
    -webkit-transform: translate(27.437498092651367px, 25.399999618530273px) scale(1.5, 1.5) translate(-27.437498092651367px, -25.399999618530273px);
            transform: translate(27.437498092651367px, 25.399999618530273px) scale(1.5, 1.5) translate(-27.437498092651367px, -25.399999618530273px);
    -webkit-animation-name: kf_el_Pml_nJyfGH_an_F6XGDajnA;
            animation-name: kf_el_Pml_nJyfGH_an_F6XGDajnA;
    -webkit-animation-timing-function: cubic-bezier(0, 0, 1, 1);
            animation-timing-function: cubic-bezier(0, 0, 1, 1)
}</style><style/>
<title>llamada</title>
<g id="el_KOwrD7oEFh_an_k9iBOxV6K" data-animator-group="true" data-animator-type="0"><g id="el_KOwrD7oEFh">
	<path d="M19.4,31L18,21c0-0.2-0.2-0.3-0.4-0.3c-3.2,0.2-6.3-1.3-8.1-4c-0.2-0.3-0.6-0.4-1-0.2l-2.4,1.3c-0.3,0.2-0.4,0.5-0.4,0.9&#10;&#9;&#9;c0.7,2.5,1.9,4.8,3.6,6.9c1,1.4,2.3,2.6,3.7,3.5l0.1,0.1c0.2,0.1,0.4,0.1,0.5-0.1c0,0,0,0,0,0l0,0c0.1-0.2,0.1-0.4-0.1-0.5&#10;&#9;&#9;l-0.1-0.1c-1.4-0.9-2.6-2.1-3.6-3.4c-1.5-1.9-2.6-4-3.3-6.3c-0.1-0.2,0-0.4,0.2-0.4l1.8-1c0.2-0.1,0.4,0,0.5,0.1&#10;&#9;&#9;c1,1.3,2.3,2.3,3.8,3c1.3,0.6,2.7,1,4.2,1c0.2,0,0.3,0.1,0.4,0.3l1.2,8.4c0,0.2-0.1,0.4-0.3,0.4c0,0-0.1,0-0.1,0&#10;&#9;&#9;c-0.7-0.2-1.5-0.4-2.2-0.7c-0.2-0.1-0.4,0-0.5,0.1l0,0c-0.1,0.2-0.1,0.4,0.1,0.5c0,0,0,0,0.1,0c1.1,0.5,2.2,0.8,3.4,1H19&#10;&#9;&#9;c0.1,0,0.2,0,0.3-0.1C19.4,31.3,19.4,31.1,19.4,31z" id="el_ZiFAdS5UM1"/>
	<g id="el_LCaa5-nviR_an_vuHWsNg8L" data-animator-group="true" data-animator-type="2"><path d="M4.8,17c-0.2,0-0.3-0.1-0.4-0.3c0-0.2,0-0.4,0.2-0.4l3.7-2c0.2-0.1,0.4,0,0.5,0.2c0.1,0.2,0,0.4-0.2,0.5L5,17&#10;&#9;&#9;C4.9,17,4.8,17,4.8,17z" id="el_LCaa5-nviR"/></g>
	<path d="M9.3,8.9C9,8.3,8.5,7.7,8,7.2C7.2,6.5,6.3,6,5.4,5.8c-0.1,0-0.2,0-0.3,0C5,5.9,4.9,5.9,4.9,6C4.8,6.6,4.6,7.2,4.6,7.8&#10;&#9;&#9;c0,0.2,0.1,0.4,0.3,0.4c0,0,0,0,0,0l0,0c0.2,0,0.4-0.1,0.4-0.3c0-0.3,0.1-0.6,0.2-0.9c0-0.2,0.3-0.3,0.5-0.3c0,0,0,0,0.1,0&#10;&#9;&#9;C6.5,7,7,7.4,7.5,7.8l0.1,0.1c0.1,0.1,0.1,0.4,0,0.5C7.5,8.4,7.4,8.5,7.3,8.5c-0.4,0-0.7,0.2-1,0.5C6.2,9.2,6.1,9.4,6.1,9.7&#10;&#9;&#9;c0,1,0.1,2.1,0.4,3.1c0,0.2,0,0.3-0.2,0.4l-0.6,0.4c-0.2,0.1-0.4,0.1-0.5-0.1c0,0,0-0.1-0.1-0.2C5.1,12,5,10.8,5.1,9.5&#10;&#9;&#9;c0-0.2-0.1-0.4-0.4-0.4c0,0,0,0,0,0l0,0c-0.2,0-0.4,0.1-0.4,0.3c0,0,0,0,0,0c-0.1,1.7-0.1,3.4,0.2,5.1c0,0.1,0.1,0.2,0.2,0.3&#10;&#9;&#9;c0.1,0,0.1,0,0.2,0c0.1,0,0.1,0,0.2-0.1L7,13.6c0.3-0.2,0.4-0.5,0.3-0.9c-0.3-1-0.5-2-0.5-3c0-0.1,0-0.2,0.1-0.3&#10;&#9;&#9;c0.3-0.3,1.2-0.2,1.9,0.1c0.2,0.1,0.4-0.1,0.5-0.3C9.4,9.1,9.3,9,9.3,8.9L9.3,8.9z" id="el_gfijleoy3B"/>
	<g id="el_fqkSORL9YV_an_owdE1i8ta" data-animator-group="true" data-animator-type="2"><path d="M27.5,29L27.5,29c0.2-0.1,0.3-0.3,0.2-0.5c0,0,0,0,0,0l-0.5-1c-0.1-0.2-0.3-0.3-0.5-0.2l0,0c-0.2,0.1-0.3,0.3-0.2,0.5&#10;&#9;&#9;c0,0,0,0,0,0l0.5,1C27.2,29,27.4,29.1,27.5,29z" id="el_fqkSORL9YV"/></g>
	<path d="M29,31.1L28.4,30c-0.1-0.2-0.3-0.3-0.5-0.2l0,0c-0.2,0.1-0.3,0.3-0.2,0.5c0,0,0,0,0,0l0.1,0.1c0.1,0.2,0,0.4-0.2,0.5&#10;&#9;&#9;c0,0-0.1,0-0.1,0c-1,0.1-1.9,0.1-2.9,0.1c-1,0-1.7,0-2.6-0.1c-0.2,0-0.3-0.2-0.4-0.3l-1.2-9.1c0-0.2,0.1-0.4,0.3-0.4&#10;&#9;&#9;c0.5-0.1,0.9-0.3,1.4-0.5l0.4-0.2c0.2-0.1,0.4,0,0.5,0.1c0,0,0,0,0,0l3,6.3c0.1,0.2,0.3,0.3,0.5,0.2l0,0c0.2-0.1,0.3-0.3,0.2-0.5&#10;&#9;&#9;c0,0,0,0,0,0l-3.4-7.1c-0.1-0.1-0.1-0.2-0.3-0.2c-0.1,0-0.2,0-0.3,0.1c-0.8,0.6-1.6,1-2.6,1.2c-0.4,0.1-0.7,0.5-0.6,0.9l1.3,10.1&#10;&#9;&#9;c0,0.2,0.2,0.3,0.4,0.3c1.1,0.1,2.2,0.1,3.3,0.1l0,0c1.3,0,2.7-0.1,4-0.2c0.1,0,0.2-0.1,0.3-0.2C29,31.3,29,31.2,29,31.1z" id="el_jmzudCaBot"/>
	<path d="M25.6,18.9L25.6,18.9c0.2-0.1,0.3-0.3,0.2-0.6c0,0,0,0,0,0l-0.6-1.1C25.2,17.1,25,17,24.8,17c-0.2,0.1-0.4,0.3-0.3,0.5&#10;&#9;&#9;c0,0,0,0.1,0,0.1l0.6,1.1C25.2,18.9,25.4,19,25.6,18.9z" id="el_H_t6wYdiGY"/>
	<path d="M31.9,31.9c-1.5-4.1-3.2-8.1-5.2-12c-0.1-0.2-0.3-0.3-0.5-0.2l0,0c-0.2,0.1-0.3,0.3-0.2,0.5c0,0,0,0,0,0&#10;&#9;&#9;c2,3.9,3.7,7.9,5.2,11.9c0.1,0.2,0.2,0.3,0.4,0.3c0.1,0,0.2,0,0.2-0.1C31.8,32.3,31.9,32.1,31.9,31.9z" id="el_54i9eg-0Y2"/>
	<g id="el_IQctTHgWq2_an_6zyfZgE0s" data-animator-group="true" data-animator-type="1"><path d="M22.8,21.2c-0.4-0.2-1-0.2-1.4,0.1c-0.1,0.1-0.2,0.2-0.1,0.4c0,0,0,0.1,0.1,0.1l0.1,0c0.1,0.1,0.2,0.1,0.3,0&#10;&#9;&#9;c0.2-0.1,0.4-0.2,0.6-0.1c0.3,0.1,0.5,0.3,0.5,0.5c0.1,0.4-0.1,0.8-0.5,0.9c-0.1,0-0.3,0-0.4,0c-0.2-0.1-0.4-0.2-0.4-0.4&#10;&#9;&#9;c0-0.1,0-0.1-0.1-0.2c0-0.1-0.1-0.2-0.1-0.2l0,0c-0.2-0.1-0.3,0-0.4,0.1c0,0.1,0,0.1,0,0.2c0.1,0.7,0.8,1.2,1.5,1.2&#10;&#9;&#9;c0,0,0.1,0,0.1,0c0.7-0.2,1.1-0.8,1-1.5c0-0.1-0.1-0.2-0.1-0.3C23.3,21.6,23.1,21.4,22.8,21.2z" id="el_IQctTHgWq2"/></g>
	<g id="el_NcUaWEqfZ1_an_ZpYTQfFkS" data-animator-group="true" data-animator-type="1"><path d="M24.1,25.9c-0.1,0.4-0.5,0.6-0.9,0.5c-0.4-0.1-0.6-0.5-0.5-0.9c0.1-0.4,0.4-0.6,0.8-0.5c0.1,0,0.2,0.1,0.3,0.2&#10;&#9;&#9;c0.1,0.1,0.2,0.1,0.3,0.1h0.1c0.1-0.1,0.2-0.2,0.2-0.4c0,0,0-0.1-0.1-0.1c-0.4-0.3-1-0.4-1.5-0.2c-0.2,0.1-0.4,0.3-0.6,0.6&#10;&#9;&#9;c-0.3,0.7,0.1,1.5,0.8,1.7c0.7,0.3,1.5-0.1,1.7-0.8V26c0-0.2-0.1-0.3-0.2-0.3c-0.1,0-0.1,0-0.2,0l0,0&#10;&#9;&#9;C24.2,25.7,24.1,25.8,24.1,25.9z" id="el_NcUaWEqfZ1"/></g>
	<g id="el_iizMizZNhH_an_s9PkU9Ybu" data-animator-group="true" data-animator-type="1"><path d="M23.9,28c-0.5,0.1-0.8,0.5-1,1c-0.1,0.4,0,0.7,0.2,1c0.1,0.1,0.3,0.2,0.4,0.1c0,0,0.1-0.1,0.1-0.1l0,0&#10;&#9;&#9;c0.1-0.1,0.1-0.2,0-0.3c-0.1-0.2-0.1-0.3-0.1-0.5c0.1-0.3,0.3-0.5,0.6-0.6c0.4-0.1,0.8,0.2,0.8,0.6c0,0.1,0,0.1,0,0.2&#10;&#9;&#9;c0,0.1-0.1,0.2-0.1,0.3c-0.1,0.2-0.3,0.3-0.6,0.3c-0.1,0-0.2,0.1-0.2,0.2l0,0c-0.1,0.1,0,0.3,0.1,0.4c0,0,0.1,0,0.2,0&#10;&#9;&#9;c0.1,0,0.2,0,0.3-0.1c0.7-0.2,1.1-0.9,0.9-1.6C25.4,28.3,24.7,27.8,23.9,28L23.9,28L23.9,28z" id="el_iizMizZNhH"/></g>
</g></g>
<g id="el_Pml_nJyfGH_an_lRr4zDf6c" data-animator-group="true" data-animator-type="0"><g id="el_Pml_nJyfGH_an_F6XGDajnA" data-animator-group="true" data-animator-type="2"><g id="el_Pml_nJyfGH">
	<path d="M22,23.8h0.1h0.1c0.1,0,0.1,0,0.1,0.1v1.3v1.3h0.4h0.4c0.1,0,0.1,0,0.1,0.1v0.1v0.1c0,0.1,0,0.1-0.1,0.1h-0.5h-0.5&#10;&#9;&#9;c-0.1,0-0.1,0-0.2-0.1c-0.1-0.1-0.1-0.1-0.1-0.2v-1.4v-1.4C21.9,23.8,21.9,23.8,22,23.8z" id="el_-TABJ4M-Se"/>
	<path d="M23.5,24.3c0-0.1,0-0.2,0-0.4c0-0.1,0-0.1,0.1-0.1c0,0,0.1,0,0.1,0c0,0,0.1,0,0.1,0c0,0,0.1,0,0.1,0c0,0,0,0.1,0,0.1v1.5&#10;&#9;&#9;v1.5c0,0.1,0,0.1-0.1,0.1h-0.1h-0.1c-0.1,0-0.1,0-0.1-0.1v-1.1v-1.1C23.5,24.5,23.5,24.4,23.5,24.3z" id="el_vbdzqqFy93"/>
	<path d="M25.7,24.6L25.7,24.6h0.2c0.1,0,0.1,0,0.1,0.1v0.7v0.7v0.1v0.1c0,0.1,0,0.1,0,0.2c0,0.1,0,0.1,0,0.2c0,0,0,0.1,0,0.1&#10;&#9;&#9;c0,0,0,0-0.1,0h-0.1h-0.1c-0.1,0-0.1,0-0.1-0.1c0,0,0-0.1,0-0.1s0,0,0-0.1C25.4,26.9,25.3,27,25,27c-0.2,0-0.4-0.1-0.6-0.3&#10;&#9;&#9;c-0.2-0.2-0.2-0.5-0.2-0.9c0-0.3,0.1-0.6,0.2-0.9c0.1-0.1,0.2-0.2,0.3-0.3c0.1-0.1,0.2-0.1,0.4-0.1c0.2,0,0.4,0.1,0.5,0.3&#10;&#9;&#9;c0-0.1,0-0.1,0-0.2C25.6,24.7,25.6,24.6,25.7,24.6z M24.8,25.2c-0.1,0.1-0.1,0.3-0.1,0.6s0,0.5,0.1,0.6c0.1,0.1,0.2,0.2,0.3,0.2&#10;&#9;&#9;c0.3,0,0.4-0.3,0.4-0.8S25.4,25,25.1,25C25,25,24.9,25.1,24.8,25.2z" id="el_X1XRtaSliJ"/>
	<path d="M29.1,26.9C29.1,27,29,27,29.1,26.9l-0.2,0h-0.1c-0.1,0-0.1,0-0.1-0.1v-0.7v-0.7c0-0.1,0-0.2-0.1-0.3&#10;&#9;&#9;c-0.1-0.1-0.1-0.1-0.2-0.1s-0.2,0-0.2,0.1S28,25.3,28,25.4v0.7v0.7c0,0.1,0,0.1-0.1,0.1h-0.1h-0.1c-0.1,0-0.1,0-0.1-0.1v-0.7v-0.7&#10;&#9;&#9;c0-0.1,0-0.2-0.1-0.3S27.2,25,27.1,25c-0.1,0-0.2,0-0.2,0.1s-0.1,0.2-0.1,0.3v0.7v0.7c0,0.1,0,0.1-0.1,0.1h-0.1h-0.1&#10;&#9;&#9;c-0.1,0-0.1,0-0.1-0.1v-0.7v-0.7c0-0.1,0-0.2,0-0.3c0-0.1,0-0.2,0-0.3c0-0.1,0-0.1,0.1-0.1c0,0,0.1,0,0.1,0c0,0,0.1,0,0.1,0&#10;&#9;&#9;c0,0,0.1,0,0.1,0c0,0,0,0,0,0.1c0,0,0,0.1,0,0.1s0,0,0,0.1c0.1-0.2,0.3-0.3,0.5-0.3c0.1,0,0.2,0,0.3,0.1c0.1,0.1,0.2,0.2,0.2,0.3&#10;&#9;&#9;c0.1-0.3,0.3-0.4,0.6-0.4c0.3,0,0.5,0.1,0.6,0.4s0.1,0.5,0.1,0.7v0.8c0,0.1,0,0.2,0,0.2C29.1,26.7,29.1,26.8,29.1,26.9&#10;&#9;&#9;C29.1,26.9,29.1,26.9,29.1,26.9z" id="el_fLuvPGSDKOW"/>
	<path d="M30.9,24.6L30.9,24.6h0.2c0.1,0,0.1,0,0.1,0.1v0.7v0.7v0.1v0.1c0,0.1,0,0.1,0,0.2c0,0.1,0,0.1,0,0.2c0,0,0,0.1,0,0.1&#10;&#9;&#9;c0,0,0,0-0.1,0H31h-0.1c-0.1,0-0.1,0-0.1-0.1c0,0,0-0.1,0-0.1s0,0,0-0.1c-0.1,0.2-0.3,0.3-0.6,0.3c-0.2,0-0.4-0.1-0.6-0.3&#10;&#9;&#9;c-0.2-0.2-0.2-0.5-0.2-0.9c0-0.3,0.1-0.6,0.2-0.9c0.1-0.1,0.2-0.2,0.3-0.3s0.2-0.1,0.4-0.1c0.2,0,0.4,0.1,0.5,0.3&#10;&#9;&#9;c0-0.1,0-0.1,0-0.2C30.8,24.7,30.8,24.6,30.9,24.6z M30,25.2c-0.1,0.1-0.1,0.3-0.1,0.6s0,0.5,0.1,0.6c0.1,0.1,0.2,0.2,0.3,0.2&#10;&#9;&#9;c0.3,0,0.4-0.3,0.4-0.8S30.6,25,30.3,25C30.2,25,30.1,25.1,30,25.2z" id="el_Qr26UHudvE9"/>
	<path d="M32.1,25.2C32,25.3,32,25.3,32,25.4v0.7v0.7c0,0.1,0,0.1-0.1,0.1h-0.1h-0.1c-0.1,0-0.1,0-0.1-0.1v-0.6v-0.6&#10;&#9;&#9;c0-0.1,0-0.3,0-0.4c0-0.1,0-0.3,0-0.4c0-0.1,0-0.1,0.1-0.1c0,0,0.1,0,0.1,0c0,0,0.1,0,0.1,0c0,0,0.1,0,0.1,0c0,0,0.1,0,0.1,0.1&#10;&#9;&#9;c0,0,0,0.1,0,0.1c0.1-0.1,0.3-0.2,0.5-0.2c0.1,0,0.3,0,0.4,0.1c0.1,0,0.1,0.1,0,0.2c0,0,0,0.1-0.1,0.1s0,0.1,0,0.1&#10;&#9;&#9;c0,0.1-0.1,0.1-0.2,0.1c-0.1,0-0.2,0-0.3,0C32.2,25.1,32.1,25.1,32.1,25.2z" id="el_sv_ncxzZrWD"/>
</g></g></g>
</svg>
