<svg id="Capa_1" data-name="Capa 1" xmlns="http://www.w3.org/2000/svg" viewBox="0 0 303.91 303.91"><defs><style>.cls-1{stroke:#000;stroke-miterlimit:10;stroke-width:0.89px;}</style></defs><title>portafolio</title><path class="cls-1" d="M228.85,74.69q-13.26-2.52-26.27-4a2.08,2.08,0,0,0-2.27,1.71v0a2.07,2.07,0,0,0,1.81,2.41c8.56,1,17.23,2.27,26,3.92a2.07,2.07,0,0,0,2.36-1.42v0A2.07,2.07,0,0,0,228.85,74.69Z"/><path class="cls-1" d="M83.33,233.26a2.09,2.09,0,0,0-2.11-2.09l-14,.1a24.57,24.57,0,0,1-23.72-26.55l0-.5c.72-24.37.74-45.73,0-63.47l0-1.17c-.27-6.68-1-24.43-1-48.09h0a5.38,5.38,0,0,1,3.94-5.21c25-6.88,48.84-11.09,71-12.53,9.29-.6,20.5-.87,22.68-.92,6.41-.14,41.37.72,49.12.92a1.75,1.75,0,0,0,1.77-1.48c0-.28.09-.57.13-.85a1.68,1.68,0,0,0-1.54-1.91c-20.92-1.49-42.43-1-49.6-.86-2.17,0-13.45.32-22.84.93C94.68,71,70.51,75.3,45.24,82.26a9.5,9.5,0,0,0-7,9.17v.07c0,23.74.76,41.54,1,48.25l0,1.17c.69,17.64.67,38.9,0,63.18,0,.1,0,.2,0,.3a28.76,28.76,0,0,0,27.84,31l14.12-.1a2.09,2.09,0,0,0,2.08-2.09Z"/><path class="cls-1" d="M263.87,90.1a9.53,9.53,0,0,0-7-9q-7.38-2-14.74-3.63a2.07,2.07,0,0,0-2.4,1.34l0,0a2.06,2.06,0,0,0,1.5,2.69q7.26,1.65,14.58,3.59a5.33,5.33,0,0,1,3.92,5l1.76,118.37c0,.31,0,.62,0,.93-1,9.57-6,17.15-13.05,19.79a17.28,17.28,0,0,1-8.34.88,9.76,9.76,0,0,0-1.28-.08l-134.39,1a2.05,2.05,0,0,0-2,2.06v.05a2.06,2.06,0,0,0,2.08,2.07l134.39-1a3.94,3.94,0,0,1,.73.05,21.37,21.37,0,0,0,10.33-1.11c8.59-3.22,14.62-12.2,15.75-23.44a8.32,8.32,0,0,0,.05-1.13Z"/><path class="cls-1" d="M55.63,119.41h0a2.08,2.08,0,0,0-2.09,2.1l0,16.14a2.09,2.09,0,0,0,2.09,2.09h0a2.08,2.08,0,0,0,2.09-2.1l0-16.14A2.09,2.09,0,0,0,55.63,119.41Z"/><path class="cls-1" d="M74.93,90.78a39.83,39.83,0,0,0-16.24,2.59A8.2,8.2,0,0,0,53.48,101l0,7a2.09,2.09,0,0,0,2.09,2.09h0a2.09,2.09,0,0,0,2.09-2.1l0-7h0a4,4,0,0,1,2.53-3.74,34.52,34.52,0,0,1,5.14-1.55,36.16,36.16,0,0,1,7.4-.82V218.26a16.9,16.9,0,0,1-7.78-.34,9.56,9.56,0,0,1-5-2.66,8.79,8.79,0,0,1-2-6.09l-.16-58A2.09,2.09,0,0,0,55.71,149h0a2.09,2.09,0,0,0-2.09,2.1l.16,58A12.93,12.93,0,0,0,56.87,218a13.5,13.5,0,0,0,6.91,3.9,20.51,20.51,0,0,0,5.71.8,22.55,22.55,0,0,0,5.88-.79l1.55-.41V90.88Z"/><path class="cls-1" d="M248.11,199.81h0a2.06,2.06,0,0,0-2.09,2.06l0,7.36a8.75,8.75,0,0,1-2,6,9.65,9.65,0,0,1-5,2.67,16.71,16.71,0,0,1-5.89.58,2.08,2.08,0,0,1-1.89-2.07V97.07A2.08,2.08,0,0,1,233.39,95a36.24,36.24,0,0,1,5.19.74c.65.14,1.28.3,1.88.47a7.85,7.85,0,0,1,5.79,7.55L246,185.4a2.08,2.08,0,0,0,2.07,2.08h0a2.06,2.06,0,0,0,2.07-2.06l.23-81.66a12.06,12.06,0,0,0-8.85-11.59c-.68-.19-1.38-.36-2.1-.52a39.85,39.85,0,0,0-10.5-.87h0a2.07,2.07,0,0,0-2,2.07V220a2.08,2.08,0,0,0,1.53,2h0a22.49,22.49,0,0,0,5.88.79,20.62,20.62,0,0,0,5.71-.8,13.5,13.5,0,0,0,6.91-3.9,12.88,12.88,0,0,0,3.09-8.86l0-7.3A2.07,2.07,0,0,0,248.11,199.81Z"/><path class="cls-1" d="M170.45,217.64h-64.2a2.09,2.09,0,0,1-2.09-2.09l-.39-120.94a2.1,2.1,0,0,1,2-2.1q3.84-.18,7.68-.33a2.08,2.08,0,0,0,2-2.08h0a2.1,2.1,0,0,0-2.17-2.1q-5.88.23-11.73.53h0a2.09,2.09,0,0,0-2,2.09L100,219.74a2.09,2.09,0,0,0,2.09,2.08h68.37a2.1,2.1,0,0,0,2.09-2.09h0A2.09,2.09,0,0,0,170.45,217.64Z"/><path class="cls-1" d="M201.59,88.73c-15.93-.88-32.1-1.37-48.06-1.43-8.87,0-17.8.06-26.73.28a2.09,2.09,0,0,0-2,2.1h0a2.08,2.08,0,0,0,2.13,2.08c8.9-.22,17.79-.33,26.62-.29,14.57.06,29.32.47,43.89,1.22a2.09,2.09,0,0,1,2,2.09V215.55a2.09,2.09,0,0,1-2.08,2.09h-5.79a2.08,2.08,0,0,0-2.09,2.09h0a2.09,2.09,0,0,0,2.09,2.09h10a2.1,2.1,0,0,0,2.09-2.09V90.82a2.1,2.1,0,0,0-2-2.09Z"/><path class="cls-1" d="M88.58,128.42a7.86,7.86,0,1,1,7.86-7.86A7.87,7.87,0,0,1,88.58,128.42Zm0-11.53a3.68,3.68,0,1,0,3.67,3.67A3.68,3.68,0,0,0,88.58,116.89Z"/><path class="cls-1" d="M88.58,162.69a7.86,7.86,0,1,1,7.86-7.85A7.86,7.86,0,0,1,88.58,162.69Zm0-11.52a3.67,3.67,0,1,0,3.67,3.67A3.67,3.67,0,0,0,88.58,151.17Z"/><path class="cls-1" d="M88.58,197a7.86,7.86,0,1,1,7.86-7.86A7.86,7.86,0,0,1,88.58,197Zm0-11.53a3.68,3.68,0,1,0,3.67,3.67A3.68,3.68,0,0,0,88.58,185.44Z"/><path class="cls-1" d="M215.54,128.42a7.86,7.86,0,1,1,7.85-7.86A7.87,7.87,0,0,1,215.54,128.42Zm0-11.53a3.68,3.68,0,1,0,3.67,3.67A3.67,3.67,0,0,0,215.54,116.89Z"/><path class="cls-1" d="M215.54,162.69a7.86,7.86,0,1,1,7.85-7.85A7.87,7.87,0,0,1,215.54,162.69Zm0-11.52a3.67,3.67,0,1,0,3.67,3.67A3.67,3.67,0,0,0,215.54,151.17Z"/><path class="cls-1" d="M215.54,197a7.86,7.86,0,1,1,7.85-7.86A7.87,7.87,0,0,1,215.54,197Zm0-11.53a3.68,3.68,0,1,0,3.67,3.67A3.67,3.67,0,0,0,215.54,185.44Z"/><path class="cls-1" d="M158.11,185.56H134a10.87,10.87,0,0,1-10.87-10.87V144A10.88,10.88,0,0,1,134,133.08h.71a2.05,2.05,0,0,0,2-2.05V131a2.05,2.05,0,0,0-2-2H134A15.05,15.05,0,0,0,119,144v30.73a15.06,15.06,0,0,0,15,15.06h24.11a2.06,2.06,0,0,0,2-2.06v0A2.06,2.06,0,0,0,158.11,185.56Z"/><path class="cls-1" d="M170.59,128.9h-8.94l-.14,0-5.07,0h-9.27l-.13,0h-1.67a2.09,2.09,0,0,0-2.09,2.09h0a2.09,2.09,0,0,0,2.1,2.09l11,0h14.24a9.94,9.94,0,0,1,9.94,9.94v32.6a9.94,9.94,0,0,1-9.94,9.94,1.12,1.12,0,0,0-1.12,1.1c0,.66,0,1.32,0,2a1.12,1.12,0,0,0,1.12,1.12h0a14.13,14.13,0,0,0,14.12-14.13V143A14.12,14.12,0,0,0,170.59,128.9Z"/><path class="cls-1" d="M154,176l-4.59,0a7,7,0,0,1-4.37-2.64,6.22,6.22,0,0,1-1.38-4.59l0-.17,2-11.69a3.12,3.12,0,0,0,0-1,8.08,8.08,0,0,1-.87-1.95,8.62,8.62,0,0,1-.46-1.13c0-.13-.09-.29-.13-.45a7.46,7.46,0,0,1-.22-1.47,2.24,2.24,0,0,1,0-.43,7.86,7.86,0,0,1,15.72,0,2.45,2.45,0,0,1,0,.44,8.1,8.1,0,0,1-.22,1.44c-.05.18-.1.34-.15.5a6.82,6.82,0,0,1-.44,1.1,8.57,8.57,0,0,1-.89,2,3.2,3.2,0,0,0,0,1l2,11.81a6.17,6.17,0,0,1-1.37,4.59,7,7,0,0,1-4.37,2.64Zm-4-4.18h3.58A3,3,0,0,0,155,171c.74-1.12.76-1.22.71-1.86l-2-11.59a6.25,6.25,0,0,1,.46-3.7l.32-.61-.07-.23.46-.81a3.56,3.56,0,0,0,.31-.73c0-.09.06-.16.08-.23a4.16,4.16,0,0,0,.1-.72,2.46,2.46,0,0,1,0-.28,3.68,3.68,0,0,0-7.35,0,2.48,2.48,0,0,1,0,.27,3.57,3.57,0,0,0,.1.74l.06.19a3.46,3.46,0,0,0,.31.72l.49.82-.08.27.32.6a6.32,6.32,0,0,1,.46,3.66l-2,11.63c-.05.64,0,.74.71,1.86A3,3,0,0,0,150,171.78Zm-1.24-19.29v0Z"/></svg>