<svg id="Capa_1" data-name="Capa 1" xmlns="http://www.w3.org/2000/svg" viewBox="0 0 303.91 303.91"><title>skills</title><path d="M236,209.32a2.79,2.79,0,0,1-4,0l-17.85-17.85a2.8,2.8,0,1,1,4-3.95L236,205.37A2.79,2.79,0,0,1,236,209.32Z"/><path d="M217.67,228.7a2.87,2.87,0,0,1-4.06,0l-26.52-26.52a2.87,2.87,0,0,1,4-4.06l26.53,26.53A2.86,2.86,0,0,1,217.67,228.7Z"/><path d="M226.67,166.17,174,218.83a2.92,2.92,0,0,1-4.13,0l-11.7-11.7a2.92,2.92,0,0,1,0-4.13l52.66-52.67a2.92,2.92,0,0,1,4.13,0L226.67,162A2.92,2.92,0,0,1,226.67,166.17Zm-54.73,46.47,48.53-48.54-7.57-7.57-48.54,48.53Z"/><path d="M129.06,120.36a2.76,2.76,0,0,1-3.91,0L100,95.19a2.76,2.76,0,0,1,3.9-3.9l25.18,25.17A2.77,2.77,0,0,1,129.06,120.36Z"/><path d="M247.66,239.83a14.3,14.3,0,0,1-20.2,0l-.78-.79a2.92,2.92,0,0,1,0-4.13l16.07-16.07a2.92,2.92,0,0,1,4.13,0l.78.79A14.3,14.3,0,0,1,247.66,239.83Zm-14.65-3a8.44,8.44,0,0,0,11.66-11.66Z"/><path d="M254.4,215.45l-31.11,31.11a2.92,2.92,0,0,1-4.13,0l-11.43-11.42a2.92,2.92,0,0,1,0-4.13l31.11-31.11a2.92,2.92,0,0,1,4.13,0l11.43,11.42A2.92,2.92,0,0,1,254.4,215.45Zm-33.18,24.92,27-27-7.29-7.29-27,27Z"/><path d="M112.14,134.6,78,100.42a3.84,3.84,0,0,1-1.09-2.22L72.57,64.5,107.1,70a3.86,3.86,0,0,1,2.1,1.07l40.32,40.33,4.14-4.11L113.32,66.94a9.65,9.65,0,0,0-5.31-2.7L69.65,58.13a2.93,2.93,0,0,0-2.49.79,2.81,2.81,0,0,0-.86,2.46l4.78,37.55a9.7,9.7,0,0,0,2.75,5.61L108,138.72a2.92,2.92,0,0,0,4.12,0h0A2.92,2.92,0,0,0,112.14,134.6Z"/><path d="M152.9,175.36l-4.2,4,18.19,18.19a3,3,0,0,0,3.86.43,2.91,2.91,0,0,0,.37-4.44Z"/><path d="M205.09,158.72l-11.88-11.89a2.93,2.93,0,0,0-4.09,0h0a2.92,2.92,0,0,0,0,4.16l12,12a2.91,2.91,0,0,0,4.44-.38A3,3,0,0,0,205.09,158.72Z"/><path d="M86.75,226.24a2.79,2.79,0,0,1,0-4l17.85-17.85a2.79,2.79,0,0,1,4,3.95L90.71,226.24A2.81,2.81,0,0,1,86.75,226.24Z"/><path d="M67.37,207.89a2.87,2.87,0,0,1,0-4.06L93.9,177.31a2.86,2.86,0,1,1,4,4.05L71.43,207.89A2.87,2.87,0,0,1,67.37,207.89Z"/><path d="M129.91,216.88,77.24,164.22a2.92,2.92,0,0,1,0-4.13L89,148.39a2.92,2.92,0,0,1,4.13,0l52.66,52.66a2.92,2.92,0,0,1,0,4.13L134,216.88A2.92,2.92,0,0,1,129.91,216.88ZM83.44,162.15,132,210.69l7.57-7.57L91,154.58Z"/><path d="M98.36,161.34a2.91,2.91,0,0,1,0-4.12l93.17-93.17a9.7,9.7,0,0,1,5.61-2.75l37.55-4.78a2.79,2.79,0,0,1,2.47.86,2.89,2.89,0,0,1,.78,2.49l-6.1,38.36a9.57,9.57,0,0,1-2.71,5.31l-91.88,91.88a2.91,2.91,0,1,1-4.12-4.12L225,99.42a3.86,3.86,0,0,0,1.07-2.1l5.49-34.53-33.69,4.29a3.87,3.87,0,0,0-2.22,1.09l-93.18,93.17A2.91,2.91,0,0,1,98.36,161.34Z"/><path d="M116,178.18a2.88,2.88,0,0,1,0-4.08l41.35-41.35a2.88,2.88,0,0,1,4.08,4.08L120,178.18A2.88,2.88,0,0,1,116,178.18Z"/><path d="M165,130a2.92,2.92,0,0,1,0-4.13l9.77-9.77a2.92,2.92,0,0,1,4.13,4.13L169.17,130A2.92,2.92,0,0,1,165,130Z"/><path d="M181.52,113.46a2.77,2.77,0,0,1,0-3.9l25.17-25.17a2.76,2.76,0,0,1,3.91,3.9l-25.17,25.17A2.76,2.76,0,0,1,181.52,113.46Z"/><path d="M56.25,237.88a14.3,14.3,0,0,1,0-20.2l.78-.78a2.9,2.9,0,0,1,4.13,0L77.23,233a2.92,2.92,0,0,1,0,4.13l-.78.78A14.3,14.3,0,0,1,56.25,237.88Zm3-14.65A8.45,8.45,0,0,0,70.9,234.89Z"/><path d="M80.62,244.62,49.51,213.51a2.92,2.92,0,0,1,0-4.13L60.94,198a2.92,2.92,0,0,1,4.13,0l31.1,31.11a2.92,2.92,0,0,1,0,4.13L84.75,244.62A2.92,2.92,0,0,1,80.62,244.62ZM55.71,211.44l27,27L90,231.13l-27-27Z"/></svg>